<svg width="24" height="22" viewBox="0 0 24 22" fill="none" xmlns="http://www.w3.org/2000/svg">
<path d="M0.709339 9.264L0.709499 9.26384C0.998646 8.97242 1.38992 8.80542 1.79995 8.80542H5.39984C5.80993 8.80542 6.2012 8.97242 6.49043 9.26387L6.49046 9.2639L6.49789 9.27147L6.49793 9.27151C6.7842 9.56618 6.9499 9.96686 6.9499 10.3887V20.1665C6.9499 20.5884 6.7842 20.9891 6.4979 21.2838L6.49786 21.2838L6.49044 21.2914L6.4904 21.2914C6.20124 21.5829 5.80997 21.7499 5.39995 21.7499H1.79995C1.38998 21.7499 0.998706 21.5829 0.709487 21.2914L0.709321 21.2913L0.701972 21.2838C0.701961 21.2838 0.701951 21.2838 0.70194 21.2837C0.415683 20.9891 0.25 20.5884 0.25 20.1666V10.3888C0.25 9.96691 0.415696 9.56622 0.701988 9.27148L0.709339 9.264ZM2.39995 10.7499H2.14995V10.9999V19.5554V19.8054H2.39995H4.79995H5.04995V19.5554V10.9999V10.7499H4.79995H2.39995Z" fill="black" stroke="#FCFCFC" stroke-width="0.5"/>
<path d="M10.2003 0.25011H10.2003C9.79035 0.25011 9.39911 0.417086 9.10995 0.708472C9.10993 0.708493 9.10991 0.708514 9.10989 0.708535L9.10253 0.716039L9.10238 0.716189C8.81608 1.01092 8.65039 1.41161 8.65039 1.83339V20.1667C8.65039 20.5886 8.81609 20.9892 9.10236 21.2839L9.10244 21.284L9.10984 21.2915L9.10986 21.2915C9.39909 21.583 9.79036 21.75 10.2004 21.75H13.8004C14.2105 21.75 14.6017 21.583 14.8909 21.2916L14.8909 21.2915L14.8984 21.284L14.8984 21.2839C15.1847 20.9892 15.3504 20.5885 15.3504 20.1666V1.83328C15.3504 1.41144 15.1847 1.01075 14.8984 0.716092L14.8983 0.715931L14.8909 0.708441L10.2003 0.25011ZM10.2003 0.25011L13.8003 0.25C13.8003 0.25 13.8003 0.25 13.8003 0.25C14.2104 0.250002 14.6016 0.416969 14.8908 0.708351L10.2003 0.25011ZM10.8003 2.19455H10.5503V2.44455V19.5557V19.8057H10.8003H13.2003H13.4503V19.5557V2.44455V2.19455H13.2003H10.8003Z" fill="black" stroke="#FCFCFC" stroke-width="0.5"/>
<path d="M23.4688 21.4677C23.1339 21.8052 22.6792 22 22.2008 22H18.6008C18.1224 22 17.6677 21.8052 17.3328 21.4677L17.3234 21.4581C16.9921 21.1171 16.8008 20.654 16.8008 20.1667V6.72231C16.8008 6.235 16.9921 5.77192 17.3235 5.43079L23.4688 21.4677ZM23.4688 21.4677L23.4781 21.4582L23.4688 21.4677ZM17.5102 5.59738L17.5103 5.59734C17.7994 5.30592 18.1907 5.13892 18.6007 5.13892H22.2007C22.6108 5.13892 23.0021 5.30592 23.2913 5.59737L23.2913 5.59739L23.2988 5.60496L23.2988 5.605C23.5851 5.89968 23.7508 6.30036 23.7508 6.7222V20.1666C23.7508 20.5885 23.5851 20.9892 23.2988 21.284L23.2988 21.284L23.2913 21.2916L23.2913 21.2916C23.0021 21.583 22.6109 21.75 22.2008 21.75H18.6008C18.1908 21.75 17.7995 21.583 17.5103 21.2916L17.5102 21.2916L17.5028 21.284L17.5028 21.2839C17.2165 20.9893 17.0508 20.5886 17.0508 20.1667V6.72231C17.0508 6.30041 17.2165 5.89972 17.5028 5.60498L17.5028 5.60495L17.5102 5.59738ZM19.2007 7.08336H18.9507V7.33336V19.5556V19.8056H19.2007H21.6007H21.8507V19.5556V7.33336V7.08336H21.6007H19.2007Z" fill="black" stroke="#FCFCFC" stroke-width="0.5"/>
</svg>
