<svg width="353" height="424" viewBox="0 0 353 424" fill="none" xmlns="http://www.w3.org/2000/svg">
<path d="M212.258 17.3108C198.218 17.3108 184.074 18.848 170.209 21.9016C119.422 33.0535 76.0315 63.3525 48.0228 107.155C20.014 150.969 10.7397 203.066 21.9329 253.833C41.3997 342.398 121.258 406.689 211.804 406.689C225.865 406.689 239.999 405.142 253.854 402.098C304.651 390.947 348.041 360.648 376.05 316.845C404.069 273.031 413.333 220.944 402.13 170.167C382.653 81.5917 302.804 17.3108 212.258 17.3108ZM211.804 424C113.201 424 26.2245 353.994 5.02447 257.547C-7.13845 202.272 2.95088 145.542 33.4459 97.8399C63.9512 50.1373 111.21 17.1561 166.485 5.01379C181.547 1.69196 196.97 6.10352e-05 212.258 6.10352e-05C310.872 6.10352e-05 397.828 70.0065 419.038 166.454C431.222 221.739 421.143 278.458 390.627 326.171C360.132 373.883 312.883 406.844 257.578 418.997C242.495 422.308 227.114 424 211.804 424Z" fill="#01A6FF"/>
</svg>
