<svg width="567" height="479" viewBox="0 0 567 479" fill="none" xmlns="http://www.w3.org/2000/svg">
<path d="M564.039 427.146C569.827 446.551 564.039 479 564.039 479H0C0 479 23.932 436.4 78.079 403.939C78.079 403.939 88.0735 404.938 87.4495 398.226C86.8239 391.512 83.0771 383.396 87.4495 387.141C91.822 390.888 91.822 400.684 93.6955 396.41C95.5689 392.135 93.0698 382.748 96.1945 386.192C99.3158 389.638 102.44 396.337 104.939 392.675C107.437 389.014 156.16 375.278 159.905 374.654C163.653 374.03 161.682 366.022 162.73 365.823C168.026 364.82 162.767 373.406 168.52 370.907C174.272 368.411 191.138 368.254 198.633 363.648C206.129 359.046 344.173 345.934 445.364 368.099C546.553 390.264 557.118 403.939 564.039 427.146Z" fill="#D0D5DF"/>
<path d="M254.65 243.339C254.345 243.339 254.044 243.199 253.852 242.931C251.205 239.222 246.343 228.37 245.842 223.363C245.342 218.36 248.192 206.406 248.312 205.901C248.436 205.375 248.955 205.057 249.491 205.177C250.018 205.302 250.343 205.831 250.216 206.357C250.188 206.479 247.323 218.494 247.79 223.167C248.257 227.817 252.972 238.327 255.448 241.79C255.76 242.233 255.661 242.842 255.219 243.158C255.045 243.281 254.847 243.339 254.65 243.339Z" fill="#3662C1"/>
<path d="M282.194 268.869V268.876V268.869ZM268.561 353.879L262.117 353.414C269.104 351.544 273.436 340.296 276.141 332.566C276.648 331.119 277.133 329.732 277.622 328.461C280.031 322.184 280.243 302.66 280.116 295.158C279.105 291.621 276.418 283.018 274.535 280.215C273.715 279.001 273.434 277.643 273.718 276.295C274.315 273.456 277.211 271.624 279.764 270.007C280.581 269.491 281.761 268.744 282.253 268.288C282.825 264.666 287.045 263.536 290.166 262.701C291.144 262.437 292.072 262.189 292.812 261.915C295.841 259.132 309.085 233.801 311.998 220.202C314.458 208.711 310.292 204.667 310.248 204.626L314.071 200.166C314.786 200.761 320.96 206.422 317.742 221.433C315.241 233.105 300.758 265.05 295.24 267.275C294.135 267.718 292.889 268.054 291.685 268.374C290.543 268.682 288.711 269.172 288.016 269.606C287.652 271.97 285.342 273.431 282.908 274.97C281.954 275.573 280.295 276.625 279.654 277.317C282.426 281.804 285.52 292.671 285.875 293.929L285.983 294.666C286.036 297.434 286.413 321.954 283.107 330.566C282.639 331.787 282.172 333.119 281.687 334.504C278.657 343.161 278.547 351.202 268.561 353.879Z" fill="#E75755"/>
<path d="M377.542 295.24C372.911 292.963 360.891 290.611 353.696 289.084C350.619 288.433 347.961 287.87 345.969 287.361C341.705 286.274 338.751 287.476 336.142 288.539C335.187 288.928 334.285 289.295 333.376 289.525C329.719 290.433 327.238 286.847 325.434 284.221C325.243 283.944 325.011 283.606 324.786 283.293C324.766 283.301 324.748 283.313 324.731 283.322C322.443 284.659 319.31 286.485 316.349 285.618C314.939 285.203 313.818 284.252 313.105 282.86C312.202 281.095 311.772 279.269 311.393 277.656C310.839 275.305 310.44 273.816 309.283 272.891C305.293 269.699 305.305 268.197 305.217 267.737L308.216 262.849C308.223 262.873 310.627 266.442 312.954 268.302C315.751 270.542 316.474 273.604 317.112 276.31C317.419 277.624 317.714 278.868 318.221 279.947C319.151 279.778 321.016 278.689 321.768 278.249C322.847 277.618 323.627 277.165 324.45 276.961C327.094 276.295 328.723 278.635 330.275 280.892C330.831 281.702 331.807 283.122 332.434 283.678C332.86 283.531 333.366 283.327 333.922 283.098C336.856 281.903 341.28 280.096 347.425 281.67C349.298 282.146 351.901 282.698 354.915 283.337C362.832 285.016 370.459 287.231 375.746 289.828L377.542 295.24Z" fill="#E75755"/>
<path d="M410.836 327.064C410.654 327.064 410.466 327.012 410.3 326.906C399.381 319.782 374.774 317.778 374.528 317.756C373.988 317.716 373.586 317.244 373.628 316.705C373.672 316.167 374.156 315.726 374.68 315.807C375.711 315.888 400.029 317.87 411.371 325.265C411.826 325.56 411.951 326.167 411.656 326.62C411.469 326.907 411.154 327.064 410.836 327.064Z" fill="#3662C1"/>
<path d="M402.513 306.009V306.011V306.009ZM402.048 307.816C401.417 307.816 400.668 307.691 399.796 307.443C396.306 306.445 377.862 296.523 377.078 296.102C376.601 295.845 376.423 295.252 376.68 294.773C376.937 294.3 377.536 294.124 378.008 294.376C384.58 297.917 397.702 304.808 400.335 305.559C401.806 305.978 402.381 305.848 402.538 305.791C402.636 305.355 403.027 305.032 403.492 305.032C404.033 305.032 404.471 305.47 404.471 306.011C404.471 306.393 404.286 306.939 403.766 307.329C403.336 307.654 402.766 307.816 402.048 307.816Z" fill="#3662C1"/>
<path d="M412.305 294.749C412.305 294.749 403.002 303.807 403.002 304.788C403.002 305.767 409.611 311.641 410.102 313.599C410.59 315.56 414.998 313.11 416.221 313.599C417.447 314.089 417.202 317.518 413.774 318.25C410.347 318.986 410.59 327.8 411.816 329.024C413.04 330.246 423.566 335.633 429.441 341.753C435.317 347.873 438.499 353.992 440.947 354.973C443.396 355.952 445.844 356.686 446.58 351.789C447.312 346.894 448.047 336.367 441.681 328.779C435.317 321.19 432.625 320.455 430.666 320.455C428.708 320.455 425.524 320.7 426.75 318.007C427.974 315.313 430.666 312.866 429.687 310.662C428.708 308.458 421.119 294.015 412.305 294.749Z" fill="#3662C1"/>
<path d="M446.328 358.56C444.311 358.56 443.141 357.388 442.765 356.634C442.524 356.15 442.718 355.563 443.202 355.32C443.687 355.083 444.262 355.273 444.51 355.743C444.586 355.881 445.256 356.98 447.32 356.47C450.132 355.768 452.332 354.963 452.961 351.61C453.666 347.84 453.137 337.784 448.682 330.514C446.421 326.823 443.379 323.97 440.938 321.676C438.293 319.192 436.203 317.232 436.054 315.137C436 314.38 435.982 313.611 435.961 312.823C435.895 310.087 435.824 307.255 434.196 304C431.985 299.575 426.714 293.779 421.726 291.738C417.146 289.866 415.078 290.69 413.208 295.13C412.995 295.625 412.425 295.859 411.925 295.652C411.428 295.443 411.193 294.868 411.404 294.369C413.692 288.933 416.901 287.65 422.469 289.926C428.086 292.225 433.608 298.442 435.948 303.124C437.771 306.771 437.848 309.962 437.918 312.775C437.938 313.531 437.957 314.272 438.009 314.999C438.102 316.326 440.038 318.144 442.277 320.249C444.806 322.621 447.953 325.577 450.352 329.489C455.364 337.669 455.565 348.354 454.885 351.97C454.045 356.451 450.922 357.589 447.796 358.372C447.265 358.504 446.776 358.56 446.328 358.56Z" fill="#3662C1"/>
<path d="M272.054 205.174C267.247 205.174 258.541 204.54 253.983 200.321C251.529 198.049 250.322 196.229 249.258 194.626C248.339 193.24 247.544 192.045 246.092 190.689C242.331 187.173 243.878 183.093 243.948 182.923C244.144 182.417 244.713 182.174 245.217 182.37C245.718 182.567 245.965 183.134 245.772 183.634C245.725 183.758 244.664 186.674 247.431 189.256C249.049 190.77 249.943 192.117 250.888 193.543C251.942 195.13 253.034 196.77 255.315 198.884C260.019 203.24 270.451 203.292 273.552 203.192C274.095 203.169 274.545 203.601 274.558 204.142C274.573 204.683 274.149 205.133 273.608 205.15C273.157 205.164 272.634 205.174 272.054 205.174Z" fill="#3662C1"/>
<path d="M279.248 213.89C269.639 213.89 260.26 212.097 255.269 210.141C244.901 206.075 245.207 201.721 245.547 200.483C245.682 199.991 245.849 199.568 246.005 199.179C246.404 198.172 246.553 197.795 245.944 196.878C244.544 194.778 245.679 190.235 245.812 189.723C245.948 189.202 246.478 188.882 247.006 189.024C247.528 189.161 247.843 189.696 247.706 190.22C247.256 191.943 246.918 194.812 247.574 195.793C248.753 197.563 248.281 198.752 247.826 199.901C247.694 200.233 247.55 200.588 247.439 201.004C246.982 202.652 248.945 205.559 255.984 208.317C264.459 211.644 286.008 214.493 298.779 208.347C319.49 198.373 320.954 194.68 320.91 193.784C320.868 192.935 320.77 192.022 320.669 191.084C320.381 188.377 320.051 185.31 320.978 182.927C322.133 179.95 323.279 176.992 322.097 173.296C321.259 170.672 321.071 166.753 320.89 162.96C320.778 160.656 320.675 158.478 320.43 156.821C319.737 152.153 318.268 148.786 317.671 148.291C317.256 147.946 317.199 147.327 317.546 146.913C317.894 146.497 318.513 146.444 318.925 146.786C320.352 147.976 321.796 152.677 322.366 156.533C322.625 158.287 322.733 160.512 322.846 162.867C323.02 166.531 323.201 170.32 323.962 172.701C325.357 177.057 324.023 180.487 322.848 183.516C322.05 185.575 322.336 188.27 322.616 190.876C322.721 191.853 322.821 192.805 322.865 193.688C322.973 195.882 320.685 199.972 299.628 210.111C293.91 212.865 286.516 213.89 279.248 213.89Z" fill="#3662C1"/>
<path d="M367.355 215.578C362.362 215.578 356.832 214.462 354.314 213.886C350.381 212.986 349.595 207.821 349.022 204.052C348.811 202.667 348.493 200.577 348.105 200.249C345.765 198.69 345.392 197.322 345.392 193.738C345.392 191.881 344.328 190.466 343.099 188.828C342.34 187.816 341.555 186.773 340.926 185.515C339.557 182.776 334.809 169.397 335.967 165.538C336.772 162.84 333.488 156.763 328.076 154.653C322.197 152.362 310.447 145.089 309.95 144.78C309.49 144.496 309.348 143.892 309.634 143.432C309.921 142.972 310.53 142.835 310.983 143.116C311.103 143.19 323.074 150.603 328.786 152.828C334.959 155.234 338.992 162.253 337.844 166.098C337.005 168.891 340.957 181.2 342.678 184.638C343.226 185.738 343.958 186.711 344.665 187.651C345.983 189.409 347.35 191.23 347.35 193.738C347.35 197.077 347.676 197.61 349.199 198.624C350.285 199.348 350.569 201.198 350.958 203.756C351.474 207.149 352.116 211.375 354.75 211.977C363.81 214.055 374.049 214.603 375.137 210.91C376.045 207.824 375.652 202.919 375.307 198.59C375.059 195.447 374.82 192.478 375.105 190.486C375.532 187.497 369.975 166.684 366.652 154.25C365.039 148.211 363.766 143.441 363.367 141.539C362.19 135.957 327.993 111.212 319.236 107.644C311.69 104.572 300.441 100.551 289.606 100.861C289.317 100.889 289.036 100.751 288.844 100.534C286.911 98.3667 284.444 95.942 283.48 95.3824C283.328 95.5447 283.097 95.7932 282.883 96.0215C280.543 98.5476 275.082 104.465 267.257 103.466C260.507 102.607 256.593 101.036 254.745 100.247C254.714 101.025 254.577 101.993 253.874 102.697C253.825 102.746 253.773 102.788 253.717 102.825C253.549 102.934 249.539 105.441 238.567 104.449C227.921 103.481 222.058 102.947 211.85 92.7413C208.999 89.8905 205.674 86.4007 202.152 82.7062C193.946 74.0999 184.648 64.3455 181.096 62.5685C177.038 60.5412 169.728 59.7228 167.099 59.4861C166.808 62.5735 165.303 71.6093 157.654 74.6359C157.671 75.8482 158.197 79.4395 162.891 85.5789C163.579 86.4801 164.453 87.635 165.472 88.9792C173.372 99.4234 191.876 123.885 197.75 126.402C199.647 127.214 202.796 128.343 206.438 129.65C216.336 133.201 228.655 137.621 232.331 141.297C235.436 144.401 238.115 156.213 240.483 166.634C241.864 172.726 243.296 179.028 244.142 180.042C245.405 181.56 248.01 182.886 250.102 183.951C252.229 185.033 253.46 185.684 253.996 186.491C254.297 186.941 254.175 187.549 253.725 187.85C253.277 188.144 252.667 188.028 252.366 187.576C252.087 187.157 250.494 186.347 249.214 185.696C246.962 184.548 244.158 183.123 242.637 181.298C241.544 179.983 240.437 175.276 238.572 167.068C236.494 157.918 233.65 145.387 230.945 142.682C227.58 139.315 214.978 134.796 205.775 131.493C202.104 130.176 198.932 129.038 196.978 128.201C190.629 125.479 172.581 101.623 163.908 90.1611C162.892 88.8186 162.023 87.6671 161.333 86.7676C154.869 78.3135 155.666 74.1439 155.776 73.6958C155.858 73.3729 156.099 73.1125 156.411 73.006C164.786 70.1654 165.209 58.519 165.212 58.4023C165.221 58.1368 165.336 57.8849 165.533 57.7057C165.73 57.5264 165.983 57.4419 166.255 57.452C166.675 57.4791 176.632 58.1487 181.97 60.8168C185.832 62.746 194.849 72.2062 203.57 81.3552C207.084 85.0396 210.401 88.521 213.237 91.3565C222.942 101.062 228.222 101.542 238.744 102.499C248.008 103.344 251.894 101.579 252.553 101.236C252.782 100.903 252.794 100.22 252.8 99.7565C252.809 99.207 252.827 97.9253 253.996 97.9253C254.305 97.9253 254.571 98.0386 255.206 98.3126C256.826 99.0126 260.617 100.648 267.504 101.523C274.319 102.382 279.312 96.9937 281.446 94.6908C282.146 93.9367 282.444 93.6239 282.774 93.4582C283.342 93.1741 284.385 92.6517 290.002 98.8925C301.033 98.6913 312.368 102.732 319.975 105.832C328.796 109.425 363.828 134.236 365.281 141.136C365.671 142.986 366.94 147.734 368.546 153.743C373.458 172.146 377.49 187.632 377.044 190.764C376.79 192.539 377.019 195.403 377.26 198.435C377.617 202.932 378.025 208.029 377.013 211.463C376.08 214.635 371.944 215.578 367.355 215.578Z" fill="#3662C1"/>
<path d="M267.127 111.716C263.957 111.716 260.93 111.2 258.245 110.274C248.47 106.904 248.579 103.605 248.7 102.978C248.805 102.445 249.323 102.1 249.847 102.203C250.352 102.3 250.69 102.768 250.635 103.27C250.652 103.439 251.025 105.713 258.884 108.424C267.614 111.433 280.253 109.766 288.815 99.2646C289.157 98.8436 289.776 98.7844 290.195 99.1225C290.614 99.4658 290.677 100.083 290.335 100.501C283.797 108.517 275.021 111.716 267.127 111.716Z" fill="#3662C1"/>
<path d="M181.531 34.2734L60.4336 13.0569L172.392 16.9746L181.531 34.2734Z" fill="#E75755"/>
<path d="M161.599 16.5967V11.0998L60.4336 13.0578L161.599 16.5967Z" fill="#C94C4A"/>
<path d="M168.16 10.9719L147.259 7.9155e-05L60.4336 13.0566L168.16 10.9719Z" fill="#E75755"/>
<path d="M156.727 74.9121C156.451 74.9121 156.179 74.7971 155.986 74.5706C155.836 74.3981 140.98 57.1398 136.538 53.6483C135.634 52.9398 134.688 52.1671 133.703 51.3657C129.712 48.1125 125.191 44.4231 120.602 42.4787C114.514 39.8985 106.734 27.3914 106.406 26.8588C106.122 26.3989 106.264 25.7953 106.726 25.5112C107.18 25.2272 107.787 25.3675 108.073 25.8308C108.151 25.9542 115.851 38.3361 121.366 40.6746C126.211 42.7306 130.849 46.5113 134.94 49.8473C135.916 50.642 136.853 51.4079 137.745 52.1096C142.338 55.7178 156.852 72.5788 157.467 73.294C157.822 73.7049 157.775 74.322 157.366 74.6754C157.18 74.8343 156.953 74.9121 156.727 74.9121Z" fill="#3662C1"/>
<path d="M127.06 24.5843L63.0449 13.0579L129.39 33.0029L127.06 24.5843Z" fill="#C94C4A"/>
<path d="M139.147 35.9374L162.926 43.0879L164.558 31.3366L136.289 26.2456C136.289 26.2456 136.915 29.9079 137.271 31.3569C137.628 32.806 139.147 35.9374 139.147 35.9374Z" fill="#C94C4A"/>
<path d="M258.562 101.6C258.472 101.6 258.383 101.588 258.291 101.562C257.771 101.412 257.471 100.867 257.62 100.348C257.64 100.284 259.462 93.8336 257.654 89.3648C257.451 88.8643 257.693 88.2928 258.195 88.0899C258.694 87.8853 259.267 88.1288 259.472 88.631C261.534 93.7322 259.587 100.602 259.504 100.893C259.379 101.321 258.986 101.6 258.562 101.6Z" fill="#3662C1"/>
<path d="M280.367 98.1865C280.064 98.1865 279.767 98.0462 279.574 97.7841C276.897 94.0998 272.434 87.6476 272.604 85.835C272.657 85.2957 273.167 84.8882 273.673 84.9541C274.211 85.0048 274.606 85.4833 274.556 86.021C274.623 87.0372 278.035 92.3312 281.158 96.6327C281.474 97.0706 281.381 97.6827 280.942 98.0005C280.768 98.1257 280.566 98.1865 280.367 98.1865Z" fill="#3662C1"/>
<path d="M389.779 250.496C389.554 250.496 389.321 250.471 389.081 250.417C386.375 249.816 375.798 238.976 373.821 236.339C371.978 233.882 369.257 232.376 368.253 231.917C367.641 232.592 366.457 234.934 366.288 237.054C366.089 239.556 365.707 242.01 364.244 243.007C363.778 243.329 362.976 243.636 361.855 243.298C358.852 242.39 359.314 239.599 359.953 235.733L360.173 234.374C360.675 231.19 362.474 227.81 363.548 225.791C363.818 225.282 364.116 224.721 364.261 224.398C363.487 223.083 360.296 217.851 358.128 214.306C357.846 213.844 357.992 213.242 358.453 212.96C358.908 212.681 359.517 212.823 359.801 213.284C360.82 214.953 365.928 223.306 366.178 223.808C366.491 224.43 366.209 224.958 365.277 226.711C364.259 228.62 362.558 231.819 362.109 234.68L361.884 236.051C361.219 240.074 361.191 241.051 362.421 241.425C362.886 241.563 363.066 241.443 363.14 241.391C364.029 240.786 364.261 237.859 364.337 236.897C364.56 234.105 366.162 230.911 367.342 230.13C367.876 229.778 368.326 229.853 368.549 229.925C369.587 230.272 373.131 232.154 375.388 235.165C377.982 238.623 387.86 248.139 389.505 248.504C389.689 248.543 390.007 248.587 390.095 248.413C390.266 248.083 390.137 246.9 388.634 245.534C386.7 243.777 380.295 235.456 380.855 233.436C380.975 232.993 381.313 232.676 381.758 232.589C382.674 232.408 383.594 233.069 388.814 237.685C391.495 240.057 395.55 243.641 396.583 243.849C397.148 243.963 397.523 244.01 397.768 244.027C397.648 243.794 397.438 243.445 397.07 242.936C396.253 241.814 394.64 240.045 393.081 238.334C390.826 235.855 388.692 233.513 387.941 232.122C387.686 231.647 387.862 231.05 388.338 230.795C388.812 230.543 389.407 230.713 389.667 231.192C390.303 232.374 392.549 234.839 394.53 237.013C396.197 238.845 397.775 240.576 398.652 241.787C399.54 243.006 400.276 244.269 399.65 245.248C399.014 246.237 397.596 246.049 396.202 245.769C394.752 245.478 391.952 243.077 387.515 239.152C386.333 238.106 384.904 236.844 383.758 235.894C385.287 238.468 388.208 242.5 389.952 244.084C391.82 245.784 392.574 247.885 391.833 249.316C391.438 250.075 390.685 250.496 389.779 250.496Z" fill="#3662C1"/>
<path d="M399.687 242.309C398.319 242.309 396.599 241.686 395.722 241.193C395.252 240.927 395.084 240.329 395.351 239.857C395.617 239.385 396.216 239.219 396.687 239.485C397.944 240.195 399.65 240.455 400.023 240.322C400.064 240.276 400.094 240.237 400.101 240.225C400.087 240.227 400.06 239.642 398.236 237.934C395.576 235.444 391.407 229.998 389.733 227.769C389.462 227.407 389.445 226.777 389.738 226.428C390.913 225.017 400.894 229.685 400.992 229.734C401.099 229.788 401.165 229.79 401.187 229.788C401.205 229.722 401.219 228.992 399.935 227.94C398.387 226.674 389.67 223.473 376.615 219.376L376.382 219.303C373.616 218.434 372.444 214.505 372.319 214.058C372.175 213.537 372.476 212.998 372.997 212.851C373.53 212.709 374.059 213.01 374.206 213.529C374.468 214.456 375.476 216.966 376.967 217.437L377.202 217.509C386.877 220.544 398.89 224.555 401.175 226.425C403.347 228.202 403.405 229.933 402.795 230.877C402.233 231.744 401.131 231.991 400.118 231.486C399.109 230.982 395.357 229.49 392.851 228.628C394.746 231.08 397.641 234.695 399.575 236.504C401.345 238.166 402.084 239.314 402.045 240.342C402.01 241.226 401.4 241.715 401.166 241.901C400.801 242.192 400.279 242.309 399.687 242.309Z" fill="#3662C1"/>
<path d="M244.556 16.5971C244.556 16.5971 232.453 19.7201 230.82 26.3447C229.188 32.9694 230.82 39.824 236.043 39.1713C241.266 38.517 248.119 33.9484 252.691 34.2747C257.261 34.601 256.28 36.3189 254.649 39.2136C253.017 42.1083 255.954 47.0049 264.114 44.7189C272.275 42.4346 272.602 38.1906 278.477 39.824C284.351 41.4556 278.991 54.8385 280.366 56.7965C281.741 58.7562 281.991 61.3668 285.129 56.7965C288.269 52.2262 292.839 46.0242 297.734 47.6576C302.631 49.2892 293.164 58.7562 288.269 60.7141L283.372 62.6721C283.372 62.6721 281.414 76.3746 278.477 78.3359C278.477 78.3359 298.062 75.7287 305.568 68.8741C313.075 62.0195 306.547 62.0195 307.854 58.4281C309.159 54.8385 316.666 54.5781 316.666 50.138C316.666 45.6979 315.686 46.3523 308.833 43.0873C301.978 39.824 303.936 38.1906 304.915 36.559C305.894 34.9273 306.873 31.9904 301.326 30.357C295.776 28.7254 282.644 24.8078 285.129 21.2181C287.616 17.6268 288.783 10.4459 280.366 11.1002C271.947 11.7512 263.894 17.199 259.107 16.5971C254.321 15.9952 249.857 14.6594 244.556 16.5971Z" fill="#3662C1"/>
<path d="M235.364 38.4647C235.35 38.4782 235.337 38.4917 235.323 38.5069C235.335 38.4917 235.35 38.4782 235.364 38.4647ZM235.323 38.5069C235.323 38.5069 235.323 38.5086 235.321 38.5086C235.323 38.5086 235.323 38.5069 235.323 38.5069ZM235.321 38.5086C235.321 38.5103 235.321 38.5103 235.318 38.5103C235.321 38.5103 235.321 38.5103 235.321 38.5086ZM260.525 90.417C260.449 90.417 260.373 90.4085 260.297 90.3899C259.74 90.2564 258.991 90.094 258.09 89.8962C252.392 88.6535 240.536 86.0665 234.222 81.5858C226.495 76.1041 227.895 62.4761 229.28 58.1307C230.602 53.9814 233.8 39.1038 233.83 38.9533C233.886 38.6946 234.045 38.4697 234.27 38.3277C234.495 38.1874 234.767 38.1468 235.022 38.2077C235.34 38.2871 235.516 38.2922 235.604 38.2956C235.702 38.2465 235.81 38.2127 235.923 38.1992C238.147 37.9202 240.801 36.8449 243.368 35.8016C246.792 34.4134 250.037 33.0963 252.759 33.2975C254.257 33.404 256.061 33.6881 256.734 34.9376C257.441 36.2548 256.59 37.763 255.513 39.6753C254.998 40.5867 255.126 41.7398 255.828 42.6325C257.189 44.3741 260.188 44.8019 263.851 43.7772C267.183 42.8439 269.179 41.5538 270.78 40.5156C273.105 39.0142 274.939 37.8255 278.737 38.8806C283.436 40.1859 282.36 46.9103 281.574 51.8188C281.309 53.4826 280.942 55.7601 281.18 56.2555C281.429 56.6055 281.652 56.9995 281.863 57.3698C282.068 57.7316 282.377 58.2778 282.536 58.3758C282.494 58.342 283.004 58.1594 284.322 56.242C287.073 52.2364 292.194 44.7714 298.044 46.7294C299.319 47.1538 300.043 48.0686 300.078 49.3029C300.193 53.1732 292.919 59.9077 288.632 61.6222L284.202 63.3942C283.61 65.7529 281.065 75.6679 279.332 78.8095C279.241 78.9735 279.132 79.1916 279.001 79.4486C277.908 81.5892 275.639 86.0428 271.26 88.3457C270.787 88.5977 270.195 88.4151 269.939 87.9366C269.688 87.4564 269.87 86.8646 270.35 86.6143C274.175 84.5989 276.258 80.5189 277.254 78.5575C277.398 78.2786 277.519 78.0435 277.617 77.8626C279.425 74.5909 282.389 62.5589 282.421 62.4389C282.496 62.1312 282.715 61.8809 283.008 61.7626L287.904 59.8046C291.67 58.2981 298.2 52.0116 298.12 49.362C298.114 49.0966 298.053 48.7956 297.426 48.5859C293.518 47.284 289.592 52.0285 285.936 57.3512C284.438 59.5307 283.38 60.344 282.375 60.3135C281.254 60.2662 280.673 59.2415 280.159 58.3353C279.98 58.0191 279.787 57.6792 279.564 57.358C278.894 56.4043 279.129 54.6966 279.641 51.5094C280.308 47.3297 281.226 41.6045 278.214 40.7676C275.264 39.9441 274.05 40.7321 271.843 42.1608C270.131 43.2683 267.998 44.648 264.378 45.6625C257.972 47.4582 255.182 44.9879 254.284 43.8415C253.094 42.3214 252.903 40.3161 253.795 38.7318C254.396 37.6666 255.204 36.2311 255.008 35.8642C254.984 35.8185 254.702 35.4009 252.619 35.2504C250.343 35.083 247.167 36.3731 244.105 37.6159C241.491 38.676 238.791 39.7717 236.361 40.1166C236.138 40.2113 235.915 40.2586 235.553 40.2536C234.835 43.5727 232.32 55.0365 231.147 58.7258C229.928 62.5471 228.602 75.1979 235.354 79.9897C241.343 84.2387 252.938 86.7682 258.508 87.9839C259.424 88.1834 260.188 88.3491 260.752 88.4861C261.277 88.6112 261.604 89.1404 261.475 89.6663C261.37 90.116 260.968 90.417 260.525 90.417Z" fill="#3662C1"/>
<path d="M231.745 53.582C231.59 53.582 231.433 53.5465 231.287 53.4687C226.216 50.7922 223.31 45.4931 222.277 41.4267C221.966 40.1958 221.548 37.9723 222.253 36.9139C222.762 36.1479 223.631 35.759 224.632 35.8605C226.238 36.011 228.514 37.4921 230.085 41.195C231.953 45.6013 233.521 47.6405 233.538 47.6608C233.867 48.0868 233.791 48.7023 233.367 49.0354C232.939 49.3651 232.325 49.2907 231.992 48.868C231.925 48.7784 230.264 46.6361 228.283 41.9593C226.962 38.8448 225.251 37.8844 224.449 37.81C224.055 37.7711 223.92 37.9436 223.883 38.0011C223.325 39.232 225.317 48.1004 232.204 51.7373C232.68 51.991 232.863 52.5811 232.613 53.0596C232.435 53.3927 232.095 53.582 231.745 53.582Z" fill="#3662C1"/>
<path d="M271.672 50.8818C271.498 50.8818 271.327 50.8649 271.158 50.8294C270.32 50.6502 269.726 50.0516 269.523 49.1826C269.261 48.0379 266.811 46.3961 265.156 45.5946C264.671 45.3596 264.466 44.7729 264.701 44.2876C264.939 43.8007 265.523 43.5978 266.01 43.8311C266.815 44.2217 270.867 46.2879 271.432 48.7412C271.468 48.8917 271.508 48.9002 271.566 48.912C271.85 48.978 272.372 48.7683 272.665 48.3777C272.91 48.0514 272.927 47.698 272.712 47.2973C271.442 44.9132 270.55 43.569 269.466 43.2866C268.942 43.1514 268.627 42.6171 268.762 42.0929C268.899 41.5705 269.43 41.2492 269.958 41.3929C271.923 41.9019 273.104 43.8649 274.442 46.3758C275.017 47.4545 274.941 48.6127 274.231 49.5562C273.608 50.3797 272.614 50.8818 271.672 50.8818Z" fill="#3662C1"/>
<path d="M236.532 44.0654C236.427 44.0654 236.324 44.0485 236.221 44.0147C234.997 43.6072 234.251 42.9393 234.011 42.0297C233.642 40.6381 234.703 39.4055 234.824 39.2686C235.186 38.8678 235.805 38.834 236.207 39.1942C236.606 39.5543 236.642 40.1681 236.287 40.5722C236.114 40.7666 235.829 41.2502 235.905 41.5309C235.949 41.6949 236.16 41.8674 236.488 42.0195C237.386 41.6053 239.625 40.699 242.203 40.5975C242.786 40.5756 243.218 40.2442 243.488 39.6152C243.799 38.8847 243.737 38.0968 243.612 37.7756C243.17 37.8347 242.717 37.5811 242.558 37.1483C242.379 36.6512 242.595 36.1101 243.086 35.914C243.754 35.6468 244.437 35.7838 244.929 36.2724C245.849 37.1838 245.828 38.9997 245.345 40.2459C244.797 41.6594 243.681 42.4997 242.281 42.5538C239.437 42.6671 237.016 43.9386 236.99 43.9505C236.848 44.0282 236.691 44.0654 236.532 44.0654Z" fill="#3662C1"/>
<path d="M238.981 49.9023C237.635 49.3934 236.817 49.0857 235.951 48.8963C235.525 48.7881 235.087 48.69 234.575 48.6072C234.057 48.5125 233.491 48.455 232.766 48.2622C233.484 47.006 235.021 46.47 236.472 46.8064C237.907 47.1666 239.076 48.4279 238.981 49.9023Z" fill="#3662C1"/>
<path d="M256.77 52.6019C257.375 51.7801 258.283 51.2543 259.248 50.9702C260.221 50.6709 261.287 50.6456 262.3 50.8654C263.294 51.1291 264.272 51.54 265.011 52.2383C265.782 52.8825 266.353 53.7263 266.671 54.6748C265.702 54.3451 264.921 53.9579 264.13 53.6688C263.354 53.3526 262.589 53.1412 261.834 52.9671C261.078 52.7625 260.295 52.6982 259.47 52.6306C258.636 52.5816 257.774 52.5816 256.77 52.6019Z" fill="#3662C1"/>
<path d="M245.501 49.3926L240.678 58.8714C240.3 59.4581 239.914 60.3491 240.031 60.7668C240.043 60.8158 240.063 60.8851 240.225 60.9612C241.556 61.5902 243.842 62.1042 244.62 62.2665C245.039 62.0687 246.01 61.4076 246.082 59.5731C246.191 56.8711 247.024 51.1392 247.259 49.5735C247.051 49.325 246.72 49.0105 246.378 48.9716C246.103 48.9445 245.825 49.0815 245.501 49.3926ZM244.699 64.2617C244.637 64.2617 244.574 64.2566 244.512 64.2448C244.378 64.2194 241.225 63.5989 239.388 62.7332C238.751 62.4306 238.32 61.9318 238.141 61.2859C237.743 59.8436 238.781 58.1967 238.994 57.8822L243.828 48.3663C243.871 48.2783 243.928 48.1972 243.994 48.1279C245.009 47.0812 245.981 46.9561 246.613 47.0271C248.137 47.2097 249.033 48.6689 249.129 48.8329C249.244 49.0274 249.286 49.2539 249.254 49.4771C249.242 49.5481 248.159 56.6801 248.04 59.6508C247.892 63.3842 245.078 64.1958 244.958 64.2279C244.873 64.2516 244.785 64.2617 244.699 64.2617Z" fill="#3662C1"/>
<path d="M232.765 52.5436C233.722 52.2426 234.138 52.4269 235.078 52.7955C237.616 53.7914 238.502 57.5941 237.959 58.9738C237.418 60.3552 235.656 58.7912 233.117 57.7953C232.295 57.474 232.207 57.7327 231.514 57.5315L232.765 52.5436Z" fill="#E75755"/>
<path d="M252.807 62.0092C252.523 63.7744 255.646 63.2858 259.305 63.8759C262.962 64.466 265.772 65.9133 266.058 64.1464C266.342 62.3812 263.994 58.0713 260.335 57.4812C256.676 56.8911 253.093 60.244 252.807 62.0092Z" fill="#E75755"/>
<path d="M243.656 71.6484C245.864 70.9704 247.738 70.6238 249.54 70.0658C250.455 69.8324 251.29 69.4706 252.178 69.1223C253.078 68.7638 253.899 68.2549 254.975 67.7324C254.77 68.867 254.187 69.966 253.309 70.7573C252.455 71.5757 251.385 72.1675 250.269 72.5039C249.143 72.8083 247.986 72.9368 246.855 72.7948C245.731 72.6629 244.617 72.3433 243.656 71.6484Z" fill="#3662C1"/>
<path d="M286.636 153.451C286.636 162.804 282.72 170.388 268.669 170.388C258.747 170.388 252.787 162.804 252.787 153.451C252.787 144.097 256.769 136.514 268.669 136.514C280.412 136.514 286.636 144.097 286.636 153.451Z" fill="#E75755"/>
<path d="M266.937 155.541C266.826 155.541 266.721 155.539 266.623 155.534C266.068 155.506 265.037 155.451 264.748 154.601C264.477 153.801 265.133 153.241 265.61 152.834C265.788 152.682 266.134 152.386 266.259 152.2C266.231 152.183 266.183 152.142 266.114 152.095C264.841 151.204 256.349 151.481 248.874 152.266C248.342 152.322 247.856 151.931 247.801 151.393C247.743 150.856 248.134 150.374 248.673 150.318C251.333 150.039 264.722 148.737 267.235 150.489C267.877 150.937 268.219 151.476 268.248 152.092C268.276 152.67 268.018 153.154 267.683 153.553C268.496 153.493 269.605 153.36 270.901 153.206C276.56 152.528 286.028 151.397 294.395 153.608C294.917 153.747 295.228 154.283 295.09 154.807C294.953 155.33 294.422 155.642 293.892 155.504C285.891 153.385 276.653 154.489 271.131 155.15C269.267 155.374 267.866 155.541 266.937 155.541Z" fill="#3662C1"/>
<path d="M130.286 41.1279C129.905 41.1279 129.545 40.9064 129.385 40.5344C128.424 38.2907 128.406 34.0028 128.412 33.1354L126.094 24.9941C126.001 24.6694 126.084 24.3211 126.309 24.0692C126.532 23.8189 126.869 23.7006 127.205 23.7614L135.397 25.197C135.788 25.2646 137.752 25.831 138.116 30.2762C138.28 32.2748 138.895 33.6308 139.976 35.4332C140.255 35.8982 140.104 36.5001 139.639 36.7774C139.179 37.053 138.576 36.9059 138.297 36.441C137.091 34.4323 136.357 32.8057 136.165 30.4351C135.923 27.5168 134.985 27.1076 134.974 27.1059L128.406 25.9578L130.333 32.7364C130.36 32.8294 130.374 32.924 130.372 33.0221C130.348 34.3156 130.453 38.0506 131.185 39.7634C131.398 40.2588 131.168 40.8354 130.673 41.0485C130.544 41.1026 130.416 41.1279 130.286 41.1279Z" fill="#3662C1"/>
<path d="M166.19 59.4082C166.017 59.4082 165.847 59.3642 165.689 59.2696C163.457 57.9406 143.81 46.1369 141.176 41.2673C141.005 40.9545 141.018 40.5741 141.213 40.2765C141.218 40.2664 142.009 38.9796 142.177 37.0572C142.224 36.5178 142.714 36.1154 143.237 36.1661C143.774 36.2118 144.173 36.6869 144.126 37.2263C143.988 38.8342 143.495 40.0837 143.169 40.7618C146.04 44.7673 160.968 54.1785 166.692 57.5872C167.155 57.8645 167.309 58.4647 167.032 58.9297C166.849 59.2374 166.523 59.4082 166.19 59.4082Z" fill="#3662C1"/>
<path d="M265.656 394.598C265.656 394.598 264.729 380.31 263.909 379.609C263.086 378.907 253.428 380.238 251.434 379.245C249.441 378.251 248.336 383.7 247.048 384.373C245.76 385.05 243.064 382.388 244.904 378.99C246.744 375.591 239.182 369.482 237.278 369.629C235.375 369.778 223.317 374.742 213.979 375.282C204.637 375.823 197.226 374.103 194.653 375.454C192.076 376.805 189.707 378.33 193.285 382.453C196.863 386.578 205.161 394.736 216.082 394.84C227.005 394.941 229.55 393.211 230.953 391.569C232.356 389.928 234.431 387.085 235.813 390.041C237.192 392.997 237.314 397.007 239.862 397.765C242.412 398.522 259.956 402.512 265.656 394.598Z" fill="#3662C1"/>
<path d="M249.316 409.15C246.514 409.15 243.856 408.848 241.717 408.317C237.375 407.236 234.655 405.025 232.254 403.072C231.606 402.546 230.972 402.029 230.325 401.55C229.109 400.656 226.177 400.979 222.794 401.351C218.998 401.767 214.272 402.284 209.289 401.496C198.867 399.839 189.797 392.374 187.259 389.222C184.143 385.355 185.415 381.955 186.989 378.803C188.441 375.885 190.856 375.621 191.933 375.882C192.457 376.012 192.778 376.544 192.646 377.067C192.516 377.586 192 377.911 191.475 377.787C191.299 377.753 189.818 377.515 188.74 379.676C187.296 382.567 186.385 385.019 188.784 387.993C191.442 391.297 200.277 398.081 209.597 399.56C214.318 400.311 218.9 399.807 222.579 399.403C226.529 398.97 229.655 398.623 231.486 399.974C232.161 400.471 232.819 401.006 233.49 401.554C235.842 403.466 238.273 405.441 242.189 406.416C247.497 407.735 256.166 407.47 261.471 404.744C266.392 402.211 267.195 399.853 264.78 395.034C264.539 394.552 264.733 393.963 265.217 393.72C265.692 393.478 266.285 393.671 266.532 394.16C269.413 399.907 268.209 403.479 262.367 406.484C258.709 408.364 253.831 409.15 249.316 409.15Z" fill="#3662C1"/>
<path d="M240.855 376.317C240.497 376.317 240.15 376.121 239.978 375.778C239.742 375.303 239.925 374.731 240.387 374.478C240.529 374.386 244.94 371.375 249.751 351.552C249.879 351.028 250.403 350.715 250.934 350.832C251.458 350.958 251.781 351.488 251.656 352.015C246.551 373.042 241.815 375.95 241.295 376.213C241.153 376.284 241.004 376.317 240.855 376.317Z" fill="#3662C1"/>
<path d="M260.718 383.142C260.204 383.142 259.775 382.743 259.742 382.223C259.281 374.857 269.017 354.435 269.431 353.571C269.664 353.08 270.254 352.879 270.738 353.109C271.225 353.344 271.431 353.929 271.198 354.416C271.1 354.626 261.268 375.24 261.697 382.102C261.733 382.639 261.32 383.106 260.781 383.14C260.759 383.142 260.738 383.142 260.718 383.142Z" fill="#3662C1"/>
<path d="M268.355 355.122C261.93 355.122 250.39 351.705 244.854 348.475C239.08 345.106 240.825 332.619 242.365 321.603C242.554 320.244 242.74 318.915 242.906 317.635C243.589 312.403 243.41 302.321 243.238 292.568C243.033 281.045 242.839 270.161 243.904 265.638C245.87 257.282 262.86 226.08 263.583 224.756C263.839 224.279 264.435 224.103 264.911 224.365C265.384 224.624 265.56 225.219 265.301 225.693C265.125 226.017 247.717 257.987 245.809 266.087C244.802 270.371 245.003 281.637 245.196 292.533C245.37 302.356 245.549 312.513 244.849 317.888C244.68 319.173 244.494 320.509 244.304 321.874C242.921 331.767 241.2 344.078 245.84 346.785C251.6 350.143 265.154 353.95 270.14 353.031C272.58 352.586 280.906 350.19 285.561 337.979C289.338 328.054 290.391 295.223 290.391 291.812C290.391 290.908 288.778 288.189 287.6 286.206C285.255 282.254 284.174 280.306 285.163 279.204C285.963 278.308 287.339 278.935 287.858 279.17C290.133 280.203 292.231 281.892 293.761 283.125C294.13 283.423 294.544 283.754 294.906 284.03C294.884 283.943 294.86 283.849 294.831 283.747C294.41 282.2 293.937 280.831 293.56 279.73C292.733 277.347 292.282 276.034 293.053 275.151C293.469 274.674 294.12 274.52 294.989 274.695C297.559 275.209 298.955 275.006 299.98 273.984C301.301 272.571 324.504 235.001 326.154 226.986C328.009 217.977 327.847 207.976 325.792 204.689C323.396 200.854 320.483 196.964 320.453 196.925C320.13 196.492 320.218 195.878 320.65 195.554C321.08 195.232 321.694 195.317 322.022 195.75C322.05 195.789 325.011 199.745 327.453 203.653C330.141 207.954 329.777 219.088 328.071 227.38C326.362 235.684 302.817 273.917 301.366 275.367C299.473 277.261 297.018 277.094 294.644 276.622C294.75 277.182 295.097 278.184 295.41 279.091C295.799 280.218 296.284 281.622 296.722 283.232C297.067 284.498 297.329 285.78 296.431 286.366C295.45 287.004 294.417 286.168 292.534 284.65C291.003 283.418 289.096 281.884 287.049 280.952C287.008 280.935 286.971 280.917 286.935 280.903C287.366 281.974 288.487 283.862 289.286 285.21C291.193 288.419 292.349 290.467 292.349 291.812C292.349 292.151 291.588 327.65 287.388 338.674C282.372 351.844 273.189 354.466 270.494 354.958C269.873 355.07 269.155 355.122 268.355 355.122Z" fill="#3662C1"/>
<path d="M357.289 324.209C356.428 324.209 355.637 324.177 354.945 324.123C350.887 323.812 336.782 319.182 324.339 315.099C316.871 312.647 309.814 310.332 306.3 309.406C296.793 306.905 290.854 299.589 290.606 299.279C290.268 298.857 290.335 298.241 290.758 297.903C291.179 297.565 291.793 297.633 292.136 298.055C292.19 298.126 297.934 305.179 306.797 307.512C310.37 308.452 317.451 310.779 324.952 313.239C336.677 317.087 351.271 321.877 355.094 322.173C360.817 322.615 370.506 321.401 373.779 316.257C377.075 311.078 377.48 298.593 376.601 295.509L376.485 295.088C375.435 291.375 372.979 282.676 364.994 280.011C354.986 276.676 337.518 271.886 335.656 272.203C335.271 272.299 334.843 273.251 334.586 273.819C334.195 274.69 333.791 275.589 332.853 275.61C331.862 275.601 331.358 274.58 331.132 274.135C330.78 273.432 330.426 272.59 330.068 271.732C329.524 270.429 328.389 267.722 327.762 267.571C327.141 268.045 326.311 269.1 325.581 270.03C324.013 272.025 322.963 273.329 321.78 272.923C320.748 272.566 320.748 271.252 320.748 270.76C320.748 269.497 320.978 268.298 321.184 267.24C321.717 264.492 321.734 263.546 319.915 262.862C315.578 261.238 314.627 254.052 314.627 251.419C314.627 250.878 315.064 250.44 315.606 250.44C316.147 250.44 316.585 250.878 316.585 251.419C316.585 253.132 317.267 259.78 320.603 261.03C324.125 262.352 323.582 265.145 323.107 267.61C322.929 268.53 322.745 269.48 322.711 270.446C323.139 269.969 323.648 269.318 324.04 268.821C324.923 267.695 325.761 266.633 326.526 266.058C327.214 265.544 327.856 265.568 328.277 265.681C329.838 266.107 330.782 268.363 331.875 270.977C332.182 271.707 332.482 272.429 332.783 273.055C332.789 273.04 332.795 273.029 332.8 273.016C333.254 272.01 333.872 270.63 335.2 270.299C337.692 269.688 359.015 275.956 365.613 278.154C374.584 281.144 377.332 290.89 378.368 294.557L378.483 294.97C379.487 298.481 379.124 311.504 375.431 317.309C371.928 322.814 363.044 324.209 357.289 324.209Z" fill="#3662C1"/>
<path d="M487.977 388.206C487.383 388.206 487.025 388.159 486.945 388.145C486.409 388.062 486.042 387.564 486.125 387.028C486.208 386.493 486.721 386.123 487.238 386.209C487.368 386.224 498.998 387.619 509.361 367.909C518.248 350.998 518.664 345.908 518.538 344.649C518.205 344.877 517.788 345.266 517.402 345.623C516.508 346.454 515.395 347.489 513.926 348.084C511.973 348.867 490.988 366.724 486.693 385.457C486.575 385.986 486.054 386.321 485.522 386.194C484.992 386.072 484.664 385.548 484.785 385.021C489.289 365.373 510.891 347.193 513.192 346.267C514.328 345.809 515.255 344.948 516.07 344.189C516.924 343.396 517.658 342.713 518.545 342.537C519.122 342.429 519.68 342.645 520.042 343.13C522.365 346.25 515.432 360.564 511.094 368.819C501.703 386.683 491.264 388.206 487.977 388.206Z" fill="#3662C1"/>
<path d="M489.473 385.891C489.194 385.891 488.918 385.772 488.724 385.544C488.376 385.128 488.43 384.511 488.842 384.163C488.976 384.051 502.213 372.817 507.95 360.631C508.179 360.141 508.765 359.933 509.252 360.161C509.743 360.391 509.952 360.975 509.722 361.465C503.801 374.045 490.66 385.194 490.104 385.661C489.921 385.816 489.696 385.891 489.473 385.891Z" fill="#3662C1"/>
<path d="M487.155 362.285C487.126 362.285 487.099 362.282 487.072 362.28C486.534 362.238 486.132 361.761 486.177 361.225C487.513 345.144 495.357 328.568 509.489 311.951C510.084 311.254 510.491 310.778 510.659 310.537C510.931 310.143 511.249 309.538 511.589 308.896C512.735 306.742 513.662 305.041 515.003 305.419C516.166 305.744 516.695 307.142 516.34 313.887C515.632 327.463 506.415 353.588 506.024 354.693C505.843 355.206 505.279 355.475 504.773 355.29C504.262 355.109 503.997 354.548 504.176 354.039C504.273 353.772 513.689 327.077 514.385 313.784C514.558 310.48 514.482 308.796 514.375 307.944C514.012 308.514 513.591 309.305 513.319 309.815C512.938 310.536 512.575 311.212 512.27 311.65C512.086 311.917 511.636 312.448 510.982 313.221C497.117 329.519 489.429 345.724 488.129 361.386C488.086 361.898 487.659 362.285 487.155 362.285Z" fill="#3662C1"/>
<path d="M487.648 371.919C487.558 371.919 487.465 371.905 487.372 371.88C486.853 371.728 486.556 371.183 486.708 370.664C492.411 351.159 505.692 326.644 505.826 326.395C506.086 325.923 506.681 325.749 507.155 326.005C507.63 326.262 507.806 326.858 507.549 327.334C507.414 327.575 494.234 351.911 488.588 371.216C488.461 371.642 488.072 371.919 487.648 371.919Z" fill="#3662C1"/>
<path d="M481.777 386.225C481.532 386.225 481.287 386.132 481.099 385.951C480.423 385.3 464.591 369.803 466.434 350.501C468.042 333.674 472.146 317.692 475.394 315.602C476.023 315.2 476.569 315.254 476.917 315.376C478.86 316.045 479.264 318.909 479.775 322.54C480.159 325.258 480.595 328.343 481.704 330.946C484.433 337.36 490.997 366.704 487.475 382.601C487.358 383.13 486.851 383.462 486.307 383.347C485.777 383.23 485.446 382.706 485.561 382.177C488.998 366.672 482.573 337.985 479.903 331.714C478.693 328.872 478.236 325.654 477.837 322.814C477.519 320.558 477.125 317.778 476.388 317.283C474.574 318.438 470.181 331.9 468.386 350.689C466.629 369.059 482.298 384.387 482.455 384.539C482.845 384.914 482.857 385.536 482.482 385.924C482.289 386.125 482.032 386.225 481.777 386.225Z" fill="#3662C1"/>
<path d="M483.058 383.906C482.684 383.906 482.327 383.69 482.165 383.326C473.789 364.634 472.343 338.376 472.329 338.112C472.302 337.573 472.717 337.111 473.256 337.086C473.275 337.084 473.293 337.084 473.307 337.084C473.826 337.084 474.259 337.488 474.286 338.012C474.297 338.271 475.726 364.171 483.95 382.528C484.172 383.022 483.95 383.6 483.457 383.82C483.327 383.879 483.191 383.906 483.058 383.906Z" fill="#3662C1"/>
<path d="M481.908 335.515C481.391 335.515 480.96 335.114 480.931 334.593C479.426 308.8 490.119 286.535 495.259 275.835C496.491 273.272 497.462 271.248 497.788 270.159C498.923 266.356 500.375 265.721 501.368 265.849C502.842 266.044 504.842 267.822 505.196 280.93C505.641 297.463 500.835 326.379 500.788 326.67C500.698 327.203 500.196 327.564 499.66 327.471C499.129 327.382 498.767 326.878 498.857 326.344C498.904 326.056 503.679 297.324 503.238 280.984C502.91 268.784 501.097 267.792 501.077 267.782C500.991 267.849 500.323 268.519 499.665 270.717C499.295 271.956 498.345 273.94 497.024 276.684C491.958 287.233 481.413 309.19 482.885 334.478C482.918 335.018 482.505 335.481 481.966 335.513C481.945 335.515 481.927 335.515 481.908 335.515Z" fill="#3662C1"/>
<path d="M486.687 358.102C486.197 358.102 485.772 357.731 485.716 357.229C485.392 354.296 486.447 349.825 488.359 341.712C489.325 337.627 490.523 332.541 491.874 326.255C495.824 307.931 498.085 282.55 498.108 282.295C498.152 281.759 498.639 281.368 499.169 281.407C499.708 281.455 500.107 281.928 500.058 282.469C500.036 282.723 497.764 308.227 493.79 326.667C492.432 332.971 491.232 338.065 490.266 342.16C488.403 350.063 487.375 354.416 487.663 357.014C487.722 357.554 487.334 358.037 486.797 358.096C486.761 358.1 486.722 358.102 486.687 358.102Z" fill="#3662C1"/>
<path d="M501.854 393.104C501.433 393.104 501.045 392.832 500.916 392.41C500.761 391.892 501.051 391.346 501.57 391.189C502.23 390.989 502.898 390.783 503.566 390.573C503.468 390.519 503.378 390.455 503.293 390.375C503.075 390.178 502.732 389.726 502.896 388.952C503.082 388.091 503.735 387.107 504.367 386.154C504.431 386.055 504.502 385.949 504.575 385.837C500.908 387.214 495.83 388.725 492.317 387.209C491.819 386.996 491.593 386.417 491.808 385.922C492.024 385.425 492.599 385.193 493.094 385.411C496.432 386.855 502.341 384.595 504.284 383.854C504.967 383.59 506.244 383.098 506.924 383.952C507.61 384.808 506.934 385.825 506 387.236C505.688 387.709 505.324 388.257 505.077 388.717C505.633 388.587 506.394 388.352 507.008 388.161C508.633 387.653 510.471 387.08 512.013 387.08H512.033C513.131 387.082 513.438 387.604 513.503 388.04C513.636 388.955 513.726 389.557 502.137 393.064C502.042 393.091 501.947 393.104 501.854 393.104Z" fill="#3662C1"/>
<path d="M478.488 385.641C478.335 385.641 478.18 385.605 478.034 385.529C477.872 385.443 473.961 383.377 470.828 379.993C469.235 378.277 468.05 377.854 467.529 378.005C467.316 378.067 467.183 378.25 467.13 378.546C466.993 379.307 466.522 379.593 466.253 379.691C465.323 380.042 464.405 379.303 463.343 378.444C463.26 378.38 463.17 378.308 463.076 378.233C463.087 378.35 463.096 378.47 463.106 378.578C463.279 380.55 463.541 383.53 461.42 384.504C460.935 384.729 460.347 384.518 460.123 384.024C459.897 383.532 460.112 382.951 460.602 382.724C461.469 382.327 461.272 380.088 461.155 378.749C461.028 377.288 460.944 376.321 461.75 375.863C462.631 375.364 463.532 376.086 464.572 376.921C464.8 377.105 465.12 377.362 465.394 377.558C465.695 376.853 466.254 376.338 466.973 376.126C467.844 375.873 469.672 375.866 472.265 378.663C475.16 381.792 478.905 383.774 478.942 383.793C479.423 384.046 479.607 384.635 479.355 385.113C479.181 385.45 478.841 385.641 478.488 385.641Z" fill="#3662C1"/>
<path d="M139.339 384.446C137.744 384.446 135.992 384.345 134.126 384.095C126.443 383.056 115.253 379.09 105.574 366.101C89.5369 344.575 88.9164 327.055 88.6509 319.571C88.6104 318.443 88.5799 317.55 88.5038 316.911C88.0862 313.547 88.5241 309.544 90.477 308.704C90.991 308.481 92.0208 308.308 93.1215 309.644C93.9517 310.648 94.1444 311.832 94.3338 312.975C94.6906 315.146 95.093 317.606 99.8899 320.388C109.891 326.192 143.243 347.607 152.468 379.389C152.618 379.908 152.317 380.453 151.798 380.605C151.276 380.755 150.735 380.454 150.584 379.935C141.564 348.851 108.748 327.795 98.9058 322.082C93.3092 318.835 92.785 315.631 92.3995 313.293C92.2355 312.284 92.1036 311.491 91.6099 310.89C91.3782 310.61 91.2193 310.52 91.1787 310.512C90.8439 310.708 89.9816 312.912 90.4466 316.67C90.5311 317.349 90.5649 318.301 90.6089 319.503C90.8659 326.801 91.4712 343.897 107.145 364.932C116.389 377.336 127.011 381.137 134.295 382.142C142.216 383.229 148.033 381.357 148.087 381.337C148.592 381.166 149.154 381.445 149.325 381.959C149.495 382.473 149.215 383.026 148.702 383.197C148.51 383.263 144.862 384.446 139.339 384.446Z" fill="#3662C1"/>
<path d="M148.615 381.003C148.56 381.003 148.504 380.998 148.448 380.989C147.819 380.883 132.867 378.205 116.758 363.833C100.631 349.444 95.8125 329.881 95.7652 329.685C95.6401 329.159 95.963 328.63 96.4906 328.504C97.0181 328.389 97.5439 328.702 97.6691 329.23C97.7147 329.419 102.41 348.405 118.064 362.37C133.723 376.343 148.629 379.033 148.778 379.058C149.31 379.148 149.669 379.655 149.576 380.188C149.496 380.666 149.08 381.003 148.615 381.003Z" fill="#3662C1"/>
<path d="M158.188 380.665C157.727 380.665 157.316 380.334 157.229 379.862C157.13 379.331 157.483 378.82 158.012 378.722C158.198 378.687 176.544 374.854 177.306 340.726C178.147 303.065 170.486 285.032 165.827 280.313C164.843 279.317 163.991 278.832 163.563 279.001C161.751 279.724 161.599 288.015 161.507 292.969C161.382 299.602 158.192 305.981 153.779 314.809C152.272 317.822 150.566 321.234 148.804 325.017C142.191 339.235 145.742 363.762 145.778 364.007C145.859 364.541 145.488 365.042 144.954 365.12C144.428 365.204 143.921 364.832 143.843 364.294C143.688 363.268 140.166 338.946 147.03 324.191C148.801 320.384 150.515 316.956 152.025 313.933C156.325 305.334 159.431 299.12 159.549 292.93C159.71 284.146 160.028 278.302 162.836 277.181C164.745 276.417 166.607 278.318 167.219 278.938C173.752 285.554 180.012 307.241 179.264 340.768C178.463 376.609 159.184 380.499 158.364 380.648C158.305 380.658 158.247 380.665 158.188 380.665Z" fill="#3662C1"/>
<path d="M135.344 389.384H135.309C129.54 389.186 129.34 388.16 129.235 387.612C129.098 386.907 129.54 386.323 130.547 385.879C132.406 385.052 133.735 385.128 135.011 385.196C136.053 385.253 137.04 385.307 138.433 384.874C141.022 384.073 141.428 383.097 141.431 383.087C141.55 382.561 142.082 382.265 142.591 382.38C143.12 382.5 143.442 383.057 143.325 383.583C143.249 383.912 142.696 385.608 139.013 386.744C137.28 387.28 136.014 387.209 134.905 387.154C134.14 387.108 133.479 387.074 132.729 387.22C133.515 387.318 134.458 387.395 135.38 387.426C135.919 387.446 136.342 387.898 136.323 388.439C136.305 388.968 135.872 389.384 135.344 389.384Z" fill="#3662C1"/>
<path d="M164.986 383.741C164.723 383.741 164.459 383.636 164.264 383.425C163.899 383.028 163.925 382.409 164.322 382.042C164.958 381.454 165.575 380.754 165.991 380.18C165.955 380.218 165.925 380.253 165.894 380.289C165.196 381.105 164.144 382.346 162.807 381.65C161.141 380.786 160.638 378.868 160.583 378.652C160.458 378.128 160.783 377.598 161.307 377.47C161.84 377.348 162.361 377.668 162.489 378.194C162.575 378.539 162.969 379.528 163.711 379.911C163.715 379.825 164.148 379.318 164.406 379.015C165.122 378.182 166.315 376.778 167.736 377.768C168.167 378.063 168.424 378.517 168.461 379.041C168.569 380.615 166.53 382.673 165.651 383.484C165.46 383.655 165.223 383.741 164.986 383.741Z" fill="#3662C1"/>
<path d="M158.071 376.375C157.936 376.375 157.8 376.345 157.668 376.289C157.176 376.064 156.957 375.486 157.178 374.992C157.332 374.654 172.365 340.732 167.575 300.065C167.511 299.529 167.895 299.042 168.432 298.979C168.955 298.893 169.455 299.3 169.519 299.835C174.379 341.062 159.119 375.457 158.964 375.798C158.801 376.16 158.444 376.375 158.071 376.375Z" fill="#3662C1"/>
<path d="M144.195 360.249C143.842 360.249 143.497 360.056 143.325 359.718C143.194 359.464 130.398 334.045 134.527 295.94C137.135 271.871 142.422 257.232 145.922 247.549C147.881 242.119 149.175 238.537 148.82 236.31C148.637 235.158 147.104 225.02 149.907 223.764C150.477 223.507 151.38 223.48 152.426 224.766C155.375 228.387 164.262 255.776 163.745 278.384C163.731 278.922 163.31 279.35 162.742 279.34C162.201 279.328 161.773 278.88 161.785 278.339C162.308 255.553 153.18 228.792 150.91 226.004C150.801 225.872 150.712 225.779 150.644 225.717C150.14 226.794 149.943 230.921 150.756 236C151.19 238.728 149.826 242.5 147.763 248.211C144.297 257.81 139.057 272.318 136.475 296.15C132.412 333.639 144.939 358.577 145.066 358.822C145.311 359.304 145.124 359.894 144.643 360.141C144.5 360.214 144.346 360.249 144.195 360.249Z" fill="#3662C1"/>
<path d="M144.516 338.265C143.988 338.265 143.553 337.845 143.537 337.314C143.528 336.971 143.325 328.723 146.516 310.917C149.681 293.257 153.281 250.895 153.316 250.467C153.362 249.929 153.847 249.549 154.373 249.574C154.912 249.62 155.313 250.093 155.266 250.632C155.23 251.059 151.624 293.512 148.442 311.262C145.295 328.832 145.493 337.172 145.495 337.255C145.511 337.798 145.087 338.246 144.546 338.265H144.516Z" fill="#3662C1"/>
<path d="M120.341 336.965C120.068 336.965 119.797 336.853 119.603 336.628C119.461 336.468 105.435 320.172 101.988 298.314C98.5434 276.476 97.1163 269.168 94.8979 266.016C93.6062 264.182 93.5554 262.193 94.7677 261.064C95.4373 260.436 98.1021 258.783 104.154 263.723C112.124 270.235 130.892 294.155 135.62 309.759C135.777 310.277 135.485 310.823 134.965 310.98C134.455 311.141 133.904 310.847 133.746 310.326C129.198 295.316 110.525 271.461 102.912 265.24C99.0996 262.125 96.7494 261.897 96.1018 262.497C95.718 262.858 95.7281 263.794 96.4992 264.888C98.961 268.39 100.368 275.473 103.922 298.008C107.282 319.316 120.942 335.184 121.08 335.343C121.434 335.749 121.393 336.368 120.984 336.723C120.8 336.885 120.571 336.965 120.341 336.965Z" fill="#3662C1"/>
<path d="M141.916 354.858C141.636 354.858 141.357 354.738 141.164 354.505C141.083 354.407 132.899 344.521 122.054 328.754C111.123 312.858 105.286 284.322 105.043 283.115C104.936 282.587 105.28 282.07 105.81 281.963C106.341 281.855 106.857 282.2 106.964 282.729C107.021 283.02 112.966 312.082 123.669 327.645C134.458 343.332 142.589 353.156 142.67 353.254C143.015 353.668 142.96 354.287 142.542 354.632C142.359 354.784 142.14 354.858 141.916 354.858Z" fill="#3662C1"/>
<path d="M113.317 275.854C112.894 275.854 112.507 275.581 112.378 275.157C112.316 274.947 106.149 254.223 104.233 240.733C103.77 237.465 103.329 234.782 102.97 232.599C102.025 226.853 101.672 224.701 102.801 223.607C103.564 222.868 104.665 223.079 105.025 223.152C108.205 223.774 134.961 244.208 141.418 267.79C141.562 268.311 141.254 268.85 140.732 268.994C140.204 269.136 139.67 268.83 139.529 268.307C133.404 245.943 107.573 225.648 104.648 225.071C104.254 224.995 104.127 225.041 104.125 225.039C103.794 225.529 104.308 228.659 104.903 232.281C105.261 234.476 105.704 237.172 106.171 240.456C108.068 253.803 114.194 274.389 114.255 274.594C114.409 275.113 114.115 275.659 113.597 275.815C113.503 275.84 113.41 275.854 113.317 275.854Z" fill="#3662C1"/>
<path d="M134.861 305.101C134.4 305.101 133.987 304.771 133.901 304.296C133.882 304.199 132.016 294.357 124.415 283.296C116.565 271.872 111.812 246.366 111.614 245.288C111.516 244.753 111.868 244.244 112.4 244.145C112.936 244.058 113.442 244.402 113.54 244.931C113.587 245.193 118.415 271.107 126.028 282.188C133.882 293.618 135.751 303.53 135.827 303.944C135.923 304.477 135.571 304.989 135.039 305.085C134.98 305.094 134.92 305.101 134.861 305.101Z" fill="#3662C1"/>
<path d="M146.418 250.039H146.382C145.84 250.017 145.419 249.562 145.439 249.023C145.789 239.679 144.632 233.508 141.32 227.003L140.945 226.264C134.406 213.431 126.755 198.011 125.628 192.679C124.9 189.242 123.776 187.923 123.237 187.901C123.237 187.901 123.235 187.899 123.233 187.899C123.123 187.899 121.718 188.016 119.999 193.692C117.102 203.259 123.933 238.922 124.004 239.28C124.106 239.811 123.761 240.325 123.228 240.427C122.706 240.521 122.183 240.185 122.08 239.651C121.794 238.166 115.089 203.152 118.125 193.124C119.586 188.293 121.253 185.942 123.216 185.942C123.252 185.942 123.284 185.942 123.321 185.943C125.854 186.051 127.055 189.957 127.545 192.274C128.764 198.036 138.88 217.9 142.688 225.377L143.065 226.117C146.543 232.943 147.759 239.385 147.397 249.096C147.375 249.623 146.942 250.039 146.418 250.039Z" fill="#3662C1"/>
<path d="M139.413 265.704C138.906 265.704 138.478 265.315 138.439 264.801C138.43 264.676 137.484 252.264 136.555 244.352C135.647 236.64 126.368 221.876 126.273 221.727C125.986 221.271 126.123 220.666 126.579 220.376C127.028 220.091 127.638 220.223 127.93 220.682C128.321 221.303 137.541 235.974 138.496 244.122C139.433 252.074 140.383 264.527 140.392 264.651C140.434 265.19 140.028 265.662 139.491 265.702C139.465 265.704 139.438 265.704 139.413 265.704Z" fill="#3662C1"/>
</svg>
