<svg width="24" height="11" viewBox="0 0 24 11" fill="none" xmlns="http://www.w3.org/2000/svg">
<path d="M18.9465 0C15.7785 0 13.1573 2.50327 12 3.81675C10.8427 2.50331 8.2215 0 5.05364 0C2.26706 0 0 2.26706 0 5.05359C0 7.84013 2.26706 10.1071 5.05359 10.1071C8.22155 10.1071 10.8427 7.60388 12 6.29048C13.1573 7.60392 15.7785 10.1071 18.9465 10.1071C21.733 10.1071 24 7.84013 24 5.05359C24 2.26706 21.733 0 18.9465 0ZM9.46416 6.59301C7.57064 8.20387 6.02058 8.54198 5.05359 8.54198C3.13008 8.54198 1.5652 6.97711 1.5652 5.05364C1.5652 3.13017 3.13012 1.56525 5.05359 1.56525C7.74455 1.56525 10.1127 4.01405 10.9976 5.05477C10.6716 5.43909 10.1427 6.0157 9.46416 6.59301ZM18.9465 8.54194C16.2563 8.54194 13.8888 6.09483 13.0034 5.05359C13.8888 4.01236 16.2563 1.5652 18.9465 1.5652C20.87 1.5652 22.4348 3.13013 22.4348 5.05359C22.4348 6.97711 20.8699 8.54194 18.9465 8.54194Z" fill="black"/>
</svg>
