<svg width="144" height="124" viewBox="0 0 144 124" fill="none" xmlns="http://www.w3.org/2000/svg">
<path fill-rule="evenodd" clip-rule="evenodd" d="M26.8889 84.1004V108.948C26.8889 109.402 26.5387 109.77 26.1068 109.77H13.7784C13.5706 109.771 13.371 109.685 13.2241 109.531C13.0772 109.376 12.9952 109.167 12.9964 108.948V85.2178C12.996 84.8713 13.2557 84.5862 13.5851 84.5714C17.7414 84.4113 21.9446 84.0403 26.1947 83.4585C26.3703 83.4346 26.5471 83.4913 26.6801 83.6142C26.813 83.7371 26.8891 83.9143 26.8889 84.1004Z" fill="#C2EB93"/>
<path fill-rule="evenodd" clip-rule="evenodd" d="M13.7826 110.694H26.111C27.0283 110.694 27.7718 109.913 27.7718 108.949V84.1006C27.7716 83.6489 27.5864 83.2192 27.2633 82.9212C26.9403 82.6233 26.5108 82.486 26.0847 82.5445C21.9064 83.1124 17.6885 83.4865 13.5585 83.6527C12.7556 83.6802 12.119 84.3738 12.1218 85.2181V108.949C12.1218 109.913 12.8654 110.694 13.7826 110.694ZM26.0098 108.847H13.8791L13.8747 85.4859C17.8817 85.3381 21.9589 84.9595 26.0098 84.4146V108.847Z" fill="#372168"/>
<path fill-rule="evenodd" clip-rule="evenodd" d="M47.7365 79.4966V109.082C47.7341 109.463 47.4398 109.77 47.0775 109.77H34.4986C34.1364 109.77 33.842 109.463 33.8396 109.082V83.2231C33.8405 82.6378 34.237 82.1358 34.7842 82.0272C38.8673 81.2083 42.968 80.1955 47.0863 78.9887C47.2387 78.9465 47.4011 78.9794 47.5277 79.0783C47.6542 79.1771 47.7311 79.3311 47.7365 79.4966Z" fill="#BDCBFF"/>
<path fill-rule="evenodd" clip-rule="evenodd" d="M34.5207 110.695H47.0995C47.9351 110.685 48.6102 109.975 48.6197 109.097V79.5115C48.618 79.0563 48.4155 78.6276 48.0715 78.351C47.7274 78.0744 47.2808 77.9811 46.8623 78.0985C42.8158 79.276 38.7034 80.3104 34.6393 81.1231C33.6803 81.3173 32.9863 82.1977 32.9829 83.2242V109.083C32.9853 109.974 33.6731 110.695 34.5207 110.695ZM46.8797 108.847H34.7402V83.2096C34.7403 83.0686 34.8366 82.948 34.9687 82.9233C38.9273 82.1291 42.9255 81.1455 46.8797 79.9957V108.847Z" fill="#372168"/>
<path fill-rule="evenodd" clip-rule="evenodd" d="M68.5752 71.8553V108.922C68.5752 109.401 68.2053 109.79 67.7492 109.79H55.5086C55.0524 109.79 54.6826 109.401 54.6826 108.922V77.3873C54.6836 76.8706 54.9956 76.4111 55.4603 76.2421C59.5463 74.7737 63.6324 73.116 67.6877 71.2458C67.8834 71.1552 68.1095 71.1748 68.2886 71.2978C68.4676 71.4207 68.5754 71.6305 68.5752 71.8553Z" fill="#EAE1FF"/>
<path fill-rule="evenodd" clip-rule="evenodd" d="M55.5087 110.694H67.7492C68.6839 110.694 69.4443 109.903 69.4539 108.92V71.8541C69.4561 71.3171 69.1991 70.8155 68.7714 70.5217C68.3436 70.2279 67.8034 70.1819 67.3362 70.3996C63.3864 72.2189 59.2916 73.8906 55.1791 75.3682C54.3573 75.6625 53.8045 76.4736 53.804 77.3862V108.902C53.804 109.892 54.5672 110.694 55.5087 110.694ZM67.6966 108.845H55.5615V77.3847C55.5615 77.2629 55.6359 77.1548 55.7461 77.1169C59.7882 75.6623 63.8083 74.0276 67.6966 72.2498V108.845Z" fill="#372168"/>
<path fill-rule="evenodd" clip-rule="evenodd" d="M89.414 60.8703V109.038C89.414 109.233 89.3398 109.421 89.2079 109.558C89.0759 109.696 88.8971 109.773 88.7111 109.772H76.2245C75.8386 109.772 75.5259 109.443 75.5259 109.038V68.2494C75.5249 67.7234 75.8074 67.2421 76.2552 67.0072C80.3208 64.8523 84.2442 62.5434 88.0257 60.0806C88.3024 59.8969 88.6519 59.8845 88.9398 60.0482C89.2277 60.212 89.409 60.5263 89.414 60.8703Z" fill="#FFC28F"/>
<path fill-rule="evenodd" clip-rule="evenodd" d="M76.2245 110.692H88.7111C89.5829 110.692 90.2904 109.951 90.2928 109.034V60.8486C90.293 60.1698 89.9433 59.5442 89.3789 59.214C88.8111 58.8832 88.1179 58.899 87.5644 59.2555C83.7991 61.7214 79.858 64.0487 75.8555 66.1821C75.1139 66.5748 74.6464 67.3735 74.6472 68.2462V109.034C74.6472 109.95 75.3534 110.692 76.2245 110.692ZM88.5396 108.846H76.4089L76.4309 68.2466C76.4306 68.07 76.5261 67.9087 76.6769 67.831C80.7147 65.6699 84.6996 63.3195 88.5396 60.8444V60.8675V108.846Z" fill="#372168"/>
<path fill-rule="evenodd" clip-rule="evenodd" d="M110.257 44.6236V108.704C110.257 108.987 110.15 109.259 109.958 109.459C109.767 109.66 109.508 109.771 109.238 109.77H97.3753C97.1053 109.771 96.8461 109.66 96.6548 109.459C96.4635 109.259 96.356 108.987 96.356 108.704V56.1402C96.3596 54.9673 96.8969 53.8671 97.8014 53.1802C101.659 50.2434 105.331 47.1649 108.816 43.9448C109.074 43.7187 109.432 43.6669 109.738 43.8112C110.045 43.9556 110.246 44.2709 110.257 44.6236Z" fill="#A1D0B5"/>
<path fill-rule="evenodd" clip-rule="evenodd" d="M97.3753 110.694H109.238C110.283 110.692 111.129 109.802 111.132 108.704V44.6472C111.123 43.9313 110.722 43.2849 110.103 42.9883C109.483 42.6917 108.755 42.7983 108.236 43.2619C104.757 46.4712 101.075 49.5604 97.2875 52.4465C96.1612 53.3069 95.4897 54.6774 95.4773 56.1407V108.704C95.4797 109.804 96.3288 110.694 97.3753 110.694ZM98.3242 53.9297C102.151 51.0114 105.864 47.8852 109.379 44.6158L109.383 108.705C109.383 108.744 109.368 108.781 109.341 108.808C109.315 108.835 109.279 108.849 109.242 108.848H97.3796C97.3427 108.849 97.3069 108.835 97.2804 108.808C97.2539 108.781 97.239 108.744 97.239 108.705V56.1416C97.2427 55.2642 97.6462 54.4417 98.3242 53.9297Z" fill="#372168"/>
<path fill-rule="evenodd" clip-rule="evenodd" d="M131.096 54.46V108.219C131.097 108.631 130.942 109.027 130.665 109.318C130.388 109.609 130.012 109.772 129.62 109.771H118.68C118.288 109.771 117.913 109.607 117.636 109.316C117.359 109.026 117.204 108.631 117.204 108.219V37.0282C117.205 36.092 117.55 35.1925 118.166 34.5161C122.325 29.9457 126.188 25.0878 129.73 19.975C129.922 19.6979 130.261 19.5817 130.572 19.6866C130.882 19.7915 131.094 20.094 131.096 20.4367V47.1456" fill="#FF8F8F"/>
<path d="M129.62 110.696H118.68C117.38 110.693 116.327 109.587 116.325 108.221V37.0297C116.324 35.8551 116.757 34.7261 117.533 33.8804C121.663 29.3382 125.5 24.5112 129.018 19.4316C129.429 18.822 130.172 18.5685 130.846 18.8082C131.52 19.0371 131.976 19.6979 131.975 20.4429V47.1517C131.975 47.6618 131.581 48.0752 131.096 48.0752C130.611 48.0752 130.217 47.6618 130.217 47.1517V20.8308C126.708 25.8569 122.892 30.6386 118.794 35.1456C118.331 35.6468 118.073 36.3176 118.073 37.0158V108.221C118.073 108.387 118.136 108.547 118.248 108.665C118.36 108.783 118.512 108.849 118.671 108.849H129.611C129.769 108.849 129.921 108.783 130.033 108.665C130.146 108.547 130.208 108.387 130.208 108.221V54.4615C130.208 53.9515 130.602 53.538 131.087 53.538C131.572 53.538 131.966 53.9515 131.966 54.4615V108.221C131.966 109.584 130.917 110.691 129.62 110.696Z" fill="#372168"/>
<path d="M33.8394 64.3423C33.4077 64.3349 33.045 63.999 32.9838 63.5498C32.9226 63.1005 33.181 62.6711 33.5934 62.5367C48.8518 57.8509 63.51 51.228 77.2437 42.8145C95.8418 31.3533 111.351 17.0708 123.333 0.36851C123.522 0.10455 123.83 -0.0333033 124.142 0.00687806C124.455 0.0470594 124.723 0.259171 124.845 0.563312C124.968 0.867453 124.928 1.21742 124.738 1.48138C112.612 18.3822 96.9314 32.8218 78.1312 44.4261C64.2751 52.9159 49.4854 59.5978 34.0899 64.3238C34.0078 64.3434 33.9233 64.3496 33.8394 64.3423Z" fill="#372168"/>
<path d="M12.8907 69.4034C12.4054 69.4353 11.9874 69.0477 11.9571 68.5377C11.9267 68.0277 12.2956 67.5885 12.7809 67.5566C17.8478 66.7395 22.8673 65.6251 27.8157 64.2185C28.1241 64.1215 28.4583 64.2094 28.6868 64.4477C28.9152 64.686 29.0014 65.0365 28.9114 65.3613C28.8214 65.6861 28.5696 65.9332 28.2551 66.0053C23.2351 67.4285 18.1439 68.5583 13.0049 69.3895L12.8907 69.4034Z" fill="#372168"/>
<path d="M122.832 10.4891H122.704C122.473 10.4537 122.266 10.3233 122.126 10.1267C121.987 9.93012 121.928 9.68338 121.962 9.44087L122.937 2.44504L116.228 5.53429C115.783 5.73831 115.265 5.52433 115.07 5.05635C114.876 4.58838 115.08 4.04361 115.525 3.83959L123.684 0.0853911C123.977 -0.049539 124.317 -0.00630066 124.571 0.198264C124.825 0.402828 124.953 0.736369 124.905 1.06896L123.702 9.7087C123.634 10.1587 123.265 10.49 122.832 10.4891Z" fill="#372168"/>
<path d="M143.121 123.999H106.655C106.169 123.999 105.776 123.586 105.776 123.076C105.776 122.566 106.169 122.152 106.655 122.152H143.121C143.607 122.152 144 122.566 144 123.076C144 123.586 143.607 123.999 143.121 123.999Z" fill="#D8D3DA"/>
<path d="M101.088 123.999H0.878718C0.393416 123.999 0 123.586 0 123.076C0 122.566 0.393416 122.152 0.878718 122.152H101.088C101.573 122.152 101.966 122.566 101.966 123.076C101.966 123.586 101.573 123.999 101.088 123.999Z" fill="#D8D3DA"/>
<path d="M106.672 80.1903C106.542 80.1917 106.418 80.1325 106.334 80.0287L100.754 73.1252C100.652 72.9999 100.621 72.8268 100.674 72.6712C100.726 72.5157 100.853 72.4013 101.007 72.3711C101.162 72.3409 101.32 72.3996 101.422 72.5249L107.006 79.4284C107.081 79.5221 107.118 79.6433 107.108 79.7654C107.098 79.8876 107.042 80.0006 106.953 80.0795C106.875 80.15 106.775 80.1892 106.672 80.1903Z" fill="#372168"/>
<path d="M106.321 75.2091C106.192 75.2091 106.07 75.1501 105.987 75.0475L104.607 73.3439C104.532 73.2502 104.495 73.129 104.505 73.0069C104.515 72.8848 104.571 72.7718 104.66 72.6929C104.748 72.6133 104.863 72.5739 104.98 72.5834C105.096 72.593 105.204 72.6506 105.279 72.7437L106.654 74.4473C106.766 74.5843 106.791 74.7769 106.72 74.9406C106.648 75.1043 106.492 75.2091 106.321 75.2091Z" fill="#372168"/>
<path d="M102.928 80.0943C102.799 80.0932 102.677 80.0324 102.595 79.9281L99.6113 76.2345C99.4536 76.0407 99.4753 75.7492 99.6597 75.5835C99.8441 75.4178 100.121 75.4405 100.279 75.6343L103.262 79.3279C103.374 79.4648 103.399 79.6574 103.328 79.8211C103.256 79.9848 103.1 80.0897 102.928 80.0897V80.0943Z" fill="#372168"/>
</svg>
