<svg width="36" height="36" viewBox="0 0 36 36" fill="none" xmlns="http://www.w3.org/2000/svg">
<path d="M18 36C27.9411 36 36 27.9411 36 18C36 8.05888 27.9411 0 18 0C8.05888 0 0 8.05888 0 18C0 27.9411 8.05888 36 18 36Z" fill="#E75755"/>
<path d="M29.0257 12.9366C28.2543 13.2786 27.4245 13.5099 26.5544 13.6133C27.4428 13.0809 28.1247 12.2387 28.4465 11.2334C27.6151 11.7266 26.6939 12.0843 25.7143 12.2772C24.9295 11.4413 23.8113 10.9189 22.573 10.9189C20.1973 10.9189 18.2705 12.8458 18.2705 15.2215C18.2705 15.5587 18.3087 15.8869 18.3825 16.202C14.8068 16.0227 11.6363 14.3099 9.51407 11.706C9.14379 12.3413 8.93137 13.0809 8.93137 13.8693C8.93137 15.3617 9.69151 16.6792 10.8453 17.4505C10.1404 17.4284 9.47653 17.2349 8.89672 16.9118C8.8964 16.9301 8.8964 16.9484 8.8964 16.9663C8.8964 19.051 10.3801 20.7898 12.348 21.1848C11.9873 21.2836 11.6064 21.3359 11.2147 21.3359C10.9368 21.3359 10.6676 21.3093 10.4051 21.2592C10.9525 22.9681 12.5411 24.2121 14.4243 24.2471C12.9515 25.4013 11.0966 26.0889 9.08025 26.0889C8.73372 26.0889 8.39039 26.0687 8.05444 26.0286C9.95751 27.2498 12.2196 27.9618 14.6492 27.9618C22.5631 27.9618 26.8909 21.4058 26.8909 15.7198C26.8909 15.5333 26.8868 15.3476 26.8784 15.1634C27.7197 14.5569 28.4491 13.7994 29.0257 12.9366Z" fill="white"/>
</svg>
