<svg width="36" height="36" viewBox="0 0 36 36" fill="none" xmlns="http://www.w3.org/2000/svg">
<path d="M18 0C8.06039 0 0 8.06039 0 18C0 27.9396 8.06039 36 18 36C27.9396 36 36 27.9396 36 18C36 8.06039 27.9396 0 18 0ZM18.3815 28.4801C18.3812 28.4801 18.3818 28.4801 18.3815 28.4801H18.3771C16.574 28.4793 14.8022 28.0272 13.2286 27.1692L7.51767 28.6669L9.04614 23.0858C8.10324 21.4527 7.60721 19.5999 7.60803 17.7017C7.6105 11.7636 12.4434 6.93265 18.3815 6.93265C21.2632 6.93375 23.9683 8.05545 26.0022 10.0909C28.0363 12.1267 29.1558 14.8326 29.1547 17.7102C29.1522 23.6486 24.3188 28.4801 18.3815 28.4801Z" fill="#2A2A2A"/>
<path d="M18.385 8.75195C13.4458 8.75195 9.42896 12.7672 9.42676 17.7028C9.42621 19.3941 9.89972 21.0413 10.7959 22.4665L11.0088 22.8051L10.1041 26.1084L13.4931 25.2196L13.8202 25.4135C15.1949 26.2293 16.7708 26.6608 18.3776 26.6613H18.3812C23.3165 26.6613 27.3334 22.6458 27.3356 17.7099C27.3364 15.3179 26.4059 13.069 24.7153 11.3771C23.0248 9.68524 20.7765 8.75278 18.385 8.75195ZM23.6519 21.5513C23.4275 22.1797 22.3522 22.7535 21.835 22.8309C21.3711 22.9001 20.7844 22.929 20.1395 22.7244C19.7484 22.6002 19.2472 22.4346 18.6047 22.1575C15.9046 20.9918 14.141 18.2738 14.0064 18.0942C13.8718 17.9146 12.9072 16.6349 12.9072 15.3102C12.9072 13.9858 13.6027 13.3346 13.8493 13.0655C14.0962 12.796 14.3879 12.7287 14.5673 12.7287C14.7466 12.7287 14.9262 12.7304 15.0831 12.7381C15.2484 12.7463 15.4703 12.6752 15.6887 13.2C15.9131 13.7389 16.4514 15.0633 16.5187 15.1979C16.586 15.3328 16.6308 15.4899 16.5412 15.6695C16.4514 15.8491 16.1531 16.2367 15.8683 16.5899C15.7488 16.7379 15.5931 16.8698 15.7502 17.1392C15.907 17.4084 16.4476 18.2897 17.2477 19.0033C18.276 19.9201 19.1433 20.2041 19.4125 20.339C19.6814 20.4735 19.8385 20.451 19.9956 20.2717C20.1524 20.092 20.6685 19.4859 20.8479 19.2164C21.0272 18.947 21.2068 18.992 21.4535 19.0818C21.7004 19.1714 23.0237 19.8226 23.2929 19.9572C23.562 20.092 23.7414 20.1593 23.8087 20.2717C23.8763 20.384 23.8763 20.9226 23.6519 21.5513Z" fill="#2A2A2A"/>
</svg>
