<svg width="36" height="36" viewBox="0 0 36 36" fill="none" xmlns="http://www.w3.org/2000/svg">
<path d="M23.3649 9.57812H12.6352C10.9226 9.57812 9.5293 10.9715 9.5293 12.6841V23.4137C9.5293 25.1263 10.9226 26.5201 12.6352 26.5201H23.3649C25.0775 26.5201 26.4713 25.1267 26.4713 23.4137V12.6841C26.4713 10.9715 25.0779 9.57812 23.3649 9.57812ZM18.0001 23.6263C14.925 23.6263 12.4231 21.1244 12.4231 18.0489C12.4231 14.9738 14.925 12.4719 18.0001 12.4719C21.0755 12.4719 23.5775 14.9738 23.5775 18.0489C23.5775 21.124 21.0751 23.6263 18.0001 23.6263ZM23.7568 13.625C23.0288 13.625 22.4368 13.033 22.4368 12.3055C22.4368 11.5779 23.0288 10.9859 23.7568 10.9859C24.4843 10.9859 25.0763 11.5779 25.0763 12.3055C25.0763 13.033 24.4843 13.625 23.7568 13.625Z" fill="#E75755"/>
<path d="M18 14.8286C16.2248 14.8286 14.7793 16.2733 14.7793 18.0485C14.7793 19.8244 16.2248 21.2695 18 21.2695C19.7759 21.2695 21.2202 19.8244 21.2202 18.0485C21.2202 16.2737 19.7755 14.8286 18 14.8286Z" fill="#E75755"/>
<path d="M18 0C8.05927 0 0 8.05927 0 18C0 27.9407 8.05927 36 18 36C27.9407 36 36 27.9407 36 18C36 8.05927 27.9407 0 18 0ZM28.8275 23.4134C28.8275 26.4259 26.3773 28.876 23.3648 28.876H12.6352C9.62307 28.876 7.17249 26.4259 7.17249 23.4134V12.6837C7.17249 9.67161 9.62307 7.22102 12.6352 7.22102H23.3648C26.3773 7.22102 28.8275 9.67161 28.8275 12.6837V23.4134Z" fill="#E75755"/>
</svg>
