<svg width="438" height="342" viewBox="0 0 438 342" fill="none" xmlns="http://www.w3.org/2000/svg">
<g filter="url(#filter0_d_109_966)">
<path d="M416.512 171.029V186.114L218.749 300.296V171.462L416.512 171.029Z" fill="#C7D1E1"/>
<path d="M218.75 171.462V300.296L21 186.114V171.029L218.75 171.462Z" fill="url(#paint0_linear_109_966)"/>
<path d="M21 171.029L218.75 285.208L416.514 171.029L218.75 56.8509L21 171.029Z" fill="#D4E0F2"/>
</g>
<path d="M287.756 113.573L271.097 123.256C271.561 122.985 272.209 123.021 272.915 123.428L289.577 113.746C288.865 113.339 288.225 113.302 287.756 113.573Z" fill="#F9FAFD"/>
<path d="M328.318 155.414L344.978 145.73L289.579 113.746L272.916 123.428L328.318 155.414Z" fill="#EDF1F5"/>
<path d="M328.317 155.413L344.977 145.729C346.383 146.544 347.533 148.539 347.529 150.152L347.524 151.646C347.524 152.448 347.237 153.015 346.778 153.284L330.115 162.968C330.576 162.697 330.863 162.133 330.866 161.327L330.869 159.834C330.873 158.222 329.725 156.227 328.317 155.413Z" fill="#AEC0D0"/>
<path d="M272.916 123.428C271.511 122.617 270.351 123.275 270.347 124.89L270.342 126.386C270.341 128.003 271.49 129.994 272.894 130.806L328.297 162.793C329.705 163.605 330.86 162.943 330.866 161.327L330.869 159.834C330.874 158.222 329.725 156.227 328.318 155.414L272.916 123.428Z" fill="#AEC0D0"/>
<path d="M360.312 142.52L360.322 139.815L359.347 140.382L251.373 78.0421L254.377 76.295L254.561 11.6156C254.562 11.3811 254.587 11.1654 254.623 10.9676L254.636 10.9137L254.626 10.9608C254.653 10.829 254.693 10.7074 254.734 10.5918L254.695 10.686L254.734 10.5884C254.884 10.1946 255.122 9.89589 255.428 9.71869C256.71 8.97395 257.994 8.22664 259.277 7.4819L257.551 6.48721C257.167 6.26379 256.792 6.09343 256.43 5.96159C256.366 6.32199 256.325 6.70378 256.325 7.12065L251.568 9.88562C251.57 8.01263 252.232 6.69264 253.302 6.07204C254.435 5.41374 255.569 4.75632 256.701 4.09889L255.556 3.43633C254.192 2.64879 252.951 2.58032 252.051 3.10249C252.684 2.73441 253.32 2.36375 253.954 1.99567L254.192 1.85869C254.826 1.48889 255.459 1.11995 256.096 0.751862C256.334 0.613174 256.573 0.474503 256.81 0.334961C257.71 -0.18721 258.951 -0.116165 260.318 0.670517L360.358 58.4298C363.081 60.0006 365.289 63.8373 365.281 66.9584L365.101 129.844L365.091 133.511L365.073 139.754C365.069 141.302 364.518 142.399 363.63 142.915C362.041 143.836 360.456 144.761 358.869 145.682C359.758 145.165 360.308 144.071 360.312 142.52Z" fill="#AEC0D0"/>
<path d="M254.653 10.8568L254.636 10.9136L254.649 10.8717L254.653 10.8568Z" fill="#AEC0D0"/>
<path d="M254.578 11.2793L254.591 11.1913L254.594 11.1784L254.578 11.2793Z" fill="#AEC0D0"/>
<path d="M257.543 9.92419C255.902 8.97742 254.57 9.73929 254.561 11.6157L254.377 76.3336L356.361 135.213L356.543 70.4964C356.548 68.62 355.222 66.3198 353.589 65.3773L257.543 9.92419Z" fill="#F1EEEF"/>
<path d="M329.737 151.162L334.499 148.395L334.558 127.821L329.797 130.585L329.737 151.162Z" fill="#FF9000"/>
<path d="M329.798 130.585L334.559 127.821L285.637 99.577L280.878 102.342L329.798 130.585Z" fill="#0D3C65"/>
<path d="M280.877 102.342L280.817 122.917L329.737 151.162L329.797 130.585L280.877 102.342Z" fill="#F7AA45"/>
<path d="M325.13 76.3799C325.191 77.2787 324.634 77.7221 323.875 77.3626C323.825 77.3403 323.429 77.1417 322.758 76.7557C319.719 74.9991 309.319 68.2074 301.721 53.7621L299.642 54.1267C299.538 54.1456 299.417 54.1156 299.302 54.0488C299.207 53.9932 299.114 53.9136 299.028 53.816C298.832 53.5926 298.705 53.2895 298.693 53.0336L298.287 44.1789C298.274 43.9263 298.38 43.7449 298.564 43.7149C298.666 43.6944 298.78 43.7243 298.899 43.7911C298.994 43.8467 299.089 43.9264 299.177 44.0265L305.863 51.7667C306.062 51.9969 306.19 52.294 306.199 52.5533C306.208 52.8084 306.107 52.989 305.925 53.019L304.031 53.3546C310.859 66.052 320.034 72.0433 322.735 73.6038C323.285 73.9188 323.61 74.0815 323.643 74.0943L323.769 74.1619C324.482 74.5754 325.069 75.5264 325.13 76.3799Z" fill="#F1EEEF"/>
<path d="M356.361 135.213L254.377 76.3334L254.561 11.6155C254.569 9.73907 255.902 8.97722 257.542 9.92398L353.589 65.3771C355.222 66.3196 356.548 68.6198 356.543 70.4962L356.361 135.213ZM251.373 78.042L359.347 140.382L359.54 72.2262C359.55 68.4468 356.885 63.8371 353.598 61.9393L257.551 6.48706C254.267 4.58754 251.575 6.10783 251.568 9.88547L251.373 78.042Z" fill="#FF9000"/>
<path d="M251.373 78.0419L251.469 43.9637L251.568 9.88541C251.568 8.82224 251.781 7.93883 252.161 7.25914L252.296 7.0417C252.388 6.89961 252.489 6.76949 252.595 6.64879C253.674 5.44864 255.494 5.2997 257.55 6.48701L353.598 61.9393C354.626 62.5334 355.593 63.3902 356.436 64.4046C356.604 64.6092 356.769 64.8198 356.924 65.0304C357.085 65.2461 357.236 65.4644 357.384 65.6912C358.705 67.7132 359.545 70.1006 359.54 72.2261L359.346 140.382L251.373 78.0419ZM250.397 79.0632C250.39 82.1757 252.609 86.0175 255.32 87.584L280.878 102.342L329.798 130.585L355.361 145.343C358.08 146.916 360.303 145.638 360.312 142.52L360.331 136.277L360.341 132.611L360.517 69.7248C360.527 66.6038 358.321 62.7654 355.598 61.1963L255.555 3.43613C252.846 1.87047 250.612 3.14423 250.605 6.26529L250.421 69.1504L250.414 72.8159L250.397 79.0632Z" fill="#F9FAFD"/>
<path d="M292.593 43.0317L350.242 76.3148L350.267 66.866L350.433 66.9601L350.293 115.749H350.295L350.293 115.75V115.752L350.292 115.75L334.237 125.021V124.817L350.116 115.648L292.906 82.6177V82.4345L350.13 115.472L350.159 105.075L292.936 72.0364V71.8515L350.159 104.891L350.187 95.0505L292.964 62.0123V61.8283L350.189 94.8665L350.216 85.0325L292.993 51.9934V51.8043L350.217 84.8425L350.242 76.4988L292.593 43.2166V43.0317Z" fill="#9BAEB9"/>
<path d="M303.189 53.3937L307.802 50.7143L304.849 52.3485L300.237 55.0295L303.189 53.3937Z" fill="#A32300"/>
<path d="M307.379 64.0435L311.992 61.365L307.804 50.7143L303.19 53.3937L307.379 64.0435Z" fill="#ED5B00"/>
<path d="M313.019 69.8677L317.633 67.1875L314.628 60.6098L310.016 63.2891L313.019 69.8677Z" fill="#ED5B00"/>
<path d="M310.014 63.2893L314.627 60.61L311.99 61.365L307.377 64.0435L310.014 63.2893Z" fill="#FF9E2E"/>
<path d="M318.038 70.8406L322.652 68.1595L317.633 67.1879L313.02 69.8681L318.038 70.8406Z" fill="#FF9E2E"/>
<path d="M322.217 76.0828L326.829 73.4026L322.651 68.1594L318.038 70.8405L322.217 76.0828Z" fill="#ED5B00"/>
<path d="M326.404 77.4556L331.016 74.7754L326.828 73.4023L322.217 76.0825L326.404 77.4556Z" fill="#FF9E2E"/>
<path d="M330.209 79.9478L334.82 77.2675L331.017 74.7757L326.405 77.4559L330.209 79.9478Z" fill="#FF9E2E"/>
<path d="M335.345 87.0688L339.958 84.3878L334.82 77.2674L330.209 79.9476L335.345 87.0688Z" fill="#ED5B00"/>
<path d="M340.788 96.1555L345.401 93.4744L339.958 84.3878L335.345 87.0688L340.788 96.1555Z" fill="#ED5B00"/>
<path d="M303.189 53.3935L300.238 55.0294L297.725 58.4715L297.634 90.6751L345.516 118.32L345.611 85.0578L343.113 88.3809L340.788 96.1553L335.345 87.0686L330.209 79.9474L326.405 77.4555L322.217 76.0824L318.038 70.8401L313.019 69.8677L310.015 63.2892L307.378 64.0433L303.189 53.3935Z" fill="#FF9214"/>
<path d="M345.517 118.32L350.128 115.64L350.222 82.3776L345.612 85.0578L345.517 118.32Z" fill="#ED5B00"/>
<path d="M296.842 62.5005L301.457 59.8254L296.544 53.1767L291.93 55.8509L296.842 62.5005Z" fill="#FFC000"/>
<path d="M301.925 71.4302L306.54 68.7568L303.404 58.9314L298.788 61.6047L301.925 71.4302Z" fill="#FFC000"/>
<path d="M298.788 61.6051L303.403 58.9317L301.457 59.8254L296.842 62.5005L298.788 61.6051Z" fill="#FFEA70"/>
<path d="M310.936 82.5586L315.552 79.8827L310.572 69.619L305.958 72.294L310.936 82.5586Z" fill="#FFC000"/>
<path d="M305.957 72.2942L310.571 69.6191L306.539 68.7571L301.924 71.4305L305.957 72.2942Z" fill="#FFEA70"/>
<path d="M315.401 82.3446L320.016 79.6704L315.552 79.8827L310.936 82.5586L315.401 82.3446Z" fill="#FFEA70"/>
<path d="M319.293 89.1855L323.909 86.5105L320.017 79.67L315.401 82.3442L319.293 89.1855Z" fill="#FFC000"/>
<path d="M329.598 98.3408L334.213 95.6674L330.947 89.112L326.331 91.7871L329.598 98.3408Z" fill="#FFC000"/>
<path d="M326.33 91.7871L330.946 89.112L323.908 86.5106L319.292 89.1856L326.33 91.7871Z" fill="#FFEA70"/>
<path d="M335.642 107.206L340.256 104.531L336.735 97.438L332.12 100.113L335.642 107.206Z" fill="#FFC000"/>
<path d="M332.119 100.113L336.734 97.4377L334.212 95.6675L329.597 98.3408L332.119 100.113Z" fill="#FFEA70"/>
<path d="M338.38 122.442L342.996 119.768L343.057 105.156L338.442 107.829L338.38 122.442Z" fill="#FFC000"/>
<path d="M291.93 55.8507L290.683 59.6309L290.536 94.7321L338.38 122.442L338.442 107.829L335.642 107.206L332.12 100.113L329.597 98.3411L326.331 91.7874L319.293 89.1859L315.401 82.3446L310.936 82.5586L305.958 72.294L301.925 71.4303L298.788 61.6048L296.842 62.5002L291.93 55.8507Z" fill="#FFB923"/>
<path d="M338.441 107.829L343.056 105.156L340.255 104.531L335.641 107.206L338.441 107.829Z" fill="#FFEA70"/>
<path d="M270.195 40.2238L273.634 38.2267L266.63 42.2166L263.192 44.2146L270.195 40.2238Z" fill="#6ED5EC"/>
<path d="M277.192 52.2537L280.63 50.2557C282.401 49.2259 283.5 47.0379 283.509 43.9254L280.072 45.9242C280.063 49.0342 278.963 51.2239 277.192 52.2537Z" fill="#FF9214"/>
<path d="M270.195 40.2241L263.192 44.2149C264.973 47.3 267.437 49.9939 270.165 51.5681C271.558 52.3728 272.884 52.8042 274.09 52.8992C277.595 53.1766 280.056 50.5871 280.07 45.9243L270.195 40.2241Z" fill="#FF9E2E"/>
<path d="M280.071 45.9241L283.507 43.9253L273.635 38.2267L270.196 40.2238L280.071 45.9241Z" fill="#6ED5EC"/>
<path d="M266.642 26.1957C265.496 26.8625 264.35 27.5276 263.205 28.1936C264.088 27.6808 265.139 27.4557 266.305 27.5482C267.508 27.6423 268.835 28.0746 270.23 28.8801L273.667 26.8822C272.273 26.0775 270.945 25.6452 269.742 25.5502C268.576 25.4586 267.525 25.6829 266.642 26.1957Z" fill="#FF8577"/>
<path d="M270.229 28.8798C268.835 28.0743 267.508 27.642 266.304 27.5478C262.798 27.2705 260.337 29.86 260.324 34.5236C260.316 37.6558 261.412 41.1295 263.193 44.2146L270.196 40.2238L270.229 28.8798Z" fill="#FF5050"/>
<path d="M270.196 40.2236L273.635 38.2265L273.667 26.8817L270.23 28.8796L270.196 40.2236Z" fill="#FF5050"/>
<path d="M280.071 45.9241L283.508 43.9253C283.516 40.7922 282.42 37.321 280.639 34.2359C278.857 31.15 276.393 28.4552 273.668 26.8819L270.23 28.8798C272.956 30.4523 275.421 33.1479 277.2 36.2339C278.982 39.3173 280.079 42.7902 280.071 45.9241Z" fill="#FFCF07"/>
<path d="M270.23 28.8798L270.196 40.2238L280.071 45.9241C280.078 42.7902 278.982 39.3173 277.199 36.2339C275.42 33.1479 272.955 30.4523 270.23 28.8798Z" fill="#FFC000"/>
<path d="M270.196 69.3874L273.633 67.3894L266.631 71.3811L263.192 73.3782L270.196 69.3874Z" fill="#0E70A4"/>
<path d="M270.197 69.3874L260.324 63.688C260.317 66.8193 261.413 70.2956 263.193 73.3782L270.197 69.3874Z" fill="#FF5050"/>
<path d="M270.196 69.3877L263.192 73.3785C264.975 76.4628 267.439 79.1584 270.164 80.7326C271.56 81.5373 272.886 81.9678 274.09 82.0637L270.196 69.3877Z" fill="#ED5B00"/>
<path d="M270.197 69.3877L273.634 67.3898L263.761 61.6903L260.324 63.6883L270.197 69.3877Z" fill="#FF5050"/>
<path d="M274.09 82.0637L277.527 80.0658L273.634 67.3898L270.197 69.3877L274.09 82.0637Z" fill="#0E70A4"/>
<path d="M270.197 69.3877L273.634 67.3898L269.744 54.7146L266.307 56.7117L270.197 69.3877Z" fill="#6ED5EC"/>
<path d="M266.306 56.7117C262.799 56.4352 260.338 59.0238 260.324 63.6883L270.197 69.3877L266.306 56.7117Z" fill="#FF9E2E"/>
<path d="M266.642 55.3597C265.496 56.0265 264.349 56.6917 263.204 57.3577C264.088 56.8449 265.14 56.6198 266.306 56.7114L269.743 54.7143C268.576 54.6218 267.524 54.8469 266.642 55.3597Z" fill="#FF9214"/>
<path d="M270.23 58.0442L273.668 56.0454C272.273 55.2416 270.948 54.8101 269.744 54.7143L266.307 56.7114C267.511 56.8081 268.836 57.2387 270.23 58.0442Z" fill="#D77E0A"/>
<path d="M270.197 69.3877L273.634 67.3898L273.668 56.0457L270.23 58.0445L270.197 69.3877Z" fill="#8AB803"/>
<path d="M270.23 58.0445C268.836 57.239 267.511 56.8085 266.307 56.7117L270.197 69.3877L270.23 58.0445Z" fill="#E4870E"/>
<path d="M277.192 81.4182C278.338 80.7514 279.483 80.0863 280.629 79.4203C282.401 78.3913 283.499 76.2025 283.508 73.09C283.517 69.9569 282.42 66.4823 280.64 63.3998C278.86 60.3155 276.395 57.6208 273.668 56.0457L270.23 58.0445C272.956 59.6179 275.422 62.3127 277.203 65.3969C278.983 68.4794 280.08 71.9549 280.07 75.0879C280.062 78.1987 278.964 80.3884 277.192 81.4182Z" fill="#FFCF07"/>
<path d="M270.23 58.0444L270.197 69.3875L274.09 82.0635C277.596 82.3409 280.056 79.7514 280.07 75.0878C280.079 71.9548 278.983 68.4793 277.202 65.3968C275.422 62.3125 272.955 59.6177 270.23 58.0444Z" fill="#FF9600"/>
<path d="M189.926 163.328L193.058 161.503L193.088 121.223L189.958 123.046L189.926 163.328Z" fill="#1D2325"/>
<path d="M189.961 123.046L193.09 121.223L190.221 119.567L187.087 121.388L189.961 123.046Z" fill="#374246"/>
<path d="M187.085 121.388L187.051 161.665L189.927 163.328L189.959 123.046L187.085 121.388Z" fill="#FF9000"/>
<path d="M222.56 184.307C222.56 184.307 221.343 188.376 222.658 189.823C223.022 190.224 224.597 190.348 226.432 189.954C227.622 189.693 228.919 188.972 230.101 188.805C233.592 188.318 234.488 186.808 235.934 184.889C239.02 180.8 233.424 182.022 229.767 183.311C225.941 184.661 222.56 184.307 222.56 184.307Z" fill="#181A1C"/>
<path d="M222.122 185.658C222.615 186.493 224.454 187.267 225.898 187.367C228.063 187.519 230.56 186.559 231.721 184.403L231.614 154.913C231.844 148.438 227.466 148.451 224.668 148.177C221.677 147.884 222.142 148.867 222.157 151.875L222.122 185.658Z" fill="#1C2326"/>
<path d="M226.109 188.518V187.723H222.808V187.649L222.154 188.726L222.494 190.392C222.494 190.392 224.363 191.7 224.754 191.601L224.936 191.548L227.818 189.887L227.69 189.575C228.274 189.374 228.876 189.162 229.482 188.926L229.528 188.902L229.537 188.907C229.806 188.805 230.075 188.698 230.353 188.592L230.478 188.518H226.109Z" fill="#181A1C"/>
<path d="M228.558 177.609C229.428 164.103 218.063 152.373 203.177 151.416C188.287 150.462 175.518 160.637 174.652 174.147C173.779 187.659 185.147 199.381 200.035 200.34C214.923 201.292 227.692 191.118 228.558 177.609Z" fill="#F7AA45"/>
<path d="M189.13 162.062C191.361 168.221 199.506 169.18 205.542 169.18C208.777 169.186 214.638 166.864 217.981 163.855C219.089 162.863 220.187 160.347 221.141 159.177C216.582 154.788 210.283 151.875 203.177 151.415C199.083 151.153 195.15 151.738 191.579 152.993C189.909 156.027 187.778 158.319 189.13 162.062Z" fill="#FFBD67"/>
<path d="M219.119 157.415C225.975 170.219 221.339 187.599 206.146 193.193C195.84 196.284 186.565 190.1 177.29 184.949C177.053 184.889 176.815 184.847 176.587 184.814C180.388 193.346 189.293 199.652 200.037 200.34C214.925 201.292 227.694 191.118 228.56 177.609C229.074 169.641 225.325 162.298 219.119 157.415Z" fill="#FF9000"/>
<path d="M220.373 145.037C217.758 143.547 213.537 143.568 210.941 145.082L190.811 154.491C194.119 155.877 198.96 159.171 201.98 161.238L220.4 150.481C222.994 148.964 222.981 146.529 220.373 145.037Z" fill="#1C2326"/>
<path d="M229.202 149.222C226.593 147.728 222.368 147.752 219.775 149.27L199.646 158.674C202.948 160.058 207.793 163.356 210.814 165.424L229.231 154.664C231.828 153.152 231.815 150.71 229.202 149.222Z" fill="#1C2326"/>
<path d="M221.208 141.735C222.26 144.087 221.212 146.837 218.872 147.884C216.537 148.929 213.791 147.866 212.741 145.517L205.19 128.895C204.141 126.543 205.185 123.787 207.522 122.74C209.862 121.694 212.606 122.757 213.654 125.107L221.208 141.735Z" fill="#174361"/>
<path d="M240.389 195.085L243.52 193.258L243.552 152.982L240.419 154.804L240.389 195.085Z" fill="#FF9000"/>
<path d="M240.418 154.804L243.551 152.982L240.68 151.324L237.542 153.148L240.418 154.804Z" fill="#374246"/>
<path d="M237.543 153.148L237.514 193.426L240.388 195.085L240.418 154.804L237.543 153.148Z" fill="#F7AA45"/>
<path d="M275.461 175.582L278.598 173.757L278.628 140.834L275.493 142.656L275.461 175.582Z" fill="#FF9000"/>
<path d="M275.493 142.657L278.628 140.835L275.753 139.179L272.619 140.999L275.493 142.657Z" fill="#374246"/>
<path d="M272.619 140.998L272.586 173.921L275.461 175.582L275.493 142.656L272.619 140.998Z" fill="#F7AA45"/>
<path d="M245.88 165.364L282.462 144.101L282.47 140.805L245.886 162.062L245.88 165.364Z" fill="#AEC0D0"/>
<path d="M245.886 162.062L282.469 140.805L217.446 103.261L180.869 124.52L245.886 162.062Z" fill="white"/>
<path d="M235.644 110.025L235.638 110.581L216.81 121.485L216.814 120.927L235.644 110.025Z" fill="#9B2616"/>
<path d="M216.815 120.927L216.811 121.485L203.988 114.085L203.994 113.529L216.815 120.927Z" fill="#9B2616"/>
<path d="M235.647 110.025L216.817 120.927L203.995 113.529L222.83 102.619L235.647 110.025Z" fill="#6C1A0F"/>
<path d="M205.442 111.335L204.158 110.721V113.365L205.442 114.283V111.335Z" fill="#6C1A0F"/>
<path d="M234.503 108.015L234.5 110.214L216.805 120.455L216.811 118.259L234.503 108.015Z" fill="#EBEBEB"/>
<path d="M205.001 111.446V113.654L216.803 120.455L216.81 118.259L205.001 111.446Z" fill="#A8A8A8"/>
<path d="M222.6 101.146L205.644 110.965V111.816L216.811 118.259L234.503 108.015L222.6 101.146Z" fill="#DCDCDC"/>
<path d="M235.644 106.8L235.638 107.355L216.81 118.263L216.814 117.707L235.644 106.8Z" fill="#9B2616"/>
<path d="M216.815 117.707L216.811 118.263L203.988 110.863L203.994 110.304L216.815 117.707Z" fill="#9B2616"/>
<path d="M235.647 106.8L216.817 117.707L203.995 110.304L222.83 99.4021L235.647 106.8Z" fill="#FF9000"/>
<path d="M204.576 114.173L203.988 113.865V110.53L204.576 110.892V114.173Z" fill="#9B2616"/>
<path d="M232.152 105.521L232.149 106L215.744 115.506L215.748 115.019L232.152 105.521Z" fill="#E88102"/>
<path d="M215.748 115.019L215.744 115.506L204.575 109.056L204.579 108.57L215.748 115.019Z" fill="#E88102"/>
<path d="M232.153 105.521L215.749 115.019L204.58 108.571L220.988 99.0707L232.153 105.521Z" fill="#8A4C01"/>
<path d="M205.84 106.663L204.729 106.128V108.428L205.84 109.231V106.663Z" fill="#8A4C01"/>
<path d="M231.156 103.771L231.151 105.687L215.744 114.608V112.692L231.156 103.771Z" fill="#EBEBEB"/>
<path d="M205.46 106.763V108.681L215.744 114.608V112.692L205.46 106.763Z" fill="#A8A8A8"/>
<path d="M220.793 97.7862L206.02 106.341V107.075L215.744 112.691L231.157 103.77L220.793 97.7862Z" fill="#DCDCDC"/>
<path d="M232.152 102.714L232.149 103.197L215.744 112.699L215.748 112.214L232.152 102.714Z" fill="#E88102"/>
<path d="M215.748 112.214L215.744 112.699L204.575 106.255L204.579 105.768L215.748 112.214Z" fill="#E88102"/>
<path d="M232.153 102.714L215.749 112.214L204.58 105.767L220.988 96.2687L232.153 102.714Z" fill="#FBAB20"/>
<path d="M205.092 109.131L204.575 108.869V105.961L205.092 106.277V109.131Z" fill="#E88102"/>
<path d="M208.868 101.265L208.875 101.672L222.569 109.603L222.564 109.2L208.868 101.265Z" fill="#FF9E2E"/>
<path d="M222.565 109.2L222.57 109.603L231.891 104.223L231.886 103.816L222.565 109.2Z" fill="#FF9214"/>
<path d="M208.868 101.265L222.564 109.2L231.885 103.816L218.188 95.884L208.868 101.265Z" fill="#ED5B00"/>
<path d="M230.839 102.222L231.765 101.781V103.699L230.839 104.372V102.222Z" fill="#176E96"/>
<path d="M209.7 99.8103L209.707 101.408L222.573 108.859L222.566 107.259L209.7 99.8103Z" fill="#A8A8A8"/>
<path d="M231.152 102.307V103.906L222.573 108.859L222.565 107.259L231.152 102.307Z" fill="#EBEBEB"/>
<path d="M218.353 94.8162L230.687 101.954V102.572L222.566 107.258L209.7 99.81L218.353 94.8162Z" fill="#DCDCDC"/>
<path d="M208.868 98.9289L208.875 99.3266L222.569 107.258L222.564 106.86L208.868 98.9289Z" fill="#6C1A0F"/>
<path d="M222.565 106.86L222.57 107.258L231.891 101.878L231.886 101.475L222.565 106.86Z" fill="#2E8BB6"/>
<path d="M208.868 98.9292L222.564 106.86L231.885 101.475L218.188 93.5442L208.868 98.9292Z" fill="#ED5B00"/>
<path d="M231.46 104.287L231.891 104.064V101.639L231.46 101.901V104.287Z" fill="#2E8BB6"/>
<path d="M250.17 137.125L238.982 143.589L250.17 150.049L261.366 143.589V142.656L250.17 137.125Z" fill="#AEC0D0"/>
<path d="M250.17 136.196L238.982 142.656L250.17 149.121L261.366 142.656L250.17 136.196Z" fill="#D4E0F2"/>
<path d="M180.869 124.52L180.856 127.822L245.88 165.364L245.886 162.062L180.869 124.52Z" fill="#C8D7E5"/>
<path d="M212.916 128.762C212.913 128.94 213.036 129.128 213.278 129.272L213.916 129.639V128.827L215.194 128.085L216.447 128.809L215.731 129.225L215.19 128.917L214.63 129.237L215.17 129.551L216.447 128.809V128.855L217.055 128.5C217.111 128.312 217.179 128.144 217.276 127.989L216.87 127.75L216.873 126.926L218.148 126.184L218.438 126.346V126.017L219.711 125.274L219.996 125.436V125.107L221.272 124.364L222.523 125.089V125.287L222.694 125.188L223.951 125.908V126.114L224.125 126.012L225.377 126.736L225.374 126.937L225.552 126.837L226.801 127.557V127.761L226.972 127.656L228.227 128.384V128.582L228.403 128.482L229.657 129.203V129.41L229.827 129.306L231.079 130.03V130.227L231.259 130.13L232.508 130.849V131.052L232.678 130.952L233.934 131.677V131.875L234.108 131.777L235.358 132.496V132.7L235.533 132.598L236.786 133.325V133.525L236.959 133.423L238.216 134.15V134.345L238.386 134.245L239.637 134.967V135.171L239.809 135.069L241.065 135.792L241.06 136.536L241.707 136.164L242.959 136.884V137.649L243.551 137.3C243.794 137.163 243.906 136.978 243.91 136.798L243.906 137.626C243.906 137.808 243.788 137.994 243.547 138.134L236.267 142.363C235.791 142.642 234.999 142.642 234.519 142.363L213.278 130.097C213.031 129.957 212.91 129.772 212.91 129.592C212.91 129.314 212.913 129.036 212.916 128.762Z" fill="#082C44"/>
<path d="M213.274 128.256L220.555 124.024C221.035 123.743 221.823 123.743 222.304 124.024L243.547 136.286C244.03 136.563 244.03 137.019 243.552 137.299L236.27 141.533C235.791 141.815 235.003 141.815 234.519 141.533L213.278 129.271C212.793 128.987 212.793 128.533 213.274 128.256Z" fill="#134169"/>
<path d="M221.272 124.363L219.996 125.107L221.25 125.833L222.522 125.089L221.272 124.363Z" fill="#EDF1F4"/>
<path d="M222.694 125.187L221.422 125.932L222.678 126.651L223.951 125.908L222.694 125.187Z" fill="#EDF1F4"/>
<path d="M224.125 126.012L222.849 126.756L224.099 127.481L225.377 126.735L224.125 126.012Z" fill="#EDF1F4"/>
<path d="M221.133 126.099L219.856 126.839L221.113 127.559L222.386 126.818L221.133 126.099Z" fill="#EDF1F4"/>
<path d="M218.149 126.183L216.873 126.926L218.124 127.647L219.398 126.901L218.149 126.183Z" fill="#EDF1F4"/>
<path d="M225.551 126.837L224.275 127.579L225.526 128.298L226.801 127.556L225.551 126.837Z" fill="#EDF1F4"/>
<path d="M219.578 127.006L218.302 127.744L219.548 128.471L220.827 127.727L219.578 127.006Z" fill="#EDF1F4"/>
<path d="M226.972 127.656L225.697 128.4L226.951 129.124L228.227 128.384L226.972 127.656Z" fill="#EDF1F4"/>
<path d="M220.998 127.829L219.725 128.571L220.978 129.294L222.255 128.552L220.998 127.829Z" fill="#EDF1F4"/>
<path d="M228.403 128.481L227.122 129.225L228.384 129.946L229.657 129.202L228.403 128.481Z" fill="#EDF1F4"/>
<path d="M224.597 128.094L223.32 128.838L226.82 130.852L228.094 130.113L224.597 128.094Z" fill="#EDF1F4"/>
<path d="M231.26 130.13L229.979 130.868L231.229 131.594L232.509 130.849L231.26 130.13Z" fill="#EDF1F4"/>
<path d="M228.268 130.215L226.994 130.956L228.243 131.677L229.519 130.937L228.268 130.215Z" fill="#EDF1F4"/>
<path d="M222.922 129.066L221.445 129.926L220.596 130.421L220.167 130.667L222.28 131.887L223.562 131.145L222.907 130.771L224.384 129.916L222.922 129.066Z" fill="#EDF1F4"/>
<path d="M232.678 130.952L231.404 131.695L232.657 132.416L233.933 131.676L232.678 130.952Z" fill="#EDF1F4"/>
<path d="M229.694 131.036L228.42 131.776L229.67 132.5L230.945 131.762L229.694 131.036Z" fill="#EDF1F4"/>
<path d="M227.665 131.676L226.387 132.416L227.643 133.143L228.918 132.399L227.665 131.676Z" fill="#EDF1F4"/>
<path d="M234.108 131.776L232.829 132.517L234.083 133.243L235.358 132.496L234.108 131.776Z" fill="#EDF1F4"/>
<path d="M231.119 131.859L229.844 132.6L231.095 133.325L232.369 132.579L231.119 131.859Z" fill="#EDF1F4"/>
<path d="M229.075 132.491L227.802 133.229L229.053 133.951L230.327 133.216L229.075 132.491Z" fill="#EDF1F4"/>
<path d="M235.531 132.597L234.259 133.341L235.506 134.064L236.784 133.325L235.531 132.597Z" fill="#EDF1F4"/>
<path d="M232.546 132.687L231.27 133.422L232.521 134.149L233.796 133.408L232.546 132.687Z" fill="#EDF1F4"/>
<path d="M222.876 132.538L221.599 133.276L224.092 134.715L225.365 133.979L222.876 132.538Z" fill="#EDF1F4"/>
<path d="M230.486 133.306L229.212 134.043L230.463 134.77L231.737 134.028L230.486 133.306Z" fill="#EDF1F4"/>
<path d="M236.96 133.423L235.679 134.163L236.937 134.889L238.216 134.149L236.96 133.423Z" fill="#EDF1F4"/>
<path d="M233.967 133.507L232.694 134.247L233.949 134.973L235.223 134.232L233.967 133.507Z" fill="#EDF1F4"/>
<path d="M231.894 134.116L230.619 134.862L231.876 135.582L233.15 134.842L231.894 134.116Z" fill="#EDF1F4"/>
<path d="M238.387 134.245L237.11 134.987L238.362 135.711L239.638 134.967L238.387 134.245Z" fill="#EDF1F4"/>
<path d="M235.399 134.331L234.119 135.069L235.374 135.795L236.651 135.055L235.399 134.331Z" fill="#EDF1F4"/>
<path d="M233.3 134.931L232.03 135.672L233.281 136.397L234.556 135.658L233.3 134.931Z" fill="#EDF1F4"/>
<path d="M239.81 135.069L238.535 135.813L239.787 136.531L241.065 135.791L239.81 135.069Z" fill="#EDF1F4"/>
<path d="M236.821 135.154L235.55 135.895L236.796 136.618L238.076 135.878L236.821 135.154Z" fill="#EDF1F4"/>
<path d="M234.715 135.744L233.435 136.488L234.692 137.208L235.965 136.471L234.715 135.744Z" fill="#EDF1F4"/>
<path d="M241.706 136.163L240.429 136.904L241.682 137.627L242.958 136.883L241.706 136.163Z" fill="#EDF1F4"/>
<path d="M236.124 136.559L234.848 137.3L236.1 138.023L237.373 137.281L236.124 136.559Z" fill="#EDF1F4"/>
<path d="M225.52 134.065L224.248 134.808L230.372 138.342L231.644 137.604L225.52 134.065Z" fill="#EDF1F4"/>
<path d="M238.313 136.013L237.038 136.755L240.122 138.536L241.396 137.796L238.313 136.013Z" fill="#EDF1F4"/>
<path d="M237.538 137.375L236.263 138.115L238.559 139.446L239.838 138.702L237.538 137.375Z" fill="#EDF1F4"/>
<path d="M231.839 137.714L230.564 138.452L232.678 139.674L233.955 138.935L231.839 137.714Z" fill="#EDF1F4"/>
<path d="M234.217 139.086L232.94 139.826L235.428 141.263L236.706 140.524L234.217 139.086Z" fill="#EDF1F4"/>
<path d="M219.711 125.273L218.438 126.017L219.686 126.739L220.963 125.995L219.711 125.273Z" fill="#EDF1F4"/>
<path d="M222.562 126.918L221.286 127.664L222.54 128.386L223.816 127.647L222.562 126.918Z" fill="#EDF1F4"/>
<path d="M215.195 128.085L213.916 128.826L215.17 129.551L216.448 128.808L215.195 128.085Z" fill="#EDF1F4"/>
<path d="M216.616 128.907L216.444 129.004L215.336 129.647L216.591 130.371L217.866 129.625L217.736 129.556L216.616 128.907Z" fill="#EDF1F4"/>
<path d="M217.992 128.085L217.822 128.187L216.718 128.826L217.97 129.551L219.248 128.808L219.119 128.732L217.992 128.085Z" fill="#EDF1F4"/>
<path d="M229.827 129.305L228.553 130.051L229.805 130.771L231.079 130.03L229.827 129.305Z" fill="#EDF1F4"/>
<path d="M217.992 129.701L216.714 130.44L217.969 131.165L219.248 130.428L217.992 129.701Z" fill="#EDF1F4"/>
<path d="M224.847 130.052L223.57 130.786L224.827 131.514L226.101 130.772L224.847 130.052Z" fill="#EDF1F4"/>
<path d="M226.254 130.864L224.979 131.603L226.234 132.325L227.508 131.586L226.254 130.864Z" fill="#EDF1F4"/>
<path d="M220.032 130.898L218.757 131.636L221.343 133.131L222.619 132.39L220.032 130.898Z" fill="#EDF1F4"/>
<path d="M233.764 137.001L232.483 137.747L233.742 138.473L235.015 137.727L233.764 137.001Z" fill="#EDF1F4"/>
<path d="M233.622 136.923L232.369 136.201L231.095 136.94L232.347 137.663L233.622 136.923Z" fill="#EDF1F4"/>
<path d="M232.213 136.113L230.959 135.388L229.681 136.128L230.938 136.852L232.213 136.113Z" fill="#EDF1F4"/>
<path d="M230.818 135.304L229.567 134.583L228.286 135.32L229.544 136.048L230.818 135.304Z" fill="#EDF1F4"/>
<path d="M229.365 134.464L228.11 133.74L226.833 134.486L228.087 135.204L229.365 134.464Z" fill="#EDF1F4"/>
<path d="M227.967 133.656L226.714 132.937L225.434 133.681L226.692 134.401L227.967 133.656Z" fill="#EDF1F4"/>
<path d="M226.557 132.842L225.306 132.121L224.025 132.865L225.282 133.588L226.557 132.842Z" fill="#EDF1F4"/>
<path d="M225.164 132.043L223.914 131.316L222.634 132.058L223.889 132.783L225.164 132.043Z" fill="#EDF1F4"/>
<path d="M238.274 139.61L235.19 137.831L233.91 138.568L236.999 140.349L238.274 139.61Z" fill="#EDF1F4"/>
<path d="M232.991 117.726L227.985 120.635C228.127 120.551 228.319 120.563 228.534 120.687L233.534 117.775C233.325 117.652 233.13 117.642 232.991 117.726Z" fill="#F8F9FC"/>
<path d="M245.17 130.291L250.172 127.386L233.534 117.776L228.534 120.687L245.17 130.291Z" fill="#EDF1F4"/>
<path d="M245.17 130.29L250.171 127.386C250.595 127.63 250.945 128.225 250.939 128.713V129.163C250.939 129.4 250.853 129.572 250.715 129.654L245.713 132.56C245.849 132.481 245.935 132.313 245.935 132.067V131.615C245.935 131.134 245.594 130.537 245.17 130.29Z" fill="#AEC0D0"/>
<path d="M228.534 120.686C228.11 120.442 227.766 120.637 227.759 121.125V121.573C227.759 122.054 228.105 122.658 228.524 122.904L245.165 132.508C245.587 132.749 245.935 132.557 245.935 132.066V131.615C245.935 131.134 245.594 130.537 245.17 130.29L228.534 120.686Z" fill="#AEC0D0"/>
<path d="M256.656 98.0693L224.54 79.5219C224.096 79.2711 223.698 79.2518 223.411 79.4158L221.117 80.7534C221.407 80.583 221.806 80.6034 222.242 80.8563L223.772 81.7374L222.203 82.6495C222.033 82.7492 221.924 82.9593 221.924 83.2605L221.866 103.51L220.59 104.254L233.168 111.565L230.874 112.901L245.577 121.388L245.73 124.593L232.858 117.162L230.56 118.498L230.455 120.424L245.954 129.366L248.248 128.037L248.149 125.991L247.873 120.058L255.88 124.625L255.873 125.508C255.873 126.003 255.695 126.356 255.412 126.522C256.177 126.078 256.938 125.637 257.704 125.187C257.988 125.02 258.167 124.672 258.167 124.174L258.171 123.293V122.17L258.178 120.994L258.233 100.805C258.233 99.8025 257.526 98.5709 256.656 98.0693Z" fill="#FF9000"/>
<path d="M230.565 118.498L230.878 112.901L245.579 121.388L245.86 127.325L245.954 129.366L230.458 120.424L230.565 118.498Z" fill="#F7AA45"/>
<path d="M254.153 100.452L222.447 82.1523C221.91 81.8372 221.469 82.0923 221.469 82.7107L221.405 104.074L255.064 123.506L255.128 102.145C255.128 101.525 254.694 100.769 254.153 100.452Z" fill="#FFCF07"/>
<path d="M223.196 84.8601V103.738L238.049 112.316L238.054 93.4371L223.196 84.8601Z" fill="white"/>
<path d="M223.781 89.8577L224.275 89.9745L223.781 89.564V89.0474L224.777 90.0099V90.533L223.781 90.3765V89.8577Z" fill="#FF9000"/>
<path d="M223.781 98.5238L224.275 98.6417L223.781 98.2301V97.7091L224.777 98.6824V99.2012L223.781 99.0425V98.5238Z" fill="#FF9000"/>
<path d="M223.781 101.417L224.275 101.539L223.781 101.122V100.603L224.777 101.572V102.093L223.781 101.932V101.417Z" fill="#FF9000"/>
<path d="M252.508 101.784L238.053 93.4371L238.048 112.316L252.508 120.663V101.784Z" fill="white"/>
<path d="M245.612 102.999L225.47 91.3715V89.9952L245.616 101.626L245.612 102.999Z" fill="#F7AA45"/>
<path d="M245.099 114.262L225.47 102.931V101.553L245.099 112.887V114.262Z" fill="#F7AA45"/>
<path d="M250.218 114.33L225.455 100.037V98.6555L250.218 112.953V114.33Z" fill="#F7AA45"/>
<path d="M223.196 84.86V86.9319L238.054 95.5078V93.437L223.196 84.86Z" fill="#F7AA45"/>
<path d="M252.508 101.783L238.053 93.4368V95.5076L252.508 103.855V101.783Z" fill="#FF9000"/>
<path d="M250.91 101.408L251.814 101.93V102.908L250.91 102.385V101.408Z" fill="white"/>
<path d="M249.011 100.314L249.913 100.833V101.809L249.011 101.29V100.314Z" fill="white"/>
<path d="M228.044 95.9889L230.06 96.3415V97.4026L229.067 97.0993L230.06 97.9975V99.0608L228.044 97.0446V95.9889Z" fill="#FF9000"/>
<path d="M231.785 96.0727L232.858 96.6901L231.342 101.049L230.271 100.433L231.785 96.0727Z" fill="#FF9000"/>
<path d="M234.005 98.8099C234.286 98.9729 234.847 99.2644 235.394 99.8336V100.542C235.394 100.542 235.073 100.323 234.588 100.045C234.226 99.8314 234.108 99.7532 234.108 100.564C234.108 101.321 234.205 101.396 234.588 101.617C235.088 101.901 235.435 102.052 235.435 102.052V102.761C235.031 102.86 234.456 102.425 234.005 102.173C233.474 101.866 233.062 101.238 233.062 99.945C233.062 98.6513 233.454 98.4927 234.005 98.8099Z" fill="#FF9000"/>
<path d="M236.938 102.965C237.233 103.14 237.233 103.091 237.233 102.403C237.233 101.683 237.24 101.572 236.938 101.396C236.616 101.212 236.639 101.352 236.634 102.064C236.634 102.713 236.661 102.811 236.938 102.965ZM236.938 100.499C237.933 101.082 238.277 101.691 238.277 103.005C238.277 104.228 237.961 104.455 236.938 103.863C235.932 103.283 235.597 102.638 235.597 101.454C235.597 100.11 235.942 99.9299 236.938 100.499Z" fill="#FF9000"/>
<path d="M239.855 104.583C240.023 104.674 240.153 104.718 240.205 104.65V103.33C240.153 103.228 239.992 103.113 239.855 103.032C239.706 102.949 239.618 102.986 239.618 103.685C239.618 104.365 239.701 104.493 239.855 104.583ZM239.5 101.966C239.747 102.108 240.021 102.33 240.214 102.557V100.845L241.256 101.451L241.26 106.329L240.365 105.813L240.205 105.424C239.996 105.502 239.822 105.535 239.5 105.356C238.866 104.981 238.575 104.398 238.575 103.145C238.575 101.923 238.728 101.518 239.5 101.966Z" fill="#FF9000"/>
<path d="M242.941 105.327C243.038 105.38 243.096 105.335 243.096 105.216C243.096 104.993 243.092 104.9 242.91 104.789C242.685 104.661 242.62 104.671 242.63 105.147L242.941 105.327ZM242.834 103.911C243.789 104.462 244.145 104.804 244.145 105.901C244.145 106.578 243.813 106.592 243.3 106.294L242.63 105.905C242.63 106.357 242.881 106.408 243.282 106.639C243.667 106.862 243.684 106.869 244.09 107.037V107.821C243.71 107.798 242.975 107.355 242.526 107.095C241.803 106.672 241.585 105.999 241.585 104.851C241.585 103.477 241.911 103.38 242.834 103.911Z" fill="#FF9000"/>
<path d="M244.409 106.284L245.406 106.531L244.409 105.692V104.63L246.43 106.604V107.665L244.409 107.338V106.284Z" fill="#FF9000"/>
<path d="M254.607 122.935L254.667 102.164C254.672 101.562 254.243 100.823 253.72 100.521L222.884 82.7149C222.356 82.4126 221.93 82.6592 221.93 83.2605L221.872 104.035L254.607 122.935ZM254.364 99.4016C255.238 99.8978 255.945 101.134 255.945 102.136L255.886 122.329L255.884 123.505L255.88 124.625L220.59 104.254L220.596 103.132L220.601 101.954L220.655 81.7652C220.658 80.7609 221.372 80.3514 222.246 80.8563L254.364 99.4016Z" fill="#D57800"/>
<path d="M255.88 124.625V125.508C255.873 126.51 255.159 126.914 254.288 126.415L222.168 107.872C221.296 107.367 220.586 106.137 220.59 105.131V104.254L255.88 124.625Z" fill="#F7AA45"/>
<path d="M217.202 126.72C216.874 126.356 216.301 126.322 215.936 126.659C215.572 126.988 215.539 127.556 215.872 127.924L219.165 131.572C219.496 131.937 220.069 131.966 220.432 131.633C220.801 131.3 220.828 130.736 220.495 130.371L217.202 126.72Z" fill="#EECEB1"/>
<path d="M216.189 124.234L219.711 123.817L222.852 124.88C223.144 125.005 224.625 125.527 224.78 126.408C224.878 126.994 225.082 130.364 223.925 130.218C223.157 130.127 216.966 128.464 216.966 128.464C216.537 128.394 215.251 128.664 214.989 128.466L213.206 127.141L216.189 124.234Z" fill="#EECEB1"/>
<path d="M213.884 121.718C216.426 122.135 218.149 124.523 217.736 127.05C217.325 129.576 214.925 131.291 212.382 130.868L203.653 128.362C201.11 127.95 199.384 125.56 199.799 123.03C200.212 120.505 202.611 118.796 205.15 119.209L213.884 121.718Z" fill="#1C2326"/>
<path d="M197.534 115.906C197.53 118.187 201.566 118.796 204.646 119.111L204.665 119.114C205.305 118.541 205.658 117.989 205.658 117.989L205.739 113.4L197.634 112.699L197.471 115.831L197.534 115.906Z" fill="#E4BA95"/>
<path d="M207.695 119.541C207.714 119.062 206.077 115.996 205.661 116.331C204.086 117.579 199.487 117.304 198.378 116.722C197.384 116.203 197.558 114.821 197.558 114.821C197.558 114.821 191.192 120.197 199.903 121.902C201.658 122.246 203.62 122.115 205.209 121.348C206.574 120.689 208.953 120.798 207.695 119.541Z" fill="white"/>
<path d="M192.836 165.035C198.859 168.394 206.849 168.513 212.61 164.341C213.931 163.386 215.056 162.195 216.03 160.861L216.625 136.116C215.702 123.284 209.762 119.704 207.395 118.678C207.395 118.678 204.857 121.43 199.56 120.261C194.161 119.083 196.603 115.802 196.603 115.802C189.554 115.899 189.127 125.088 188.917 128.343C188.524 134.481 188.138 147.56 188.268 157.803C188.859 160.262 190.294 163.623 192.836 165.035Z" fill="#232A2E"/>
<path d="M223.634 139.046C225.173 141.22 224.668 144.229 222.508 145.758C220.346 147.295 217.345 146.77 215.805 144.595L204.784 129.246C203.243 127.072 203.745 124.067 205.907 122.533C208.073 121.004 211.075 121.523 212.614 123.7L223.634 139.046Z" fill="#2D373A"/>
<path d="M249.198 142.924V142.772V142.924ZM251.463 144.074L250.209 143.352L251.222 142.763V142.761V142.504L251.988 142.06L251.994 141.148L251.867 141.22V141.077L250.879 141.649L250.657 141.519L249.373 142.268L249.37 142.529L249.076 142.696L246.814 141.393V141.545L246.803 141.538V141.398L246.677 141.467L246.673 142.377L250.511 144.589C248.866 145.312 246.828 145.397 245.69 144.744C245.166 144.433 244.91 144.019 244.91 143.569L244.907 144.478C244.907 144.93 245.159 145.345 245.685 145.65C246.977 146.394 249.418 146.184 251.144 145.188L251.337 145.067L251.449 144.992L251.458 144.99C252.275 144.431 252.706 143.782 252.706 143.194V142.287C252.706 142.87 252.279 143.521 251.463 144.074Z" fill="#AEC0D0"/>
<path d="M251.993 141.148L251.002 141.725L250.877 141.649L251.865 141.077L251.993 141.148Z" fill="#0C2F4B"/>
<path d="M251.228 141.854L249.941 142.597L249.714 142.471L249.589 142.398L249.371 142.268L250.655 141.519L250.877 141.649L251.002 141.725L251.228 141.854Z" fill="#0C2F4B"/>
<path d="M249.59 142.398L249.075 142.696L246.813 141.393C248.478 140.567 250.648 140.422 251.866 141.076L250.878 141.649L250.656 141.519L249.372 142.267L249.59 142.398Z" fill="#E8ECEF"/>
<path d="M251.994 141.148C253.13 141.854 252.884 143.113 251.462 144.074L249.197 142.773L249.715 142.471L249.942 142.597L251.228 141.854L251.003 141.725L251.994 141.148Z" fill="#E8ECEF"/>
<path d="M251.45 144.082L251.447 144.992L251.336 145.067L251.34 144.158L251.45 144.082Z" fill="#AEC0D0"/>
<path d="M251.45 144.082L251.336 144.158L246.676 141.467L246.802 141.398L249.075 142.696L249.589 142.398L249.715 142.471L249.197 142.773L251.462 144.074L251.45 144.082Z" fill="#0C2F4B"/>
<path d="M251.335 144.158L251.147 144.277C249.416 145.274 246.975 145.484 245.688 144.744C244.396 143.996 244.748 142.576 246.473 141.583L246.675 141.467L251.335 144.158Z" fill="#E8ECEF"/>
<path d="M242.503 142.003C242.018 142.119 241.541 141.821 241.421 141.346C241.307 140.858 241.604 140.376 242.083 140.261L246.86 139.11C247.343 138.99 247.828 139.288 247.948 139.771C248.064 140.251 247.769 140.737 247.285 140.852L242.503 142.003Z" fill="#EECEB1"/>
<path d="M241.032 140.911L245.135 140.159L248.435 140.455C248.749 140.515 250.313 140.678 250.667 141.496C250.905 142.038 251.886 145.274 250.725 145.402C249.957 145.488 243.551 145.314 243.551 145.314C243.12 145.35 241.93 145.911 241.627 145.783L239.584 144.904L241.032 140.911Z" fill="#EECEB1"/>
<path d="M239.274 138.378C241.937 138.563 243.943 140.854 243.76 143.497C243.58 146.141 241.273 148.138 238.615 147.95L219.758 146.768C217.103 146.58 215.091 144.288 215.275 141.645C215.46 139.001 217.764 137.007 220.42 137.193L239.274 138.378Z" fill="#2D373A"/>
<path d="M210.22 100.878C210.408 105.276 208.78 108.4 205.52 110.687C204.277 111.564 203.287 112.15 202.381 112.411C202.412 112.533 202.461 112.645 202.511 112.758C202.607 112.986 202.702 113.213 202.803 113.42C202.988 113.822 203.148 114.16 203.211 114.379L203.243 114.502L203.236 114.585L203.181 114.667L203.111 114.729H203.099C202.235 115.265 197.074 114.608 194.913 112.214C192.814 109.878 190.027 105.292 190.811 100.845C191.307 98.0353 193.978 94.9816 196.794 93.5442C198.697 92.5731 201.463 92.3523 203.565 92.6492V92.6589C204.162 92.7435 204.76 92.8764 205.318 93.0801C206.33 93.4488 207.258 93.9912 208.026 94.7447C208.803 95.4821 209.385 96.4339 209.739 97.5787C209.84 97.9056 209.924 98.2486 209.985 98.6087C210.004 98.7106 210.02 98.8124 210.035 98.9153V99.0193C210.078 99.5348 210.045 100.106 210.142 100.582C210.162 100.68 210.192 100.781 210.22 100.878Z" fill="#372F52"/>
<path d="M211.501 105.865C211.551 106 211.491 106.206 211.356 106.347C211.015 106.717 210.604 107.023 210.437 107.484C210.337 107.784 210.363 108.04 210.322 108.316C210.297 108.598 210.119 108.978 209.891 109.07C209.985 109.307 210.067 109.598 209.924 109.937C209.832 110.174 209.636 110.391 209.565 110.628C209.428 111.109 209.904 111.247 209.821 111.704C209.803 111.82 209.758 111.948 209.707 112.057L209.636 112.201C209.343 112.842 208.96 113.49 208.481 113.821C208.234 113.985 207.987 114.044 207.738 114.109C206.8 114.316 205.874 114.534 204.934 114.747C204.504 114.855 204.041 115.019 203.669 114.914C203.439 114.855 203.264 114.792 203.11 114.729L203.181 114.667L203.236 114.584L203.243 114.502L203.211 114.379C203.148 114.16 202.988 113.821 202.803 113.419C202.702 113.212 202.607 112.985 202.511 112.758C202.461 112.644 202.412 112.533 202.38 112.411L202.318 112.245L202.343 112.201C202.343 112.194 201.123 111.772 201.012 110.29C200.955 109.598 200.866 108.771 201.326 107.987C201.72 107.327 202.371 106.947 202.845 106.988C203.296 107.03 203.585 107.409 203.738 107.906L203.751 107.942C203.902 108.463 203.915 109.082 203.925 109.698C203.925 109.8 204.654 109.71 204.843 109.473C205.255 108.958 205.027 108.524 205.046 108.079C205.076 107.371 205.317 106.535 205.398 105.791C205.419 105.589 205.443 105.389 205.46 105.185C205.52 104.638 205.534 102.543 206.986 100.368C208.38 98.3104 209.602 97.6212 209.739 97.5784C209.839 97.9053 209.924 98.2483 209.985 98.6084C210.003 98.7103 210.02 98.8121 210.035 98.915V99.019C210.077 99.5345 210.045 100.106 210.142 100.582C210.162 100.679 210.192 100.781 210.22 100.878C210.38 101.382 210.595 101.848 210.458 102.494C210.387 102.864 210.213 103.266 210.18 103.616C210.142 104.169 210.478 104.432 210.754 104.711C211.075 105.01 211.325 105.409 211.501 105.865Z" fill="#EECEB1"/>
<path d="M267.81 203.811V204.444L302.648 224.785L302.644 224.151L267.81 203.811Z" fill="#D6E7F8"/>
<path d="M302.644 224.151L302.648 224.785L329.076 209.457L329.073 208.819L302.644 224.151Z" fill="#C7D5E4"/>
<path d="M267.81 203.811L302.644 224.151L329.074 208.819L294.239 188.48L267.81 203.811Z" fill="#DADBD9"/>
<path d="M250.796 204.747V205.38L285.631 225.722L285.626 225.088L250.796 204.747Z" fill="#D6E7F8"/>
<path d="M285.624 225.088L285.629 225.722L312.057 210.394V209.755L285.624 225.088Z" fill="#C7D5E4"/>
<path d="M250.796 204.747L285.626 225.088L312.059 209.755L277.225 189.415L250.796 204.747Z" fill="#DADBD9"/>
<path d="M267.81 201.612L267.814 202.251L302.652 222.587L302.644 221.953L267.81 201.612Z" fill="#D6E7F8"/>
<path d="M302.644 221.953L302.652 222.587L329.076 207.259V206.624L302.644 221.953Z" fill="#C7D5E4"/>
<path d="M267.81 201.612L302.644 221.952L329.076 206.624L294.239 186.282L267.81 201.612Z" fill="#F4F5F2"/>
<path d="M256.096 203.272L256.104 205.176L290.939 225.518L290.934 223.612L256.096 203.272Z" fill="#ED9E00"/>
<path d="M290.934 223.612L290.938 225.518L317.362 210.181L317.358 208.28L290.934 223.612Z" fill="#D69200"/>
<path d="M256.096 203.272L290.934 223.612L317.359 208.28L282.523 187.941L256.096 203.272Z" fill="#9C6A00"/>
<path d="M250.796 204.747V205.38L285.631 225.722L285.626 225.088L250.796 204.747Z" fill="#D6E7F8"/>
<path d="M285.624 225.088L285.629 225.722L312.057 210.394V209.755L285.624 225.088Z" fill="#C7D5E4"/>
<path d="M250.796 204.747L285.626 225.088L312.059 209.755L277.225 189.415L250.796 204.747Z" fill="#DADBD9"/>
<path d="M254.918 204.276L254.923 204.908L289.758 225.25L289.753 224.613L254.918 204.276Z" fill="#D6E7F8"/>
<path d="M289.754 224.613L289.758 225.25L316.182 209.919V209.282L289.754 224.613Z" fill="#C7D5E4"/>
<path d="M254.918 204.275L289.753 224.613L316.181 209.282L281.347 188.94L254.918 204.275Z" fill="#FDFDFD"/>
<path d="M250.757 199.945L250.762 200.579L285.596 220.918L285.592 220.282L250.757 199.945Z" fill="#D6E7F8"/>
<path d="M285.594 220.282L285.598 220.918L312.026 205.587V204.957L285.594 220.282Z" fill="#C7D5E4"/>
<path d="M250.757 199.945L285.592 220.281L312.024 204.957L277.186 184.611L250.757 199.945Z" fill="#F4F5F2"/>
<path d="M256.096 199.673L256.104 201.579L290.939 221.917L290.934 220.014L256.096 199.673Z" fill="#ED9E00"/>
<path d="M290.934 220.014L290.938 221.917L315.936 207.416L315.954 209.266L317.362 210.182V206.589L317.358 204.685L290.934 220.014Z" fill="#D69200"/>
<path d="M256.096 199.673L290.934 220.013L317.359 204.685L282.523 184.343L256.096 199.673Z" fill="#FFB923"/>
<path d="M281.103 193.257L281.935 192.77C281.785 192.484 281.633 192.195 281.483 191.905C281.28 191.518 281.099 191.125 280.93 190.732L280.1 191.216C280.267 191.612 280.448 192.005 280.649 192.392C280.797 192.681 280.949 192.969 281.103 193.257Z" fill="#0795C2"/>
<path d="M276.614 182.391L275.78 182.878L275.756 182.893C275.601 183.035 275.557 183.658 275.842 184.925C276.514 187.906 277.878 189.937 279.999 191.169L280.099 191.216L280.929 190.732L280.83 190.688C278.712 189.451 277.345 187.417 276.673 184.441C276.384 183.176 276.432 182.549 276.587 182.409L276.614 182.391Z" fill="#FF9000"/>
<path d="M275.67 180.746L274.838 181.235C275.362 180.927 276.187 181.237 276.952 181.68L277.785 181.193C277.022 180.751 276.196 180.444 275.67 180.746Z" fill="#F7AA45"/>
<path d="M279.025 184.351L279.857 183.866C279.753 183.276 279.719 182.718 279.633 182.133L278.8 182.622C278.886 183.205 278.921 183.758 279.025 184.351Z" fill="#09B7ED"/>
<path d="M278.801 182.622L279.634 182.133C279.417 181.978 278.032 181.337 277.786 181.193L276.952 181.68C277.2 181.823 278.582 182.464 278.801 182.622Z" fill="#F7AA45"/>
<path d="M276.952 181.68C275.406 180.781 273.6 180.436 274.557 184.638C275.543 188.984 277.79 191.433 279.999 192.71C280.378 192.931 280.744 193.108 281.102 193.257C280.948 192.969 280.796 192.681 280.649 192.392C280.447 192.005 280.266 191.612 280.099 191.216L279.999 191.169C277.878 189.937 276.514 187.906 275.842 184.925C275.557 183.658 275.601 183.035 275.756 182.893C275.901 182.762 276.342 182.867 276.95 183.22C277.301 183.426 278.767 184.145 279.026 184.351C278.922 183.758 278.886 183.205 278.801 182.622C278.582 182.464 277.199 181.823 276.952 181.68Z" fill="#FF9000"/>
<path d="M278.449 180.642L278.478 193.733C278.478 194.761 279.15 195.789 280.494 196.573C281.602 197.222 282.997 197.603 284.445 197.718L284.416 184.631C282.968 184.511 281.576 184.134 280.465 183.481C279.121 182.699 278.449 181.672 278.449 180.642Z" fill="#FF9000"/>
<path d="M284.417 184.632L284.446 197.718C286.526 197.886 288.711 197.501 290.319 196.573C291.69 195.779 292.37 194.734 292.37 193.694L292.339 180.605C292.343 181.646 291.658 182.69 290.29 183.481C288.682 184.412 286.493 184.797 284.417 184.632Z" fill="#FF9000"/>
<path d="M280.493 177.766C277.772 179.344 277.758 181.904 280.464 183.481C283.164 185.064 287.564 185.064 290.288 183.481C293.009 181.904 293.023 179.344 290.317 177.766C287.615 176.187 283.217 176.187 280.493 177.766Z" fill="#F7AA45"/>
<path d="M281.296 178.233C279.017 179.552 279.003 181.695 281.27 183.017C283.532 184.337 287.21 184.337 289.486 183.017C291.766 181.695 291.778 179.552 289.517 178.233C287.255 176.912 283.571 176.912 281.296 178.233Z" fill="#F1F2F2"/>
<path d="M289.485 183.017C287.21 184.337 283.531 184.337 281.27 183.017C280.402 182.515 279.878 181.888 279.676 181.237C279.878 180.578 280.411 179.944 281.295 179.435C283.571 178.108 287.255 178.108 289.516 179.435C290.376 179.937 290.903 180.557 291.106 181.208C290.903 181.872 290.365 182.508 289.485 183.017Z" fill="#4A2400"/>
<path d="M242.937 216.329L242.94 216.921L270.092 232.664L270.089 232.075L242.937 216.329Z" fill="#F7AA45"/>
<path d="M270.087 232.075L270.09 232.664L274.47 230.108L274.465 229.517L270.087 232.075Z" fill="#952300"/>
<path d="M242.937 216.33L270.089 232.075L274.467 229.518L247.313 213.772L242.937 216.33Z" fill="#FF9000"/>
<path d="M274.102 229.234L272.612 230.112C272.456 230.205 272.229 230.22 272.103 230.148C271.976 230.075 272 229.943 272.156 229.851L273.646 228.971L274.102 229.234Z" fill="#F5F6F7"/>
<path d="M272.282 228.185L270.784 229.069C270.628 229.161 270.401 229.176 270.275 229.103C270.148 229.031 270.172 228.899 270.327 228.808L271.827 227.924L272.282 228.185Z" fill="#F5F6F7"/>
<path d="M270.461 227.137L268.954 228.026C268.8 228.117 268.571 228.134 268.445 228.061C268.318 227.988 268.341 227.856 268.499 227.765L270.006 226.876L270.461 227.137Z" fill="#F5F6F7"/>
<path d="M268.64 226.089L267.126 226.982C266.97 227.074 266.742 227.09 266.615 227.018C266.489 226.946 266.513 226.813 266.669 226.721L268.186 225.826L268.64 226.089Z" fill="#F5F6F7"/>
<path d="M266.821 225.041L265.296 225.939C265.142 226.031 264.914 226.047 264.787 225.974C264.661 225.904 264.684 225.771 264.841 225.678L266.365 224.778L266.821 225.041Z" fill="#F5F6F7"/>
<path d="M265 223.991L263.469 224.897C263.311 224.989 263.085 225.003 262.96 224.932C262.832 224.859 262.855 224.728 263.01 224.635L264.546 223.729L265 223.991Z" fill="#F5F6F7"/>
<path d="M263.182 222.943L261.64 223.854C261.483 223.944 261.255 223.96 261.13 223.888C261.002 223.817 261.027 223.684 261.181 223.593L262.728 222.681L263.182 222.943Z" fill="#F5F6F7"/>
<path d="M261.361 221.895L259.81 222.81C259.656 222.901 259.427 222.917 259.301 222.845C259.174 222.773 259.199 222.641 259.353 222.55L260.906 221.632L261.361 221.895Z" fill="#F5F6F7"/>
<path d="M259.541 220.846L257.982 221.766C257.826 221.857 257.598 221.874 257.472 221.802C257.345 221.731 257.37 221.597 257.524 221.505L259.087 220.584L259.541 220.846Z" fill="#F5F6F7"/>
<path d="M257.722 219.798L256.152 220.723C255.997 220.815 255.768 220.831 255.643 220.76C255.515 220.688 255.539 220.555 255.696 220.463L257.265 219.536L257.722 219.798Z" fill="#F5F6F7"/>
<path d="M255.902 218.75L254.324 219.68C254.17 219.771 253.941 219.787 253.814 219.716C253.689 219.643 253.711 219.511 253.868 219.42L255.448 218.486L255.902 218.75Z" fill="#F5F6F7"/>
<path d="M254.082 217.7L252.496 218.638C252.339 218.728 252.112 218.744 251.985 218.674C251.86 218.601 251.882 218.468 252.037 218.378L253.627 217.439L254.082 217.7Z" fill="#F5F6F7"/>
<path d="M252.259 216.651L250.665 217.595C250.509 217.686 250.28 217.702 250.154 217.63C250.028 217.557 250.052 217.425 250.206 217.333L251.805 216.39L252.259 216.651Z" fill="#F5F6F7"/>
<path d="M250.441 215.605L248.834 216.551C248.68 216.643 248.452 216.659 248.324 216.587C248.198 216.515 248.222 216.382 248.378 216.29L249.985 215.341L250.441 215.605Z" fill="#F5F6F7"/>
<path d="M248.622 214.556L247.006 215.508C246.851 215.6 246.623 215.616 246.497 215.544C246.371 215.472 246.395 215.339 246.549 215.247L248.165 214.293L248.622 214.556Z" fill="#F5F6F7"/>
<path d="M230.59 232.405L230.594 233.789L232.651 234.985L232.647 233.601L230.59 232.405Z" fill="#8E8E8E"/>
<path d="M234.688 234.787L234.693 236.171L236.755 237.369L236.751 235.985L234.688 234.787Z" fill="#8E8E8E"/>
<path d="M239.001 237.293L239.005 238.677L241.067 239.875L241.063 238.491L239.001 237.293Z" fill="#8E8E8E"/>
<path d="M243.104 239.677L243.108 241.061L245.165 242.256L245.16 240.873L243.104 239.677Z" fill="#8E8E8E"/>
<path d="M204.132 236.915L204.136 238.298L211.292 242.457L211.289 241.074L204.132 236.915Z" fill="#8E8E8E"/>
<path d="M215.237 241.271L215.241 242.655L230.595 233.789L230.591 232.405L215.237 241.271Z" fill="#8E8E8E"/>
<path d="M215.237 241.27L215.241 242.654L217.297 243.849L217.294 242.466L215.237 241.27Z" fill="#6D6D70"/>
<path d="M217.294 242.466L217.297 243.849L232.652 234.985L232.647 233.6L217.294 242.466Z" fill="#6E6E70"/>
<path d="M215.237 241.27L217.294 242.465L232.647 233.6L230.591 232.405L215.237 241.27Z" fill="#F7AA45"/>
<path d="M247.202 242.058L247.206 243.443L249.269 244.641L249.264 243.257L247.202 242.058Z" fill="#8E8E8E"/>
<path d="M204.093 245.228L204.096 246.613L211.294 242.457L211.29 241.073L204.093 245.228Z" fill="#6E6E70"/>
<path d="M211.976 247.901L211.98 249.285L234.694 236.17L234.689 234.787L211.976 247.901Z" fill="#8E8E8E"/>
<path d="M214.038 249.099L214.042 250.483L236.756 237.369L236.752 235.985L214.038 249.099Z" fill="#6E6E70"/>
<path d="M211.976 247.901L211.98 249.285L214.042 250.483L214.038 249.099L211.976 247.901Z" fill="#6D6D70"/>
<path d="M216.287 250.407L216.291 251.791L239.005 238.677L239.001 237.293L216.287 250.407Z" fill="#8E8E8E"/>
<path d="M218.35 251.605L218.354 252.989L241.068 239.875L241.063 238.491L218.35 251.605Z" fill="#6E6E70"/>
<path d="M216.287 250.407L216.291 251.791L218.354 252.989L218.349 251.605L216.287 250.407Z" fill="#6D6D70"/>
<path d="M216.287 250.407L218.349 251.606L241.063 238.492L239.001 237.293L216.287 250.407Z" fill="#9AB4CB"/>
<path d="M220.392 252.791L220.395 254.176L243.11 241.062L243.105 239.678L220.392 252.791Z" fill="#8E8E8E"/>
<path d="M222.449 253.987L222.452 255.371L245.167 242.257L245.163 240.873L222.449 253.987Z" fill="#6E6E70"/>
<path d="M220.392 252.791L220.396 254.176L222.452 255.371L222.449 253.987L220.392 252.791Z" fill="#6D6D70"/>
<path d="M224.487 255.173L224.491 256.557L247.205 243.444L247.201 242.059L224.487 255.173Z" fill="#8E8E8E"/>
<path d="M224.487 255.173L224.491 256.556L226.553 257.755L226.55 256.371L224.487 255.173Z" fill="#6D6D70"/>
<path d="M226.551 256.371L226.554 257.755L249.269 244.642L249.265 243.257L226.551 256.371Z" fill="#6E6E70"/>
<path d="M230.591 232.405L215.238 241.27L217.295 242.465L232.648 233.6L230.591 232.405ZM222.448 253.987L245.162 240.873L243.105 239.677L220.391 252.791L222.448 253.987ZM214.037 249.099L236.751 235.985L234.689 234.787L211.975 247.901L214.037 249.099ZM226.551 256.371L249.265 243.256L247.203 242.058L224.489 255.172L226.551 256.371ZM218.351 251.605L241.064 238.491L239.002 237.293L216.288 250.407L218.351 251.605ZM204.134 236.914L222.951 226.05L257.428 246.086L231.413 261.105L204.093 245.228L211.29 241.073L204.134 236.914Z" fill="#FEFEFE"/>
<path d="M211.976 247.901L214.038 249.099L236.752 235.985L234.689 234.787L211.976 247.901Z" fill="#9AB4CB"/>
<path d="M220.392 252.791L222.449 253.987L245.162 240.873L243.105 239.678L220.392 252.791Z" fill="#9AB4CB"/>
<path d="M224.487 255.173L226.55 256.371L249.263 243.257L247.201 242.058L224.487 255.173Z" fill="#9AB4CB"/>
<path d="M204.093 245.228L204.096 246.613L231.418 262.489L231.413 261.105L204.093 245.228Z" fill="#AEC0D0"/>
<path d="M231.413 261.105L231.417 262.489L257.431 247.47L257.428 246.087L231.413 261.105Z" fill="#C9D6E5"/>
<path d="M230.59 230.245L230.594 231.629L232.651 232.824L232.647 231.44L230.59 230.245Z" fill="#8E8E8E"/>
<path d="M234.688 232.627L234.693 234.011L236.755 235.209L236.751 233.825L234.688 232.627Z" fill="#8E8E8E"/>
<path d="M239.001 235.133L239.005 236.517L241.067 237.715L241.063 236.331L239.001 235.133Z" fill="#8E8E8E"/>
<path d="M243.104 237.517L243.108 238.902L245.165 240.097L245.16 238.713L243.104 237.517Z" fill="#8E8E8E"/>
<path d="M204.132 234.755L204.136 236.138L211.292 240.296L211.289 238.912L204.132 234.755Z" fill="#8E8E8E"/>
<path d="M215.237 239.11L215.241 240.494L230.595 231.629L230.591 230.246L215.237 239.11Z" fill="#8E8E8E"/>
<path d="M215.237 239.11L215.241 240.494L217.297 241.69L217.294 240.305L215.237 239.11Z" fill="#6D6D70"/>
<path d="M217.294 240.305L217.297 241.69L232.652 232.824L232.647 231.441L217.294 240.305Z" fill="#6E6E70"/>
<path d="M215.237 239.11L217.294 240.305L232.647 231.441L230.591 230.246L215.237 239.11Z" fill="#F7AA45"/>
<path d="M247.202 239.899L247.206 241.283L249.269 242.481L249.264 241.097L247.202 239.899Z" fill="#8E8E8E"/>
<path d="M204.093 243.068L204.096 244.452L211.294 240.296L211.29 238.913L204.093 243.068Z" fill="#6E6E70"/>
<path d="M211.976 245.74L211.98 247.124L234.694 234.011L234.689 232.627L211.976 245.74Z" fill="#8E8E8E"/>
<path d="M214.038 246.938L214.042 248.323L236.756 235.209L236.752 233.825L214.038 246.938Z" fill="#6E6E70"/>
<path d="M211.976 245.74L211.98 247.124L214.042 248.323L214.038 246.938L211.976 245.74Z" fill="#6D6D70"/>
<path d="M216.287 248.248L216.291 249.631L239.005 236.517L239.001 235.133L216.287 248.248Z" fill="#8E8E8E"/>
<path d="M218.35 249.446L218.354 250.829L241.068 237.715L241.063 236.331L218.35 249.446Z" fill="#6E6E70"/>
<path d="M216.287 248.247L216.291 249.631L218.354 250.829L218.349 249.446L216.287 248.247Z" fill="#6D6D70"/>
<path d="M216.287 248.247L218.349 249.446L241.063 236.331L239.001 235.133L216.287 248.247Z" fill="#9AB4CB"/>
<path d="M220.392 250.631L220.395 252.015L243.11 238.902L243.105 237.517L220.392 250.631Z" fill="#8E8E8E"/>
<path d="M222.449 251.826L222.452 253.21L245.167 240.097L245.163 238.713L222.449 251.826Z" fill="#6E6E70"/>
<path d="M220.392 250.631L220.396 252.015L222.452 253.21L222.449 251.826L220.392 250.631Z" fill="#6D6D70"/>
<path d="M224.487 253.012L224.491 254.396L247.205 241.282L247.201 239.898L224.487 253.012Z" fill="#8E8E8E"/>
<path d="M224.487 253.013L224.491 254.397L226.553 255.595L226.55 254.211L224.487 253.013Z" fill="#6D6D70"/>
<path d="M226.551 254.211L226.554 255.595L249.269 242.481L249.265 241.097L226.551 254.211Z" fill="#6E6E70"/>
<path d="M230.591 230.245L215.238 239.11L217.295 240.305L232.648 231.441L230.591 230.245ZM222.448 251.826L245.162 238.713L243.105 237.517L220.391 250.631L222.448 251.826ZM214.037 246.939L236.751 233.826L234.689 232.627L211.975 245.74L214.037 246.939ZM226.551 254.211L249.265 241.097L247.203 239.899L224.489 253.013L226.551 254.211ZM218.351 249.446L241.064 236.332L239.002 235.133L216.288 248.247L218.351 249.446ZM204.134 234.755L222.951 223.89L257.428 243.926L231.413 258.946L204.093 243.068L211.29 238.913L204.134 234.755Z" fill="#FEFEFE"/>
<path d="M211.976 245.74L214.038 246.939L236.752 233.826L234.689 232.627L211.976 245.74Z" fill="#9AB4CB"/>
<path d="M220.392 250.631L222.449 251.826L245.162 238.713L243.105 237.517L220.392 250.631Z" fill="#9AB4CB"/>
<path d="M224.487 253.013L226.55 254.211L249.263 241.097L247.201 239.899L224.487 253.013Z" fill="#9AB4CB"/>
<path d="M204.093 243.068L204.096 244.452L231.418 260.329L231.413 258.945L204.093 243.068Z" fill="#AEC0D0"/>
<path d="M231.413 258.945L231.417 260.329L257.431 245.309L257.428 243.925L231.413 258.945Z" fill="#C9D6E5"/>
<path d="M230.59 228.086L230.594 229.469L232.651 230.665L232.647 229.281L230.59 228.086Z" fill="#8E8E8E"/>
<path d="M234.688 230.467L234.693 231.85L236.755 233.049L236.751 231.665L234.688 230.467Z" fill="#8E8E8E"/>
<path d="M239.001 232.974L239.005 234.357L241.067 235.556L241.063 234.172L239.001 232.974Z" fill="#8E8E8E"/>
<path d="M243.104 235.357L243.108 236.741L245.165 237.937L245.16 236.552L243.104 235.357Z" fill="#8E8E8E"/>
<path d="M204.132 232.594L204.136 233.978L211.292 238.136L211.289 236.753L204.132 232.594Z" fill="#8E8E8E"/>
<path d="M215.237 236.95L215.241 238.334L230.595 229.47L230.591 228.086L215.237 236.95Z" fill="#8E8E8E"/>
<path d="M215.237 236.95L215.241 238.334L217.297 239.529L217.294 238.145L215.237 236.95Z" fill="#6D6D70"/>
<path d="M217.294 238.145L217.297 239.529L232.652 230.665L232.647 229.281L217.294 238.145Z" fill="#6E6E70"/>
<path d="M215.237 236.95L217.294 238.145L232.647 229.281L230.591 228.086L215.237 236.95Z" fill="#F7AA45"/>
<path d="M247.202 237.739L247.206 239.122L249.269 240.321L249.264 238.937L247.202 237.739Z" fill="#8E8E8E"/>
<path d="M204.093 240.908L204.096 242.292L211.294 238.137L211.29 236.753L204.093 240.908Z" fill="#6E6E70"/>
<path d="M211.976 243.58L211.98 244.964L234.694 231.85L234.689 230.466L211.976 243.58Z" fill="#8E8E8E"/>
<path d="M214.038 244.779L214.042 246.162L236.756 233.048L236.752 231.664L214.038 244.779Z" fill="#6E6E70"/>
<path d="M211.976 243.58L211.98 244.964L214.042 246.162L214.038 244.779L211.976 243.58Z" fill="#6D6D70"/>
<path d="M216.287 246.087L216.291 247.471L239.005 234.357L239.001 232.973L216.287 246.087Z" fill="#8E8E8E"/>
<path d="M218.35 247.285L218.354 248.67L241.068 235.555L241.063 234.172L218.35 247.285Z" fill="#6E6E70"/>
<path d="M216.287 246.086L216.291 247.471L218.354 248.67L218.349 247.285L216.287 246.086Z" fill="#6D6D70"/>
<path d="M216.287 246.086L218.349 247.285L241.063 234.172L239.001 232.973L216.287 246.086Z" fill="#9AB4CB"/>
<path d="M220.392 248.471L220.395 249.855L243.11 236.741L243.105 235.357L220.392 248.471Z" fill="#8E8E8E"/>
<path d="M222.449 249.667L222.452 251.05L245.167 237.936L245.163 236.552L222.449 249.667Z" fill="#6E6E70"/>
<path d="M220.392 248.471L220.396 249.855L222.452 251.05L222.449 249.667L220.392 248.471Z" fill="#6D6D70"/>
<path d="M224.487 250.853L224.491 252.237L247.205 239.123L247.201 237.739L224.487 250.853Z" fill="#8E8E8E"/>
<path d="M224.487 250.852L224.491 252.237L226.553 253.435L226.55 252.052L224.487 250.852Z" fill="#6D6D70"/>
<path d="M226.551 252.052L226.554 253.435L249.269 240.321L249.265 238.937L226.551 252.052Z" fill="#6E6E70"/>
<path d="M230.591 228.086L215.238 236.95L217.295 238.145L232.648 229.281L230.591 228.086ZM222.448 249.666L245.162 236.552L243.105 235.357L220.391 248.471L222.448 249.666ZM214.037 244.779L236.751 231.665L234.689 230.466L211.975 243.58L214.037 244.779ZM226.551 252.051L249.265 238.937L247.203 237.739L224.489 250.853L226.551 252.051ZM218.351 247.285L241.064 234.172L239.002 232.973L216.288 246.086L218.351 247.285ZM204.134 232.594L222.951 221.729L257.428 241.766L231.413 256.786L204.093 240.908L211.29 236.753L204.134 232.594Z" fill="#FEFEFE"/>
<path d="M211.976 243.581L214.038 244.779L236.752 231.665L234.689 230.467L211.976 243.581Z" fill="#9AB4CB"/>
<path d="M220.392 248.471L222.449 249.667L245.162 236.552L243.105 235.357L220.392 248.471Z" fill="#9AB4CB"/>
<path d="M224.487 250.852L226.55 252.051L249.263 238.937L247.201 237.739L224.487 250.852Z" fill="#9AB4CB"/>
<path d="M204.093 240.908L204.096 242.292L231.418 258.169L231.413 256.786L204.093 240.908Z" fill="#AEC0D0"/>
<path d="M231.413 256.786L231.417 258.169L257.431 243.149L257.428 241.766L231.413 256.786Z" fill="#C9D6E5"/>
<path d="M230.59 225.925L230.594 227.31L232.651 228.505L232.647 227.121L230.59 225.925Z" fill="#8E8E8E"/>
<path d="M234.688 228.307L234.693 229.691L236.755 230.889L236.751 229.505L234.688 228.307Z" fill="#8E8E8E"/>
<path d="M239.001 230.813L239.005 232.196L241.067 233.396L241.063 232.011L239.001 230.813Z" fill="#8E8E8E"/>
<path d="M243.104 233.197L243.108 234.581L245.165 235.776L245.16 234.393L243.104 233.197Z" fill="#8E8E8E"/>
<path d="M204.132 230.434L204.136 231.818L211.292 235.977L211.289 234.593L204.132 230.434Z" fill="#8E8E8E"/>
<path d="M215.237 234.79L215.241 236.174L230.595 227.31L230.591 225.925L215.237 234.79Z" fill="#8E8E8E"/>
<path d="M215.237 234.79L215.241 236.174L217.297 237.369L217.294 235.985L215.237 234.79Z" fill="#6D6D70"/>
<path d="M217.294 235.985L217.297 237.369L232.652 228.505L232.647 227.121L217.294 235.985Z" fill="#6E6E70"/>
<path d="M215.237 234.79L217.294 235.985L232.647 227.121L230.591 225.925L215.237 234.79Z" fill="#AEC0D0"/>
<path d="M247.202 235.578L247.206 236.963L249.269 238.161L249.264 236.778L247.202 235.578Z" fill="#8E8E8E"/>
<path d="M204.134 230.434L204.093 238.749L211.29 234.593L204.134 230.434Z" fill="#C9D6E5"/>
<path d="M204.093 238.748L204.096 240.132L211.294 235.976L211.29 234.593L204.093 238.748Z" fill="#6E6E70"/>
<path d="M211.976 241.42L211.98 242.804L234.694 229.69L234.689 228.306L211.976 241.42Z" fill="#8E8E8E"/>
<path d="M214.038 242.619L214.042 244.003L236.756 230.889L236.752 229.505L214.038 242.619Z" fill="#6E6E70"/>
<path d="M211.976 241.421L211.98 242.805L214.042 244.003L214.038 242.619L211.976 241.421Z" fill="#6D6D70"/>
<path d="M216.287 243.927L216.291 245.311L239.005 232.197L239.001 230.813L216.287 243.927Z" fill="#8E8E8E"/>
<path d="M218.35 245.125L218.354 246.509L241.068 233.396L241.063 232.011L218.35 245.125Z" fill="#6E6E70"/>
<path d="M216.287 243.927L216.291 245.311L218.354 246.509L218.349 245.125L216.287 243.927Z" fill="#6D6D70"/>
<path d="M216.287 243.927L218.349 245.125L241.063 232.011L239.001 230.813L216.287 243.927Z" fill="#AEC0D0"/>
<path d="M220.392 246.312L220.395 247.695L243.11 234.581L243.105 233.197L220.392 246.312Z" fill="#8E8E8E"/>
<path d="M222.449 247.507L222.452 248.89L245.167 235.776L245.163 234.392L222.449 247.507Z" fill="#6E6E70"/>
<path d="M220.392 246.311L220.396 247.695L222.452 248.89L222.449 247.507L220.392 246.311Z" fill="#6D6D70"/>
<path d="M224.487 248.692L224.491 250.076L247.205 236.963L247.201 235.578L224.487 248.692Z" fill="#8E8E8E"/>
<path d="M224.487 248.692L224.491 250.076L226.553 251.274L226.55 249.89L224.487 248.692Z" fill="#6D6D70"/>
<path d="M226.551 249.89L226.554 251.274L249.269 238.161L249.265 236.777L226.551 249.89Z" fill="#6E6E70"/>
<path d="M230.591 225.925L215.238 234.79L217.295 235.985L232.648 227.121L230.591 225.925ZM222.448 247.507L245.162 234.393L243.105 233.197L220.391 246.312L222.448 247.507ZM214.037 242.619L236.751 229.505L234.689 228.307L211.975 241.421L214.037 242.619ZM226.551 249.891L249.265 236.777L247.203 235.578L224.489 248.692L226.551 249.891ZM218.351 245.125L241.064 232.011L239.002 230.813L216.288 243.927L218.351 245.125ZM204.134 230.434L222.951 219.57L257.428 239.606L231.413 254.625L204.093 238.749L211.29 234.593L204.134 230.434Z" fill="#FEFEFE"/>
<path d="M211.976 241.421L214.038 242.619L236.752 229.505L234.689 228.306L211.976 241.421Z" fill="#AEC0D0"/>
<path d="M220.392 246.312L222.449 247.507L245.162 234.393L243.105 233.198L220.392 246.312Z" fill="#AEC0D0"/>
<path d="M224.487 248.692L226.55 249.891L249.263 236.778L247.201 235.578L224.487 248.692Z" fill="#AEC0D0"/>
<path d="M204.093 238.749L204.096 240.132L231.418 256.009L231.413 254.625L204.093 238.749Z" fill="#AEC0D0"/>
<path d="M231.413 254.625L231.417 256.009L257.431 240.99L257.428 239.606L231.413 254.625Z" fill="#C9D6E5"/>
<path d="M225.51 228.307C225.595 228.415 225.744 228.434 225.915 228.337C226.184 228.188 226.405 227.815 226.408 227.504C226.411 227.3 226.319 227.173 226.181 227.153C225.583 227.062 224.985 226.972 224.387 226.882C224.761 227.357 225.136 227.833 225.51 228.307Z" fill="#FF9000"/>
<path d="M224.387 226.882C224.761 227.357 225.136 227.833 225.51 228.308C225.462 228.247 225.435 228.158 225.436 228.046L224.387 226.882Z" fill="#00557F"/>
<path d="M226.181 227.153C225.583 227.062 224.985 226.972 224.387 226.882L225.436 228.046C225.44 227.734 225.661 227.361 225.929 227.212L226.181 227.153Z" fill="#FF9000"/>
<path d="M225.438 228.046C225.434 228.357 225.649 228.488 225.917 228.338C226.186 228.189 226.406 227.816 226.41 227.504C226.414 227.193 226.2 227.062 225.931 227.212C225.663 227.361 225.442 227.734 225.438 228.046Z" fill="#FF9000"/>
<path d="M225.438 228.046C225.434 228.357 225.649 228.488 225.917 228.338C226.186 228.189 226.406 227.816 226.41 227.504C226.414 227.193 226.2 227.062 225.931 227.212C225.663 227.361 225.442 227.734 225.438 228.046Z" fill="#FFC900"/>
<path d="M227.194 230.445C227.405 230.714 227.779 230.762 228.209 230.523C228.881 230.148 229.433 229.215 229.442 228.435C229.449 227.925 229.219 227.609 228.872 227.557C227.975 227.423 227.079 227.287 226.182 227.153C226.32 227.174 226.412 227.3 226.409 227.504C226.406 227.816 226.185 228.189 225.916 228.338C225.744 228.434 225.595 228.415 225.511 228.308C226.071 229.021 226.632 229.733 227.194 230.445Z" fill="#FFC900"/>
<path d="M225.511 228.308C226.072 229.02 226.633 229.733 227.194 230.445C227.074 230.294 227.007 230.072 227.01 229.791L225.438 228.046C225.436 228.157 225.463 228.246 225.511 228.308Z" fill="#EDCE8D"/>
<path d="M228.873 227.556C227.976 227.422 227.08 227.287 226.182 227.153L225.931 227.212C225.663 227.361 225.442 227.734 225.438 228.046L227.01 229.791C227.02 229.012 227.573 228.078 228.244 227.703C228.475 227.574 228.691 227.528 228.873 227.556Z" fill="#EDCE8D"/>
<path d="M227.01 229.791C227.001 230.569 227.537 230.897 228.209 230.523C228.881 230.148 229.433 229.215 229.443 228.435C229.453 227.657 228.916 227.329 228.244 227.703C227.573 228.078 227.02 229.012 227.01 229.791Z" fill="#FFC900"/>
<path d="M227.01 229.791C227.001 230.569 227.537 230.897 228.209 230.523C228.881 230.148 229.433 229.215 229.443 228.435C229.453 227.657 228.916 227.329 228.244 227.703C227.573 228.078 227.02 229.012 227.01 229.791Z" fill="#FF9000"/>
<path d="M244.953 240.817C245.17 240.943 245.467 240.928 245.797 240.744C246.469 240.37 247.021 239.436 247.031 238.656C247.036 238.261 246.9 237.982 246.676 237.852L229.088 227.63C229.311 227.76 229.447 228.04 229.442 228.435C229.433 229.214 228.881 230.148 228.209 230.523C227.879 230.706 227.581 230.721 227.365 230.595C232.641 233.662 239.677 237.751 244.953 240.817Z" fill="#FF9000"/>
<path d="M227.366 230.595L244.954 240.817C244.731 240.687 244.594 240.408 244.599 240.012L227.01 229.791C227.006 230.186 227.142 230.465 227.366 230.595Z" fill="#FF9000"/>
<path d="M246.676 237.853L229.088 227.63C228.872 227.505 228.574 227.52 228.243 227.703C227.572 228.078 227.019 229.012 227.01 229.791L244.599 240.012C244.609 239.234 245.161 238.3 245.833 237.924C246.163 237.741 246.461 237.726 246.676 237.853Z" fill="#FF9000"/>
<path d="M244.598 240.012C244.588 240.79 245.125 241.118 245.796 240.744C246.468 240.37 247.02 239.436 247.03 238.656C247.039 237.878 246.502 237.55 245.831 237.924C245.159 238.299 244.607 239.234 244.598 240.012Z" fill="#FF9000"/>
<path d="M244.598 240.012C244.588 240.79 245.125 241.118 245.796 240.744C246.468 240.37 247.02 239.436 247.03 238.656C247.039 237.878 246.502 237.55 245.831 237.924C245.159 238.299 244.607 239.234 244.598 240.012Z" fill="#FFC900"/>
<path d="M247.55 242.325C247.766 242.451 248.064 242.437 248.394 242.252C249.066 241.878 249.618 240.944 249.627 240.165C249.633 239.77 249.496 239.49 249.273 239.36L246.677 237.852C246.901 237.982 247.037 238.261 247.031 238.656C247.022 239.435 246.47 240.37 245.798 240.744C245.468 240.928 245.171 240.943 244.954 240.817C245.732 241.269 246.771 241.873 247.55 242.325Z" fill="#FFC900"/>
<path d="M244.953 240.817L247.549 242.325C247.325 242.196 247.188 241.916 247.194 241.52L244.598 240.012C244.592 240.408 244.73 240.687 244.953 240.817Z" fill="#FFC900"/>
<path d="M249.272 239.361L246.676 237.853C246.46 237.726 246.162 237.741 245.832 237.924C245.16 238.3 244.608 239.234 244.599 240.012L247.195 241.521C247.204 240.742 247.756 239.808 248.428 239.434C248.759 239.249 249.055 239.235 249.272 239.361Z" fill="#FFC900"/>
<path d="M247.194 241.52C247.185 242.3 247.722 242.626 248.393 242.252C249.065 241.878 249.617 240.944 249.627 240.166C249.636 239.386 249.099 239.059 248.428 239.433C247.756 239.808 247.204 240.742 247.194 241.52Z" fill="#FFC900"/>
<path d="M167.973 220.769C166.793 221.456 164.866 221.456 163.682 220.771L163.673 224.555C164.855 225.241 166.783 225.226 167.961 224.538L167.962 224.087H167.963L188.001 212.957L188.012 209.066L167.973 220.769Z" fill="#FBFCFF"/>
<path d="M168.674 220.403L167.961 220.82C166.786 221.505 164.855 221.507 163.673 220.822L131.664 202.253C130.48 201.566 130.475 200.44 131.65 199.755L132.364 199.338L168.674 220.403Z" fill="#F7AA45"/>
<path d="M189.49 205.746C190.673 206.433 190.679 207.554 189.5 208.241L173.588 217.533L170.595 219.281L168.674 220.403L132.364 199.338L131.65 199.755C130.475 200.44 130.48 201.566 131.664 202.253L163.673 220.822C164.855 221.507 166.786 221.505 167.961 220.82C166.786 221.505 164.855 221.507 163.673 220.822L131.664 202.253C130.48 201.566 130.475 200.44 131.65 199.755L153.19 187.175C154.368 186.486 156.299 186.491 157.483 187.175L189.49 205.746Z" fill="#FFDBAB"/>
<path d="M190.389 206.949C190.386 208.246 190.381 209.545 190.38 210.842C190.377 211.29 190.086 211.739 189.505 212.08L189.515 208.19C190.097 207.849 190.388 207.4 190.389 206.949Z" fill="#FBFCFF"/>
<path d="M189.515 208.19L188.011 209.066L151.701 188.002L153.202 187.126L189.515 208.19Z" fill="#AEC0D0"/>
<path d="M163.682 220.771L131.675 202.204C131.079 201.856 130.781 201.4 130.783 200.944C130.778 202.24 130.775 203.536 130.771 204.835C130.771 205.292 131.067 205.748 131.663 206.092L163.672 224.661C164.314 225.034 165.179 225.197 166.024 225.165V221.273C165.184 221.306 164.325 221.143 163.682 220.771Z" fill="#F7AA45"/>
<path d="M189.512 208.188L173.599 217.477L170.606 219.223L168.684 220.348L167.973 220.764C166.797 221.451 164.864 221.451 163.681 220.766L131.675 202.198C131.078 201.852 130.782 201.393 130.784 200.939C130.782 201.227 130.782 201.515 130.781 201.804C130.779 202.258 131.076 202.715 131.672 203.061L163.68 221.63C164.863 222.317 166.794 222.315 167.969 221.628L168.682 221.211L170.604 220.088L173.597 218.342L189.507 209.051C190.095 208.708 190.387 208.258 190.389 207.809L190.39 206.948C190.389 207.394 190.097 207.844 189.512 208.188Z" fill="#F7AA45"/>
<path d="M189.511 208.188L173.598 217.478L170.606 219.224L168.684 220.348L167.972 220.764C167.41 221.091 166.678 221.258 165.937 221.273V222.137C166.676 222.122 167.408 221.956 167.969 221.628L168.682 221.211L170.603 220.089L173.596 218.343L189.507 209.051C190.094 208.708 190.387 208.259 190.389 207.81L190.39 206.948C190.389 207.395 190.096 207.844 189.511 208.188Z" fill="#F7AA45"/>
<path d="M190.389 209.984V210.847C190.387 211.297 190.096 211.745 189.514 212.084L189.507 212.089L188.011 212.961L173.596 221.381L170.604 223.127L168.682 224.247L167.969 224.665C167.409 224.992 166.676 225.161 165.937 225.176V224.312C166.678 224.297 167.41 224.128 167.972 223.802L168.684 223.386L170.606 222.262L173.598 220.515L188.011 212.099L189.511 211.224L189.514 211.223C190.097 210.88 190.389 210.431 190.389 209.984Z" fill="#F7AA45"/>
<path d="M176.846 219.162L176.842 220.024L174.412 220.357L174.415 219.493L176.846 219.162Z" fill="#F7AA45"/>
<path d="M174.414 219.494L174.411 220.358L173.85 221.775L173.852 220.91L174.414 219.494Z" fill="#F7AA45"/>
<path d="M173.852 220.91L173.85 221.775L171.823 220.598L171.828 219.735L173.852 220.91Z" fill="#952300"/>
<path d="M176.848 219.163L174.417 219.494L173.854 220.91L171.829 219.735L174.821 217.987L176.848 219.163Z" fill="#FF9000"/>
<path d="M189.513 208.19V212.084L189.506 212.089L188.011 212.961V209.068L189.513 208.19Z" fill="#AEC0D0"/>
<path d="M67.624 168.346L67.6315 169.411L103.618 190.253L103.611 189.187L67.624 168.346Z" fill="#9B2616"/>
<path d="M103.61 189.187L103.618 190.253L128.111 176.112L128.104 175.046L103.61 189.187Z" fill="#9B2616"/>
<path d="M67.624 168.346L103.611 189.187L128.105 175.046L92.1181 154.205L67.624 168.346Z" fill="#6C1A0F"/>
<path d="M125.342 170.855L127.781 169.687V174.734L125.342 176.494V170.855Z" fill="#6C1A0F"/>
<path d="M69.8057 164.515L69.8142 168.716L103.622 188.291L103.613 184.091L69.8057 164.515Z" fill="#C5C5C5"/>
<path d="M126.177 171.078V175.284L103.623 188.291L103.614 184.091L126.177 171.078Z" fill="#898989"/>
<path d="M92.543 151.387L124.947 170.15V171.773L103.613 184.091L69.8057 164.515L92.543 151.387Z" fill="#DCDCDC"/>
<path d="M67.624 162.19L67.6315 163.257L103.618 184.098L103.611 183.032L67.624 162.19Z" fill="#9B2616"/>
<path d="M103.61 183.032L103.618 184.098L128.111 169.956L128.104 168.891L103.61 183.032Z" fill="#9B2616"/>
<path d="M67.624 162.191L103.611 183.032L128.105 168.891L92.1181 148.05L67.624 162.191Z" fill="#DE361F"/>
<path d="M126.983 176.274L128.111 175.692V169.321L126.983 170.01V176.274Z" fill="#9B2616"/>
<path d="M74.3018 159.742L74.3071 160.671L105.65 178.823L105.644 177.894L74.3018 159.742Z" fill="#E88102"/>
<path d="M105.644 177.894L105.65 178.823L126.983 166.507L126.977 165.578L105.644 177.894Z" fill="#E88102"/>
<path d="M74.3018 159.742L105.644 177.894L126.977 165.577L95.6339 147.425L74.3018 159.742Z" fill="#8A4C01"/>
<path d="M124.571 161.928L126.696 160.909V165.306L124.571 166.839V161.928Z" fill="#8A4C01"/>
<path d="M76.1992 156.406L76.2078 160.064L105.653 177.114L105.645 173.456L76.1992 156.406Z" fill="#C5C5C5"/>
<path d="M125.299 162.122V165.786L105.655 177.114L105.647 173.456L125.299 162.122Z" fill="#898989"/>
<path d="M96.0039 144.972L124.227 161.314V162.727L105.645 173.456L76.1992 156.406L96.0039 144.972Z" fill="#DCDCDC"/>
<path d="M74.3018 154.381L74.3071 155.309L105.65 173.462L105.644 172.533L74.3018 154.381Z" fill="#E88102"/>
<path d="M105.644 172.533L105.65 173.462L126.983 161.145L126.977 160.216L105.644 172.533Z" fill="#E88102"/>
<path d="M74.3018 154.381L105.644 172.533L126.977 160.216L95.6339 142.064L74.3018 154.381Z" fill="#F7BD00"/>
<path d="M126 166.647L126.983 166.141V160.592L126 161.192V166.647Z" fill="#E88102"/>
<path d="M100.613 142.701L100.62 144.987L107.021 148.708L107.014 146.421L100.613 142.701Z" fill="#0E3847"/>
<path d="M97.7617 144.603L97.7682 146.89C98.6599 146.375 100.117 146.375 101.002 146.89L100.996 144.603C100.11 144.088 98.6535 144.088 97.7617 144.603Z" fill="#0E3949"/>
<path d="M100.995 144.603L101.002 146.89L102.549 147.789L102.543 145.503L100.995 144.603Z" fill="#003959"/>
<path d="M102.544 145.503L102.55 147.789C102.991 148.045 103.212 148.382 103.213 148.719L103.205 146.433C103.205 146.095 102.984 145.759 102.544 145.503Z" fill="#0E3949"/>
<path d="M102.533 147.377L102.54 149.663C102.988 149.403 103.212 149.062 103.212 148.72L103.204 146.433C103.205 146.775 102.981 147.117 102.533 147.377Z" fill="#4690A0"/>
<path d="M83.75 152.693L83.7575 154.979L97.7678 146.89L97.7613 144.603L83.75 152.693Z" fill="#003959"/>
<path d="M83.0801 153.636L83.0865 155.922C83.0854 155.58 83.3095 155.237 83.7586 154.979L83.7511 152.693C83.303 152.951 83.079 153.294 83.0801 153.636Z" fill="#0E3949"/>
<path d="M88.5215 155.466L88.5279 157.752L102.539 149.663L102.533 147.376L88.5215 155.466Z" fill="#356D79"/>
<path d="M83.7508 152.693C82.859 153.207 82.8547 154.051 83.7411 154.566L85.2889 155.465C86.1742 155.98 87.6309 155.98 88.5227 155.465L102.534 147.376C103.426 146.862 103.43 146.018 102.544 145.503L100.996 144.603C100.111 144.088 98.6539 144.088 97.7621 144.603L83.7508 152.693Z" fill="#D4E0F2"/>
<path d="M85.2878 155.465C86.1732 155.98 87.6298 155.98 88.5216 155.465L102.533 147.376C103.425 146.862 103.429 146.018 102.543 145.502L100.995 144.603C100.109 144.088 98.6528 144.088 97.761 144.603L83.7497 152.692C82.8579 153.207 82.8536 154.05 83.74 154.566L85.2878 155.465ZM97.3644 142.701C98.2637 142.182 99.7204 142.182 100.613 142.701L107.014 146.421L86.768 158.11L80.3669 154.39C79.474 153.87 79.4783 153.027 80.3776 152.508L97.3644 142.701Z" fill="#ED5B00"/>
<path d="M100.614 142.701L107.015 146.421L86.7686 158.11L99.7455 165.651C100.643 166.172 102.098 166.172 102.998 165.653L119.984 155.846C120.884 155.327 120.888 154.483 119.992 153.962L100.614 142.701Z" fill="#ED5B00"/>
<path d="M80.3669 154.391L86.768 158.11L99.745 165.652C100.642 166.173 102.098 166.173 102.997 165.654L119.984 155.846C120.436 155.585 120.662 155.242 120.661 154.9L120.668 157.186C120.669 157.529 120.443 157.871 119.99 158.133L103.003 167.94C102.105 168.459 100.649 168.459 99.7514 167.938L86.7745 160.396L80.3733 156.677C79.9296 156.419 79.7077 156.081 79.7066 155.742L79.7002 153.456C79.7013 153.795 79.9231 154.132 80.3669 154.391Z" fill="#B54B09"/>
<path d="M110.769 150.795L110.764 151.709L111.539 152.169L111.544 151.254L110.769 150.795Z" fill="#912736"/>
<path d="M112.022 151.538L112.016 152.453L112.791 152.912L112.797 151.998L112.022 151.538Z" fill="#912736"/>
<path d="M108.252 152.216L108.247 153.131L110.764 151.708L110.769 150.794L108.252 152.216Z" fill="#912736"/>
<path d="M109.029 152.677L109.023 153.591L111.54 152.168L111.546 151.254L109.029 152.677Z" fill="#919191"/>
<path d="M108.252 152.217L108.247 153.131L109.022 153.591L109.027 152.677L108.252 152.217Z" fill="#919191"/>
<path d="M110.77 150.795L108.253 152.217L109.028 152.677L111.545 151.254L110.77 150.795Z" fill="#FDFDFD"/>
<path d="M109.505 152.961L109.499 153.875L112.016 152.453L112.022 151.538L109.505 152.961Z" fill="#912736"/>
<path d="M109.505 152.961L109.499 153.875L110.275 154.335L110.28 153.42L109.505 152.961Z" fill="#919191"/>
<path d="M110.28 153.42L110.274 154.335L112.79 152.912L112.796 151.998L110.28 153.42Z" fill="#919191"/>
<path d="M112.797 151.998L112.022 151.538L109.505 152.961L110.28 153.42L112.797 151.998Z" fill="#FDFDFD"/>
<path d="M109.028 152.676L111.545 151.254L110.77 150.794L108.253 152.217L109.028 152.676ZM110.281 153.42L112.798 151.998L112.023 151.538L109.506 152.961L110.281 153.42ZM106.141 148.039C106.958 147.577 108.293 147.589 109.097 148.066L117.463 153.031C118.27 153.509 118.255 154.281 117.438 154.743L114.906 156.173C114.089 156.636 112.758 156.625 111.951 156.146L103.584 151.181C102.781 150.704 102.792 149.931 103.61 149.47L106.141 148.039Z" fill="#FF9000"/>
<path d="M102.989 150.326C102.987 150.635 103.185 150.944 103.584 151.181L111.951 156.146C112.758 156.625 114.089 156.636 114.906 156.173L117.437 154.743C117.849 154.51 118.057 154.199 118.059 153.887L118.053 154.801C118.052 155.114 117.843 155.425 117.431 155.657L114.9 157.088C114.084 157.55 112.751 157.539 111.945 157.061L103.578 152.096C103.178 151.859 102.981 151.549 102.983 151.24L102.989 150.326Z" fill="#E68507"/>
<path d="M93.1334 156.908L93.127 157.823L94.0531 157.299L94.0584 156.385L93.1334 156.908Z" fill="#919191"/>
<path d="M95.9858 156.407L95.9805 157.321L96.8905 157.861L96.8958 156.947L95.9858 156.407Z" fill="#919191"/>
<path d="M94.0581 156.385L94.0527 157.3L95.011 157.869L95.0174 156.955L94.0581 156.385Z" fill="#919191"/>
<path d="M95.0172 156.955L95.0107 157.869L95.9797 157.321L95.985 156.407L95.0172 156.955Z" fill="#919191"/>
<path d="M93.1334 156.908L93.127 157.823L94.0863 158.392L94.0927 157.478L93.1334 156.908Z" fill="#912736"/>
<path d="M95.9263 157.494L95.9209 158.409L96.8899 157.861L96.8952 156.947L95.9263 157.494Z" fill="#912736"/>
<path d="M93.1109 158.032L93.1045 158.947L94.0874 158.392L94.0938 157.477L93.1109 158.032Z" fill="#919191"/>
<path d="M95.9263 157.494L95.9209 158.409L96.8802 158.978L96.8856 158.064L95.9263 157.494Z" fill="#919191"/>
<path d="M94.019 158.573L94.0137 159.487L94.9966 158.932L95.0019 158.016L94.019 158.573Z" fill="#912736"/>
<path d="M93.1109 158.033L93.1045 158.947L94.0145 159.487L94.0199 158.573L93.1109 158.033Z" fill="#912736"/>
<path d="M95.9614 158.586L95.9561 159.501L96.8811 158.978L96.8864 158.064L95.9614 158.586Z" fill="#912736"/>
<path d="M95.0024 158.016L94.9971 158.932L95.9564 159.501L95.9617 158.586L95.0024 158.016Z" fill="#912736"/>
<path d="M94.0184 158.572L95.0013 158.016L95.9606 158.585L96.8856 158.063L95.9263 157.493L96.8953 156.946L95.9853 156.406L95.0174 156.954L94.0581 156.385L93.1331 156.908L94.0924 157.477L93.1095 158.032L94.0184 158.572ZM93.5586 155.166C94.3796 154.702 95.7109 154.716 96.5137 155.193L99.0026 156.67C99.8054 157.147 99.7979 157.918 98.9768 158.382L96.4494 159.81C95.6283 160.275 94.2939 160.262 93.49 159.785L91.0022 158.309C90.1983 157.832 90.2101 157.059 91.0311 156.595L93.5586 155.166Z" fill="#FDFDFD"/>
<path d="M93.133 156.908L94.0923 157.478L93.1094 158.033L94.0183 158.573L95.0012 158.017L95.9605 158.586L96.8855 158.064L95.9262 157.494L96.8952 156.947L95.9852 156.407L95.0173 156.955L94.058 156.385L93.133 156.908Z" fill="#FF9000"/>
<path d="M90.4067 157.455C90.4046 157.762 90.6029 158.072 91.0016 158.309L93.4894 159.785C94.2933 160.262 95.6278 160.275 96.4488 159.811L98.9762 158.382C99.3889 158.148 99.5958 157.838 99.5979 157.526L99.5926 158.44C99.5904 158.753 99.3825 159.064 98.9709 159.296L96.4434 160.725C95.6224 161.189 94.2869 161.176 93.484 160.7L90.9952 159.223C90.5975 158.987 90.3992 158.678 90.4014 158.369L90.4067 157.455Z" fill="#BFBFBF"/>
<path d="M102.282 152.819L102.275 153.733L103.185 154.274L103.191 153.358L102.282 152.819Z" fill="#919191"/>
<path d="M99.4878 154.398L99.4824 155.312L102.276 153.733L102.282 152.819L99.4878 154.398Z" fill="#919191"/>
<path d="M100.399 154.938L100.393 155.852L103.187 154.273L103.192 153.358L100.399 154.938Z" fill="#912736"/>
<path d="M99.4883 154.398L100.398 154.938L103.192 153.358L102.283 152.819L99.4883 154.398Z" fill="#FF9000"/>
<path d="M99.4878 154.398L99.4824 155.312L100.391 155.852L100.398 154.938L99.4878 154.398Z" fill="#912736"/>
<path d="M100.397 154.938L103.19 153.358L102.282 152.819L99.4872 154.398L100.397 154.938ZM99.8935 151.556C100.715 151.092 102.046 151.106 102.849 151.583L105.337 153.06C106.14 153.536 106.133 154.308 105.312 154.772L102.784 156.201C101.963 156.664 100.632 156.65 99.8291 156.173L97.3403 154.697C96.5375 154.22 96.545 153.449 97.366 152.985L99.8935 151.556Z" fill="#FDFDFD"/>
<path d="M96.7457 153.842C96.7436 154.149 96.9429 154.46 97.3417 154.697L99.8305 156.173C100.633 156.65 101.965 156.664 102.786 156.201L105.313 154.772C105.726 154.538 105.933 154.227 105.935 153.916L105.929 154.83C105.927 155.143 105.72 155.454 105.308 155.686L102.78 157.115C101.959 157.579 100.628 157.564 99.8241 157.088L97.3363 155.611C96.9365 155.374 96.7382 155.065 96.7393 154.756L96.7457 153.842Z" fill="#BFBFBF"/>
<path d="M105.704 156.336L105.697 157.25C105.935 157.116 106.321 157.119 106.554 157.258C106.669 157.326 106.726 157.415 106.725 157.503L106.732 156.589C106.732 156.5 106.675 156.412 106.56 156.343C106.326 156.205 105.941 156.202 105.704 156.336Z" fill="#BFBFBF"/>
<path d="M105.522 156.583L105.517 157.499C105.518 157.407 105.578 157.317 105.697 157.25L105.703 156.336C105.583 156.403 105.523 156.493 105.522 156.583Z" fill="#BFBFBF"/>
<path d="M108.275 156.244L108.27 157.158L109.183 157.699L109.188 156.785L108.275 156.244Z" fill="#919191"/>
<path d="M105.522 156.584L105.517 157.499C105.516 157.588 105.573 157.678 105.689 157.747C105.923 157.885 106.305 157.887 106.542 157.752C106.663 157.685 106.725 157.594 106.725 157.504L106.731 156.589C106.73 156.679 106.669 156.77 106.549 156.838C106.311 156.972 105.929 156.971 105.696 156.833C105.58 156.763 105.522 156.674 105.522 156.584Z" fill="#FF9000"/>
<path d="M105.704 156.336C105.466 156.47 105.463 156.693 105.697 156.832C105.93 156.971 106.312 156.972 106.55 156.838C106.787 156.704 106.794 156.482 106.56 156.344C106.327 156.205 105.941 156.202 105.704 156.336Z" fill="#E54332"/>
<path d="M105.48 157.823L105.474 158.737L108.268 157.158L108.273 156.244L105.48 157.823Z" fill="#919191"/>
<path d="M106.394 158.364L106.389 159.279L109.183 157.699L109.188 156.785L106.394 158.364Z" fill="#912736"/>
<path d="M107.939 158.02L107.933 158.934C107.934 158.843 107.995 158.753 108.115 158.684C108.353 158.55 108.734 158.552 108.968 158.691C109.085 158.759 109.142 158.85 109.142 158.938L109.147 158.024C109.148 157.934 109.09 157.845 108.974 157.776C108.741 157.637 108.359 157.636 108.121 157.77C108 157.839 107.939 157.929 107.939 158.02Z" fill="#BFBFBF"/>
<path d="M107.939 158.02L107.933 158.934C107.934 158.843 107.995 158.753 108.115 158.684C108.353 158.55 108.734 158.552 108.968 158.691C109.085 158.759 109.142 158.85 109.142 158.938L109.147 158.024C109.148 157.934 109.09 157.845 108.974 157.776C108.741 157.637 108.359 157.636 108.121 157.77C108 157.839 107.939 157.929 107.939 158.02Z" fill="#BFBFBF"/>
<path d="M105.48 157.822L105.474 158.737L106.387 159.279L106.392 158.364L105.48 157.822Z" fill="#912736"/>
<path d="M105.481 157.822L106.394 158.364L109.188 156.785L108.275 156.244L105.481 157.822Z" fill="#FF9000"/>
<path d="M107.939 158.02L107.933 158.934C107.933 159.022 107.989 159.111 108.104 159.178C108.338 159.318 108.724 159.321 108.962 159.187C109.081 159.119 109.141 159.029 109.142 158.938L109.147 158.024C109.147 158.114 109.087 158.204 108.967 158.273C108.729 158.407 108.344 158.402 108.111 158.264C107.995 158.195 107.938 158.108 107.939 158.02Z" fill="#FF9000"/>
<path d="M108.12 157.77C107.882 157.904 107.875 158.126 108.109 158.264C108.343 158.402 108.728 158.407 108.965 158.273C109.203 158.138 109.207 157.915 108.973 157.775C108.739 157.637 108.358 157.636 108.12 157.77Z" fill="#E54332"/>
<path d="M105.702 156.336C105.464 156.47 105.461 156.693 105.695 156.832C105.928 156.97 106.31 156.971 106.548 156.837C106.785 156.703 106.792 156.482 106.559 156.343C106.325 156.205 105.939 156.202 105.702 156.336ZM108.965 158.273C109.203 158.138 109.206 157.915 108.972 157.775C108.739 157.637 108.357 157.636 108.119 157.77C107.881 157.904 107.875 158.126 108.109 158.264C108.342 158.402 108.727 158.407 108.965 158.273ZM106.392 158.364L109.187 156.785L108.274 156.244L105.48 157.822L106.392 158.364ZM105.89 154.983C106.711 154.519 108.039 154.531 108.845 155.01L111.329 156.485C112.137 156.963 112.126 157.732 111.305 158.197L108.777 159.625C107.956 160.088 106.628 160.077 105.821 159.597L103.337 158.124C102.531 157.645 102.541 156.875 103.362 156.411L105.89 154.983Z" fill="#FDFDFD"/>
<path d="M102.74 157.267C102.738 157.576 102.936 157.886 103.337 158.124L105.821 159.598C106.629 160.077 107.957 160.089 108.778 159.626L111.305 158.197C111.718 157.963 111.926 157.652 111.928 157.34L111.922 158.255C111.92 158.567 111.712 158.877 111.299 159.111L108.771 160.54C107.951 161.003 106.623 160.991 105.816 160.512L103.331 159.038C102.931 158.8 102.731 158.49 102.733 158.183L102.74 157.267Z" fill="#BFBFBF"/>
<path d="M100.256 159.793L100.25 160.707L101.55 160.719L101.556 159.804L100.256 159.793Z" fill="#9B9B9B"/>
<path d="M98.8657 160.574L98.8604 161.488L100.238 161.501L100.244 160.587L98.8657 160.574Z" fill="#9B9B9B"/>
<path d="M100.243 160.587L100.236 161.501L100.248 160.707L100.255 159.792L100.243 160.587Z" fill="#808080"/>
<path d="M101.542 160.599L101.537 161.513L101.549 160.719L101.554 159.804L101.542 160.599Z" fill="#802230"/>
<path d="M101.542 160.599L101.537 161.513L102.897 161.524L102.903 160.61L101.542 160.599Z" fill="#9B9B9B"/>
<path d="M98.8541 161.326L98.8477 162.241L98.8594 161.488L98.8648 160.574L98.8541 161.326Z" fill="#808080"/>
<path d="M98.8541 161.327L98.8477 162.241L100.226 162.254L100.232 161.34L98.8541 161.327Z" fill="#9B293A"/>
<path d="M101.533 161.351L101.526 162.265L102.887 162.276L102.893 161.362L101.533 161.351Z" fill="#9B293A"/>
<path d="M102.893 161.362L102.887 162.276L102.898 161.523L102.904 160.609L102.893 161.362Z" fill="#802230"/>
<path d="M100.221 162.13L100.215 163.044L100.227 162.254L100.233 161.34L100.221 162.13Z" fill="#808080"/>
<path d="M100.221 162.129L100.215 163.044L101.514 163.055L101.52 162.141L100.221 162.129Z" fill="#9B293A"/>
<path d="M101.521 162.141L101.515 163.055L101.526 162.265L101.533 161.351L101.521 162.141Z" fill="#802230"/>
<path d="M100.221 162.129L101.52 162.141L101.532 161.351L102.892 161.362L102.903 160.609L101.543 160.599L101.554 159.805L100.255 159.793L100.243 160.587L98.8651 160.574L98.8543 161.327L100.233 161.339L100.221 162.129ZM99.4406 158.646C100.261 158.182 101.589 158.195 102.396 158.674L104.88 160.148C105.687 160.627 105.676 161.395 104.855 161.859L102.327 163.288C101.507 163.752 100.175 163.741 99.3688 163.263L96.8843 161.789C96.0772 161.309 96.0922 160.539 96.9132 160.075L99.4406 158.646Z" fill="#FDFDFD"/>
<path d="M98.8662 160.574L98.8555 161.327L100.234 161.339L100.222 162.129L101.521 162.141L101.533 161.351L102.893 161.362L102.904 160.609L101.544 160.599L101.555 159.804L100.256 159.793L100.245 160.587L98.8662 160.574Z" fill="#FF9000"/>
<path d="M96.2866 160.934C96.2856 161.242 96.4839 161.552 96.8837 161.789L99.3682 163.263C100.174 163.742 101.507 163.752 102.327 163.288L104.854 161.859C105.268 161.626 105.476 161.315 105.478 161.003L105.471 161.917C105.47 162.23 105.261 162.541 104.849 162.774L102.321 164.202C101.5 164.667 100.169 164.657 99.3618 164.178L96.8772 162.703C96.4774 162.466 96.2791 162.156 96.2813 161.849L96.2866 160.934Z" fill="#BFBFBF"/>
<path d="M135.334 114.691L134.69 140.628L134.999 140.861C135.549 141.183 136.358 141.263 137.042 141.105L136.742 114.978L135.519 114.833L135.334 114.691Z" fill="#CDD1F6"/>
<path d="M136.742 114.978L137.042 141.105L137.688 140.861L138.248 140.079L137.466 114.36L137.13 114.833L136.742 114.978Z" fill="#B5B9DC"/>
<path d="M135.522 113.897L135.518 114.833H137.129L137.134 113.897H135.522Z" fill="#F5F5FD"/>
<path d="M152.66 105.556L151.918 131.279L152.165 131.816L152.809 105.882L152.66 105.556Z" fill="#CDD1F6"/>
<path d="M152.808 105.882L152.164 131.816L152.473 132.052C153.024 132.372 153.831 132.453 154.516 132.296L154.216 106.168L152.992 106.022L152.808 105.882Z" fill="#CDD1F6"/>
<path d="M154.216 106.169L154.516 132.296L155.162 132.052L155.722 131.268L154.94 105.551L154.605 106.022L154.216 106.169Z" fill="#B5B9DC"/>
<path d="M152.997 105.084L152.992 106.021H154.604L154.609 105.084H152.997Z" fill="#F5F5FD"/>
<path d="M173.362 136.036L173.348 140.683L173.229 141.181L173.242 136.531L173.362 136.036Z" fill="#B5B9DC"/>
<path d="M173.241 136.53L173.228 141.18L172.438 141.96L172.448 137.31L173.241 136.53Z" fill="#B5B9DC"/>
<path d="M133.677 142.186L133.664 146.834C133.047 146.479 132.738 146.01 132.738 145.542L132.751 140.892C132.751 141.36 133.06 141.829 133.677 142.186Z" fill="#CDD1F6"/>
<path d="M172.447 137.309L172.436 141.96L151.111 154.351L151.127 149.7L172.447 137.309Z" fill="#B5B9DC"/>
<path d="M154.15 150.287L153.46 149.872L152.749 151.058L153.433 151.471L154.15 150.287Z" fill="#085FD5"/>
<path d="M156.578 148.792L155.889 148.377L155.179 149.563L155.863 149.976L156.578 148.792Z" fill="#085FD5"/>
<path d="M158.767 147.485L158.078 147.07L157.365 148.255L158.049 148.669L158.767 147.485Z" fill="#085FD5"/>
<path d="M146.692 149.7L146.679 154.351L133.664 146.834L133.677 142.186L146.692 149.7Z" fill="#CDD1F6"/>
<path d="M151.127 149.701L151.111 154.351C150.411 154.758 149.454 154.933 148.537 154.868L148.55 150.218C149.47 150.281 150.424 150.11 151.127 149.701Z" fill="#C2C6ED"/>
<path d="M148.551 150.218L148.538 154.868C147.86 154.826 147.201 154.65 146.679 154.351L146.692 149.7C147.214 150 147.874 150.176 148.551 150.218Z" fill="#C2C6ED"/>
<path d="M172.436 134.743C173.661 135.451 173.668 136.601 172.447 137.31L151.127 149.701C149.905 150.409 147.92 150.409 146.692 149.701L133.677 142.186C132.449 141.475 132.44 140.328 133.662 139.617L154.984 127.228C156.205 126.518 158.19 126.518 159.419 127.228L172.436 134.743Z" fill="#F5F5FD"/>
<path d="M160.935 132.749L159.842 133.009C155.885 133.002 152.165 133.889 149.367 135.505C146.569 137.119 145.035 139.267 145.048 141.552C145.05 142.042 144.364 142.44 143.516 142.442C142.666 142.442 141.975 142.047 141.973 141.556C141.96 138.796 143.813 136.2 147.194 134.248C150.575 132.296 155.07 131.226 159.851 131.235C160.699 131.237 161.386 131.635 161.383 132.125L160.935 132.749Z" fill="#B5B9DC"/>
<path d="M153.899 141.649L152.825 141.909C151.977 141.914 151.281 141.519 151.275 141.027C151.259 139.844 152.05 138.729 153.5 137.892C154.95 137.053 156.882 136.597 158.934 136.606C159.782 136.611 160.466 137.011 160.459 137.501C160.453 137.992 159.76 138.385 158.912 138.381C157.688 138.376 156.538 138.647 155.674 139.147C154.81 139.644 154.342 140.308 154.35 141.014L153.899 141.649Z" fill="#B5B9DC"/>
<path d="M160.589 135.42L159.497 135.68C156.867 135.673 154.396 136.262 152.54 137.334C150.681 138.407 149.662 139.835 149.673 141.352C149.677 141.842 148.991 142.242 148.143 142.244C147.294 142.246 146.604 141.851 146.6 141.36C146.584 139.364 147.923 137.49 150.366 136.08C152.806 134.67 156.055 133.897 159.51 133.906C160.359 133.908 161.045 134.308 161.04 134.796L160.589 135.42Z" fill="#B5B9DC"/>
<path d="M160.88 139.642C159.679 138.947 157.734 138.947 156.532 139.642C155.331 140.335 155.331 141.458 156.532 142.151C157.734 142.844 159.679 142.844 160.88 142.151C162.081 141.458 162.081 140.335 160.88 139.642Z" fill="#B5B9DC"/>
<defs>
<filter id="filter0_d_109_966" x="0.400318" y="56.8508" width="436.713" height="284.645" filterUnits="userSpaceOnUse" color-interpolation-filters="sRGB">
<feFlood flood-opacity="0" result="BackgroundImageFix"/>
<feColorMatrix in="SourceAlpha" type="matrix" values="0 0 0 0 0 0 0 0 0 0 0 0 0 0 0 0 0 0 127 0" result="hardAlpha"/>
<feOffset dy="20.5997"/>
<feGaussianBlur stdDeviation="10.2998"/>
<feColorMatrix type="matrix" values="0 0 0 0 0 0 0 0 0 0 0 0 0 0 0 0 0 0 0.2 0"/>
<feBlend mode="normal" in2="BackgroundImageFix" result="effect1_dropShadow_109_966"/>
<feBlend mode="normal" in="SourceGraphic" in2="effect1_dropShadow_109_966" result="shape"/>
</filter>
<linearGradient id="paint0_linear_109_966" x1="218.75" y1="235.662" x2="20.994" y2="235.662" gradientUnits="userSpaceOnUse">
<stop stop-color="#AABAD6"/>
<stop offset="1" stop-color="#96AAC9"/>
</linearGradient>
</defs>
</svg>
