<svg width="163" height="99" viewBox="0 0 163 99" fill="none" xmlns="http://www.w3.org/2000/svg">
<path d="M2.81239 5.62009C2.08256 5.62009 1.3496 5.32722 0.829638 4.80726C0.309675 4.27007 0.0136719 3.5559 0.0136719 2.81355C0.0136719 2.08059 0.312807 1.35232 0.829638 0.832362C1.868 -0.20913 3.75365 -0.221659 4.8061 0.832362C5.3245 1.34919 5.62363 2.07745 5.62363 2.81041C5.6205 3.55903 5.32763 4.27007 4.80297 4.80726C4.27048 5.32722 3.55631 5.62322 2.81239 5.62009Z" fill="#FF9000"/>
<path d="M14.3203 2.81278C14.3203 1.26542 15.5701 0.00309849 17.1143 -3.38554e-05C18.6758 -3.38554e-05 19.9365 1.26542 19.9381 2.80965C19.9365 4.36797 18.6758 5.62402 17.1143 5.61933C15.5685 5.61933 14.3172 4.3711 14.3203 2.81278ZM28.624 2.80965C28.624 1.26542 29.8738 0.00309849 31.4321 0.00309849C32.981 0.00309849 34.2434 1.26542 34.2434 2.81278C34.2449 4.3711 32.981 5.62402 31.4321 5.61933C29.8754 5.61933 28.624 4.3711 28.624 2.80965ZM42.9277 2.80965C42.9277 1.26855 44.1775 -3.38554e-05 45.7358 -3.38554e-05C47.28 0.00309849 48.547 1.26542 48.547 2.81278C48.5486 4.3711 47.2831 5.62402 45.7405 5.61933C44.1743 5.62402 42.9277 4.3711 42.9277 2.80965ZM57.2314 2.81278C57.2314 1.26542 58.4937 0.00309849 60.041 0.00309849C61.5994 -3.38554e-05 62.8491 1.26542 62.8507 2.80965C62.8507 4.3711 61.5994 5.61933 60.0379 5.61933C58.4905 5.61933 57.2314 4.36797 57.2314 2.81278ZM71.5319 2.81278C71.535 1.26542 72.7989 -3.38554e-05 74.3431 -3.38554e-05C75.9015 0.00309849 77.1513 1.26855 77.156 2.80965C77.1513 4.3711 75.9015 5.61932 74.3431 5.62402C72.7989 5.61932 71.535 4.3711 71.5319 2.81278ZM85.8356 2.81278C85.834 1.26542 87.0995 0.00309849 88.6578 -3.38554e-05C90.2051 0.00309849 91.4565 1.26542 91.4565 2.81278C91.4565 4.3711 90.2052 5.62402 88.6562 5.62402C87.0995 5.61932 85.834 4.3711 85.8356 2.81278ZM100.152 2.80965C100.152 1.26542 101.403 -3.38554e-05 102.961 -3.38554e-05C104.509 -3.38554e-05 105.774 1.26542 105.774 2.81278C105.773 4.36797 104.509 5.61932 102.966 5.62402C101.405 5.62402 100.152 4.3711 100.152 2.80965ZM114.454 2.80965C114.455 1.26542 115.705 -3.38554e-05 117.265 -3.38554e-05C118.813 -3.38554e-05 120.08 1.26542 120.076 2.81278C120.076 4.3711 118.813 5.61933 117.265 5.61933C115.705 5.61933 114.457 4.3711 114.454 2.80965ZM128.761 2.80965C128.759 1.26542 130.01 0.00309849 131.569 -3.38554e-05C133.129 0.00309849 134.382 1.26542 134.382 2.80965C134.379 4.3711 133.129 5.61933 131.569 5.61933C130.012 5.61933 128.761 4.3711 128.761 2.80965ZM143.063 2.80965C143.063 1.26542 144.33 0.00309849 145.876 0.00309849C147.432 0.00309849 148.684 1.26542 148.684 2.80965C148.684 4.3711 147.432 5.62402 145.876 5.61933C144.327 5.61933 143.061 4.3758 143.063 2.80965Z" fill="#FF9000"/>
<path d="M160.188 5.62009C159.443 5.62009 158.714 5.32722 158.194 4.80726C157.674 4.27007 157.363 3.5559 157.364 2.81355C157.363 2.07745 157.674 1.34919 158.194 0.832363C159.248 -0.209129 161.118 -0.221659 162.172 0.82923C162.691 1.34919 162.985 2.08059 162.985 2.81041C162.985 3.5559 162.691 4.2732 162.171 4.80726C161.637 5.32722 160.921 5.62322 160.188 5.62009Z" fill="#FF9000"/>
<path d="M2.81222 21.0908C2.08553 21.0908 1.34943 20.7979 0.831038 20.2608C0.311075 19.7455 0.00567502 19.0078 0.000976562 18.2811C0.000976562 17.5357 0.311075 16.8199 0.83417 16.3C1.87096 15.2459 3.75348 15.2459 4.80437 16.2874C5.3259 16.8199 5.63443 17.5357 5.63913 18.2811C5.63443 19.0078 5.3259 19.7408 4.8075 20.2608C4.27501 20.7948 3.55771 21.0908 2.81222 21.0908Z" fill="#FF9000"/>
<path d="M14.3174 18.2807C14.3174 16.7223 15.5687 15.471 17.1286 15.471C18.676 15.471 19.9367 16.7192 19.9367 18.2807C19.9367 19.8249 18.676 21.0903 17.1286 21.0903C15.5703 21.0903 14.3189 19.8249 14.3174 18.2807ZM28.6242 18.2807C28.6211 16.7192 29.8724 15.4678 31.4354 15.471C32.9781 15.471 34.2436 16.7192 34.2436 18.2807C34.2436 19.8249 32.9812 21.0903 31.4323 21.0903C29.8724 21.0903 28.6242 19.8249 28.6242 18.2807ZM42.9279 18.2807C42.9294 16.7192 44.1761 15.471 45.7391 15.471C47.2833 15.471 48.5472 16.7192 48.5472 18.2807C48.5488 19.8249 47.2833 21.0903 45.736 21.0903C44.1777 21.0903 42.9294 19.8249 42.9279 18.2807ZM57.2316 18.2807C57.2316 16.7192 58.497 15.471 60.0381 15.471C61.5996 15.471 62.8493 16.7192 62.8509 18.2807C62.8525 19.8249 61.5996 21.0872 60.0412 21.0903C58.4939 21.0903 57.2269 19.8249 57.2316 18.2807ZM71.5352 18.2838C71.5352 16.7223 72.7991 15.471 74.3433 15.471C75.9001 15.471 77.1546 16.7192 77.1546 18.2807C77.1515 19.8249 75.9017 21.0903 74.3402 21.0903C72.7991 21.0903 71.5352 19.8249 71.5352 18.2838ZM85.8358 18.2807C85.8358 16.7192 87.0997 15.471 88.6439 15.471C90.2053 15.471 91.4692 16.7192 91.4692 18.2807C91.4661 19.8249 90.2053 21.0903 88.647 21.0903C87.0997 21.0903 85.8358 19.8249 85.8358 18.2807ZM100.152 18.2807C100.157 16.7192 101.405 15.4678 102.962 15.471C104.509 15.471 105.774 16.7192 105.773 18.2807C105.773 19.8249 104.507 21.0872 102.962 21.0903C101.403 21.0903 100.157 19.8249 100.152 18.2807ZM114.456 18.2807C114.456 16.7192 115.705 15.471 117.265 15.471C118.813 15.471 120.077 16.7223 120.077 18.2807C120.08 19.8249 118.813 21.0903 117.265 21.0872C115.707 21.0903 114.456 19.8249 114.456 18.2807ZM128.761 18.2807C128.761 16.7223 130.012 15.471 131.569 15.471C133.116 15.4678 134.382 16.7192 134.382 18.2807C134.382 19.8249 133.113 21.0903 131.569 21.0872C130.011 21.0903 128.759 19.8249 128.761 18.2807ZM143.063 18.2807C143.063 16.7192 144.33 15.4678 145.874 15.471C147.436 15.471 148.684 16.7192 148.684 18.2807C148.684 19.8249 147.433 21.0872 145.874 21.0903C144.33 21.0903 143.065 19.8249 143.063 18.2807Z" fill="#FF9000"/>
<path d="M160.176 21.0908C159.448 21.0908 158.713 20.7948 158.193 20.2608C157.676 19.7408 157.379 19.0251 157.379 18.2811C157.38 17.5357 157.676 16.8168 158.193 16.3C159.249 15.2459 161.116 15.2459 162.171 16.3C162.69 16.8199 162.986 17.5357 162.986 18.2811C162.986 19.0078 162.69 19.7408 162.17 20.2608C161.651 20.7948 160.922 21.0908 160.176 21.0908Z" fill="#FF9000"/>
<path d="M2.82709 36.0854C2.08317 36.0823 1.35177 35.7738 0.831812 35.2538C0.313415 34.7354 0.00488281 34.004 0.00488281 33.2726C0.00488281 32.5271 0.311849 31.7973 0.831812 31.2774C1.88427 30.2374 3.75269 30.2374 4.80827 31.2774C5.32824 31.7973 5.62581 32.5303 5.62111 33.2726C5.62111 34.004 5.32511 34.7354 4.80827 35.2538C4.27422 35.7769 3.55848 36.0823 2.82709 36.0854Z" fill="#FF9000"/>
<path d="M14.3203 33.2717C14.3203 31.7102 15.5701 30.462 17.1284 30.462C18.6758 30.462 19.9365 31.7133 19.9365 33.2717C19.9365 34.8159 18.6758 36.0845 17.13 36.0813C15.5732 36.0845 14.3203 34.819 14.3203 33.2717ZM28.624 33.2717C28.624 31.7102 29.8722 30.462 31.4321 30.462C32.981 30.462 34.2433 31.7102 34.2433 33.2717C34.2433 34.8159 32.981 36.0813 31.4321 36.0813C29.8722 36.0813 28.624 34.819 28.624 33.2717ZM42.9292 33.2717C42.9292 31.7102 44.1759 30.4651 45.7358 30.462C47.2831 30.462 48.547 31.7133 48.547 33.2717C48.547 34.8159 47.2831 36.0813 45.7405 36.0813C44.1775 36.0845 42.9292 34.819 42.9292 33.2717ZM57.2313 33.2717C57.2313 31.7102 58.4937 30.462 60.0379 30.4651C61.5993 30.462 62.8523 31.7102 62.8491 33.2717C62.8523 34.819 61.5994 36.0813 60.041 36.0813C58.4937 36.0813 57.2298 34.8159 57.2313 33.2717ZM71.535 33.2717C71.5303 31.7133 72.7989 30.462 74.3431 30.462C75.9015 30.462 77.1528 31.7133 77.1544 33.2717C77.1528 34.8159 75.9015 36.0845 74.3431 36.0813C72.7989 36.0845 71.535 34.819 71.535 33.2717ZM85.8356 33.2717C85.8356 31.7102 87.0995 30.462 88.6437 30.462C90.2051 30.462 91.4565 31.7102 91.4534 33.2717C91.4565 34.819 90.2083 36.0845 88.6453 36.0813C87.0995 36.0845 85.8356 34.819 85.8356 33.2717ZM100.152 33.2717C100.156 31.7102 101.403 30.462 102.961 30.462C104.506 30.462 105.773 31.7133 105.773 33.2748C105.773 34.8159 104.507 36.0813 102.961 36.0845C101.403 36.0845 100.152 34.8159 100.152 33.2717ZM114.455 33.2717C114.455 31.7102 115.705 30.462 117.265 30.462C118.813 30.462 120.076 31.7133 120.076 33.2717C120.08 34.819 118.813 36.0845 117.265 36.0813C115.707 36.0813 114.455 34.8159 114.455 33.2717ZM128.761 33.2717C128.761 31.7133 130.023 30.4651 131.569 30.462C133.116 30.462 134.382 31.7102 134.382 33.2717C134.382 34.8159 133.115 36.0813 131.569 36.0813C130.026 36.0845 128.759 34.819 128.761 33.2717ZM143.063 33.2717C143.064 31.7102 144.33 30.462 145.876 30.462C147.436 30.462 148.684 31.7133 148.684 33.2748C148.684 34.8159 147.432 36.0813 145.876 36.0845C144.33 36.0813 143.064 34.819 143.063 33.2717Z" fill="#FF9000"/>
<path d="M160.176 36.0854C159.447 36.0823 158.727 35.7738 158.193 35.2538C157.675 34.7339 157.363 34.0072 157.361 33.2726C157.363 32.5303 157.676 31.8114 158.193 31.2774C159.245 30.2374 161.117 30.2374 162.171 31.2774C162.689 31.8114 162.985 32.5303 162.985 33.2726C162.985 34.004 162.689 34.7354 162.171 35.2538C161.635 35.7769 160.921 36.0854 160.176 36.0854Z" fill="#FF9000"/>
<path d="M2.81239 51.5356C2.08256 51.5356 1.3496 51.2443 0.829638 50.7228C0.309675 50.2013 0.0168042 49.4746 0.0136719 48.7291C0.0136719 47.9836 0.309675 47.2647 0.829638 46.7479C1.88366 45.6939 3.75208 45.6939 4.80297 46.7448C5.3245 47.2647 5.6205 47.9977 5.6205 48.7291C5.62363 49.4715 5.3245 50.1888 4.80297 50.7228C4.28614 51.2443 3.55631 51.5356 2.81239 51.5356Z" fill="#FF9000"/>
<path d="M14.3203 48.7284C14.3203 47.181 15.5732 45.9156 17.13 45.9187C18.6758 45.9156 19.9365 47.1842 19.9365 48.7284C19.9365 50.2867 18.6758 51.535 17.1284 51.535C15.5701 51.5381 14.3203 50.2899 14.3203 48.7284ZM28.624 48.7253C28.624 47.181 29.8722 45.9187 31.4321 45.9187C32.981 45.9187 34.2433 47.181 34.2433 48.7284C34.2433 50.2899 32.9779 51.535 31.4352 51.535C29.8722 51.5381 28.6209 50.2899 28.624 48.7253ZM42.9277 48.7253C42.9292 47.181 44.1916 45.9187 45.7358 45.9156C47.2831 45.9187 48.547 47.1842 48.547 48.7284C48.547 50.2867 47.2831 51.535 45.7405 51.535C44.1916 51.535 42.9292 50.2899 42.9277 48.7253ZM57.2298 48.7284C57.2267 47.181 58.4921 45.9156 60.041 45.9156C61.5994 45.9187 62.8523 47.181 62.8507 48.7253C62.8491 50.2867 61.5993 51.535 60.0379 51.535C58.4984 51.535 57.2298 50.2867 57.2298 48.7284ZM71.535 48.7253C71.535 47.181 72.7989 45.9156 74.34 45.9156C75.9015 45.9156 77.1544 47.1842 77.1528 48.7284C77.1528 50.2867 75.8999 51.535 74.3431 51.535C72.7989 51.5381 71.535 50.2836 71.535 48.7253ZM85.8356 48.7284C85.834 47.181 87.0995 45.9156 88.6468 45.9156C90.2083 45.9156 91.4565 47.181 91.4565 48.7253C91.4581 50.2867 90.2051 51.5381 88.6437 51.535C87.0995 51.535 85.8356 50.2867 85.8356 48.7284ZM100.152 48.7284C100.156 47.181 101.403 45.9156 102.96 45.9187C104.506 45.9187 105.773 47.181 105.77 48.7284C105.773 50.2867 104.509 51.535 102.961 51.535C101.402 51.535 100.152 50.2867 100.152 48.7284ZM114.455 48.7284C114.455 47.1842 115.707 45.9187 117.265 45.9187C118.813 45.9156 120.08 47.181 120.076 48.7284C120.076 50.2867 118.813 51.5381 117.265 51.535C115.705 51.535 114.455 50.2899 114.455 48.7284ZM128.761 48.7253C128.759 47.181 130.023 45.9187 131.569 45.9187C133.116 45.9187 134.382 47.181 134.382 48.7284C134.382 50.2899 133.115 51.535 131.569 51.535C130.023 51.535 128.761 50.2867 128.761 48.7253ZM143.063 48.7284C143.064 47.181 144.33 45.9187 145.876 45.9156C147.436 45.9156 148.684 47.181 148.684 48.7284C148.684 50.2867 147.432 51.535 145.876 51.5381C144.33 51.5381 143.063 50.2867 143.063 48.7284Z" fill="#FF9000"/>
<path d="M160.176 51.5356C159.443 51.5356 158.713 51.2412 158.193 50.7228C157.673 50.1872 157.363 49.4715 157.363 48.726C157.363 48.0008 157.677 47.2647 158.193 46.7479C159.246 45.6939 161.116 45.708 162.171 46.7479C162.69 47.2647 162.997 47.9977 163 48.7291C162.998 49.4715 162.69 50.1888 162.171 50.7228C161.651 51.2412 160.92 51.5356 160.176 51.5356Z" fill="#FF9000"/>
<path d="M2.81319 68.001C2.08336 68.001 1.3504 67.705 0.830436 67.1678C0.313605 66.651 0.0144702 65.9321 0.0176025 65.1882C0.0144702 64.4458 0.313605 63.7269 0.830436 63.2101C1.87036 62.1561 3.76697 62.153 4.8069 63.1929C5.3253 63.7269 5.62443 64.4599 5.62443 65.1882C5.62443 65.9196 5.3253 66.651 4.8069 67.1678C4.28694 67.705 3.55711 68.001 2.81319 68.001Z" fill="#FF9000"/>
<path d="M14.3203 65.1903C14.3172 63.6289 15.5685 62.3759 17.1316 62.3759C18.6758 62.3759 19.9412 63.6242 19.9412 65.1888C19.9365 66.7345 18.6758 68 17.1284 68C15.5685 68 14.3203 66.7345 14.3203 65.1903ZM28.624 65.1888C28.624 63.6289 29.8722 62.3806 31.4321 62.3806C32.981 62.3806 34.2434 63.6289 34.2434 65.1903C34.2434 66.7345 32.981 68 31.4352 68C29.8754 68 28.624 66.7314 28.624 65.1888ZM42.9277 65.1888C42.9277 63.6289 44.1916 62.3806 45.7358 62.3759C47.28 62.3759 48.5455 63.6289 48.547 65.1903C48.547 66.7345 47.2831 68 45.7405 68C44.1916 68 42.9277 66.7314 42.9277 65.1888ZM57.2298 65.1903C57.2314 63.6289 58.4921 62.3759 60.041 62.3759C61.5978 62.3759 62.8507 63.6289 62.8507 65.1888C62.8507 66.7314 61.5994 68 60.0379 68C58.4984 68 57.2314 66.7345 57.2298 65.1903ZM71.535 65.1888C71.535 63.6242 72.7989 62.3759 74.34 62.3759C75.9015 62.3759 77.1528 63.6289 77.1528 65.1903C77.1544 66.7345 75.9015 67.9969 74.3431 67.9969C72.7989 68 71.5319 66.7345 71.535 65.1888ZM85.8497 65.1888C85.8497 63.6289 87.0995 62.3759 88.6453 62.3759C90.2052 62.3759 91.469 63.6289 91.469 65.1903C91.469 66.7345 90.2052 68 88.6437 68C87.0995 68 85.8465 66.7345 85.8497 65.1888ZM100.156 65.1888C100.156 63.6242 101.403 62.3759 102.961 62.3759C104.509 62.3759 105.773 63.6289 105.773 65.1903C105.774 66.7345 104.509 68 102.966 67.9969C101.403 68 100.152 66.7345 100.156 65.1888ZM114.454 65.1888C114.454 63.6289 115.704 62.3759 117.265 62.3759C118.813 62.3759 120.076 63.6289 120.08 65.1888C120.076 66.7345 118.813 67.9969 117.265 68C115.705 68 114.455 66.7345 114.454 65.1888ZM128.761 65.1903C128.761 63.6289 130.026 62.3759 131.569 62.3806C133.129 62.3806 134.382 63.6289 134.382 65.1903C134.382 66.7314 133.129 67.9969 131.569 68C130.023 68 128.761 66.7345 128.761 65.1903ZM143.063 65.1903C143.063 63.6289 144.327 62.3759 145.876 62.3759C147.436 62.3759 148.684 63.6289 148.684 65.1888C148.684 66.7345 147.436 67.9969 145.876 68C144.327 68 143.061 66.7345 143.063 65.1903Z" fill="#FF9000"/>
<path d="M160.176 68.001C159.443 68.001 158.713 67.705 158.193 67.1678C157.673 66.651 157.363 65.9196 157.363 65.1882C157.363 64.4599 157.675 63.7269 158.193 63.2101C159.23 62.153 161.131 62.153 162.173 63.1929C162.69 63.7269 162.998 64.4599 162.998 65.1882C162.998 65.9196 162.69 66.651 162.17 67.1678C161.651 67.705 160.922 68.001 160.176 68.001Z" fill="#FF9000"/>
<path d="M2.81239 83.4648C2.08413 83.468 1.3496 83.1594 0.829638 82.6395C0.309675 82.1211 0.0136719 81.385 0.0136719 80.6567C0.0168042 79.9128 0.309675 79.1814 0.829638 78.663C1.88522 77.6262 3.75365 77.6231 4.8061 78.663C5.3245 79.1939 5.62363 79.9128 5.6205 80.6567C5.6205 81.3897 5.3245 82.1179 4.8061 82.6395C4.27361 83.1594 3.55631 83.468 2.81239 83.4648Z" fill="#FF9000"/>
<path d="M14.3203 80.657C14.3203 79.0971 15.5701 77.8489 17.13 77.8489C18.6789 77.8489 19.9381 79.0971 19.9381 80.657C19.9365 82.2028 18.6758 83.4683 17.13 83.4683C15.5701 83.4683 14.3172 82.2028 14.3203 80.657ZM28.624 80.6617C28.6209 79.0971 29.8722 77.8489 31.4321 77.8489C32.9779 77.8489 34.2434 79.0971 34.2434 80.657C34.2449 82.2028 32.981 83.4683 31.4321 83.4683C29.8722 83.4683 28.624 82.2059 28.624 80.6617ZM42.9277 80.6617C42.9261 79.0971 44.1743 77.8489 45.7405 77.8489C47.2831 77.8489 48.5486 79.0971 48.547 80.657C48.547 82.2028 47.2831 83.4683 45.7358 83.4683C44.1743 83.4683 42.9277 82.2028 42.9277 80.6617ZM57.2314 80.657C57.2314 79.0971 58.4937 77.8489 60.0379 77.8489C61.5994 77.8489 62.8491 79.0971 62.8507 80.6617C62.8507 82.2028 61.5994 83.4651 60.041 83.4683C58.4937 83.4683 57.2267 82.2028 57.2314 80.657ZM71.535 80.657C71.535 79.0971 72.7958 77.8489 74.3431 77.8489C75.9015 77.8489 77.1544 79.0971 77.1544 80.657C77.1528 82.2028 75.9015 83.4683 74.3431 83.4683C72.7958 83.4683 71.535 82.2059 71.535 80.657ZM85.8528 80.657C85.8528 79.0971 87.0995 77.8489 88.6453 77.8489C90.2051 77.8489 91.4565 79.0971 91.4565 80.657C91.4565 82.2059 90.2051 83.4683 88.6468 83.4683C87.0995 83.4683 85.8497 82.2028 85.8528 80.657ZM100.152 80.657C100.152 79.0971 101.402 77.8489 102.963 77.8489C104.506 77.8489 105.774 79.0971 105.774 80.657C105.773 82.2028 104.506 83.4683 102.963 83.4683C101.405 83.4683 100.152 82.2028 100.152 80.657ZM114.455 80.657C114.455 79.0971 115.707 77.8489 117.265 77.8489C118.814 77.8489 120.076 79.0971 120.076 80.657C120.076 82.2028 118.812 83.4683 117.265 83.4683C115.707 83.4683 114.455 82.1981 114.455 80.657ZM128.765 80.657C128.765 79.0971 130.026 77.8442 131.569 77.8489C133.115 77.8489 134.382 79.0971 134.382 80.657C134.382 82.1981 133.115 83.4651 131.569 83.4651C130.026 83.4683 128.759 82.2059 128.765 80.657ZM143.061 80.657C143.061 79.0971 144.327 77.8489 145.876 77.8489C147.432 77.8489 148.685 79.0971 148.684 80.657C148.684 82.2059 147.432 83.4683 145.876 83.4683C144.33 83.4683 143.063 82.2028 143.061 80.657Z" fill="#FF9000"/>
<path d="M160.176 83.4648C159.448 83.468 158.714 83.1594 158.194 82.6395C157.674 82.1211 157.365 81.3897 157.365 80.6567C157.364 79.9128 157.675 79.1971 158.194 78.663C159.249 77.6199 161.118 77.6231 162.17 78.663C162.692 79.1971 163 79.9128 163 80.6567C163 81.3897 162.69 82.1179 162.17 82.6395C161.65 83.1594 160.922 83.468 160.176 83.4648Z" fill="#FF9000"/>
<path d="M2.82691 98.4453C2.08298 98.4453 1.36255 98.1509 0.830061 97.6325C0.311664 97.1094 0.00469846 96.3811 0 95.6356C0.00469846 94.9027 0.311664 94.1744 0.830061 93.6544C1.88408 92.613 3.75407 92.613 4.80496 93.6576C5.32492 94.1744 5.62092 94.9074 5.62562 95.6356C5.62092 96.3811 5.32492 97.1125 4.80652 97.6325C4.27403 98.1524 3.55673 98.4453 2.82691 98.4453Z" fill="#FF9000"/>
<path d="M14.3193 95.6359C14.3178 94.0886 15.5691 92.8247 17.129 92.8247C18.6748 92.8278 19.9371 94.0917 19.9403 95.6359C19.9371 97.1942 18.6748 98.4456 17.129 98.4487C15.5738 98.4456 14.3193 97.1942 14.3193 95.6359ZM28.623 95.6359C28.623 94.0886 29.8744 92.8247 31.4358 92.8247C32.9801 92.8247 34.2424 94.0917 34.2424 95.6328C34.2424 97.1942 32.9801 98.4456 31.428 98.4456C29.8712 98.4456 28.623 97.1974 28.623 95.6359ZM42.9267 95.6359C42.9267 94.0886 44.1921 92.8247 45.7364 92.8247C47.2822 92.8247 48.5476 94.0917 48.5445 95.6359C48.5476 97.1942 47.2822 98.4487 45.7364 98.4456C44.1921 98.4487 42.9267 97.1974 42.9267 95.6359ZM57.2304 95.6359C57.2304 94.0917 58.4943 92.8247 60.0369 92.8247C61.5984 92.8247 62.8497 94.0886 62.8497 95.6359C62.8497 97.1974 61.5984 98.4456 60.0401 98.4456C58.4927 98.4456 57.2304 97.1942 57.2304 95.6359ZM71.5341 95.6359C71.5341 94.0886 72.7964 92.8247 74.3422 92.8247C75.9021 92.8247 77.1534 94.0917 77.1534 95.6391C77.1534 97.1942 75.9021 98.4456 74.3437 98.4487C72.7995 98.4456 71.5356 97.1942 71.5341 95.6359ZM85.8362 95.6359C85.8362 94.0917 87.1001 92.8247 88.6443 92.8247C90.2042 92.8247 91.4571 94.0886 91.4571 95.6359C91.4571 97.1974 90.2073 98.4456 88.6474 98.4456C87.1001 98.4456 85.8362 97.1942 85.8362 95.6359ZM100.157 95.6359C100.152 94.0917 101.404 92.8247 102.967 92.8247C104.509 92.8247 105.773 94.0886 105.773 95.6359C105.773 97.1974 104.508 98.4456 102.962 98.4456C101.404 98.4456 100.152 97.1942 100.157 95.6359ZM114.454 95.6359C114.456 94.0917 115.706 92.8247 117.264 92.8247C118.813 92.8278 120.075 94.0917 120.079 95.6359C120.075 97.1942 118.813 98.4456 117.264 98.4487C115.706 98.4487 114.456 97.1942 114.454 95.6359ZM128.758 95.6359C128.758 94.0886 130.024 92.8247 131.568 92.8247C133.117 92.8247 134.381 94.0917 134.381 95.6359C134.381 97.1942 133.115 98.4487 131.568 98.4487C130.027 98.4456 128.76 97.1942 128.758 95.6359ZM143.062 95.6359C143.062 94.0886 144.327 92.8247 145.875 92.8247C147.431 92.8247 148.684 94.0917 148.683 95.6359C148.683 97.1974 147.435 98.4456 145.875 98.4456C144.33 98.4487 143.062 97.1942 143.062 95.6359Z" fill="#FF9000"/>
<path d="M160.176 98.4453C159.448 98.4453 158.71 98.1509 158.193 97.6325C157.675 97.1 157.363 96.378 157.363 95.6356C157.363 94.9026 157.673 94.1744 158.193 93.6544C159.249 92.6098 161.117 92.6129 162.17 93.6544C162.688 94.1744 162.99 94.9073 162.986 95.6356C162.984 96.3811 162.691 97.1094 162.17 97.6325C161.634 98.1509 160.917 98.4484 160.176 98.4453Z" fill="#FF9000"/>
</svg>
