<svg width="22" height="24" viewBox="0 0 22 24" fill="none" xmlns="http://www.w3.org/2000/svg">
<path d="M1.84523 2.84157C1.7151 2.84328 1.58598 2.81878 1.46535 2.76953C1.34437 2.72014 1.23442 2.64687 1.14183 2.55411C1.04924 2.46136 0.975846 2.35097 0.925794 2.22941C0.875743 2.10786 0.85 1.97749 0.85 1.84587C0.85 1.71425 0.875743 1.58389 0.925794 1.46233C0.975846 1.34078 1.04924 1.23038 1.14183 1.13763C1.23442 1.04487 1.34437 0.971606 1.46535 0.922213C1.58598 0.872961 1.7151 0.848457 1.84523 0.850176H20.1548C20.2849 0.848457 20.414 0.87296 20.5347 0.922213C20.6556 0.971606 20.7656 1.04487 20.8582 1.13763C20.9508 1.23038 21.0242 1.34078 21.0742 1.46233C21.1243 1.58389 21.15 1.71425 21.15 1.84587C21.15 1.97749 21.1243 2.10786 21.0742 2.22941C21.0242 2.35097 20.9508 2.46136 20.8582 2.55411C20.7656 2.64687 20.6556 2.72014 20.5347 2.76953C20.414 2.81878 20.2849 2.84328 20.1548 2.84157H1.84523Z" fill="#3662C1" stroke="#3662C1" stroke-width="0.3"/>
<path d="M10.7531 23.1462L10.7648 23.1211C10.5867 23.0767 10.4232 22.9823 10.2938 22.847C10.1131 22.6579 10.0138 22.4042 10.0171 22.1416V7.6364L4.20516 13.5415C4.2049 13.5418 4.20465 13.5421 4.2044 13.5423C4.11313 13.6374 4.00393 13.7132 3.88316 13.765C3.76205 13.817 3.63182 13.8438 3.50019 13.8438H3.50015C3.30419 13.8438 3.1129 13.7843 2.95075 13.6734C2.78863 13.5625 2.66311 13.4052 2.58987 13.222C2.51663 13.0388 2.49887 12.8377 2.53876 12.6443C2.57858 12.4512 2.67414 12.2742 2.8136 12.136C2.81385 12.1358 2.8141 12.1355 2.81435 12.1353L10.2241 4.60667C10.3144 4.48887 10.4298 4.39297 10.5619 4.32629C10.6972 4.25804 10.8462 4.22228 10.9974 4.2219C11.1487 4.22152 11.2979 4.25653 11.4334 4.32412C11.5688 4.39159 11.6868 4.48966 11.7786 4.61058L11.7791 4.61108L11.7792 4.61094L11.7799 4.61189L19.1839 12.1348C19.1843 12.1351 19.1847 12.1355 19.185 12.1358C19.2785 12.2275 19.353 12.337 19.4043 12.458C19.4558 12.5793 19.4829 12.7098 19.4841 12.8419C19.4853 12.9739 19.4607 13.1049 19.4115 13.2272C19.3623 13.3496 19.2895 13.4609 19.1972 13.5546C19.105 13.6483 18.9952 13.7225 18.8742 13.7727C18.7531 13.823 18.6233 13.8483 18.4924 13.847C18.3615 13.8458 18.2322 13.818 18.1121 13.7654C17.9925 13.713 17.8844 13.6371 17.7942 13.5421L11.9817 7.63647V22.1416C11.9834 22.2741 11.9589 22.4057 11.9097 22.5286C11.8604 22.6519 11.7872 22.7639 11.6943 22.8582C11.6014 22.9524 11.4906 23.0268 11.3686 23.077C11.2466 23.1272 11.1158 23.152 10.984 23.1499L10.7531 23.1462Z" fill="#3662C1" stroke="#3662C1" stroke-width="0.3"/>
</svg>
