<svg width="377" height="279" viewBox="0 0 377 279" fill="none" xmlns="http://www.w3.org/2000/svg">
<path d="M197.205 126.414H17.8391V278H197.205V126.414Z" fill="#C7DCEA"/>
<path d="M183.195 139.081H31.8494V277.992H183.195V139.081Z" fill="#D9E9F6"/>
<path d="M188.979 205.169H27.5823V215.615H188.979V205.169Z" fill="#C7DCEA"/>
<path d="M176.615 159.511H168.13V205.169H176.615V159.511Z" fill="#C7DCEA"/>
<path d="M175.172 166.626H169.59V188.629H175.172V166.626Z" fill="#D9E9F6"/>
<path d="M168.13 146.123H160.464V205.169H168.13V146.123Z" fill="#AFCDDD"/>
<path d="M166.824 161.416H161.778V189.869H166.824V161.416Z" fill="#D9E9F6"/>
<path d="M166.824 194.674H161.778V201.854H166.824V194.674Z" fill="#D9E9F6"/>
<path d="M160.464 150.078H148.896V205.161H160.464V150.078Z" fill="#C7DCEA"/>
<path d="M158.492 159.673H150.883V186.222H158.492V159.673Z" fill="#AFCDDD"/>
<path d="M158.492 195.38H150.883V202.082H158.492V195.38Z" fill="#AFCDDD"/>
<path d="M160.464 190.825H148.896V192.04H160.464V190.825Z" fill="#AFCDDD"/>
<path d="M160.464 188.289H148.896V189.504H160.464V188.289Z" fill="#AFCDDD"/>
<path d="M183.195 154.551H176.624V205.169H183.195V154.551Z" fill="#AFCDDD"/>
<path d="M183.195 198.605H176.624V201.271H183.195V198.605Z" fill="#C7DCEA"/>
<path d="M182.067 160.557H177.743V184.95H182.067V160.557Z" fill="#C7DCEA"/>
<path d="M182.067 189.074H177.743V195.233H182.067V189.074Z" fill="#C7DCEA"/>
<path d="M175.31 197.6C175.31 198.178 175.138 198.744 174.816 199.225C174.494 199.706 174.037 200.081 173.502 200.303C172.967 200.524 172.378 200.582 171.81 200.469C171.242 200.356 170.72 200.078 170.31 199.669C169.901 199.259 169.622 198.738 169.509 198.171C169.396 197.603 169.454 197.015 169.675 196.48C169.897 195.946 170.272 195.489 170.754 195.167C171.236 194.846 171.802 194.674 172.381 194.674C173.158 194.674 173.903 194.983 174.452 195.531C175.001 196.08 175.31 196.824 175.31 197.6Z" fill="#D9E9F6"/>
<path d="M265.3 72.2496C258.973 71.1151 249.481 79.6243 253.424 102.145C257.367 124.666 265.633 151.88 275.595 151.685C285.557 151.491 284.795 130.858 281.98 114.528C279.165 98.1987 277.55 74.4296 265.3 72.2496Z" fill="#ED6966"/>
<path d="M262.25 68.935L261.439 66.2688C263.698 65.9981 265.915 65.4539 268.042 64.6479C269.47 68.3434 271.401 71.1312 274.403 72.1604C276.156 72.764 277.954 73.2274 279.781 73.5462C278.426 76.569 270.403 94.0979 264.944 92.0314C259.078 89.7947 264.189 76.2124 264.384 75.6532L262.25 68.935Z" fill="#FFC8AF"/>
<path d="M234.035 153.395C229.338 153.192 224.689 152.957 219.992 152.682C213.507 152.315 207.002 152.861 200.669 154.302C198.288 154.758 195.834 154.659 193.499 154.013C191.163 153.366 189.008 152.189 187.202 150.575C186.768 150.17 186.364 149.733 185.993 149.27L185.945 149.197C185.886 149.13 185.832 149.06 185.782 148.986C182.148 144.262 181.637 141.417 183.219 139.837C184.801 138.257 187.275 142.268 192.954 140.777C195.744 140.039 200.644 137.446 200.644 137.446C199.598 135.363 198.097 132.956 197.562 131.198C197.148 129.861 196.75 128.418 197.221 127.146C197.264 127.014 197.33 126.891 197.416 126.781C197.54 126.67 197.691 126.592 197.854 126.554C199.289 126.133 200.433 127.3 201.269 128.297C202.3 129.653 203.399 130.957 204.563 132.203C205.739 133.329 207.378 133.718 208.83 134.367C210.352 134.999 211.701 135.985 212.764 137.244C213.137 137.714 213.461 138.222 213.73 138.759L218.597 138.062L231.212 136.279C231.21 136.306 231.21 136.333 231.212 136.36L234.035 153.395Z" fill="#FFC8AF"/>
<path d="M229.379 135.461L233.386 155.98C233.386 155.98 267.548 153.817 276.512 151.58C285.476 149.343 286.028 129.334 268.156 130.21C250.284 131.085 229.379 135.461 229.379 135.461Z" fill="#ED6966"/>
<path d="M257.95 66.4954C259.112 66.4981 260.272 66.4223 261.423 66.2685L265.811 70.3854C265 71.3173 256.003 74.5427 248.159 78.4002L248.045 78.4732C244.8 73.4892 239.227 64.8584 236.323 56.7949C239.035 59.8493 242.365 62.2935 246.094 63.9658C249.822 65.638 253.863 66.5003 257.95 66.4954Z" fill="#232770"/>
<path d="M261.415 66.2687C263.466 65.7484 265.481 65.0987 267.45 64.3237L264.359 75.6694L261.415 66.2687Z" fill="#232770"/>
<path d="M268.018 64.6883C265.891 65.4942 263.673 66.0385 261.414 66.3091C260.263 66.4629 259.103 66.5387 257.942 66.536C250.739 66.5366 243.795 63.8486 238.472 58.9993C237.721 58.3188 237.009 57.5964 236.339 56.8355C235.798 55.346 235.348 53.8251 234.992 52.281C232.137 39.3876 244.646 23.917 244.646 23.917C244.646 23.917 253.732 30.7001 259.427 38.796C261.288 41.3011 262.676 44.1243 263.524 47.1269C265.057 53.3913 266.111 59.8421 268.018 64.6883Z" fill="#FFC8AF"/>
<path d="M377 277.165C370.927 278.141 364.813 278.753 358.683 279L295.083 278.771L271 278.67C271 278.67 271 278.514 271.065 278.202C271.624 274.404 275.421 248.651 277.227 234.844C314.971 242.018 363.465 223.78 368 222C373.215 243.78 376.336 269.991 377 277.165Z" fill="#3662C1"/>
<path d="M361.222 204.288C354.553 192.392 351.13 184.944 348.728 177.059C345.565 168.234 342.32 151.069 342.32 151.069L274.492 158.63C274.492 158.63 278.296 178.202 279.278 185.276C282.393 208.421 279.035 220.602 277.477 231.72C277.339 232.669 277.185 233.738 277.023 234.905C314.835 241.243 363.915 225.132 368.458 223.56C366.454 216.169 364.053 209.337 361.222 204.288Z" fill="#E75755"/>
<path d="M296.314 229.654C292.469 229.654 288.494 229.565 284.357 229.394C284.303 229.392 284.251 229.38 284.202 229.357C284.154 229.335 284.111 229.304 284.074 229.264C284.038 229.225 284.01 229.179 283.992 229.129C283.973 229.079 283.965 229.026 283.967 228.973C283.969 228.92 283.982 228.868 284.004 228.819C284.026 228.771 284.058 228.727 284.097 228.691C284.136 228.655 284.182 228.627 284.232 228.609C284.283 228.59 284.336 228.582 284.389 228.584C310.349 229.654 330.038 227.409 348.258 221.29C348.309 221.273 348.363 221.265 348.417 221.269C348.471 221.272 348.524 221.287 348.572 221.311C348.621 221.335 348.664 221.369 348.699 221.41C348.734 221.451 348.761 221.498 348.777 221.55C348.808 221.652 348.799 221.762 348.75 221.857C348.702 221.952 348.619 222.025 348.518 222.06C333.112 227.239 316.66 229.654 296.314 229.654Z" fill="#ED6966"/>
<path d="M311.274 151.872L294.895 154.303L295.122 155.688L274.516 158.606C272.415 151.029 269.649 147.471 263.913 144.173C261.747 142.925 259.8 141.912 258.064 140.98C251.996 137.738 248.41 135.501 245.985 128.102C243.032 119.188 261.747 80.3779 263.889 75.9774C264.124 75.8234 264.278 75.71 264.335 75.6857C264.14 76.2448 260.084 90.1108 263.524 91.1238C271.75 93.555 278.41 76.6014 279.749 73.5786C284.318 74.4467 288.995 74.6053 293.613 74.0486C287.431 82.6794 301.368 110.93 302.009 112.445C308.361 127.276 315.362 151.248 315.362 151.248L311.274 151.872Z" fill="#E75755"/>
<path d="M299.202 174.773C293.832 174.546 281.079 175.397 275.676 175.089C274.492 175.016 273.307 174.976 272.123 174.96C266.701 174.924 261.29 175.434 255.971 176.483C254.754 176.718 253.635 177.132 252.41 177.294C251.12 177.503 249.814 177.603 248.508 177.594C245.433 177.591 242.373 177.168 239.414 176.337C238.909 176.209 238.458 175.926 238.124 175.527C238.065 175.454 238.022 175.369 237.998 175.278C237.974 175.188 237.97 175.093 237.986 175C238.065 174.817 238.21 174.67 238.391 174.587C239.364 174.167 240.43 174.011 241.482 174.133C239.766 173.752 238.106 173.153 236.542 172.35C236.092 172.147 235.688 171.857 235.351 171.496C235.014 171.136 234.751 170.713 234.579 170.251C234.526 170.056 234.541 169.848 234.622 169.663C234.703 169.477 234.845 169.324 235.025 169.23C233.816 168.525 231.601 167.034 232.007 165.373C232.093 165.041 232.268 164.738 232.512 164.497C232.756 164.256 233.061 164.085 233.394 164.003C233.173 163.756 233.025 163.452 232.968 163.126C232.91 162.799 232.946 162.463 233.07 162.155C233.153 161.939 233.293 161.749 233.475 161.604C233.89 161.365 234.371 161.269 234.846 161.329C236.282 161.369 237.653 161.669 239.081 161.831C241.055 161.948 243.036 161.801 244.971 161.394C248.159 160.583 253.651 157.731 253.651 157.731C252.466 155.356 250.755 152.601 250.138 150.599C249.668 149.076 249.205 147.422 249.749 145.931C249.792 145.78 249.87 145.641 249.976 145.526C250.113 145.392 250.284 145.3 250.471 145.259C252.093 144.78 253.416 146.069 254.373 147.252C255.545 148.803 256.799 150.291 258.129 151.709C259.476 152.99 261.374 153.435 262.996 154.181C264.732 154.888 266.273 155.999 267.491 157.423C267.916 157.962 268.286 158.543 268.594 159.157L274.2 158.347L296.046 155.178C296.044 155.208 296.044 155.237 296.046 155.267L299.202 174.773Z" fill="#FFC8AF"/>
<path d="M249.643 165.664C248.281 166.097 246.91 166.467 245.53 166.775C244.833 166.937 244.135 167.066 243.437 167.196C242.714 167.341 241.977 167.406 241.239 167.391C239.793 167.264 238.374 166.922 237.029 166.378C235.66 165.913 234.425 165.12 233.435 164.068C234.593 164.853 235.877 165.434 237.231 165.786C238.553 166.193 239.912 166.464 241.288 166.596C241.97 166.616 242.652 166.564 243.324 166.442L245.417 166.159C246.812 165.956 248.216 165.794 249.643 165.664Z" fill="#E8A289"/>
<path d="M251.071 169.822C249.767 170.263 248.44 170.637 247.096 170.94C245.761 171.266 244.406 171.507 243.04 171.661C241.623 171.681 240.213 171.474 238.862 171.045C237.51 170.7 236.233 170.107 235.098 169.295C236.359 169.813 237.673 170.19 239.016 170.421C239.681 170.551 240.347 170.673 241.012 170.746C241.661 170.851 242.319 170.889 242.975 170.859C244.297 170.737 245.66 170.511 247.031 170.332C248.402 170.154 249.7 169.959 251.071 169.822Z" fill="#E8A289"/>
<path d="M252.499 173.388C251.364 173.95 250.18 174.405 248.962 174.749C248.352 174.927 247.731 175.068 247.104 175.171C246.453 175.3 245.786 175.336 245.125 175.276C243.873 175.054 242.639 174.74 241.434 174.336C240.241 173.947 239.057 173.526 237.896 173.031C239.138 173.266 240.33 173.526 241.588 173.785C242.845 174.044 244.021 174.336 245.222 174.49C246.427 174.492 247.627 174.354 248.8 174.077C250.025 173.842 251.25 173.599 252.499 173.388Z" fill="#E8A289"/>
<path d="M347.625 163.93C346.814 166.694 344.275 168.89 340.721 170.632C327.815 176.969 297.474 177.318 297.474 177.318L297.239 175.884L296.72 172.739L293.71 154.294L314.186 150.113C314.186 150.113 301.401 116.278 296.338 104.479C292.331 95.0622 287.666 81.1719 293.304 73.3029C296.37 72.9648 299.312 71.9037 301.887 70.2072C303.242 69.259 304.508 68.4324 305.635 67.6382C317.082 67.8408 325.105 81.0827 329.056 90.3294C331.116 95.1918 335.035 104.69 338.426 114.925C342.644 127.673 349.621 156.831 347.625 163.93Z" fill="#ED6966"/>
<path d="M357.019 224.086C356.935 224.086 356.853 224.059 356.784 224.009C356.716 223.96 356.665 223.891 356.638 223.811C354.326 217.157 350.57 211.266 346.944 205.577C344.094 201.305 341.523 196.855 339.245 192.254C337.574 188.704 336 185.041 334.499 181.508C333.38 178.866 332.211 176.143 331.019 173.485C330.975 173.387 330.972 173.276 331.01 173.176C331.048 173.075 331.124 172.994 331.222 172.95C331.32 172.906 331.431 172.903 331.531 172.941C331.632 172.979 331.713 173.055 331.757 173.153C332.958 175.819 334.126 178.55 335.245 181.184C336.754 184.717 338.32 188.372 339.975 191.905C342.242 196.481 344.8 200.906 347.633 205.155C351.284 210.893 355.056 216.817 357.409 223.568C357.442 223.669 357.435 223.779 357.388 223.874C357.341 223.97 357.258 224.043 357.157 224.078C357.112 224.089 357.065 224.091 357.019 224.086Z" fill="#ED6966"/>
<path d="M236.315 56.795C239.333 61.8762 250.236 71.3822 253.805 71.6334C257.375 71.8847 268.018 64.6883 268.018 64.6883L247.226 45.1738L236.315 56.795Z" fill="#FFC8AF"/>
<path d="M279.74 73.6353L278.824 73.457C276.678 73.0777 274.615 72.332 272.723 71.2527C270.233 69.7048 269.04 67.3303 268.018 64.6884C266.111 59.826 265.057 53.3914 263.515 47.0784C260.79 35.9516 244.622 23.8604 244.622 23.8604C244.622 23.8604 232.112 39.3472 234.968 52.2245C235.324 53.7685 235.774 55.2894 236.315 56.7789C239.219 64.8424 244.8 73.4732 248.037 78.4572C248.499 79.1703 248.97 79.8916 249.424 80.6128C249.789 81.1882 250.114 81.8689 249.481 82.42C249.141 82.6781 248.747 82.8555 248.329 82.9387L247.25 83.2304C246.898 83.3324 246.541 83.4136 246.179 83.4735C245.822 83.5223 245.461 83.5467 245.1 83.5465C242.684 83.6527 240.263 83.4731 237.888 83.0116C236.308 82.6251 234.804 81.9729 233.443 81.0829C231.394 79.7836 229.666 78.0382 228.389 75.9773C227.079 73.8134 226.105 71.4635 225.501 69.0079C224.814 66.242 224.345 63.4268 224.097 60.5878C223.789 57.5002 223.635 54.3963 223.489 51.2925C223.343 48.1887 223.213 44.8822 222.986 41.6811C221.98 27.3694 227.991 11.2506 240.419 3.13844C243.65 1.11967 247.376 0.0336692 251.187 0.000770316C254.997 -0.0321286 258.742 0.989356 262.007 2.95205C263.451 1.41228 265.795 1.15296 267.904 1.33124C273.307 1.76076 278.402 4.35405 282.434 7.97654C287.65 12.6607 290.449 18.844 294.229 24.5736C298.756 31.4133 305.7 35.5626 311.006 41.6649C315.873 47.281 317.731 54.218 314.461 61.1146C308.856 72.9464 291.284 75.8234 279.74 73.6353Z" fill="#232770"/>
<path d="M202.234 139.877C202.234 139.877 204.741 143.257 207.021 143.857L204.676 144.918L202.234 139.877Z" fill="#E8A289"/>
<path d="M304.191 175.17C304.097 175.172 304.006 175.14 303.933 175.081C303.86 175.022 303.811 174.939 303.793 174.846L299.786 154.716C299.775 154.663 299.775 154.608 299.786 154.555C299.796 154.501 299.817 154.451 299.847 154.406C299.877 154.361 299.916 154.322 299.961 154.292C300.006 154.261 300.057 154.24 300.11 154.23C300.164 154.219 300.218 154.219 300.272 154.23C300.325 154.24 300.376 154.261 300.421 154.291C300.466 154.321 300.505 154.36 300.535 154.405C300.565 154.45 300.586 154.501 300.597 154.554L304.605 174.684C304.615 174.737 304.615 174.791 304.605 174.844C304.594 174.897 304.573 174.947 304.543 174.991C304.512 175.036 304.474 175.074 304.429 175.103C304.384 175.133 304.333 175.153 304.28 175.162L304.191 175.17Z" fill="#E75755"/>
<path d="M238.27 153.055C238.178 153.054 238.089 153.022 238.017 152.965C237.945 152.907 237.894 152.828 237.872 152.738L234.149 136.182C234.137 136.13 234.135 136.077 234.144 136.025C234.154 135.972 234.173 135.923 234.202 135.878C234.23 135.833 234.268 135.795 234.312 135.765C234.355 135.735 234.405 135.714 234.457 135.704C234.508 135.692 234.561 135.69 234.613 135.699C234.665 135.707 234.714 135.726 234.759 135.754C234.803 135.782 234.842 135.818 234.872 135.861C234.902 135.904 234.924 135.952 234.935 136.004L238.667 152.56C238.679 152.612 238.681 152.666 238.672 152.719C238.663 152.772 238.643 152.822 238.614 152.867C238.586 152.913 238.548 152.952 238.505 152.982C238.461 153.013 238.411 153.035 238.359 153.046L238.27 153.055Z" fill="#E75755"/>
<path d="M265.252 95.8888C264.311 95.8878 263.372 95.7846 262.453 95.5808C262.349 95.5575 262.257 95.4946 262.198 95.4055C262.139 95.3163 262.117 95.2078 262.137 95.1027C262.162 94.9978 262.226 94.9065 262.317 94.8477C262.408 94.7889 262.517 94.7671 262.623 94.7866C270.849 96.5614 277.421 90.0782 282.231 75.5639C282.266 75.4634 282.34 75.3806 282.435 75.3336C282.531 75.2866 282.641 75.2791 282.742 75.3127C282.793 75.3283 282.841 75.354 282.882 75.3884C282.923 75.4228 282.957 75.4651 282.981 75.5128C283.005 75.5604 283.02 75.6125 283.023 75.6659C283.027 75.7192 283.019 75.7728 283.002 75.8233C278.605 89.1544 272.659 95.8888 265.252 95.8888Z" fill="#ED6966"/>
<path d="M249.578 82.7849C254.527 80.7994 257.107 75.2968 261.585 72.4117C261.999 72.1443 262.493 71.7472 262.356 71.2772C262.218 70.8072 261.439 70.7504 260.895 70.8801L251.826 72.9952C247.81 73.9353 243.64 74.9402 240.42 77.5173C239.606 78.098 238.969 78.8916 238.578 79.8107C236.801 84.8352 247.202 83.725 249.578 82.7849Z" fill="#232770"/>
<path d="M158.242 117.26L188.818 112.673L205.156 146.378L170.735 152.424L158.242 117.26Z" fill="#A5B7C6"/>
<path d="M188.703 112.891L204.863 146.223L170.872 152.196L158.517 117.421L188.703 112.891ZM188.938 112.454L157.965 117.097L170.604 152.65L205.488 146.531L188.971 112.494L188.938 112.454Z" fill="#F9FBFC"/>
<path d="M295.008 239.484C295.008 239.484 291.382 234.897 296.947 225.375C302.512 215.852 313.983 213.559 314.51 214.791C315.037 216.023 308.685 218.405 306.925 225.723C305.165 233.041 304.921 237.069 302.715 239.305C300.508 241.542 297.507 242.433 295.008 239.484Z" fill="#2270E0"/>
<path d="M296.476 238.065H296.379C296.29 238.037 296.215 237.976 296.17 237.894C296.125 237.813 296.112 237.718 296.135 237.627C296.298 237.044 300.192 223.299 307.347 218.056C307.383 218.027 307.424 218.005 307.469 217.993C307.514 217.981 307.56 217.978 307.606 217.985C307.652 217.992 307.696 218.008 307.735 218.033C307.774 218.058 307.808 218.091 307.833 218.129C307.862 218.166 307.882 218.208 307.894 218.254C307.906 218.299 307.908 218.346 307.901 218.392C307.895 218.438 307.879 218.482 307.854 218.522C307.83 218.562 307.798 218.596 307.76 218.623C300.792 223.729 296.857 237.676 296.817 237.814C296.795 237.887 296.75 237.952 296.689 237.997C296.627 238.042 296.553 238.066 296.476 238.065Z" fill="#AFCDDD"/>
<path d="M291.211 239.127C291.211 239.127 293.264 234.808 287.098 228.219C280.933 221.63 271.36 221.89 271.158 222.968C270.955 224.046 276.463 224.799 279.205 230.318C281.947 235.837 282.872 239.022 285.03 240.383C287.188 241.745 289.735 241.899 291.211 239.127Z" fill="#2270E0"/>
<path d="M287.966 239.783C287.836 239.71 287.771 239.524 287.577 238.908C285.338 232.036 281.995 227.481 277.639 225.35C277.6 225.331 277.565 225.305 277.537 225.273C277.508 225.241 277.486 225.204 277.471 225.163C277.457 225.122 277.451 225.079 277.453 225.036C277.455 224.993 277.466 224.951 277.485 224.912C277.504 224.873 277.53 224.839 277.562 224.81C277.594 224.781 277.631 224.759 277.672 224.745C277.713 224.73 277.756 224.724 277.799 224.727C277.842 224.729 277.884 224.74 277.923 224.758C282.45 226.971 285.897 231.663 288.193 238.705C288.274 238.957 288.356 239.208 288.396 239.297C288.426 239.334 288.448 239.377 288.459 239.423C288.47 239.47 288.471 239.518 288.461 239.564C288.453 239.606 288.437 239.647 288.414 239.683C288.39 239.718 288.36 239.749 288.325 239.773C288.289 239.798 288.249 239.814 288.207 239.823C288.165 239.832 288.122 239.832 288.08 239.824L287.966 239.783Z" fill="#AFCDDD"/>
<path d="M298.05 239.127C298.05 239.127 295.998 234.808 302.163 228.219C308.328 221.63 317.901 221.89 318.104 222.968C318.307 224.046 312.798 224.799 310.056 230.318C307.314 235.837 306.39 239.022 304.232 240.383C302.074 241.745 299.518 241.899 298.05 239.127Z" fill="#AFCDDD"/>
<path d="M301.263 239.783C301.384 239.71 301.449 239.524 301.644 238.908C303.883 232.036 307.225 227.481 311.582 225.35C311.62 225.331 311.655 225.305 311.684 225.273C311.713 225.241 311.735 225.204 311.749 225.163C311.764 225.122 311.77 225.079 311.767 225.036C311.765 224.993 311.754 224.951 311.736 224.912C311.717 224.873 311.691 224.839 311.659 224.81C311.627 224.781 311.589 224.759 311.549 224.745C311.508 224.73 311.465 224.724 311.422 224.727C311.379 224.729 311.336 224.74 311.298 224.758C306.771 226.971 303.323 231.663 301.027 238.705C300.946 238.957 300.865 239.208 300.824 239.297C300.794 239.334 300.773 239.377 300.761 239.423C300.75 239.47 300.749 239.518 300.76 239.564C300.777 239.648 300.827 239.722 300.898 239.771C300.969 239.819 301.056 239.838 301.141 239.824L301.263 239.783Z" fill="#2270E0"/>
<path d="M295.527 241.275C295.527 241.275 302.552 236.169 297.75 224.872C292.947 213.575 278.231 210.018 277.42 211.29C276.609 212.562 282.466 216.412 283.391 224.743C284.316 233.074 284.884 237.263 287.009 240.011C289.134 242.758 292.355 244.144 295.527 241.275Z" fill="#AFCDDD"/>
<path d="M292.022 239.914C291.95 239.897 291.885 239.859 291.835 239.804C291.786 239.748 291.755 239.679 291.746 239.606C291.73 239.485 291.73 239.362 291.746 239.241C292.322 234.67 293.304 219.337 281.833 213.835C281.765 213.789 281.715 213.721 281.693 213.642C281.671 213.562 281.679 213.478 281.714 213.404C281.75 213.33 281.811 213.271 281.887 213.239C281.962 213.206 282.047 213.202 282.125 213.227C294.002 218.9 293.004 234.646 292.412 239.322C292.412 239.452 292.412 239.533 292.412 239.565C292.417 239.608 292.414 239.651 292.402 239.693C292.39 239.734 292.37 239.773 292.343 239.806C292.316 239.84 292.282 239.867 292.243 239.887C292.205 239.907 292.163 239.919 292.12 239.922L292.022 239.914Z" fill="#2270E0"/>
<path d="M281.338 240.156H306.349V259.241C306.349 260.808 305.726 262.311 304.617 263.419C303.508 264.527 302.003 265.149 300.435 265.149H287.252C285.684 265.149 284.18 264.527 283.071 263.419C281.961 262.311 281.338 260.808 281.338 259.241V240.156Z" fill="#A5B7C6"/>
<path d="M128.687 145.534C136.864 152.925 140.702 165.632 145.026 176.208C150.128 188.664 154.923 201.331 159.798 213.94C161.34 217.936 162.905 221.996 163.392 226.299C163.968 231.332 162.743 237.88 158.525 240.116C156.219 241.368 153.622 241.983 150.999 241.898C148.377 241.812 145.824 241.03 143.606 239.63C134.496 234.055 129.531 223.155 125.937 212.425C123.033 203.778 119.755 195.253 116.656 186.687C113.971 179.255 111.245 171.67 110.621 163.712C109.98 155.519 113.111 141.239 121.978 142.082C124.412 142.309 126.635 143.703 128.59 145.47L128.687 145.534Z" fill="#6D89CF"/>
<path d="M138.617 219.856C142.762 216.882 149.463 214.475 154.314 215.415C162.427 216.996 169.947 221.834 177.159 225.691C186.082 230.481 194.527 237.361 202.526 243.626C202.816 243.821 203.064 244.071 203.256 244.363C203.475 244.83 203.543 245.354 203.451 245.862C203.226 248.211 202.488 250.481 201.29 252.514C200.091 254.548 198.462 256.293 196.515 257.629C195.541 258.286 194.227 259.064 193.01 258.837C191.574 258.577 190.106 257.962 188.695 257.573C187.99 257.341 187.254 257.223 186.512 257.224C185.934 257.291 185.362 257.402 184.801 257.556C181.856 258.188 178.822 257.257 175.999 256.219C171.485 254.567 167.077 252.64 162.8 250.449C160.636 249.336 158.514 248.161 156.431 246.924C154.476 245.765 152.375 244.857 150.38 243.682C148.757 242.731 147.159 241.743 145.585 240.716C143.022 239.166 140.708 237.237 138.722 234.995C136.41 232.183 134.187 227.409 135.518 223.771C136.13 222.183 137.211 220.818 138.617 219.856Z" fill="#6D89CF"/>
<path d="M118.141 224.192C120.964 217.052 123.755 209.88 126.148 203.438C129.677 193.948 132.338 186.063 133.011 182.367C135.445 168.655 125.394 148.695 125.394 148.695C122.327 149.781 115.659 144.538 115.659 144.538L111.116 151.191C93.3659 154.733 85.651 136.539 86.2919 134.092C86.746 132.911 87.3082 131.774 87.9712 130.696L87.8333 130.607C69.6534 130.331 58.1581 141.799 55.5215 144.724C61.687 139.781 68.6231 138.16 77.2385 141.604C97.1544 149.57 76.8734 181.97 72.5251 190.479C70.9027 193.721 68.7204 197.546 66.7085 201.015C56.6487 202.728 46.9674 206.189 38.1042 211.242L33.7721 216.145C30.1053 219.492 28.2313 224.476 27.8744 229.419C27.5175 234.363 28.5558 239.314 29.9917 244.055C30.4785 245.676 31.0301 247.297 31.6629 248.917C23.153 246.697 19.3888 243.544 17.3201 238.382C12.5014 251.243 6.5144 266.86 6.5144 266.86H99.864C99.864 266.86 103.636 259.834 107.1 251.462L118.141 224.192Z" fill="#3662C1"/>
<path d="M163.847 238.763C163.837 238.912 163.781 239.055 163.686 239.171C163.592 239.287 163.464 239.371 163.319 239.411C163.363 239.831 163.272 240.254 163.06 240.619C162.954 240.8 162.79 240.942 162.594 241.02C162.399 241.097 162.183 241.107 161.981 241.048C161.878 240.989 161.765 240.948 161.648 240.927C161.507 240.951 161.376 241.013 161.267 241.105C160.818 241.34 160.3 241.406 159.807 241.291C158.841 241.016 157.926 240.586 157.097 240.019C156.213 239.549 155.329 239.063 154.412 238.666C152.555 237.725 150.423 237.478 148.401 237.969C142.032 239.849 139.169 245.781 134.131 246.478C130.949 246.864 127.721 246.411 124.769 245.165C126.692 240.003 127.511 232.547 127.795 229.37H127.909C127.909 229.37 140.402 226.412 142.276 225.869C145.732 224.848 150.047 224.167 152.449 225.383C153.846 226.147 155.148 227.075 156.326 228.147C159.377 230.732 162.759 234.071 163.757 238.082C163.824 238.303 163.854 238.533 163.847 238.763Z" fill="#FFC8AF"/>
<path d="M146.121 232.556C147.912 232.404 149.711 232.358 151.507 232.418C151.962 232.418 152.408 232.418 152.862 232.466L153.543 232.531L153.9 232.58C154.041 232.617 154.177 232.668 154.306 232.734C155.116 233.169 155.887 233.673 156.61 234.241C158.07 235.319 159.428 236.529 160.666 237.856C160.972 238.196 161.259 238.553 161.526 238.925C161.857 239.305 162.051 239.784 162.078 240.287C162.051 240.55 161.94 240.797 161.761 240.992C161.584 241.169 161.358 241.29 161.112 241.34C160.66 241.426 160.194 241.409 159.749 241.292C160.188 241.317 160.628 241.262 161.047 241.13C161.239 241.085 161.408 240.973 161.523 240.813C161.638 240.654 161.691 240.458 161.672 240.262C161.597 239.872 161.401 239.515 161.112 239.241C160.829 238.908 160.525 238.591 160.204 238.293C158.911 237.087 157.557 235.948 156.148 234.881C155.464 234.341 154.746 233.845 153.998 233.398C153.929 233.362 153.859 233.329 153.787 233.301L153.47 233.244L152.821 233.155L151.499 233.009C149.698 232.839 147.905 232.709 146.121 232.556Z" fill="#E8A289"/>
<path d="M146.445 229.59C148.408 229.379 150.388 229.379 152.351 229.59C152.846 229.63 153.333 229.679 153.827 229.752C154.339 229.815 154.843 229.934 155.328 230.108C156.262 230.505 157.147 231.008 157.965 231.608C159.587 232.773 161.005 234.2 162.159 235.83C162.783 236.634 163.241 237.554 163.505 238.537C163.597 239.048 163.561 239.574 163.4 240.068C163.331 240.311 163.208 240.535 163.041 240.724C162.874 240.914 162.667 241.063 162.435 241.162C162.807 240.871 163.075 240.468 163.198 240.012C163.321 239.556 163.292 239.072 163.116 238.634C162.794 237.737 162.301 236.912 161.664 236.203C160.455 234.705 159.05 233.378 157.486 232.256C156.732 231.684 155.916 231.2 155.052 230.813C154.153 230.518 153.226 230.311 152.286 230.197C151.321 230.043 150.355 229.922 149.382 229.825C148.407 229.697 147.427 229.619 146.445 229.59Z" fill="#E8A289"/>
<path d="M146.445 226.745C147.943 226.588 149.449 226.512 150.956 226.518C151.71 226.518 152.456 226.518 153.219 226.591C153.592 226.591 153.973 226.664 154.355 226.704C154.791 226.744 155.217 226.862 155.612 227.053C155.922 227.3 156.212 227.571 156.48 227.863L157.291 228.674C157.802 229.225 158.322 229.759 158.817 230.294C159.822 231.407 160.785 232.558 161.705 233.747C160.553 232.774 159.438 231.769 158.362 230.732L156.74 229.184L155.928 228.374C155.671 228.124 155.401 227.888 155.117 227.669C154.992 227.612 154.862 227.568 154.728 227.539L154.209 227.442C153.852 227.385 153.487 227.344 153.113 227.304C152.383 227.223 151.637 227.166 150.899 227.101C149.428 227.02 147.943 226.901 146.445 226.745Z" fill="#E8A289"/>
<path d="M227.934 258.213C227.843 258.758 227.554 259.251 227.123 259.598C225.72 260.709 224.389 260.06 222.913 258.926C220.714 257.24 218.208 254.46 214.695 254.752C208.814 255.247 205.26 259.898 200.75 259.615C197.505 259.404 192.159 257.848 191.907 253.869C191.761 251.608 192.921 248.869 194.122 247.005C196.718 243.001 201.018 243.552 205.204 243.415C207.313 243.342 209.438 243.326 211.539 243.155C214.727 242.888 218.613 243.066 220.463 244.557C222.962 246.551 228.794 254.404 227.934 258.213Z" fill="#FFC8AF"/>
<path d="M113.736 190.609L112.982 187.627C110.823 180.153 107.886 172.925 104.22 166.062C101.251 160.389 96.7002 154.433 92.6764 149.157C87.809 142.795 84.0123 137.811 83.4364 134.319L83.2822 133.435L84.0935 133.03C84.5802 132.795 96.0836 127.179 105.746 130.964C116.486 135.17 120.437 150.17 120.559 161.759C120.721 177.78 115.448 187.53 115.221 187.943L113.736 190.609ZM86.0648 134.805C87.087 137.795 90.7538 142.617 94.6153 147.69C98.6715 153.039 103.312 159.109 106.378 164.927C109.576 170.984 112.255 177.301 114.385 183.81C117.001 176.758 118.27 169.278 118.125 161.759C118.003 150.097 113.858 136.75 104.853 133.225C97.6331 130.396 88.8555 133.622 86.0648 134.805Z" fill="#3662C1"/>
<path d="M127.178 227.328C127.362 227.449 127.521 227.603 127.649 227.782C127.851 228.144 127.963 228.55 127.973 228.965C128.225 231.485 127.543 234.184 127.113 236.68C126.586 239.727 126.123 243.098 124.955 245.967C124.856 246.36 124.636 246.711 124.326 246.971C124.016 247.231 123.631 247.388 123.227 247.418C120.453 247.937 117.338 247.191 114.945 248.674C114.231 249.12 113.638 249.728 112.949 250.206C111.124 251.462 109.16 251.154 107.1 251.405C94.6635 252.864 76.8649 254.136 58.9851 252.653C29.4965 250.222 20.8568 247.313 17.3116 238.333C16.9138 237.337 16.5805 236.317 16.3138 235.278C14.4074 227.985 16.257 216.226 21.3273 202.36C21.3338 202.328 21.3338 202.294 21.3273 202.262C24.5553 193.585 28.4444 185.167 32.9605 177.083C40.5537 163.306 47.3357 151.215 55.4238 144.764H55.4643C61.6298 139.821 68.5659 138.2 77.1813 141.644C97.0973 149.611 76.8162 182.01 72.468 190.52C70.4642 194.45 68.2657 198.283 66.0429 202.092C63.739 206.039 60.9727 209.669 58.8472 213.754L61.8001 214.459L61.9705 217.303C61.9705 217.919 75.2586 219.791 76.6296 219.905C81.6025 220.342 86.5755 220.975 91.5403 221.526L102.743 222.685C106.313 223.057 109.915 223.3 113.452 223.933L114.677 224.168C115.106 224.226 115.522 224.355 115.91 224.548C116.226 224.727 116.486 224.978 116.786 225.172C117.537 225.576 118.368 225.806 119.22 225.845C121.437 226.137 123.638 226.504 125.823 226.947C126.294 226.994 126.752 227.123 127.178 227.328Z" fill="#6D89CF"/>
<path d="M111.116 151.191C111.116 151.191 116.794 150.267 119.374 148.484C121.954 146.702 119.115 135.996 115.245 136.466C111.375 136.936 110.718 148.298 110.718 148.298L111.116 151.191Z" fill="#6D89CF"/>
<path d="M118.287 145.186C115.099 135.526 107.117 125.955 99.3206 121.166C91.5246 116.376 73.4745 118.896 68.4204 121.376C63.3664 123.856 95.3699 143.816 95.3699 143.816L109.007 151.669L115.618 149.165L118.287 145.186Z" fill="#6D89CF"/>
<path d="M91.9867 123.978C91.7596 122.965 94.5502 115.874 95.9942 108.337C97.6167 99.7713 98.5983 91.5052 104.374 85.1678C110.15 78.8305 116.851 72.5499 125.824 72.2014C126.892 72.1173 127.965 72.2897 128.952 72.7042C129.94 73.1187 130.815 73.7632 131.502 74.584C133.879 72.3878 137.716 73.1982 140.621 74.6326C148.506 78.5387 162.605 99.1473 162.743 99.6578C163.215 104.14 161.962 108.634 159.239 112.227C156.188 116.279 151.735 118.062 148.319 121.782C148.714 118.962 149.109 116.147 149.504 113.337C150.356 107.276 146.178 105.695 142.016 102.437C141.505 102.04 134.22 96.3919 134.48 95.9543C134.48 95.9543 128.866 105.598 126.821 106.141C124.777 106.684 121.954 103.71 121.248 103.961C120.542 104.212 118.49 108.718 116.9 110.388C115.31 112.057 113.817 114.286 112.195 113.329C110.572 112.373 112.333 110.023 113.817 107.397C115.302 104.771 111.789 99.7956 108.95 100.209C106.808 100.525 104.78 103.11 103.693 104.78C102.225 107.041 100.902 111.141 102.663 113.613C102.713 113.652 102.754 113.701 102.782 113.758C102.81 113.815 102.825 113.878 102.825 113.941C102.825 114.005 102.81 114.067 102.782 114.124C102.754 114.181 102.713 114.231 102.663 114.269C100.935 116.206 99.15 118.111 97.3328 119.942C96.4621 120.961 95.5098 121.906 94.4853 122.77C94.2501 122.941 92.0516 123.962 92.0516 124.027C92.0286 124.012 92.0069 123.996 91.9867 123.978Z" fill="#232770"/>
<path d="M152.489 109.22C151.609 114.353 149.876 119.303 147.362 123.864C141.724 133.937 132.678 143.419 127.892 147.106C127.144 147.738 126.311 148.262 125.418 148.662C122.351 149.748 115.683 144.505 115.683 144.505L111.116 151.191C93.3657 154.732 85.6508 136.539 86.2917 134.091C86.7458 132.91 87.3079 131.774 87.9709 130.696C91.3051 124.82 95.0125 119.172 98.5982 113.45C100.359 110.646 102.014 107.778 103.612 104.917C104.553 103.207 106.857 100.541 108.933 100.241C111.797 99.8276 115.326 104.812 113.801 107.429C112.276 110.047 110.556 112.413 112.178 113.361C113.801 114.31 115.302 112.097 116.884 110.42C118.465 108.742 120.55 104.269 121.232 103.993C121.913 103.718 124.777 106.708 126.805 106.173C128.833 105.638 134.463 95.9863 134.463 95.9863C134.463 95.9863 144.295 105.436 152.311 109.172C152.365 109.202 152.426 109.219 152.489 109.22Z" fill="#FFC8AF"/>
<path d="M115.618 144.505L111.116 151.191C107.603 144.959 102.744 134.756 102.436 134.124C106.387 138.111 110.815 141.598 115.618 144.505Z" fill="#E8A289"/>
<path d="M111.643 106.141C111.641 105.63 111.479 105.134 111.179 104.72C110.879 104.307 110.457 103.999 109.972 103.839C109.325 103.717 108.656 103.826 108.082 104.147C106.459 104.958 105.534 106.627 104.885 108.28C104.555 109.023 104.383 109.826 104.382 110.638C104.39 111.043 104.501 111.439 104.705 111.788C104.91 112.137 105.201 112.428 105.551 112.632C106.246 112.932 107.028 112.97 107.749 112.737C107.955 112.655 108.138 112.522 108.28 112.35C108.421 112.179 108.518 111.975 108.56 111.757C108.714 110.784 107.514 109.925 107.749 108.969C107.834 108.72 107.994 108.505 108.208 108.352C108.422 108.199 108.679 108.118 108.942 108.118C109.574 108.118 110.231 108.766 110.791 108.434C111.351 108.102 111.659 106.748 111.643 106.141Z" fill="#E8A289"/>
<path d="M103.58 104.917C101.942 107.66 101.301 110.882 101.762 114.042L91.9707 123.921L97.7954 106.165L103.58 104.917Z" fill="#232770"/>
<path d="M101.762 114.042C102.46 117 107.303 119.204 107.303 119.204C107.303 119.204 102.087 125.023 100.302 124.067C98.517 123.11 101.762 114.042 101.762 114.042Z" fill="#E8A289"/>
<path d="M109.558 151.67C105.306 146.501 100.553 141.765 95.3698 137.528C91.6462 134.408 83.8177 127.09 85.5132 123.306C87.2087 119.521 71.5112 119.254 65.4999 122.495C59.4885 125.737 54.7915 133.841 56.203 136.855C57.6146 139.87 59.521 139.83 67.5604 138.687C75.5998 137.544 85.7971 144.506 90.9728 147.285C102.403 153.412 109.558 151.67 109.558 151.67Z" fill="#6D89CF"/>
<path d="M107.49 187.327H120.948V211.145L107.49 212.255V187.327Z" fill="#F0F5F7"/>
<path d="M108.406 211.266V188.243H120.04V210.302L108.406 211.266ZM108.812 188.648V210.829L119.634 209.937V188.648H108.812Z" fill="#C3D3DD"/>
<path d="M111.952 191.039H117.111V197.732L111.952 197.878V191.039Z" fill="#C3D3DD"/>
<path d="M109.363 204.483L119.317 203.973V204.905L109.363 205.561V204.483Z" fill="#C3D3DD"/>
<path d="M109.363 202.368L119.317 202.06V203L109.363 203.453V202.368Z" fill="#C3D3DD"/>
<path d="M109.363 206.501L119.317 205.756V206.688L109.363 207.579V206.501Z" fill="#C3D3DD"/>
<path d="M88.3443 130.599C83.8176 126.004 81.2541 123.013 83.4769 121.684C85.6997 120.355 92.003 123.897 92.003 123.897L88.3443 130.599Z" fill="#6D89CF"/>
<path d="M115.683 246.664H115.586C115.534 246.651 115.486 246.628 115.443 246.596C115.4 246.564 115.364 246.524 115.337 246.478C115.31 246.432 115.292 246.381 115.285 246.328C115.277 246.275 115.28 246.222 115.294 246.17C116.848 240.096 117.665 233.857 117.727 227.587C117.727 227.534 117.738 227.48 117.759 227.43C117.78 227.381 117.811 227.336 117.849 227.298C117.888 227.26 117.933 227.231 117.984 227.211C118.034 227.191 118.087 227.181 118.141 227.182C118.248 227.186 118.349 227.232 118.423 227.309C118.497 227.386 118.539 227.489 118.539 227.596C118.484 233.929 117.667 240.234 116.105 246.373C116.078 246.461 116.021 246.539 115.945 246.592C115.868 246.645 115.776 246.67 115.683 246.664Z" fill="#3662C1"/>
<path d="M185.961 254.444C185.864 254.445 185.771 254.411 185.698 254.349C185.625 254.286 185.577 254.199 185.563 254.104C184.557 248.512 188.946 241.535 194.268 240.27C194.321 240.258 194.376 240.256 194.43 240.266C194.484 240.275 194.536 240.294 194.582 240.323C194.628 240.352 194.668 240.39 194.7 240.434C194.732 240.479 194.755 240.529 194.767 240.582C194.779 240.636 194.781 240.691 194.772 240.745C194.763 240.798 194.743 240.85 194.714 240.896C194.685 240.942 194.647 240.983 194.603 241.014C194.558 241.046 194.508 241.068 194.454 241.081C189.587 242.223 185.442 248.861 186.342 253.982C186.361 254.088 186.338 254.196 186.277 254.284C186.216 254.372 186.123 254.433 186.018 254.452L185.961 254.444Z" fill="#3662C1"/>
<path d="M203.451 262.134H128.022V265.141H203.451V262.134Z" fill="#A5B7C6"/>
<path d="M203.451 265.149H266.371V262.142H203.451V265.149Z" fill="#232770"/>
<path d="M224.276 192.383L284.089 194.871L262.023 262.134H201.391L224.276 192.383Z" fill="#A5B7C6"/>
<path d="M226.336 192.383L287.001 195L266.371 262.134H203.451L226.336 192.383Z" fill="#3662C1"/>
<path d="M222.41 253.447C221.177 256.396 218.776 258.204 217.04 257.499C215.304 256.794 214.89 253.795 216.123 250.845C217.356 247.895 219.757 246.08 221.493 246.793C223.229 247.506 223.643 250.489 222.41 253.447Z" fill="#A5B7C6"/>
<path d="M113.89 265.149H0V277.597H113.89V265.149Z" fill="#3662C1"/>
<path d="M114 278L362 278V265L114 265V278Z" fill="#2C51A2"/>
<path d="M81.2376 255.555H21.4653V256.438H24.7752V264.266H21.4653V265.125H81.2376C82.5113 265.125 83.7329 264.62 84.6335 263.72C85.5342 262.821 86.0402 261.6 86.0402 260.328C86.0402 259.055 85.5342 257.835 84.6335 256.935C83.7329 256.036 82.5113 255.53 81.2376 255.53V255.555Z" fill="#AFCDDD"/>
<path d="M51.1732 256.438C52.2124 256.438 53.209 256.85 53.9439 257.584C54.6787 258.318 55.0915 259.314 55.0915 260.352C55.0915 261.39 54.6787 262.385 53.9439 263.12C53.209 263.854 52.2124 264.266 51.1732 264.266H23.3882C23.9456 263.036 24.2339 261.702 24.2339 260.352C24.2339 259.002 23.9456 257.667 23.3882 256.438H51.1732Z" fill="#F9F8F7"/>
<path d="M23.8909 262.848H54.1826C54.26 262.759 54.3305 262.664 54.3936 262.564H23.9639L23.8909 262.848ZM24.2316 260.49H55.0588C55.0588 260.441 55.0588 260.401 55.0588 260.352C55.0588 260.303 55.0588 260.255 55.0588 260.206H24.2316V260.49ZM24.1342 261.665H54.856C54.8905 261.572 54.9203 261.477 54.9452 261.381H24.1748C24.1667 261.478 24.1505 261.576 24.1342 261.665ZM54.4017 258.14C54.3287 258.042 54.2638 257.945 54.1826 257.856H23.8909L23.9639 258.14H54.4017ZM24.1748 259.315H54.9452C54.9452 259.217 54.8884 259.128 54.856 259.031H24.1342C24.1505 259.128 24.1667 259.217 24.1748 259.315Z" fill="#E9E5D9"/>
<path d="M87.63 245.959H27.8577V246.842H31.1675V254.671H27.8577V255.554H87.63C88.2606 255.554 88.8851 255.43 89.4678 255.189C90.0505 254.948 90.5799 254.594 91.0259 254.149C91.4718 253.703 91.8256 253.175 92.0669 252.593C92.3083 252.01 92.4325 251.387 92.4325 250.757C92.4325 250.127 92.3083 249.503 92.0669 248.921C91.8256 248.339 91.4718 247.81 91.0259 247.364C90.5799 246.919 90.0505 246.565 89.4678 246.324C88.8851 246.083 88.2606 245.959 87.63 245.959Z" fill="#E75755"/>
<path d="M57.5734 246.843C58.6126 246.843 59.6092 247.255 60.344 247.989C61.0788 248.723 61.4917 249.719 61.4917 250.757C61.4917 251.795 61.0788 252.791 60.344 253.525C59.6092 254.259 58.6126 254.671 57.5734 254.671H29.7883C30.3457 253.441 30.6341 252.107 30.6341 250.757C30.6341 249.407 30.3457 248.073 29.7883 246.843H57.5734Z" fill="#F9F8F7"/>
<path d="M30.2915 253.253H60.5833L60.8185 252.969H30.3564C30.3321 253.066 30.3158 253.156 30.2915 253.253ZM30.6322 250.903H61.4594C61.4594 250.854 61.4594 250.805 61.4594 250.757C61.4594 250.708 61.4594 250.668 61.4594 250.619H30.6322V250.903ZM30.5349 252.078H61.2485C61.2485 251.98 61.3134 251.891 61.3377 251.794H30.5754C30.5592 251.891 30.5511 251.98 30.5349 252.078ZM60.8185 248.544C60.7536 248.447 60.6806 248.358 60.6076 248.261H30.2915C30.2915 248.358 30.3321 248.455 30.3564 248.544H60.8185ZM30.5754 249.728H61.3377C61.3129 249.632 61.2831 249.537 61.2485 249.444H30.5349C30.5511 249.533 30.5592 249.63 30.5754 249.728Z" fill="#E9E5D9"/>
<path d="M83.6632 236.372H23.8909V237.256H27.2007V245.084H23.8909V245.959H83.6632C84.3099 245.986 84.9553 245.882 85.5607 245.653C86.1661 245.424 86.7189 245.075 87.1859 244.627C87.6529 244.179 88.0245 243.642 88.2784 243.047C88.5322 242.452 88.663 241.812 88.663 241.166C88.663 240.519 88.5322 239.879 88.2784 239.284C88.0245 238.69 87.6529 238.152 87.1859 237.704C86.7189 237.257 86.1661 236.908 85.5607 236.679C84.9553 236.45 84.3099 236.346 83.6632 236.372Z" fill="#EF7674"/>
<path d="M53.5987 237.255C54.6379 237.255 55.6345 237.668 56.3694 238.402C57.1042 239.136 57.517 240.132 57.517 241.17C57.517 242.208 57.1042 243.203 56.3694 243.937C55.6345 244.671 54.6379 245.084 53.5987 245.084H25.8218C26.3792 243.854 26.6675 242.52 26.6675 241.17C26.6675 239.82 26.3792 238.485 25.8218 237.255H53.5987Z" fill="#F9F8F7"/>
<path d="M26.3167 243.666H56.6165L56.8275 243.382H26.3897C26.3653 243.471 26.3491 243.569 26.3167 243.666ZM26.6574 241.308H57.4846C57.4846 241.259 57.4846 241.219 57.4846 241.17C57.4846 241.121 57.4846 241.073 57.4846 241.024H26.6574C26.6657 241.118 26.6657 241.213 26.6574 241.308ZM26.5681 242.483H57.2817C57.3163 242.39 57.3461 242.295 57.371 242.199H26.6006C26.5925 242.296 26.5762 242.434 26.5681 242.483ZM56.8275 238.957C56.7626 238.86 56.6895 238.763 56.6165 238.674H26.3167C26.3167 238.771 26.3653 238.86 26.3897 238.957H56.8275ZM26.6006 240.133H57.371C57.3461 240.037 57.3163 239.942 57.2817 239.849H26.5681C26.5762 239.946 26.5925 240.003 26.6006 240.133Z" fill="#E9E5D9"/>
<path d="M110.053 265.125H92.765L88.1328 260.497V239.386H114.685V260.522L110.053 265.125Z" fill="#F9F8F7"/>
<path d="M88.1329 241.047H83.9632C83.7907 241.045 83.6195 241.078 83.4596 241.142C83.2997 241.207 83.1543 241.303 83.0319 241.424C82.9096 241.546 82.8127 241.69 82.7469 241.85C82.6812 242.009 82.6479 242.18 82.649 242.352V250.91C82.649 252.506 83.2829 254.036 84.4115 255.165C85.5401 256.294 87.0712 256.929 88.6684 256.931V254.306C87.7683 254.303 86.9058 253.945 86.2701 253.308C85.6344 252.672 85.2774 251.809 85.2774 250.91V243.665H88.1329V241.047Z" fill="#F9F8F7"/>
</svg>
