<svg width="65" height="65" viewBox="0 0 65 65" fill="none" xmlns="http://www.w3.org/2000/svg">
<path d="M32.4999 0C22.8647 0 15 7.86472 15 17.4999C15 27.1351 22.8647 34.9999 32.4999 34.9999C42.1351 34.9999 49.9999 27.1351 49.9999 17.4999C49.9999 7.86472 42.1351 0 32.4999 0ZM32.4999 4.99998C39.4332 4.99998 44.9999 10.5667 44.9999 17.4999C44.9999 24.4332 39.4332 29.9999 32.4999 29.9999C25.5667 29.9999 20 24.4332 20 17.4999C20 10.5667 25.5667 4.99998 32.4999 4.99998Z" fill="#EBEBEB"/>
<path d="M32.4991 40.0002C17.3674 40.0002 9.24848 41.9134 4.61925 46.2307C2.30418 48.3894 1.09426 51.1127 0.542011 53.8869C-0.0102369 56.6612 1.31313e-05 59.5317 1.31313e-05 62.5002C7.94232e-05 63.1632 0.263492 63.799 0.732317 64.2678C1.20114 64.7367 1.83699 65.0001 2.5 65.0002H62.4998C63.1628 65.0001 63.7986 64.7367 64.2675 64.2678C64.7363 63.799 64.9997 63.1632 64.9998 62.5002C64.9998 59.6039 65.0053 56.7687 64.4529 54.0089C63.9005 51.2492 62.6993 48.523 60.3904 46.3477C55.7724 41.9975 47.6397 40 32.5005 40L32.4991 40.0002ZM32.4991 45.0002C47.1668 45.0002 54.0318 47.2252 56.962 49.9855C58.4272 51.3657 59.1348 52.9164 59.55 54.9904C59.827 56.3739 59.8077 58.2344 59.8479 60.0002H5.14559C5.18513 58.1822 5.16897 56.2669 5.44832 54.8634C5.86364 52.777 6.56746 51.2482 8.02631 49.888C10.9443 47.1672 17.823 45.0002 32.499 45.0002H32.4991Z" fill="#EBEBEB"/>
</svg>
