<svg width="130" height="116" viewBox="0 0 130 116" fill="none" xmlns="http://www.w3.org/2000/svg">
<path d="M2.17796 50.145L29.5321 16.1759C30.877 14.5058 33.3077 14.253 34.9614 15.6112L77.5355 50.5786C78.9962 51.7782 79.2173 53.9465 78.0294 55.4216L50.3638 89.7775C49.176 91.2526 47.029 91.4759 45.5684 90.2762L2.68578 55.0555C1.20247 53.8372 0.977915 51.6352 2.18423 50.1372L2.17796 50.145Z" fill="white"/>
<path fill-rule="evenodd" clip-rule="evenodd" d="M45.1351 90.8128C45.8573 91.4103 46.7623 91.7366 47.6959 91.7362C47.835 91.7362 47.9708 91.7262 48.1232 91.7061C49.1975 91.5969 50.1839 91.0584 50.8629 90.2106L78.5476 55.8375C79.229 54.9915 79.5497 53.9067 79.4391 52.8218C79.3285 51.737 78.7958 50.741 77.958 50.0529L35.3823 15.0843C34.4514 14.3203 33.2578 13.9616 32.0647 14.0871C30.8716 14.2126 29.7769 14.8121 29.0218 15.7534L1.6584 49.7317C0.967692 50.5882 0.642437 51.6868 0.754283 52.7856C0.866129 53.8844 1.4059 54.8933 2.2547 55.5899L45.1351 90.8128ZM32.2019 15.4043H32.5332C33.2659 15.4043 33.9761 15.6596 34.5441 16.127L77.1296 51.0989C78.3036 52.0652 78.4815 53.8089 77.5272 54.9966L49.8457 89.3731C48.8868 90.5574 47.1607 90.7368 45.983 89.7745L3.08936 54.5316C2.51352 54.0589 2.14737 53.3744 2.07157 52.6288C1.99576 51.8833 2.21651 51.138 2.6852 50.5569L30.0486 16.5786C30.5818 15.9119 31.3575 15.4889 32.2019 15.4043Z" fill="#372168"/>
<path d="M30.7776 34.3061C30.6448 34.3069 30.5159 34.2607 30.4132 34.1756C30.1655 33.9713 30.1285 33.6031 30.3303 33.3526L34.4349 28.2572C34.6412 28.0226 34.9939 27.994 35.2347 28.1923C35.4754 28.3906 35.5186 28.7453 35.3326 28.9966L31.2281 34.0887C31.1181 34.2261 30.9525 34.306 30.7776 34.3061Z" fill="#372168"/>
<path d="M15.5752 53.1816C15.3513 53.1829 15.1469 53.053 15.051 52.8486C14.9551 52.6442 14.9851 52.4022 15.128 52.228L28.2499 35.9314C28.452 35.6801 28.8176 35.6419 29.0665 35.8461C29.3153 36.0503 29.3531 36.4195 29.1509 36.6708L16.0258 52.9641C15.9164 53.1023 15.7504 53.1824 15.5752 53.1816Z" fill="#372168"/>
<path d="M30.2339 44.2699C30.0106 44.2697 29.8072 44.1401 29.7111 43.9365C29.6149 43.733 29.643 43.4918 29.7834 43.3164L38.9366 31.9412C39.1387 31.6899 39.5043 31.6517 39.7532 31.8559C40.002 32.0601 40.0398 32.4293 39.8376 32.6806L30.6845 44.0558C30.5735 44.1916 30.4082 44.2701 30.2339 44.2699Z" fill="#372168"/>
<path d="M20.0804 56.8802C19.9477 56.8804 19.8189 56.8343 19.716 56.7497C19.4669 56.5452 19.4284 56.1758 19.6298 55.9234L27.8024 45.7928C28.0046 45.5415 28.3702 45.5033 28.619 45.7074C28.8678 45.9116 28.9057 46.2809 28.7035 46.5321L20.5309 56.6795C20.418 56.8111 20.2527 56.8847 20.0804 56.8802Z" fill="#372168"/>
<path d="M24.5859 60.5815C24.3626 60.5798 24.1599 60.4493 24.064 60.2456C23.968 60.0419 23.9958 59.8007 24.1354 59.6247L43.4422 35.6532C43.5664 35.4731 43.7798 35.3783 43.9952 35.4076C44.2105 35.4369 44.3916 35.5853 44.4642 35.7921C44.5369 35.999 44.4889 36.2294 44.3399 36.3892L25.0331 60.3641C24.9248 60.5018 24.7601 60.5819 24.5859 60.5815Z" fill="#372168"/>
<path d="M45.7777 43.5582C45.5543 43.5564 45.3516 43.426 45.2557 43.2223C45.1598 43.0186 45.1875 42.7774 45.3271 42.6014L47.9442 39.3494C48.075 39.1868 48.2817 39.1071 48.4865 39.1402C48.6913 39.1733 48.863 39.3142 48.937 39.5099C49.0111 39.7055 48.9761 39.9262 48.8453 40.0888L46.2249 43.3407C46.1166 43.4784 45.9518 43.5586 45.7777 43.5582Z" fill="#372168"/>
<path d="M29.0877 64.2791C28.9548 64.2807 28.8256 64.2344 28.7233 64.1486C28.4757 63.9443 28.4386 63.576 28.6405 63.3256L43.3691 45.0349C43.4999 44.8724 43.7066 44.7926 43.9114 44.8257C44.1161 44.8588 44.2879 44.9998 44.3619 45.1954C44.4359 45.3911 44.4009 45.6118 44.2701 45.7743L29.5383 64.0649C29.4273 64.2007 29.2621 64.2793 29.0877 64.2791Z" fill="#372168"/>
<path d="M33.5933 67.9815C33.37 67.9813 33.1666 67.8517 33.0704 67.6481C32.9743 67.4446 33.0024 67.2034 33.1428 67.028L51.141 44.6791C51.3473 44.4445 51.7001 44.4159 51.9408 44.6142C52.1816 44.8125 52.2248 45.1672 52.0388 45.4185L34.0571 67.7673C33.9432 67.9068 33.7722 67.9858 33.5933 67.9815Z" fill="#372168"/>
<path d="M31.0955 17.8687C31.0025 17.8693 30.9135 17.8304 30.8503 17.7616C30.7902 17.6961 30.7584 17.6091 30.7621 17.5199C30.7659 17.4306 30.8048 17.3466 30.8702 17.2865C31.6742 16.5727 32.833 16.4392 33.7755 16.952C33.8845 17.0042 33.9568 17.1122 33.9641 17.2339C33.9715 17.3555 33.9127 17.4716 33.8108 17.5368C33.7088 17.6021 33.5798 17.6062 33.474 17.5475C32.7803 17.161 31.9218 17.2504 31.3207 17.7716C31.2607 17.8319 31.1801 17.8666 31.0955 17.8687Z" fill="#372168"/>
<path d="M34.6648 21.4722L75.4101 7.67976C77.6046 6.93694 79.9798 8.13136 80.7153 10.3476L98.3097 63.3613C98.7644 64.7313 98.0333 66.2142 96.6767 66.6734L53.5285 81.2792C52.1719 81.7384 50.7036 81.0001 50.2489 79.63L32.4429 25.9787C31.8243 24.1147 32.819 22.097 34.6648 21.4722Z" fill="white"/>
<path fill-rule="evenodd" clip-rule="evenodd" d="M51.227 81.7563C51.6778 81.9784 52.1731 82.0928 52.6747 82.0909C53.027 82.0917 53.3771 82.0352 53.7116 81.9236L96.8736 67.3266C97.692 67.0504 98.3681 66.4568 98.7528 65.6767C99.1375 64.8966 99.1991 63.994 98.9242 63.1679L81.3334 10.1529C80.4779 7.58888 77.7301 6.20659 75.1882 7.06154L34.4413 20.8523C32.2459 21.5915 31.0594 23.988 31.791 26.2053L49.5938 79.8593C49.8654 80.6866 50.4536 81.3697 51.227 81.7563ZM75.5958 8.34276C75.9564 8.21887 76.3347 8.15558 76.7155 8.1554V8.13867C78.2357 8.14513 79.5822 9.13069 80.0614 10.5877L97.6522 63.6027C97.9891 64.6225 97.4453 65.7254 96.4364 66.0684L53.2877 80.6721C52.2778 81.0123 51.1859 80.4632 50.8462 79.4443L33.0434 25.7903C32.5446 24.2763 33.3517 22.64 34.8488 22.1301L75.5958 8.34276Z" fill="#372168"/>
<path d="M67.4597 23.6652C67.175 23.6662 66.9318 23.4583 66.8856 23.1746C66.8395 22.8909 67.0042 22.6153 67.2742 22.5243L73.4426 20.4366C73.7463 20.3341 74.0748 20.4996 74.1763 20.8063C74.2779 21.113 74.114 21.4448 73.8103 21.5474L67.6419 23.6317C67.5838 23.6541 67.522 23.6655 67.4597 23.6652Z" fill="#372168"/>
<path d="M44.6147 31.4065C44.3301 31.4074 44.0868 31.1996 44.0407 30.9159C43.9945 30.6321 44.1592 30.3566 44.4292 30.2656L64.1501 23.5743C64.3504 23.4901 64.5805 23.5258 64.7465 23.667C64.9124 23.8081 64.9864 24.031 64.9383 24.2447C64.8902 24.4584 64.7279 24.627 64.5178 24.6817L44.797 31.3563C44.7399 31.3845 44.6781 31.4015 44.6147 31.4065Z" fill="#372168"/>
<path d="M61.7154 31.7938C61.4314 31.7931 61.1896 31.5847 61.1444 31.3015C61.0992 31.0183 61.2638 30.7437 61.5332 30.6529L75.2878 25.9991C75.5824 25.9224 75.8856 26.0886 75.9823 26.3799C76.079 26.6712 75.9364 26.9884 75.6555 27.1065L61.9009 31.7637C61.841 31.7834 61.7784 31.7936 61.7154 31.7938Z" fill="#372168"/>
<path d="M46.4569 36.9579C46.1728 36.9573 45.9311 36.7489 45.8859 36.4657C45.8406 36.1825 46.0052 35.9079 46.2747 35.8171L58.5717 31.6618C58.8754 31.5583 59.2046 31.7231 59.3071 32.0298C59.4096 32.3365 59.2464 32.669 58.9427 32.7725L46.6457 36.9278C46.5848 36.9482 46.521 36.9584 46.4569 36.9579Z" fill="#372168"/>
<path d="M48.302 42.5147C48.0179 42.514 47.7762 42.3056 47.731 42.0224C47.6857 41.7392 47.8503 41.4646 48.1198 41.3738L77.123 31.5543C77.4267 31.4509 77.756 31.6156 77.8585 31.9224C77.9609 32.2291 77.7978 32.5616 77.4941 32.6651L48.4809 42.4846C48.4231 42.5036 48.3628 42.5138 48.302 42.5147Z" fill="#372168"/>
<path d="M75.2247 39.5855C74.9401 39.5865 74.6968 39.3786 74.6507 39.0949C74.6045 38.8112 74.7692 38.5357 75.0392 38.4447L78.9748 37.1064C79.1712 37.0401 79.3878 37.0846 79.543 37.2233C79.6981 37.3619 79.7682 37.5737 79.7268 37.7787C79.6855 37.9837 79.539 38.1508 79.3425 38.2172L75.4102 39.5554C75.3503 39.5752 75.2878 39.5853 75.2247 39.5855Z" fill="#372168"/>
<path d="M50.1472 48.0754C49.8981 48.0732 49.6775 47.9122 49.5973 47.6739C49.5482 47.5267 49.5594 47.3657 49.6285 47.2268C49.6975 47.0879 49.8187 46.9827 49.965 46.9346L72.0976 39.437C72.297 39.3558 72.5245 39.3928 72.6887 39.533C72.8528 39.6732 72.9267 39.8936 72.8805 40.1057C72.8344 40.3177 72.6759 40.4866 72.4686 40.5444L50.3327 48.0386C50.2732 48.0607 50.2106 48.0731 50.1472 48.0754Z" fill="#372168"/>
<path d="M51.9923 53.632C51.7076 53.633 51.4644 53.4251 51.4182 53.1414C51.3721 52.8577 51.5368 52.5821 51.8068 52.4911L78.8522 43.3408C79.0487 43.2744 79.2653 43.319 79.4204 43.4577C79.5755 43.5963 79.6456 43.808 79.6042 44.013C79.5629 44.218 79.4164 44.3852 79.2199 44.4515L52.1778 53.6019C52.1179 53.6214 52.0553 53.6315 51.9923 53.632Z" fill="#372168"/>
<path d="M78.6073 10.8285C78.4877 10.8283 78.3776 10.7631 78.3191 10.6579C78.0046 10.0425 77.3429 9.69103 76.6627 9.77799C76.5443 9.79711 76.4248 9.75102 76.3493 9.65706C76.2737 9.56311 76.2535 9.43558 76.2963 9.3225C76.339 9.20942 76.4383 9.12798 76.5567 9.10886C77.5095 8.97882 78.4416 9.46219 78.8922 10.32C78.9361 10.3975 78.9476 10.4896 78.9239 10.5757C78.9003 10.6618 78.8435 10.7348 78.7663 10.7783C78.718 10.8076 78.6635 10.8248 78.6073 10.8285Z" fill="#372168"/>
<path d="M92.8776 13.717L126.701 40.4822C128.523 41.9238 128.843 44.584 127.415 46.4238L93.2697 90.4353C92.3872 91.5726 90.7589 91.7722 89.6327 90.881L53.8141 62.5373C52.6879 61.6462 52.4903 60.0017 53.3727 58.8643L87.9291 14.3236C88.5056 13.5804 89.3509 13.099 90.2789 12.9852C91.207 12.8715 92.1417 13.1347 92.8776 13.717Z" fill="white"/>
<path fill-rule="evenodd" clip-rule="evenodd" d="M89.2246 91.407C89.7959 91.8607 90.5019 92.107 91.2288 92.1062C92.2299 92.109 93.1762 91.6448 93.7929 90.8482L127.924 46.8363C128.718 45.8129 129.077 44.5128 128.922 43.2221C128.766 41.9314 128.11 40.7559 127.096 39.9543L93.2728 13.1892C91.4519 11.7494 88.8204 12.0713 87.3926 13.9085L52.8504 58.449C51.7451 59.8783 51.9924 61.9412 53.4037 63.0627L89.2246 91.407ZM88.4493 14.7365C88.9926 14.0365 89.8247 13.628 90.7053 13.6291C91.3423 13.6223 91.963 13.832 92.4677 14.2246L126.294 40.9897C127.035 41.5731 127.515 42.4309 127.628 43.373C127.74 44.315 127.476 45.2635 126.894 46.0082L92.7493 90.0201C92.4348 90.4277 91.9726 90.6921 91.4648 90.7549C90.9569 90.8176 90.4452 90.6736 90.0427 90.3546L54.2252 62.0104C53.388 61.347 53.2398 60.1247 53.8939 59.277L88.4493 14.7365Z" fill="#372168"/>
<path d="M114.736 46.9011C114.607 46.9009 114.481 46.8573 114.378 46.7773L109.257 42.7257C109.093 42.5966 109.011 42.3893 109.04 42.1819C109.069 41.9746 109.205 41.7986 109.398 41.7203C109.59 41.6419 109.809 41.6732 109.972 41.8023L115.091 45.8539C115.286 46.0078 115.363 46.27 115.282 46.5066C115.201 46.7431 114.981 46.9016 114.733 46.9011H114.736Z" fill="#372168"/>
<path d="M107.024 40.8035C106.894 40.8026 106.768 40.7579 106.666 40.6764L90.2945 27.7288C90.1216 27.6032 90.0308 27.392 90.058 27.1787C90.0852 26.9653 90.226 26.7843 90.4248 26.707C90.6236 26.6298 90.8483 26.6688 91.01 26.8087L107.382 39.7731C107.577 39.927 107.654 40.1892 107.573 40.4258C107.492 40.6623 107.272 40.8208 107.024 40.8203V40.8035Z" fill="#372168"/>
<path d="M111.155 51.521C111.027 51.5208 110.902 51.4772 110.801 51.3972L99.3815 42.3639C99.2603 42.2688 99.1816 42.1288 99.163 41.975C99.1443 41.8211 99.1872 41.6661 99.2821 41.5443C99.4804 41.2906 99.8442 41.2458 100.097 41.4439L111.513 50.4771C111.705 50.6317 111.78 50.8922 111.7 51.127C111.619 51.3618 111.401 51.5197 111.155 51.521Z" fill="#372168"/>
<path d="M97.268 40.5272C97.1383 40.5277 97.0123 40.4841 96.9102 40.4034L86.7301 32.337C86.5667 32.208 86.484 32.0007 86.5131 31.7933C86.5421 31.5859 86.6785 31.4099 86.8708 31.3316C87.0632 31.2533 87.2823 31.2846 87.4456 31.4137L97.6423 39.4833C97.8349 39.6379 97.9099 39.8984 97.8295 40.1332C97.749 40.368 97.5305 40.5259 97.2845 40.5272H97.268Z" fill="#372168"/>
<path d="M107.577 56.1356C107.448 56.1362 107.322 56.0925 107.219 56.0118L83.1324 36.9417C82.9595 36.8161 82.8687 36.6049 82.8959 36.3916C82.9231 36.1782 83.0639 35.9972 83.2627 35.9199C83.4614 35.8427 83.6861 35.8817 83.8479 36.0216L107.935 55.0918C108.13 55.2456 108.207 55.5079 108.127 55.7444C108.046 55.981 107.825 56.1395 107.577 56.139V56.1356Z" fill="#372168"/>
<path d="M103.996 60.7507C103.867 60.7512 103.741 60.7076 103.638 60.6269L100.372 58.0441C100.209 57.915 100.126 57.7077 100.155 57.5003C100.184 57.2929 100.32 57.1169 100.513 57.0386C100.705 56.9603 100.924 56.9916 101.088 57.1207L104.354 59.7069C104.547 59.8614 104.622 60.122 104.541 60.3567C104.461 60.5915 104.242 60.7494 103.996 60.7507Z" fill="#372168"/>
<path d="M98.2849 56.2334C98.1553 56.234 98.0292 56.1904 97.9272 56.1096L79.5513 41.5695C79.2988 41.3699 79.2543 41.0014 79.4519 40.7465C79.6495 40.4915 80.0143 40.4465 80.2668 40.6461L98.656 55.1862C98.8513 55.3401 98.9283 55.6024 98.8475 55.8389C98.7667 56.0755 98.5459 56.234 98.2982 56.2334H98.2849Z" fill="#372168"/>
<path d="M98.7817 64.0751C98.6515 64.0758 98.5251 64.0308 98.4239 63.9479L75.97 46.1826C75.7341 45.9785 75.6993 45.6229 75.8912 45.3762C76.0831 45.1295 76.4334 45.0794 76.6856 45.2625L99.1395 63.0279C99.3349 63.1818 99.4118 63.444 99.331 63.6806C99.2502 63.9171 99.0295 64.0756 98.7817 64.0751Z" fill="#372168"/>
<path d="M126.152 45.0783C126.099 45.0772 126.047 45.0646 126 45.0415C125.838 44.9555 125.775 44.7533 125.86 44.5898C126.188 43.9859 126.116 43.241 125.678 42.7129C125.554 42.5771 125.562 42.3651 125.696 42.2395C125.831 42.1138 126.041 42.1221 126.165 42.2579C126.792 42.9939 126.904 44.0438 126.447 44.8976C126.39 45.0088 126.276 45.0785 126.152 45.0783Z" fill="#372168"/>
<path d="M82.7846 4.81162C82.637 4.81061 82.5079 4.71111 82.468 4.5676C82.428 4.42409 82.4869 4.2712 82.6124 4.19268L84.3085 3.13545C84.4633 3.03946 84.6657 3.08722 84.7624 3.24252C84.8091 3.3179 84.8242 3.40896 84.8043 3.49559C84.7844 3.58222 84.7311 3.65729 84.6563 3.70421L82.9602 4.76144C82.9075 4.79443 82.8467 4.81182 82.7846 4.81162Z" fill="#372168"/>
<path d="M80.7073 3.6363C80.5912 3.63599 80.4837 3.57425 80.424 3.47359C80.3643 3.37292 80.3612 3.24805 80.4158 3.14449L81.466 1.13711C81.5194 1.02835 81.6269 0.957334 81.747 0.951553C81.8671 0.945772 81.9808 1.00613 82.0442 1.10927C82.1076 1.21241 82.1107 1.34214 82.0523 1.44826L81.0022 3.45564C80.9451 3.56685 80.8314 3.63656 80.7073 3.6363Z" fill="#372168"/>
<path d="M78.448 2.80927C78.2784 2.81031 78.1354 2.68178 78.1168 2.51151L77.8816 0.370297C77.8622 0.187587 77.9923 0.0232811 78.1731 0.00227653C78.2605 -0.00807625 78.3485 0.0171541 78.4174 0.0723954C78.4864 0.127637 78.5308 0.208344 78.5408 0.296693L78.7727 2.4379C78.7921 2.62061 78.6619 2.78492 78.4812 2.80592L78.448 2.80927Z" fill="#372168"/>
<path fill-rule="evenodd" clip-rule="evenodd" d="M109.88 64.7083V105.799C109.88 111.066 105.653 115.335 100.438 115.335H32.9641C27.7498 115.335 23.5227 111.066 23.5227 105.799V54.3268C23.5227 47.7562 28.7969 42.4297 35.3029 42.4297H62.6133C66.1978 42.4315 69.5869 44.08 71.8228 46.9095L75.5198 51.5934C76.5017 52.8386 77.9919 53.564 79.568 53.564H98.8417C101.769 53.5622 104.577 54.7357 106.648 56.8259C108.718 58.9162 109.881 61.7518 109.88 64.7083Z" fill="#FFB07D"/>
<path fill-rule="evenodd" clip-rule="evenodd" d="M32.9638 115.999H100.438C106.016 115.993 110.537 111.428 110.542 105.795V64.7037C110.533 58.1836 105.301 52.9009 98.8447 52.8935H79.5711C78.1955 52.8957 76.8946 52.2622 76.0397 51.1739L72.3426 46.49C69.9888 43.4899 66.4031 41.7453 62.613 41.7559H35.3026C28.4337 41.7633 22.8672 47.3851 22.8599 54.3221V105.795C22.8653 111.428 27.3858 115.993 32.9638 115.999ZM24.1851 54.3276C24.1905 48.1289 29.1649 43.1052 35.3027 43.0996H62.6131C65.9988 43.0914 69.2018 44.6496 71.3058 47.3285L75.0028 52.0124C76.1082 53.4211 77.7915 54.2409 79.5711 54.2373H98.8448C104.57 54.2428 109.21 58.9274 109.217 64.7091V105.8C109.212 110.695 105.284 114.661 100.438 114.666H32.9639C28.1177 114.661 24.1905 110.695 24.1851 105.8V54.3276Z" fill="#372168"/>
<path d="M104.579 61.8549C104.446 61.8548 104.326 61.7745 104.274 61.6508C103.672 60.2172 102.482 59.1185 101.015 58.6398C100.853 58.5748 100.768 58.3942 100.821 58.2265C100.875 58.0588 101.048 57.9616 101.217 58.0041C102.869 58.5408 104.208 59.7783 104.884 61.3932C104.955 61.5632 104.877 61.7593 104.708 61.8315C104.667 61.8472 104.623 61.8552 104.579 61.8549Z" fill="#372168"/>
<path d="M66.0485 82.1471C65.9757 82.1479 65.9047 82.1244 65.8464 82.0802L62.4773 79.4673C62.3331 79.3544 62.3065 79.145 62.4177 78.9989C62.5285 78.8522 62.736 78.8237 62.8815 78.9353L66.2506 81.5483C66.3948 81.6612 66.4214 81.8706 66.3102 82.0167C66.2477 82.0987 66.151 82.1469 66.0485 82.1471Z" fill="#372168"/>
<path d="M69.4143 81.4989C69.3426 81.4989 69.2728 81.4755 69.2155 81.432L62.4773 76.2095C62.3331 76.0966 62.3065 75.8872 62.4177 75.7411C62.5285 75.5944 62.736 75.5659 62.8815 75.6775L69.6163 80.9001C69.728 80.9876 69.7724 81.1371 69.7268 81.2723C69.6812 81.4075 69.5557 81.4985 69.4143 81.4989Z" fill="#372168"/>
<path d="M69.4143 78.1678C69.3426 78.1678 69.2729 78.1443 69.2155 78.1009L67.3604 76.6623C67.2151 76.5504 67.187 76.3408 67.2975 76.1939C67.3507 76.1224 67.4301 76.0755 67.5179 76.0635C67.6056 76.0516 67.6945 76.0756 67.7646 76.1303L69.6164 77.5689C69.7281 77.6565 69.7725 77.806 69.7269 77.9411C69.6812 78.0763 69.5557 78.1674 69.4143 78.1678Z" fill="#372168"/>
<path d="M31.3042 111.503C31.2694 111.502 31.2348 111.497 31.2015 111.486C29.5507 110.947 28.2129 109.71 27.5343 108.097C27.4629 107.926 27.5423 107.729 27.7115 107.657C27.8807 107.585 28.0758 107.665 28.1471 107.836C28.751 109.269 29.94 110.367 31.4069 110.847C31.5898 110.876 31.7152 111.049 31.6868 111.234C31.6585 111.419 31.4871 111.545 31.3042 111.517V111.503Z" fill="#372168"/>
<path d="M87.555 115.67C87.3721 115.67 87.2238 115.52 87.2238 115.335V112.462C87.2238 112.277 87.3721 112.127 87.555 112.127C87.738 112.127 87.8863 112.277 87.8863 112.462V115.335C87.8863 115.52 87.738 115.67 87.555 115.67Z" fill="#372168"/>
<path d="M90.6523 115.668C90.4694 115.668 90.321 115.518 90.321 115.333V109.569C90.321 109.384 90.4694 109.234 90.6523 109.234C90.8353 109.234 90.9836 109.384 90.9836 109.569V115.333C90.9836 115.518 90.8353 115.668 90.6523 115.668Z" fill="#372168"/>
</svg>
