<svg width="459" height="320" viewBox="0 0 459 320" fill="none" xmlns="http://www.w3.org/2000/svg">
<path d="M4.56759 176.249L7.36774 176.144C12.794 204.463 33.599 230.787 67.5338 252.267C120.113 285.547 196.197 301.615 271.065 295.252L271.602 296.867C195.788 303.311 118.739 287.037 65.4943 253.337C31.1296 231.585 10.0614 204.928 4.56759 176.249Z" fill="#01A6FF"/>
<path d="M72.955 69.309C162.857 22.1334 305.79 27.9292 391.573 82.2274C477.36 136.527 474.013 219.083 384.113 266.257L382.167 265.026C470.942 218.441 474.248 136.918 389.533 83.2989C304.821 29.6782 163.679 23.9564 74.9011 70.5408C48.0765 84.6169 27.9418 102.615 16.6752 122.594L13.9893 122.021C25.4023 101.789 45.7925 83.5624 72.955 69.309Z" fill="#01A6FF"/>
<path d="M185.932 51.4947C255.68 44.7908 326.671 59.3678 375.836 90.4874L371.757 92.6278C323.95 62.3694 254.925 48.1959 187.108 54.7152L185.932 51.4947Z" fill="#01A6FF"/>
<path d="M87.9754 78.8154C104.119 70.3444 122.472 63.5832 142.52 58.7197L144.903 61.7372C125.409 66.466 107.567 73.0406 91.8676 81.279C18.0849 119.996 9.57563 185.524 72.0756 233.704L67.6272 235.585C3.34162 186.032 12.0909 118.634 87.9754 78.8154Z" fill="#01A6FF"/>
<path d="M108.978 255.811C146.023 273.08 192.153 282.513 238.868 282.375C286.085 282.236 330.95 272.262 365.201 254.288C392.843 239.783 412.144 220.94 421.019 199.793C431.361 175.144 426.9 148.52 408.461 124.829L413.586 123.604C432.549 147.973 437.139 175.352 426.501 200.7C417.374 222.452 397.522 241.835 369.096 256.752C333.867 275.236 287.724 285.497 239.16 285.639C191.115 285.782 143.671 276.076 105.567 258.313L108.978 255.811Z" fill="#01A6FF"/>
<path d="M127.014 103.525C185.679 72.7402 278.947 76.5222 334.925 111.955C357.579 126.293 371.361 143.87 374.781 162.784L369.175 162.973C365.885 144.787 352.631 127.884 330.846 114.096C277.013 80.0217 187.321 76.3847 130.906 105.988C120.893 111.242 112.379 117.302 105.599 124.004L100.697 122.259C107.751 115.29 116.605 108.986 127.014 103.525Z" fill="#01A6FF"/>
<path d="M81.8111 158.101L87.4396 158.47C84.7881 181.228 98.9248 204.191 126.223 221.47C145.449 233.639 169.9 242.342 196.932 246.641L195.676 249.786C167.563 245.316 142.136 236.265 122.144 223.611C93.7574 205.642 79.0549 181.765 81.8111 158.101Z" fill="#01A6FF"/>
<path d="M241.318 249.567C273.44 248.76 302.782 241.85 326.165 229.578C346.665 218.819 360.681 204.791 366.692 189.007L372.203 189.852C365.948 206.266 351.375 220.855 330.057 232.042C305.742 244.802 275.23 251.988 241.823 252.828L241.318 249.567Z" fill="#01A6FF"/>
<path d="M144.457 114.564C158.783 107.047 176.359 101.708 195.283 99.1232L196.051 100.712C177.566 103.237 160.399 108.453 146.403 115.798C107.775 136.066 98.438 169.665 123.692 197.505L121.21 198.209C95.3564 169.71 104.916 135.313 144.457 114.564Z" fill="#01A6FF"/>
<path d="M231.364 97.4574C263.895 98.7724 294.181 107.327 316.645 121.546C363.007 150.891 361.198 195.505 312.612 221.002C264.027 246.497 186.783 243.363 140.422 214.02L142.461 212.948C187.75 241.615 263.207 244.675 310.666 219.77C358.128 194.865 359.895 151.282 314.606 122.616C292.663 108.726 263.078 100.37 231.298 99.0845L231.364 97.4574Z" fill="#01A6FF"/>
<path d="M202.541 151.331C217.563 143.449 241.441 144.417 255.773 153.489L253.734 154.56C240.475 146.166 218.383 145.272 204.488 152.563C190.592 159.853 190.075 172.615 203.334 181.007C216.591 189.4 238.685 190.295 252.58 183.004C260.295 178.956 264.175 173.093 263.227 166.918L266.035 166.849C267.062 173.521 262.864 179.861 254.526 184.236C239.507 192.117 215.626 191.149 201.295 182.076C186.963 173.006 187.522 159.213 202.541 151.331Z" fill="#01A6FF"/>
<g filter="url(#filter0_d_190_3654)">
<path d="M425.848 141.609V156.621L229.296 270.251V142.039L425.848 141.609Z" fill="#C7D1E1"/>
<path d="M229.296 142.039V270.251L32.7568 156.621V141.609L229.296 142.039Z" fill="url(#paint0_linear_190_3654)"/>
<path d="M32.7568 141.608L229.296 255.235L425.848 141.608L229.296 27.9819L32.7568 141.608Z" fill="#D4E0F2"/>
<path d="M271.559 166.569L273.274 163.103L272.792 159.441C271.327 159.294 269.272 159.6 267.11 160.125C265.413 160.538 263.662 161.084 262.107 161.635C255.157 164.095 246.884 164.102 246.884 164.102C246.884 164.102 245.758 167.932 245.991 171.049L247.063 174.117C247.742 174.85 250.601 175.074 253.906 174.355C256.086 173.886 258.427 172.571 260.571 172.272C265.627 171.559 269.04 169.252 271.559 166.569Z" fill="#252735"/>
<path d="M232.717 43.4647L173.629 77.8489L173.611 112.351V112.344V132.632L232.699 98.2497L232.717 63.7456V63.7528V43.4647Z" fill="#CACED5"/>
<path d="M173.628 77.8489L167.91 74.523L167.893 109.025V129.306L173.61 132.632L173.628 98.137L173.61 98.1298L173.628 77.8489Z" fill="#66311C"/>
<path d="M272.952 133.688L331.522 99.5551L229.803 38.3277L170.715 72.719L272.952 133.688Z" fill="#768192"/>
<path d="M267.239 130.362L267.221 187.108L272.938 190.436L272.956 133.688L267.239 130.362Z" fill="#C7D1E1"/>
<path d="M331.524 99.5558L272.953 130.586L272.936 135.924L272.953 135.91L272.936 190.436L332.023 156.044L331.524 99.5558Z" fill="#A9B9D5"/>
<path d="M167.913 69.8541L167.895 75.2016L272.938 135.925L272.956 130.586L167.913 69.8541Z" fill="#C7D1E1"/>
<path d="M291.821 108.068L275.919 117.258L260.017 108.068L275.919 98.8702L291.821 108.068Z" fill="#FF9000"/>
<path d="M270.561 111.647L272.133 112.556L275.153 112.121C277.136 111.471 279.12 110.822 280.96 109.858L283.068 108.006L282.836 106.398L281.853 106.217C279.441 106.321 277.119 107.054 274.867 107.893L273.277 108.586L271.133 110.606L270.561 111.647Z" fill="#F7AA45"/>
<path d="M215.886 79.6939L229.072 72.0206H232.253L270.721 94.2588L270.739 96.0962L257.535 103.777H254.373L215.886 81.5331V79.6939Z" fill="#50475C"/>
<path d="M213.346 76.9076L214.007 77.829L215.15 78.4945L215.168 77.0257L217.473 75.6839L219.742 76.9989L218.438 77.7467L217.473 77.1867L216.455 77.7736L217.437 78.3407L219.742 76.9989V77.0758L220.85 76.4317L221.243 75.5032L220.511 75.0756V73.5746L222.816 72.2256L223.351 72.5262V71.9251L225.656 70.5832L226.175 70.8767V70.2827L228.479 68.9337L230.749 70.2398V70.6101L231.07 70.4294L233.339 71.7426V72.1058L233.643 71.9179L235.912 73.2311V73.5943L236.234 73.4136L238.503 74.7268V75.0828L238.807 74.9092L241.094 76.2153V76.5785L241.398 76.4049L243.667 77.7109V78.0741L243.988 77.8934L246.258 79.2066V79.5698L246.561 79.3891L248.83 80.6951V81.0654L249.152 80.883L251.421 82.1908V82.5539L251.725 82.3732L253.994 83.6864V84.0496L254.316 83.8671L256.585 85.1821V85.5453L256.907 85.3628L259.176 86.6706V87.0409L259.48 86.8513L261.749 88.1663V88.5294L262.07 88.347L264.34 89.6619V91.0109L265.501 90.3328L267.77 91.646V93.0236L268.842 92.3938L269.485 91.485V92.9878L268.842 93.9038L255.638 101.577H252.475L213.989 79.3318L213.346 78.4104V76.9076Z" fill="#D4D0C8"/>
<path d="M213.99 76.0462L227.195 68.3657H230.357L268.826 90.611L268.844 92.4484L255.64 100.129H252.477L213.99 77.8853V76.0462Z" fill="white"/>
<path d="M254.069 99.5081L252.979 99.263L214.493 77.0177L214.421 76.9622L214.493 76.9139L227.697 69.2334L228.769 68.9883L229.859 69.2334L268.328 91.4769L268.417 91.5342L268.345 91.5896L255.141 99.263L254.069 99.5081Z" fill="#D4D0C8"/>
<path d="M229.215 69.8491L227.018 71.1194L229.162 72.3574L231.359 71.0854L229.215 69.8491Z" fill="#F2F2F2"/>
<path d="M231.646 71.2606L229.466 72.5255L231.61 73.7617L233.79 72.4968L231.646 71.2606Z" fill="#F2F2F2"/>
<path d="M234.093 72.665L231.895 73.9371L234.039 75.1733L236.237 73.9013L234.093 72.665Z" fill="#F2F2F2"/>
<path d="M228.982 72.8106L226.802 74.0826L228.928 75.3188L231.126 74.0468L228.982 72.8106Z" fill="#F2F2F2"/>
<path d="M223.871 72.9586L221.691 74.2235L223.817 75.4597L225.997 74.1948L223.871 72.9586Z" fill="#F2F2F2"/>
<path d="M236.523 74.0767L234.343 75.3487L236.487 76.585L238.667 75.3129L236.523 74.0767Z" fill="#F2F2F2"/>
<path d="M226.303 74.3695L224.123 75.6343L226.267 76.8706L228.447 75.6057L226.303 74.3695Z" fill="#F2F2F2"/>
<path d="M238.97 75.4866L236.772 76.7515L238.917 77.9949L241.114 76.7228L238.97 75.4866Z" fill="#F2F2F2"/>
<path d="M228.749 75.7734L226.569 77.0455L228.695 78.2817L230.875 77.0097L228.749 75.7734Z" fill="#F2F2F2"/>
<path d="M241.399 76.892L239.219 78.1641L241.363 79.4075L243.543 78.1354L241.399 76.892Z" fill="#F2F2F2"/>
<path d="M234.896 76.2353L232.716 77.5002L238.702 80.9585L240.882 79.6882L234.896 76.2353Z" fill="#F2F2F2"/>
<path d="M246.276 79.7146L244.096 80.9795L246.24 82.2229L248.42 80.9526L246.276 79.7146Z" fill="#F2F2F2"/>
<path d="M241.166 79.8615L238.986 81.1264L241.13 82.3716L243.31 81.0996L241.166 79.8615Z" fill="#F2F2F2"/>
<path d="M232.02 77.8988L229.501 79.373L228.053 80.2103L227.321 80.6379L230.93 82.7275L233.11 81.4627L232.002 80.8115L234.539 79.3444L232.02 77.8988Z" fill="#F2F2F2"/>
<path d="M248.727 81.1264L246.529 82.3985L248.673 83.6365L250.871 82.3644L248.727 81.1264Z" fill="#F2F2F2"/>
<path d="M243.614 81.2668L241.434 82.5388L243.56 83.7769L245.74 82.512L243.614 81.2668Z" fill="#F2F2F2"/>
<path d="M240.149 82.3648L237.969 83.6368L240.095 84.873L242.275 83.601L240.149 82.3648Z" fill="#F2F2F2"/>
<path d="M251.155 82.5383L248.975 83.8032L251.119 85.0483L253.299 83.7763L251.155 82.5383Z" fill="#F2F2F2"/>
<path d="M246.043 82.6779L243.863 83.95L246.007 85.188L248.187 83.916L246.043 82.6779Z" fill="#F2F2F2"/>
<path d="M242.543 83.7561L240.363 85.0281L242.508 86.2644L244.688 84.9995L242.543 83.7561Z" fill="#F2F2F2"/>
<path d="M253.6 83.9438L251.402 85.2158L253.546 86.4539L255.744 85.1818L253.6 83.9438Z" fill="#F2F2F2"/>
<path d="M248.495 84.0898L246.315 85.3618L248.459 86.5999L250.639 85.3278L248.495 84.0898Z" fill="#F2F2F2"/>
<path d="M231.949 83.8388L229.769 85.1108L234.021 87.5708L236.201 86.2988L231.949 83.8388Z" fill="#F2F2F2"/>
<path d="M244.954 85.1526L242.774 86.4174L244.918 87.6626L247.098 86.3906L244.954 85.1526Z" fill="#F2F2F2"/>
<path d="M256.032 85.3542L253.852 86.6262L255.996 87.8643L258.176 86.5922L256.032 85.3542Z" fill="#F2F2F2"/>
<path d="M250.922 85.5032L248.743 86.7681L250.887 88.0115L253.066 86.7394L250.922 85.5032Z" fill="#F2F2F2"/>
<path d="M247.365 86.5447L245.185 87.815L247.329 89.053L249.509 87.781L247.365 86.5447Z" fill="#F2F2F2"/>
<path d="M258.48 86.7604L256.282 88.0379L258.426 89.2759L260.624 88.0039L258.48 86.7604Z" fill="#F2F2F2"/>
<path d="M253.374 86.9067L251.194 88.1788L253.338 89.415L255.518 88.1502L253.374 86.9067Z" fill="#F2F2F2"/>
<path d="M249.78 87.941L247.6 89.2059L249.744 90.4421L251.924 89.1773L249.78 87.941Z" fill="#F2F2F2"/>
<path d="M260.909 88.18L258.73 89.4449L260.874 90.6812L263.054 89.4091L260.909 88.18Z" fill="#F2F2F2"/>
<path d="M255.799 88.3186L253.62 89.5906L255.764 90.8269L257.943 89.5549L255.799 88.3186Z" fill="#F2F2F2"/>
<path d="M252.19 89.3311L250.01 90.6031L252.154 91.8394L254.334 90.5745L252.19 89.3311Z" fill="#F2F2F2"/>
<path d="M264.144 90.0461L261.964 91.3181L264.108 92.5615L266.306 91.2895L264.144 90.0461Z" fill="#F2F2F2"/>
<path d="M254.602 90.7286L252.422 91.9934L254.566 93.2314L256.746 91.9666L254.602 90.7286Z" fill="#F2F2F2"/>
<path d="M236.47 86.4536L234.29 87.7256L244.778 93.7834L246.958 92.5114L236.47 86.4536Z" fill="#F2F2F2"/>
<path d="M258.337 89.7866L256.175 91.0586L261.446 94.1125L263.626 92.8405L258.337 89.7866Z" fill="#F2F2F2"/>
<path d="M257.015 92.1288L254.835 93.3937L258.766 95.6641L260.964 94.3992L257.015 92.1288Z" fill="#F2F2F2"/>
<path d="M247.276 92.707L245.096 93.9719L248.724 96.0615L250.903 94.7966L247.276 92.707Z" fill="#F2F2F2"/>
<path d="M251.334 95.0471L249.154 96.3191L253.425 98.7791L255.604 97.5142L251.334 95.0471Z" fill="#F2F2F2"/>
<path d="M226.535 71.4006L224.355 72.6727L226.499 73.9089L228.679 72.6369L226.535 71.4006Z" fill="#F2F2F2"/>
<path d="M231.413 74.2222L229.234 75.4942L231.378 76.7305L233.558 75.4584L231.413 74.2222Z" fill="#F2F2F2"/>
<path d="M218.815 76.2141L216.635 77.4861L218.779 78.7224L220.959 77.4575L218.815 76.2141Z" fill="#F2F2F2"/>
<path d="M221.245 77.6181L220.941 77.7863L219.065 78.8902L221.209 80.1282L223.389 78.8561L223.156 78.7292L221.245 77.6181Z" fill="#F2F2F2"/>
<path d="M223.604 76.2141L223.3 76.3894L221.424 77.4861L223.568 78.7224L225.748 77.4575L225.516 77.3251L223.604 76.2141Z" fill="#F2F2F2"/>
<path d="M243.848 78.3045L241.65 79.5765L243.795 80.8127L245.992 79.5407L243.848 78.3045Z" fill="#F2F2F2"/>
<path d="M223.604 78.9827L221.424 80.2547L223.568 81.491L225.748 80.2189L223.604 78.9827Z" fill="#F2F2F2"/>
<path d="M235.326 79.5754L233.146 80.8475L235.29 82.0837L237.47 80.8189L235.326 79.5754Z" fill="#F2F2F2"/>
<path d="M237.737 80.9729L235.557 82.2378L237.701 83.4758L239.881 82.211L237.737 80.9729Z" fill="#F2F2F2"/>
<path d="M227.089 81.0301L224.909 82.2949L229.322 84.8516L231.502 83.5867L227.089 81.0301Z" fill="#F2F2F2"/>
<path d="M250.565 91.4914L248.385 92.7563L250.529 94.0015L252.709 92.7294L250.565 91.4914Z" fill="#F2F2F2"/>
<path d="M250.335 91.3518L248.191 90.1155L246.011 91.3804L248.137 92.6238L250.335 91.3518Z" fill="#F2F2F2"/>
<path d="M247.92 89.9619L245.776 88.7168L243.596 89.9888L245.74 91.2268L247.92 89.9619Z" fill="#F2F2F2"/>
<path d="M245.544 88.5773L243.382 87.3411L241.202 88.6131L243.346 89.8494L245.544 88.5773Z" fill="#F2F2F2"/>
<path d="M243.044 87.1393L240.9 85.9013L238.72 87.1734L240.864 88.4114L243.044 87.1393Z" fill="#F2F2F2"/>
<path d="M240.667 85.7597L238.523 84.5234L236.325 85.7955L238.469 87.0317L240.667 85.7597Z" fill="#F2F2F2"/>
<path d="M238.256 84.3699L236.112 83.1247L233.914 84.3968L236.058 85.6348L238.256 84.3699Z" fill="#F2F2F2"/>
<path d="M235.86 82.9853L233.716 81.749L231.537 83.0211L233.681 84.2573L235.86 82.9853Z" fill="#F2F2F2"/>
<path d="M258.284 95.9502L253.013 92.8963L250.815 94.1683L256.104 97.2151L258.284 95.9502Z" fill="#F2F2F2"/>
<path d="M228.371 69.337L228.997 67.6464L227.996 67.4013C219.08 66.4942 219.313 66.6964 212.791 71.4267L212.219 71.5734L185.454 75.0961L193.994 78.6813L190.475 87.0811L213.22 78.4863L216.293 78.8907C220.778 78.8764 226.674 76.6204 226.549 75.6686L224.977 74.418C223.297 74.3071 222.868 75.4449 219.956 74.7472C220.724 72.9653 222.565 71.7845 224.53 71.8471C226.156 71.8954 228.354 72.6075 229.926 72.1602C232.981 71.3014 229.444 70.058 228.371 69.337Z" fill="#FFD6BF"/>
<path d="M191.459 159.776L185.08 206.453L187.761 204.902L193.925 159.776H191.459Z" fill="#211F26"/>
<path d="M223.461 147.583H220.513L226.391 183.754L229.071 182.203L223.461 147.583Z" fill="#211F26"/>
<path d="M188.995 159.776L182.795 205.118L185.082 206.453L191.461 159.776H188.995Z" fill="#2B2730"/>
<path d="M220.513 147.583H218.44L224.105 182.427L226.392 183.754L220.513 147.583Z" fill="#2B2730"/>
<path d="M157.599 145.618L151.9 187.326L154.598 185.766L160.083 145.618H157.599Z" fill="#211F26"/>
<path d="M155.134 145.618L149.613 185.99L151.9 187.326L157.6 145.618H155.134Z" fill="#2B2730"/>
<path d="M198.339 137.315V167.967L196.892 168.814L194.051 170.463L192.496 170.742L191.71 170.463L188.905 168.835L154.546 148.98L153.402 147.232L153.384 147.227V141.153L161.532 140.874L165.677 138.448L167.625 137.315H198.339Z" fill="#C7D1E1"/>
<path d="M181.954 122.932L181.222 123.603L154.545 139.125V143.179L191.71 164.662L194.05 164.655L223.979 147.231L181.954 122.932Z" fill="#768192"/>
<path d="M224.014 147.177V152.907L195.461 169.638V163.872H195.39L224.014 147.177Z" fill="#A9B9D5"/>
<path d="M221.567 112.765C216.493 110.753 208.56 111.563 203.861 114.309L187.637 120.152V141.739L223.997 130.865C228.696 128.112 228.321 115.442 221.567 112.765Z" fill="#005B75"/>
<path d="M216.544 116.839C207.45 112.989 197.515 119.027 187.634 123.324V141.739L223.995 130.865L224.37 130.613C223.709 124.267 221.511 118.914 216.544 116.839Z" fill="#383340"/>
<path d="M221.567 112.765C216.493 110.752 208.56 111.563 203.861 114.309L187.637 120.152V123.324C197.518 119.027 207.452 112.988 216.547 116.838C221.514 118.914 223.711 124.267 224.373 130.613C228.679 127.426 228.125 115.371 221.567 112.765Z" fill="#2B2730"/>
<path d="M240.615 126.693C239.043 124.086 237.667 121.311 234.933 120.032C231.878 118.613 230.127 118.873 230.109 118.873C228.233 118.928 222.104 120.703 220.657 121.256L215.44 123.485L198.609 131.36L178.937 140.572C176.274 146.784 177.9 151.55 181.527 154.382C186.209 158.023 194.231 158.449 200.753 154.611L200.896 154.529C205.023 152.04 212.938 146.743 219.817 142.061C221.479 140.928 223.087 139.839 224.552 138.824L245.904 167.743C248.888 168.729 257.893 165.857 259.197 163.179C259.197 163.179 246.922 137.127 240.615 126.693Z" fill="#383340"/>
<path d="M259.197 163.18C259.197 163.18 246.922 137.127 240.615 126.693C239.043 124.087 237.667 121.312 234.933 120.033C231.878 118.614 230.127 118.873 230.109 118.873C228.233 118.929 222.104 120.703 220.657 121.256L215.44 123.485L198.609 131.361L178.937 140.573C176.953 145.199 177.346 149.016 179.169 151.839C188.353 146.527 197.304 141.802 206.577 135.492C217.405 128.119 231.699 122.913 239.936 135.059C246.458 144.863 249.96 155.576 255.499 165.935C257.303 165.11 258.733 164.131 259.197 163.18Z" fill="#2B2730"/>
<path d="M200.748 154.611C193.726 159.175 180.486 158.211 172.285 153.661L171.124 152.969L170.695 152.69C167.425 150.509 165.567 147.673 164.888 141.215C164.602 138.286 164.959 134.904 165.549 131.36H199.587L200.587 151.362L200.748 154.611Z" fill="#383340"/>
<path d="M186.136 75.5991C185.975 75.3898 181.687 69.3034 179.346 66.5285C177.631 64.4943 175.29 62.9021 172.646 62.0773C167.196 60.3652 161.907 65.7324 162.05 70.5325C162.14 73.132 163.444 75.5096 165.213 77.3756C167.643 79.8982 171.091 85.1116 176.219 88.8848C180.293 85.5857 184.438 80.5119 186.136 75.5991Z" fill="#FF9000"/>
<path d="M192.247 57.7305L192.229 58.5195L192.104 65.4593L190.46 67.3611L190.425 67.3468L189.888 67.2913C184.85 66.7528 178.793 67.5078 178.775 67.4792L178.739 56.5569L179.364 56.6052L188.441 57.4013L192.247 57.7305Z" fill="#FFD6BF"/>
<path d="M206.557 111.807C206.467 118.516 207.486 137.112 207.807 142.982L206.342 145.834C203.591 147.539 201.107 148.419 198.159 148.93L193.924 149.44C188.1 149.902 181.846 149.719 176.093 148.7C171.804 147.937 167.838 146.428 164.568 143.814L163.353 141.32V141.305C163.192 134.952 166.551 117.411 166.569 110.576C166.587 98.8704 160.012 86.6618 160.298 80.1281C160.548 74.641 159.708 63.8225 175.95 62.0137C178.255 61.7543 184.883 63.0746 191.709 65.5078C199.017 68.1073 206.092 72.9503 206.86 81.1049C206.86 81.1049 210.202 80.722 209.594 84.9013C208.683 91.113 207.45 100.142 206.878 106.614C206.682 108.655 206.575 110.451 206.557 111.807Z" fill="#F7AA45"/>
<path d="M207.807 142.983C207.486 137.113 206.467 118.517 206.557 111.808C206.575 110.452 206.682 108.656 206.878 106.614C207.45 100.143 208.683 91.1139 209.594 84.9023C210.202 80.723 206.86 81.1059 206.86 81.1059C206.36 75.7745 203.162 71.8617 198.963 69.0583C197.016 68.772 195.3 69.7291 193.567 70.4215C188.814 72.5881 187.081 79.9609 190.119 83.4335C207.879 101.22 203.108 125.512 202.679 147.205L202.662 147.693L206.342 145.835L207.807 142.983Z" fill="#FF9000"/>
<path d="M150.901 112.345L151.241 88.8433L149.472 87.5712L152.027 85.2025L152.134 85.0969L152.17 85.0683V85.0755L154.761 84.8948L182.527 100.263L183.527 101.485L151.759 117.252L150.901 112.345Z" fill="#D4E0F2"/>
<path d="M183.527 101.485L183.616 101.68L183.634 101.745L183.652 101.856L190.656 137.315L196.892 168.814L194.051 170.463L192.496 170.742L191.46 164.586L165.677 138.448L153.277 125.869L151.758 117.253L183.527 101.485Z" fill="#A9B9D5"/>
<path d="M191.674 165.34C191.674 165.34 183.794 121.857 181.007 105.712L179.578 102.946L151.794 87.5783C150.364 86.7464 148.542 87.6338 148.327 89.2761L153.384 142.871L191.674 165.34Z" fill="#C7D1E1"/>
<path d="M198.963 38.0021C200.553 46.1013 201.16 54.7317 197.194 58.7303C195.925 60.0149 193.96 60.4067 191.905 60.3226L190.672 60.226C188.332 59.9379 186.045 59.1561 184.597 58.4852C182.489 57.4851 179.273 50.4272 178.38 47.9816C175.557 40.2313 181.453 38.8054 186.009 34.3256C190.583 29.8458 197.355 29.9155 198.963 38.0021Z" fill="#FFD6BF"/>
<path d="M193.606 24.7718C191.319 23.4156 188.335 22.7447 185.726 22.3189C182.707 21.8162 179.58 21.9146 176.775 23.2206C171.95 25.457 168.752 30.1604 167.198 35.109C166.394 37.6584 166.036 40.3152 166.233 42.9845C166.358 44.8845 167.18 46.5143 167.733 48.2265C169.967 51.6293 175.72 57.9608 175.738 57.9966L179.937 59.5746C182.045 59.9664 183.403 58.3669 184.35 56.6119C185.244 55.0124 185.476 53.2019 185.69 51.42L186.798 47.7506L191.676 47.1638C194.052 45.7933 193.445 42.5999 193.498 40.3421L194.803 36.737C196.321 35.2271 198.126 35.3326 199.234 33.0605C200.27 30.9011 198.555 27.7345 193.606 24.7718Z" fill="#372F52"/>
<path d="M166.287 43.5785C166.538 45.228 167.234 46.6879 167.735 48.2265C169.968 51.6293 175.722 57.9608 175.739 57.9966L179.938 59.5746C182.047 59.9664 183.404 58.3669 184.351 56.6119C185.245 55.0124 185.477 53.2019 185.692 51.42L186.799 47.7506L191.677 47.1638C194.053 45.7933 193.446 42.5999 193.5 40.3421L193.821 38.392C184.566 37.4348 173.149 37.925 166.287 43.5785Z" fill="#221C36"/>
<path d="M189.709 48.1767C190.781 49.9587 190.567 52.0483 189.244 52.8319C187.922 53.6137 185.993 52.7961 184.938 51.0071C183.884 49.2251 184.099 47.1355 185.403 46.3537C186.725 45.57 188.655 46.3877 189.709 48.1767Z" fill="#FFD6BF"/>
<path d="M188.53 48.8751L188.298 51.2295L186.118 50.3081L186.35 47.9519L188.53 48.8751Z" fill="#F5C2A6"/>
<path d="M261.34 90.5268L257.713 89.8147L253.103 90.5053C254.943 90.1851 256.712 89.7235 258.481 89.1564L259.571 88.2421L253.961 88.2135L251.656 88.6125C253.175 88.0257 255.033 87.2277 254.479 85.3349L254.247 84.9646L251.602 86.1668C249.869 87.0739 247.886 87.4103 246.188 88.3388L244.223 89.8219C243.758 90.0867 241.918 91.1065 240.203 91.407C234.217 92.4411 223.139 92.5878 219.208 90.7361C216.064 89.2548 213.741 86.2223 211.901 84.0414C209.56 81.2666 207.898 78.1643 205.558 75.3895C203.86 73.3553 202.127 70.813 199.483 69.9811C194.033 68.2689 189.852 74.3142 189.995 79.1072C190.067 81.7138 190.942 84.0897 192.729 85.9503C196.785 90.1851 205.486 100.415 216.028 102.394C226.302 104.322 238.059 99.6332 243.598 97.9425L246.028 97.8727L249.244 97.6276L252.621 97.1947C254.818 96.6347 256.141 96.3001 258.374 95.7616L259.374 95.2589L259.214 94.7759H259.16L254.104 94.3429C256.087 94.2302 257.856 93.994 259.785 93.5664L260.84 92.4286L259.339 91.8901L256.48 92.0153L260.84 91.2049L261.34 90.5268Z" fill="#FFD6BF"/>
<path d="M213.618 84.1807C213.457 83.9643 207.883 78.1641 205.542 75.3821C203.845 73.3551 202.111 70.8056 199.467 69.9809C194.017 68.2687 189.837 74.314 189.98 79.1069C190.051 81.7136 190.927 84.0895 192.713 85.9501C195.125 88.4799 198.574 93.6932 203.72 97.4592C207.775 94.1602 211.921 89.0935 213.618 84.1807Z" fill="#F7AA45"/>
<path d="M275.151 106.349L273.954 107.047V112.344L281.369 108.09L281.28 106.349H275.151Z" fill="#D4D0C8"/>
<path d="M280.798 108.3C277.904 109.11 276.439 109.781 275.027 111.457L271.311 112.186L269.703 109.962L270.006 108.865C271.132 106.405 273.544 104.441 276.331 103.764C278.207 103.233 280.691 103.498 281.745 105.217L281.888 105.455L281.977 105.657C282.424 106.6 282.621 107.79 280.798 108.3Z" fill="#F2F2F2"/>
<path d="M272.133 107.167L271.168 109.074L272.49 110.906L274.831 109.815L277.815 107.405L279.065 105.28C278.101 102.617 273.08 106.049 272.133 107.167Z" fill="white"/>
<path d="M281.979 105.657C280.103 105.035 278.299 105.378 276.566 106.237L276.548 106.203C277.995 104.987 279.96 104.741 281.747 105.217L281.89 105.455L281.979 105.657Z" fill="#D4D0C8"/>
<path d="M280.735 80.9224L283.165 78.9025C284.523 77.7486 285.327 76.065 285.327 74.2688V58.1242H284.559V74.2688L282.665 78.3139L279.967 80.586L280.735 80.9224Z" fill="#CCBABA"/>
<path d="M276.843 83.4649H276.861V84.0034L280.738 80.9226L280.773 80.9012V80.3555L280.505 80.5576L280.363 80.6704L280.291 80.7401L276.843 83.4649Z" fill="#CCBABA"/>
<path d="M257.455 72.3527L276.841 83.4646L280.289 80.7399L280.361 80.6701L280.504 80.5574H280.54L280.772 80.3624L282.934 78.5375L283.005 78.4749L284.899 74.4924V58.8452L284.56 58.6556L272.499 51.9823L268.211 48.0678H267.443V64.2124L267.425 64.4986L265.549 68.2503L265.281 68.44C264.191 69.1592 260.921 70.7389 257.455 72.3527Z" fill="#F2F2F2"/>
<path d="M267.425 64.4982L284.899 74.4919V60.0112L282.648 58.1166C282.362 58.4601 271.213 55.356 267.443 54.839V64.2119L267.425 64.4982Z" fill="#D4D0C8"/>
<path d="M276.842 83.4649L257.456 72.353V72.9058L276.86 84.0034L276.842 83.4649Z" fill="#F2EAE6"/>
<path d="M265.281 68.4401L282.934 78.5376L283.005 78.475L284.899 74.4925L267.425 64.4987L265.549 68.2504L265.281 68.4401Z" fill="#E9E5E5"/>
<path d="M246.002 1.08421L246.431 1.15933L247.306 1.33468L247.253 1.62093L247.217 2.41885L247.288 11.6218L247.503 43.0147C247.521 45.4675 249.039 48.305 250.88 49.3534L307.252 81.8286L307.341 81.8859L304.897 83.0864C304.897 83.0864 307.689 83.4005 308.824 82.3259C309.551 81.6382 309.968 80.0324 309.968 80.0324L309.985 79.6066L309.682 39.0805V39.0179C309.664 37.3254 308.949 35.4523 307.895 34.1105L306.305 32.672L249.951 0.195023L247.842 2.28882e-05L246.252 0.942848L246.216 1.12177" fill="#A1B0D4"/>
<path d="M245.66 1.68108L246.252 1.62235H247.252L305.965 35.0208L307.895 34.1119L306.304 32.6735L249.95 0.196442L247.842 0.00144196L246.252 0.944271" fill="#A1B0D4"/>
<path d="M244.839 3.80215L244.875 7.85617L244.911 13.0069L245.125 44.398C245.143 46.8454 246.662 49.6883 248.52 50.7438L269.157 62.464L291.331 75.0502L291.849 75.3579L304.897 83.0865C304.897 83.0865 307.643 83.1641 308.054 81.879C308.148 81.5876 308.162 81.1026 308.162 81.1026L308.18 80.6768L308.144 76.0574L308.054 64.1547L307.876 40.0792C307.858 37.6263 306.339 34.7817 304.499 33.7351L281.235 20.5407L281.2 20.5121L273.249 15.7871L263.171 9.79195H263.154L251.522 3.17239L248.145 1.25809L245.661 1.68107L244.839 3.80215Z" fill="#E6EAF4"/>
<path d="M306 38.9609V80.3135L286.882 69.1175L268.353 58.2846L268.264 58.222L260.116 53.4631V53.4559L247.073 45.8309V4.48723L262.957 13.7743L267.442 16.3953L278.323 22.7698L288.597 28.7793L306 38.9609Z" fill="#FF9000"/>
<path d="M247.913 4.97566V45.3765L306 79.3617V80.3135L247.073 45.8309V4.48723L247.913 4.97566Z" fill="#CCBABA"/>
<path d="M306 80.3135L247.073 45.8309L247.913 45.3765L306 79.3617V80.3135Z" fill="#9AAACF"/>
<path d="M298.154 46.5956C298.634 46.5998 298.86 46.033 298.871 45.2302C298.884 44.1605 298.503 43.0791 297.674 42.5914C297.478 42.4747 297.309 42.4218 297.164 42.4206C296.676 42.4163 296.468 43.0038 296.459 43.7841C296.447 44.9298 296.837 45.9476 297.653 46.429C297.843 46.5416 298.01 46.5944 298.154 46.5956ZM297.535 43.2041C297.577 43.2045 297.624 43.2193 297.675 43.2505C297.951 43.4131 298.136 43.9301 298.117 44.7842C298.116 45.4865 297.992 45.8139 297.787 45.8121C297.742 45.8117 297.694 45.7949 297.642 45.7636C297.35 45.5906 297.199 45.0821 297.208 44.2341C297.216 43.5566 297.326 43.2023 297.535 43.2041Z" fill="#768192"/>
<path d="M295.419 44.9826C295.9 44.9868 296.126 44.42 296.137 43.6172C296.149 42.5474 295.769 41.4661 294.939 40.9783C294.744 40.8637 294.574 40.8088 294.43 40.8075C293.942 40.8033 293.735 41.3908 293.725 42.1731C293.711 43.3167 294.101 44.3345 294.918 44.816C295.109 44.9285 295.276 44.9813 295.419 44.9826ZM294.801 41.5911C294.843 41.5915 294.89 41.6062 294.94 41.6354C295.217 41.8001 295.401 42.3191 295.383 43.1711C295.382 43.8755 295.259 44.2009 295.054 44.1991C295.009 44.1987 294.96 44.1819 294.908 44.1527C294.616 43.9797 294.465 43.4691 294.474 42.6211C294.483 41.9436 294.592 41.5893 294.801 41.5911Z" fill="#768192"/>
<path d="M292.378 43.2573L292.412 40.3253L292.423 40.3315L293.027 41.0247L293.162 40.4489L292.317 39.4949L291.696 39.128L291.655 42.828L292.378 43.2573Z" fill="#768192"/>
<path d="M289.643 41.644L289.676 38.712L289.687 38.7182L290.295 39.4114L290.427 38.8356L289.581 37.8816L288.961 37.5168L288.918 41.2167L289.643 41.644Z" fill="#768192"/>
<path d="M287.217 40.1428C287.698 40.147 287.922 39.5801 287.934 38.7794C287.945 37.7076 287.564 36.6282 286.737 36.1405C286.541 36.0238 286.371 35.971 286.226 35.9697C285.738 35.9655 285.53 36.553 285.521 37.3332C285.507 38.4789 285.898 39.4967 286.714 39.9761C286.906 40.0887 287.073 40.1415 287.217 40.1428ZM286.598 36.7512C286.639 36.7516 286.686 36.7664 286.736 36.7976C287.013 36.9602 287.197 37.4772 287.181 38.3334C287.179 39.0356 287.055 39.361 286.849 39.3592C286.804 39.3588 286.756 39.342 286.704 39.3128C286.412 39.1419 286.261 38.6292 286.272 37.7833C286.279 37.1057 286.388 36.7494 286.598 36.7512Z" fill="#768192"/>
<path d="M284.481 38.5314C284.962 38.5356 285.189 37.9688 285.2 37.1639C285.212 36.0983 284.832 35.0149 284.002 34.5251C283.807 34.4104 283.637 34.3576 283.493 34.3564C283.004 34.3521 282.796 34.9396 282.787 35.7198C282.774 36.8635 283.165 37.8833 283.981 38.3648C284.171 38.4774 284.338 38.5302 284.481 38.5314ZM283.864 35.1399C283.905 35.1402 283.952 35.155 284.002 35.1863C284.279 35.3489 284.464 35.8638 284.445 36.72C284.444 37.4222 284.32 37.7476 284.115 37.7458C284.072 37.7455 284.023 37.7307 283.97 37.6994C283.677 37.5264 283.527 37.0179 283.538 36.1699C283.545 35.4923 283.654 35.138 283.864 35.1399Z" fill="#768192"/>
<path d="M281.746 36.9181C282.227 36.9223 282.452 36.3555 282.465 35.5527C282.476 34.483 282.094 33.4016 281.267 32.9139C281.071 32.7992 280.902 32.7444 280.757 32.7431C280.269 32.7388 280.06 33.3263 280.051 34.1065C280.037 35.2522 280.429 36.268 281.245 36.7516C281.436 36.8641 281.602 36.9169 281.746 36.9181ZM281.128 33.5266C281.17 33.527 281.217 33.5418 281.267 33.571C281.543 33.7356 281.728 34.2526 281.71 35.1067C281.708 35.809 281.585 36.1364 281.379 36.1346C281.335 36.1343 281.286 36.1174 281.235 36.0882C280.942 35.9132 280.791 35.4026 280.802 34.5587C280.81 33.8791 280.919 33.5248 281.128 33.5266Z" fill="#768192"/>
<path d="M278.703 35.1936L278.737 32.2615L278.749 32.2678L279.356 32.959L279.487 32.3851L278.642 31.4311L278.026 31.0684L277.983 34.7663L278.703 35.1936Z" fill="#768192"/>
<path d="M276.279 33.6916C276.759 33.6958 276.985 33.129 276.996 32.3241C277.009 31.2585 276.627 30.1771 275.8 29.6873C275.605 29.5727 275.436 29.5178 275.291 29.5165C274.801 29.5123 274.593 30.0998 274.582 30.882C274.569 32.0277 274.96 33.0456 275.777 33.525C275.967 33.6375 276.135 33.6903 276.279 33.6916ZM275.66 30.3021C275.703 30.3025 275.749 30.3173 275.799 30.3465C276.076 30.5111 276.26 31.0261 276.242 31.8801C276.241 32.5845 276.117 32.9099 275.912 32.9081C275.867 32.9077 275.819 32.8908 275.767 32.8616C275.474 32.6886 275.324 32.1781 275.333 31.3322C275.342 30.6546 275.451 30.3003 275.66 30.3021Z" fill="#768192"/>
<path d="M273.544 32.0805C274.024 32.0847 274.25 31.5158 274.261 30.713C274.274 29.6433 273.893 28.5619 273.064 28.0742C272.868 27.9595 272.699 27.9067 272.554 27.9054C272.066 27.9012 271.857 28.4887 271.849 29.2669C271.835 30.4126 272.226 31.4324 273.043 31.9139C273.234 32.0265 273.4 32.0792 273.544 32.0805ZM272.925 28.689C272.967 28.6894 273.014 28.7041 273.064 28.7333C273.342 28.898 273.524 29.4129 273.507 30.2691C273.506 30.9713 273.382 31.2967 273.176 31.2949C273.132 31.2946 273.084 31.2798 273.032 31.2485C272.739 31.0755 272.589 30.567 272.599 29.719C272.607 29.0394 272.716 28.6872 272.925 28.689Z" fill="#768192"/>
<path d="M270.5 30.3552L270.535 27.4211L270.545 27.4294L271.151 28.1206L271.284 27.5447L270.44 26.5928L269.821 26.228L269.78 29.9279L270.5 30.3552Z" fill="#768192"/>
<path d="M268.075 28.8539C268.556 28.8581 268.781 28.2913 268.793 27.4885C268.805 26.4188 268.424 25.3374 267.595 24.8517C267.398 24.735 267.229 24.6801 267.084 24.6788C266.597 24.6746 266.388 25.2621 266.38 26.0423C266.367 27.188 266.759 28.2059 267.574 28.6873C267.764 28.7999 267.931 28.8527 268.075 28.8539ZM267.456 25.4624C267.499 25.4628 267.545 25.4776 267.596 25.5088C267.873 25.6714 268.056 26.1905 268.039 27.0425C268.036 27.7447 267.914 28.0722 267.709 28.0704C267.664 28.07 267.615 28.0532 267.564 28.024C267.273 27.8531 267.119 27.3404 267.131 26.4945C267.138 25.8149 267.247 25.4606 267.456 25.4624Z" fill="#768192"/>
<path d="M265.339 27.2404C265.82 27.2446 266.045 26.6778 266.057 25.8729C266.07 24.8053 265.686 23.7239 264.858 23.2382C264.662 23.1215 264.493 23.0686 264.348 23.0674C263.861 23.0631 263.652 23.6506 263.644 24.4288C263.631 25.5745 264.018 26.5923 264.838 27.0738C265.029 27.1864 265.196 27.2392 265.339 27.2404ZM264.72 23.8489C264.762 23.8493 264.809 23.8661 264.86 23.8953C265.136 24.0579 265.319 24.5749 265.302 25.4289C265.299 26.1312 265.176 26.4566 264.972 26.4548C264.927 26.4544 264.878 26.4396 264.826 26.4084C264.534 26.2375 264.384 25.7289 264.394 24.881C264.401 24.2034 264.511 23.8471 264.72 23.8489Z" fill="#768192"/>
<path d="M262.608 25.6271C263.088 25.6313 263.313 25.0645 263.324 24.2596C263.336 23.194 262.954 22.1106 262.127 21.6249C261.931 21.5082 261.761 21.4554 261.616 21.4541C261.128 21.4498 260.92 22.0353 260.911 22.8176C260.898 23.9612 261.288 24.979 262.105 25.4605C262.296 25.5731 262.464 25.6259 262.608 25.6271ZM261.988 22.2356C262.03 22.236 262.076 22.2528 262.127 22.282C262.404 22.4446 262.586 22.9616 262.57 23.8157C262.568 24.5179 262.446 24.8454 262.24 24.8436C262.195 24.8432 262.147 24.8264 262.094 24.7951C261.802 24.6242 261.652 24.1136 261.662 23.2677C261.67 22.5881 261.778 22.2338 261.988 22.2356Z" fill="#768192"/>
<path d="M259.562 23.9006L259.598 20.9706L259.608 20.9769L260.213 21.6701L260.346 21.0963L259.503 20.1423L258.885 19.7775L258.842 23.4774L259.562 23.9006Z" fill="#768192"/>
<path d="M256.829 22.2873L256.863 19.3594L256.872 19.3636L257.479 20.0568L257.612 19.481L256.768 18.5269L256.15 18.1663L256.108 21.8642L256.829 22.2873Z" fill="#768192"/>
<path d="M254.402 20.7895C254.883 20.7937 255.107 20.2268 255.121 19.4241C255.133 18.3543 254.75 17.2729 253.924 16.7831C253.727 16.6685 253.558 16.6157 253.413 16.6144C252.924 16.6102 252.717 17.1977 252.708 17.9779C252.695 19.1236 253.083 20.1393 253.901 20.6229C254.092 20.7354 254.258 20.7882 254.402 20.7895ZM253.784 17.398C253.826 17.3983 253.873 17.4131 253.923 17.4444C254.198 17.6069 254.383 18.124 254.367 18.978C254.365 19.6803 254.241 20.0078 254.036 20.006C253.992 20.0056 253.943 19.9887 253.891 19.9575C253.602 19.7886 253.448 19.2739 253.457 18.428C253.466 17.7504 253.575 17.3961 253.784 17.398Z" fill="#768192"/>
<path d="M298.074 53.4325C298.556 53.4367 298.781 52.8699 298.794 52.0671C298.806 50.9974 298.424 49.916 297.596 49.4282C297.399 49.3136 297.229 49.2587 297.084 49.2575C296.597 49.2532 296.39 49.8387 296.381 50.621C296.367 51.7667 296.757 52.7845 297.573 53.268C297.764 53.3785 297.93 53.4313 298.074 53.4325ZM297.457 50.041C297.5 50.0414 297.546 50.0562 297.596 50.0854C297.873 50.25 298.056 50.767 298.04 51.6211C298.038 52.3233 297.914 52.6488 297.708 52.647C297.663 52.6466 297.614 52.6318 297.562 52.6005C297.271 52.4275 297.121 51.919 297.129 51.071C297.138 50.3935 297.248 50.0392 297.457 50.041Z" fill="#768192"/>
<path d="M295.341 51.8193C295.822 51.8235 296.048 51.2566 296.06 50.4518C296.071 49.3841 295.689 48.3027 294.862 47.815C294.666 47.6983 294.497 47.6455 294.352 47.6442C293.864 47.6399 293.656 48.2274 293.647 49.0097C293.634 50.1534 294.023 51.1712 294.84 51.6527C295.03 51.7652 295.197 51.818 295.341 51.8193ZM294.724 48.4277C294.765 48.4281 294.812 48.4429 294.862 48.4721C295.139 48.6367 295.322 49.1537 295.307 50.0078C295.305 50.7101 295.181 51.0355 294.975 51.0337C294.93 51.0333 294.881 51.0185 294.829 50.9873C294.538 50.8163 294.388 50.3057 294.397 49.4598C294.405 48.7802 294.515 48.4259 294.724 48.4277Z" fill="#768192"/>
<path d="M292.606 50.2062C293.088 50.2104 293.312 49.6436 293.324 48.8408C293.336 47.7711 292.953 46.6897 292.127 46.202C291.931 46.0873 291.762 46.0324 291.617 46.0312C291.128 46.0269 290.921 46.6144 290.912 47.3946C290.899 48.5424 291.288 49.5582 292.104 50.0396C292.296 50.1522 292.463 50.205 292.606 50.2062ZM291.988 46.8147C292.03 46.8151 292.077 46.8319 292.127 46.8611C292.404 47.0237 292.588 47.5407 292.571 48.3948C292.569 49.0991 292.445 49.4245 292.239 49.4227C292.194 49.4223 292.145 49.4055 292.093 49.3742C291.803 49.2013 291.651 48.6927 291.661 47.8468C291.67 47.1672 291.778 46.8129 291.988 46.8147Z" fill="#768192"/>
<path d="M289.564 48.4817L289.598 45.5496L289.609 45.5559L290.214 46.2491L290.347 45.6732L289.503 44.7192L288.883 44.3544L288.838 48.0544L289.564 48.4817Z" fill="#768192"/>
<path d="M287.136 46.9801C287.618 46.9844 287.843 46.4196 287.856 45.6148C287.868 44.5471 287.485 43.4657 286.658 42.9779C286.462 42.8612 286.292 42.8084 286.147 42.8072C285.66 42.8029 285.452 43.3883 285.443 44.1706C285.43 45.3143 285.819 46.3321 286.635 46.8156C286.826 46.9282 286.992 46.9789 287.136 46.9801ZM286.519 43.5907C286.562 43.5911 286.608 43.6058 286.658 43.635C286.934 43.7997 287.119 44.3146 287.102 45.1728C287.1 45.873 286.976 46.1985 286.771 46.1967C286.726 46.1963 286.677 46.1794 286.625 46.1502C286.334 45.9772 286.182 45.4687 286.192 44.6207C286.2 43.9432 286.31 43.5889 286.519 43.5907Z" fill="#768192"/>
<path d="M284.402 45.3664C284.882 45.3706 285.107 44.8058 285.119 44.003C285.131 42.9354 284.75 41.8498 283.923 41.3642C283.726 41.2475 283.556 41.1946 283.411 41.1934C282.923 41.1891 282.716 41.7766 282.708 42.5569C282.694 43.7026 283.082 44.7204 283.901 45.1998C284.091 45.3144 284.258 45.3651 284.402 45.3664ZM283.782 41.9769C283.825 41.9773 283.871 41.9921 283.921 42.0233C284.2 42.1859 284.383 42.7009 284.365 43.5591C284.363 44.2593 284.24 44.5847 284.035 44.5829C283.99 44.5825 283.941 44.5677 283.889 44.5364C283.597 44.3634 283.448 43.855 283.456 43.009C283.465 42.3294 283.575 41.9751 283.782 41.9769Z" fill="#768192"/>
<path d="M281.668 43.7553C282.149 43.7595 282.373 43.1927 282.386 42.3899C282.399 41.3201 282.016 40.2388 281.19 39.751C280.993 39.6364 280.824 39.5815 280.679 39.5802C280.191 39.576 279.983 40.1635 279.974 40.9437C279.96 42.0894 280.349 43.1072 281.167 43.5887C281.357 43.7012 281.524 43.754 281.668 43.7553ZM281.051 40.3638C281.092 40.3642 281.139 40.3789 281.188 40.4081C281.465 40.5707 281.649 41.0898 281.633 41.9439C281.632 42.6461 281.507 42.9716 281.3 42.9697C281.255 42.9694 281.207 42.9545 281.154 42.9233C280.864 42.7524 280.714 42.2418 280.723 41.3938C280.732 40.7163 280.842 40.362 281.051 40.3638Z" fill="#768192"/>
<path d="M278.626 42.0305L278.659 39.0984L278.671 39.1027L279.278 39.7959L279.41 39.22L278.565 38.266L277.948 37.9033L277.905 41.6053L278.626 42.0305Z" fill="#768192"/>
<path d="M275.89 40.4172L275.925 37.4831L275.935 37.4914L276.54 38.1846L276.675 37.6088L275.83 36.6548L275.208 36.2879L275.166 39.9879L275.89 40.4172Z" fill="#768192"/>
<path d="M273.155 38.8022L273.188 35.8722L273.2 35.8785L273.807 36.5717L273.94 35.9979L273.093 35.0439L272.474 34.675L272.43 38.3769L273.155 38.8022Z" fill="#768192"/>
<path d="M270.729 37.3024C271.21 37.3066 271.436 36.7418 271.448 35.937C271.461 34.8693 271.078 33.7859 270.251 33.3002C270.055 33.1855 269.885 33.1307 269.74 33.1294C269.252 33.1251 269.044 33.7127 269.035 34.4929C269.021 35.6386 269.412 36.6543 270.228 37.1358C270.419 37.2484 270.586 37.3012 270.729 37.3024ZM270.111 33.913C270.154 33.9133 270.2 33.9281 270.25 33.9573C270.526 34.1219 270.711 34.6369 270.694 35.4951C270.693 36.1953 270.569 36.5207 270.363 36.5189C270.319 36.5185 270.27 36.5037 270.217 36.4725C269.925 36.2995 269.775 35.7889 269.784 34.943C269.793 34.2654 269.902 33.9111 270.111 33.913Z" fill="#768192"/>
<path d="M267.996 35.6914C268.476 35.6955 268.702 35.1287 268.712 34.3239C268.725 33.2562 268.344 32.1748 267.516 31.687C267.32 31.5703 267.15 31.5175 267.006 31.5163C266.518 31.512 266.31 32.0995 266.302 32.8818C266.289 34.0255 266.678 35.0433 267.495 35.5248C267.686 35.6373 267.853 35.6901 267.996 35.6914ZM267.378 32.2998C267.419 32.3002 267.466 32.315 267.516 32.3462C267.793 32.5088 267.978 33.0258 267.959 33.8799C267.958 34.5822 267.835 34.9076 267.628 34.9058C267.583 34.9054 267.535 34.8906 267.483 34.8614C267.196 34.6905 267.042 34.1799 267.051 33.3319C267.06 32.6523 267.169 32.298 267.378 32.2998Z" fill="#768192"/>
<path d="M265.261 34.0776C265.742 34.0818 265.967 33.515 265.979 32.7122C265.992 31.6424 265.61 30.561 264.783 30.0733C264.587 29.9587 264.418 29.9059 264.273 29.9046C263.785 29.9003 263.576 30.4858 263.567 31.266C263.552 32.4117 263.944 33.4295 264.76 33.911C264.951 34.0235 265.118 34.0763 265.261 34.0776ZM264.643 30.6861C264.686 30.6864 264.731 30.7012 264.782 30.7304C265.059 30.8951 265.243 31.4121 265.226 32.2662C265.225 32.9684 265.101 33.2938 264.895 33.292C264.85 33.2916 264.801 33.2768 264.749 33.2456C264.458 33.0747 264.306 32.5641 264.317 31.7161C264.326 31.0385 264.434 30.6842 264.643 30.6861Z" fill="#768192"/>
<path d="M262.217 32.3508L262.25 29.4208L262.261 29.4271L262.869 30.1203L263.001 29.5424L262.156 28.5904L261.538 28.2256L261.496 31.9256L262.217 32.3508Z" fill="#768192"/>
<path d="M259.791 30.8515C260.272 30.8557 260.497 30.2909 260.509 29.4881C260.522 28.4184 260.141 27.337 259.312 26.8472C259.116 26.7326 258.946 26.6798 258.801 26.6785C258.314 26.6742 258.106 27.2597 258.098 28.0399C258.083 29.1856 258.474 30.2034 259.29 30.687C259.481 30.7975 259.647 30.8502 259.791 30.8515ZM259.174 27.462C259.216 27.4624 259.262 27.4772 259.313 27.5064C259.588 27.671 259.774 28.186 259.757 29.0421C259.755 29.7444 259.631 30.0698 259.425 30.068C259.38 30.0676 259.332 30.0507 259.28 30.0215C258.991 29.8506 258.837 29.338 258.846 28.4921C258.855 27.8125 258.964 27.4602 259.174 27.462Z" fill="#768192"/>
<path d="M257.056 29.238C257.537 29.2422 257.763 28.6774 257.774 27.8726C257.785 26.8049 257.405 25.7235 256.576 25.2357C256.38 25.1211 256.21 25.0662 256.065 25.0649C255.578 25.0607 255.372 25.6462 255.362 26.4284C255.348 27.5741 255.739 28.5899 256.556 29.0734C256.746 29.186 256.912 29.2367 257.056 29.238ZM256.439 25.8506C256.482 25.851 256.53 25.8657 256.581 25.8949C256.853 26.0554 257.038 26.5725 257.02 27.4286C257.018 28.1309 256.896 28.4563 256.69 28.4545C256.646 28.4541 256.597 28.4393 256.545 28.408C256.256 28.2371 256.102 27.7265 256.111 26.8785C256.119 26.201 256.228 25.8487 256.439 25.8506Z" fill="#768192"/>
<path d="M254.322 27.6247C254.803 27.6289 255.029 27.0641 255.04 26.2593C255.053 25.1916 254.67 24.1102 253.842 23.6245C253.646 23.5078 253.477 23.4529 253.333 23.4517C252.845 23.4474 252.636 24.0349 252.626 24.8151C252.614 25.9609 253.003 26.9786 253.821 27.4601C254.011 27.5706 254.178 27.6234 254.322 27.6247ZM253.704 24.2352C253.746 24.2356 253.793 24.2504 253.844 24.2796C254.119 24.4442 254.304 24.9612 254.286 25.8153C254.285 26.5176 254.161 26.843 253.956 26.8412C253.911 26.8408 253.863 26.826 253.811 26.7947C253.522 26.6238 253.368 26.1132 253.377 25.2653C253.384 24.5877 253.495 24.2334 253.704 24.2352Z" fill="#768192"/>
<path d="M297.997 60.2678C298.478 60.272 298.703 59.7072 298.713 58.9023C298.726 57.8347 298.346 56.7533 297.517 56.2655C297.32 56.1488 297.15 56.096 297.005 56.0948C296.518 56.0905 296.31 56.6739 296.301 57.4562C296.288 58.6039 296.679 59.6218 297.495 60.1012C297.686 60.2158 297.854 60.2665 297.997 60.2678ZM297.378 56.8783C297.419 56.8787 297.466 56.8934 297.517 56.9247C297.794 57.0852 297.978 57.6043 297.96 58.4584C297.959 59.1606 297.835 59.4861 297.629 59.4843C297.584 59.4839 297.536 59.467 297.484 59.4378C297.192 59.2648 297.042 58.7563 297.052 57.9083C297.06 57.2308 297.168 56.8765 297.378 56.8783Z" fill="#768192"/>
<path d="M295.262 58.6567C295.742 58.6609 295.968 58.094 295.981 57.2892C295.991 56.2215 295.611 55.1401 294.782 54.6524C294.585 54.5357 294.416 54.4828 294.27 54.4816C293.783 54.4773 293.575 55.0628 293.566 55.8471C293.554 56.9908 293.944 58.0086 294.76 58.4901C294.951 58.6026 295.119 58.6554 295.262 58.6567ZM294.643 55.2651C294.685 55.2655 294.732 55.2803 294.782 55.3095C295.059 55.4741 295.243 55.9912 295.225 56.8452C295.223 57.5475 295.1 57.8729 294.895 57.8711C294.85 57.8707 294.801 57.8559 294.749 57.8246C294.457 57.6517 294.307 57.1432 294.318 56.2972C294.326 55.6176 294.434 55.2633 294.643 55.2651Z" fill="#768192"/>
<path d="M292.526 57.0434C293.007 57.0476 293.233 56.4807 293.245 55.678C293.258 54.6082 292.875 53.5268 292.048 53.0391C291.851 52.9244 291.68 52.8696 291.535 52.8683C291.048 52.864 290.841 53.4495 290.832 54.2318C290.818 55.3775 291.21 56.3953 292.025 56.8788C292.216 56.9893 292.382 57.0421 292.526 57.0434ZM291.908 53.6519C291.951 53.6522 291.997 53.667 292.047 53.6983C292.323 53.8629 292.508 54.3779 292.49 55.2319C292.489 55.9363 292.366 56.2617 292.16 56.2599C292.115 56.2595 292.067 56.2426 292.015 56.2114C291.722 56.0404 291.572 55.5299 291.583 54.684C291.591 54.0043 291.7 53.65 291.908 53.6519Z" fill="#768192"/>
<path d="M289.485 55.3166L289.519 52.3846L289.529 52.3929L290.136 53.0861L290.268 52.5103L289.423 51.5562L288.802 51.1894L288.761 54.8914L289.485 55.3166Z" fill="#768192"/>
<path d="M287.059 53.8168C287.539 53.821 287.765 53.2542 287.777 52.4514C287.789 51.3837 287.407 50.3023 286.58 49.8126C286.383 49.6979 286.213 49.643 286.068 49.6417C285.58 49.6375 285.373 50.223 285.364 51.0073C285.349 52.1509 285.74 53.1687 286.557 53.6523C286.748 53.7628 286.915 53.8156 287.059 53.8168ZM286.441 50.4274C286.484 50.4277 286.53 50.4425 286.58 50.4717C286.857 50.6343 287.039 51.1533 287.023 52.0074C287.021 52.7097 286.897 53.0351 286.692 53.0333C286.648 53.0329 286.599 53.0181 286.546 52.9869C286.255 52.8139 286.104 52.3013 286.114 51.4594C286.122 50.7798 286.232 50.4255 286.441 50.4274Z" fill="#768192"/>
<path d="M284.323 52.2038C284.804 52.208 285.029 51.6432 285.041 50.8404C285.054 49.7707 284.673 48.6893 283.843 48.2016C283.647 48.0849 283.477 48.032 283.332 48.0308C282.845 48.0265 282.636 48.612 282.627 49.3942C282.615 50.54 283.006 51.5578 283.822 52.0372C284.013 52.1518 284.18 52.2025 284.323 52.2038ZM283.706 48.8143C283.748 48.8147 283.795 48.8295 283.846 48.8587C284.122 49.0233 284.305 49.5403 284.286 50.3944C284.284 51.0966 284.161 51.4221 283.956 51.4203C283.911 51.4199 283.863 51.403 283.812 51.3718C283.518 51.2008 283.369 50.6903 283.38 49.8464C283.387 49.1668 283.496 48.8125 283.706 48.8143Z" fill="#768192"/>
<path d="M281.589 50.5925C282.07 50.5967 282.296 50.0298 282.308 49.225C282.32 48.1573 281.938 47.0759 281.109 46.5881C280.913 46.4714 280.743 46.4186 280.598 46.4174C280.11 46.4131 279.902 46.9986 279.894 47.7829C279.881 48.9266 280.272 49.9444 281.087 50.4258C281.278 50.5384 281.444 50.5912 281.589 50.5925ZM280.971 47.2009C281.013 47.2013 281.06 47.2161 281.11 47.2453C281.387 47.4079 281.57 47.9269 281.552 48.781C281.551 49.4833 281.428 49.8087 281.223 49.8069C281.179 49.8065 281.13 49.7917 281.078 49.7605C280.785 49.5875 280.633 49.0789 280.645 48.2309C280.653 47.5534 280.762 47.1991 280.971 47.2009Z" fill="#768192"/>
<path d="M278.856 48.9792C279.335 48.9834 279.56 48.4165 279.572 47.6117C279.585 46.5461 279.202 45.4647 278.374 44.9749C278.178 44.8582 278.007 44.8054 277.862 44.8041C277.376 44.7998 277.169 45.3833 277.158 46.1676C277.146 47.3133 277.536 48.3311 278.353 48.8126C278.544 48.9251 278.711 48.9779 278.856 48.9792ZM278.236 45.5876C278.278 45.588 278.325 45.6028 278.375 45.6341C278.653 45.7966 278.835 46.3136 278.818 47.1677C278.815 47.87 278.693 48.1954 278.487 48.1936C278.443 48.1932 278.395 48.1784 278.342 48.1472C278.05 47.9762 277.899 47.4657 277.911 46.6197C277.917 45.9401 278.027 45.5858 278.236 45.5876Z" fill="#768192"/>
<path d="M276.12 47.3656C276.601 47.3699 276.825 46.8051 276.839 46.0002C276.852 44.9326 276.468 43.8491 275.641 43.3614C275.445 43.2467 275.275 43.1919 275.13 43.1906C274.643 43.1863 274.434 43.7718 274.424 44.5541C274.411 45.7018 274.802 46.7176 275.618 47.2011C275.809 47.3137 275.976 47.3644 276.12 47.3656ZM275.503 43.9741C275.545 43.9745 275.591 43.9893 275.641 44.0185C275.917 44.1831 276.101 44.6981 276.083 45.5542C276.082 46.2565 275.959 46.584 275.753 46.5822C275.708 46.5818 275.66 46.5649 275.608 46.5337C275.316 46.3627 275.166 45.8501 275.176 45.0083C275.184 44.3287 275.294 43.9723 275.503 43.9741Z" fill="#768192"/>
<path d="M273.386 45.7524C273.867 45.7566 274.092 45.1918 274.103 44.387C274.116 43.3193 273.733 42.2379 272.906 41.7502C272.709 41.6334 272.54 41.5786 272.395 41.5773C271.908 41.5731 271.699 42.1585 271.69 42.9428C271.677 44.0865 272.067 45.1043 272.884 45.5858C273.075 45.6983 273.243 45.7511 273.386 45.7524ZM272.767 42.3629C272.809 42.3633 272.855 42.3781 272.906 42.4073C273.184 42.5719 273.366 43.0869 273.35 43.943C273.347 44.6432 273.225 44.9707 273.019 44.9689C272.974 44.9685 272.925 44.9516 272.873 44.9224C272.58 44.7494 272.431 44.2389 272.442 43.393C272.449 42.7154 272.558 42.3611 272.767 42.3629Z" fill="#768192"/>
<path d="M270.342 44.028L270.376 41.0981L270.386 41.1023L270.992 41.7955L271.125 41.2217L270.281 40.2656L269.663 39.9029L269.622 43.6028L270.342 44.028Z" fill="#768192"/>
<path d="M267.609 42.4145L267.643 39.4825L267.653 39.4908L268.259 40.182L268.392 39.6061L267.548 38.6521L266.93 38.2873L266.887 41.9893L267.609 42.4145Z" fill="#768192"/>
<path d="M264.873 40.8015L264.909 37.8695L264.919 37.8757L265.525 38.5689L265.657 37.9931L264.813 37.0391L264.197 36.6764L264.153 40.3763L264.873 40.8015Z" fill="#768192"/>
<path d="M262.448 39.3022C262.927 39.3064 263.154 38.7395 263.166 37.9367C263.179 36.8691 262.796 35.7877 261.968 35.2979C261.772 35.1812 261.603 35.1284 261.458 35.1271C260.97 35.1228 260.762 35.7083 260.752 36.4906C260.74 37.6363 261.128 38.6541 261.948 39.1356C262.138 39.2481 262.304 39.3009 262.448 39.3022ZM261.83 35.9127C261.872 35.9131 261.919 35.9279 261.969 35.957C262.246 36.1196 262.428 36.6366 262.412 37.4928C262.409 38.195 262.286 38.5204 262.08 38.5186C262.036 38.5183 261.987 38.5014 261.935 38.4722C261.643 38.2992 261.494 37.7887 261.502 36.9427C261.51 36.2652 261.621 35.9109 261.83 35.9127Z" fill="#768192"/>
<path d="M259.714 37.6904C260.196 37.6946 260.42 37.1277 260.433 36.3229C260.446 35.2552 260.061 34.1717 259.236 33.682C259.039 33.5673 258.869 33.5145 258.724 33.5132C258.237 33.509 258.029 34.0944 258.02 34.8788C258.006 36.0245 258.396 37.0423 259.212 37.5237C259.403 37.6363 259.57 37.6891 259.714 37.6904ZM259.096 34.2988C259.137 34.2992 259.184 34.314 259.234 34.3432C259.511 34.5058 259.694 35.0248 259.679 35.8768C259.677 36.5791 259.553 36.9066 259.347 36.9048C259.302 36.9044 259.253 36.8875 259.201 36.8563C258.913 36.6874 258.76 36.1748 258.769 35.3309C258.777 34.6492 258.887 34.297 259.096 34.2988Z" fill="#768192"/>
<path d="M256.978 36.0754C257.458 36.0796 257.683 35.5127 257.695 34.7099C257.708 33.6423 257.327 32.5588 256.498 32.0732C256.301 31.9564 256.131 31.9036 255.986 31.9023C255.5 31.8981 255.291 32.4836 255.282 33.2658C255.272 34.4095 255.659 35.4293 256.476 35.9088C256.667 36.0213 256.834 36.0741 256.978 36.0754ZM256.361 32.6859C256.403 32.6863 256.45 32.7011 256.502 32.7323C256.776 32.8949 256.959 33.4119 256.941 34.2639C256.939 34.9682 256.816 35.2937 256.611 35.2919C256.566 35.2915 256.517 35.2767 256.464 35.2454C256.177 35.0745 256.023 34.5639 256.032 33.718C256.041 33.0384 256.15 32.6841 256.361 32.6859Z" fill="#768192"/>
<path d="M254.245 34.4643C254.725 34.4685 254.95 33.9016 254.962 33.0989C254.976 32.0291 254.592 30.9477 253.766 30.46C253.569 30.3433 253.399 30.2905 253.254 30.2892C252.767 30.285 252.56 30.8684 252.551 31.6548C252.536 32.7984 252.926 33.8162 253.743 34.2977C253.933 34.4102 254.1 34.463 254.245 34.4643ZM253.626 31.0728C253.668 31.0731 253.714 31.0879 253.764 31.1171C254.042 31.2797 254.225 31.7988 254.209 32.6528C254.207 33.3551 254.083 33.6805 253.877 33.6787C253.832 33.6783 253.784 33.6635 253.732 33.6323C253.443 33.4634 253.288 32.9508 253.3 32.1028C253.308 31.4232 253.418 31.071 253.626 31.0728Z" fill="#768192"/>
<path d="M297.916 67.1093C298.398 67.1135 298.624 66.5466 298.637 65.7398C298.65 64.6721 298.266 63.5887 297.439 63.105C297.242 62.9883 297.072 62.9334 296.927 62.9322C296.44 62.9279 296.232 63.5154 296.224 64.2977C296.209 65.4414 296.598 66.4612 297.417 66.9447C297.607 67.0573 297.773 67.108 297.916 67.1093ZM297.3 63.7157C297.343 63.7161 297.389 63.7309 297.439 63.7601C297.716 63.9247 297.899 64.4417 297.882 65.2958C297.88 65.998 297.758 66.3235 297.551 66.3217C297.506 66.3213 297.458 66.3044 297.405 66.2732C297.113 66.1022 296.963 65.5917 296.973 64.7478C296.981 64.0682 297.092 63.7139 297.3 63.7157Z" fill="#768192"/>
<path d="M295.182 65.496C295.664 65.5002 295.891 64.9313 295.902 64.1265C295.913 63.0588 295.533 61.9774 294.705 61.4897C294.509 61.373 294.339 61.3202 294.194 61.3189C293.706 61.3146 293.499 61.9022 293.489 62.6824C293.477 63.8281 293.865 64.8479 294.683 65.3315C294.872 65.444 295.038 65.4948 295.182 65.496ZM294.566 62.1025C294.608 62.1028 294.653 62.1176 294.704 62.1468C294.982 62.3094 295.166 62.8284 295.149 63.6825C295.147 64.3848 295.023 64.7102 294.817 64.7084C294.772 64.708 294.723 64.6932 294.671 64.662C294.38 64.489 294.229 63.9804 294.239 63.1325C294.247 62.4528 294.356 62.1006 294.566 62.1025Z" fill="#768192"/>
<path d="M292.141 63.7675L292.174 60.8376L292.186 60.8438L292.792 61.535L292.924 60.9612L292.079 60.0071L291.458 59.6403L291.416 63.3402L292.141 63.7675Z" fill="#768192"/>
<path d="M289.713 62.2717C290.194 62.2759 290.419 61.707 290.432 60.9021C290.443 59.8324 290.063 58.7531 289.235 58.2633C289.039 58.1466 288.869 58.0938 288.725 58.0925C288.236 58.0882 288.028 58.6758 288.019 59.456C288.007 60.6017 288.396 61.6257 289.212 62.1051C289.403 62.2176 289.569 62.2704 289.713 62.2717ZM289.096 58.8781C289.138 58.8785 289.185 58.8933 289.235 58.9224C289.512 59.085 289.696 59.6041 289.677 60.4582C289.677 61.1604 289.553 61.4859 289.345 61.484C289.3 61.4836 289.252 61.4668 289.2 61.4376C288.909 61.2646 288.759 60.752 288.769 59.9061C288.777 59.2285 288.887 58.8763 289.096 58.8781Z" fill="#768192"/>
<path d="M286.977 60.6586C287.459 60.6628 287.685 60.0939 287.698 59.2891C287.709 58.2194 287.328 57.14 286.499 56.6523C286.303 56.5356 286.133 56.4828 285.988 56.4815C285.501 56.4773 285.294 57.0627 285.284 57.845C285.271 58.9907 285.661 60.0106 286.477 60.4941C286.667 60.6046 286.833 60.6573 286.977 60.6586ZM286.361 57.265C286.402 57.2654 286.448 57.2802 286.499 57.3094C286.775 57.474 286.961 57.989 286.944 58.8451C286.941 59.5474 286.818 59.8728 286.612 59.871C286.567 59.8706 286.518 59.8538 286.467 59.8246C286.175 59.6516 286.025 59.1431 286.033 58.2951C286.043 57.6175 286.151 57.2632 286.361 57.265Z" fill="#768192"/>
<path d="M284.245 59.0451C284.725 59.0493 284.951 58.4825 284.962 57.6756C284.976 56.6079 284.594 55.5265 283.767 55.0367C283.571 54.9221 283.401 54.8693 283.256 54.868C282.768 54.8637 282.56 55.4492 282.551 56.2315C282.539 57.3772 282.928 58.3991 283.745 58.8806C283.936 58.9931 284.101 59.0439 284.245 59.0451ZM283.626 55.6515C283.669 55.6519 283.715 55.6667 283.766 55.6979C284.044 55.8605 284.228 56.3776 284.21 57.2316C284.208 57.9339 284.084 58.2593 283.877 58.2575C283.833 58.2571 283.784 58.2423 283.733 58.2111C283.442 58.0381 283.292 57.5275 283.301 56.6836C283.308 56.004 283.419 55.6497 283.626 55.6515Z" fill="#768192"/>
<path d="M281.202 57.3161L281.236 54.3841L281.249 54.3904L281.852 55.0856L281.986 54.5077L281.141 53.5537L280.521 53.1889L280.478 56.8888L281.202 57.3161Z" fill="#768192"/>
<path d="M278.774 55.8188C279.256 55.823 279.482 55.2541 279.492 54.4513C279.505 53.3816 279.124 52.3023 278.295 51.8125C278.099 51.6978 277.929 51.645 277.784 51.6437C277.297 51.6394 277.09 52.2249 277.08 53.0051C277.069 54.1509 277.46 55.1728 278.275 55.6542C278.464 55.7647 278.631 55.8175 278.774 55.8188ZM278.158 52.4252C278.2 52.4256 278.246 52.4404 278.295 52.4695C278.574 52.6342 278.758 53.1512 278.74 54.0053C278.738 54.7096 278.614 55.035 278.408 55.0332C278.364 55.0329 278.316 55.016 278.264 54.9847C277.97 54.8117 277.82 54.3012 277.832 53.4573C277.839 52.7777 277.949 52.4234 278.158 52.4252Z" fill="#768192"/>
<path d="M276.04 54.2077C276.521 54.2119 276.746 53.641 276.758 52.8361C276.771 51.7705 276.389 50.6891 275.563 50.1993C275.366 50.0826 275.196 50.0298 275.051 50.0285C274.564 50.0243 274.356 50.6118 274.347 51.3941C274.333 52.5377 274.723 53.5596 275.539 54.0411C275.729 54.1536 275.896 54.2064 276.04 54.2077ZM275.423 50.8121C275.464 50.8124 275.511 50.8272 275.561 50.8564C275.839 51.0211 276.023 51.5401 276.005 52.3942C276.003 53.0944 275.879 53.4198 275.674 53.418C275.629 53.4177 275.58 53.4028 275.528 53.3716C275.236 53.2006 275.086 52.6901 275.095 51.8442C275.104 51.1645 275.214 50.8103 275.423 50.8121Z" fill="#768192"/>
<path d="M273.305 52.5942C273.787 52.5984 274.012 52.0295 274.024 51.2246C274.035 50.1549 273.655 49.0735 272.826 48.5878C272.631 48.4711 272.46 48.4162 272.316 48.415C271.828 48.4107 271.62 48.9982 271.611 49.7805C271.598 50.9242 271.988 51.9461 272.805 52.4276C272.995 52.5401 273.162 52.5929 273.305 52.5942ZM272.687 49.2006C272.73 49.201 272.776 49.2157 272.827 49.2449C273.103 49.4075 273.288 49.9246 273.27 50.7786C273.268 51.4829 273.145 51.8083 272.939 51.8065C272.894 51.8061 272.846 51.7893 272.793 51.7601C272.502 51.5871 272.351 51.0786 272.361 50.2306C272.369 49.5531 272.478 49.1988 272.687 49.2006Z" fill="#768192"/>
<path d="M270.264 50.8652L270.297 47.9332L270.309 47.9394L270.914 48.6326L271.049 48.0588L270.203 47.1048L269.587 46.738L269.542 50.44L270.264 50.8652Z" fill="#768192"/>
<path d="M267.835 49.3676C268.317 49.3718 268.543 48.805 268.553 47.9981C268.566 46.9304 268.184 45.849 267.357 45.3613C267.161 45.2446 266.991 45.1918 266.846 45.1905C266.359 45.1862 266.15 45.7737 266.141 46.554C266.128 47.6997 266.519 48.7216 267.336 49.2031C267.526 49.3136 267.692 49.3664 267.835 49.3676ZM267.218 45.974C267.26 45.9744 267.306 45.9892 267.357 46.0184C267.634 46.183 267.818 46.7 267.801 47.5541C267.798 48.2564 267.675 48.5818 267.47 48.58C267.425 48.5796 267.377 48.5628 267.325 48.5336C267.035 48.3647 266.882 47.852 266.892 47.0041C266.899 46.3265 267.009 45.9722 267.218 45.974Z" fill="#768192"/>
<path d="M265.103 47.7546C265.584 47.7588 265.81 47.1899 265.822 46.3871C265.833 45.3173 265.452 44.236 264.624 43.7482C264.428 43.6336 264.257 43.5787 264.113 43.5774C263.625 43.5732 263.418 44.1607 263.408 44.9409C263.394 46.0866 263.785 47.1065 264.602 47.59C264.793 47.7005 264.959 47.7533 265.103 47.7546ZM264.484 44.361C264.526 44.3614 264.573 44.3761 264.622 44.4053C264.9 44.5679 265.085 45.0849 265.067 45.941C265.066 46.6433 264.943 46.9687 264.737 46.9669C264.692 46.9665 264.643 46.9518 264.591 46.9205C264.299 46.7475 264.149 46.2369 264.159 45.3931C264.166 44.7114 264.276 44.3592 264.484 44.361Z" fill="#768192"/>
<path d="M262.368 46.1432C262.849 46.1475 263.075 45.5786 263.085 44.7737C263.099 43.7061 262.717 42.6226 261.889 42.1349C261.693 42.0202 261.524 41.9654 261.379 41.9641C260.891 41.9598 260.681 42.5453 260.672 43.3276C260.661 44.4753 261.052 45.4932 261.868 45.9767C262.058 46.0892 262.224 46.142 262.368 46.1432ZM261.751 42.7477C261.793 42.748 261.839 42.7628 261.89 42.792C262.166 42.9546 262.352 43.4736 262.332 44.3277C262.33 45.03 262.207 45.3554 262.002 45.3536C261.957 45.3532 261.908 45.3384 261.857 45.3072C261.563 45.1362 261.414 44.6236 261.425 43.7797C261.431 43.1021 261.541 42.7458 261.751 42.7477Z" fill="#768192"/>
<path d="M259.326 44.4123L259.359 41.4803L259.37 41.4886L259.977 42.1797L260.111 41.6059L259.265 40.6499L258.647 40.2892L258.605 43.9891L259.326 44.4123Z" fill="#768192"/>
<path d="M256.898 42.9167C257.379 42.9209 257.605 42.352 257.616 41.5472C257.629 40.4795 257.247 39.396 256.419 38.9083C256.223 38.7936 256.054 38.7408 255.909 38.7396C255.421 38.7353 255.213 39.3208 255.204 40.103C255.191 41.2487 255.581 42.2707 256.399 42.7501C256.588 42.8627 256.754 42.9154 256.898 42.9167ZM256.282 39.5231C256.325 39.5235 256.371 39.5383 256.422 39.5675C256.697 39.7301 256.881 40.2471 256.862 41.1011C256.86 41.8054 256.737 42.1309 256.531 42.1291C256.487 42.1287 256.439 42.1118 256.386 42.0806C256.098 41.9138 255.944 41.3991 255.954 40.5552C255.961 39.8756 256.071 39.5213 256.282 39.5231Z" fill="#768192"/>
<path d="M254.164 41.3036C254.645 41.3078 254.871 40.739 254.883 39.9341C254.896 38.8665 254.513 37.785 253.687 37.2973C253.49 37.1806 253.321 37.1278 253.176 37.1265C252.687 37.1223 252.48 37.7077 252.47 38.4921C252.457 39.6357 252.847 40.6576 253.662 41.137C253.853 41.2496 254.02 41.3024 254.164 41.3036ZM253.546 37.9101C253.588 37.9104 253.634 37.9252 253.684 37.9544C253.963 38.117 254.146 38.6361 254.129 39.4902C254.126 40.1924 254.002 40.5199 253.797 40.5181C253.753 40.5177 253.705 40.5008 253.653 40.4716C253.365 40.3007 253.211 39.786 253.22 38.9401C253.227 38.2605 253.338 37.9082 253.546 37.9101Z" fill="#768192"/>
</g>
<defs>
<filter id="filter0_d_190_3654" x="8.15664" y="0" width="442.292" height="319.452" filterUnits="userSpaceOnUse" color-interpolation-filters="sRGB">
<feFlood flood-opacity="0" result="BackgroundImageFix"/>
<feColorMatrix in="SourceAlpha" type="matrix" values="0 0 0 0 0 0 0 0 0 0 0 0 0 0 0 0 0 0 127 0" result="hardAlpha"/>
<feOffset dy="24.6002"/>
<feGaussianBlur stdDeviation="12.3001"/>
<feColorMatrix type="matrix" values="0 0 0 0 0 0 0 0 0 0 0 0 0 0 0 0 0 0 0.2 0"/>
<feBlend mode="normal" in2="BackgroundImageFix" result="effect1_dropShadow_190_3654"/>
<feBlend mode="normal" in="SourceGraphic" in2="effect1_dropShadow_190_3654" result="shape"/>
</filter>
<linearGradient id="paint0_linear_190_3654" x1="229.296" y1="205.929" x2="32.7508" y2="205.929" gradientUnits="userSpaceOnUse">
<stop stop-color="#AABAD6"/>
<stop offset="1" stop-color="#96AAC9"/>
</linearGradient>
</defs>
</svg>
