<svg width="177" height="157" viewBox="0 0 177 157" fill="none" xmlns="http://www.w3.org/2000/svg">
<path d="M1 152H176" stroke="#333333" stroke-linecap="round" stroke-linejoin="round"/>
<path d="M84.6162 60.3613L109.507 152.186H113.227L88.3362 60.3613H84.6162Z" fill="#757575" stroke="#333333" stroke-linecap="round" stroke-linejoin="round"/>
<path d="M140.67 126.155H93.4902V129.999H140.67V126.155Z" fill="#999999" stroke="#333333" stroke-linecap="round" stroke-linejoin="round"/>
<path d="M165.845 39.7366L135.362 152.216H131.654L162.131 39.7366C163.256 35.5897 160.679 32.2153 156.384 32.2153H130.122C125.833 32.2153 121.421 35.5897 120.296 39.7366L89.8072 152.216H86.0996L116.576 39.7366C118.245 33.5997 124.746 28.6123 131.098 28.6123H157.367C163.701 28.6123 167.507 33.5935 165.845 39.7366Z" fill="#757575" stroke="#333333" stroke-linecap="round" stroke-linejoin="round"/>
<path d="M166.328 39.7687L158.764 67.6907C158.399 68.8656 157.679 69.8985 156.703 70.6477C155.727 71.3969 154.543 71.8255 153.314 71.8747H110.157C109.637 71.9139 109.115 71.8227 108.64 71.6094C108.164 71.3961 107.749 71.0674 107.432 70.6531C107.115 70.2388 106.907 69.752 106.826 69.2369C106.745 68.7217 106.794 68.1945 106.968 67.703L114.538 39.7811C114.906 38.6089 115.627 37.5791 116.603 36.8324C117.578 36.0858 118.761 35.6586 119.988 35.6094H163.139C163.657 35.5727 164.176 35.665 164.65 35.8781C165.123 36.0913 165.537 36.4186 165.853 36.8308C166.169 37.243 166.377 37.7272 166.46 38.2399C166.543 38.7526 166.498 39.2779 166.328 39.7687Z" fill="white"/>
<path opacity="0.2" d="M166.328 39.7682L158.764 67.6902C158.399 68.8651 157.679 69.8981 156.703 70.6472C155.727 71.3964 154.543 71.825 153.314 71.8742H110.157C109.637 71.9134 109.115 71.8222 108.64 71.6089C108.164 71.3956 107.749 71.0669 107.432 70.6526C107.115 70.2383 106.907 69.7516 106.826 69.2364C106.745 68.7213 106.794 68.194 106.968 67.7025L114.538 39.7806C114.906 38.6084 115.627 37.5786 116.603 36.832C117.578 36.0853 118.761 35.6581 119.988 35.609H142.302C151.948 45.4972 150.718 63.7225 150.088 69.2229C151.095 68.9807 152.022 68.4825 152.78 67.7765C153.538 67.0705 154.101 66.1808 154.414 65.1934L161.965 37.2652C162.12 36.725 162.151 36.1569 162.058 35.6028H163.139C163.658 35.5656 164.178 35.6578 164.652 35.8713C165.126 36.0848 165.54 36.4128 165.856 36.8258C166.172 37.2388 166.381 37.7239 166.463 38.2375C166.545 38.7511 166.499 39.2771 166.328 39.7682Z" fill="#333333"/>
<path d="M166.328 39.7687L158.764 67.6907C158.399 68.8656 157.679 69.8985 156.703 70.6477C155.727 71.3969 154.543 71.8255 153.314 71.8747H110.157C109.637 71.9139 109.115 71.8227 108.64 71.6094C108.164 71.3961 107.749 71.0674 107.432 70.6531C107.115 70.2388 106.907 69.752 106.826 69.2369C106.745 68.7217 106.794 68.1945 106.968 67.703L114.538 39.7811C114.906 38.6089 115.627 37.5791 116.603 36.8324C117.578 36.0858 118.761 35.6586 119.988 35.6094H163.139C163.657 35.5727 164.176 35.665 164.65 35.8781C165.123 36.0913 165.537 36.4186 165.853 36.8308C166.169 37.243 166.377 37.7272 166.46 38.2399C166.543 38.7526 166.498 39.2779 166.328 39.7687V39.7687Z" stroke="#333333" stroke-linecap="round" stroke-linejoin="round"/>
<path d="M140.954 100.123L155.062 152.185H158.788L144.674 100.123H140.954Z" fill="#757575" stroke="#333333" stroke-linecap="round" stroke-linejoin="round"/>
<path d="M144.694 94.1241V99.2165H89.1289V94.1241C89.1289 93.1308 89.5234 92.1782 90.2257 91.4758C90.928 90.7735 91.8805 90.3789 92.8736 90.3789H140.943C141.766 90.3783 142.567 90.6484 143.221 91.1476C143.875 91.6468 144.347 92.3474 144.564 93.1414C144.652 93.4616 144.695 93.7922 144.694 94.1241Z" fill="white"/>
<path opacity="0.2" d="M144.564 93.1662C142.766 95.2798 139.54 97.4305 133.991 99.2413H89.1289V94.1241C89.1289 93.1308 89.5234 92.1782 90.2257 91.4758C90.928 90.7735 91.8805 90.3789 92.8736 90.3789H140.943C141.769 90.3797 142.572 90.6534 143.227 91.1574C143.882 91.6614 144.352 92.3676 144.564 93.1662Z" fill="#333333"/>
<path d="M144.694 94.1241V99.2165H89.1289V94.1241C89.1289 93.1308 89.5234 92.1782 90.2257 91.4758C90.928 90.7735 91.8805 90.3789 92.8736 90.3789H140.943C141.766 90.3783 142.567 90.6484 143.221 91.1476C143.875 91.6468 144.347 92.3474 144.564 93.1414C144.652 93.4616 144.695 93.7922 144.694 94.1241Z" stroke="#333333" stroke-linecap="round" stroke-linejoin="round"/>
<path d="M146.577 97.6836H87.7247C87.1411 97.6836 86.668 98.1568 86.668 98.7404V101.404C86.668 101.988 87.1411 102.461 87.7247 102.461H146.577C147.161 102.461 147.634 101.988 147.634 101.404V98.7404C147.634 98.1568 147.161 97.6836 146.577 97.6836Z" fill="#999999" stroke="#333333" stroke-linecap="round" stroke-linejoin="round"/>
<path d="M87.3237 97.8306C84.6604 100.544 97.5691 143.174 97.5691 143.174C96.1602 144.41 94.0839 144.979 92.1189 145.239C90.3125 145.463 88.4871 145.49 86.6748 145.319C86.6748 145.319 68.1737 100.439 73.2655 89.302C78.3574 78.1653 109.953 73.1099 109.953 73.1099L111.3 69.7727L127.644 67.4736L130.345 87.4912C130.345 87.4912 127.663 87.7507 123.628 88.2699C112.808 89.6419 92.2178 92.8865 87.3237 97.8306Z" fill="#333333"/>
<path opacity="0.3" d="M97.569 143.2C96.1601 144.436 94.0838 145.004 92.1187 145.264C88.5285 131.915 79.3892 96.2924 82.8496 91.9354C87.1196 86.5587 108.253 81.6702 108.253 81.6702C108.34 78.9262 115.749 76.4541 115.749 76.4541L123.621 88.252C112.801 89.6426 92.2114 92.8748 87.3173 97.856C84.6602 100.569 97.569 143.2 97.569 143.2Z" fill="#333333"/>
<path d="M87.3237 97.8306C84.6604 100.544 97.5691 143.174 97.5691 143.174C96.1602 144.41 94.0839 144.979 92.1189 145.239C90.3125 145.463 88.4871 145.49 86.6748 145.319C86.6748 145.319 68.1737 100.439 73.2655 89.302C78.3574 78.1653 109.953 73.1099 109.953 73.1099L111.3 69.7727L127.644 67.4736L130.345 87.4912C130.345 87.4912 127.663 87.7507 123.628 88.2699C112.808 89.6419 92.2178 92.8865 87.3237 97.8306Z" stroke="#333333" stroke-linecap="round" stroke-linejoin="round"/>
<path d="M78.1792 57.4811C75.4664 57.0176 94.777 40.084 94.777 40.084L104.089 46.3507C104.089 46.3507 88.2454 57.5121 85.7551 57.8149C83.2648 58.1177 78.1792 57.4811 78.1792 57.4811Z" fill="white"/>
<path opacity="0.2" d="M78.1792 57.4811C75.4664 57.0176 94.777 40.084 94.777 40.084L104.089 46.3507C104.089 46.3507 88.2454 57.5121 85.7551 57.8149C83.2648 58.1177 78.1792 57.4811 78.1792 57.4811Z" fill="#333333"/>
<path d="M78.1792 57.4811C75.4664 57.0176 94.777 40.084 94.777 40.084L104.089 46.3507C104.089 46.3507 88.2454 57.5121 85.7551 57.8149C83.2648 58.1177 78.1792 57.4811 78.1792 57.4811Z" stroke="#333333" stroke-linecap="round" stroke-linejoin="round"/>
<path d="M81.5703 50.3613C81.5703 50.3613 85.6183 51.3687 86.8605 52.2154C88.1027 53.0621 87.7443 56.1212 87.7443 56.1212C87.7443 56.1212 82.349 54.6009 81.5703 50.3613Z" fill="white" stroke="#333333" stroke-linecap="round" stroke-linejoin="round"/>
<path d="M78.9873 42.6114L86.5076 57.0421H87.4036L80.2541 41.8945L78.9873 42.6114Z" fill="#333333"/>
<path d="M85.7728 53.0443C85.7728 53.0443 81.0271 49.6699 79.8653 49.6699C78.7036 49.6699 75.2246 53.7797 75.2246 55.8501C75.2246 57.9204 82.8129 59.0514 84.296 57.3024C85.0375 56.431 83.5668 54.3298 83.5668 54.3298C84.4492 55.271 85.397 56.1487 86.4031 56.9563C87.0211 57.3024 88.2014 56.8513 88.2014 56.8513C88.2014 56.8513 86.6194 54.3174 85.7728 53.0443Z" fill="white" stroke="#333333" stroke-linecap="round" stroke-linejoin="round"/>
<path d="M83.567 57.7773C82.4715 56.3889 81.1283 55.2155 79.6055 54.3164" stroke="#333333" stroke-linecap="round" stroke-linejoin="round"/>
<path d="M83.5676 54.3173C83.5676 54.3173 81.9236 52.8835 80.8174 52.5684" stroke="#333333" stroke-linecap="round" stroke-linejoin="round"/>
<path d="M78.3945 56.1387C79.5442 56.7268 80.653 57.3916 81.7133 58.1287" stroke="#333333" stroke-linecap="round" stroke-linejoin="round"/>
<path d="M100.825 32.6797C98.3969 34.3731 87.4902 45.5901 87.4902 45.5901C87.4902 45.5901 92.6006 51.4056 97.0807 52.2461L109.223 46.3502L100.825 32.6797Z" fill="white" stroke="#333333" stroke-linecap="round" stroke-linejoin="round"/>
<path opacity="0.4" d="M100.825 32.6797C98.3969 34.3731 87.4902 45.5901 87.4902 45.5901C87.4902 45.5901 92.6006 51.4056 97.0807 52.2461L109.223 46.3502L100.825 32.6797Z" fill="white" stroke="#333333" stroke-linecap="round" stroke-linejoin="round"/>
<path d="M94.9615 138.676L100.109 152.217C100.109 152.217 100.962 155.696 85.439 154.596L76.8867 153.867L94.9615 138.676Z" fill="white"/>
<path opacity="0.3" d="M94.9615 138.676L100.109 152.217C100.109 152.217 100.962 155.696 85.439 154.596L76.8867 153.867L94.9615 138.676Z" fill="#333333"/>
<path d="M94.9615 138.676L100.109 152.217C100.109 152.217 100.962 155.696 85.439 154.596L76.8867 153.867L94.9615 138.676Z" stroke="#333333" stroke-linecap="round" stroke-linejoin="round"/>
<path d="M93.0091 145.152C93.0091 145.152 94.109 150.411 93.0091 154.323C93.0091 154.323 76.6275 156.888 72.9631 155.912C69.2987 154.935 67.0741 153.106 66.9629 152.204C66.9629 152.204 67.0927 149.694 70.7632 148.959C74.4338 148.224 81.7317 147.723 84.6174 143.582C87.5032 139.442 93.0091 145.152 93.0091 145.152Z" fill="white" stroke="#333333" stroke-linecap="round" stroke-linejoin="round"/>
<path d="M114.624 69.2288C119.858 61.7631 143.92 70.7491 143.92 70.7491C143.92 70.7491 146.213 88.721 136.629 93.5168C127.044 98.3126 113.227 98.0531 109.495 101.94L94.3058 146.796C94.3058 146.796 88.8494 149.076 80.915 145.486C80.915 145.486 90.5611 111.612 93.3912 99.5857C96.1905 87.6827 114.315 79.6053 114.315 79.6053C113.382 78.501 112.674 77.2244 112.232 75.8477" fill="#333333"/>
<path d="M114.624 69.2288C119.858 61.7631 143.92 70.7491 143.92 70.7491C143.92 70.7491 146.213 88.721 136.629 93.5168C127.044 98.3126 113.227 98.0531 109.495 101.94L94.3058 146.796C94.3058 146.796 88.8494 149.076 80.915 145.486C80.915 145.486 90.5611 111.612 93.3912 99.5857C96.1905 87.6827 114.315 79.6053 114.315 79.6053C113.382 78.501 112.674 77.2244 112.232 75.8477" stroke="#333333" stroke-linecap="round" stroke-linejoin="round"/>
<path d="M138.983 86.4102C138.216 87.0925 137.409 87.7281 136.566 88.3137" stroke="white" stroke-linecap="round" stroke-linejoin="round"/>
<path d="M140.956 71.1895C142.921 75.4538 143.076 80.8676 140.338 84.8167" stroke="white" stroke-linecap="round" stroke-linejoin="round"/>
<path d="M135.474 71.874C135.474 71.874 134.974 75.1619 136.438 76.4659C137.903 77.7699 142.395 78.4312 142.395 78.4312" stroke="white" stroke-linecap="round" stroke-linejoin="round"/>
<path d="M115.747 72.0234C115.747 72.0234 115.951 75.2989 114.622 75.1444C113.294 74.9899 113.226 76.4546 113.226 76.4546" stroke="white" stroke-linecap="round" stroke-linejoin="round"/>
<path d="M101.147 35.2018C100.945 34.3762 100.837 33.5303 100.826 32.6803C100.826 32.6803 108.241 26.426 117.789 26.4631C129.159 26.5001 136.111 30.0785 138.891 35.0473C143.303 42.9085 143.921 70.7501 143.921 70.7501C143.921 70.7501 115.391 75.1504 111.3 69.7551C110.59 68.8157 111.133 62.1844 111.133 62.1844C111.133 62.1844 107.939 53.8041 107.265 47.3026C107.265 47.3026 106.029 45.6463 104.651 43.2855C103.637 41.5829 102.757 39.8038 102.019 37.9643" fill="white"/>
<path d="M101.147 35.2018C100.945 34.3762 100.837 33.5303 100.826 32.6803C100.826 32.6803 108.241 26.426 117.789 26.4631C129.159 26.5001 136.111 30.0785 138.891 35.0473C143.303 42.9085 143.921 70.7501 143.921 70.7501C143.921 70.7501 115.391 75.1504 111.3 69.7551C110.59 68.8157 111.133 62.1844 111.133 62.1844C111.133 62.1844 107.939 53.8041 107.265 47.3026C107.265 47.3026 106.029 45.6463 104.651 43.2855C103.637 41.5829 102.757 39.8038 102.019 37.9643" stroke="#333333" stroke-linecap="round" stroke-linejoin="round"/>
<g opacity="0.6">
<path d="M101.147 35.2018C100.945 34.3762 100.837 33.5303 100.826 32.6803C100.826 32.6803 108.241 26.426 117.789 26.4631C129.159 26.5001 136.111 30.0785 138.891 35.0473C143.303 42.9085 143.921 70.7501 143.921 70.7501C143.921 70.7501 115.391 75.1504 111.3 69.7551C110.59 68.8157 111.133 62.1844 111.133 62.1844C111.133 62.1844 107.939 53.8041 107.265 47.3026C107.265 47.3026 106.029 45.6463 104.651 43.2855C103.637 41.5829 102.757 39.8038 102.019 37.9643" fill="white"/>
<path d="M101.147 35.2018C100.945 34.3762 100.837 33.5303 100.826 32.6803C100.826 32.6803 108.241 26.426 117.789 26.4631C129.159 26.5001 136.111 30.0785 138.891 35.0473C143.303 42.9085 143.921 70.7501 143.921 70.7501C143.921 70.7501 115.391 75.1504 111.3 69.7551C110.59 68.8157 111.133 62.1844 111.133 62.1844C111.133 62.1844 107.939 53.8041 107.265 47.3026C107.265 47.3026 106.029 45.6463 104.651 43.2855C103.637 41.5829 102.757 39.8038 102.019 37.9643" stroke="#333333" stroke-linecap="round" stroke-linejoin="round"/>
</g>
<path d="M112.072 41.8945C112.072 41.8945 116.429 58.7973 115.78 62.5177C115.628 63.8015 115.843 65.102 116.398 66.2691C115.83 66.8684 115.464 67.6313 115.353 68.4499C115.242 69.2684 115.392 70.1011 115.78 70.8301" stroke="#333333" stroke-linecap="round" stroke-linejoin="round"/>
<path d="M123.628 55.8792C122.85 55.8496 122.094 55.6104 121.441 55.187L120.149 49.526C122.712 49.7599 125.295 49.5784 127.8 48.9883L129.184 55.1684C128.406 55.3859 127.615 55.5572 126.817 55.6814" stroke="#333333" stroke-linecap="round" stroke-linejoin="round"/>
<path d="M108.977 44.0934C108.977 44.0934 105.269 28.2969 114.625 26.4614C123.98 24.6259 125.902 28.9953 125.352 31.9556C124.617 35.9047 116.862 45.589 116.862 45.589L112.073 41.8809L108.977 44.0934Z" fill="white" stroke="#333333" stroke-linecap="round" stroke-linejoin="round"/>
<path opacity="0.4" d="M108.977 44.0934C108.977 44.0934 105.269 28.2969 114.625 26.4614C123.98 24.6259 125.902 28.9953 125.352 31.9556C124.617 35.9047 116.862 45.589 116.862 45.589L112.073 41.8809L108.977 44.0934Z" fill="white" stroke="#333333" stroke-linecap="round" stroke-linejoin="round"/>
<path d="M96.7031 92.8874C96.7031 92.8874 102.747 85.91 116.391 80.6383C116.391 80.6383 112.856 79.5568 112.065 78.0859" stroke="white" stroke-linecap="round" stroke-linejoin="round"/>
<path d="M89.5996 114.24L84.0684 134.301" stroke="white" stroke-linecap="round" stroke-linejoin="round"/>
<path d="M132.286 56.4249C132.286 56.4249 134.758 60.5966 144.935 60.2134C143.041 58.1857 140.645 56.6935 137.99 55.8873C133.831 54.7748 132.286 56.4249 132.286 56.4249Z" fill="white" stroke="#333333" stroke-linecap="round" stroke-linejoin="round"/>
<path d="M92.7969 58.1C92.7969 58.1 95.1574 54.4414 97.3202 53.706C99.483 52.9705 105.835 52.9087 106.818 52.884C107.8 52.8593 125.257 57.2966 133.451 60.0283L132.734 46.3516L143.746 47.2229C143.746 47.2229 143.301 63.9094 141.589 68.3282C139.878 72.747 137.424 71.6717 133.241 69.8671C116.785 62.7784 107.145 57.8405 106.249 58.1248C105.353 58.4091 92.7969 58.1 92.7969 58.1Z" fill="white" stroke="#333333" stroke-linecap="round" stroke-linejoin="round"/>
<path d="M129.986 38.402C129.698 39.5358 129.606 40.7105 129.714 41.8753C130.202 46.1519 132.284 56.4234 132.284 56.4234C132.284 56.4234 142.548 57.8881 144.934 60.2118C144.934 60.2118 146.627 46.6155 143.179 39.7122C139.731 32.809 136.165 32.0488 136.165 32.0488C133.91 31.4926 131.839 33.5939 130.696 36.2946" fill="white"/>
<path d="M129.986 38.402C129.698 39.5358 129.606 40.7105 129.714 41.8753C130.202 46.1519 132.284 56.4234 132.284 56.4234C132.284 56.4234 142.548 57.8881 144.934 60.2118C144.934 60.2118 146.627 46.6155 143.179 39.7122C139.731 32.809 136.165 32.0488 136.165 32.0488C133.91 31.4926 131.839 33.5939 130.696 36.2946" stroke="#333333" stroke-linecap="round" stroke-linejoin="round"/>
<g opacity="0.4">
<g opacity="0.4">
<path d="M129.986 38.402C129.698 39.5358 129.606 40.7105 129.714 41.8753C130.202 46.1519 132.284 56.4234 132.284 56.4234C132.284 56.4234 142.548 57.8881 144.934 60.2118C144.934 60.2118 146.627 46.6155 143.179 39.7122C139.731 32.809 136.165 32.0488 136.165 32.0488C133.91 31.4926 131.839 33.5939 130.696 36.2946" fill="white"/>
<path d="M129.986 38.402C129.698 39.5358 129.606 40.7105 129.714 41.8753C130.202 46.1519 132.284 56.4234 132.284 56.4234C132.284 56.4234 142.548 57.8881 144.934 60.2118C144.934 60.2118 146.627 46.6155 143.179 39.7122C139.731 32.809 136.165 32.0488 136.165 32.0488C133.91 31.4926 131.839 33.5939 130.696 36.2946" stroke="#333333" stroke-linecap="round" stroke-linejoin="round"/>
</g>
</g>
<path d="M99.8301 43.6943C101.366 44.9532 103.159 45.8603 105.083 46.3518" stroke="#333333" stroke-linecap="round" stroke-linejoin="round"/>
<path d="M132.286 43.6943C132.286 43.6943 135.994 50.7026 140.678 52.2477" stroke="#333333" stroke-linecap="round" stroke-linejoin="round"/>
<path d="M108.259 97.6777C108.259 97.6777 108.945 98.1969 109.223 100.069" stroke="white" stroke-linecap="round" stroke-linejoin="round"/>
<path d="M105.72 100.068C106.317 100.133 106.894 100.322 107.414 100.622C107.935 100.922 108.387 101.327 108.742 101.811" stroke="white" stroke-linecap="round" stroke-linejoin="round"/>
<path d="M85.2773 92.8867C85.2773 92.8867 87.255 93.8879 86.8286 96.7246" stroke="white" stroke-linecap="round" stroke-linejoin="round"/>
<path d="M83.1963 95.2969C83.1963 95.2969 85.897 96.8975 86.0886 98.3313" stroke="white" stroke-linecap="round" stroke-linejoin="round"/>
<path d="M114.494 78.0059C114.494 78.0059 120.507 78.8464 121.854 78.0059" stroke="white" stroke-linecap="round" stroke-linejoin="round"/>
<path d="M112.073 41.2145C111.555 39.7422 111.345 38.1794 111.455 36.6227C111.479 36.0945 111.535 35.5683 111.622 35.0467L110.577 33.3905L109.236 31.2583L110.787 25.0781C110.787 25.0781 120.674 26.9816 121.416 29.738C122.157 32.4943 112.073 41.2145 112.073 41.2145Z" fill="white"/>
<path opacity="0.2" d="M111.442 36.6471C111.467 36.119 111.522 35.5928 111.609 35.0712L110.564 33.4149C112.447 33.1247 114.162 32.1633 115.391 30.708C115.443 31.9879 115.089 33.2514 114.38 34.3181C113.671 35.3847 112.642 36.1999 111.442 36.6471Z" fill="#333333"/>
<path d="M112.073 41.2145C111.555 39.7422 111.345 38.1794 111.455 36.6227C111.479 36.0945 111.535 35.5683 111.622 35.0467L110.577 33.3905L109.236 31.2583L110.787 25.0781C110.787 25.0781 120.674 26.9816 121.416 29.738C122.157 32.4943 112.073 41.2145 112.073 41.2145Z" stroke="#333333" stroke-linecap="round" stroke-linejoin="round"/>
<path d="M118.276 25.5967C121.366 17.5625 119.314 3.88578 104.483 6.50617C95.7829 8.05121 94.7324 18.5699 97.6367 23.2421C100.541 27.9143 97.4575 28.0626 101.826 31.5235C103.6 32.9264 105.027 35.3057 107.141 35.4602C109.656 35.6333 112.875 33.2539 115.279 30.683" fill="white"/>
<path d="M118.276 25.5967C121.366 17.5625 119.314 3.88578 104.483 6.50617C95.7829 8.05121 94.7324 18.5699 97.6367 23.2421C100.541 27.9143 97.4575 28.0626 101.826 31.5235C103.6 32.9264 105.027 35.3057 107.141 35.4602C109.656 35.6333 112.875 33.2539 115.279 30.683" stroke="#333333" stroke-linecap="round" stroke-linejoin="round"/>
<path d="M103.663 23.2421C103.663 23.2421 105.851 21.252 108.453 22.074" stroke="#333333" stroke-linecap="round" stroke-linejoin="round"/>
<path d="M99.5662 23.243C99.2727 22.7268 98.8641 22.2854 98.3721 21.9531C97.88 21.6208 97.3179 21.4066 96.7295 21.3271" stroke="#333333" stroke-linecap="round" stroke-linejoin="round"/>
<path d="M101.011 26.1416C101.011 26.1416 100.695 27.7423 100.281 29.3615C99.8673 30.9807 102.877 30.0969 102.753 29.8497" fill="white"/>
<path d="M101.011 26.1416C101.011 26.1416 100.695 27.7423 100.281 29.3615C99.8673 30.9807 102.877 30.0969 102.753 29.8497" stroke="#333333" stroke-linecap="round" stroke-linejoin="round"/>
<path d="M104.304 31.8704C105.58 31.5047 106.715 30.7614 107.561 29.7383" stroke="#333333" stroke-linecap="round" stroke-linejoin="round"/>
<path d="M106.708 25.2767C106.758 25.3668 106.788 25.4673 106.793 25.5704C106.799 25.6735 106.781 25.7765 106.741 25.8717C106.701 25.9669 106.64 26.0517 106.563 26.1198C106.485 26.1878 106.393 26.2372 106.293 26.2643C106.193 26.2914 106.089 26.2954 105.987 26.2761C105.886 26.2568 105.79 26.2146 105.708 26.1527C105.625 26.0909 105.557 26.011 105.51 25.9192C105.463 25.8274 105.437 25.726 105.435 25.6228C105.385 25.5326 105.355 25.4322 105.35 25.3291C105.344 25.226 105.362 25.1229 105.402 25.0277C105.442 24.9325 105.503 24.8477 105.581 24.7797C105.658 24.7117 105.75 24.6622 105.85 24.6351C105.95 24.608 106.054 24.604 106.156 24.6233C106.257 24.6427 106.353 24.6849 106.436 24.7467C106.518 24.8085 106.586 24.8884 106.633 24.9802C106.68 25.0721 106.706 25.1734 106.708 25.2767Z" fill="#333333"/>
<path d="M100.108 25.1398C100.232 25.5848 100.145 26.005 99.9102 26.0668C99.6754 26.1286 99.3849 25.8196 99.2922 25.3685C99.1995 24.9173 99.2613 24.5033 99.4962 24.4415C99.731 24.3797 99.972 24.6887 100.108 25.1398Z" fill="#333333"/>
<path d="M109.13 14.9677C109.13 14.9677 106.831 20.981 101.146 20.845C101.146 20.845 103.117 19.3433 103.661 17.9095C103.661 17.9095 99.2862 22.2356 94.9174 20.0354C90.5486 17.8353 92.6928 7.60095 99.3975 3.55913C106.102 -0.482701 112.961 0.598822 115.285 4.46143C115.285 4.46143 119.981 4.02881 122.051 10.9321C123.905 17.1122 120.939 26.4814 118.041 26.5864C113.548 26.7533 112.646 21.8771 112.646 21.8771C110.791 19.991 109.563 17.578 109.13 14.9677Z" fill="#333333" stroke="#333333" stroke-linecap="round" stroke-linejoin="round"/>
<path d="M114.056 25.627C114.056 25.627 113.913 19.9536 117.146 20.6396C120.378 21.3256 118.036 27.8827 115.607 27.8148" fill="white"/>
<path d="M114.056 25.627C114.056 25.627 113.913 19.9536 117.146 20.6396C120.378 21.3256 118.036 27.8827 115.607 27.8148" stroke="#333333" stroke-linecap="round" stroke-linejoin="round"/>
<path d="M104.076 57.4863H54.2514C53.6951 57.4863 53.2441 57.9373 53.2441 58.4937V60.2303C53.2441 60.7867 53.6951 61.2377 54.2514 61.2377H104.076C104.632 61.2377 105.083 60.7867 105.083 60.2303V58.4937C105.083 57.9373 104.632 57.4863 104.076 57.4863Z" fill="white" stroke="#333333" stroke-linecap="round" stroke-linejoin="round"/>
<path d="M40.5962 132.973H19.5801L21.7799 152.187H38.3964L40.5962 132.973Z" fill="#333333" stroke="#333333" stroke-linecap="round" stroke-linejoin="round"/>
<path d="M43.0869 119.598C43.0869 119.598 33.9105 120.321 33.5273 127.094C33.5273 127.094 42.8212 131.371 43.0869 119.598Z" fill="white" stroke="#333333" stroke-linecap="round" stroke-linejoin="round"/>
<path d="M24.9311 121.281C24.9311 121.281 19.8022 114.346 11.5156 117.9C11.5156 117.9 16.5766 126.262 24.9311 121.281Z" fill="white" stroke="#333333" stroke-linecap="round" stroke-linejoin="round"/>
<path d="M12.2186 99.3902C12.2186 99.3902 10.7418 112.727 22.8843 109.056C22.8843 109.056 19.0283 99.2481 12.2186 99.3902Z" fill="white" stroke="#333333" stroke-linecap="round" stroke-linejoin="round"/>
<path d="M27.1318 91.9609C27.1318 91.9609 17.5278 97.1399 24.5917 105.001C24.5855 105.001 31.3157 99.3833 27.1318 91.9609Z" fill="white" stroke="#333333" stroke-linecap="round" stroke-linejoin="round"/>
<path d="M38.9403 103.882C38.9403 103.882 28.4971 102.825 28.4971 112.491C28.4971 112.491 38.9403 112.905 38.9403 103.882Z" fill="white" stroke="#333333" stroke-linecap="round" stroke-linejoin="round"/>
<path d="M29.0977 140.888C29.0977 140.888 33.8564 130.901 29.2893 120.729C24.7221 110.556 23.1709 101.984 25.5812 95.9463" stroke="#333333" stroke-linecap="round" stroke-linejoin="round"/>
<path d="M35.5101 106.483C35.5101 106.483 29.2504 108.955 27.1309 115.414" stroke="#333333" stroke-linecap="round" stroke-linejoin="round"/>
<path d="M15.5205 104.724C15.5205 104.724 19.1355 109.668 25.2592 109.118" stroke="#333333" stroke-linecap="round" stroke-linejoin="round"/>
<path d="M15.5205 119.319C15.5205 119.319 25.5311 122.199 29.5107 121.26" stroke="#333333" stroke-linecap="round" stroke-linejoin="round"/>
<path d="M40.1076 122.645C40.1076 122.645 35.6275 127.589 31.1289 127.484" stroke="#333333" stroke-linecap="round" stroke-linejoin="round"/>
<path d="M18.6775 135.258H41.498V132.545H18.6775V135.258Z" fill="#333333" stroke="#333333" stroke-linecap="round" stroke-linejoin="round"/>
</svg>
