<svg width="124" height="130" viewBox="0 0 124 130" fill="none" xmlns="http://www.w3.org/2000/svg">
<path d="M0.823669 43.9532V10.0293C0.825942 4.94752 4.9362 0.828449 10.0072 0.826172H82.2232C83.8437 0.826629 85.4025 1.44826 86.5802 2.56363L105.87 20.8379C107.136 22.0389 107.854 23.7088 107.855 25.456V119.964C107.855 125.044 103.745 129.163 98.6753 129.163H10.0072C4.9362 129.161 0.825942 125.042 0.823669 119.96V58.7154" fill="white"/>
<path d="M98.6752 130H10.0071C4.48317 129.993 0.00680711 125.507 0 119.971V58.7146C0 58.2588 0.368753 57.8892 0.823632 57.8892C1.27851 57.8892 1.64726 58.2588 1.64726 58.7146V119.971C1.65407 124.596 5.39292 128.342 10.0071 128.349H98.6752C103.288 128.345 107.026 124.598 107.031 119.976V25.4676C107.028 23.9469 106.403 22.4938 105.301 21.4479L86.016 3.17779C84.9931 2.20301 83.6348 1.66059 82.2232 1.66319H10.0071C5.39292 1.67001 1.65407 5.41687 1.64726 10.041V43.9524C1.64726 44.4082 1.27851 44.7778 0.823632 44.7778C0.368753 44.7778 0 44.4082 0 43.9524V10.0286C0.00680711 4.49278 4.48317 0.00683391 10.0071 1.22161e-05H82.2232C84.0546 -0.0033807 85.8169 0.700112 87.1444 1.96446L106.434 20.2346C107.862 21.5945 108.673 23.4808 108.678 25.4552V119.963C108.678 125.502 104.202 129.993 98.6752 130Z" fill="#372168"/>
<path fill-rule="evenodd" clip-rule="evenodd" d="M105.528 22.713H91.5879C87.8101 22.713 84.7476 19.6439 84.7476 15.858V2.49899C84.7399 2.20212 84.9142 1.93075 85.1871 1.81498C85.46 1.6992 85.7758 1.76264 85.9831 1.97486L106.162 21.1117C106.436 21.3729 106.524 21.7747 106.385 22.127C106.245 22.4792 105.906 22.7111 105.528 22.713Z" fill="#E7EEFF"/>
<path fill-rule="evenodd" clip-rule="evenodd" d="M91.5879 23.5411H105.528C106.245 23.544 106.891 23.1068 107.157 22.4389C107.422 21.771 107.253 21.0083 106.73 20.5161L86.5266 1.37923C86.0799 0.952602 85.4221 0.834407 84.8553 1.07889C84.2884 1.32338 83.9219 1.88333 83.924 2.50177V15.8608C83.9285 20.1007 87.3571 23.5366 91.5879 23.5411ZM85.5712 15.8597V2.74414L105.598 21.7159C105.631 21.7425 105.642 21.789 105.623 21.8273C105.609 21.8676 105.57 21.8933 105.528 21.8892H91.5878C88.2659 21.8869 85.5735 19.1888 85.5712 15.8597Z" fill="#372168"/>
<path d="M5.79011 10.8543C5.56267 10.8543 5.3783 10.6696 5.3783 10.4416C5.38283 7.37563 7.86188 4.89126 10.9213 4.88672C11.1488 4.88672 11.3332 5.07149 11.3332 5.29942C11.3332 5.52734 11.1488 5.71212 10.9213 5.71212C8.31582 5.71439 6.2042 7.83054 6.20193 10.4416C6.20193 10.6696 6.01755 10.8543 5.79011 10.8543Z" fill="#372168"/>
<path d="M65.2111 93.4117C65.1201 93.4114 65.0318 93.381 64.9599 93.325L61.6077 90.7457C61.5198 90.6793 61.462 90.5804 61.4473 90.4711C61.4326 90.3618 61.4622 90.2511 61.5295 90.1638C61.6684 89.9841 61.9262 89.9509 62.106 90.0895L65.4623 92.6689C65.6047 92.7759 65.6624 92.9625 65.6053 93.1315C65.5481 93.3005 65.3891 93.4135 65.2111 93.4117Z" fill="#372168"/>
<path d="M68.5715 92.7655C68.4805 92.7652 68.3922 92.7348 68.3203 92.6789L61.6118 87.516C61.485 87.4298 61.4164 87.2803 61.4337 87.1277C61.4511 86.9752 61.5515 86.8449 61.6943 86.7895C61.8372 86.7341 61.999 86.7628 62.1142 86.8639L68.8227 92.0227C69.002 92.1619 69.0351 92.4203 68.8968 92.6004C68.8199 92.7032 68.6997 92.7642 68.5715 92.7655Z" fill="#372168"/>
<path d="M68.5715 89.4725C68.4805 89.4722 68.3922 89.4417 68.3203 89.3858L66.4754 87.9661C66.3061 87.8247 66.2778 87.5749 66.4113 87.3991C66.5447 87.2234 66.7926 87.1841 66.9737 87.3099L68.8227 88.7337C69.002 88.873 69.0351 89.1313 68.8968 89.3115C68.8191 89.4127 68.699 89.4722 68.5715 89.4725Z" fill="#372168"/>
<path d="M95.599 123.501C95.3716 123.501 95.1872 123.316 95.1872 123.088C95.1872 122.86 95.3716 122.675 95.599 122.675C98.2045 122.673 100.316 120.557 100.318 117.946C100.318 117.718 100.503 117.533 100.73 117.533C100.958 117.533 101.142 117.718 101.142 117.946C101.14 121.013 98.6594 123.499 95.599 123.501Z" fill="#372168"/>
<rect x="19.6807" y="26.9609" width="20.7802" height="20.8248" rx="10.3901" fill="#A1D0B5"/>
<path fill-rule="evenodd" clip-rule="evenodd" d="M24.2107 48.6084H35.9309C37.3508 48.6084 38.7125 48.0431 39.7165 47.037C40.7205 46.0308 41.2846 44.6662 41.2846 43.2433V31.4979C41.2846 28.5348 38.8877 26.1328 35.9309 26.1328H24.2107C21.2539 26.1328 18.8571 28.5348 18.8571 31.4979V43.2433C18.8571 46.2063 21.2539 48.6084 24.2107 48.6084ZM20.5043 31.4975C20.5043 29.4461 22.1637 27.7832 24.2107 27.7832H35.9309C37.9779 27.7832 39.6373 29.4461 39.6373 31.4975V43.2429C39.6373 45.2942 37.9779 46.9572 35.9309 46.9572H24.2107C22.1637 46.9572 20.5043 45.2942 20.5043 43.2429V31.4975Z" fill="#372168"/>
<path d="M29.2925 42.8721C28.9901 42.8666 28.715 42.6955 28.5759 42.4264L26.1544 37.7629C26.0191 37.5005 26.0337 37.1856 26.1928 36.9369C26.352 36.6882 26.6314 36.5434 26.9259 36.5572C27.2204 36.5709 27.4851 36.7411 27.6205 37.0035L29.3213 40.3051L33.7977 32.2905C34.0252 31.8928 34.5313 31.7551 34.9282 31.9831C35.3251 32.211 35.4624 32.7182 35.235 33.1159L30.009 42.4677C29.8592 42.7209 29.5862 42.875 29.2925 42.8721Z" fill="white"/>
<rect x="19.6807" y="55.6602" width="20.7802" height="20.8248" rx="10.3901" fill="#A1D0B5"/>
<path fill-rule="evenodd" clip-rule="evenodd" d="M24.2107 77.3054H35.9309C38.8877 77.3054 41.2846 74.9034 41.2846 71.9403V60.1991C41.2846 57.236 38.8877 54.834 35.9309 54.834H24.2107C21.2539 54.834 18.8571 57.236 18.8571 60.1991V71.9403C18.8571 74.9034 21.2539 77.3054 24.2107 77.3054ZM20.5043 60.1987C20.5043 58.1473 22.1637 56.4844 24.2107 56.4844H35.9309C37.9779 56.4844 39.6373 58.1473 39.6373 60.1987V71.9399C39.6373 73.9913 37.9779 75.6542 35.9309 75.6542H24.2107C22.1637 75.6542 20.5043 73.9913 20.5043 71.9399V60.1987Z" fill="#372168"/>
<path d="M29.2925 71.5739C28.9892 71.5677 28.7139 71.3948 28.5759 71.1241L26.1709 66.4524C25.9617 66.0466 26.1202 65.5478 26.5251 65.3381C26.9299 65.1284 27.4277 65.2873 27.637 65.693L29.3378 68.9946L33.8142 60.98C34.0417 60.5822 34.5478 60.4446 34.9446 60.6725C35.3415 60.9004 35.4789 61.4076 35.2515 61.8054L30.0255 71.1571C29.876 71.4203 29.5946 71.5803 29.2925 71.5739Z" fill="white"/>
<rect x="19.6807" y="84.3594" width="20.7802" height="20.8248" rx="10.3901" fill="#A1D0B5"/>
<path fill-rule="evenodd" clip-rule="evenodd" d="M24.2107 106.005H35.9309C37.3508 106.005 38.7125 105.439 39.7165 104.433C40.7205 103.427 41.2846 102.062 41.2846 100.64V88.8983C41.2846 85.9352 38.8877 83.5332 35.9309 83.5332H24.2107C21.2539 83.5332 18.8571 85.9352 18.8571 88.8983V100.64C18.8571 103.603 21.2539 106.005 24.2107 106.005ZM20.5043 88.8979C20.5043 86.8465 22.1637 85.1836 24.2107 85.1836H35.9309C37.9779 85.1836 39.6373 86.8465 39.6373 88.8979V100.639C39.6373 102.69 37.9779 104.353 35.9309 104.353H24.2107C22.1637 104.353 20.5043 102.69 20.5043 100.639V88.8979Z" fill="#372168"/>
<path d="M29.2925 100.273C28.9901 100.267 28.715 100.096 28.5759 99.827L26.1709 95.1511C25.9628 94.7454 26.1223 94.2475 26.5272 94.0389C26.932 93.8304 27.4289 93.9902 27.637 94.3959L29.3378 97.6975L33.8142 89.687C34.0417 89.2893 34.5478 89.1516 34.9447 89.3795C35.3416 89.6075 35.4789 90.1147 35.2515 90.5124L30.0255 99.8683C29.8728 100.127 29.5921 100.282 29.2925 100.273Z" fill="white"/>
<path d="M118.739 90.1504L109.407 99.6961L112.051 102.288C113.753 103.958 116.214 104.592 118.509 103.951C120.803 103.309 122.582 101.49 123.174 99.178C123.767 96.866 123.084 94.4127 121.383 92.7421L118.739 90.1504Z" fill="white"/>
<path fill-rule="evenodd" clip-rule="evenodd" d="M111.619 102.749C112.981 104.082 114.813 104.823 116.717 104.812L116.791 104.833C119.737 104.802 122.374 102.997 123.473 100.258C124.573 97.5194 123.918 94.3868 121.815 92.32L118.731 89.2949L108.534 99.7279L111.619 102.749ZM112.483 101.845L110.284 99.6862L118.751 91.0195L120.95 93.1779C123.338 95.521 123.379 99.3606 121.041 101.754C118.703 104.147 114.872 104.188 112.483 101.845Z" fill="#372168"/>
<rect width="13.3492" height="1.36042" transform="matrix(0.698899 -0.715221 0.713724 0.700427 108.446 98.6855)" fill="white"/>
<path fill-rule="evenodd" clip-rule="evenodd" d="M107.566 98.7492L109.415 100.573L119.616 90.1403L117.759 88.3203L107.566 98.7492ZM109.399 98.8197L109.312 98.7331L117.779 90.0664L117.866 90.1531L109.399 98.8197Z" fill="#372168"/>
<path fill-rule="evenodd" clip-rule="evenodd" d="M106.459 96.8109L67.9332 58.9829C67.8971 58.9447 67.8971 58.8849 67.9332 58.8467L77.1373 49.4331C77.1551 49.4147 77.1796 49.4043 77.2052 49.4043C77.2308 49.4043 77.2553 49.4147 77.2732 49.4331L115.799 87.2569" fill="#FFD87A"/>
<path d="M106.459 97.4282C106.304 97.4212 106.158 97.3581 106.047 97.2507L67.5214 59.4228C67.3812 59.2829 67.3026 59.0927 67.3031 58.8945C67.3057 58.7074 67.3828 58.5291 67.5172 58.3993L76.709 48.998C76.8393 48.8644 77.0168 48.7874 77.2032 48.7834C77.4006 48.7787 77.5907 48.8582 77.7262 49.0021L116.243 86.8177C116.401 86.9725 116.465 87.2001 116.411 87.4148C116.356 87.6295 116.191 87.7986 115.978 87.8584C115.765 87.9183 115.537 87.8598 115.379 87.705L77.2196 50.2402L68.7527 58.9069L106.907 96.3675C107.083 96.542 107.138 96.804 107.049 97.0349C106.96 97.2658 106.743 97.4218 106.496 97.4323L106.459 97.4282Z" fill="#372168"/>
<path d="M77.1043 49.316L69.8687 46.8398L65.2028 51.6106L67.8343 58.8122C67.843 58.8323 67.861 58.8468 67.8824 58.851C67.9038 58.8551 67.9259 58.8483 67.9414 58.8329L77.129 49.4316C77.1525 49.4183 77.1647 49.3912 77.1591 49.3647C77.1534 49.3382 77.1312 49.3185 77.1043 49.316Z" fill="white"/>
<path fill-rule="evenodd" clip-rule="evenodd" d="M67.752 59.4775C67.7999 59.4836 67.8483 59.4836 67.8961 59.4775C68.0739 59.4862 68.248 59.4256 68.3821 59.3083L77.5738 49.907C77.7356 49.7388 77.8007 49.4996 77.7465 49.2723C77.6923 49.0451 77.5263 48.8612 77.3061 48.7845L69.6999 46.168L64.4904 51.5L67.2537 59.0648C67.3397 59.2778 67.5271 59.433 67.752 59.4775ZM68.0979 57.7783L65.8988 51.7694L70.0211 47.5723L76.0583 49.6358L68.0979 57.7783Z" fill="#372168"/>
<path fill-rule="evenodd" clip-rule="evenodd" d="M69.8687 46.8409L63.432 44.6247C63.2678 44.5673 63.0852 44.6102 62.9635 44.7348C62.8419 44.8594 62.803 45.0432 62.8637 45.2066L65.2028 51.6117L69.8687 46.8409Z" fill="#FF7D7D"/>
<path fill-rule="evenodd" clip-rule="evenodd" d="M62.283 45.4259L64.9598 52.7513L70.9929 46.5774L63.6338 44.0434C63.2438 43.9106 62.8124 44.0138 62.5243 44.3087C62.2361 44.6036 62.1423 45.038 62.283 45.4259ZM65.4458 50.4727L63.5638 45.3223L68.7403 47.101L65.4458 50.4727Z" fill="#372168"/>
<path fill-rule="evenodd" clip-rule="evenodd" d="M115.803 87.2637L106.471 96.8094L108.369 98.6707L108.439 98.7449L109.411 99.6983L118.743 90.1526L117.771 89.1992L117.697 89.1249L115.803 87.2637Z" fill="#FF8F8F"/>
<path fill-rule="evenodd" clip-rule="evenodd" d="M105.594 96.8197L109.415 100.575L119.616 90.1423L115.79 86.3867L105.594 96.8197ZM109.415 98.8215L107.356 96.7993L115.823 88.1367L117.882 90.1548L109.415 98.8215Z" fill="#372168"/>
<path d="M118.142 101.595C118.055 101.595 117.965 101.595 117.878 101.595C117.731 101.581 117.602 101.491 117.54 101.356C117.478 101.222 117.492 101.065 117.577 100.943C117.662 100.822 117.805 100.756 117.952 100.769C118.511 100.823 119.066 100.637 119.479 100.257C119.892 99.8764 120.125 99.3381 120.118 98.776C120.118 98.5481 120.303 98.3633 120.53 98.3633C120.758 98.3633 120.942 98.5481 120.942 98.776C120.951 99.5256 120.66 100.247 120.133 100.78C119.607 101.313 118.89 101.612 118.142 101.611V101.595Z" fill="#372168"/>
<path d="M103.728 87.9745C103.621 87.9752 103.517 87.9337 103.44 87.8589L70.96 55.9697C70.7974 55.8102 70.7947 55.5487 70.9539 55.3858C71.1131 55.2228 71.374 55.22 71.5366 55.3796L104.017 87.2688C104.094 87.3463 104.138 87.4518 104.138 87.5618C104.138 87.6718 104.094 87.7773 104.017 87.8548C103.94 87.9311 103.836 87.974 103.728 87.9745Z" fill="#372168"/>
<path d="M109.671 93.8118C109.563 93.8113 109.459 93.7683 109.382 93.6921L105.758 90.1346C105.617 89.9719 105.625 89.7277 105.776 89.5741C105.927 89.4206 106.171 89.4095 106.335 89.5486L109.959 93.1061C110.119 93.267 110.119 93.527 109.959 93.688C109.883 93.7657 109.779 93.8102 109.671 93.8118Z" fill="#372168"/>
<path d="M109.889 87.7194C109.781 87.7189 109.677 87.676 109.601 87.5997L78.0968 56.6473C77.9371 56.4864 77.9371 56.2264 78.0968 56.0654C78.1741 55.9873 78.2794 55.9434 78.3892 55.9434C78.499 55.9434 78.6043 55.9873 78.6816 56.0654L110.186 86.9972C110.263 87.0747 110.307 87.1801 110.307 87.2902C110.307 87.4002 110.263 87.5057 110.186 87.5832C110.11 87.6676 110.002 87.7168 109.889 87.7194Z" fill="#372168"/>
<path d="M72.805 42.7717C72.6508 42.772 72.5094 42.686 72.4385 42.5488C72.3328 42.3471 72.4102 42.0977 72.6114 41.9917L74.8105 40.8444C74.9419 40.7634 75.1074 40.7628 75.2393 40.8427C75.3713 40.9227 75.4476 41.0699 75.4371 41.224C75.4266 41.3782 75.331 41.5136 75.1894 41.5748L72.9944 42.7221C72.9362 42.7537 72.8712 42.7706 72.805 42.7717Z" fill="#372168"/>
<path d="M70.3341 41.121C70.257 41.1212 70.1814 41.0998 70.1158 41.0591C69.9247 40.9387 69.8659 40.6865 69.984 40.4937L71.4666 38.1165C71.5446 37.9912 71.6833 37.9171 71.8306 37.9221C71.9779 37.9271 72.1114 38.0105 72.1807 38.1408C72.25 38.2712 72.2446 38.4287 72.1667 38.554L70.6841 40.927C70.6087 41.0479 70.4764 41.1213 70.3341 41.121Z" fill="#372168"/>
<path d="M67.5955 39.9137C67.3681 39.9137 67.1837 39.7289 67.1837 39.501L67.0849 36.8473C67.0769 36.6194 67.2548 36.4282 67.4823 36.4202C67.7097 36.4122 67.9005 36.5905 67.9085 36.8184L68.0073 39.4721C68.0073 39.7 67.8229 39.8848 67.5955 39.8848V39.9137Z" fill="#372168"/>
</svg>
