<svg width="503" height="306" viewBox="0 0 503 306" fill="none" xmlns="http://www.w3.org/2000/svg">
<path opacity="0.3" d="M464 239.018H405.164C411.462 233.232 415.477 224.468 415.477 214.659V207.457C415.477 186.575 430.657 169.647 449.383 169.647C468.579 169.647 484.142 152.294 484.142 130.889C484.142 109.482 468.579 92.1299 449.383 92.1299H443.688C424.963 92.1232 409.775 75.1953 409.775 54.3209C409.775 36.9005 397.107 22.7715 381.481 22.7715H160.409C143.015 22.7715 128.918 38.4934 128.918 57.8871C128.918 71.145 135.508 82.6777 145.233 88.6626H106.397C90.201 88.6626 77.0703 102.212 77.0703 118.926C77.0703 138.956 61.3367 155.192 41.928 155.192H36.0251C16.129 155.192 0 171.837 0 192.369C0 212.902 16.129 229.555 36.0251 229.555C55.4355 229.555 71.1692 245.792 71.1692 265.822V272.736C71.1692 289.45 84.2981 302.999 100.494 302.999H236.953C237.982 303.098 239.025 303.152 240.08 303.152H464C481.705 303.152 496.059 288.798 496.059 271.091C496.059 253.373 481.705 239.018 464 239.018Z" fill="#9BC1F9"/>
<path d="M141.718 200.535C140.826 200.535 140.099 201.564 140.095 202.835C140.092 204.106 140.814 205.142 141.707 205.143C142.599 205.145 143.326 204.116 143.328 202.843C143.33 201.57 142.606 200.539 141.718 200.535ZM141.718 201.187C142.197 201.187 142.584 201.428 142.584 201.723C142.584 202.018 142.194 202.255 141.715 202.254C141.236 202.252 140.849 202.013 140.849 201.718C140.849 201.423 141.238 201.185 141.717 201.187H141.718ZM141.71 204.279C141.04 204.279 140.487 203.907 140.489 203.453C140.491 202.999 141.038 202.631 141.715 202.632C142.392 202.634 142.938 203.004 142.936 203.458C142.934 203.912 142.385 204.281 141.708 204.279H141.71Z" fill="#466EB6"/>
<path d="M138.048 205.622C137.708 206.354 137.531 207.151 137.529 207.957L137.487 224.823C137.49 225.314 137.688 225.783 138.036 226.129C138.385 226.474 138.856 226.667 139.347 226.666L148.99 226.689C149.234 226.691 149.475 226.645 149.701 226.554C149.927 226.462 150.133 226.327 150.306 226.156C150.479 225.984 150.618 225.781 150.712 225.556C150.807 225.332 150.856 225.09 150.857 224.847L150.899 207.979C150.903 207.17 150.732 206.37 150.397 205.634L138.048 205.622Z" fill="#7F1CA0"/>
<path d="M138.048 205.622C137.708 206.354 137.531 207.151 137.529 207.957L137.487 224.823C137.49 225.314 137.688 225.783 138.036 226.129C138.385 226.474 138.856 226.667 139.347 226.666L148.99 226.689C149.234 226.691 149.475 226.645 149.701 226.554C149.927 226.462 150.133 226.327 150.306 226.156C150.479 225.984 150.618 225.781 150.712 225.556C150.807 225.332 150.856 225.09 150.857 224.847L150.899 207.979C150.903 207.17 150.732 206.37 150.397 205.634L138.048 205.622Z" fill="#7F1CA0"/>
<path d="M150.901 207.989L150.859 224.857C150.858 225.1 150.808 225.341 150.713 225.566C150.619 225.79 150.481 225.994 150.307 226.165C150.134 226.336 149.928 226.472 149.703 226.563C149.477 226.655 149.235 226.701 148.992 226.699L139.347 226.676C138.856 226.678 138.385 226.485 138.036 226.139C137.688 225.794 137.491 225.324 137.489 224.833L137.529 207.966C137.532 207.159 137.709 206.363 138.048 205.632L150.392 205.664C150.726 206.394 150.9 207.187 150.901 207.989Z" fill="#ED6966"/>
<path d="M140.045 224.83L140.085 207.962C140.089 207.156 140.266 206.361 140.605 205.629H138.048C137.708 206.361 137.531 207.157 137.529 207.964L137.487 224.83C137.49 225.321 137.688 225.79 138.036 226.136C138.385 226.481 138.856 226.674 139.347 226.673H141.903C141.412 226.674 140.941 226.481 140.593 226.136C140.244 225.79 140.047 225.321 140.045 224.83Z" fill="#F48C7F"/>
<path d="M150.901 207.989L150.859 224.857C150.858 225.1 150.808 225.341 150.713 225.566C150.619 225.79 150.481 225.994 150.307 226.165C150.134 226.336 149.928 226.471 149.702 226.563C149.477 226.655 149.235 226.701 148.991 226.699H145.048C145.543 226.705 146.019 226.514 146.373 226.168C146.727 225.823 146.929 225.351 146.936 224.857L146.976 207.989C146.976 207.179 146.799 206.379 146.459 205.644L150.387 205.654C150.724 206.386 150.9 207.183 150.901 207.989Z" fill="#B75742"/>
<path d="M150.392 205.653L138.047 205.622C138.048 205.494 138.074 205.366 138.124 205.248C138.174 205.129 138.247 205.021 138.339 204.931C138.431 204.84 138.539 204.769 138.659 204.721C138.778 204.672 138.906 204.648 139.035 204.649L149.407 204.674C149.536 204.674 149.663 204.699 149.783 204.748C149.902 204.797 150.01 204.869 150.102 204.959C150.193 205.05 150.266 205.158 150.316 205.277C150.365 205.396 150.391 205.524 150.392 205.653Z" fill="#13375B"/>
<path d="M137.493 221.491L137.488 223.587L150.858 223.619L150.864 221.524L137.493 221.491Z" fill="#355389"/>
<path d="M125.899 200.192H127.373C127.116 200.019 126.813 199.927 126.502 199.929H89.5578C87.6248 199.929 86.0586 201.318 86.0586 203.031V205.001C86.0586 206.715 87.6248 208.103 89.5578 208.103L126.089 208.093L125.899 200.192Z" fill="#86B1F2"/>
<path d="M104.918 199.936C103.075 199.936 101.568 201.264 101.568 202.902V205.13C101.568 206.768 103.075 208.096 104.918 208.096H127.916V207.594H127.822L121.975 207.103L120.802 202.992C120.802 202.992 123.082 200.723 123.231 200.664C123.38 200.606 127.831 200.426 127.831 200.426H127.925V199.924L104.918 199.936Z" fill="#466EB6"/>
<path d="M126.432 204.001C126.432 201.599 127.832 200.435 127.832 200.435H105.397C103.698 200.435 102.322 201.654 102.322 203.158V204.874C102.322 206.381 103.698 207.599 105.397 207.599H127.832C127.832 207.599 126.432 207.028 126.432 204.001Z" fill="#FAE0B2"/>
<g style="mix-blend-mode:multiply">
<path d="M102.322 203.158V204.874C102.322 205.095 102.352 205.314 102.412 205.527C103.167 203.885 104.618 202.304 107.38 201.797C113.826 200.611 127.832 200.435 127.832 200.435H105.397C103.698 200.435 102.322 201.654 102.322 203.158Z" fill="#DAEEF7"/>
</g>
<path d="M125.291 216.534H126.966C126.683 216.317 126.337 216.199 125.98 216.199H84.1607C83.6455 216.194 83.1344 216.29 82.6565 216.482C82.1786 216.675 81.7433 216.96 81.3754 217.32C81.0075 217.681 80.7143 218.111 80.5125 218.585C80.3107 219.059 80.2043 219.568 80.1992 220.083V222.549C80.2043 223.064 80.3107 223.573 80.5125 224.047C80.7143 224.521 81.0075 224.951 81.3754 225.311C81.7433 225.672 82.1786 225.957 82.6565 226.149C83.1344 226.342 83.6455 226.438 84.1607 226.433L125.506 226.418L125.291 216.534Z" fill="#3662C1"/>
<path d="M101.553 216.212C100.558 216.202 99.5998 216.588 98.8892 217.284C98.1787 217.981 97.7738 218.931 97.7637 219.925V222.713C97.7738 223.708 98.1787 224.658 98.8892 225.354C99.5998 226.05 100.558 226.436 101.553 226.426H127.583V225.803H127.474L120.857 225.188L119.517 220.044C119.517 220.044 122.1 217.197 122.268 217.128C122.435 217.059 127.472 216.833 127.472 216.833H127.581V216.214L101.553 216.212Z" fill="#3C8F7C"/>
<path d="M125.895 221.301C125.895 218.294 127.479 216.835 127.479 216.835H102.086C101.633 216.831 101.184 216.915 100.764 217.085C100.345 217.254 99.9623 217.504 99.6393 217.821C99.3162 218.137 99.0587 218.515 98.8815 218.931C98.7043 219.348 98.6108 219.795 98.6064 220.247V222.393C98.6157 223.306 98.9874 224.179 99.6399 224.818C100.292 225.458 101.172 225.812 102.086 225.803H127.479C127.479 225.803 125.895 225.088 125.895 221.301Z" fill="#FAE0B2"/>
<g style="mix-blend-mode:multiply">
<path d="M98.6064 220.247V222.393C98.6065 222.668 98.6403 222.943 98.7069 223.21C99.5646 221.155 101.206 219.177 104.33 218.54C111.627 217.056 127.479 216.835 127.479 216.835H102.086C101.633 216.831 101.184 216.915 100.764 217.085C100.345 217.254 99.9623 217.504 99.6393 217.821C99.3162 218.137 99.0587 218.515 98.8815 218.931C98.7043 219.348 98.6108 219.795 98.6064 220.247Z" fill="#DAEEF7"/>
</g>
<path d="M78.8208 208.344H77.1458C77.4453 208.171 77.786 208.08 78.1324 208.083H119.968C122.156 208.083 123.93 209.463 123.93 211.165V213.115C123.93 214.817 122.156 216.195 119.968 216.195L78.6064 216.185L78.8208 208.344Z" fill="#ED6966"/>
<path d="M102.573 208.09C104.667 208.09 106.363 209.41 106.363 211.038V213.249C106.363 214.877 104.667 216.195 102.573 216.195H76.5276V215.693H76.6365L83.2562 215.205L84.5963 211.123C84.5963 211.123 82.0133 208.867 81.8442 208.81C81.675 208.753 76.6381 208.575 76.6381 208.575H76.5293V208.09H102.573Z" fill="#B75742"/>
<path d="M78.2179 212.128C78.2179 209.741 76.6316 208.585 76.6316 208.585H102.035C103.958 208.585 105.516 209.797 105.516 211.292V212.994C105.516 214.488 103.958 215.701 102.035 215.701H76.6316C76.6316 215.701 78.2179 215.133 78.2179 212.128Z" fill="#FAE0B2"/>
<g style="mix-blend-mode:multiply">
<path d="M105.516 211.292V212.994C105.516 213.214 105.482 213.433 105.414 213.642C104.558 212.013 102.916 210.443 99.789 209.939C92.4909 208.766 76.6316 208.585 76.6316 208.585H102.035C103.958 208.592 105.516 209.797 105.516 211.292Z" fill="#DAEEF7"/>
</g>
<path d="M232.37 212.692L228.448 211.949L211.419 301.813L215.341 302.557L232.37 212.692Z" fill="#184655"/>
<path d="M345.435 302.981H350.152L332.574 211.949L328.651 212.693L345.435 302.981Z" fill="#184655"/>
<path d="M259.075 302.981H263.792L246.214 211.949L242.291 212.693L259.075 302.981Z" fill="#184655"/>
<path d="M302.457 302.981L298.626 303.026L315.481 212.358L319.402 213.1L302.457 302.981Z" fill="#184655"/>
<path d="M285.347 89.3511C300.876 91.0127 320.973 92.7681 341.147 127.004C363.198 164.425 351.591 220.319 334.187 235.852C316.784 251.385 259.941 270.562 212.159 241.852C212.159 241.852 183.308 224.452 198.115 195.574C220.901 151.138 217.682 141.869 227.866 124.453C238.05 107.038 252.383 85.8201 285.347 89.3511Z" fill="#FAE0B2"/>
<path d="M341.147 127.004C327.378 103.637 313.645 95.4029 301.375 91.9958C306.12 96.9071 310.931 103.219 315.749 111.398C337.799 148.818 326.191 204.713 308.787 220.245C293.353 234.019 246.904 250.656 203.26 234.222C207.747 239.188 212.156 241.847 212.156 241.847C259.938 270.559 316.78 251.381 334.184 235.848C351.588 220.316 363.198 164.425 341.147 127.004Z" fill="#F7CC7F"/>
<path d="M69.9094 115.872C69.4689 119.344 73.0836 122.098 76.2981 121.882C79.8525 121.641 82.8676 118.726 83.3868 115.234C83.9496 111.453 81.6783 108.43 78.1641 108.153C74.7436 107.884 72.556 110.929 73.5426 114.001C74.2512 116.204 76.2629 117.024 77.2746 116.418C78.0652 115.944 78.0166 114.743 77.0619 114.539C76.875 114.507 76.6831 114.53 76.509 114.605C76.3349 114.68 76.1861 114.804 76.0803 114.961C75.2428 114.626 74.4471 113.105 74.9865 111.462C75.6766 109.359 78.3366 109.24 79.9831 110.22C82.082 111.467 82.412 114.152 81.6431 116.292C80.8341 118.539 78.628 120.313 76.2244 120.48C74.9097 120.563 73.6151 120.127 72.6181 119.266C71.621 118.405 71.001 117.188 70.891 115.875C70.8912 115.811 70.8788 115.747 70.8543 115.687C70.8298 115.628 70.7939 115.574 70.7485 115.528C70.703 115.482 70.6491 115.446 70.5896 115.421C70.5301 115.396 70.4664 115.383 70.4019 115.383C70.3375 115.383 70.2736 115.395 70.214 115.42C70.1543 115.444 70.1001 115.48 70.0544 115.525C70.0086 115.571 69.9723 115.625 69.9474 115.684C69.9226 115.744 69.9097 115.808 69.9094 115.872Z" fill="#F48C7F"/>
<path d="M309.183 0.000853583C293.102 -0.0946238 280.037 7.83167 279.975 17.7044C279.945 22.6407 283.176 27.1298 288.424 30.3962L281.814 44.9154L295.608 33.6792C299.929 35.0509 304.436 35.7509 308.97 35.7546C325.05 35.8501 338.116 27.9238 338.179 18.0494C338.243 8.17506 325.255 0.0963309 309.183 0.000853583Z" fill="#FAE0B2"/>
<path d="M298.05 19.5788C298.562 21.5182 299.637 23.2624 301.141 24.5907C302.644 25.919 304.507 26.7718 306.494 27.0412C308.482 27.3107 310.505 26.9847 312.307 26.1045C314.11 25.2243 315.611 23.8294 316.621 22.0962C317.63 20.363 318.103 18.3693 317.98 16.3673C317.857 14.3652 317.143 12.4446 315.928 10.8485C314.713 9.25226 313.052 8.05212 311.155 7.39976C309.259 6.74741 307.211 6.67214 305.271 7.18348C303.983 7.52268 302.774 8.11246 301.714 8.91911C300.654 9.72576 299.763 10.7335 299.092 11.8846C298.421 13.0358 297.984 14.3078 297.805 15.628C297.627 16.9482 297.71 18.2907 298.05 19.5788Z" fill="#F7CC7F"/>
<path d="M313.507 17.1648C313.689 17.8533 313.733 18.5708 313.638 19.2764C313.542 19.982 313.308 20.6618 312.95 21.2771C312.591 21.8923 312.115 22.4309 311.548 22.8622C310.982 23.2934 310.336 23.6088 309.647 23.7904C308.959 23.972 308.241 24.0162 307.536 23.9205C306.83 23.8248 306.15 23.591 305.535 23.2326C304.92 22.8741 304.381 22.398 303.95 21.8314C303.519 21.2648 303.203 20.6188 303.022 19.9303L313.507 17.1648Z" fill="#EFEFEF"/>
<path d="M168.96 125.842L213.335 125.507C213.82 125.501 214.283 125.304 214.624 124.959C214.965 124.615 215.156 124.149 215.156 123.664L214.933 93.9975C214.927 93.5126 214.731 93.0496 214.386 92.7087C214.041 92.3679 213.575 92.1767 213.09 92.1768L168.715 92.5118C168.23 92.5175 167.767 92.7142 167.426 93.0591C167.086 93.404 166.894 93.8694 166.894 94.3543L167.117 124.021C167.123 124.506 167.32 124.969 167.665 125.31C168.009 125.651 168.475 125.842 168.96 125.842Z" fill="#ED6966"/>
<path d="M214.017 108.351L228.343 93.7514L210.668 97.0496L214.017 108.351Z" fill="#ED6966"/>
<path d="M200.648 106.616L196.337 106.539C196.337 106.539 190.903 102.482 190.735 101.048C190.568 99.6141 191.461 96.5789 190.618 96.1903C189.776 95.8017 187.99 95.5085 186.863 97.408C186.044 98.7866 186.725 103.817 186.219 104.153C185.901 104.364 183.422 104.39 181.611 104.38C181.027 104.376 180.452 104.532 179.95 104.832C179.448 105.132 179.038 105.563 178.764 106.08C178.579 106.426 178.519 106.826 178.594 107.211C178.669 107.597 178.875 107.944 179.178 108.195L180.141 108.999L179.384 110.004C179.113 110.365 178.997 110.818 179.06 111.264C179.122 111.71 179.359 112.113 179.719 112.385L180.477 112.962L179.958 113.555C179.801 113.735 179.684 113.946 179.613 114.174C179.543 114.402 179.522 114.642 179.55 114.879C179.578 115.116 179.656 115.344 179.778 115.549C179.901 115.754 180.065 115.931 180.26 116.068L180.93 116.542L180.829 116.728C180.626 117.103 180.57 117.54 180.673 117.953C180.776 118.367 181.03 118.727 181.385 118.962L182.064 119.411L193.548 119.614C194.623 119.634 195.692 119.433 196.687 119.024L200.739 118.428C200.949 118.397 201.142 118.292 201.281 118.13C201.421 117.969 201.497 117.763 201.497 117.55L201.524 107.5C201.523 107.268 201.43 107.045 201.266 106.88C201.103 106.714 200.881 106.62 200.648 106.616Z" fill="white"/>
<path d="M235.489 146.225L231.497 158.2L243.663 153.416L235.489 146.225Z" fill="#F79C8D"/>
<path d="M248.03 110.592C247.219 110.626 244.997 111.366 241.747 117.487C237.598 125.303 231.529 148.914 231.529 148.914L249.642 155.633L251.966 150.705L255.797 112.765C255.797 112.765 248.255 110.582 248.03 110.592Z" fill="#042A44"/>
<path d="M271.961 107.189C266.784 107.189 253.975 108.696 248.03 110.594C248.03 110.594 243.663 148.004 251.961 176.423C253.821 182.788 250.425 202.803 250.425 202.803L304.07 202.098C304.07 202.098 297.715 153.708 300.109 145.892C302.502 138.076 302.559 110.837 302.559 110.837C302.559 110.837 302.193 110.78 290.499 108.766C285.057 107.837 277.489 107.182 271.961 107.189Z" fill="#07345A"/>
<path d="M278.213 272.244C278.213 272.244 277.025 285.895 274.844 289.676C272.663 293.456 274.958 299.882 275.074 300.765C275.189 301.647 279.667 302.907 286.787 302.15C293.908 301.393 293.792 299.756 293.218 297.11C292.643 294.463 288.854 291.061 288.625 288.542C288.395 286.023 290.802 276.949 290.802 276.949L278.213 272.244Z" fill="#F7A491"/>
<path d="M256.477 191.543C256.477 191.543 219.447 189.495 211.178 194.485C202.908 199.475 212.673 209.728 212.673 209.728C212.673 209.728 242.824 222.793 293.291 225.693C305.243 226.381 306.273 194.636 304.038 192.009C301.804 189.383 256.477 191.543 256.477 191.543Z" fill="#3662C1"/>
<path d="M287.675 303.214C295.007 302.435 294.1 298.845 293.509 296.12C293.139 294.415 291.035 292.403 289.782 290.5C289.127 291.021 288.06 291.939 284.876 292.877C281.569 293.85 277.037 291.924 274.156 290.716C273.127 294.535 273.08 299.405 273.176 300.143C273.288 301.054 280.343 303.992 287.675 303.214Z" fill="#355389"/>
<path d="M283.628 217.945C282.149 229.103 274.824 284.647 274.824 284.647L291.821 286.746C291.821 286.746 312.722 214.249 311.65 203.162C310.578 192.074 302.754 191.141 302.754 191.141C302.754 191.141 287.544 188.411 283.628 217.945Z" fill="#6D89CF"/>
<path d="M267.345 59.9908C267.345 59.9908 272.993 54.036 277.536 61.2789C277.536 61.2789 281.033 59.3141 283.489 62.8132C283.489 62.8132 289.812 60.9104 291.347 70.3643C291.347 70.3643 294.6 69.7496 295.032 73.6172C295.464 77.4849 293.497 80.0628 293.497 80.0628C293.497 80.0628 295.325 81.433 294.502 84.9874C293.796 88.0025 291.295 88.4715 291.295 88.4715C291.295 88.4715 290.625 93.5653 288.41 95.1013C286.196 96.6373 283.193 95.8986 283.193 95.8986C283.193 95.8986 282.395 98.6608 279.816 98.4112C277.236 98.1616 274.047 95.711 271.161 96.8166C268.275 97.9221 260.787 96.7546 260.787 96.7546C260.787 96.7546 252.379 93.0109 254.894 84.4162C254.894 84.4162 250.476 80.4263 254.343 75.639C254.343 75.639 251.519 68.1499 257.105 63.7311C262.692 59.3124 267.345 59.9908 267.345 59.9908Z" fill="#07345A"/>
<path d="M268.3 100.413L267.278 107.998C267.278 107.998 264.988 118.924 267.933 121.029C270.878 123.135 280.462 107.686 280.462 107.686L279.457 88.4683L268.3 100.413Z" fill="#F7A491"/>
<path d="M279.777 94.6894C277.343 101.244 271.548 105.274 267.434 106.837L268.3 100.406L279.457 88.4683L279.777 94.6894Z" fill="#ED6966"/>
<path d="M272.641 68.2789C266.663 66.2203 260.29 70.1918 259.378 76.3559C258.897 79.578 258.623 82.8275 258.556 86.0846C258.388 94.9439 262.98 103.564 267.003 103.564C271.027 103.564 282.142 97.83 282.544 85.2554C282.792 77.4916 278.916 70.438 272.641 68.2789Z" fill="#F7A491"/>
<path d="M279.579 86.2489C279.579 88.2036 280.876 89.7866 282.474 89.7866C284.072 89.7866 285.367 88.2036 285.367 86.2489C285.367 84.2941 284.07 82.7112 282.474 82.7112C280.878 82.7112 279.579 84.3041 279.579 86.2489Z" fill="#F7A491"/>
<path d="M255.216 63.8685C251.06 67.1599 249.605 72.1599 251.963 75.0377C254.322 77.9154 259.603 77.5804 263.757 74.2889C267.911 70.9975 269.368 65.9975 267.01 63.1181C264.652 60.2387 259.37 60.5804 255.216 63.8685Z" fill="#07345A"/>
<path d="M303.144 115.004C298.129 113.128 295.675 158.167 294.998 176.706C286.121 177.557 270.635 176.706 266.78 176.423C264.966 176.287 260.787 174.761 258.983 174.527C257.141 174.286 255.466 174.16 254.553 174.318C254.218 174.376 244.961 178.148 244.167 178.976C243.186 180.003 240.529 182.591 240.985 183.71C241.44 184.828 246.092 180.591 246.092 180.591L248.368 179.318C245.534 182.078 240.127 185.711 240.906 187.035C241.667 188.326 246.543 184.638 250.018 182.125C247.037 184.805 243.333 189.609 244.188 190.358C244.953 191.028 249.166 185.472 253.668 183.87C255.343 183.277 257 184.921 258.313 185.118C259.276 185.264 260.765 185.576 261.712 185.308L266.588 183.931C268.248 184.08 268.29 185.058 269.966 185.415C271.913 185.827 275.107 186.262 277.586 186.865C291.863 190.343 296.625 191.956 300.995 191.954C314.229 191.946 314.998 119.435 303.144 115.004Z" fill="#F7A491"/>
<path d="M312.663 157.287C313.603 138.299 313.464 114.894 302.78 110.901C298.566 109.324 291.137 118.798 292.472 157.673C298.177 158.142 306.549 158.52 312.663 157.287Z" fill="#07345A"/>
<path d="M252.906 149.128H253.995L270.363 189.214L269.236 189.043L252.906 149.128Z" fill="#F79C8D"/>
<path d="M228.511 283.924C228.511 283.924 229.993 288.663 227.338 291.797C224.683 294.931 213.646 298.006 212.199 299.703C210.752 301.4 210.859 302.845 210.859 302.845L241.831 301.996L241.496 292.674L240.069 285.974L228.511 283.924Z" fill="#F7A491"/>
<path d="M225.41 293.359C225.41 293.359 233.368 296.567 237.213 294.668C241.057 292.768 240.941 292.242 242.054 292.951C243.166 293.659 243.561 302.398 243.561 302.398L208.735 303.418C206.312 303.363 205.085 301.584 207.06 300.068C208.41 299.023 209.97 298.324 210.858 297.818C213.58 296.254 225.41 293.359 225.41 293.359Z" fill="#355389"/>
<path d="M229.683 200.29C227.29 195.265 221.846 188.733 212.263 192.671C203.127 196.426 200.675 205.654 203.553 215.103C206.43 224.552 225.412 280.103 226.074 287.739L241.224 287.84C241.224 287.84 238.471 243.855 237.796 233.223C237.154 222.997 233.827 208.981 229.683 200.29Z" fill="#6D89CF"/>
<path d="M205.085 149.128H255.734C256.389 149.128 257.029 149.323 257.573 149.688C258.117 150.053 258.541 150.572 258.789 151.178L274.383 189.214H302.306C302.681 189.214 303.04 189.362 303.305 189.627C303.571 189.892 303.72 190.251 303.72 190.626C303.72 191.001 303.571 191.36 303.306 191.625C303.041 191.89 302.681 192.039 302.306 192.039H222.841C221.771 192.039 220.725 191.73 219.827 191.148C218.929 190.567 218.218 189.739 217.78 188.763L202.07 153.783C201.845 153.28 201.749 152.728 201.791 152.179C201.833 151.629 202.012 151.098 202.312 150.636C202.612 150.173 203.022 149.792 203.507 149.529C203.991 149.266 204.534 149.128 205.085 149.128Z" fill="#ED6966"/>
<path d="M232.355 171.277C232.69 172.986 234.188 174.125 235.685 173.828C237.182 173.532 238.115 171.902 237.774 170.193C237.432 168.485 235.941 167.346 234.445 167.642C232.95 167.939 232.013 169.564 232.355 171.277Z" fill="white"/>
<path opacity="0.3" d="M374.75 95.3242C388.562 95.3242 399.759 84.1043 399.759 70.2639C399.759 56.4235 388.562 45.2036 374.75 45.2036C360.939 45.2036 349.742 56.4235 349.742 70.2639C349.742 84.1043 360.939 95.3242 374.75 95.3242Z" fill="#9BC1F9"/>
<path d="M357.074 69.7712H347.854V70.4815H357.074V69.7712Z" fill="#184655"/>
<path d="M401.703 69.7712H392.484V70.4815H401.703V69.7712Z" fill="#184655"/>
<path d="M375.065 43.5015H374.357V52.741H375.065V43.5015Z" fill="#184655"/>
<path d="M375.065 88.0442H374.357V97.2837H375.065V88.0442Z" fill="#184655"/>
<path d="M375.512 70.2636C375.512 70.4147 375.468 70.5625 375.384 70.6881C375.3 70.8137 375.18 70.9117 375.041 70.9694C374.901 71.0272 374.747 71.0422 374.599 71.0126C374.451 70.983 374.315 70.9101 374.208 70.8031C374.101 70.6961 374.029 70.5598 373.999 70.4116C373.97 70.2633 373.985 70.1097 374.043 69.9701C374.102 69.8306 374.2 69.7114 374.326 69.6277C374.451 69.5439 374.599 69.4994 374.75 69.4998C374.953 69.5002 375.146 69.5809 375.289 69.7241C375.432 69.8673 375.512 70.0613 375.512 70.2636Z" fill="#184655"/>
<path d="M374.75 70.6054C374.706 70.6059 374.661 70.5974 374.62 70.5804C374.578 70.5635 374.541 70.5383 374.509 70.5066L360.796 56.7713C360.764 56.7396 360.739 56.702 360.721 56.6605C360.704 56.6191 360.695 56.5747 360.695 56.5298C360.695 56.4849 360.704 56.4405 360.721 56.399C360.738 56.3575 360.763 56.3198 360.795 56.288C360.826 56.2562 360.864 56.231 360.905 56.2137C360.947 56.1965 360.991 56.1876 361.036 56.1875C361.081 56.1874 361.126 56.1962 361.167 56.2133C361.208 56.2304 361.246 56.2555 361.278 56.2872L374.992 70.0225C375.055 70.0871 375.091 70.174 375.091 70.2646C375.091 70.3551 375.055 70.442 374.992 70.5066C374.96 70.5383 374.922 70.5635 374.881 70.5804C374.84 70.5974 374.795 70.6059 374.75 70.6054Z" fill="#184655"/>
<path d="M379.159 84.1515C379.13 84.1369 379.104 84.1166 379.083 84.0919C379.061 84.0672 379.045 84.0385 379.035 84.0074L374.6 70.592C374.589 70.5611 374.585 70.5285 374.587 70.496C374.59 70.4635 374.598 70.4317 374.613 70.4026C374.627 70.3734 374.648 70.3474 374.672 70.326C374.697 70.3046 374.725 70.2883 374.756 70.278C374.787 70.2676 374.82 70.2635 374.852 70.2657C374.885 70.268 374.917 70.2767 374.946 70.2912C374.975 70.3058 375.001 70.3259 375.022 70.3505C375.044 70.3751 375.06 70.4037 375.07 70.4346L379.502 83.8517C379.518 83.8982 379.519 83.9484 379.506 83.9957C379.493 84.0431 379.467 84.0855 379.429 84.1176C379.392 84.1497 379.346 84.1701 379.298 84.1761C379.249 84.1822 379.2 84.1736 379.156 84.1515H379.159Z" fill="#184655"/>
<path d="M414.608 126.792L416.841 123.165L415.048 122.438C414.954 122.4 414.869 122.344 414.797 122.273C414.725 122.202 414.667 122.117 414.628 122.024C414.589 121.93 414.568 121.83 414.568 121.729C414.568 121.627 414.588 121.527 414.626 121.433C414.664 121.339 414.72 121.254 414.792 121.181C414.863 121.109 414.947 121.052 415.041 121.013C415.134 120.973 415.235 120.953 415.336 120.953C415.437 120.952 415.538 120.972 415.631 121.011L417.698 121.849L419.693 118.592L417.779 117.815C417.685 117.777 417.599 117.721 417.527 117.65C417.454 117.579 417.397 117.494 417.358 117.401C417.318 117.307 417.298 117.207 417.298 117.106C417.298 117.004 417.318 116.904 417.357 116.81C417.395 116.716 417.451 116.63 417.522 116.558C417.593 116.486 417.678 116.429 417.771 116.389C417.865 116.35 417.965 116.33 418.066 116.33C418.168 116.329 418.268 116.349 418.362 116.388L420.551 117.276L422.869 113.547C422.964 113.394 423.111 113.279 423.282 113.223C423.454 113.167 423.64 113.174 423.807 113.242L424.142 113.378C424.245 113.42 424.338 113.483 424.414 113.565C424.49 113.646 424.548 113.743 424.583 113.848C424.617 113.954 424.629 114.066 424.616 114.177C424.603 114.287 424.566 114.394 424.507 114.488L422.352 118.006L425.521 119.313L427.839 115.584C427.935 115.431 428.081 115.316 428.253 115.26C428.425 115.204 428.611 115.21 428.779 115.277L429.142 115.426C429.245 115.468 429.338 115.532 429.414 115.613C429.49 115.694 429.548 115.791 429.583 115.897C429.617 116.003 429.629 116.115 429.616 116.225C429.603 116.336 429.566 116.442 429.507 116.537L427.353 120.055L429.146 120.782C429.24 120.819 429.325 120.876 429.397 120.947C429.47 121.018 429.527 121.103 429.566 121.196C429.605 121.29 429.626 121.39 429.626 121.491C429.626 121.593 429.607 121.693 429.568 121.787C429.53 121.881 429.474 121.966 429.403 122.038C429.331 122.111 429.247 122.168 429.153 122.207C429.06 122.246 428.96 122.267 428.858 122.267C428.757 122.267 428.656 122.247 428.563 122.209L426.496 121.371L424.531 124.639L426.445 125.415C426.54 125.453 426.625 125.509 426.697 125.58C426.769 125.651 426.827 125.736 426.866 125.829C426.905 125.923 426.926 126.023 426.926 126.124C426.926 126.226 426.906 126.326 426.868 126.42C426.83 126.514 426.774 126.6 426.703 126.672C426.632 126.744 426.547 126.802 426.453 126.841C426.36 126.88 426.259 126.901 426.158 126.901C426.057 126.901 425.956 126.881 425.863 126.842L423.673 125.954L421.305 129.807C421.21 129.961 421.063 130.076 420.891 130.133C420.719 130.189 420.533 130.183 420.365 130.115L419.973 129.947C419.87 129.906 419.777 129.842 419.701 129.761C419.625 129.679 419.568 129.582 419.533 129.477C419.498 129.371 419.487 129.259 419.501 129.148C419.514 129.038 419.551 128.931 419.61 128.837L421.841 125.21L418.667 123.924L416.308 127.753C416.213 127.907 416.066 128.023 415.894 128.079C415.722 128.136 415.535 128.129 415.367 128.061L414.976 127.904C414.873 127.862 414.78 127.799 414.703 127.717C414.627 127.636 414.569 127.539 414.534 127.433C414.499 127.327 414.488 127.215 414.5 127.104C414.513 126.993 414.55 126.887 414.608 126.792ZM422.697 123.887L424.693 120.631L421.519 119.343L419.523 122.599L422.697 123.887Z" fill="#07345A"/>
<path d="M218.784 28.17L221.065 23.0192L218.115 18.2186C218.041 18.0954 218.002 17.9539 218.004 17.81C218.005 17.6661 218.047 17.5254 218.124 17.4037C218.201 17.2821 218.31 17.1842 218.439 17.121C218.568 17.0578 218.713 17.0319 218.856 17.046L224.459 17.6256L228.114 13.3358C228.208 13.2281 228.33 13.1485 228.466 13.1057C228.602 13.0629 228.748 13.0586 228.886 13.0932C229.025 13.1279 229.151 13.2002 229.251 13.3021C229.352 13.404 229.422 13.5316 229.454 13.6708L230.626 19.18L235.834 21.3291C235.968 21.3845 236.083 21.4761 236.167 21.5936C236.251 21.7111 236.301 21.8498 236.311 21.994C236.32 22.1382 236.289 22.2822 236.221 22.4098C236.153 22.5374 236.051 22.6435 235.926 22.716L231.054 25.5418L230.618 31.1583C230.607 31.3023 230.555 31.4403 230.47 31.5567C230.384 31.6732 230.268 31.7634 230.134 31.8172C230 31.871 229.853 31.8863 229.711 31.8613C229.568 31.8363 229.436 31.7721 229.328 31.6758L225.141 27.912L219.665 29.2353C219.525 29.2666 219.38 29.2586 219.244 29.2123C219.109 29.166 218.989 29.0831 218.898 28.9728C218.807 28.8625 218.748 28.7291 218.727 28.5875C218.707 28.4458 218.727 28.3013 218.784 28.17Z" fill="#F48C7F"/>
<path d="M384.114 28.165L385.822 24.3007L383.61 20.6993C383.553 20.6071 383.523 20.5007 383.523 20.3922C383.524 20.2838 383.554 20.1777 383.612 20.0859C383.67 19.9941 383.752 19.9203 383.85 19.873C383.947 19.8257 384.056 19.8067 384.164 19.8182L388.368 20.2521L391.109 17.036C391.179 16.9551 391.271 16.8953 391.374 16.8633C391.476 16.8313 391.585 16.8283 391.69 16.8547C391.794 16.8811 391.888 16.9358 391.963 17.0127C392.038 17.0897 392.09 17.1858 392.114 17.2906L393 21.4229L396.906 23.036C397.007 23.077 397.093 23.1454 397.157 23.2333C397.22 23.3212 397.258 23.4252 397.265 23.5333C397.272 23.6415 397.249 23.7496 397.198 23.8452C397.147 23.9409 397.07 24.0204 396.977 24.0745L393.32 26.1951L392.993 30.4079C392.985 30.5157 392.946 30.619 392.882 30.7061C392.818 30.7932 392.73 30.8606 392.63 30.9008C392.529 30.9411 392.42 30.9524 392.313 30.9337C392.207 30.915 392.107 30.8669 392.027 30.7948L388.881 27.9724L384.772 28.964C384.667 28.9877 384.558 28.9818 384.457 28.9471C384.355 28.9124 384.265 28.8501 384.197 28.7672C384.129 28.6844 384.085 28.5842 384.07 28.4779C384.055 28.3715 384.071 28.2632 384.114 28.165Z" fill="#F7CC7F"/>
<path d="M367.121 138.562L366.849 135.363L364.059 133.771C363.987 133.73 363.929 133.67 363.89 133.597C363.851 133.525 363.833 133.443 363.838 133.361C363.843 133.279 363.871 133.2 363.918 133.132C363.966 133.065 364.031 133.013 364.107 132.981L367.067 131.733L367.717 128.587C367.734 128.506 367.773 128.432 367.83 128.373C367.887 128.313 367.959 128.271 368.039 128.25C368.119 128.23 368.203 128.232 368.281 128.256C368.36 128.281 368.43 128.327 368.484 128.389L370.584 130.818L373.777 130.466C373.859 130.457 373.943 130.471 374.018 130.506C374.093 130.542 374.156 130.598 374.2 130.668C374.245 130.738 374.268 130.819 374.269 130.902C374.269 130.985 374.246 131.066 374.203 131.136L372.541 133.885L373.864 136.811C373.898 136.887 373.91 136.97 373.9 137.051C373.889 137.133 373.856 137.21 373.803 137.274C373.751 137.338 373.682 137.386 373.604 137.412C373.526 137.439 373.442 137.443 373.362 137.425L370.233 136.693L367.858 138.855C367.796 138.91 367.721 138.947 367.639 138.962C367.558 138.976 367.475 138.968 367.398 138.938C367.321 138.907 367.255 138.856 367.206 138.789C367.157 138.723 367.127 138.644 367.121 138.562Z" fill="#F48C7F"/>
<path d="M111.058 91.5069L112.315 88.6727L110.692 86.0329C110.65 85.965 110.628 85.8869 110.629 85.8073C110.629 85.7277 110.652 85.6499 110.694 85.5825C110.736 85.5151 110.797 85.4608 110.868 85.4259C110.94 85.3909 111.02 85.3766 111.099 85.3846L114.181 85.7045L116.191 83.3444C116.242 83.2838 116.31 83.2389 116.386 83.2147C116.461 83.1905 116.542 83.1881 116.619 83.2076C116.697 83.2272 116.767 83.2679 116.822 83.3252C116.877 83.3826 116.915 83.4542 116.931 83.532L117.581 86.5622L120.447 87.7447C120.52 87.7755 120.583 87.826 120.629 87.8906C120.675 87.9551 120.702 88.0312 120.708 88.1103C120.713 88.1894 120.696 88.2684 120.659 88.3384C120.622 88.4085 120.566 88.4668 120.497 88.5069L117.817 90.0613L117.578 93.1518C117.572 93.2309 117.543 93.3067 117.496 93.3707C117.449 93.4346 117.385 93.4841 117.311 93.5135C117.238 93.543 117.157 93.5512 117.079 93.5373C117.001 93.5234 116.928 93.4879 116.869 93.4349L114.563 91.3662L111.548 92.0932C111.47 92.1112 111.39 92.1075 111.315 92.0824C111.24 92.0573 111.173 92.0117 111.122 91.9509C111.071 91.8901 111.039 91.8163 111.027 91.7379C111.016 91.6595 111.027 91.5795 111.058 91.5069Z" fill="#F7CC7F"/>
<path d="M145.549 136.836L146.804 134.003L145.182 131.362C145.141 131.294 145.119 131.216 145.119 131.137C145.119 131.057 145.142 130.98 145.184 130.912C145.226 130.845 145.286 130.791 145.358 130.756C145.429 130.721 145.509 130.707 145.588 130.715L148.671 131.033L150.681 128.675C150.733 128.614 150.8 128.569 150.876 128.545C150.952 128.521 151.033 128.519 151.11 128.538C151.187 128.558 151.257 128.598 151.312 128.656C151.367 128.713 151.405 128.785 151.422 128.863L152.072 131.893L154.936 133.075C155.01 133.106 155.073 133.156 155.12 133.22C155.166 133.285 155.193 133.361 155.199 133.441C155.204 133.52 155.187 133.599 155.149 133.669C155.112 133.74 155.055 133.798 154.986 133.837L152.306 135.392L152.067 138.481C152.061 138.56 152.033 138.636 151.986 138.7C151.939 138.764 151.875 138.814 151.801 138.844C151.727 138.873 151.647 138.882 151.568 138.868C151.49 138.854 151.417 138.819 151.358 138.765L149.05 136.697L146.035 137.424C145.958 137.441 145.877 137.437 145.802 137.411C145.728 137.386 145.661 137.34 145.611 137.279C145.561 137.218 145.528 137.145 145.517 137.066C145.506 136.988 145.517 136.908 145.549 136.836Z" fill="#3662C1"/>
<path d="M159.849 40.4766L164.824 39.7547L166.869 47.6307L174.273 47.4733L176.767 53.1182L179.625 51.8552L176.288 44.3058L169.271 44.4565L167.144 36.2622L159.658 37.3476L159.849 40.4766Z" fill="#3662C1"/>
<path d="M149.182 172.413L152.946 169.081L158.976 174.547L165.08 170.354L170.261 173.708L171.958 171.085L165.03 166.601L159.244 170.574L152.971 164.889L147.306 169.9L149.182 172.413Z" fill="#07345A"/>
<path d="M90.0519 176.533L93.2111 171.406L90.6801 170.373C90.5481 170.319 90.4278 170.24 90.3263 170.14C90.2248 170.041 90.144 169.922 90.0884 169.791C90.0329 169.659 90.0037 169.519 90.0027 169.376C90.0016 169.234 90.0286 169.093 90.0821 168.961C90.1355 168.829 90.2144 168.708 90.3143 168.607C90.4141 168.505 90.533 168.424 90.6642 168.369C90.7953 168.313 90.9361 168.284 91.0785 168.283C91.221 168.282 91.3622 168.309 91.4942 168.363L94.4205 169.549L97.2446 164.94L94.5327 163.842C94.4005 163.788 94.2801 163.71 94.1785 163.61C94.0769 163.51 93.9959 163.391 93.9404 163.26C93.8848 163.129 93.8557 162.988 93.8547 162.845C93.8538 162.703 93.8809 162.562 93.9347 162.43C93.9881 162.298 94.067 162.177 94.1668 162.076C94.2667 161.974 94.3856 161.893 94.5168 161.838C94.6479 161.782 94.7887 161.753 94.9311 161.752C95.0735 161.751 95.2148 161.778 95.3467 161.832L98.4456 163.088L101.725 157.811C101.86 157.594 102.068 157.432 102.311 157.353C102.555 157.274 102.818 157.283 103.055 157.379L103.528 157.57C103.674 157.63 103.805 157.72 103.913 157.835C104.02 157.95 104.101 158.087 104.151 158.237C104.2 158.387 104.216 158.545 104.198 158.702C104.18 158.858 104.128 159.009 104.045 159.143L100.995 164.121L105.487 165.944L108.767 160.667C108.902 160.45 109.109 160.287 109.352 160.208C109.595 160.128 109.858 160.138 110.095 160.234L110.613 160.443C110.759 160.502 110.89 160.593 110.998 160.708C111.105 160.823 111.186 160.96 111.235 161.11C111.284 161.26 111.3 161.418 111.282 161.575C111.263 161.731 111.211 161.882 111.129 162.016L108.079 166.994L110.616 168.024C110.748 168.078 110.868 168.157 110.97 168.257C111.071 168.357 111.152 168.476 111.207 168.607C111.262 168.738 111.291 168.879 111.292 169.021C111.293 169.163 111.266 169.304 111.213 169.436C111.159 169.568 111.08 169.689 110.981 169.79C110.881 169.892 110.762 169.972 110.631 170.028C110.5 170.083 110.359 170.113 110.216 170.114C110.074 170.115 109.933 170.088 109.801 170.034L106.874 168.848L104.094 173.473L106.804 174.572C107.07 174.68 107.283 174.89 107.395 175.155C107.507 175.42 107.509 175.719 107.4 175.986C107.347 176.118 107.268 176.238 107.168 176.339C107.068 176.44 106.949 176.521 106.818 176.576C106.687 176.632 106.546 176.661 106.404 176.662C106.261 176.663 106.12 176.636 105.988 176.582L102.889 175.326L99.5394 180.768C99.4044 180.988 99.1954 181.153 98.9498 181.233C98.7043 181.313 98.4382 181.303 98.1993 181.205L97.6466 180.981C97.5005 180.921 97.3691 180.831 97.2615 180.716C97.1539 180.6 97.0727 180.463 97.0236 180.313C96.9745 180.163 96.9586 180.004 96.9771 179.848C96.9956 179.691 97.048 179.54 97.1307 179.406L100.29 174.275L95.7973 172.453L92.4473 177.895C92.313 178.114 92.1057 178.277 91.8621 178.357C91.6186 178.437 91.3546 178.427 91.1173 178.331L90.5628 178.108C90.4171 178.048 90.2862 177.957 90.1792 177.842C90.0721 177.726 89.9915 177.589 89.9429 177.439C89.8943 177.289 89.8788 177.131 89.8977 176.974C89.9165 176.818 89.9692 176.667 90.0519 176.533ZM101.501 172.423L104.325 167.815L99.8325 165.992L97.0084 170.6L101.501 172.423Z" fill="#3662C1"/>
<path d="M377.042 241.45C376.722 238.602 376.34 235.709 375.022 233.177C373.42 230.096 370.608 227.875 368.154 225.428C363.543 220.83 360.037 215.245 357.899 209.095C356.26 204.354 355.442 199.304 353.181 194.828C351.801 192.095 349.918 189.651 348.35 187.021C344.645 180.805 342.626 173.453 337.601 168.26C337.137 171.425 337.351 174.653 338.229 177.729C339.107 180.805 340.63 183.659 342.695 186.101C343.933 187.545 345.375 188.847 346.311 190.498C348.023 193.498 347.868 197.157 348.069 200.606C348.452 207.112 350.264 213.453 353.375 219.18C356.673 225.235 361.432 230.627 363.194 237.294C364.516 242.291 364.122 247.895 366.94 252.225C367.244 252.694 367.595 253.165 367.668 253.721C367.695 254.035 367.676 254.351 367.613 254.659C367.552 255.061 367.488 255.464 367.424 255.867C366.784 259.956 366.12 265.158 369.635 268.219C372.07 270.341 375.204 270.396 376.955 267.57C378.705 264.745 378.559 260.582 378.429 257.389C378.211 252.066 377.641 246.735 377.042 241.45Z" fill="#3662C1"/>
<path d="M383.372 238.16C382.005 233.426 379.883 228.917 378.819 224.106C377.789 219.44 377.78 214.616 377.777 209.835C377.777 204.598 377.773 199.36 377.765 194.121C377.765 190.862 377.765 187.589 377.221 184.368C376.062 177.448 372.466 171.049 371.861 164.061C371.598 161.038 371.903 157.982 371.571 154.967C371.382 153.245 370.94 151.487 370.142 149.957C369.948 149.588 369.654 149.28 369.294 149.07C368.934 148.859 368.522 148.753 368.105 148.765C367.688 148.777 367.282 148.905 366.934 149.136C366.587 149.366 366.31 149.69 366.137 150.07C364.39 153.855 363.29 157.942 363.988 162.001C364.412 164.433 365.466 166.701 366.253 169.036C369.755 179.455 367.896 190.989 370.608 201.644C371.425 204.86 372.662 208.009 372.806 211.329C373.151 219.265 367.224 226.513 367.767 234.445C368.213 240.942 372.884 246.319 374.844 252.535C375.943 256.011 376.184 259.721 377.357 263.17C378.27 265.85 380.395 269.106 383.695 268.292C386.827 267.52 385.881 264.964 385.742 262.52C385.258 254.249 385.703 246.232 383.372 238.16Z" fill="#6D89CF"/>
<path d="M390.543 242.498C390.405 240.038 389.99 237.565 390.333 235.128C390.625 233.068 391.444 231.127 392.03 229.132C393.127 225.391 393.399 221.465 393.665 217.574C394.147 210.504 394.63 203.434 395.114 196.363C395.866 185.371 396.621 174.349 398.675 163.532C399.246 160.527 399.886 157.271 398.536 154.527C398.251 153.949 397.69 153.336 397.077 153.522C396.64 153.659 396.425 154.14 396.266 154.572C391.774 166.78 390.077 179.922 385.062 191.926C383.861 194.802 382.464 197.621 381.842 200.683C381.095 204.351 381.507 208.138 381.603 211.879C381.74 217.239 381.218 222.653 379.737 227.81C378.961 230.509 377.923 233.147 377.499 235.922C376.968 239.385 377.414 242.911 377.745 246.396C378.382 253.1 378.598 259.838 378.392 266.569C378.27 270.525 381.61 270.421 383.821 267.991C385.368 266.291 385.353 264.425 385.884 262.309C387.623 255.363 390.965 250.029 390.543 242.498Z" fill="#3662C1"/>
<path d="M369.68 253.225C366.727 248.48 360.844 245.783 358.96 240.52C358.479 239.18 358.29 237.741 357.705 236.445C356.402 233.567 353.439 231.941 350.526 230.617C350.433 230.575 350.33 230.556 350.228 230.564C350.126 230.571 350.027 230.603 349.941 230.658C349.854 230.714 349.783 230.789 349.733 230.879C349.684 230.969 349.657 231.069 349.656 231.172C349.649 231.52 349.728 231.865 349.888 232.175C350.047 232.486 350.28 232.751 350.568 232.949C352.833 234.48 354.498 236.75 355.276 239.371C356.176 242.455 355.779 245.835 356.904 248.847C357.842 251.374 359.775 253.441 360.683 255.981C361.512 258.301 361.425 260.838 361.816 263.272C362.206 265.706 363.288 268.297 365.522 269.321C373.608 273.048 371.584 256.291 369.68 253.225Z" fill="#6D89CF"/>
<path d="M403.321 251.659C403.196 253.952 403.546 256.358 402.651 258.472C402.077 259.825 401.045 260.917 400.196 262.116C397.219 266.329 396.139 272.296 391.564 274.667C391.263 274.823 390.926 274.964 390.591 274.9C390.122 274.813 389.816 274.361 389.626 273.922C388.506 271.309 389.764 268.366 390.509 265.621C390.64 265.14 390.749 264.606 390.519 264.163C390.268 263.678 389.693 263.466 389.301 263.085C388.521 262.326 388.595 261.075 388.749 259.986C389.137 257.286 389.682 254.611 390.382 251.974C390.777 250.48 391.234 248.972 392.097 247.689C393.045 246.276 394.422 245.222 395.71 244.113C401.434 239.172 405.748 232.804 408.214 225.656C408.742 224.115 409.219 222.488 410.306 221.282C411.394 220.076 413.345 219.456 414.675 220.391C415.621 221.061 411.745 227.294 411.293 228.041C410.002 230.178 409.985 232.038 409.254 234.406C407.462 240.225 403.663 245.43 403.321 251.659Z" fill="#3662C1"/>
<path d="M398.812 254.311C399.65 252.123 400.513 249.907 400.791 247.577C401.1 244.986 400.69 242.338 401.126 239.766C401.693 236.461 403.621 233.554 404.574 230.339C405.265 228.018 405.434 225.579 405.848 223.192C407.03 216.368 410.238 209.699 409.318 202.835C409.117 201.343 408.444 199.602 406.961 199.348C405.621 199.116 404.399 200.353 404.05 201.663C403.702 202.972 403.961 204.371 404.05 205.731C404.306 209.561 403.242 213.363 401.035 216.503C398.928 219.487 395.869 221.731 393.973 224.852C391.646 228.681 391.33 233.354 390.144 237.676C387.782 246.269 381.863 253.766 380.782 262.614C380.353 266.132 381.179 270.415 384.429 271.827C393.846 275.889 396.683 259.817 398.812 254.311Z" fill="#6D89CF"/>
<path d="M382.383 265.219H360.817C360.472 265.219 360.132 265.298 359.821 265.449C359.511 265.599 359.238 265.819 359.025 266.09C358.811 266.361 358.661 266.677 358.587 267.014C358.513 267.351 358.516 267.7 358.596 268.036L366.457 301.187C366.576 301.687 366.859 302.133 367.263 302.453C367.666 302.772 368.166 302.946 368.68 302.946H394.586C395.1 302.945 395.599 302.772 396.003 302.452C396.406 302.133 396.689 301.687 396.807 301.187L404.67 268.036C404.75 267.7 404.753 267.351 404.678 267.014C404.604 266.677 404.454 266.361 404.24 266.09C404.026 265.819 403.754 265.599 403.443 265.449C403.133 265.298 402.792 265.219 402.447 265.219H382.383Z" fill="#ED6966"/>
<path d="M166.005 226.418H61.1724V231.832H166.005V226.418Z" fill="#184655"/>
<path d="M131.608 257.827H63.0686V262.564H131.608V257.827Z" fill="#184655"/>
<path d="M155.719 229.125H151.296V302.971H155.719V229.125Z" fill="#184655"/>
<path d="M93.1792 229.125H88.7571V302.971H93.1792V229.125Z" fill="#184655"/>
<path d="M119.842 302.971L143.665 229.76L139.76 228.49L115.526 302.971H119.842Z" fill="#184655"/>
<path d="M52.8341 302.971L73.2093 229.599L69.2528 228.5L48.5728 302.971H52.8341Z" fill="#184655"/>
<path d="M374.75 40.9958C358.62 40.9958 345.543 54.0997 345.543 70.2638C345.543 86.428 358.62 99.5318 374.75 99.5318C390.881 99.5318 403.958 86.428 403.958 70.2638C403.958 54.0997 390.881 40.9958 374.75 40.9958ZM376.317 95.2756C362.533 96.1432 350.657 85.6474 349.791 71.825C348.925 58.0025 359.399 46.1131 373.184 45.2538C386.97 44.3945 398.844 54.8819 399.71 68.6943C400.576 82.5067 390.1 94.4096 376.317 95.2756Z" fill="#184655"/>
<path d="M502.36 302.519H20.8477V305.785H502.36V302.519Z" fill="#042A44"/>
<path d="M263.358 93.733L271.146 93.6057C271.146 93.6057 271.015 96.5655 267.591 96.7213C263.419 96.9089 263.358 93.733 263.358 93.733Z" fill="white"/>
</svg>
