<svg width="1291" height="640" viewBox="0 0 1291 640" fill="none" xmlns="http://www.w3.org/2000/svg">
<path d="M855.807 31.5442C855.807 27.3776 852.432 24.0002 848.266 24.0002C844.099 24.0002 840.722 27.3776 840.722 31.5442C840.722 35.7096 844.099 39.0869 848.266 39.0869C852.432 39.0869 855.807 35.7096 855.807 31.5442Z" fill="#FF9000"/>
<path d="M696.982 183.732C696.982 181.709 695.343 180.071 693.322 180.071C691.301 180.071 689.662 181.709 689.662 183.732C689.662 185.753 691.301 187.392 693.322 187.392C695.343 187.392 696.982 185.753 696.982 183.732Z" fill="#0A3031"/>
<path d="M632.512 83.4328C632.512 80.2528 629.935 77.6768 626.756 77.6768C623.577 77.6768 621 80.2528 621 83.4328C621 86.6114 623.577 89.1874 626.756 89.1874C629.935 89.1874 632.512 86.6114 632.512 83.4328Z" fill="#01A6FF"/>
<path d="M148.548 5.27467C148.548 2.36133 146.187 0 143.275 0C140.361 0 138 2.36133 138 5.27467C138 8.188 140.361 10.5493 143.275 10.5493C146.187 10.5493 148.548 8.188 148.548 5.27467Z" fill="#01A6FF"/>
<path d="M12.612 213.305C12.612 209.823 9.788 207 6.30667 207C2.82267 207 0 209.823 0 213.305C0 216.788 2.82267 219.612 6.30667 219.612C9.788 219.612 12.612 216.788 12.612 213.305Z" fill="#01A6FF"/>
<path d="M976 544.357C976 548.524 979.374 551.901 983.541 551.901C987.708 551.901 991.085 548.524 991.085 544.357C991.085 540.192 987.708 536.814 983.541 536.814C979.374 536.814 976 540.192 976 544.357Z" fill="#FF9000"/>
<path d="M1204.49 353.824C1204.49 357.256 1207.27 360.039 1210.7 360.039C1214.13 360.039 1216.91 357.256 1216.91 353.824C1216.91 350.392 1214.13 347.611 1210.7 347.611C1207.27 347.611 1204.49 350.392 1204.49 353.824Z" fill="#0A3031"/>
<path d="M1145 592.66C1145 594.683 1146.64 596.321 1148.66 596.321C1150.68 596.321 1152.32 594.683 1152.32 592.66C1152.32 590.639 1150.68 589 1148.66 589C1146.64 589 1145 590.639 1145 592.66Z" fill="#0A3031"/>
<path d="M1277.74 633.469C1277.74 636.649 1280.31 639.225 1283.49 639.225C1286.67 639.225 1289.25 636.649 1289.25 633.469C1289.25 630.29 1286.67 627.714 1283.49 627.714C1280.31 627.714 1277.74 630.29 1277.74 633.469Z" fill="#01A6FF"/>
<path d="M1280.26 301.647C1280.26 304.56 1282.62 306.921 1285.53 306.921C1288.45 306.921 1290.81 304.56 1290.81 301.647C1290.81 298.733 1288.45 296.372 1285.53 296.372C1282.62 296.372 1280.26 298.733 1280.26 301.647Z" fill="#01A6FF"/>
<path d="M614 445.307C614 448.789 616.824 451.612 620.306 451.612C623.79 451.612 626.612 448.789 626.612 445.307C626.612 441.824 623.79 439 620.306 439C616.824 439 614 441.824 614 445.307Z" fill="#01A6FF"/>
<path d="M1157 119.599C1157 123.795 1160.4 127.197 1164.6 127.197C1168.79 127.197 1172.2 123.795 1172.2 119.599C1172.2 115.403 1168.79 112 1164.6 112C1160.4 112 1157 115.403 1157 119.599Z" fill="#01A6FF"/>
</svg>
