<svg width="225" height="231" viewBox="0 0 225 231" fill="none" xmlns="http://www.w3.org/2000/svg">
<path d="M1.37988 66.5371C2.00222 69.0084 1.69633 64.4618 2.91463 58.9065C4.13294 53.3513 6.22674 55.6008 6.22674 55.6008" stroke="#333333" stroke-linecap="round" stroke-linejoin="round"/>
<path d="M1 60.8607L4.82369 59.2871" stroke="#333333" stroke-linecap="round" stroke-linejoin="round"/>
<path d="M7.98249 57.4082C7.98249 57.4082 5.69882 62.1608 9.14278 64.1569" stroke="#333333" stroke-linecap="round" stroke-linejoin="round"/>
<path d="M11.2266 56.0781C11.2266 56.0781 15.0028 58.1904 12.64 62.7212" stroke="#333333" stroke-linecap="round" stroke-linejoin="round"/>
<path d="M8.64062 59.0137L11.3462 60.9886" stroke="#333333" stroke-linecap="round" stroke-linejoin="round"/>
<path d="M10.7624 58.1416L8.64746 61.5107" stroke="#333333" stroke-linecap="round" stroke-linejoin="round"/>
<path d="M22.9119 108.716C23.4266 105.576 21.3017 102.613 18.1658 102.098C15.0299 101.583 12.0705 103.71 11.5559 106.85C11.0412 109.99 13.1662 112.953 16.3021 113.468C19.438 113.983 22.3973 111.856 22.9119 108.716Z" stroke="#333333" stroke-linecap="round" stroke-linejoin="round"/>
<path d="M26.3264 116.291C29.779 115.582 32.0039 112.204 31.2958 108.748C30.5877 105.291 27.2148 103.063 23.7622 103.772C20.3096 104.481 18.0848 107.858 18.7929 111.315C19.5009 114.772 22.8738 117 26.3264 116.291Z" stroke="#333333" stroke-linecap="round" stroke-linejoin="round"/>
<path d="M22.481 105.398L19.8281 106.349" stroke="#333333" stroke-linecap="round" stroke-linejoin="round"/>
<path d="M22.8499 106.497L19.042 107.875" stroke="#333333" stroke-linecap="round" stroke-linejoin="round"/>
<path d="M22.9872 107.812L18.7363 109.449" stroke="#333333" stroke-linecap="round" stroke-linejoin="round"/>
<path d="M22.687 109.619L18.8105 111.388" stroke="#333333" stroke-linecap="round" stroke-linejoin="round"/>
<path d="M22.0068 111.001L19.0586 112.226" stroke="#333333" stroke-linecap="round" stroke-linejoin="round"/>
<path d="M20.0122 99.0036C19.8487 98.4756 17.9817 98.1482 17.9026 99.5317C17.8235 100.915 19.8698 99.7641 20.45 99.0036C20.45 99.0036 19.3952 100.424 19.8382 100.704" stroke="#333333" stroke-linecap="round" stroke-linejoin="round"/>
<path d="M30.3484 100.726L28.6924 104.174C28.6924 104.174 29.5204 102.447 30.4065 102.59C31.4982 102.785 30.7704 104.575 29.4518 103.915" stroke="#333333" stroke-linecap="round" stroke-linejoin="round"/>
<path d="M210.568 157.021L213.168 159.488" stroke="#333333" stroke-linecap="round" stroke-linejoin="round"/>
<path d="M213.17 156.378L210.992 159.636" stroke="#333333" stroke-linecap="round" stroke-linejoin="round"/>
<path d="M215.733 157.313L218.334 156.347" stroke="#333333" stroke-linecap="round" stroke-linejoin="round"/>
<path d="M219.582 153.627L221.164 155.032" stroke="#333333" stroke-linecap="round" stroke-linejoin="round"/>
<path d="M222.379 151.942L220.375 158.828" stroke="#333333" stroke-linecap="round" stroke-linejoin="round"/>
<path d="M101.007 118.346L108.006 113.524L117.272 114.174L117.852 125.934L111.049 130.808L102.652 130.195L101.007 118.346Z" stroke="#333333" stroke-linecap="round" stroke-linejoin="round"/>
<path d="M102.651 130.196L109.429 125.312L117.851 125.935" stroke="#333333" stroke-linecap="round" stroke-linejoin="round"/>
<path d="M109.429 125.311L108.005 113.524" stroke="#333333" stroke-linecap="round" stroke-linejoin="round"/>
<path d="M101.007 118.347L110.252 119.419L117.272 114.176" stroke="#333333" stroke-linecap="round" stroke-linejoin="round"/>
<path d="M110.252 119.419L111.048 130.809" stroke="#333333" stroke-linecap="round" stroke-linejoin="round"/>
<path d="M182.692 78.8203L179.591 88.4681L189.242 87.1637L182.692 78.8203Z" stroke="#333333" stroke-linecap="round" stroke-linejoin="round"/>
<path d="M182.69 78.8203L184.415 87.7604" stroke="#333333" stroke-linecap="round" stroke-linejoin="round"/>
<path d="M184.141 86.326L185.269 86.1465L185.533 87.6673" stroke="#333333" stroke-linecap="round" stroke-linejoin="round"/>
<path d="M61.1455 167.103L65.9713 169.474" stroke="#333333" stroke-linecap="round" stroke-linejoin="round"/>
<path d="M64.4107 165.291L63.0342 170.334" stroke="#333333" stroke-linecap="round" stroke-linejoin="round"/>
<path d="M65.0801 162.836C65.1591 162.754 65.2563 162.692 65.3637 162.654C65.4712 162.616 65.5859 162.605 65.6988 162.62C65.8116 162.634 65.9194 162.676 66.0135 162.74C66.1075 162.804 66.1852 162.889 66.2404 162.989C66.7256 163.749 65.7762 165.344 65.7762 165.344L67.7118 164.605" stroke="#333333" stroke-linecap="round" stroke-linejoin="round"/>
<path d="M98.993 1C103.597 3.5928 98.3232 9.92957 98.3232 13.626C98.3232 17.3225 103.597 16.7944 106.234 17.8505C107.289 17.8505 109.399 17.8505 109.341 20.5331" stroke="#333333" stroke-linecap="round" stroke-linejoin="round"/>
<path d="M93.8604 4.36523C94.662 8.73233 99.6618 7.1851 102.731 8.18314C108.005 9.89935 105.078 15.349 103.507 18.6441C102.563 20.6085 101.624 23.365 103.311 25.2291" stroke="#333333" stroke-linecap="round" stroke-linejoin="round"/>
<path d="M94.5352 6.05369L100.025 1.49121" stroke="#333333" stroke-linecap="round" stroke-linejoin="round"/>
<path d="M96.6934 7.42208L100.823 3.98438" stroke="#333333" stroke-linecap="round" stroke-linejoin="round"/>
<path d="M99.1191 10.8914L102.611 8.14551" stroke="#333333" stroke-linecap="round" stroke-linejoin="round"/>
<path d="M98.3955 15.0051L105.225 10.0889" stroke="#333333" stroke-linecap="round" stroke-linejoin="round"/>
<path d="M101.011 16.921L105.768 13.4199" stroke="#333333" stroke-linecap="round" stroke-linejoin="round"/>
<path d="M103.038 24.3525L108.982 19.5049" stroke="#333333" stroke-linecap="round" stroke-linejoin="round"/>
<path d="M103.186 20.5338L107.062 17.8037" stroke="#333333" stroke-linecap="round" stroke-linejoin="round"/>
<path d="M25.5759 169.733C31.2391 167.465 33.9937 161.03 31.7286 155.36C29.4635 149.689 23.0364 146.931 17.3732 149.199C11.71 151.467 8.95537 157.902 11.2205 163.573C13.4856 169.243 19.9127 172.001 25.5759 169.733Z" stroke="#333333" stroke-linecap="round" stroke-linejoin="round"/>
<path d="M24.2547 148.773C28.1048 144.248 31.3799 141.686 32.6404 142.521C34.5602 143.783 31.1162 152.401 24.9509 161.763C18.7855 171.126 12.2299 177.695 10.3101 176.428C9.04433 175.599 10.1097 171.575 12.7467 166.247" stroke="#333333" stroke-linecap="round" stroke-linejoin="round"/>
<path d="M10.6687 161.742C5.29969 160.195 1.87156 158.389 2.08779 156.947C2.39896 154.666 11.676 154.138 22.7568 155.801C33.8376 157.465 42.5503 160.617 42.2181 162.888C41.9807 164.472 37.4714 165.196 31.0634 164.953" stroke="#333333" stroke-linecap="round" stroke-linejoin="round"/>
<path d="M12.076 153.732C8.02556 146.413 6.00032 140.704 7.37158 139.812C9.1753 138.645 16.1476 146.217 22.9459 156.71C29.7441 167.203 33.7893 176.687 31.9909 177.859C30.7989 178.63 27.3444 175.578 23.1726 170.382" stroke="#333333" stroke-linecap="round" stroke-linejoin="round"/>
<path d="M34.1936 147.306C33.9969 147.606 33.7159 147.841 33.3858 147.982C33.0558 148.122 32.6917 148.161 32.3394 148.095C31.9871 148.028 31.6624 147.858 31.4064 147.607C31.1504 147.355 30.9745 147.034 30.9009 146.682C30.8273 146.331 30.8594 145.966 30.993 145.633C31.1267 145.3 31.3559 145.013 31.6518 144.811C31.9477 144.608 32.2969 144.497 32.6554 144.493C33.014 144.489 33.3657 144.591 33.6662 144.787C33.8663 144.918 34.0388 145.086 34.1737 145.284C34.3086 145.481 34.4033 145.703 34.4522 145.937C34.5012 146.171 34.5036 146.412 34.4592 146.647C34.4149 146.882 34.3246 147.106 34.1936 147.306Z" fill="#333333"/>
<path d="M28.1887 175.129C27.9921 175.429 27.711 175.665 27.381 175.805C27.0509 175.945 26.6868 175.985 26.3345 175.918C25.9822 175.851 25.6575 175.681 25.4015 175.43C25.1455 175.179 24.9696 174.857 24.896 174.506C24.8225 174.154 24.8545 173.789 24.9882 173.456C25.1218 173.123 25.351 172.837 25.6469 172.634C25.9428 172.431 26.292 172.321 26.6505 172.317C27.0091 172.312 27.3608 172.415 27.6613 172.61C27.8615 172.741 28.0339 172.91 28.1688 173.107C28.3037 173.304 28.3984 173.526 28.4474 173.76C28.4964 173.994 28.4987 174.236 28.4544 174.471C28.41 174.706 28.3197 174.929 28.1887 175.129Z" fill="#333333"/>
<path d="M18.4934 156.249C18.2967 156.55 18.0157 156.785 17.6856 156.925C17.3556 157.065 16.9915 157.105 16.6392 157.038C16.2869 156.971 15.9622 156.801 15.7062 156.55C15.4502 156.299 15.2743 155.977 15.2007 155.626C15.1271 155.274 15.1592 154.909 15.2928 154.576C15.4265 154.243 15.6557 153.957 15.9516 153.754C16.2475 153.551 16.5967 153.441 16.9552 153.437C17.3138 153.432 17.6655 153.535 17.966 153.731C18.3691 153.995 18.651 154.409 18.7499 154.881C18.8488 155.353 18.7565 155.845 18.4934 156.249Z" fill="#333333"/>
<path d="M134.16 77.2104H140.378L143.485 71.8242L140.378 66.4326H134.16L131.054 71.8242L134.16 77.2104Z" stroke="#333333" stroke-linecap="round" stroke-linejoin="round"/>
<path d="M133.257 89.0288L130.15 83.6426H123.938" stroke="#333333" stroke-linecap="round" stroke-linejoin="round"/>
<path d="M124.772 71.8237H130.985L134.092 66.4322L130.985 61.0459H124.772L121.666 66.4322L124.772 71.8237Z" stroke="#333333" stroke-linecap="round" stroke-linejoin="round"/>
<path d="M134.16 66.4321H140.378L143.485 61.0458L140.378 55.6543H134.16L131.054 61.0458L134.16 66.4321Z" stroke="#333333" stroke-linecap="round" stroke-linejoin="round"/>
<path d="M134.096 67.2663C134.556 67.2663 134.929 66.8928 134.929 66.432C134.929 65.9712 134.556 65.5977 134.096 65.5977C133.636 65.5977 133.263 65.9712 133.263 66.432C133.263 66.8928 133.636 67.2663 134.096 67.2663Z" fill="#333333"/>
<path d="M121.117 55.9597C121.577 55.9597 121.95 55.5862 121.95 55.1254C121.95 54.6646 121.577 54.291 121.117 54.291C120.656 54.291 120.283 54.6646 120.283 55.1254C120.283 55.5862 120.656 55.9597 121.117 55.9597Z" fill="#333333"/>
<path d="M132.425 89.0336C132.425 88.8685 132.474 88.7072 132.565 88.57C132.657 88.4328 132.787 88.3259 132.939 88.2627C133.091 88.1996 133.259 88.1831 133.421 88.2152C133.582 88.2474 133.731 88.3269 133.847 88.4436C133.964 88.5603 134.043 88.7089 134.075 88.8708C134.108 89.0326 134.091 89.2004 134.028 89.3528C133.965 89.5053 133.858 89.6356 133.721 89.7273C133.584 89.819 133.423 89.8679 133.258 89.8679C133.149 89.8679 133.04 89.8463 132.939 89.8044C132.838 89.7625 132.746 89.701 132.669 89.6235C132.591 89.5461 132.53 89.4541 132.488 89.3528C132.446 89.2516 132.425 89.1431 132.425 89.0336Z" fill="#333333"/>
<path d="M123.938 84.4763C124.398 84.4763 124.771 84.1028 124.771 83.642C124.771 83.1812 124.398 82.8076 123.938 82.8076C123.478 82.8076 123.104 83.1812 123.104 83.642C123.104 84.1028 123.478 84.4763 123.938 84.4763Z" fill="#333333"/>
<path d="M149.49 61.2C149.49 61.0337 149.54 60.8711 149.632 60.7329C149.724 60.5948 149.856 60.4871 150.009 60.4238C150.163 60.3604 150.332 60.344 150.494 60.3769C150.657 60.4097 150.807 60.4902 150.924 60.6081C151.041 60.7261 151.12 60.8762 151.152 61.0394C151.184 61.2026 151.166 61.3716 151.102 61.5249C151.038 61.6783 150.929 61.809 150.791 61.9006C150.652 61.9923 150.49 62.0406 150.324 62.0396C150.214 62.0396 150.105 62.0178 150.003 61.9756C149.902 61.9333 149.81 61.8714 149.732 61.7933C149.655 61.7153 149.594 61.6227 149.552 61.5209C149.511 61.419 149.49 61.31 149.49 61.2Z" fill="#333333"/>
<path d="M130.087 84.4763C130.547 84.4763 130.921 84.1028 130.921 83.642C130.921 83.1812 130.547 82.8076 130.087 82.8076C129.627 82.8076 129.254 83.1812 129.254 83.642C129.254 84.1028 129.627 84.4763 130.087 84.4763Z" fill="#333333"/>
<path d="M142.646 61.2C142.646 61.0339 142.695 60.8716 142.787 60.7335C142.879 60.5954 143.01 60.4878 143.163 60.4243C143.316 60.3607 143.485 60.3441 143.648 60.3765C143.81 60.4089 143.96 60.4888 144.077 60.6063C144.194 60.7237 144.274 60.8733 144.307 61.0362C144.339 61.199 144.322 61.3679 144.259 61.5213C144.195 61.6747 144.088 61.8058 143.95 61.8981C143.812 61.9904 143.65 62.0396 143.484 62.0396C143.262 62.0396 143.048 61.9511 142.891 61.7937C142.734 61.6362 142.646 61.4227 142.646 61.2Z" fill="#333333"/>
<path d="M133.258 77.215C133.257 77.0485 133.305 76.8854 133.397 76.7466C133.489 76.6077 133.62 76.4992 133.773 76.435C133.926 76.3708 134.096 76.3538 134.259 76.386C134.422 76.4182 134.572 76.4983 134.689 76.616C134.807 76.7338 134.887 76.8839 134.919 77.0472C134.951 77.2106 134.934 77.3798 134.87 77.5335C134.806 77.6871 134.698 77.8182 134.559 77.91C134.42 78.0019 134.257 78.0504 134.091 78.0493C133.871 78.048 133.659 77.9596 133.503 77.8034C133.347 77.6473 133.259 77.4359 133.258 77.215Z" fill="#333333"/>
<path d="M143.483 61.1895H150.324" stroke="#333333" stroke-linecap="round" stroke-linejoin="round"/>
<path d="M134.095 77.21L130.087 83.6418" stroke="#333333" stroke-linecap="round" stroke-linejoin="round"/>
<path d="M124.771 61.0466L121.116 55.127" stroke="#333333" stroke-linecap="round" stroke-linejoin="round"/>
<path d="M168.836 39.8121C169.553 37.387 171.046 35.2653 173.086 33.7742C175.126 32.2831 177.6 31.5056 180.125 31.5614C182.651 31.6173 185.087 32.5034 187.06 34.0833C189.032 35.6631 190.431 37.8488 191.04 40.3032" stroke="#333333" stroke-linecap="round" stroke-linejoin="round"/>
<path d="M178.55 54.5144C175.744 54.1929 173.154 52.8489 171.274 50.7386C169.394 48.6283 168.355 45.8992 168.355 43.0713" stroke="#333333" stroke-linecap="round" stroke-linejoin="round"/>
<path d="M191.372 43.0713C191.372 46.1249 190.161 49.0535 188.005 51.2132C185.849 53.373 182.925 54.587 179.875 54.5884" stroke="#333333" stroke-linecap="round" stroke-linejoin="round"/>
<path d="M192.026 35.7685C195.623 35.3091 198.033 35.5573 198.408 36.6346C199.151 38.7785 191.456 43.3991 181.219 46.9582C170.983 50.5174 162.085 51.658 161.336 49.5088C160.941 48.3629 162.955 46.5094 166.479 44.4869" stroke="#333333" stroke-linecap="round" stroke-linejoin="round"/>
<path d="M130.089 27.8721L131.191 30.1111L133.654 30.4701L131.871 32.2075L132.293 34.6683L130.089 33.5065L127.884 34.6683L128.306 32.2075L126.523 30.4701L128.986 30.1111L130.089 27.8721Z" stroke="#333333" stroke-linecap="round" stroke-linejoin="round"/>
<path d="M52.2217 21.927C52.2203 23.913 51.4321 25.8173 50.03 27.2221C48.628 28.6269 46.7266 29.4174 44.7431 29.4202C44.5005 29.4202 44.2631 29.4097 44.0311 29.3885C42.5876 29.2514 41.2149 28.6974 40.08 27.7939C38.9451 26.8903 38.0968 25.6762 37.6381 24.2989C37.1795 22.9217 37.1303 21.4407 37.4966 20.036C37.8629 18.6313 38.6288 17.3634 39.7013 16.3863C40.7738 15.4093 42.1066 14.7653 43.5378 14.5325C44.969 14.2997 46.437 14.4882 47.7632 15.0751C49.0894 15.662 50.2168 16.622 51.0083 17.8384C51.7998 19.0548 52.2213 20.4752 52.2217 21.927V21.927Z" stroke="#333333" stroke-linecap="round" stroke-linejoin="round"/>
<path d="M51.0247 23.2785C51.0257 23.5085 50.9586 23.7337 50.8317 23.9254C50.7048 24.1171 50.524 24.2669 50.3121 24.3556C50.1002 24.4443 49.8667 24.4681 49.6413 24.4239C49.4159 24.3796 49.2086 24.2694 49.0458 24.1072C48.883 23.9449 48.772 23.7379 48.7268 23.5124C48.6816 23.2869 48.7043 23.053 48.7919 22.8405C48.8796 22.6279 49.0283 22.4461 49.2192 22.3182C49.4101 22.1903 49.6347 22.1221 49.8644 22.1221C50.1712 22.1221 50.4655 22.2437 50.683 22.4605C50.9004 22.6772 51.0233 22.9713 51.0247 23.2785V23.2785Z" stroke="#333333" stroke-linecap="round" stroke-linejoin="round"/>
<path d="M40.6087 26.2262C40.6091 26.5014 40.5488 26.7734 40.4322 27.0226C40.3155 27.2718 40.1452 27.4921 39.9337 27.6678C38.9502 26.855 38.1927 25.8019 37.7344 24.6103C38.0246 24.4319 38.359 24.3386 38.6995 24.341C38.949 24.3375 39.1967 24.3837 39.4282 24.4769C39.6596 24.57 39.8703 24.7083 40.048 24.8837C40.2256 25.0591 40.3667 25.2682 40.4629 25.4986C40.5592 25.7291 40.6088 25.9764 40.6087 26.2262Z" stroke="#333333" stroke-linecap="round" stroke-linejoin="round"/>
<path d="M49.8632 27.404C48.4802 28.7155 46.6469 29.4452 44.7421 29.4423C44.4995 29.4423 44.2622 29.4318 44.0301 29.4107C43.9876 29.2075 43.9664 29.0004 43.9668 28.7928C43.9671 28.0908 44.2042 27.4095 44.6397 26.8593C45.0752 26.3091 45.6834 25.9223 46.3659 25.7615C47.0485 25.6007 47.7652 25.6755 48.3999 25.9736C49.0347 26.2717 49.5503 26.7758 49.8632 27.404V27.404Z" stroke="#333333" stroke-linecap="round" stroke-linejoin="round"/>
<path d="M42.9342 18.9547C43.8838 18.9547 44.6535 18.184 44.6535 17.2332C44.6535 16.2825 43.8838 15.5117 42.9342 15.5117C41.9846 15.5117 41.2148 16.2825 41.2148 17.2332C41.2148 18.184 41.9846 18.9547 42.9342 18.9547Z" stroke="#333333" stroke-linecap="round" stroke-linejoin="round"/>
<path d="M44.5234 22.1226C44.5234 22.2803 44.4767 22.4344 44.3892 22.5656C44.3017 22.6967 44.1773 22.7989 44.0318 22.8593C43.8863 22.9196 43.7262 22.9354 43.5717 22.9046C43.4172 22.8739 43.2753 22.7979 43.1639 22.6864C43.0525 22.5749 42.9767 22.4328 42.946 22.2781C42.9152 22.1235 42.931 21.9631 42.9913 21.8174C43.0516 21.6717 43.1536 21.5472 43.2846 21.4596C43.4156 21.372 43.5695 21.3252 43.727 21.3252C43.8316 21.3252 43.9352 21.3458 44.0318 21.3859C44.1284 21.426 44.2162 21.4847 44.2902 21.5587C44.3641 21.6328 44.4228 21.7207 44.4628 21.8174C44.5028 21.9142 44.5234 22.0179 44.5234 22.1226Z" stroke="#333333" stroke-linecap="round" stroke-linejoin="round"/>
<path d="M50.8141 17.5546C50.6048 17.6233 50.3857 17.6572 50.1654 17.6549C49.8776 17.6549 49.5925 17.5981 49.3266 17.4876C49.0607 17.3772 48.8192 17.2153 48.6159 17.0112C48.4126 16.8071 48.2515 16.5649 48.1418 16.2984C48.0321 16.032 47.976 15.7464 47.9767 15.4582C47.9713 15.3667 47.9713 15.275 47.9767 15.1836C49.1063 15.7228 50.0822 16.5383 50.8141 17.5546V17.5546Z" stroke="#333333" stroke-linecap="round" stroke-linejoin="round"/>
<path d="M222.774 108.877L223.581 107.061L222.273 106.343C222.322 106.023 222.33 105.698 222.3 105.376L223.639 104.722L222.927 102.868L221.493 103.28C221.301 103.021 221.077 102.787 220.828 102.583L221.319 101.168L219.504 100.36L218.782 101.669C218.461 101.63 218.137 101.63 217.817 101.669L217.168 100.328L215.312 101.041L215.728 102.472C215.469 102.668 215.234 102.893 215.027 103.143L213.619 102.652L212.833 104.442L214.141 105.165C214.093 105.485 214.084 105.81 214.114 106.132L212.77 106.781L213.482 108.64L214.916 108.223C215.11 108.482 215.333 108.717 215.581 108.925L215.095 110.335L216.91 111.143L217.627 109.833C217.946 109.882 218.271 109.89 218.592 109.86L219.246 111.206L221.097 110.493L220.686 109.057C220.943 108.863 221.177 108.64 221.382 108.392L222.774 108.877ZM217.258 107.864C216.841 107.678 216.489 107.373 216.246 106.987C216.002 106.602 215.879 106.152 215.89 105.696C215.902 105.24 216.048 104.797 216.311 104.425C216.574 104.052 216.941 103.765 217.367 103.601C217.792 103.437 218.256 103.404 218.701 103.504C219.146 103.604 219.551 103.834 219.865 104.165C220.179 104.496 220.388 104.912 220.465 105.362C220.543 105.812 220.486 106.274 220.301 106.691C220.052 107.25 219.592 107.687 219.021 107.907C218.451 108.126 217.817 108.111 217.258 107.864V107.864Z" stroke="#333333" stroke-linecap="round" stroke-linejoin="round"/>
<path d="M213.134 118.198L214.231 115.732L212.459 114.749C212.522 114.316 212.533 113.876 212.49 113.44L214.315 112.553L213.361 110.034L211.414 110.599C211.154 110.246 210.851 109.926 210.513 109.648L211.177 107.726L208.693 106.612L207.717 108.386C207.284 108.324 206.845 108.311 206.409 108.349L205.523 106.527L203.002 107.499L203.567 109.442C203.216 109.707 202.898 110.012 202.617 110.351L200.703 109.706L199.606 112.172L201.378 113.155C201.315 113.588 201.304 114.028 201.346 114.464L199.521 115.351L200.492 117.87L202.438 117.31C202.7 117.662 203.002 117.981 203.34 118.261L202.675 120.178L205.144 121.276L206.119 119.497C206.552 119.561 206.991 119.574 207.427 119.534L208.313 121.355L210.834 120.389L210.27 118.44C210.62 118.177 210.939 117.874 211.219 117.537L213.134 118.198ZM205.645 116.819C205.079 116.567 204.6 116.152 204.269 115.627C203.939 115.102 203.772 114.49 203.788 113.87C203.805 113.25 204.005 112.648 204.363 112.142C204.721 111.635 205.221 111.246 205.8 111.025C206.379 110.803 207.011 110.758 207.615 110.896C208.219 111.033 208.769 111.348 209.195 111.798C209.621 112.249 209.904 112.816 210.008 113.428C210.112 114.04 210.033 114.669 209.78 115.235C209.612 115.611 209.372 115.951 209.074 116.234C208.776 116.517 208.424 116.739 208.04 116.886C207.656 117.033 207.247 117.103 206.836 117.091C206.425 117.08 206.02 116.988 205.645 116.819Z" stroke="#333333" stroke-linecap="round" stroke-linejoin="round"/>
<path d="M103.801 94.791C103.079 96.162 102.263 97.4817 101.359 98.7409C96.6737 105.264 89.7883 109.869 81.9755 111.704C74.1627 113.54 65.9504 112.482 58.8559 108.727C58.1228 108.341 57.4055 107.929 56.7199 107.496C56.0343 107.063 55.3645 106.62 54.721 106.144C53.9405 105.579 53.1915 104.977 52.4743 104.349C52.4284 104.314 52.386 104.276 52.3477 104.233C47.674 100.091 44.2579 94.7174 42.4899 88.7245C40.7218 82.7317 40.673 76.3617 42.3491 70.3424C44.0251 64.323 47.3584 58.8971 51.9681 54.6846C56.5778 50.472 62.2781 47.6426 68.4175 46.5197C74.557 45.3969 80.8882 46.0258 86.6876 48.3346C92.4871 50.6434 97.521 54.539 101.214 59.5763C104.907 64.6136 107.111 70.5895 107.573 76.8212C108.035 83.0529 106.737 89.2891 103.828 94.8174L103.801 94.791Z" fill="white"/>
<g opacity="0.6">
<path opacity="0.6" d="M103.802 94.791C103.079 96.1621 102.263 97.4818 101.36 98.741L100.716 98.2129L99.6086 97.6267L98.4431 97.0142L98.6382 95.6042L98.5749 94.3316C98.5064 93.059 99.424 94.0993 100.157 93.7138C100.729 93.3047 101.191 92.7605 101.502 92.1296C101.502 92.1296 102.029 90.4345 101.855 89.7533C101.571 88.9684 101.237 88.2028 100.853 87.4615L98.9652 90.1018L97.383 89.9804L95.8851 89.1883L95.69 87.1024L94.92 86.7011L94.5983 85.5024L90.437 84.3354L89.9624 83.501C89.4877 82.6667 87.5732 82.2389 87.5732 82.2389L88.0426 81.1511L88.781 79.9366C89.5246 78.722 90.2947 80.7392 90.2947 80.7392L91.1754 81.1986L92.8104 79.8257L93.2429 77.856L95.9062 78.0091C95.8541 77.7426 95.8947 77.4661 96.0214 77.2259C96.1481 76.9857 96.3531 76.7962 96.6024 76.689C97.4885 76.3405 97.0982 74.413 96.7606 73.7001C96.4231 72.9872 95.1784 73.5628 95.1784 73.5628C95.1784 73.5628 93.823 71.4981 93.6384 70.6743C93.4538 69.8505 96.2227 70.1463 97.4094 69.3172C98.596 68.4881 98.1899 66.8406 97.6098 66.8036C97.0296 66.7666 98.7437 63.0544 102.04 64.0735C102.958 64.3587 103.538 64.2583 103.896 63.9415C106.37 68.7092 107.653 74.0056 107.636 79.3779C107.62 84.7503 106.304 90.0387 103.802 94.791Z" fill="white"/>
<path opacity="0.6" d="M80.7376 80.5074L79.6089 81.9278C79.6089 81.9278 79.129 80.7819 78.4434 81.3998L77.3885 82.3397L76.6238 84.4837L75.2526 85.3708L74.414 84.9325L73.6229 84.5101L72.7632 84.0559L71.9404 85.6401L71.2706 86.9075C71.5971 87.5297 72.0031 88.1066 72.4784 88.6237L73.934 91.1954L75.7061 92.0931C76.4452 92.1205 77.1808 92.2089 77.9054 92.3571L79.1237 92.9961L78.6912 95.6364C78.6912 95.6364 77.7735 97.1308 77.1618 96.7189L76.5447 96.3123L75.5426 99.787L75.5004 101.699C75.5004 101.699 74.9045 101.947 74.3032 102.147C73.702 102.348 74.0817 102.242 72.8212 102.633C71.5607 103.024 71.6609 103.008 70.6378 103.299C69.7656 103.604 68.9263 103.997 68.1326 104.471L68.2222 106.309L65.812 106.662L64.4618 105.944L64.7941 104.782L64.9523 102.966L64.7677 101.609L64.1876 100.41L65.812 98.9368L65.4534 98.0127L64.5304 96.175L62.579 97.2312L61.5769 97.7592L59.3091 96.7401L59.0612 95.3618L58.3017 92.8852L57.595 91.3432L56.3398 89.6429L56.0233 88.1801L56.7301 86.8388L57.1045 86.1312L55.9495 84.5734L55.6331 83.4645L53.6869 81.6955C53.6869 81.6955 54.2513 81.6585 54.1247 80.8717C53.9981 80.0849 55.2375 78.7595 55.2375 78.7595C55.939 79.1291 58.0433 80.5971 58.0433 80.5971L59.884 80.8506C59.884 80.8506 60.2531 80.8506 60.6118 80.1535C61.0307 79.5124 61.5227 78.9223 62.078 78.3951C62.078 78.3951 61.2288 75.4432 61.8354 75.0472C62.4419 74.6511 63.0589 72.7184 63.0589 72.7184L63.5442 71.7943C63.5442 71.7943 62.3997 71.2926 62.1834 70.6854C61.9672 70.0781 59.1456 70.886 59.1456 70.886L57.1995 72.2379L55.6647 73.426L55.0002 74.6881C55.0002 74.6881 53.6448 73.0564 53.6395 73.9699C53.5361 74.9065 53.3309 75.8291 53.0277 76.7211C53.0277 76.7211 53.3072 76.869 52.938 77.5766C52.5688 78.2842 52.168 78.2472 51.3558 78.3476C50.297 78.3582 49.2389 78.2858 48.1914 78.1311C48.1914 78.1311 47.664 80.0849 48.0279 80.4229L48.3865 80.7503C48.3865 80.7503 47.8222 82.1708 47.2631 81.875L45.9024 81.1569L43.9985 81.9278L41.8889 84.2619L41.4195 84.1668C40.1265 75.4838 42.3094 66.6407 47.4935 59.5605C52.6775 52.4802 60.4436 47.7353 69.103 46.3574C69.2243 46.8855 69.3562 47.3819 69.3562 47.3819L68.8288 49.9905L68.1537 51.279L67.5735 52.3826L66.756 53.9352L68.8498 55.8679L68.4016 58.1544L67.2676 58.8673L66.9406 60.5835L68.8868 64.3908L69.4142 65.8852C69.0885 66.6007 68.9281 67.3804 68.9448 68.1665C68.9448 68.1665 69.1821 69.5923 70.2211 70.1573C71.2601 70.7223 72.6261 71.3877 72.6261 71.3877L72.5153 73.4999L72.0459 74.028L72.8265 76.304C75.2051 77.2386 74.9783 78.0202 75.2051 77.2386L75.4371 76.4624L77.0563 75.8762L79.1184 78.3423C79.3584 78.3391 79.5953 78.3964 79.8073 78.509C80.0193 78.6216 80.1995 78.7858 80.3315 78.9865C80.9327 79.7469 81.8715 79.0869 80.7376 80.5074Z" fill="white"/>
<path opacity="0.6" d="M52.7855 98.8993C52.8435 99.6491 51.8942 100.589 51.8942 100.589L52.6695 100.996L52.9068 103.108L52.3214 104.227C48.1731 100.558 45.009 95.907 43.1182 90.6984L43.5401 88.4594L45.4018 88.1954C45.4018 88.1954 47.0684 87.0865 47.8068 87.3822C48.5452 87.6779 49.2202 89.4944 49.2202 89.4944C49.2202 89.4944 49.7476 91.9446 49.6791 91.8971H49.6474H49.6896L50.4491 92.2984L50.6653 93.2648L49.6105 95.2715H47.9123C47.9123 95.2715 47.5747 95.0919 47.5431 95.9738C47.5706 96.2798 47.6635 96.5763 47.8154 96.8433C47.9674 97.1102 48.1749 97.3414 48.4239 97.521L50.2592 97.051L50.7497 95.15L52.5534 94.7962C52.5534 94.7962 52.295 95.9632 52.7169 96.185L53.1441 96.4121L53.3973 97.8062C53.2084 97.9185 53.0523 98.0786 52.9449 98.2705C52.8375 98.4624 52.7825 98.6793 52.7855 98.8993Z" fill="white"/>
<path opacity="0.6" d="M61.5084 101.889C61.3449 101.435 61.2763 101.039 60.153 100.447C59.0296 99.8557 59.0982 100.067 58.6551 100.558C58.4644 100.811 58.2039 101.002 57.9058 101.108C57.6078 101.214 57.2852 101.23 56.978 101.155C56.2396 100.991 56.6246 101.825 56.6246 101.825L56.804 104.08L54.7207 106.14C55.3641 106.615 56.0304 107.066 56.7196 107.492L57.1626 106.129L60.6224 107.143C59.8893 106.927 60.3217 105.923 60.3217 105.923L59.5834 105.532C59.5834 105.532 61.6719 102.332 61.5084 101.889Z" fill="white"/>
<path opacity="0.6" d="M83.3006 90.1674L82.1667 89.0215L80.8692 89.4281L80.3418 90.4842L79.9463 91.2446L80.4737 92.3008L81.5285 93.584L82.1297 92.4328C82.1297 92.4328 83.8016 92.4328 84.6771 91.4664C85.5526 90.5001 83.3006 90.1674 83.3006 90.1674Z" fill="white"/>
<path opacity="0.6" d="M79.9678 84.9963L82.0774 86.1053L82.1618 85.6089C82.2716 85.2112 82.4659 84.842 82.7314 84.5264L81.1175 82.8154L79.9678 84.9963Z" fill="white"/>
<path opacity="0.6" d="M79.2507 109.578L78.6442 108.686L77.9374 108.316H75.7803L74.5515 110.65C74.5515 110.65 73.3754 110.492 71.8301 110.355C70.2848 110.217 70.6645 110.856 70.6645 110.856L70.2637 112.324C74.1625 112.805 78.1155 112.592 81.9404 111.696C81.4959 111.386 81.0346 111.1 80.5586 110.841L79.2507 109.578Z" fill="white"/>
</g>
<path d="M103.801 94.791C103.079 96.162 102.263 97.4817 101.359 98.7409C96.6737 105.264 89.7883 109.869 81.9755 111.704C74.1627 113.54 65.9504 112.482 58.8559 108.727C58.1228 108.341 57.4055 107.929 56.7199 107.496C56.0343 107.063 55.3645 106.62 54.721 106.144C53.9405 105.579 53.1915 104.977 52.4743 104.349C52.4284 104.314 52.386 104.276 52.3477 104.233V104.233C47.674 100.091 44.2579 94.7174 42.4899 88.7245C40.7218 82.7317 40.673 76.3617 42.3491 70.3423C44.0251 64.323 47.3584 58.8971 51.9681 54.6846C56.5778 50.472 62.2781 47.6426 68.4175 46.5197C74.557 45.3969 80.8882 46.0258 86.6876 48.3346C92.4871 50.6434 97.521 54.539 101.214 59.5763C104.907 64.6136 107.111 70.5895 107.573 76.8212C108.035 83.0529 106.737 89.2891 103.828 94.8174L103.801 94.791Z" stroke="#333333" stroke-linecap="round" stroke-linejoin="round"/>
<path d="M81.9404 111.694C78.1155 112.59 74.1625 112.803 70.2637 112.322L70.6645 110.854C70.6645 110.854 70.2848 110.215 71.8301 110.353C73.3754 110.49 74.5515 110.648 74.5515 110.648L75.7803 108.314H77.9374L78.6442 108.684L79.2507 109.577L80.5586 110.839C81.0346 111.098 81.4959 111.384 81.9404 111.694Z" stroke="#333333" stroke-linecap="round" stroke-linejoin="round"/>
<path d="M103.918 63.9476C103.559 64.2644 102.979 64.3647 102.061 64.0796C98.7648 63.0604 97.056 66.7674 97.6309 66.8097C98.2057 66.8519 98.6118 68.5206 97.4305 69.3233C96.2491 70.1259 93.4749 69.8513 93.6595 70.6804C93.8441 71.5094 95.1995 73.5689 95.1995 73.5689C95.1995 73.5689 96.4126 72.9986 96.7554 73.7062C97.0982 74.4138 97.4885 76.3465 96.6024 76.695C96.3531 76.8023 96.1481 76.9918 96.0214 77.232C95.8947 77.4722 95.8541 77.7486 95.9062 78.0152L93.2429 77.8621L92.8104 79.8317L91.1754 81.2047L90.2947 80.7453C90.2947 80.7453 89.5246 78.7281 88.781 79.9426L88.0426 81.1572L87.5732 82.245C87.5732 82.245 89.4877 82.6727 89.9624 83.5071L90.437 84.3414L94.5983 85.5084L94.92 86.7071L95.69 87.1085L95.8851 89.1943L97.4357 90.0076L99.0179 90.129L100.906 87.4887C101.289 88.23 101.624 88.9956 101.908 89.7805C102.093 90.4617 101.555 92.1568 101.555 92.1568C101.244 92.7877 100.782 93.3319 100.21 93.741C99.4557 94.1265 98.5327 93.0862 98.6277 94.3588L98.6909 95.6314L98.4958 97.0414L99.6614 97.6539L100.769 98.2401L101.412 98.7681" stroke="#333333" stroke-linecap="round" stroke-linejoin="round"/>
<path d="M41.4619 84.1658L41.9313 84.2608L44.0409 81.9268L45.9449 81.1558L47.3056 81.874C47.8646 82.1697 48.4289 80.7492 48.4289 80.7492L48.0703 80.4218C47.7064 80.0839 48.2338 78.13 48.2338 78.13C49.2813 78.2848 50.3394 78.3572 51.3982 78.3465C52.2315 78.2462 52.6271 78.2779 52.9804 77.5755C53.3338 76.8732 53.0701 76.7201 53.0701 76.7201C53.3733 75.828 53.5785 74.9055 53.6819 73.9689C53.6819 73.0553 55.0426 74.687 55.0426 74.687L55.7071 73.425L57.1944 72.2421L59.1405 70.8903C59.1405 70.8903 61.9622 70.077 62.1784 70.6896C62.3946 71.3021 63.5391 71.7985 63.5391 71.7985L63.0539 72.7226C63.0539 72.7226 62.4316 74.6448 61.8303 75.0514C61.2291 75.458 62.0729 78.3993 62.0729 78.3993C61.5177 78.9265 61.0256 79.5166 60.6067 80.1578C60.2375 80.8654 59.8789 80.8548 59.8789 80.8548L58.0383 80.6014C58.0383 80.6014 55.9286 79.1333 55.2325 78.7637C55.2325 78.7637 53.9931 80.0891 54.1196 80.876C54.2462 81.6628 53.6819 81.6997 53.6819 81.6997L55.628 83.4687L55.9445 84.5777L57.0995 86.1355L56.725 86.8431L56.0183 88.1844L56.3347 89.6471L57.59 91.3475L58.302 92.8841L59.072 95.3713L59.3199 96.7496L61.5877 97.7687L62.5898 97.2407L64.5412 96.1845L65.4641 98.0222L65.8228 98.9463L64.1984 100.42L64.7785 101.618L64.9631 102.975L64.8049 104.792L64.4726 105.954L65.8228 106.672L68.233 106.323L68.1434 104.48C68.937 104.007 69.7763 103.614 70.6485 103.308C71.6717 103.018 71.5715 103.034 72.832 102.643C74.0925 102.252 73.7075 102.358 74.314 102.157C74.9205 101.956 75.5112 101.708 75.5112 101.708L75.5534 99.7965L76.5555 96.3218L77.1725 96.7285C77.7843 97.1403 78.702 95.6459 78.702 95.6459L79.1345 93.0056L77.8898 92.3561C77.1652 92.2078 76.4296 92.1195 75.6905 92.092L73.9554 91.1785L72.4997 88.6068C72.0244 88.0897 71.6184 87.5128 71.292 86.8906L71.9618 85.6233L72.7845 84.0391L73.6442 84.4932L74.4353 84.9156L75.2739 85.3539L76.6451 84.4668L77.4099 82.3229L78.4647 81.3829C79.1503 80.7598 79.6302 81.911 79.6302 81.911L80.7589 80.4905C81.8928 79.07 80.954 79.7301 80.3739 79.0013C80.242 78.8006 80.0617 78.6364 79.8497 78.5238C79.6377 78.4112 79.4008 78.3539 79.1608 78.3571L77.0987 75.891L75.4585 76.5141L75.2264 77.2904C74.9996 78.0719 75.2264 77.2904 72.8478 76.3557L72.0672 74.0798L72.5366 73.5517L72.6474 71.4394C72.6474 71.4394 71.2814 70.7688 70.2424 70.209C69.2034 69.6493 68.9661 68.2182 68.9661 68.2182C68.9494 67.4322 69.1099 66.6525 69.4355 65.937L68.9081 64.4426L66.962 60.6352L67.2889 58.919L68.4229 58.2061L68.8712 55.9196L66.8354 53.9869L67.6529 52.4344L68.233 51.3307L68.9081 50.0423L69.4355 47.4336C69.4355 47.4336 69.3036 46.9478 69.1823 46.4092" stroke="#333333" stroke-linecap="round" stroke-linejoin="round"/>
<path d="M52.4996 104.343C52.4587 104.296 52.4127 104.254 52.3625 104.216V104.216L52.9479 103.097L52.7106 100.985L51.9353 100.578C51.9353 100.578 52.8846 99.6382 52.8266 98.8883C52.8163 98.6646 52.8662 98.4422 52.971 98.2444C53.0759 98.0465 53.2318 97.8805 53.4226 97.7635L53.1694 96.3694L52.7422 96.1424C52.3203 95.9206 52.5787 94.7536 52.5787 94.7536L50.775 95.1074L50.2845 97.0084L48.4491 97.4784C48.2002 97.2987 47.9927 97.0676 47.8407 96.8007C47.6887 96.5337 47.5959 96.2372 47.5684 95.9312C47.6 95.0493 47.9375 95.2288 47.9375 95.2288H49.6358L50.6906 93.2222L50.4744 92.2558L49.7149 91.8545" stroke="#333333" stroke-linecap="round" stroke-linejoin="round"/>
<path d="M49.6664 91.8557C49.7508 91.9032 49.2075 89.453 49.2075 89.453C49.2075 89.453 48.5325 87.6629 47.7941 87.3407C47.0557 87.0186 45.3891 88.154 45.3891 88.154L43.5274 88.418L43.1055 90.657" stroke="#333333" stroke-linecap="round" stroke-linejoin="round"/>
<path d="M57.1616 106.129L56.7186 107.492C56.0154 107.062 55.3491 106.611 54.7197 106.14L56.803 104.08L56.6237 101.825C56.6237 101.825 56.2387 100.991 56.977 101.155C57.2842 101.23 57.6068 101.214 57.9048 101.108C58.2029 101.002 58.4634 100.811 58.6542 100.558C59.0866 100.067 59.0339 99.8557 60.152 100.447C61.2701 101.039 61.3439 101.435 61.5074 101.889C61.6709 102.343 59.5824 105.548 59.5824 105.548L60.3208 105.939C60.3208 105.939 59.8883 106.942 60.6214 107.159L57.1616 106.129Z" stroke="#333333" stroke-linecap="round" stroke-linejoin="round"/>
<path d="M80.8698 89.4261L82.1673 89.0195L83.3012 90.1654C83.3012 90.1654 85.5427 90.4559 84.6672 91.4328C83.7917 92.4097 82.1198 92.3991 82.1198 92.3991L81.508 93.5503L80.4532 92.2671L79.9258 91.211L80.3213 90.4506L80.8698 89.4261Z" stroke="#333333" stroke-linecap="round" stroke-linejoin="round"/>
<path d="M82.7314 84.5254C82.4659 84.841 82.2716 85.2102 82.1618 85.6079L82.0774 86.1043L79.9678 84.9954L81.1175 82.8145L82.7314 84.5254Z" stroke="#333333" stroke-linecap="round" stroke-linejoin="round"/>
<path d="M197.184 209.087C194.357 211.442 172.581 226.407 141.506 223.994C139.834 209.831 133.458 151.649 140.71 142.524C140.71 142.524 158.304 134.123 174.511 137.65C190.718 141.178 197.026 144.557 198.181 147.483C199.057 149.695 197.807 190.895 197.184 209.087Z" fill="#333333"/>
<path d="M173.973 143.864C164.638 151.959 152.613 150.248 152.877 144.033C152.919 143.061 153.958 141.857 153.958 141.857L153.594 141.298L152.012 138.905C150.857 137.115 149.412 134.866 148.405 133.229C147.561 131.835 168.599 118.876 168.599 126.327C168.599 136.825 173.746 138.8 173.746 138.8C175.687 139.581 177.496 140.817 173.973 143.864Z" fill="white" stroke="#333333" stroke-linecap="round" stroke-linejoin="round"/>
<path d="M179.875 159.897C179.875 159.897 177.992 166.361 178.883 168.214" stroke="white" stroke-linecap="round" stroke-linejoin="round"/>
<path d="M177.678 141.13C177.678 147.366 159.097 153.476 153.654 147.218" stroke="white" stroke-linecap="round" stroke-linejoin="round"/>
<path d="M162.393 133.933C162.393 133.933 161.148 138.632 155.347 142.302C155.07 141.827 154.623 141.474 154.097 141.315C153.922 141.286 153.744 141.286 153.57 141.315L151.987 138.923C154.988 136.758 162.393 133.933 162.393 133.933Z" fill="#333333"/>
<path d="M164.997 128.156C164.997 128.156 164.934 132.793 163.942 133.738C156.585 140.803 149.391 141.363 148.205 139.499C140.214 126.952 142.102 123.657 141.29 121.508C139.85 117.738 138.084 111.58 138.864 107.852C140.605 99.5246 156.269 93.0664 164.517 101.441C168.473 105.449 169.723 114.147 168.889 121.392" fill="white"/>
<path d="M164.997 128.156C164.997 128.156 164.934 132.793 163.942 133.738C156.585 140.803 149.391 141.363 148.205 139.499C140.214 126.952 142.102 123.657 141.29 121.508C139.85 117.738 138.084 111.58 138.864 107.852C140.605 99.5246 156.269 93.0664 164.517 101.441C168.473 105.449 169.723 114.147 168.889 121.392" stroke="#333333" stroke-linecap="round" stroke-linejoin="round"/>
<path d="M142.298 117.631C142.298 117.631 140.099 116.643 139.624 117.821" stroke="#333333" stroke-linecap="round" stroke-linejoin="round"/>
<path d="M147.631 117.704C147.631 117.704 152.203 115.787 154.26 118.116" stroke="#333333" stroke-linecap="round" stroke-linejoin="round"/>
<path d="M152.709 120.952C152.783 121.638 152.45 122.235 151.96 122.293C151.469 122.351 151.016 121.828 150.942 121.142C150.868 120.455 151.2 119.853 151.691 119.801C152.181 119.748 152.614 120.265 152.709 120.952Z" fill="#333333"/>
<path d="M143.742 121.159C143.821 121.846 143.483 122.448 142.993 122.501C142.503 122.553 142.049 122.041 141.975 121.355C141.901 120.668 142.234 120.066 142.724 120.014C143.215 119.961 143.658 120.473 143.742 121.159Z" fill="#333333"/>
<path d="M143.964 119.351C144.602 120.38 144.254 122.139 143.41 124.552C142.566 126.965 143.31 127.837 146.548 128.079" fill="white"/>
<path d="M143.964 119.351C144.602 120.38 144.254 122.139 143.41 124.552C142.566 126.965 143.31 127.837 146.548 128.079" stroke="#333333" stroke-linecap="round" stroke-linejoin="round"/>
<path d="M146.549 132.258C146.549 132.258 150.768 131.873 152.698 130.812" stroke="#333333" stroke-linecap="round" stroke-linejoin="round"/>
<path d="M173.278 108.316C173.278 105.179 170.188 98.7418 164.766 98.0184C161.649 94.7549 157.208 93.5562 151.818 94.7972C139.361 97.6593 135.569 109.974 135.025 112.012C134.973 112.202 134.946 112.308 134.946 112.308L138.279 111.463L136.845 114.267L138.591 115.423L138.19 115.867L140.215 117.821L139.582 114.251C139.972 111.949 142.62 108.727 142.62 108.727C141.654 109.981 141.052 111.478 140.88 113.052C141.934 110.312 148.263 107.772 148.263 107.772C146.212 109.44 145.099 112.704 145.099 112.704C147.05 110.296 151.623 108.738 154.55 107.909C155.536 110.291 157.103 112.778 159.339 114.156C161.448 115.455 161.375 118.138 161.375 118.138C163.644 119.717 165.317 122.017 166.121 124.664L168.674 128.16C168.674 128.16 173.278 122.505 173.278 108.316Z" fill="#333333"/>
<path d="M162.534 119.035C161.68 117.203 164.781 112.239 166.98 112.852C168.214 113.2 169.828 115.455 170.144 117.821C170.461 120.187 168.789 124.686 167.006 125.663C165.872 126.296 164.939 124.57 164.939 124.57" fill="white"/>
<path d="M162.534 119.035C161.68 117.203 164.781 112.239 166.98 112.852C168.214 113.2 169.828 115.455 170.144 117.821C170.461 120.187 168.789 124.686 167.006 125.663C165.872 126.296 164.939 124.57 164.939 124.57" stroke="#333333" stroke-linecap="round" stroke-linejoin="round"/>
<path d="M27.9824 208.658L87.574 194.712L211.873 209.081L179.875 231.001L27.9824 208.658Z" fill="white"/>
<path d="M27.9824 208.658L87.574 194.712L211.873 209.081" fill="white"/>
<path d="M27.9824 208.658L87.574 194.712L211.873 209.081" stroke="#333333" stroke-linecap="round" stroke-linejoin="round"/>
<path d="M79.5527 211.457L103.676 200.785L134.176 202.359L120.611 213.971L79.5527 211.457Z" fill="white" stroke="#333333" stroke-linecap="round" stroke-linejoin="round"/>
<path d="M141.886 141.995C134.149 145.164 132.483 152.287 119.335 180.438C119.335 180.438 113.496 181.637 110.369 188.739C107.241 195.842 112.478 201.45 118.507 201.26C118.507 201.26 120.927 203.372 125.89 203.156C130.853 202.939 152.788 169.333 152.788 169.333L141.886 141.995Z" fill="#333333"/>
<path d="M121.638 182.092C125.097 185.176 127.086 189.701 126.031 194.718" stroke="white" stroke-linecap="round" stroke-linejoin="round"/>
<path d="M124.979 183.575C124.979 183.575 129.23 184.505 129.89 189.954" stroke="white" stroke-linecap="round" stroke-linejoin="round"/>
<path d="M137.415 167.627C135.407 162.665 134.713 157.268 135.4 151.959" stroke="white" stroke-linecap="round" stroke-linejoin="round"/>
<path d="M136.813 160.446C136.492 162.664 138.78 174.472 138.765 186.886" stroke="white" stroke-linecap="round" stroke-linejoin="round"/>
<path d="M194.649 144.329C204.327 149.198 205.477 164.179 196.347 182.091C189.897 194.733 180.994 213.4 175.362 214.651C169.729 215.903 164.233 212.391 164.233 212.391C164.233 212.391 159.487 212.17 158.052 208.79C154.128 199.554 164.102 187.884 168.004 190.677C168.004 190.677 180.536 163.392 182.819 161.671" fill="#333333"/>
<path d="M157.156 203.177C155.874 196.803 165.895 189.283 168.004 190.677C168.004 190.677 175.446 191.095 176.559 196.249" stroke="white" stroke-linecap="round" stroke-linejoin="round"/>
<path d="M184.416 204.535C188.772 196.841 196.346 182.092 196.346 182.092" stroke="white" stroke-linecap="round" stroke-linejoin="round"/>
<path d="M168.005 190.678C168.005 190.678 173.221 187.552 177.118 190.509" stroke="white" stroke-linecap="round" stroke-linejoin="round"/>
<path d="M169.786 186.882C169.786 186.882 172.666 180.545 175.588 174.736C178.509 168.928 185.197 160.325 187.976 159.908" stroke="white" stroke-linecap="round" stroke-linejoin="round"/>
<path d="M114.82 198.272C114.194 198.242 113.581 198.074 113.027 197.781C104.061 193.097 97.0885 185.356 92.8904 179.801C91.2582 177.678 89.7558 175.457 88.3916 173.152L90.5434 163.922C90.5434 163.922 92.5686 169.203 100.707 174.393C108.844 179.584 118.512 181.295 121.639 186.539C124.408 191.107 119.53 198.5 114.82 198.272Z" fill="white"/>
<path opacity="0.4" d="M114.82 198.272C114.72 197.605 114.543 196.951 114.292 196.324C112.41 191.603 101.018 182.219 101.018 182.219C98.3068 182.135 95.327 181.005 92.9009 179.801C91.2651 177.678 89.7592 175.458 88.3916 173.152L90.5434 163.922C90.5434 163.922 92.5686 169.203 100.707 174.393C108.844 179.584 118.512 181.295 121.639 186.539C124.408 191.107 119.53 198.5 114.82 198.272Z" fill="white"/>
<path d="M114.82 198.272C114.194 198.242 113.581 198.074 113.027 197.781C104.061 193.097 97.0885 185.356 92.8904 179.801C91.2582 177.678 89.7558 175.457 88.3916 173.152L90.5434 163.922C90.5434 163.922 92.5686 169.203 100.707 174.393C108.844 179.584 118.512 181.295 121.639 186.539C124.408 191.107 119.53 198.5 114.82 198.272Z" stroke="#333333" stroke-linecap="round" stroke-linejoin="round"/>
<path d="M94.5153 172.591C94.5153 172.591 93.4025 177.513 90.4701 176.409C88.8879 175.813 85.8395 171.081 85.2646 168.694L94.5153 172.591Z" fill="white" stroke="#333333" stroke-linecap="round" stroke-linejoin="round"/>
<path d="M81.5869 142.285L83.9813 141.05C83.9813 141.05 90.7479 141.108 94.9461 144.524C98.7592 147.629 100.695 152.493 100.695 152.493C100.695 152.493 115.51 144.303 130.641 149.002L136.812 183.438L108.442 185.296L90.7374 168.456L81.5869 142.285Z" fill="white" stroke="#333333" stroke-linecap="round" stroke-linejoin="round"/>
<path d="M138.764 184.816C138.764 184.816 135.437 184.715 130.985 184.863C124.256 185.075 114.957 185.835 110.707 188.312L110.506 188.243L106.614 186.881L106.535 186.764C105.817 185.708 100.032 177.391 91.7674 174.006L80.0801 141.309C80.0801 141.309 92.2104 141.837 98.8399 152.81L102.168 154.014C102.168 154.014 121.972 148.142 133.058 150.254L138.764 184.816Z" fill="white"/>
<path opacity="0.3" d="M106.535 186.77C105.817 185.714 100.032 177.397 91.7674 174.012L80.0801 141.314C80.0801 141.314 92.2104 141.843 98.8399 152.816L106.535 186.77Z" fill="#333333"/>
<path opacity="0.3" d="M130.984 184.864C124.254 185.075 114.956 185.835 110.705 188.312L110.504 188.243L102.73 155.197C102.73 155.197 109.091 153.766 111.048 154.489C111.042 154.5 123.974 164.053 130.984 184.864Z" fill="#333333"/>
<path d="M138.764 184.816C138.764 184.816 135.437 184.715 130.985 184.863C124.256 185.075 114.957 185.835 110.707 188.312L110.506 188.243L106.614 186.881L106.535 186.764C105.817 185.708 100.032 177.391 91.7674 174.006L80.0801 141.309C80.0801 141.309 92.2104 141.837 98.8399 152.81L102.168 154.014C102.168 154.014 121.972 148.142 133.058 150.254L138.764 184.816Z" stroke="#333333" stroke-linecap="round" stroke-linejoin="round"/>
<path d="M102.177 154.02L109.808 185.719" stroke="#333333" stroke-linecap="round" stroke-linejoin="round"/>
<path d="M106.614 186.886L99.2041 155.207" stroke="#333333" stroke-linecap="round" stroke-linejoin="round"/>
<path d="M87.7748 173.178C86.0819 172.708 82.6696 162.522 84.2307 158.134C84.2307 158.134 86.0871 154.907 86.8677 154.685C88.0491 154.342 92.8168 154.442 92.5848 155.245C92.0574 157.104 88.3972 157.072 88.3972 157.072L87.2105 159.248L87.258 160.447C87.258 160.447 88.9826 159.19 89.6155 159.227C89.9425 159.227 91.6302 160.072 92.9698 160.779C94.1143 161.386 94.8157 161.719 94.552 162.268C93.7029 164.095 90.0902 162.796 90.0902 162.796L88.7294 164.851C88.7294 164.851 90.0427 165.078 90.6176 165.141C91.1924 165.204 95.9654 168.389 95.823 168.785C95.2587 170.337 90.7336 168.658 90.7336 168.658L89.9319 169.329C89.9319 169.329 93.2651 170.189 93.6238 170.316C94.1512 170.511 96.1817 172.074 96.15 172.254C95.9074 173.627 93.1069 172.618 93.1069 172.618L90.6545 172.518C90.2809 172.848 89.8316 173.08 89.3465 173.194" fill="white"/>
<path d="M87.7748 173.178C86.0819 172.708 82.6696 162.522 84.2307 158.134C84.2307 158.134 86.0871 154.907 86.8677 154.685C88.0491 154.342 92.8168 154.442 92.5848 155.245C92.0574 157.104 88.3972 157.072 88.3972 157.072L87.2105 159.248L87.258 160.447C87.258 160.447 88.9826 159.19 89.6155 159.227C89.9425 159.227 91.6302 160.072 92.9698 160.779C94.1143 161.386 94.8157 161.719 94.552 162.268C93.7029 164.095 90.0902 162.796 90.0902 162.796L88.7294 164.851C88.7294 164.851 90.0427 165.078 90.6176 165.141C91.1924 165.204 95.9654 168.389 95.823 168.785C95.2587 170.337 90.7336 168.658 90.7336 168.658L89.9319 169.329C89.9319 169.329 93.2651 170.189 93.6238 170.316C94.1512 170.511 96.1817 172.074 96.15 172.254C95.9074 173.627 93.1069 172.618 93.1069 172.618L90.6545 172.518C90.2809 172.848 89.8316 173.08 89.3465 173.194" stroke="#333333" stroke-linecap="round" stroke-linejoin="round"/>
<path d="M87.2368 160.446C87.2368 160.446 85.6546 161.777 85.2485 162.162C84.8424 162.548 84.9426 163.773 84.9426 163.773" stroke="#333333" stroke-linecap="round" stroke-linejoin="round"/>
<path d="M86.0918 166.477C86.0918 167.818 86.9884 168.631 87.3998 169.064C87.8111 169.497 86.7405 170.675 87.9272 171.52" stroke="#333333" stroke-linecap="round" stroke-linejoin="round"/>
<path d="M164.212 208.991C160.863 209.905 157.224 204.012 152.783 197.58C149.851 193.355 146.57 188.851 142.799 185.962C142.498 185.735 142.193 185.513 141.887 185.302L144.091 174.213C148.669 176.616 151.507 180.465 156.259 184.42C163.906 190.794 170.683 194.707 172.561 197.527C174.438 200.347 169.95 207.423 164.212 208.991Z" fill="white"/>
<path opacity="0.4" d="M152.783 197.575C149.85 193.35 146.57 188.846 142.799 185.957C143.296 185.983 143.793 185.907 144.26 185.735C144.26 185.735 150.219 190.578 152.783 197.575Z" fill="white"/>
<path d="M164.212 208.991C160.863 209.905 157.224 204.012 152.783 197.58C149.851 193.355 146.57 188.851 142.799 185.962C142.498 185.735 142.193 185.513 141.887 185.302L144.091 174.213C148.669 176.616 151.507 180.465 156.259 184.42C163.906 190.794 170.683 194.707 172.561 197.527C174.438 200.347 169.95 207.423 164.212 208.991Z" stroke="#333333" stroke-linecap="round" stroke-linejoin="round"/>
<path d="M145.327 184.864C145.098 185.274 144.72 185.58 144.272 185.72C144.153 185.766 144.031 185.807 143.908 185.841H143.808C140.269 186.765 132.305 184.843 132.305 184.843C132.305 184.843 127.089 182.361 126.773 181.775C126.552 181.311 126.357 180.835 126.187 180.349L126.045 179.932C126.045 179.932 124.167 178.876 123.935 178.052C123.703 177.228 123.308 176.996 124.463 176.848C125.618 176.7 131.846 176.848 131.846 176.848L125.069 174.081C125.069 174.081 120.581 171.816 120.164 171.018C119.748 170.221 119.225 169.693 121.52 170.01C123.814 170.327 128.824 171.784 128.824 171.784L132.774 172.624L128.851 170.95C128.851 170.95 121.129 170.015 122.59 167.612H126.973C129.456 167.722 131.925 168.036 134.357 168.552C135.633 168.943 144.071 174.192 144.071 174.192" fill="white"/>
<path opacity="0.4" d="M143.796 185.862C140.258 186.786 132.294 184.864 132.294 184.864C132.294 184.864 127.078 182.382 126.761 181.796C126.541 181.331 126.345 180.856 126.176 180.37L132.578 181.072C132.355 181.476 132.237 181.931 132.237 182.393C132.237 182.855 132.355 183.309 132.578 183.713C133.29 184.996 141.402 186.295 143.796 185.862Z" fill="white"/>
<path d="M145.327 184.864C145.098 185.274 144.72 185.58 144.272 185.72C144.153 185.766 144.031 185.807 143.908 185.841H143.808C140.269 186.765 132.305 184.843 132.305 184.843C132.305 184.843 127.089 182.361 126.773 181.775C126.552 181.311 126.357 180.835 126.187 180.349L126.045 179.932C126.045 179.932 124.167 178.876 123.935 178.052C123.703 177.228 123.308 176.996 124.463 176.848C125.618 176.7 131.846 176.848 131.846 176.848L125.069 174.081C125.069 174.081 120.581 171.816 120.164 171.018C119.748 170.221 119.225 169.693 121.52 170.01C123.814 170.327 128.824 171.784 128.824 171.784L132.774 172.624L128.851 170.95C128.851 170.95 121.129 170.015 122.59 167.612H126.973C129.456 167.722 131.925 168.036 134.357 168.552C135.633 168.943 144.071 174.192 144.071 174.192" stroke="#333333" stroke-linecap="round" stroke-linejoin="round"/>
<path d="M126.032 179.947L133.743 181.083" stroke="#333333" stroke-linecap="round" stroke-linejoin="round"/>
<path d="M49.2217 203.578L68.5353 209.387L103.871 201.313C103.871 201.313 82.29 195.177 82.0896 195.33C81.8892 195.483 49.2217 203.578 49.2217 203.578Z" fill="white"/>
<path opacity="0.3" d="M49.2217 203.578L68.5353 209.387L103.871 201.313C103.871 201.313 82.29 195.177 82.0896 195.33C81.8892 195.483 49.2217 203.578 49.2217 203.578Z" fill="#333333"/>
<path d="M49.2217 203.578L68.5353 209.387L103.871 201.313C103.871 201.313 82.29 195.177 82.0896 195.33C81.8892 195.483 49.2217 203.578 49.2217 203.578Z" stroke="#333333" stroke-linecap="round" stroke-linejoin="round"/>
<path d="M49.5004 196.766C48.145 196.861 47.8075 201.751 49.2209 203.578L80.4222 197.094L82.9221 191.169L49.5004 196.766Z" fill="white"/>
<path opacity="0.3" d="M49.5004 196.766C48.145 196.861 47.8075 201.751 49.2209 203.578L80.4222 197.094L82.9221 191.169L49.5004 196.766Z" fill="#333333"/>
<path d="M49.5004 196.766C48.145 196.861 47.8075 201.751 49.2209 203.578L80.4222 197.094L82.9221 191.169L49.5004 196.766Z" stroke="#333333" stroke-linecap="round" stroke-linejoin="round"/>
<path d="M102.358 196.699C102.358 196.699 101.894 199.27 102.194 200.854L68.4984 208.49L50.7354 203.252C50.7354 203.252 48.8894 199.983 50.498 197.443L82.9546 191.925L102.358 196.699Z" fill="white" stroke="#333333" stroke-linecap="round" stroke-linejoin="round"/>
<path d="M49.502 196.765L82.9236 191.162L103.677 196.427L68.7733 203.392L49.502 196.765Z" fill="white" stroke="#333333" stroke-linecap="round" stroke-linejoin="round"/>
<path d="M50.6875 199.892L68.3609 205.157L97.289 199.327" stroke="#333333" stroke-linecap="round" stroke-linejoin="round"/>
<path d="M102.101 199.866L70.9941 206.515" stroke="#333333" stroke-linecap="round" stroke-linejoin="round"/>
<path d="M51.1035 201.967C51.3725 201.993 64.4258 206.017 64.4258 206.017" stroke="#333333" stroke-linecap="round" stroke-linejoin="round"/>
<path d="M99.5566 198.645L102.03 198.244" stroke="#333333" stroke-linecap="round" stroke-linejoin="round"/>
<path d="M67.7875 206.996L66.4795 206.7" stroke="#333333" stroke-linecap="round" stroke-linejoin="round"/>
<path d="M50.4968 197.441C51.1885 198.239 51.5887 199.249 51.6318 200.304C51.6749 201.36 51.3584 202.398 50.7342 203.25C50.1563 202.401 49.8278 201.406 49.7858 200.38C49.7439 199.353 49.9902 198.335 50.4968 197.441Z" fill="#333333"/>
<path opacity="0.3" d="M50.4968 197.441C51.1885 198.239 51.5887 199.249 51.6318 200.304C51.6749 201.36 51.3584 202.398 50.7342 203.25C50.1563 202.401 49.8278 201.406 49.7858 200.38C49.7439 199.353 49.9902 198.335 50.4968 197.441Z" fill="white" fill-opacity="0.7"/>
<path d="M50.4968 197.441C51.1885 198.239 51.5887 199.249 51.6318 200.304C51.6749 201.36 51.3584 202.398 50.7342 203.25C50.1563 202.401 49.8278 201.406 49.7858 200.38C49.7439 199.353 49.9902 198.335 50.4968 197.441Z" stroke="#333333" stroke-linecap="round" stroke-linejoin="round"/>
<path d="M122.683 205.157L156.41 206.546L153.124 218.169L111.639 216.585L122.683 205.157Z" fill="white"/>
<path opacity="0.4" d="M122.683 205.157L156.41 206.546L153.124 218.169L111.639 216.585L122.683 205.157Z" fill="white"/>
<path d="M122.683 205.157L156.41 206.546L153.124 218.169L111.639 216.585L122.683 205.157Z" stroke="#333333" stroke-linecap="round" stroke-linejoin="round"/>
</svg>
