<svg width="252" height="169" viewBox="0 0 252 169" fill="none" xmlns="http://www.w3.org/2000/svg">
<path d="M204.902 12.1953V112.565H204.479V12.2009L204.495 12.1953H204.902Z" fill="white" stroke="#333333" stroke-linecap="round" stroke-linejoin="round"/>
<path d="M204.495 12.1953L204.479 12.2009V112.565H47.6777V12.1953H204.495Z" fill="white" stroke="#333333" stroke-linecap="round" stroke-linejoin="round"/>
<path d="M204.902 12.2002H204.479V112.564H204.902V12.2002Z" fill="white" stroke="#333333" stroke-linecap="round" stroke-linejoin="round"/>
<path d="M251 1.00586V123.765L246.691 122.729L204.479 112.564V12.2007L204.495 12.1951L246.691 2.03571L251 1.00586Z" fill="white" stroke="#333333" stroke-linecap="round" stroke-linejoin="round"/>
<path d="M250.998 1.00586H246.689V123.765H250.998V1.00586Z" fill="white" stroke="#333333" stroke-linecap="round" stroke-linejoin="round"/>
<path d="M1 123.764L47.527 112.564V12.2004L1 1V123.764Z" fill="white" stroke="#333333" stroke-linecap="round" stroke-linejoin="round"/>
<path d="M1.00478 123.766H5.31348L5.31348 1.00675H1.00478L1.00478 123.766Z" fill="white" stroke="#333333" stroke-linecap="round" stroke-linejoin="round"/>
<path d="M200.134 106.98L52.7754 106.435V17.0322L200.134 17.5778V106.98Z" fill="#333333" stroke="#333333" stroke-linecap="round" stroke-linejoin="round"/>
<path d="M157.399 106.34H200.179C197.331 95.9058 191.221 86.6553 182.741 79.9405C174.26 73.2256 163.855 69.3983 153.044 69.0177C142.234 68.6372 131.584 71.7233 122.653 77.8252C113.721 83.9271 106.975 92.725 103.401 102.933C103.016 104.028 102.816 105.18 102.811 106.34H157.399Z" fill="white" stroke="#333333" stroke-linecap="round" stroke-linejoin="round"/>
<path d="M144.478 72.6453L138.087 76.4752V82.5987C138.087 82.5987 142.936 81.9418 144.484 79.292C144.484 79.292 143.159 78.7353 146.906 76.5086C150.653 74.2819 149.779 71.5263 144.478 72.6453Z" fill="white"/>
<path d="M134.333 72.6455H135.218L128.938 76.4087L127.941 77.4831L121.773 81.0347L120.559 82.5767L119.568 85.9947L116.261 88.6389L117.803 89.7523L114.279 94.1556H113.065L112.625 92.3909L115.27 86.8798L111.606 88.9339C111.606 88.9339 119.457 76.7037 134.333 72.6455Z" fill="white"/>
<path d="M103.239 105.922H112.147L112.464 101.887C112.464 101.887 111.908 101.113 111.997 100.773C112.086 100.434 113.11 95.045 113.11 95.045L111.407 90.4189L109.82 92.5065H108.857C106.313 96.6667 104.418 101.191 103.239 105.922Z" fill="white"/>
<path d="M133.232 77.4824H134.334V78.8352L133.232 79.492H132.241V78.49L133.232 77.4824Z" fill="white"/>
<path d="M126.51 80.1553L124.857 81.9199L124.417 83.4007L122.764 85.004L122.101 84.0131L120.888 85.004V83.9017L121.767 82.5824L126.51 80.1553Z" fill="white"/>
<path d="M157.478 106.158H165.017C167.038 106.158 179.319 106.052 179.319 106.052C180.372 102.294 180.873 97.8686 179.631 94.1499C178.022 89.3124 175.027 84.8478 174.064 81.903L174.03 81.8084C174.002 81.7193 173.98 81.6414 173.963 81.5634C173.874 81.1078 173.966 80.6352 174.219 80.2463C174.473 79.8575 174.869 79.583 175.322 79.4814C176.09 79.2643 177.549 80.1439 177.549 80.1439H180.36L177.437 78.4739L176.229 77.1935L175.455 76.5088L172.605 75.3064L172.716 74.4268C171.056 73.422 169.226 72.7295 167.316 72.3838L169.409 73.9815H167.182L166.742 76.4754H162.333C162.333 76.4754 163.447 76.1859 160.791 74.7274C158.135 73.2689 149.55 72.6454 149.55 72.6454L152.195 76.4754L146.438 79.7153L147.101 82.1368L151.042 81.0235V79.7041L153.492 78.2178L153.715 80.8063L154.589 81.9197L155.702 81.0402L158.809 84.1297L153.28 89.5128L152.395 82.5877L144.456 84.3468L138.087 91.8342C138.087 91.8342 145.798 94.701 148.665 96.4657C151.532 98.2304 151.065 101.994 151.065 101.994L155.719 104.616L154.901 106.158H157.478Z" fill="white"/>
<path d="M9.79002 113.326L43.8961 107.96L43.5175 14.7717L9.36133 7.91895L9.79002 113.326Z" fill="white" stroke="#333333" stroke-linecap="round" stroke-linejoin="round"/>
<path d="M23.8877 18.8203L31.6153 39.5789" stroke="#333333" stroke-linecap="round" stroke-linejoin="round"/>
<path d="M22.668 15.5459L23.4752 17.7114" stroke="#333333" stroke-linecap="round" stroke-linejoin="round"/>
<path d="M20.8262 10.5967L22.3069 14.5769" stroke="#333333" stroke-linecap="round" stroke-linejoin="round"/>
<path d="M20.3301 22.0986L30.4461 49.5707" stroke="#333333" stroke-linecap="round" stroke-linejoin="round"/>
<path d="M16.6553 12.1113L19.8172 20.6953" stroke="#333333" stroke-linecap="round" stroke-linejoin="round"/>
<path d="M23.8535 75.918L31.6869 97.9847" stroke="#333333" stroke-linecap="round" stroke-linejoin="round"/>
<path d="M241.919 113.326L207.812 107.96L208.186 14.7717L242.342 7.91895L241.919 113.326Z" fill="white" stroke="#333333" stroke-linecap="round" stroke-linejoin="round"/>
<path d="M227.622 20.3672L235.355 41.1313" stroke="#333333" stroke-linecap="round" stroke-linejoin="round"/>
<path d="M226.407 17.0996L227.209 19.2595" stroke="#333333" stroke-linecap="round" stroke-linejoin="round"/>
<path d="M224.068 23.6455L234.184 51.1176" stroke="#333333" stroke-linecap="round" stroke-linejoin="round"/>
<path d="M220.39 13.6592L223.552 22.2487" stroke="#333333" stroke-linecap="round" stroke-linejoin="round"/>
<path d="M227.594 77.4658L235.427 99.5326" stroke="#333333" stroke-linecap="round" stroke-linejoin="round"/>
<path d="M240.076 143.871H250.999" stroke="#333333" stroke-linecap="round" stroke-linejoin="round"/>
<path d="M231.019 143.871H235.539" stroke="#333333" stroke-linecap="round" stroke-linejoin="round"/>
<path d="M1 143.871H226.648" stroke="#333333" stroke-linecap="round" stroke-linejoin="round"/>
<path d="M231.164 46.4346C231.164 46.4346 222.161 56.9837 219.873 81.4497C217.585 105.916 214.957 123.757 214.957 123.757" stroke="#333333" stroke-width="2" stroke-linecap="round" stroke-linejoin="round"/>
<path d="M245.427 27.1294C245.765 27.0875 246.107 27.175 246.384 27.3742C246.66 27.5734 246.852 27.8697 246.919 28.2038C248.255 34.9952 254.029 67.6445 240.494 63.3358C229.265 59.7619 230 51.5509 231.113 47.5818C231.166 47.397 231.166 47.2011 231.112 47.0166C231.058 46.8322 230.953 46.6666 230.81 46.5392C230.666 46.4117 230.489 46.3275 230.299 46.2962C230.11 46.265 229.915 46.288 229.738 46.3626C225.356 48.1718 215.819 51.022 214.773 42.0762C213.559 31.7721 239.403 27.892 245.427 27.1294Z" fill="white"/>
<path d="M240.494 33.0703C237.791 36.1435 235.433 39.5037 233.463 43.0905" stroke="#333333" stroke-linecap="round" stroke-linejoin="round"/>
<path d="M244.614 29.0439C243.778 29.7155 242.984 30.4387 242.237 31.2094" stroke="#333333" stroke-linecap="round" stroke-linejoin="round"/>
<path d="M234.493 45.3554C234.493 45.3554 238.268 41.3918 247.527 43.1287" stroke="#333333" stroke-linecap="round" stroke-linejoin="round"/>
<path d="M230.378 31.9551C230.378 31.9551 228.664 36.7592 230.378 43.0887" stroke="#333333" stroke-linecap="round" stroke-linejoin="round"/>
<path d="M245.934 53.1924C246.529 53.7044 247.063 54.2834 247.526 54.9181" stroke="#333333" stroke-linecap="round" stroke-linejoin="round"/>
<path d="M233.463 48.7393C233.463 48.7393 239.687 49.0621 244.325 51.9958" stroke="#333333" stroke-linecap="round" stroke-linejoin="round"/>
<path d="M228.319 45.3552C228.319 45.3552 221.287 43.2732 219.572 37.5283" stroke="#333333" stroke-linecap="round" stroke-linejoin="round"/>
<path d="M205.821 81.8564C205.821 81.8564 210.971 87.8908 212.279 101.897C213.588 115.903 215.091 126.085 215.091 126.085" stroke="#333333" stroke-width="2" stroke-linecap="round" stroke-linejoin="round"/>
<path d="M198.148 71.435C197.955 71.4101 197.76 71.4595 197.602 71.5732C197.444 71.6869 197.335 71.8564 197.297 72.0474C196.528 75.9441 193.227 94.604 200.966 92.1435C207.39 90.1005 206.973 85.3965 206.333 83.1308C206.304 83.0248 206.305 82.9129 206.337 82.8077C206.368 82.7025 206.428 82.6081 206.51 82.5352C206.593 82.4623 206.694 82.4138 206.802 82.3951C206.91 82.3764 207.021 82.3883 207.123 82.4294C209.628 83.4704 215.079 85.0959 215.68 79.98C216.376 74.0848 201.595 71.8692 198.148 71.435Z" fill="white"/>
<path d="M200.971 74.8301C202.514 76.5926 203.861 78.5169 204.99 80.5694" stroke="#333333" stroke-linecap="round" stroke-linejoin="round"/>
<path d="M198.615 72.5273C199.092 72.9136 199.546 73.3281 199.974 73.7687" stroke="#333333" stroke-linecap="round" stroke-linejoin="round"/>
<path d="M204.4 81.8569C204.4 81.8569 202.24 79.5912 196.945 80.571" stroke="#333333" stroke-linecap="round" stroke-linejoin="round"/>
<path d="M206.756 74.1963C207.353 76.279 207.353 78.4875 206.756 80.5703" stroke="#333333" stroke-linecap="round" stroke-linejoin="round"/>
<path d="M197.858 86.3496C197.519 86.6436 197.213 86.974 196.945 87.3349" stroke="#333333" stroke-linecap="round" stroke-linejoin="round"/>
<path d="M204.99 83.8105C204.99 83.8105 201.427 83.9943 198.777 85.6754" stroke="#333333" stroke-linecap="round" stroke-linejoin="round"/>
<path d="M207.921 81.8568C207.921 81.8568 211.946 80.6655 212.931 77.4033" stroke="#333333" stroke-linecap="round" stroke-linejoin="round"/>
<path d="M230.122 76.2334C230.122 76.2334 221.837 85.9697 219.705 108.549C219.037 115.691 218.336 122.221 217.695 127.81" stroke="#333333" stroke-width="2" stroke-linecap="round" stroke-linejoin="round"/>
<path d="M245.923 69.1255C246.175 69.2099 246.384 69.3872 246.51 69.621C246.635 69.8548 246.666 70.1275 246.597 70.3836C245.216 75.5774 238.112 100.305 230.14 92.6897C223.526 86.3714 226.844 80.8937 228.97 78.5055C229.069 78.3932 229.134 78.2554 229.157 78.1079C229.181 77.9605 229.163 77.8093 229.105 77.6717C229.047 77.5341 228.951 77.4156 228.829 77.3297C228.707 77.2439 228.563 77.1941 228.414 77.1862C224.739 76.958 217.123 75.6943 219.439 69.0977C222.123 61.499 241.464 67.6058 245.923 69.1255Z" fill="white"/>
<path opacity="0.2" d="M245.923 69.1255C246.175 69.2099 246.384 69.3872 246.51 69.621C246.635 69.8548 246.666 70.1275 246.597 70.3836C245.216 75.5774 238.112 100.305 230.14 92.6897C223.526 86.3714 226.844 80.8937 228.97 78.5055C229.069 78.3932 229.134 78.2554 229.157 78.1079C229.181 77.9605 229.163 77.8093 229.105 77.6717C229.047 77.5341 228.951 77.4156 228.829 77.3297C228.707 77.2439 228.563 77.1941 228.414 77.1862C224.739 76.958 217.123 75.6943 219.439 69.0977C222.123 61.499 241.464 67.6058 245.923 69.1255Z" fill="#333333"/>
<path d="M240.461 71.5635C237.527 72.7897 234.736 74.3334 232.138 76.1672" stroke="#333333" stroke-linecap="round" stroke-linejoin="round"/>
<path d="M244.703 70.1826C243.892 70.3676 243.093 70.6019 242.31 70.884" stroke="#333333" stroke-linecap="round" stroke-linejoin="round"/>
<path d="M232.087 78.1099C232.087 78.1099 236.068 76.6291 241.941 80.9824" stroke="#333333" stroke-linecap="round" stroke-linejoin="round"/>
<path d="M233.785 67.3604C231.811 69.5502 230.494 72.2509 229.982 75.1539" stroke="#333333" stroke-linecap="round" stroke-linejoin="round"/>
<path d="M237.388 87.4854C237.626 88.0468 237.802 88.633 237.911 89.2333" stroke="#333333" stroke-linecap="round" stroke-linejoin="round"/>
<path d="M230.189 80.1309C230.189 80.1309 234.42 82.48 236.652 86.104" stroke="#333333" stroke-linecap="round" stroke-linejoin="round"/>
<path d="M227.784 76.0174C227.784 76.0174 223.587 72.1707 224.349 67.5781" stroke="#333333" stroke-linecap="round" stroke-linejoin="round"/>
<path d="M212.541 143.843H220.892C222.462 143.845 223.974 143.244 225.114 142.163C226.253 141.082 226.934 139.605 227.016 138.037L227.484 128.974C227.533 128.015 227.387 127.056 227.055 126.155C226.722 125.254 226.209 124.43 225.547 123.734C224.886 123.037 224.089 122.483 223.207 122.104C222.324 121.726 221.373 121.531 220.413 121.531H213.008C212.048 121.531 211.098 121.727 210.216 122.106C209.334 122.485 208.538 123.04 207.877 123.736C207.216 124.432 206.704 125.256 206.372 126.156C206.039 127.057 205.893 128.015 205.943 128.974L206.411 138.037C206.492 139.606 207.174 141.084 208.315 142.165C209.456 143.246 210.969 143.846 212.541 143.843Z" fill="white" stroke="#333333" stroke-linecap="round" stroke-linejoin="round"/>
<path d="M219.02 137.802H206.415" stroke="#333333" stroke-linecap="round" stroke-linejoin="round"/>
<path d="M227.043 137.802H222.856" stroke="#333333" stroke-linecap="round" stroke-linejoin="round"/>
<path d="M125.76 167.325C123.606 165.966 119.291 161.274 118.523 159.62C117.755 157.967 116.947 157.845 115.366 156.976C110.912 154.538 108.557 153.185 110.406 150.235C110.761 149.688 111.203 149.203 111.714 148.799C112.394 148.246 112.955 147.562 113.363 146.787C113.772 146.012 114.019 145.162 114.091 144.289C114.242 142.679 114.263 141.06 114.152 139.446C115.567 140.56 117.281 141.734 121.518 141.957L120.928 148.047C120.516 153.224 124.608 159.13 125.883 163.005C126.044 163.489 126.122 164.152 126.44 164.419C126.882 164.746 127.259 165.152 127.553 165.616C127.685 165.864 127.732 166.148 127.687 166.425C127.642 166.702 127.508 166.956 127.305 167.15C127.102 167.344 126.841 167.466 126.562 167.497C126.283 167.529 126.002 167.468 125.76 167.325Z" fill="white" stroke="#333333" stroke-linecap="round" stroke-linejoin="round"/>
<path d="M116.517 147.102C116.138 147.492 115.831 147.946 115.61 148.443C115.502 148.68 115.461 148.942 115.493 149.2C115.524 149.459 115.626 149.703 115.788 149.907" stroke="#333333" stroke-linecap="round" stroke-linejoin="round"/>
<path d="M117.427 156.971C117.521 158.641 120.004 161.786 121.145 163.022" stroke="#333333" stroke-linecap="round" stroke-linejoin="round"/>
<path d="M124.915 163.078C125.306 163.579 125.776 164.013 126.307 164.364" stroke="#333333" stroke-linecap="round" stroke-linejoin="round"/>
<path d="M115.031 155.719C113.72 155.666 112.458 155.198 111.43 154.383" stroke="#333333" stroke-linecap="round" stroke-linejoin="round"/>
<path d="M123.751 164.441C123.903 165.043 124.175 165.608 124.551 166.102C124.927 166.595 125.399 167.008 125.939 167.314" fill="white"/>
<path d="M123.751 164.441C123.903 165.043 124.175 165.608 124.551 166.102C124.927 166.595 125.399 167.008 125.939 167.314" stroke="#333333" stroke-linecap="round" stroke-linejoin="round"/>
<path d="M128.098 109.932L122.307 141.997C122.04 141.997 121.79 141.969 121.534 141.947C117.759 141.624 115.487 140.472 114.168 139.431C113.528 132.272 113.817 123.287 113.778 121.06C113.656 113.15 116.562 109.281 116.562 109.281C116.562 109.281 104.197 110.639 91.5085 110.918C87.8284 110.996 84.1149 110.984 80.6687 110.829C83.0181 109.893 87.383 104.894 88.5744 103.497C78.7145 111.903 70.3411 109.648 68.6152 109.003L68.8546 109.125L69.2555 109.32C68.2474 109.054 67.2739 108.671 66.3548 108.179C57.5026 103.169 58.3878 94.1783 59.1172 89.5969C59.1951 89.0847 59.2731 88.6282 59.3343 88.2441C59.3343 88.2441 65.1968 88.5893 73.4589 89.313C76.3484 89.569 79.5274 89.8696 82.8511 90.2092C87.3886 90.688 92.1932 91.2446 96.9033 91.9071C98.1059 92.063 99.2973 92.2467 100.478 92.4192C101.485 92.5695 102.487 92.731 103.467 92.8924C104.236 93.0149 104.982 93.1429 105.728 93.271L107.448 93.5827C107.632 93.6217 107.821 93.6551 108.005 93.6829C117.091 95.3919 124.373 97.5295 126.305 100.118C129.556 104.538 128.098 109.932 128.098 109.932Z" fill="#BFBFBF" stroke="#333333" stroke-linecap="round" stroke-linejoin="round"/>
<path d="M107.388 102.495C108.586 101.753 109.75 100.953 110.878 100.096" stroke="#333333" stroke-linecap="round" stroke-linejoin="round"/>
<path d="M79.7002 110.377C88.0536 110.419 96.2928 108.436 103.712 104.599" stroke="#333333" stroke-linecap="round" stroke-linejoin="round"/>
<path d="M128.388 106.102C128.131 109.987 126.457 113.644 123.684 116.378" stroke="#333333" stroke-linecap="round" stroke-linejoin="round"/>
<path d="M118.562 107.315L115.962 110.622" stroke="#333333" stroke-linecap="round" stroke-linejoin="round"/>
<path d="M88.5305 103.503C87.3391 104.9 82.9631 109.899 80.6248 110.834C76.1708 110.623 72.1567 110.166 69.2115 109.326L68.8107 109.131L68.5713 109.008C70.2972 109.654 78.6706 111.909 88.5305 103.503Z" fill="#333333" stroke="#333333" stroke-linecap="round" stroke-linejoin="round"/>
<path d="M68.1768 108.852C68.2981 108.888 68.4156 108.937 68.5275 108.996C68.4071 108.957 68.2899 108.909 68.1768 108.852Z" fill="#333333" stroke="#333333" stroke-linecap="round" stroke-linejoin="round"/>
<path d="M89.8893 102.276C89.4328 102.711 88.9763 103.117 88.5254 103.501L88.826 103.139L89.8893 102.276Z" fill="#333333" stroke="#333333" stroke-linecap="round" stroke-linejoin="round"/>
<path d="M163.379 111.646C160.852 112.142 154.427 111.674 152.734 110.973C151.042 110.271 150.346 110.756 148.581 111.206C143.632 112.481 140.942 113.133 140.258 109.681C140.152 109.032 140.152 108.37 140.258 107.722C140.375 106.844 140.314 105.952 140.079 105.099C139.844 104.246 139.439 103.449 138.888 102.756C137.883 101.468 136.777 100.262 135.581 99.1488C137.39 98.9929 139.478 98.67 142.741 95.9033L146.51 100.791C149.795 104.888 156.893 106.402 160.512 108.373C160.963 108.618 161.481 109.052 161.915 109.013C162.465 108.95 163.022 108.99 163.557 109.13C163.831 109.222 164.067 109.402 164.227 109.642C164.387 109.882 164.463 110.169 164.443 110.457C164.422 110.745 164.307 111.018 164.114 111.234C163.922 111.449 163.663 111.594 163.379 111.646Z" fill="white" stroke="#333333" stroke-linecap="round" stroke-linejoin="round"/>
<path d="M142.562 103.157C142.557 103.706 142.646 104.252 142.823 104.772C142.906 105.022 143.058 105.243 143.26 105.412C143.463 105.58 143.709 105.688 143.97 105.724" stroke="#333333" stroke-linecap="round" stroke-linejoin="round"/>
<path d="M150.057 109.792C151.287 110.961 155.289 111.551 156.982 111.674" stroke="#333333" stroke-linecap="round" stroke-linejoin="round"/>
<path d="M147.434 110.526C146.431 111.393 145.181 111.92 143.86 112.035" stroke="#333333" stroke-linecap="round" stroke-linejoin="round"/>
<path d="M160.282 110.982C160.739 111.308 161.265 111.525 161.819 111.617C162.372 111.708 162.94 111.672 163.478 111.511" fill="white"/>
<path d="M160.282 110.982C160.739 111.308 161.265 111.525 161.819 111.617C162.372 111.708 162.94 111.672 163.478 111.511" stroke="#333333" stroke-linecap="round" stroke-linejoin="round"/>
<path d="M143.336 95.4077C140.884 97.5117 137.868 98.8492 134.662 99.2544C129.234 94.4279 123.844 87.9426 122.202 86.3951C118.5 82.9102 116.44 75.3172 116.44 75.3172C116.44 75.3172 108.261 84.8809 99.0973 93.8657C91.6982 101.13 83.6421 108.033 78.6927 109.247C68.7159 111.691 63.1039 106.269 60.4482 102.405C60.1532 101.977 59.0508 98.7032 58.8281 98.3748C63.0697 96.104 67.0949 93.4506 70.8538 90.4477C73.1531 88.6385 75.6974 86.6567 78.3809 84.6137C82.0498 81.8303 85.9749 78.9133 89.8943 76.141C91.0078 75.9017 92.3384 75.5844 93.2905 75.3394C93.7151 75.2098 94.0875 74.9486 94.3539 74.5935L94.5264 74.6547L98.1286 70.8136C98.4412 70.6519 98.7192 70.4307 98.947 70.1623L99.3033 69.7615C107.176 64.7514 114.007 61.2721 117.225 61.8399C122.703 62.803 125.37 67.7908 125.37 67.7908L143.336 95.4077Z" fill="#BFBFBF" stroke="#333333" stroke-linecap="round" stroke-linejoin="round"/>
<path d="M99.3045 69.7783L98.9481 70.1791C98.7204 70.4475 98.4424 70.6688 98.1297 70.8304L94.5276 74.6715L94.355 74.6103C94.0886 74.9654 93.7162 75.2266 93.2916 75.3562C92.3396 75.6123 90.9812 75.9129 89.8955 76.1579C90.8921 75.4453 91.8942 74.7495 92.8852 74.0648C93.7315 73.4747 94.574 72.8994 95.4128 72.339L97.3336 71.0587L98.8145 70.0956C98.976 69.9954 99.143 69.8897 99.3045 69.7783Z" fill="white" stroke="#333333" stroke-linecap="round" stroke-linejoin="round"/>
<path d="M158.369 108.818C159.482 109.13 159.989 109.592 161.091 109.932C161.397 110.015 162.294 109.932 162.561 110.121C162.701 110.197 162.824 110.303 162.92 110.431C163.016 110.558 163.083 110.705 163.118 110.861C163.146 111.016 163.12 111.176 163.043 111.314C162.967 111.452 162.846 111.56 162.7 111.618" stroke="#333333" stroke-linecap="round" stroke-linejoin="round"/>
<path d="M159.938 108.663C160.793 109.213 161.796 109.483 162.811 109.437C163.057 109.426 163.3 109.497 163.502 109.639C163.703 109.781 163.852 109.986 163.924 110.222C164.015 110.423 164.035 110.648 163.98 110.862C163.926 111.076 163.8 111.264 163.624 111.396" stroke="#333333" stroke-linecap="round" stroke-linejoin="round"/>
<path d="M82.1224 72.2662L73.9049 75.2333L72.0732 70.4403L87.8625 65.5693C87.8625 65.5693 86.9216 67.1392 84.3828 70.9803C82.7571 73.4241 82.1224 72.2662 82.1224 72.2662Z" fill="white"/>
<path d="M82.1224 72.2662L73.9049 75.2333L72.0732 70.4403L87.8625 65.5693C87.8625 65.5693 86.9216 67.1392 84.3828 70.9803C82.7571 73.4241 82.1224 72.2662 82.1224 72.2662Z" fill="white" stroke="#333333" stroke-linecap="round" stroke-linejoin="round"/>
<path opacity="0.2" d="M74.3405 73.7473C74.4911 73.9522 74.6896 74.1172 74.9186 74.2278C75.1476 74.3384 75.4002 74.3913 75.6544 74.3819C76.1601 74.3563 76.6583 74.2492 77.1298 74.0646L81.7619 72.5393C82.4265 72.3587 83.058 72.073 83.6325 71.6931C84.8907 70.7635 88.7323 68.1972 85.904 68.6648C83.4042 69.06 73.9563 73.1349 74.3405 73.7473Z" fill="#333333"/>
<path d="M82.1224 72.2662L73.9049 75.2333L72.0732 70.4403L87.8625 65.5693C87.8625 65.5693 86.9216 67.1392 84.3828 70.9803C82.7571 73.4241 82.1224 72.2662 82.1224 72.2662Z" stroke="#333333" stroke-linecap="round" stroke-linejoin="round"/>
<path d="M61.7569 44.5829C61.9462 45.3957 60.7492 46.6649 59.9141 46.5814C59.0928 46.4003 58.3489 45.9661 57.7874 45.34L52.8212 40.8253C52.4781 40.5733 52.2182 40.2243 52.0752 39.8233C52.0331 39.6629 52.0397 39.4935 52.0943 39.3369C52.1488 39.1802 52.2488 39.0434 52.3814 38.9438C52.4541 38.9166 52.5285 38.8942 52.6041 38.877H52.7266C53.4348 38.1666 53.9875 37.3168 54.3498 36.3815C54.7121 35.4462 54.876 34.4458 54.8311 33.4438C56.5013 33.1543 58.1994 34.0394 59.3351 35.3031C60.4709 36.5667 62.5976 36.4164 63.2323 38.003C62.6366 38.4093 61.0053 40.9645 60.7548 41.6548C60.6631 41.8998 60.6069 42.1566 60.5878 42.4174C60.5473 42.9112 60.6156 43.4078 60.7878 43.8724C60.9599 44.3369 61.2319 44.758 61.5844 45.1062L61.7569 44.5829Z" fill="white" stroke="#333333" stroke-linecap="round" stroke-linejoin="round"/>
<path d="M78.3812 87.2418C76.0249 89.9326 73.8365 92.7659 71.8283 95.7256C69.1281 97.5348 65.3868 99.0657 60.2314 99.8506L59.825 99.9118C57.1303 100.268 55.5269 88.6391 54.7753 81.2686C54.4357 77.8729 54.2743 75.3846 54.2743 75.3846C54.2743 75.3846 46.5355 64.4848 45.6447 54.2029C45.5597 53.3093 45.5355 52.411 45.5724 51.5142C45.7338 47.456 46.7527 44.6614 47.9608 42.7632C48.9868 41.0366 50.5516 39.6948 52.4147 38.9443C52.2821 39.044 52.1821 39.1808 52.1276 39.3375C52.0731 39.4941 52.0664 39.6635 52.1085 39.8239C52.1741 40.0522 52.2924 40.2619 52.4537 40.4362L52.5706 40.5587C52.6597 40.6533 52.7599 40.7424 52.8546 40.8259L54.8421 42.6351L57.8207 45.3406C58.3823 45.9667 59.1261 46.4008 59.9475 46.582C60.7826 46.671 61.9796 45.3962 61.7903 44.5835L61.6567 45.0734C61.3046 44.7261 61.0329 44.3059 60.8607 43.8423C60.6886 43.3787 60.6201 42.8831 60.6601 42.3902C60.6786 42.1274 60.7349 41.8687 60.8271 41.622C61.5778 42.3311 62.2295 43.1381 62.7646 44.0213C65.2532 48.0794 69.7628 53.6685 72.5131 56.9585C73.4343 58.0467 74.0278 59.3739 74.2249 60.7859C74.422 62.1979 74.2145 63.6368 73.6266 64.9357L73.5932 65.0081C72.5966 67.0956 73.3872 69.5172 73.5598 69.9903L73.5932 70.0738L75.1521 74.8L77.6407 82.4822L78.1028 83.885C78.4692 84.9643 78.5647 86.117 78.3812 87.2418Z" fill="white"/>
<path opacity="0.2" d="M65.3425 60.3185C66.4177 61.6324 67.2903 63.0997 67.9313 64.6717C68.4881 66.2694 68.5215 68.1399 67.614 69.5705C69.5995 68.6287 71.5027 67.5226 73.3039 66.2638C72.6096 68.6045 71.3295 70.7294 69.5849 72.4374C68.3044 73.6899 66.3279 74.7254 64.7857 73.8069C63.4718 73.0164 62.7648 71.6302 62.4029 70.1328C60.304 61.5488 60.304 59.6672 59.4521 52.4248C61.6067 54.8185 63.4106 57.7133 65.3425 60.3185Z" fill="#333333"/>
<path opacity="0.2" d="M54.698 82.3136C54.6087 84.1478 54.7736 85.9856 55.1879 87.7746C55.3988 88.669 55.7907 89.5107 56.3394 90.2479C56.888 90.9851 57.5818 91.6022 58.3781 92.0611C60.2654 93.0185 62.5536 92.6845 64.5746 92.0611C66.5956 91.4376 68.5664 90.5079 70.6988 90.352C69.3436 91.8709 67.6793 93.0824 65.8174 93.9052C63.9555 94.7281 61.9391 95.1432 59.9035 95.1228C60.5524 95.6587 61.3194 96.0326 62.1413 96.2136C62.9632 96.3946 63.8163 96.3775 64.6303 96.1638C62.7514 97.597 60.5081 98.4746 58.1554 98.6967C59.319 100.127 61.5292 100.016 63.3052 99.5372C66.7666 98.586 69.9435 96.8044 72.5602 94.3471C75.1769 91.8899 77.1542 88.8312 78.3206 85.4366C78.5878 84.6294 78.6658 83.4771 77.8696 83.1709C77.4699 83.0663 77.0462 83.1057 76.6726 83.2822L61.7798 88.3369C60.7052 88.6987 59.4247 89.0327 58.5172 88.3369C58.1086 87.9779 57.7901 87.5279 57.5875 87.0231C56.7004 85.2529 55.817 83.4789 54.9374 81.7013L54.6312 82.4027C54.5811 81.7458 54.5254 81.0833 54.4697 80.4209" fill="#333333"/>
<path d="M78.3812 87.2418C76.0249 89.9326 73.8365 92.7659 71.8283 95.7256C69.1281 97.5348 65.3868 99.0657 60.2314 99.8506L59.825 99.9118C57.1303 100.268 55.5269 88.6391 54.7753 81.2686C54.4357 77.8729 54.2743 75.3846 54.2743 75.3846C54.2743 75.3846 46.5355 64.4848 45.6447 54.2029C45.5597 53.3093 45.5355 52.411 45.5724 51.5142C45.7338 47.456 46.7527 44.6614 47.9608 42.7632C48.9868 41.0366 50.5516 39.6948 52.4147 38.9443C52.2821 39.044 52.1821 39.1808 52.1276 39.3375C52.0731 39.4941 52.0664 39.6635 52.1085 39.8239C52.1741 40.0522 52.2924 40.2619 52.4537 40.4362L52.5706 40.5587C52.6597 40.6533 52.7599 40.7424 52.8546 40.8259L54.8421 42.6351L57.8207 45.3406C58.3823 45.9667 59.1261 46.4008 59.9475 46.582C60.7826 46.671 61.9796 45.3962 61.7903 44.5835L61.6567 45.0734C61.3046 44.7261 61.0329 44.3059 60.8607 43.8423C60.6886 43.3787 60.6201 42.8831 60.6601 42.3902C60.6786 42.1274 60.7349 41.8687 60.8271 41.622C61.5778 42.3311 62.2295 43.1381 62.7646 44.0213C65.2532 48.0794 69.7628 53.6685 72.5131 56.9585C73.4343 58.0467 74.0278 59.3739 74.2249 60.7859C74.422 62.1979 74.2145 63.6368 73.6266 64.9357L73.5932 65.0081C72.5966 67.0956 73.3872 69.5172 73.5598 69.9903L73.5932 70.0738L75.1521 74.8L77.6407 82.4822L78.1028 83.885C78.4692 84.9643 78.5647 86.117 78.3812 87.2418V87.2418Z" stroke="#333333" stroke-linecap="round" stroke-linejoin="round"/>
<path d="M52.5869 38.8652C52.5086 38.8703 52.4325 38.8932 52.3643 38.932" stroke="#333333" stroke-linecap="round" stroke-linejoin="round"/>
<path d="M54.8145 33.4211L54.8701 33.332V33.41L54.8145 33.4211Z" stroke="#333333" stroke-linecap="round" stroke-linejoin="round"/>
<path d="M52.7492 38.8438C52.6522 38.9491 52.548 39.0477 52.4375 39.1388" stroke="#333333" stroke-linecap="round" stroke-linejoin="round"/>
<path d="M112.281 54.7084L110.8 56.2893L110.422 56.6957L110.004 57.141L109.781 57.3748C106.675 60.7149 101.475 66.2817 99.0531 69.0261L98.6967 69.4269C98.469 69.6953 98.191 69.9166 97.8783 70.0783C97.6328 70.2115 97.361 70.2894 97.0822 70.3065C96.7155 70.335 96.347 70.2838 96.0021 70.1562C95.5203 69.9731 95.0682 69.7198 94.6604 69.4047C93.9807 68.8723 93.3593 68.2696 92.8064 67.6066C92.5837 67.3505 92.3721 67.0833 92.1717 66.8273C91.8265 66.3763 91.5148 65.9366 91.2475 65.5469C90.6908 64.7286 90.3623 64.1385 90.3623 64.1385L91.1584 63.3035L91.2642 63.1977L95.4064 58.8667L109.475 44.1704C111.129 43.0515 112.281 54.7084 112.281 54.7084Z" fill="white" stroke="#333333" stroke-linecap="round" stroke-linejoin="round"/>
<path d="M109.17 45.8135L93.4419 62.3468C93.4419 62.3468 92.6235 63.4602 93.4419 64.0169C94.2603 64.5736 107.572 49.4375 107.572 49.4375C107.572 49.4375 110.061 50.3615 110.818 51.6642C111.575 52.9668 108.908 48.7527 109.148 45.8469" fill="#BFBFBF"/>
<path d="M109.17 45.8135L93.4419 62.3468C93.4419 62.3468 92.6235 63.4602 93.4419 64.0169C94.2603 64.5736 107.572 49.4375 107.572 49.4375C107.572 49.4375 110.061 50.3615 110.818 51.6642C111.575 52.9668 108.908 48.7527 109.148 45.8469" stroke="#333333" stroke-linecap="round" stroke-linejoin="round"/>
<path d="M111.943 53.6292C111.943 53.6292 109.872 50.1778 109.455 48.5245C109.211 47.6428 109.115 46.7266 109.171 45.8135L110.607 46.0083C111.395 48.4764 111.845 51.0402 111.943 53.6292Z" fill="#BFBFBF"/>
<path d="M111.943 53.6292C111.943 53.6292 109.872 50.1778 109.455 48.5245C109.211 47.6428 109.115 46.7266 109.171 45.8135L110.607 46.0083C111.395 48.4764 111.845 51.0402 111.943 53.6292" stroke="#333333" stroke-linecap="round" stroke-linejoin="round"/>
<path d="M112.198 54.3686L107.071 51.73L94.5383 64.8398L93.4248 63.4425L106.698 49.1748C108.003 49.473 109.195 50.1395 110.133 51.0953C111.109 51.9756 111.824 53.1082 112.198 54.3686Z" fill="#BFBFBF" stroke="#333333" stroke-linecap="round" stroke-linejoin="round"/>
<path d="M112.281 54.7086L110.8 56.2896L110.422 56.696L110.004 57.1413L109.782 57.3751L98.5522 69.3493L97.8674 70.0841L94.2652 73.9252L94.0926 73.864L92.6228 73.3184L87.8516 71.5482L92.1608 66.8331L93.8755 64.9571L93.8978 64.9348L94.2597 64.5396L94.9667 63.7658L106.308 51.3574L112.281 54.7086Z" fill="white" stroke="#333333" stroke-linecap="round" stroke-linejoin="round"/>
<path d="M82.1217 72.1322C82.1217 72.1322 69.8066 77.3093 64.4953 77.5487C64.4953 77.5487 61.1882 68.3913 59.2285 52.075C58.2987 44.3483 50.7938 46.5806 50.7938 46.5806C50.6602 46.6586 43.2778 49.8539 46.2731 60.1191C49.2684 70.3842 58.2876 88.7101 58.2876 88.7101C64.9722 87.8944 71.4462 85.8404 77.3783 82.6534L84.371 78.8903C84.371 78.8903 83.2074 74.8599 82.1217 72.1322Z" fill="white"/>
<path opacity="0.2" d="M48.69 60.2094C50.544 62.6867 52.9213 64.7185 55.0647 66.9508C55.6084 67.4146 55.9841 68.0446 56.1337 68.7433C56.2061 69.4447 55.8386 70.1072 55.6604 70.7919C55.1037 72.8071 56.2729 74.8668 57.5478 76.5146C58.8228 78.1623 60.3315 79.7934 60.6823 81.842C60.8103 82.5657 60.7992 83.3506 61.1945 83.9685C61.9461 85.132 63.6497 85.0819 64.997 84.7479C71.4942 83.2393 77.3233 79.1811 83.9652 78.5297C76.9104 82.8624 69.2985 86.2147 61.3392 88.4943C60.2257 88.8172 58.9452 89.1011 57.9375 88.4943C57.0968 88.01 56.6737 87.0525 56.3007 86.1618L48.807 68.1811C47.6614 65.6035 46.714 62.9422 45.9731 60.2206C45.4999 58.3279 44.3641 53.8355 45.6725 52.21C46.1903 53.2343 46.0511 54.9934 46.4909 56.2347C47.0259 57.6599 47.7668 58.999 48.69 60.2094Z" fill="#333333"/>
<path d="M82.1217 72.1322C82.1217 72.1322 69.8066 77.3093 64.4953 77.5487C64.4953 77.5487 61.1882 68.3913 59.2285 52.075C58.2987 44.3483 50.7938 46.5806 50.7938 46.5806C50.6602 46.6586 43.2778 49.8539 46.2731 60.1191C49.2684 70.3842 58.2876 88.7101 58.2876 88.7101C64.9722 87.8944 71.4462 85.8404 77.3783 82.6534L84.371 78.8903C84.371 78.8903 83.2074 74.8599 82.1217 72.1322Z" stroke="#333333" stroke-linecap="round" stroke-linejoin="round"/>
<path d="M97.7845 66.6227L96.6042 67.0848C96.6042 67.0848 96.9271 69.2725 96.3982 69.6789C96.2646 69.8459 96.131 70.0073 95.9918 70.1632C95.7909 70.3976 95.5752 70.6188 95.346 70.8256C95.3014 71.026 95.2402 71.2933 95.1511 71.5939C94.9482 72.412 94.589 73.1833 94.0933 73.8651C93.8269 74.2202 93.4545 74.4814 93.0299 74.6111C92.0779 74.8671 90.7194 75.1677 89.6338 75.4127L87.8467 75.7912L84.1499 77.8788L83.5375 76.2087L82.1289 72.312H82.1734C82.7269 72.0968 83.2598 71.8322 83.7657 71.5215C83.9836 71.3578 84.1833 71.1711 84.3614 70.9648C85.4618 69.5525 86.4379 68.0475 87.2788 66.4668L87.3957 66.2497L87.7631 65.5762C87.9469 65.2477 88.0749 65.0195 88.1362 64.9137C89.1049 64.4016 90.1683 63.8004 91.137 63.2938C92.0946 62.7983 92.6346 63.2938 94.4106 62.9932C94.9117 62.9932 95.0342 63.3494 94.9674 63.7558C94.8284 64.0805 94.5802 64.3463 94.2659 64.5073C93.7124 64.792 93.125 65.0052 92.5177 65.1419L93.8817 64.9248L94.5832 64.8135H94.6834L95.6299 64.6632H95.6633L96.543 64.524H96.6098H96.6655L98.3691 64.6409H98.4192L99.2877 64.7022C99.2887 64.7226 99.2887 64.743 99.2877 64.7634C99.4158 65.0974 99.8166 66.5448 97.7845 66.6227Z" fill="white" stroke="#333333" stroke-linecap="round" stroke-linejoin="round"/>
<path d="M91.7316 67.9902C94.404 66.9659 96.2412 66.8768 97.7834 66.6207C98.028 66.6865 98.2863 66.6811 98.5279 66.6052C98.7695 66.5292 98.9845 66.3859 99.1474 66.1921C99.3028 65.9821 99.3974 65.7334 99.421 65.4732C99.4446 65.213 99.3962 64.9514 99.2811 64.7169C98.1676 64.7169 97.0263 64.3773 95.9406 64.6167C94.1869 65.0064 92.7727 64.8505 90.6738 65.7802" stroke="#333333" stroke-linecap="round" stroke-linejoin="round"/>
<path d="M93.0303 72.266C93.879 71.9181 94.6636 71.4308 95.3516 70.8242" stroke="#333333" stroke-linecap="round" stroke-linejoin="round"/>
<path d="M92.501 70.0353C93.9029 69.7044 95.2695 69.2383 96.5814 68.6436" stroke="#333333" stroke-linecap="round" stroke-linejoin="round"/>
<path d="M88.7764 64.4455C89.0603 64.4455 91.2313 59.6915 91.2313 59.6915C91.2313 59.6915 94.538 59.775 95.4175 58.8564C95.4175 58.8564 96.2581 60.5265 94.5436 61.0442C92.829 61.5619 91.1478 63.3099 91.1478 63.3099L88.7764 64.4455Z" fill="white" stroke="#333333" stroke-linecap="round" stroke-linejoin="round"/>
<path d="M59.2685 37.2786C59.769 38.0617 60.4948 38.6749 61.3505 39.0377C62.23 39.3105 63.3991 38.8317 63.4937 37.9243C63.5716 37.1283 62.8702 36.4937 62.2356 36.0094C61.4618 35.4137 57.5094 31.6951 56.6966 32.185C55.6222 32.8196 58.8065 36.6495 59.2685 37.2786Z" fill="#333333" stroke="#333333" stroke-linecap="round" stroke-linejoin="round"/>
<path d="M70.7088 18.7584C71.1199 20.0185 71.4509 21.3033 71.6998 22.6051C71.9225 24.136 71.3713 26.7969 71.4492 27.2645C71.5272 27.7321 73.2197 30.6936 73.1195 31.2169C73.0193 31.7402 70.8925 32.4249 70.8925 32.4249C70.8925 32.4249 69.779 35.9097 69.1109 37.3515C68.4428 38.7933 68.3927 39.6562 66.4163 39.2776C64.4399 38.8991 61.8788 37.6076 58.8223 35.3085C55.7658 33.0094 52.8874 31.3728 52.8429 27.7989C52.7984 24.225 63.8107 17.7007 65.2917 17.0327C66.7726 16.3647 70.7088 18.7584 70.7088 18.7584Z" fill="white" stroke="#333333" stroke-linecap="round" stroke-linejoin="round"/>
<path d="M70.1362 27.1141C69.9859 27.7933 69.6408 28.2887 69.3791 28.2275C69.1175 28.1662 68.995 27.5595 69.1453 26.8859C69.2956 26.2123 69.6519 25.7057 69.908 25.7725C70.164 25.8393 70.2921 26.4294 70.1362 27.1141Z" fill="#333333"/>
<path d="M68.0664 25.0381C68.0664 25.0381 69.4859 22.6945 70.8498 23.8302" stroke="#333333" stroke-linecap="round" stroke-linejoin="round"/>
<path d="M70.1644 33.6223C70.1644 33.6223 68.1771 34.0621 67.459 32.3643" stroke="#333333" stroke-linecap="round" stroke-linejoin="round"/>
<path d="M60.5762 10.3252C55.9664 10.6314 51.7351 11.1881 48.4392 14.222C42.315 19.889 45.3827 27.137 46.3459 29.3247C47.0529 30.9391 48.3334 32.3085 48.8568 33.9841C49.3801 35.6597 48.6897 37.8809 46.8748 38.1926C47.2511 38.6105 47.7752 38.8657 48.3363 38.9041C48.8974 38.9426 49.4514 38.7613 49.8812 38.3986C49.4369 40.1155 48.4979 41.6641 47.181 42.852C48.2303 42.8118 49.2596 42.5529 50.203 42.0918C51.1464 41.6307 51.983 40.9776 52.6593 40.1744L51.4234 44.2437C53.6503 43.2918 55.9497 42.2842 57.4974 40.5084C59.0452 38.7326 59.5796 35.9436 58.0542 34.14C57.1912 33.1268 55.8662 32.6035 54.7137 31.8687C53.5612 31.1339 52.5368 29.9593 52.7762 28.6901C52.9039 28.2081 53.1897 27.7828 53.5878 27.4826C53.986 27.1823 54.4734 27.0243 54.972 27.0339C55.4706 27.0435 55.9515 27.2202 56.3377 27.5356C56.724 27.8511 56.9931 28.287 57.1021 28.7736C59.0577 25.9733 61.5734 23.6095 64.4901 21.8318C64.1787 24.0706 63.3723 26.2119 62.1295 28.1C62.3466 27.7716 65.225 27.187 65.7539 26.931C66.9681 26.3383 68.0926 25.5775 69.0943 24.6709C71.019 22.9602 72.396 20.7197 73.0528 18.2301C74.2999 13.2088 64.8798 10.0413 60.5762 10.3252Z" fill="#333333" stroke="#333333" stroke-linecap="round" stroke-linejoin="round"/>
<path d="M66.2119 29.0176H66.3065" stroke="#333333" stroke-linecap="round" stroke-linejoin="round"/>
<path d="M67.1025 30.0094V29.9092" stroke="#333333" stroke-linecap="round" stroke-linejoin="round"/>
<path d="M67.7373 29.1178V29.0176" stroke="#333333" stroke-linecap="round" stroke-linejoin="round"/>
<path d="M115.739 71.3213C115.963 73.588 116.613 75.7921 117.654 77.8177" stroke="#333333" stroke-linecap="round" stroke-linejoin="round"/>
<path d="M87.5671 77.8174C84.2267 81.1575 81.0755 84.3973 78.3809 87.2475L78.5312 86.7354C78.7416 86.0393 78.6881 85.2902 78.3809 84.6311L87.5671 77.8174Z" fill="#333333" stroke="#333333" stroke-linecap="round" stroke-linejoin="round"/>
<path d="M122.129 64.5283C124.622 66.7728 126.249 69.8201 126.727 73.1401" stroke="#333333" stroke-linecap="round" stroke-linejoin="round"/>
<path d="M60.7441 81.6514C61.768 79.8201 63.2861 78.3135 65.1252 77.3037" stroke="#333333" stroke-linecap="round" stroke-linejoin="round"/>
<path d="M66.1055 70.1341C68.7764 69.3458 71.182 67.8447 73.064 65.792" stroke="#333333" stroke-linecap="round" stroke-linejoin="round"/>
<path d="M62.3586 54.8213C62.3586 55.4281 62.3586 56.0404 62.3252 56.6472" stroke="#333333" stroke-linecap="round" stroke-linejoin="round"/>
<path d="M60.7441 61.4221C61.5569 58.8558 61.2452 55.2374 61.273 52.8381C61.2564 52.6804 61.298 52.522 61.3899 52.3927C61.4354 52.3556 61.488 52.3281 61.5444 52.3118C61.6009 52.2956 61.66 52.291 61.7183 52.2983C61.7766 52.3056 61.8328 52.3246 61.8835 52.3542C61.9342 52.3839 61.9784 52.4235 62.0134 52.4707C62.1518 52.6644 62.2294 52.8951 62.236 53.1331C62.2573 53.2527 62.2703 53.3736 62.275 53.495" stroke="#333333" stroke-linecap="round" stroke-linejoin="round"/>
<path d="M67.3913 91.4946C70.3504 90.1542 72.8917 88.0383 74.7459 85.3711C74.5083 86.989 73.9491 88.5429 73.1013 89.9412C72.2534 91.3395 71.1341 92.5539 69.8094 93.5127C68.4846 94.4716 66.9812 95.1554 65.3879 95.5239C63.7945 95.8925 62.1435 95.9382 60.5322 95.6585" stroke="#333333" stroke-linecap="round" stroke-linejoin="round"/>
<path d="M63.3838 92.809C63.9794 92.681 64.564 92.5307 65.1429 92.3525" stroke="#333333" stroke-linecap="round" stroke-linejoin="round"/>
<path d="M49.6592 65.792C50.1254 66.4396 50.6389 67.0518 51.1956 67.6235" stroke="#333333" stroke-linecap="round" stroke-linejoin="round"/>
<path d="M45.5898 55.7275C45.9627 58.8657 47.046 61.8775 48.7573 64.5342" stroke="#333333" stroke-linecap="round" stroke-linejoin="round"/>
<path d="M80.1963 85.2324C79.5783 85.8893 78.977 86.5629 78.3813 87.242C76.025 89.9328 73.8366 92.7661 71.8285 95.7258C70.8041 97.2103 69.8316 98.743 68.9111 100.324" stroke="#333333" stroke-linecap="round" stroke-linejoin="round"/>
<path d="M58.1552 31.4678C57.9715 32.8984 58.595 35.487 62.7144 37.8306" stroke="#333333" stroke-linecap="round" stroke-linejoin="round"/>
</svg>
