<svg width="18" height="18" viewBox="0 0 18 18" fill="none" xmlns="http://www.w3.org/2000/svg">
<path d="M8.99908 0.85C6.54449 0.85 4.54141 2.85309 4.54141 5.30768C4.54141 7.76226 6.54449 9.76535 8.99908 9.76535C11.4537 9.76535 13.4568 7.76226 13.4568 5.30768C13.4568 2.85309 11.4537 0.85 8.99908 0.85ZM8.99908 2.38076C10.6229 2.38076 11.926 3.68388 11.926 5.30768C11.926 6.93147 10.6229 8.23459 8.99908 8.23459C7.37529 8.23459 6.07217 6.93147 6.07217 5.30768C6.07217 3.68388 7.37529 2.38076 8.99908 2.38076Z" fill="#3662C1" stroke="#3662C1" stroke-width="0.3"/>
<path d="M0.850003 16.3847V16.3847C0.850003 16.3694 0.850002 16.3541 0.850001 16.3388C0.849938 15.627 0.849875 14.9206 0.986305 14.2352C1.12676 13.5296 1.43648 12.828 2.03474 12.2702L0.850003 16.3847ZM0.850003 16.3847C0.850024 16.5877 0.930667 16.7824 1.0742 16.9259C1.21773 17.0694 1.41239 17.1501 1.61537 17.1501H1.61539M0.850003 16.3847L1.61539 17.1501M1.61539 17.1501H16.3846H16.3846M1.61539 17.1501H16.3846M16.3846 17.1501C16.5876 17.1501 16.7822 17.0694 16.9257 16.9259C17.0693 16.7824 17.1499 16.5877 17.1499 16.3847V16.3569C17.15 15.6562 17.15 14.9525 17.0124 14.2651C16.8719 13.5634 16.5646 12.8614 15.9682 12.2995L15.8653 12.4087M16.3846 17.1501L15.8653 12.4087M15.8653 12.4087L15.9682 12.2995C14.7846 11.1846 12.7266 10.6962 9.00013 10.6962H8.98669M15.8653 12.4087L8.98669 10.6962M8.98669 10.6962L8.98634 10.6963M8.98669 10.6962L8.98634 10.6963M8.98634 10.6963C5.27123 10.6974 3.21988 11.1649 2.03475 12.2702L8.98634 10.6963ZM8.99979 12.227C10.7986 12.227 12.1114 12.3635 13.0604 12.582C14.0109 12.8007 14.5849 13.099 14.9186 13.4133C15.2507 13.7263 15.4135 14.0767 15.5114 14.5656C15.5652 14.8346 15.5712 15.1824 15.5775 15.5479C15.5779 15.5716 15.5784 15.5954 15.5788 15.6193H2.41952C2.4199 15.5974 2.42027 15.5755 2.42064 15.5537C2.42711 15.1733 2.43328 14.8103 2.48824 14.5342C2.58613 14.0424 2.74782 13.6977 3.078 13.3899C3.40982 13.0805 3.98363 12.7879 4.93531 12.5738C5.88531 12.36 7.19976 12.227 8.99974 12.227H8.99979Z" fill="#3662C1" stroke="#3662C1" stroke-width="0.3"/>
</svg>
