<svg width="24" height="24" viewBox="0 0 24 24" fill="none" xmlns="http://www.w3.org/2000/svg">
<path d="M12 0C5.38277 0 0 5.38277 0 12C0 18.6172 5.38277 24 12 24C18.6172 24 24 18.6172 24 12C24 5.38277 18.6172 0 12 0ZM12 1.71429C17.6908 1.71429 22.2857 6.30917 22.2857 12C22.2857 17.6908 17.6908 22.2857 12 22.2857C6.30917 22.2857 1.71429 17.6908 1.71429 12C1.71429 6.30917 6.30917 1.71429 12 1.71429Z" fill="black"/>
<path d="M11.9872 5.98817C11.7601 5.99171 11.5438 6.0852 11.3856 6.2481C11.2274 6.411 11.1403 6.63 11.1434 6.85705V10.5183C10.8849 10.669 10.6702 10.8851 10.521 11.1451C10.3718 11.4051 10.2931 11.6999 10.293 11.9999C10.293 12.4544 10.4729 12.8904 10.7931 13.2118C11.1133 13.5333 11.5476 13.714 12.0006 13.7142C12.1504 13.7143 12.2995 13.6946 12.4442 13.6556L15.0307 16.2421C15.1097 16.3242 15.2043 16.3897 15.309 16.4348C15.4136 16.4799 15.5262 16.5037 15.6401 16.5048C15.7541 16.5059 15.8671 16.4842 15.9726 16.4411C16.078 16.398 16.1739 16.3343 16.2544 16.2537C16.335 16.1732 16.3987 16.0773 16.4418 15.9719C16.4849 15.8664 16.5065 15.7534 16.5055 15.6394C16.5044 15.5255 16.4806 15.4129 16.4355 15.3083C16.3904 15.2037 16.3249 15.1091 16.2428 15.03L13.6496 12.4368C13.6878 12.2943 13.7075 12.1475 13.7082 11.9999C13.708 11.6998 13.6294 11.4051 13.4802 11.1451C13.3309 10.8851 13.1163 10.669 12.8578 10.5183V6.85703C12.8593 6.74235 12.8379 6.62852 12.7947 6.52229C12.7515 6.41605 12.6874 6.31957 12.6062 6.23855C12.525 6.15753 12.4284 6.09362 12.3221 6.05061C12.2158 6.00759 12.1019 5.98635 11.9872 5.98814L11.9872 5.98817Z" fill="black"/>
</svg>
