<svg width="36" height="36" viewBox="0 0 36 36" fill="none" xmlns="http://www.w3.org/2000/svg">
<path d="M15.7578 21.3715L21.613 17.9992L15.7578 14.627V21.3715Z" fill="#2A2A2A"/>
<path d="M18 0C8.06039 0 0 8.06039 0 18C0 27.9396 8.06039 36 18 36C27.9396 36 36 27.9396 36 18C36 8.06039 27.9396 0 18 0ZM29.2473 18.0184C29.2473 18.0184 29.2473 21.6689 28.7842 23.4292C28.5246 24.3927 27.7649 25.1524 26.8014 25.4117C25.0411 25.875 18 25.875 18 25.875C18 25.875 10.9773 25.875 9.19858 25.3932C8.23508 25.134 7.47537 24.374 7.21582 23.4105C6.75247 21.6689 6.75247 18 6.75247 18C6.75247 18 6.75247 14.3498 7.21582 12.5895C7.4751 11.626 8.25348 10.8476 9.19858 10.5883C10.9589 10.125 18 10.125 18 10.125C18 10.125 25.0411 10.125 26.8014 10.6068C27.7649 10.866 28.5246 11.626 28.7842 12.5895C29.2659 14.3498 29.2473 18.0184 29.2473 18.0184Z" fill="#2A2A2A"/>
</svg>
