<svg width="687" height="368" viewBox="0 0 687 368" fill="none" xmlns="http://www.w3.org/2000/svg">
<path d="M24.3923 366C24.3923 366 -52.6405 201.843 99.1683 201.843C179.385 201.843 146.34 156.8 200.877 104.676C255.415 52.5522 446.144 10.9047 486.738 111.561C527.333 212.218 427.01 288.639 523.952 275.53C640.45 259.78 686.469 366 686.469 366H24.3923Z" fill="#DDE8FD"/>
<path d="M648.28 346.925C641.091 341.665 626.4 345.215 615.56 349.011C613.791 346.527 611.796 344.211 609.602 342.093C632.954 327.037 665.21 294.93 648.106 292.213C633.247 289.85 613.188 318.749 602.469 336.344C591.339 328.849 574.282 323.342 548.243 325.251C480.659 330.21 427.864 286.585 388.944 301.134C358.001 312.702 329.643 319.185 302.297 316.971C303.474 296.977 303.73 257.723 288.039 253.651C272.112 249.516 287.736 294.094 296.42 316.369C294.383 316.107 292.351 315.796 290.321 315.436C284.7 304.34 275.426 289.822 265.26 289.327C255.679 288.86 267.509 301.91 279.141 312.969C245.696 305.938 206.023 333.149 205.366 365.315H622.91C622.91 365.315 622.17 360.621 618.896 354.431C635.034 354.099 656.088 352.634 648.28 346.925Z" fill="#FA7269"/>
<path d="M296.454 340.442H186.406V365.31H296.454V340.442Z" fill="#6D89CF"/>
<path d="M262.52 340.439H152.472V365.307H262.52V340.439Z" fill="#3662C1"/>
<path d="M339.744 365.301H421.687V250.683H339.744V365.301Z" fill="#AF4E4E"/>
<path d="M314.481 365.301H396.423V250.683H314.481V365.301Z" fill="#E75755"/>
<path d="M396.42 250.686L421.687 267.896V250.686H396.42Z" fill="#AF4E4E"/>
<path d="M143.47 276.075C143.47 276.075 128.147 287.48 125.16 286.788C122.172 286.096 136.357 274.477 136.357 274.477C131.017 271.91 114.435 273.518 114.435 273.518C114.435 273.518 108.907 291.358 106.18 289.952C103.454 288.546 111.88 274.404 111.88 274.404C105.936 274.047 98.6427 278.466 98.6427 278.466C88.6571 286.341 99.2976 298.777 99.2976 298.777C99.2976 298.777 97.2487 304.917 90.9448 310.511C90.9448 310.511 81.9512 317.174 81.3132 329.074L82.949 329.22C82.949 329.22 85.5402 318.13 90.2562 312.885C90.4389 312.694 90.7059 312.421 91.0319 312.089C91.7992 311.38 92.3388 310.846 92.6985 310.449C95.0425 308.199 98.2802 305.325 99.84 305.047C99.7832 304.789 99.7615 304.525 99.7754 304.262C99.7951 304.515 99.8175 304.774 99.84 305.047C100.374 311.327 112.546 316.808 120.033 317.936C127.521 319.064 125.208 315.984 122.627 311.417C120.047 306.849 111.883 304.807 110.02 302.698C108.156 300.589 112.009 300.589 116.52 302.65C121.031 304.712 121.649 310.21 128.886 313.681C136.123 317.151 147.014 305.131 147.014 305.131C141.247 304.85 133.009 298.569 133.307 296.651C133.605 294.733 147.29 299.959 149.628 300.212C151.966 300.465 157.289 297.551 158.113 288.118C158.936 278.685 143.47 276.075 143.47 276.075Z" fill="#93B3F4"/>
<path d="M62.0839 283.156C62.0839 283.156 79.0116 273.67 71.1113 260.797C71.1113 260.797 64.7933 252.894 58.0228 250.861C58.0228 250.861 61.6343 270.056 58.0228 270.509C54.4113 270.961 55.5411 248.827 55.5411 248.827C55.5411 248.827 37.7113 240.246 30.716 240.924C30.716 240.924 41.7753 259.669 38.1638 259.205C34.5524 258.741 22.144 239.782 22.144 239.782C22.144 239.782 3.87582 236.407 0.930421 247.235C-2.01498 258.063 2.73476 263.497 5.44407 264.175C8.15339 264.853 25.5279 264.625 25.0782 266.883C24.6285 269.142 12.8919 272.756 6.34623 270.722C6.34623 270.722 13.5664 288.565 23.0462 287.662C32.526 286.759 35.4573 280.887 41.3144 280.434C47.1715 279.981 51.4687 281.559 48.5374 283.145C45.606 284.732 35.6737 283.663 30.9324 287.693C26.1911 291.723 22.3576 294.21 31.1601 296.015C39.9626 297.821 55.7575 296.693 58.9165 289.918L62.0839 283.156Z" fill="#93B3F4"/>
<path d="M66.5976 299.652C61.8591 290.846 62.084 283.168 62.084 283.168C56.6681 266.012 9.27759 250.647 9.27759 250.647C69.5318 275.037 58.925 289.94 58.925 289.94C60.5494 290.888 62.9833 295.411 64.6753 298.879C64.9141 299.466 65.2964 300.285 65.8613 301.393C66.0917 301.894 66.2744 302.304 66.4009 302.591C69.4924 310.359 67.8595 323.775 67.8595 323.775L69.7398 324.278C73.9077 310.747 66.5976 299.652 66.5976 299.652Z" fill="#3E4DCE"/>
<path d="M89.0143 270.073C89.0143 270.073 66.7018 257.572 77.1147 240.604C77.1147 240.604 85.4422 230.197 94.3683 227.503C94.3683 227.503 89.6073 252.816 94.3683 253.403C99.1293 253.991 97.6397 224.84 97.6397 224.84C97.6397 224.84 121.141 213.525 130.362 214.433C130.362 214.433 115.787 239.141 120.545 238.548C125.303 237.954 141.666 212.954 141.666 212.954C141.666 212.954 165.763 208.488 169.631 222.778C173.498 237.068 167.25 244.212 163.681 245.104C160.111 245.995 137.206 245.7 137.799 248.676C138.392 251.651 153.864 256.416 162.492 253.738C162.492 253.738 152.973 277.256 140.477 276.064C127.982 274.871 124.115 267.134 116.38 266.538C108.646 265.942 102.994 268.026 106.861 270.11C110.728 272.194 123.819 270.793 130.064 276.109C136.309 281.424 141.371 284.698 129.783 287.077C118.196 289.457 97.3558 287.969 93.1907 279.039L89.0143 270.073Z" fill="#BED2FA"/>
<path d="M158.624 227.205C158.624 227.205 96.1527 247.455 89.0141 270.073C89.0141 270.073 89.3091 280.198 83.0614 291.805C83.0614 291.805 73.4299 306.447 78.9216 324.267L81.4004 323.601C81.4004 323.601 79.2335 305.918 83.3228 295.678C83.4886 295.301 83.7331 294.761 84.0339 294.1C84.7815 292.638 85.2817 291.569 85.5993 290.784C87.828 286.211 91.0376 280.254 93.1876 279.005C93.1764 279.005 79.197 259.357 158.624 227.205Z" fill="#3E4DCE"/>
<path d="M88.2608 362.914C99.8516 362.914 110.968 358.306 119.164 350.104C127.36 341.903 131.964 330.779 131.964 319.179H44.5576C44.5576 330.779 49.1621 341.903 57.358 350.104C65.5539 358.306 76.67 362.914 88.2608 362.914Z" fill="#EF7674"/>
<path d="M99.0135 362.579C92.8646 363.345 86.6234 362.794 80.7033 360.963C74.7832 359.132 69.3194 356.064 64.6741 351.96C60.0287 347.857 56.3078 342.812 53.7579 337.161C51.208 331.509 49.8873 325.38 49.8833 319.179H60.7402C60.741 329.838 64.6304 340.129 71.6778 348.12C78.7252 356.112 88.4456 361.253 99.0135 362.579Z" fill="#FC9796"/>
<path d="M127.178 359.907H49.3439C47.9142 359.907 46.5432 360.476 45.5322 361.487C44.5213 362.499 43.9534 363.871 43.9534 365.302H132.568C132.568 363.871 132 362.499 130.989 361.487C129.978 360.476 128.607 359.907 127.178 359.907Z" fill="#EF7674"/>
<path d="M132.29 319.179H43.8016C43.7099 319.173 43.618 319.186 43.5315 319.217C43.445 319.248 43.3658 319.297 43.2988 319.36C43.2317 319.423 43.1783 319.499 43.1418 319.583C43.1053 319.667 43.0864 319.758 43.0864 319.85C43.0864 319.942 43.1053 320.033 43.1418 320.117C43.1783 320.202 43.2317 320.278 43.2988 320.341C43.3658 320.403 43.445 320.452 43.5315 320.483C43.618 320.514 43.7099 320.527 43.8016 320.521H132.301C132.471 320.51 132.631 320.434 132.748 320.31C132.865 320.185 132.929 320.021 132.929 319.85C132.929 319.679 132.865 319.515 132.748 319.39C132.631 319.266 132.471 319.19 132.301 319.179H132.29Z" fill="#AF4E4E"/>
<path d="M469.532 88.8725C468.268 88.6813 464.451 92.2138 464.451 92.2138C456.301 93.1559 444.381 95.3075 440.093 96.1513C437.049 96.7363 428.873 93.9463 420.883 90.7428C411.381 86.9291 402.14 82.5275 402.14 82.5275C396.867 82.2463 390.881 91.8847 401.578 97.9963C403.21 98.93 409.343 100.528 416.406 101.982C426.147 103.993 437.656 105.736 441.574 105.123C446.124 104.412 458.999 99.695 466.669 96.0838H466.685L466.773 96.0416C467.231 95.8278 469.108 94.9925 470.359 95.0656C471.795 95.15 474.99 92.5344 475.089 91.82C475.187 91.1056 470.8 89.0666 469.532 88.8725Z" fill="#EA8888"/>
<path d="M459.58 210.136L455.084 211.047C455.084 211.047 434.544 187.957 431.374 178.239C429.688 173.047 418.837 170.803 407.505 167.87C397.643 165.319 387.41 162.245 382.525 156.246C372.031 143.356 389.133 127.527 389.133 127.527C389.133 127.527 407.314 138.338 422.999 149.512C433.96 157.32 443.707 165.302 445.177 169.889C448.74 181.038 456.303 202.241 459.58 210.136Z" fill="#0B0754"/>
<path d="M453.571 217.755H456.101C456.944 217.62 457.571 217.376 458.439 217.263C459.757 217.089 460.361 217.632 460.482 217.755L460.508 217.781H471.23C471.511 217.395 471.23 216.501 470.988 215.843C470.902 215.623 470.767 215.425 470.592 215.266C470.418 215.107 470.209 214.991 469.982 214.926C468.857 214.597 466.609 214.302 464.552 212.442C463.397 211.399 458.973 208.601 458.973 208.601H458.95C458.852 208.601 458.388 208.744 456.379 210.443C455.339 211.32 453.568 209.205 453.568 209.205C453.326 209.428 453.128 209.695 452.987 209.993C452.738 210.504 452.657 211.081 452.756 211.641C452.916 212.608 452.402 214.406 451.989 215.621C451.739 216.357 451.528 216.878 451.528 216.878C451.528 216.878 451.402 217.482 453.571 217.755Z" fill="#060632"/>
<path d="M422.999 149.507L407.516 167.87C397.654 165.319 387.421 162.245 382.536 156.246C372.03 143.356 389.132 127.527 389.132 127.527C389.132 127.527 407.313 138.333 422.999 149.507Z" fill="#060632"/>
<path d="M408.93 139.902C408.93 139.902 407.682 143.84 405.65 149.766C403.081 157.258 399.253 167.929 395.102 177.823C394.192 179.997 393.261 182.135 392.328 184.191C388.877 191.804 385.341 198.332 382.23 201.648C376.64 207.611 363.048 245.942 363.048 245.942L359.676 245.006C359.676 245.006 354.954 212.274 371.68 193.647C371.868 193.46 371.988 193.215 372.02 192.952C372.242 190.193 373.037 177.849 374.768 165.336C375.195 162.268 375.676 159.191 376.218 156.24C376.252 156.052 376.289 155.866 376.322 155.678C378.866 142.043 381.303 135.99 384.448 132.927L407.572 139.514L408.93 139.902Z" fill="#0B0754"/>
<path d="M359.285 250.661H361.814C362.658 250.529 363.284 250.282 364.153 250.169C365.468 249.998 366.075 250.538 366.196 250.661L366.218 250.687H376.943C377.224 250.301 376.943 249.407 376.699 248.752C376.614 248.531 376.479 248.333 376.305 248.174C376.131 248.014 375.922 247.897 375.695 247.832C374.571 247.503 372.323 247.21 370.263 245.349C369.108 244.305 364.687 241.51 364.687 241.51H364.661C364.566 241.51 364.099 241.653 362.093 243.352C361.053 244.229 359.282 242.114 359.282 242.114C359.038 242.336 358.841 242.603 358.7 242.902C358.45 243.412 358.369 243.99 358.47 244.55C358.63 245.517 358.113 247.315 357.703 248.53C357.452 249.266 357.242 249.79 357.242 249.79C357.242 249.79 357.112 250.389 359.285 250.661Z" fill="#060632"/>
<path d="M364.245 95.3977C364.245 95.3977 360.375 104.87 355.915 114.092C352.16 121.844 347.992 129.415 345.348 131.032C341.621 133.31 331.351 139.737 324.691 144.532C324.691 144.532 319.494 144.493 318.685 145.488C317.875 146.484 316.015 150.959 316.557 151.411C317.099 151.864 321.234 151.656 322.24 150.624C323.114 149.727 325.05 149.08 325.548 148.936L325.638 148.908H325.66C333.754 146.416 346.458 141.225 350.294 138.685C353.605 136.5 360.94 127.457 366.792 119.408C371.033 113.572 374.495 108.262 375.074 106.47C378.866 94.7311 367.961 91.6486 364.245 95.3977Z" fill="#FC9290"/>
<path d="M384.478 58.2527C384.052 57.6288 383.589 57.0306 383.093 56.4611C383.674 56.4925 384.255 56.4054 384.801 56.2052C386.159 55.6427 386.769 51.3283 386.575 50.0486C386.381 48.7689 384.484 45.0677 382.157 44.7049C379.83 44.3421 377.427 46.9211 377.427 46.9211C377.857 45.0564 381.794 43.9792 381.794 43.9792C373.686 45.4755 374.099 50.8868 374.155 51.3846C366.733 48.7408 362.376 62.7246 362.376 62.7246L381.6 74.0618C381.6 74.0618 381.651 70.968 383.486 71.1733C386.344 71.4771 388.728 64.4486 384.478 58.2527Z" fill="#0B0754"/>
<path d="M385.704 87.5897C381.294 89.6682 375.44 86.6728 375.471 86.6419C375.85 86.2622 375.715 85.1288 375.37 83.6466C375.024 82.1025 374.203 79.9903 372.691 77.4591C372.376 76.9219 372.062 76.3875 371.682 75.8194L372.188 75.631L380.757 72.1941C380.757 72.1941 382.143 74.6832 383.593 76.9557C384.821 78.8457 386.122 80.55 386.685 80.4853C386.713 80.4741 392.384 84.3835 385.704 87.5897Z" fill="#FC9290"/>
<path d="M380.758 73.0632C380.538 76.1232 379.498 81.6414 375.37 83.6579C375.024 82.1139 374.203 80.0017 372.691 77.4704L380.758 73.0632Z" fill="#EA8888"/>
<path d="M372.191 80.9608C372.191 80.9608 383.349 76.5593 380.501 69.6489C377.654 62.7386 377.179 57.5158 369.937 60.033C362.694 62.5502 362.402 65.7536 362.793 68.2933C363.183 70.833 369.215 81.9255 372.191 80.9608Z" fill="#FC9290"/>
<path d="M376.35 68.0709C381.502 67.3453 383.006 65.2584 383.006 65.2584C379.875 64.188 377.212 62.0625 375.474 59.2453C375.474 59.2453 369.684 57.2765 365.392 60.5587C365.122 60.9152 364.936 61.3289 364.85 61.7681C363.866 61.4475 362.388 61.529 361.536 64.2993C360.252 68.4787 364.813 73.0406 364.813 73.0406C365.921 72.7284 364.673 69.0046 364.499 67.019C364.369 65.5537 365.159 63.6834 365.583 62.8003C366.129 63.509 371.564 70.3434 378.2 70.6162C375.815 69.7306 373.563 68.5232 371.505 67.0275C373.09 67.8065 374.779 68.2931 376.35 68.0709Z" fill="#0B0754"/>
<path d="M406.946 101.838C406.853 101.506 406.752 101.16 406.645 100.806C408.055 98.174 409.005 95.3205 409.456 92.3684C410.212 87.2609 408.919 84.1081 408.919 84.1081C408.919 84.1081 401.181 80.0018 397.764 79.4787C397.75 79.4765 397.736 79.4765 397.722 79.4787L397.584 79.4646C394.136 78.9893 386.665 80.5137 386.665 80.5137C386.665 80.5137 388.107 84.3528 384.043 86.9093C379.979 89.4659 375.637 86.254 375.637 86.254L375.224 86.5353C375.224 86.5353 364.53 93.5975 363.569 95.209C362.607 96.8206 358.496 104.814 358.496 104.814C358.496 104.814 359.8 111.519 374.248 112.081C375.434 114.964 376.345 117.774 376.64 120.119C377.787 129.223 376.455 136.407 377.793 141.719C379.13 147.032 403.233 144.003 407.598 142.982C411.962 141.961 410.97 137.295 411.316 132.764C411.743 127.055 408.368 106.861 406.946 101.838Z" fill="#3662C1"/>
<path d="M409.461 92.3713C409.01 95.3358 408.055 98.201 406.637 100.843C406.257 99.1719 404.714 93.0547 402.224 90.2788C402.213 90.2788 406.403 90.6585 409.461 92.3713Z" fill="#3E4DCE"/>
<path d="M311.319 152.029C311.319 152.029 315.815 146.581 316.777 145.94C317.738 145.299 321.984 144.165 322.229 144.393C322.473 144.621 322.482 144.956 321.948 145.414C321.414 145.873 319.418 147.051 319.7 147.183C319.981 147.316 326.037 144.301 326.908 145.313C327.78 146.326 326.417 150.513 324.098 152.521C321.779 154.53 314.806 155.382 314.368 155.663C310.653 158.04 311.319 152.029 311.319 152.029Z" fill="#EA8888"/>
<path d="M232.259 139.455C232.259 139.455 238.723 147.113 246.927 143.91C246.927 143.91 248.692 139.632 248.717 136.479C248.717 136.091 248.717 135.714 248.731 135.354C248.776 131.802 248.894 129.811 248.894 129.811C248.521 129.653 236.337 124.647 236.345 125.063C236.548 134.668 232.259 139.455 232.259 139.455Z" fill="#FC9290"/>
<path d="M237.563 127.355C238.737 129.535 242.768 133.799 248.732 135.357C248.777 131.805 248.895 129.813 248.895 129.813C248.549 129.721 237.211 126.714 237.563 127.355Z" fill="#EA8888"/>
<path d="M251.446 129.445C251.446 129.445 237.745 132.668 235.868 124.101C233.99 115.535 230.964 110.174 239.634 107.752C248.304 105.331 250.724 108.231 252.045 110.939C253.366 113.647 254.962 128.385 251.446 129.445Z" fill="#FC9290"/>
<path d="M236.337 126.433C236.152 126.554 233.203 127.46 227.625 116.328C226.748 114.581 226.149 110.801 228.187 107.46C230.224 104.119 237.461 101.495 243.496 100.35C249.53 99.2052 250.96 102.6 252.377 106.003C253.866 109.58 258.163 112.522 258.163 112.522C252.972 115.425 246.722 111.276 244.555 111.96C242.388 112.643 241.624 116.058 241.464 117.155C241.303 118.251 241.053 119.16 238.327 118.181C235.601 117.202 237.096 122.043 237.532 122.962C237.529 122.965 237.9 125.432 236.337 126.433Z" fill="#9E332E"/>
<path d="M201.038 340.433H192.741C191.001 340.433 189.068 338.667 188.584 335.432C188.101 332.198 184.526 330.432 183.75 327.785C182.975 325.138 186.943 321.412 186.943 321.412L187.604 320.548L188.295 319.648L194.866 321.215C194.866 321.215 195.029 322.804 195.13 324.823C195.2 326.283 195.24 327.973 195.158 329.453C194.964 332.983 196.133 336.782 199.225 337.468C202.317 338.155 201.038 340.433 201.038 340.433Z" fill="#060632"/>
<path d="M258.805 340.52H236.81C236.649 340.493 236.493 340.447 236.343 340.383C234.876 339.623 235.334 333.832 235.5 332.041C235.534 331.709 235.559 331.515 235.559 331.515C235.559 331.515 243.291 325.142 244.356 330.021C244.39 330.176 244.429 330.325 244.471 330.471C245.812 335.036 251.815 337.112 255.28 337.688C257.939 338.135 258.625 339.727 258.805 340.52Z" fill="#060632"/>
<path d="M254.37 213.241C254.37 213.241 253.195 227.905 251.815 245.534C249.938 269.479 247.681 298.895 247.459 304.467C247.071 314.142 245.522 329.619 245.522 329.619C245.522 329.619 241.852 333.298 234.502 331.748C234.502 331.748 227.954 309.653 226.071 286.276C226.043 285.893 226.015 285.508 225.984 285.12C224.244 261.323 221.54 211.21 221.54 211.21L254.37 213.241Z" fill="#ED6966"/>
<path d="M254.369 213.241C254.369 213.241 253.195 227.905 251.815 245.534L226.082 286.276C226.054 285.893 226.026 285.508 225.995 285.12C224.255 261.323 221.551 211.21 221.551 211.21L254.369 213.241Z" fill="#E75755"/>
<path d="M249.004 214.996C249.004 214.996 227.833 268.107 213.912 293.068C199.992 318.029 195.644 324.992 195.644 324.992C195.644 324.992 187.668 321.797 186.932 319.623C186.932 319.623 192.255 271.437 201.577 259.692C206.847 253.054 213.033 233.136 213.325 226.17C213.617 219.203 215.208 205.419 215.208 205.419L249.004 214.996Z" fill="#ED6966"/>
<path d="M200.532 206.136C200.532 206.136 199.969 212.771 199.582 213.789C199.194 214.807 196.49 217.965 196.192 217.918C195.894 217.87 195.697 217.636 195.855 216.981C196.012 216.326 196.934 214.354 196.642 214.405C196.35 214.455 193.286 220.049 192.066 219.734C190.847 219.419 189.652 215.443 190.38 212.636C191.108 209.829 196.032 205.416 196.22 204.963C197.817 201.127 200.532 206.136 200.532 206.136Z" fill="#EA8888"/>
<path d="M198.261 207.821C200.602 208.572 200.979 208.403 200.979 208.403C200.979 208.403 212.384 187.622 213.539 185.72C214.694 183.819 237.754 162.419 237.754 162.419L231.824 140.304C231.824 140.304 205.594 174.29 202.763 179.17C198.081 187.228 195.338 205.948 195.338 205.948C196.137 206.812 197.143 207.456 198.261 207.821Z" fill="#060632"/>
<path d="M258.838 171.101C258.757 175.643 258.492 180.748 258.135 185.931C258.113 186.241 258.093 186.547 258.071 186.854C257.843 190.069 257.596 193.286 257.315 196.416C257.199 197.676 257.078 198.918 256.952 200.14L256.933 200.306C256.933 200.765 256.868 201.26 256.817 201.712C255.662 213.474 254.448 222.764 254.223 222.907C253.96 223.091 253.64 223.173 253.321 223.138C250.23 222.75 241.045 223.45 233.518 221.81C227.164 220.469 221.695 217.926 215.899 214.498C215.129 214.042 213.37 212.836 213.519 211.936C213.659 210.946 213.918 209.514 214.247 207.717C215.388 201.459 217.361 190.701 218.033 178.107C218.162 175.761 218.349 173.448 218.595 171.166C219.174 165.568 220.201 160.025 221.667 154.592C224.247 145.291 228.038 138.167 232.799 135.382C233.42 135.034 236.764 137.163 239.825 139.137C242.417 140.797 245.496 141.527 248.557 141.207L251.115 144.036C254.206 147.639 257.506 152.434 258.422 159.252C258.49 159.755 258.546 160.29 258.596 160.858C258.851 164.266 258.932 167.685 258.838 171.101Z" fill="#120E59"/>
<path d="M258.838 171.101C258.756 175.643 258.492 180.748 258.135 185.932C258.113 186.241 258.093 186.547 258.071 186.854C240.466 175.829 237.754 155.635 237.754 155.635C246.416 156.018 253.296 158.009 258.599 160.858C258.853 164.266 258.932 167.685 258.838 171.101Z" fill="#060632"/>
<path d="M313.991 152.572C313.083 150.117 311.672 150.277 311.672 150.277C311.672 150.277 285.498 156.805 283.149 157.084C280.799 157.362 254.962 146.989 254.962 146.989C254.962 146.989 244.794 142.422 240.03 146.593C235.89 150.215 235.702 154.805 236.657 158.661C237.231 160.906 238.466 162.925 240.202 164.457C241.939 165.988 244.096 166.961 246.393 167.248C256.932 168.592 277.963 171.121 282.367 170.508C292.179 169.141 314.407 156.299 314.407 156.299C314.555 155.041 314.413 153.766 313.991 152.572Z" fill="#120E59"/>
<path d="M572.082 200.582C572.082 200.582 575.719 203.957 575.01 206.353C574.302 208.749 571.019 210.347 570.575 213.275C570.131 216.203 568.358 217.8 566.761 217.8H559.151C559.151 217.8 557.976 215.741 560.814 215.12C563.653 214.498 564.721 211.056 564.544 207.861C564.367 204.666 564.825 200.405 564.825 200.405L570.856 198.999L572.082 200.582Z" fill="#0B0754"/>
<path d="M526.763 217.403C526.392 217.589 525.096 217.716 523.317 217.8H506.105C506.162 217.288 506.564 215.463 509.377 215.007C512.558 214.492 518.067 212.642 519.292 208.572C519.335 208.441 519.371 208.308 519.399 208.173C520.374 203.825 527.471 209.503 527.471 209.503C527.471 209.503 527.491 209.677 527.521 209.973C527.687 211.573 528.106 216.731 526.763 217.403Z" fill="#0B0754"/>
<path d="M510.22 101.09C510.22 101.09 511.299 114.545 512.564 130.716C514.287 152.688 516.358 179.674 516.561 184.787C516.915 193.663 518.337 207.849 518.337 207.849C518.337 207.849 521.709 211.224 528.455 209.801C528.455 209.801 534.461 189.531 536.178 168.083C536.203 167.732 536.231 167.377 536.257 167.023C537.853 145.19 540.337 99.2136 540.337 99.2136L510.22 101.09Z" fill="#6D89CF"/>
<path d="M510.22 101.09C510.22 101.09 511.299 114.545 512.564 130.717L536.172 168.098C536.198 167.746 536.226 167.392 536.251 167.037C537.847 145.204 540.332 99.2278 540.332 99.2278L510.22 101.09Z" fill="#3662C1"/>
<path d="M515.141 102.676C515.141 102.676 534.564 151.405 547.338 174.302C560.112 197.198 564.1 203.594 564.1 203.594C564.1 203.594 571.407 200.663 572.082 198.666C572.082 198.666 567.2 154.459 558.645 143.682C553.814 137.593 548.136 119.317 547.869 112.927C547.602 106.537 546.141 93.8894 546.141 93.8894L515.141 102.676Z" fill="#6D89CF"/>
<path d="M455.233 76.2498C455.233 76.2498 449.963 75.0432 449.075 75.1051C448.187 75.167 445.087 76.4635 445.048 76.7167C445.008 76.9698 445.152 77.1723 445.688 77.2088C446.225 77.2454 447.987 77.0176 447.875 77.2313C447.763 77.4451 442.684 78.4435 442.628 79.4813C442.572 80.5191 445.354 82.4064 447.706 82.5357C450.059 82.6651 454.685 79.9285 455.081 79.892C458.442 79.5854 455.233 76.2498 455.233 76.2498Z" fill="#FC9290"/>
<path d="M452.976 77.5886C452.22 75.1811 452.397 74.7958 452.397 74.7958C452.397 74.7958 473.757 63.2392 475.71 62.0692C477.663 60.8992 499.734 37.3923 499.734 37.3923L522.342 43.6192C522.342 43.6192 487.359 70.2873 482.346 73.1505C474.06 77.8952 454.873 80.5811 454.873 80.5811C453.996 79.7621 453.343 78.7318 452.976 77.5886Z" fill="#E75755"/>
<path d="M506.586 25.9648C506.586 25.9648 498.66 39.9204 490.915 41.7401C490.915 41.7401 491.235 37.0545 493.124 33.8482C492.351 32.937 491.671 32.0989 491.083 31.3479C490.055 30.0558 489.095 28.7105 488.208 27.3176L490.836 20.2442L492.62 15.446C493.404 16.8814 494.339 18.2288 495.409 19.4651C500.484 25.3067 506.586 25.9648 506.586 25.9648Z" fill="#FC9290"/>
<path d="M495.409 19.4653C495.409 19.4653 496.353 26.4572 491.083 31.3481C490.055 30.056 489.095 28.7107 488.208 27.3178L490.836 20.2443C493.655 19.3865 495.409 19.4653 495.409 19.4653Z" fill="#EA8888"/>
<path d="M486.12 28.3503C486.12 28.3503 497.96 23.7294 494.973 16.3944C491.985 9.05936 491.513 3.52436 483.812 6.16249C476.112 8.80061 475.805 12.1981 476.224 14.8812C476.643 17.5644 482.961 29.3712 486.12 28.3503Z" fill="#FC9290"/>
<path d="M547.288 97.5742C542.51 104.445 506.797 113.628 507.221 108.872C507.506 105.751 507.506 102.61 507.221 99.4895C507.131 98.4685 507.008 97.3885 506.842 96.2467C505.934 89.9973 503.778 81.9592 498.972 72.6554C498.613 71.9579 498.236 71.2492 497.848 70.546C495.889 66.9795 494.233 63.2549 492.896 59.4113C490.42 52.2563 489.425 45.4079 490.673 40.9332C490.678 40.9121 490.684 40.8914 490.693 40.8713C498.157 37.4148 501.049 24.0188 501.049 24.0188C501.049 24.0188 526.515 28.5947 540.781 62.5585C540.781 62.5585 551.444 91.592 547.288 97.5742Z" fill="#ED6966"/>
<path d="M507.215 99.4895C507.125 98.4686 507.002 97.3886 506.836 96.2467C505.928 89.9973 503.772 81.9592 498.967 72.6555C499.793 67.6492 500.934 63.4867 502.182 61.6108C507.263 53.9945 510.22 52.802 510.22 52.802C510.22 52.802 517.839 84.9517 507.215 99.4895Z" fill="#E75755"/>
<path d="M467.062 91.8394C467.062 91.8394 460.016 92.2106 458.926 92.6044C457.835 92.9981 454.401 95.7375 454.429 96.0666C454.457 96.3956 454.71 96.6009 455.41 96.4547C456.11 96.3084 458.22 95.3944 458.167 95.7037C458.113 96.0131 452.079 99.0787 452.372 100.387C452.664 101.694 456.843 103.087 459.842 102.406C462.841 101.725 467.672 96.6347 468.158 96.4519C472.292 94.8797 467.062 91.8394 467.062 91.8394Z" fill="#FC9290"/>
<path d="M465.738 94.514C464.333 92.2303 465.345 91.1896 465.345 91.1896C465.345 91.1896 487.109 74.1374 488.815 72.4134C490.521 70.6893 498.424 43.259 498.424 43.259C498.424 43.259 501.145 32.1552 507.516 30.9318C513.05 29.8687 516.875 32.6193 519.379 35.8199C520.83 37.6975 521.683 39.969 521.825 42.3385C521.968 44.7079 521.393 47.0653 520.177 49.1034C514.621 58.4746 503.41 77.0765 500.136 80.2546C492.851 87.3281 468.467 97.2112 468.467 97.2112C467.363 96.5333 466.429 95.6105 465.738 94.514Z" fill="#ED6966"/>
<path d="M496.671 2.7675C496.755 2.60438 496.997 2.43 497.584 2.25C497.196 2.13751 496.787 2.12205 496.392 2.205C496.058 1.395 495.251 0.01125 493.736 0C494.004 0.0822712 494.25 0.22351 494.455 0.413335C494.661 0.60316 494.822 0.836739 494.925 1.09687C492.848 -0.219377 488.998 -0.590625 479.386 2.60156C466.719 6.82032 473.048 14.1835 474.968 14.7713C476.887 15.3591 480.423 11.5763 483.602 11.0588C486.78 10.5413 488.5 14.9738 489.712 15.3394C490.923 15.705 490.235 14.7009 491.502 13.6913C492.77 12.6816 493.5 15.0553 493.469 16.7231C493.438 18.391 495.917 19.9744 495.917 19.9744L497.368 17.3109C498.821 14.6475 498.424 4.97532 497.039 3.23438C496.918 3.0825 496.797 2.93344 496.671 2.7675Z" fill="#0B0754"/>
<path d="M296.451 340.161V354.507L262.52 340.161H296.451Z" fill="#6D89CF"/>
<path d="M586.848 217.8H474.628V365.302H586.848V217.8Z" fill="#6D89CF"/>
<path d="M552.245 217.8H440.025V365.302H552.245V217.8Z" fill="#3662C1"/>
<path d="M586.848 217.8V239.859L552.248 217.8H586.848Z" fill="#6D89CF"/>
<path d="M686 365H24V368H686V365Z" fill="#042A44"/>
</svg>
