<svg width="63" height="172" viewBox="0 0 63 172" fill="none" xmlns="http://www.w3.org/2000/svg">
<path d="M46.3262 156.625L34.9731 142.355L46.3262 128.079L34.9731 113.803L46.3262 99.5321L35.1736 85.5126H35.1604L35.0649 85.3927L46.4161 71.1166L35.0668 56.8423L46.4161 42.5699L35.0649 28.2956L46.418 14.0232L35.2672 0H33.0543L44.2126 14.0232L32.8557 28.2956L44.2126 42.5699L32.8557 56.8423L44.2126 71.1166L32.8557 85.3927L32.9906 85.5576H33L44.1189 99.5321L32.7676 113.806L44.1189 128.079L32.7658 142.355L44.1189 156.625L32.7676 170.9L32.8988 171.068L35.1042 171.066L34.9731 170.9L46.3262 156.625Z" fill="#FF9000"/>
<path d="M51.2914 170.9L62.6464 156.625L51.2914 142.355L62.6426 128.077L51.2914 113.803L62.6464 99.5321L51.4863 85.5126H51.4769L51.3814 85.3927L62.7363 71.1166L51.3814 56.8423L62.7363 42.5699L51.3814 28.2956L62.7363 14.0213L51.5837 0H49.3746L60.5309 14.0213L49.1741 28.2956L60.5309 42.5699L49.1741 56.8423L60.5309 71.1166L49.176 85.3927L49.3034 85.5576H49.3221L60.4372 99.5321L49.0823 113.803L60.4372 128.077L49.0823 142.355L60.4335 156.625L49.0823 170.9L49.219 171.068H51.4188L51.2914 170.9Z" fill="#FF9000"/>
<path d="M13.5584 156.625L2.2072 142.355L13.5584 128.079L2.2072 113.803L13.5584 99.5321L2.40582 85.5126H2.39083L2.29714 85.3927L13.6465 71.1166L2.29714 56.8423L13.6465 42.5699L2.29714 28.2956L13.6465 14.0232L2.49763 0H0.292218L11.4429 14.0232L0.0917263 28.2956L11.4429 42.5699L0.0917263 56.8423L11.4429 71.1166L0.0917263 85.3927L0.221016 85.5576H0.237879L11.3549 99.5321L0.00178528 113.803L11.3549 128.079L-8.7738e-05 142.355L11.3549 156.625L-8.7738e-05 170.9L0.129202 171.066L2.33836 171.068L2.2072 170.9L13.5584 156.625Z" fill="#FF9000"/>
<path d="M29.8769 156.625L18.52 142.355L29.8769 128.079L18.5256 113.803L29.8769 99.5321L18.728 85.5126H18.7093L18.6156 85.3927L29.9668 71.1166L18.6156 56.8423L29.9668 42.5699L18.6156 28.2956L29.9668 14.0232L18.8161 0H16.6107L27.7595 14.0232L16.4102 28.2956L27.7595 42.5699L16.4102 56.8423L27.7595 71.1166L16.4102 85.3927L16.5395 85.5576H16.5526L27.6696 99.5321L16.3221 113.803L27.6714 128.079L16.3221 142.355L27.6696 156.625L16.3221 170.9L16.4476 171.066L18.6531 171.068L18.5256 170.9L29.8769 156.625Z" fill="#FF9000"/>
</svg>
