<svg width="144" height="124" viewBox="0 0 144 124" fill="none" xmlns="http://www.w3.org/2000/svg">
<path fill-rule="evenodd" clip-rule="evenodd" d="M143.348 8.77274V88.1583C143.348 93.6282 138.682 98.058 132.926 98.058H11.0483C5.29217 98.058 0.626099 93.6319 0.626099 88.1583V8.77274C0.626099 4.28395 4.45618 0.658248 9.18486 0.658248H134.793C139.518 0.643494 143.348 4.28395 143.348 8.77274Z" fill="#BDCBFF"/>
<path fill-rule="evenodd" clip-rule="evenodd" d="M11.0483 98.7054H132.926C139.028 98.7054 143.993 93.9769 144 88.1603V8.77472C144 3.93553 139.864 0 134.793 0H9.20693C4.12839 0 0 3.93553 0 8.77472V88.1603C0 93.9769 4.94596 98.7054 11.0483 98.7054ZM1.27051 8.77481C1.27051 4.64748 4.8207 1.29104 9.18478 1.29104H134.793C139.153 1.29104 142.704 4.64748 142.704 8.77481V88.1604C142.704 93.2651 138.317 97.4146 132.926 97.4146H11.0483C5.65669 97.4146 1.27051 93.2651 1.27051 88.1604V8.77481Z" fill="#372168"/>
<path fill-rule="evenodd" clip-rule="evenodd" d="M140.873 86.0332C142.24 86.0332 143.348 87.1413 143.348 88.5081C143.348 93.7862 138.682 98.0611 132.926 98.0611H11.0483C5.29217 98.0611 0.626099 93.7862 0.626099 88.5081C0.626099 87.1413 1.73416 86.0332 3.10102 86.0332H140.873Z" fill="#EAE1FF"/>
<path fill-rule="evenodd" clip-rule="evenodd" d="M11.0483 98.7056H132.926C139.028 98.7056 143.993 94.1319 143.993 88.5071V86.0322C143.993 85.861 143.925 85.6968 143.804 85.5758C143.683 85.4547 143.519 85.3867 143.348 85.3867H0.644485C0.288546 85.3867 0 85.6757 0 86.0322V88.5071C0 94.1319 4.94596 98.7056 11.0483 98.7056ZM1.27051 88.5079C1.27051 87.4893 2.09619 86.6637 3.11471 86.6637H140.859C141.878 86.6637 142.704 87.4893 142.704 88.5079C142.704 93.4208 138.317 97.4154 132.926 97.4154H11.0483C5.65669 97.4154 1.27051 93.4208 1.27051 88.5079Z" fill="#372168"/>
<g style="mix-blend-mode:soft-light" opacity="0.4">
<path d="M71.9872 94.7896C73.4984 94.7896 74.7235 93.5626 74.7235 92.0491C74.7235 90.5356 73.4984 89.3086 71.9872 89.3086C70.4759 89.3086 69.2509 90.5356 69.2509 92.0491C69.2509 93.5626 70.4759 94.7896 71.9872 94.7896Z" fill="white"/>
</g>
<path fill-rule="evenodd" clip-rule="evenodd" d="M94.5072 123.356H49.4633C48.874 123.356 48.6199 122.515 49.095 122.105C50.4282 120.932 52.3616 119.103 53.5548 117.38C54.1585 116.51 54.6694 114.908 55.0968 112.986C56.9307 104.738 63.5395 98.0605 71.9889 98.0605C80.4082 98.0605 87.016 104.69 88.8565 112.905C89.2952 114.863 89.8174 116.497 90.4304 117.38C91.6236 119.103 93.5534 120.932 94.8903 122.105C95.3506 122.515 95.0928 123.356 94.5072 123.356Z" fill="#EAE1FF"/>
<g style="mix-blend-mode:multiply" opacity="0.15">
<path fill-rule="evenodd" clip-rule="evenodd" d="M94.5072 123.356H49.4633C48.874 123.356 48.6199 122.515 49.095 122.105C50.4282 120.932 52.3616 119.103 53.5548 117.38C54.1585 116.51 54.6694 114.908 55.0968 112.986C56.9307 104.738 63.5395 98.0605 71.9889 98.0605C80.4082 98.0605 87.016 104.69 88.8565 112.905C89.2952 114.863 89.8174 116.497 90.4304 117.38C91.6236 119.103 93.5534 120.932 94.8903 122.105C95.3506 122.515 95.0928 123.356 94.5072 123.356Z" fill="black"/>
</g>
<path fill-rule="evenodd" clip-rule="evenodd" d="M49.4632 124H94.5072C95.0336 123.992 95.4992 123.656 95.6746 123.159C95.8828 122.618 95.7363 122.005 95.3063 121.617C93.9511 120.43 92.095 118.663 90.9496 117.011C88.6111 113.639 87.5983 98.1739 87.5983 98.019C87.577 97.6798 87.2968 97.4153 86.9575 97.4141H56.9319C56.5898 97.4135 56.3069 97.6806 56.2874 98.0227C56.037 102.357 54.9579 114.215 53.0171 117.011C51.8754 118.667 50.0156 120.426 48.6604 121.617C48.2313 122.006 48.085 122.618 48.2921 123.159C48.468 123.658 48.9355 123.993 49.4632 124ZM94.4716 122.65C94.4767 122.685 94.4455 122.71 94.4109 122.71H49.5645C49.5297 122.71 49.4951 122.689 49.4957 122.654C49.4959 122.647 49.4956 122.64 49.4959 122.632C49.4967 122.617 49.5034 122.602 49.5149 122.592C50.9254 121.352 52.8625 119.504 54.0815 117.749C54.7354 116.805 55.2818 115.088 55.7334 113.048C57.4929 105.1 63.8658 98.7055 72.0062 98.7055C80.0944 98.7055 86.4433 105.021 88.1932 112.918C88.6573 115.012 89.2175 116.781 89.8854 117.749C91.1044 119.508 93.0415 121.352 94.4483 122.588C94.4611 122.601 94.4687 122.618 94.4702 122.636C94.4706 122.641 94.4709 122.646 94.4716 122.65Z" fill="#372168"/>
<path d="M70.2084 121.378H67.6783C67.4749 121.378 67.3101 121.213 67.3101 121.009C67.3101 120.806 67.4749 120.641 67.6783 120.641H70.2084C70.4118 120.641 70.5767 120.806 70.5767 121.009C70.5767 121.213 70.4118 121.378 70.2084 121.378Z" fill="#372168"/>
<path d="M65.94 121.378H50.152C49.9486 121.378 49.7837 121.213 49.7837 121.009C49.7837 120.806 49.9486 120.641 50.152 120.641H65.94C66.1434 120.641 66.3083 120.806 66.3083 121.009C66.3083 121.213 66.1434 121.378 65.94 121.378Z" fill="#372168"/>
<path d="M4.26458 7.51558C4.21007 7.5156 4.15615 7.5043 4.10622 7.48238C4.01754 7.44014 3.94938 7.36418 3.91688 7.27137C3.88437 7.17857 3.89023 7.0766 3.93313 6.98814C4.50969 5.78409 5.47692 4.81148 6.6768 4.22921C6.86087 4.14162 7.08099 4.22005 7.16845 4.40441C7.2559 4.58876 7.17759 4.80922 6.99351 4.89681C5.94513 5.40642 5.10004 6.2567 4.59603 7.30903C4.53407 7.43568 4.40541 7.51586 4.26458 7.51558Z" fill="#372168"/>
<path d="M-nan -nanL135.272 76.9693C135.164 76.9693 135.062 76.9221 134.992 76.8402L131.007 72.1448C130.909 72.0465 130.875 71.9015 130.918 71.7696C130.961 71.6377 131.075 71.5412 131.212 71.52C131.349 71.4987 131.486 71.5563 131.567 71.669L135.552 76.3607C135.645 76.4701 135.667 76.624 135.606 76.7547C135.546 76.8855 135.416 76.9693 135.272 76.9693L-nan -nanZ" fill="#372168"/>
<path d="M-nan -nanL135.025 73.5984C134.917 73.5975 134.815 73.549 134.745 73.4657L133.762 72.3112C133.63 72.1554 133.649 71.9217 133.804 71.7893C133.96 71.6569 134.193 71.6759 134.326 71.8317L135.305 72.9899C135.399 73.0993 135.42 73.2531 135.36 73.3839C135.3 73.5147 135.169 73.5985 135.025 73.5984L-nan -nanZ" fill="#372168"/>
<path d="M-nan -nanL132.606 76.904C132.498 76.904 132.396 76.8569 132.326 76.7749L130.197 74.2668C130.112 74.1667 130.086 74.0284 130.13 73.9042C130.174 73.7799 130.28 73.6885 130.41 73.6644C130.539 73.6403 130.671 73.6872 130.757 73.7873L132.885 76.2954C132.979 76.4049 133 76.5587 132.94 76.6895C132.88 76.8203 132.749 76.904 132.606 76.904L-nan -nanZ" fill="#372168"/>
<path d="M121.948 14.481V72.0201C121.948 75.063 119.583 77.5342 116.667 77.5342H27.3078C24.3948 77.5342 22.0267 75.063 22.0267 72.0201V14.481C22.0267 11.438 24.3948 8.9668 27.3078 8.9668H116.667C119.583 8.9668 121.948 11.438 121.948 14.481Z" fill="white"/>
<path fill-rule="evenodd" clip-rule="evenodd" d="M27.3077 78.1807H116.666C119.933 78.1807 122.592 75.4107 122.592 72.021V14.4819C122.592 11.0849 119.933 8.32227 116.666 8.32227H27.3077C24.041 8.32227 21.3821 11.0849 21.3821 14.4819V72.021C21.3821 75.418 24.041 78.1807 27.3077 78.1807ZM22.6711 14.4788C22.6711 11.7936 24.7519 9.61011 27.3077 9.61011H116.666C119.222 9.61011 121.303 11.7936 121.303 14.4788V72.0179C121.303 74.7031 119.222 76.8866 116.666 76.8866H27.3077C24.7519 76.8866 22.6711 74.7031 22.6711 72.0179V14.4788Z" fill="#372168"/>
<path fill-rule="evenodd" clip-rule="evenodd" d="M116.667 8.9668C121.35 8.9668 118.151 14.481 113.468 14.481H30.5053C25.8227 14.481 22.6252 8.9668 27.3078 8.9668H116.667Z" fill="#EAE1FF"/>
<path fill-rule="evenodd" clip-rule="evenodd" d="M22.0266 15.1274H121.947C122.303 15.1274 122.592 14.8384 122.592 14.4819C122.592 11.0849 119.933 8.32227 116.666 8.32227H27.3077C24.041 8.32227 21.3821 11.0849 21.3821 14.4819C21.3821 14.8384 21.6706 15.1274 22.0266 15.1274ZM116.681 9.61011C120.321 9.68852 118.101 13.8333 114.46 13.8333H29.5275C25.8883 13.8333 23.6693 9.69098 27.3076 9.61011H116.681Z" fill="#372168"/>
<path d="M30.173 12.6657C30.5391 12.6657 30.8359 12.3685 30.8359 12.0018C30.8359 11.6351 30.5391 11.3379 30.173 11.3379C29.8069 11.3379 29.5101 11.6351 29.5101 12.0018C29.5101 12.3685 29.8069 12.6657 30.173 12.6657Z" fill="#372168"/>
<path d="M35.8038 12.6657C36.1699 12.6657 36.4667 12.3685 36.4667 12.0018C36.4667 11.6351 36.1699 11.3379 35.8038 11.3379C35.4377 11.3379 35.1409 11.6351 35.1409 12.0018C35.1409 12.3685 35.4377 12.6657 35.8038 12.6657Z" fill="#372168"/>
<path d="M41.4385 12.6657C41.8046 12.6657 42.1014 12.3685 42.1014 12.0018C42.1014 11.6351 41.8046 11.3379 41.4385 11.3379C41.0724 11.3379 40.7756 11.6351 40.7756 12.0018C40.7756 12.3685 41.0724 12.6657 41.4385 12.6657Z" fill="#372168"/>
<rect x="38.5292" y="27.3496" width="23.6949" height="11.8656" rx="5.9328" fill="white"/>
<path fill-rule="evenodd" clip-rule="evenodd" d="M33.1376 39.769H52.8846C54.2799 39.769 55.411 38.6362 55.411 37.2388V29.3271C55.409 27.9305 54.279 26.7989 52.8846 26.7969H33.1376C31.7431 26.7989 30.6132 27.9305 30.6112 29.3271V37.2388C30.6112 38.6362 31.7423 39.769 33.1376 39.769ZM31.7159 29.3277C31.718 28.5422 32.3532 27.906 33.1375 27.904H52.8845C53.6688 27.906 54.304 28.5422 54.3061 29.3277V37.2393C54.3061 38.0256 53.6696 38.663 52.8845 38.663H33.1375C32.3524 38.663 31.7159 38.0256 31.7159 37.2393V29.3277Z" fill="#372168"/>
<rect x="31.1636" y="43.084" width="23.6949" height="21.4739" rx="10.7369" fill="#FFC28F"/>
<path fill-rule="evenodd" clip-rule="evenodd" d="M33.1376 65.1117H52.8846C54.279 65.1096 55.409 63.978 55.411 62.5814V45.0615C55.409 43.6649 54.279 42.5333 52.8846 42.5312H33.1376C31.7431 42.5333 30.6132 43.6649 30.6112 45.0615V62.5814C30.6132 63.978 31.7431 65.1096 33.1376 65.1117ZM31.7159 45.0627C31.7159 44.2764 32.3524 43.6389 33.1375 43.6389H52.8845C53.6696 43.6389 54.3061 44.2764 54.3061 45.0627V62.5826C54.3061 63.3689 53.6696 64.0063 52.8845 64.0063H33.1375C32.3524 64.0063 31.7159 63.3689 31.7159 62.5826V45.0627Z" fill="#372168"/>
<path d="M97.1257 39.9076C98.9522 39.9076 100.433 38.4247 100.433 36.5954C100.433 34.7661 98.9522 33.2832 97.1257 33.2832C95.2993 33.2832 93.8186 34.7661 93.8186 36.5954C93.8186 38.4247 95.2993 39.9076 97.1257 39.9076Z" fill="white"/>
<path d="M-nan -nanL49.5 49.9073H36.5219C36.2168 49.9073 35.9695 49.6596 35.9695 49.354C35.9695 49.0485 36.2168 48.8008 36.5219 48.8008H49.5C49.8051 48.8008 50.0524 49.0485 50.0524 49.354C50.0524 49.6596 49.8051 49.9073 49.5 49.9073L-nan -nanZ" fill="#372168"/>
<path d="M49.2496 54.3761H36.2715C35.9664 54.3761 35.7191 54.1283 35.7191 53.8228C35.7191 53.5172 35.9664 53.2695 36.2715 53.2695H49.2496C49.5547 53.2695 49.802 53.5172 49.802 53.8228C49.802 54.1283 49.5547 54.3761 49.2496 54.3761Z" fill="#372168"/>
<path d="M49.5001 58.8409H45.2686C44.9635 58.8409 44.7162 58.5932 44.7162 58.2876C44.7162 57.9821 44.9635 57.7344 45.2686 57.7344H49.5001C49.8052 57.7344 50.0525 57.9821 50.0525 58.2876C50.0525 58.5932 49.8052 58.8409 49.5001 58.8409Z" fill="#372168"/>
<path d="M42.7605 58.8409H36.5219C36.2168 58.8409 35.9695 58.5932 35.9695 58.2876C35.9695 57.9821 36.2168 57.7344 36.5219 57.7344H42.7605C43.0656 57.7344 43.3129 57.9821 43.3129 58.2876C43.3129 58.5932 43.0656 58.8409 42.7605 58.8409Z" fill="#372168"/>
<path d="M54.3209 38.9649C54.2659 38.9654 54.2116 38.9527 54.1625 38.928L31.543 28.3091C31.4213 28.2546 31.3386 28.1387 31.3265 28.0058C31.3144 27.8729 31.3749 27.7439 31.4847 27.6683C31.5945 27.5928 31.7365 27.5825 31.856 27.6415L54.4756 38.2604C54.6596 38.347 54.7387 38.5666 54.6523 38.751C54.5925 38.8805 54.4634 38.9638 54.3209 38.9649Z" fill="#372168"/>
<path d="M-nan -nanL31.4509 38.9629C31.3084 38.9618 31.1793 38.8785 31.1195 38.7489C31.0331 38.5646 31.1122 38.345 31.2962 38.2584L47.2279 30.7783C47.4111 30.6963 47.6262 30.7763 47.7115 30.9582C47.7968 31.1402 47.721 31.3571 47.5409 31.4459L31.6093 38.926C31.5599 38.9499 31.5058 38.9625 31.4509 38.9629L-nan -nanZ" fill="#372168"/>
<path d="M49.9384 30.2858C49.7945 30.2862 49.6636 30.2026 49.6032 30.0719C49.5168 29.8876 49.596 29.6679 49.78 29.5813L53.9157 27.6412C54.0363 27.5749 54.1837 27.5814 54.298 27.6581C54.4122 27.7347 54.4743 27.8688 54.459 28.0056C54.4437 28.1425 54.3535 28.2594 54.2251 28.3088L50.093 30.2489C50.0451 30.2734 49.9921 30.286 49.9384 30.2858Z" fill="#372168"/>
</svg>
