<svg width="417" height="267" viewBox="0 0 417 267" fill="none" xmlns="http://www.w3.org/2000/svg">
<mask id="mask0_469_75" style="mask-type:alpha" maskUnits="userSpaceOnUse" x="0" y="0" width="417" height="267">
<rect width="417" height="267" fill="#C4C4C4"/>
</mask>
<g mask="url(#mask0_469_75)">
<path d="M52.8922 209.404C52.8922 209.404 59.2934 262.758 59.9216 274.098C60.1924 279.513 63.55 293.594 64.5898 317.855C65.6729 343.85 67.5358 378.574 67.5358 378.574C67.5358 378.574 80.9555 380.643 80.9555 380.253C80.9555 380.036 88.2557 337.405 92.3823 309.613C95.5558 288.189 95.4258 269.18 96.4981 254.548C98.5344 226.647 96.0215 185.066 96.0215 185.066L72.334 175.08L52.8922 209.404Z" fill="#6D89CF"/>
<path d="M70.5469 334.914C72.1391 316.166 74.7169 297.894 72.1391 279.08C69.4205 259.259 76.8289 222.184 72.2257 202.84C71.1426 198.074 54.5711 212.155 54.0295 207.378L52.9464 209.404C52.9464 209.404 59.2934 262.758 59.9216 274.098C60.1924 279.513 63.55 293.594 64.5898 317.855C65.6729 343.85 67.5359 378.574 67.5359 378.574L69.3555 378.845C68.7776 364.191 69.1756 349.515 70.5469 334.914Z" fill="#3662C1"/>
<path d="M81.3563 171.701C81.3563 171.701 79.5042 179.911 76.8939 191.435C72.6265 210.368 66.2795 238.236 62.7269 253.324C60.2466 263.841 55.5892 289.326 51.0185 314.747C45.1156 347.922 39.5159 381.065 39.5159 381.065L29.6488 381.434L23.7675 381.953C23.7675 381.953 24.4282 337.394 23.4534 286.532C22.9985 263.007 19.8467 232.853 19.8467 220.895C19.9875 183.149 31.5551 161.108 31.5551 161.108L81.3563 171.701Z" fill="#6D89CF"/>
<path d="M81.3563 171.701C81.3563 171.701 79.5042 179.911 76.8939 191.435C61.2972 193.829 44.1083 195.886 38.1187 195.886C28.7931 195.886 33.1039 236.081 35.9525 258.338C38.8011 280.596 34.512 310.024 30.212 329.412C26.9627 344.056 28.6198 369.758 29.6271 381.401L23.7459 381.921C23.7459 381.921 24.4066 337.362 23.4318 286.499C22.9985 263.007 19.8467 232.853 19.8467 220.895C19.9875 183.149 31.5551 161.108 31.5551 161.108L81.3563 171.701Z" fill="#3662C1"/>
<path d="M116.178 91.5186C117.824 88.2693 119.211 80.6875 119.211 80.6875L131.049 85.1282C133.876 94.8112 154.78 132.655 159.048 138.623C161.019 141.385 202.794 162.18 202.794 162.18L200.628 174.333C200.628 174.333 161.344 168.343 142.92 157.003C137.743 153.819 136.248 149.281 133.01 145.024C127.475 137.767 114.304 125.062 111.412 112.942C108.521 100.822 112.192 99.2086 116.178 91.5186Z" fill="#E75755"/>
<path d="M104.795 44.0239C103.947 46.0254 102.921 47.9466 101.729 49.7644C99.0975 54.0968 93.9528 58.8733 92.1332 59.8156C87.9306 61.4572 83.5774 62.6834 79.1359 63.4765C79.1359 63.4765 87.5191 88.7346 100.267 94.0635C124.702 104.245 122.092 77.5461 122.092 77.5461C122.092 77.5461 115.821 70.5492 114.164 66.91C113.178 64.7438 116.059 56.4472 116.059 56.4472L104.795 44.0239Z" fill="#FFBCAA"/>
<path d="M116.07 70.3114C116.07 70.3114 115.29 81.5865 102.856 80.0593C87.8223 78.1855 86.9125 61.6465 86.9125 61.6465L71.4999 64.2676L82.1143 97.1399L113.904 106.065L124.572 77.5465L116.07 70.3114Z" fill="white"/>
<path d="M108.748 152.854C111.846 144.991 131.049 85.1495 131.049 85.1495L116.893 68.5671C116.893 68.5671 115.918 98.8941 101.729 99.2407C82.3635 91.6048 81.4754 62.5342 81.4754 62.5342L56.6722 67.5706C56.6722 67.5706 43.1984 109.389 37.6637 125.365C32.129 141.341 24.5148 180.441 24.5148 180.441C58.8926 194.013 91.6674 191.901 99.3358 187.471C99.3358 187.427 105.64 160.707 108.748 152.854Z" fill="#ED6966"/>
<path d="M133.421 29.8893C135.197 31.9256 138.068 35.9764 137.591 38.2076C137.115 40.4388 136.021 47.0458 134.623 50.6958C133.226 54.3459 130.237 63.9639 128.341 68.1447C126.446 72.3255 125.352 73.6469 124.074 74.1234C122.796 74.6 111.64 70.8741 109.777 69.2061C107.914 67.5382 99.7473 58.9491 102.942 49.7102C102.942 49.7102 98.2526 50.4576 97.4295 41.0453C97.2237 38.5975 107.015 32.3805 108.661 30.0301C112.68 24.4413 124.8 29.846 128.363 30.3767C131.926 30.9075 133.421 29.8893 133.421 29.8893Z" fill="#FFBCAA"/>
<path d="M137.591 38.2077C137.591 38.2077 137.212 34.8825 134.342 35.4024C131.472 35.9223 125.959 35.1533 121.994 33.6586C119.345 32.5813 116.867 31.1216 114.64 29.3262C114.64 29.3262 112.961 35.0883 111.391 36.3231C109.82 37.5578 106.809 38.7059 106.105 40.5364C105.656 41.7546 105.294 43.0033 105.022 44.2731C105.022 44.2731 103.484 40.2764 101.275 40.3089C99.065 40.3414 98.0253 43.764 99.6391 45.9086C100.629 47.2628 101.715 48.5442 102.888 49.7428L103.82 64.0181C103.82 64.0181 98.4043 46.9484 97.3212 40.7855C95.7399 32.1206 97.462 23.0659 102.098 22.2968C102.098 22.2968 104.827 12.9496 115.149 14.0977C125.471 15.2458 141.653 26.0119 142.086 31.265C142.508 35.5108 137.591 38.2077 137.591 38.2077Z" fill="#232770"/>
<path d="M128.775 62.2205C126.892 60.8771 124.671 60.0856 122.363 59.9351C118.659 59.4477 115.16 60.3359 112.615 60.2817C110.07 60.2276 106.181 54.8662 106.387 49.559C106.593 44.2517 107.232 39.1611 107.232 39.1611L105.066 40.3742C105.066 40.3742 103.517 49.7214 102.12 55.072C101.379 58.0551 101.46 61.1831 102.354 64.1238C103.249 67.0645 104.923 69.708 107.199 71.7735C112.366 76.6691 121.659 77.8497 123.868 76.6367C126.078 75.4236 127.757 72.0659 128.732 68.9249C129.29 67.4212 129.739 65.8792 130.075 64.3109C130.118 63.791 129.241 62.6104 128.775 62.2205Z" fill="#232770"/>
<path d="M125.482 60.7903C125.027 60.3571 127.724 60.2812 128.006 60.2054C129.858 59.7289 128.515 57.8009 128.136 56.7611C127.801 55.4509 127.865 54.0706 128.32 52.797C128.45 52.2771 129.197 50.7499 129.403 50.8365C129.012 51.7512 128.739 52.7121 128.591 53.696C128.589 55.0293 128.936 56.3399 129.598 57.4977C129.879 57.8867 130.073 58.3324 130.164 58.8038C130.256 59.2752 130.244 59.7609 130.129 60.2271C130.014 60.4832 129.835 60.7055 129.609 60.8724C129.383 61.0393 129.118 61.1453 128.84 61.1802C127.713 61.4956 126.507 61.3555 125.482 60.7903Z" fill="#0E0097"/>
<path d="M114.239 44.847C114.239 45.226 115.095 45.6701 115.236 45.8109C115.377 45.9517 115.333 46.0925 115.799 49.0602C116.146 51.2265 118.409 52.9811 122.742 53.3277C126.045 53.5876 126.793 51.1073 127.54 50.0784C128.287 49.0494 128.623 48.9953 129.121 49.0819C129.62 49.1686 129.804 49.396 129.912 50.6199C130.02 51.8438 128.829 54.8224 132.078 55.4073C133.042 55.5806 134.244 54.9524 135.208 53.5118C135.782 52.678 136.31 51.8139 136.79 50.9232C137.239 50.269 137.555 49.533 137.721 48.757C137.84 48.0638 136.855 47.5764 134.894 47.2298C134.004 47.0176 133.077 47.0176 132.186 47.2298C131.428 47.4681 130.865 48.1179 129.479 47.7172C128.937 47.5656 129.035 47.1431 128.049 46.3633C127.063 45.5835 121.377 44.0996 119.449 43.6664C117.521 43.2331 114.759 42.8757 114.499 43.5256C114.352 43.952 114.265 44.3966 114.239 44.847ZM131.168 49.5801C131.396 48.627 131.905 48.1179 133.919 48.497C137.028 49.0494 136.844 49.7859 135.165 52.5262C134.017 54.4216 133.465 55.0498 132.468 54.9632C130.876 54.8224 130.735 53.4035 130.811 51.9088C130.832 51.1207 130.952 50.3382 131.168 49.5801ZM117.326 44.7387C117.846 44.4029 121.561 45.5726 123.933 46.2225C126.305 46.8724 127.096 47.089 127.107 47.9988C126.913 49.0004 126.547 49.9607 126.024 50.8365C125.287 52.1796 124.626 53.2952 120.836 52.4612C118.16 51.8763 116.503 50.3816 116.373 48.2263C116.297 46.3417 116.85 45.0528 117.326 44.7387ZM106.387 43.0598L114.705 45.4752L116.871 43.2331C116.871 43.2331 109.625 41.5435 108.835 41.2186C107.276 40.9762 105.7 40.8711 104.123 40.9045L106.387 43.0598Z" fill="#232770"/>
<path d="M153.145 309.678C153.145 309.678 147.09 293.561 146.993 246.857C146.895 200.154 136.811 168.289 137.689 164.281L142.628 159.505H210.181C210.181 159.505 236.804 207.162 240.291 223.408C243.779 239.655 248.664 306.613 248.664 306.613L153.145 309.678Z" fill="#6D89CF"/>
<path d="M159.232 309.678C159.232 309.678 153.188 293.561 153.08 246.857C152.971 200.154 141.75 163.523 142.628 159.505H216.279C216.279 159.505 242.891 207.162 246.389 223.408C249.888 239.655 254.751 306.613 254.751 306.613L159.232 309.678Z" fill="#3662C1"/>
<path d="M204.365 121.727C204.365 121.727 204.365 130.641 205.242 134.724C205.78 137.691 207.045 140.478 208.924 142.836C209.932 143.822 220.427 151.501 220.427 151.501C220.427 151.501 209.488 162.69 201.657 162.765C193.826 162.841 177.547 153.917 177.547 153.917C177.547 153.917 186.017 147.082 187.295 143.659C188.573 140.237 189.147 130.359 189.147 130.359L204.365 121.727Z" fill="#FFBCAA"/>
<path d="M239.891 241.237C237.8 233.85 236.002 226.723 236.002 223.485C236.002 215.351 232.038 154.968 232.038 154.968L216.322 147.505L208.925 142.869C208.925 142.869 214.936 156.506 205.892 158.033C191.497 160.426 187.122 142.024 187.122 142.024L183.461 143.909C183.461 143.812 183.396 143.747 183.396 143.736L158.82 155.845C158.82 155.845 167.485 170.034 168.167 177.994C168.85 185.955 161.929 207.758 162.622 224.026C163.315 240.295 165.308 267.578 165.308 267.578C169.759 267.578 236.522 261.199 236.522 261.199C236.522 261.199 237.638 241.54 239.891 241.237Z" fill="white"/>
<path d="M285.294 390.641L273.456 392.536L269.319 393.197C269.319 393.197 261.672 350.36 256.321 335.088C250.971 319.816 245.133 305.4 245.133 305.4C245.133 305.4 229.168 295.067 219.344 291.59C218.492 291.281 217.625 291.017 216.745 290.8C179.128 281.745 186.84 258.209 187.349 243.143C187.349 243.143 225.399 245.97 235.45 253.01C264.975 273.676 274.442 289.273 276.965 297.526C280.301 308.422 280.529 328.178 281.861 343.872C284.06 370.051 285.294 390.641 285.294 390.641Z" fill="#6D89CF"/>
<path d="M251.631 396.966L239.197 399.717L237.215 400.161C237.215 400.161 221.814 322.946 205.48 306.061C200.065 300.418 184.219 295.23 175.803 290.8C162.513 283.705 164.366 274.282 165.2 261.274C165.275 260.007 165.351 258.707 165.395 257.364H206.953C206.953 257.364 234.735 287.897 238.363 296.194C241.017 302.216 245.274 310.534 247.462 326.521C251.631 356.848 251.631 396.966 251.631 396.966Z" fill="#6D89CF"/>
<path d="M239.241 399.717L237.259 400.161C237.259 400.161 221.857 322.947 205.524 306.061C200.108 300.418 184.262 295.23 175.846 290.8C162.557 283.706 164.409 274.283 165.243 261.274C165.243 261.274 169.575 273.394 170.355 277.597C173.344 294.32 195.212 279.536 211.719 296.54C228.225 313.545 235.006 344.078 235.851 367.82C236.437 378.503 237.569 389.149 239.241 399.717Z" fill="#3662C1"/>
<path d="M111.77 268.454L411 268.454V261.186L111.77 261.186V268.454Z" fill="#6D89CF"/>
<path d="M79.2115 243.154H378.431L411 261.177H111.77L79.2115 243.154Z" fill="#DDE8FD"/>
<path d="M111.77 268.455L79.2115 250.432V243.154L111.77 261.177V268.455Z" fill="#6D89CF"/>
<path d="M300.469 235.637L313.423 242.579L318.817 252.035H313.423L306.447 247.8L304.205 252.035L300.469 252.176L295.692 248.385L282.836 237.911L300.469 235.637Z" fill="#FFBCAA"/>
<path d="M260.372 209.479C259.289 207.552 255.206 193.894 251.296 182.586C245.978 184.752 240.638 186.918 235.212 188.716C235.417 193.753 235.916 198.887 236.208 204.01C240.692 213.844 245.62 223.419 249.498 226.333C256.527 231.597 292.486 245.417 292.486 245.417L297.447 235.496C297.447 235.496 261.964 212.339 260.372 209.479Z" fill="#FFBCAA"/>
<path d="M233.219 197.772C239.641 197.772 256.051 194.522 256.051 194.522C256.051 194.522 248.09 173.38 246.108 169.535C241.656 160.87 232.027 154.989 232.027 154.989C232.027 154.989 225.962 163.405 224.142 166.34C216.864 178.102 229.449 192.453 233.219 197.772Z" fill="white"/>
<path d="M234.129 170.303L235.331 196.298C235.732 205.093 235.732 221.902 236.934 226.3" stroke="#6D89CF" stroke-linecap="round" stroke-linejoin="round"/>
<path d="M233.912 248.883H311.495L273.857 236.882H196.274L233.912 248.883Z" fill="#DDE8FD"/>
<path d="M196.274 236.882L233.912 248.883V253.411L196.274 241.399V236.882Z" fill="#6D89CF"/>
<path d="M217.384 231.879L228.735 232.204L241.472 229.518L254.751 236.883L260.524 241.551L257.491 242.883L253.884 240.479L254.751 243.154L249.736 242.883L247.711 241.551V243.154L243.865 244.183L239.977 241.551L231.691 240.143L222.723 239.298L217.384 231.879Z" fill="#FFBCAA"/>
<path d="M181.284 212.708C178.933 209.307 178.034 202.04 177.059 188.403C169.803 186.237 159.491 184.244 152.386 181.753C152.949 205.776 159.968 227.157 167.344 232.388C177.46 239.613 226.644 239.363 226.644 239.363L228.734 232.204C210.831 229.735 185.41 218.698 181.284 212.708Z" fill="#FFBCAA"/>
<path d="M178.121 199.396C177.319 191.706 176.94 179.207 177.352 174.94C178.359 164.217 164.171 152.379 158.82 155.823C150.697 161.065 151.574 183.301 154.228 203.198C161.387 201.151 170.907 201.021 178.121 199.396Z" fill="white"/>
<path d="M233.912 253.41H311.495V248.883H233.912V253.41Z" fill="#6D89CF"/>
<path d="M237.248 239.525L243.595 241.497L257.079 150.05L253.321 152.021L237.248 239.525Z" fill="#6D89CF"/>
<path d="M243.595 241.497L359.953 237.565L376.633 148.089L257.079 150.05L243.595 241.497Z" fill="#6D89CF"/>
<path d="M298.129 253.844H316.434L304.108 251.624H285.803L298.129 253.844Z" fill="#E1E6FD"/>
<path d="M316.434 253.844H298.129V257.905H316.434V253.844Z" fill="#6D89CF"/>
<path d="M298.129 257.906L285.803 255.685V251.624L298.129 253.844V257.906Z" fill="#6D89CF"/>
<path d="M293.948 253.075L298.324 254.158L313.932 253.844L316.434 211.689H296.169L293.948 253.075Z" fill="#6D89CF"/>
<path d="M298.324 254.158L316.434 253.844V211.689H298.129L298.324 254.158Z" fill="#3662C1"/>
<path d="M154.228 203.187L178.121 199.386C178.121 199.386 178.478 177.723 178.478 172.459" stroke="#6D89CF" stroke-linecap="round" stroke-linejoin="round"/>
<path d="M178.608 103.324C175.554 108.88 176.54 114.674 177.254 118.325C177.969 121.975 178.782 124.227 178.5 128.993C178.218 133.759 179.583 140.658 185.345 144.406C191.107 148.153 202.123 143.193 205.253 136.943C207.148 133.152 210.365 124.433 210.907 121.249C211.448 118.065 213.257 107.364 209 103.009C204.744 98.6553 197.357 98.677 189.862 100.118C182.367 101.558 179.886 100.973 178.608 103.324Z" fill="#FFBCAA"/>
<path d="M194.768 107.667C194.768 107.667 197.801 112.92 201.408 114.307C204.484 115.498 204.44 122.809 204.44 122.809L209.011 123.806C209.824 126.416 207.04 132.6 207.04 132.6C209.177 130.969 210.728 128.689 211.459 126.102C212.607 121.856 215.629 118.163 214.243 109.119C212.932 100.627 205.827 100.454 205.827 100.454C205.827 100.454 205.09 95.7422 196.079 94.4316C187.067 93.1211 177.135 99.0023 175.825 104.234C175.088 107.771 175.162 111.43 176.041 114.935C176.041 114.935 194.118 111.751 194.768 107.667Z" fill="#232770"/>
<path d="M207.462 118.39C209.336 115.65 213.289 115.617 213.593 119.17C213.842 122.137 212.445 122.896 210.528 125.614C210.191 126.138 209.682 126.527 209.088 126.713C208.494 126.899 207.853 126.871 207.278 126.632C207.278 126.632 206.303 120.09 207.462 118.39Z" fill="#FFBCAA"/>
<path d="M209.585 118.704C210.592 117.686 211.751 118.466 212.152 119.506C212.553 120.546 212.152 119.982 211.21 119.452C210.268 118.921 209.585 120.643 209.791 121.683C210.062 123.113 209.737 124.932 208.48 125.192C207.224 125.452 207.852 124.911 207.863 123.373C207.874 121.835 207.787 123.373 208.026 121.824C208.147 120.628 208.702 119.519 209.585 118.704Z" fill="#E38168"/>
<path d="M114.424 197.262L125.991 206.707C126.984 207.475 128.208 207.884 129.463 207.866C130.719 207.848 131.931 207.405 132.901 206.609L173.42 170.249C173.849 169.889 174.191 169.436 174.419 168.924C174.648 168.413 174.757 167.856 174.739 167.297C174.722 166.737 174.577 166.188 174.317 165.692C174.056 165.196 173.687 164.766 173.236 164.433L161.939 154.988C158.159 152.93 155.874 152.822 153.979 154.523L113.568 190.525C111.618 192.204 111.38 193.839 114.424 197.262Z" fill="#6D89CF"/>
<path d="M115.462 198.236L127.073 207.767C128.068 208.543 129.298 208.958 130.56 208.942C131.822 208.926 133.04 208.481 134.016 207.681L174.73 171.147C175.16 170.786 175.503 170.332 175.731 169.819C175.96 169.306 176.069 168.748 176.05 168.186C176.032 167.625 175.885 167.075 175.623 166.579C175.36 166.082 174.988 165.652 174.535 165.32L163.13 155.8C162.114 154.987 160.851 154.544 159.55 154.544C158.249 154.544 156.986 154.987 155.97 155.8L115.159 192.138C114.711 192.521 114.356 193.002 114.123 193.543C113.889 194.085 113.783 194.673 113.812 195.262C113.841 195.85 114.005 196.425 114.291 196.941C114.578 197.456 114.978 197.899 115.462 198.236Z" fill="#6D89CF"/>
<path d="M136.584 189.399L135.587 188.998L138.176 187.46L138.869 185.695L138.089 185.218L140.18 183.052L141.057 180.593C141.057 180.593 135.403 180.485 131.991 180.355C129.755 180.243 127.535 179.913 125.363 179.369C126.659 178.41 127.89 177.364 129.045 176.239C129.951 175.448 130.956 174.778 132.035 174.246L127.962 172.86C127.962 172.86 118.063 177.008 117.044 177.051C116.026 177.095 110.459 179.727 102.552 175.708C100.386 178.842 98.1911 181.951 95.9672 185.034C103.007 187.2 108.964 188.998 111.499 189.756C119.644 192.204 126.966 193.818 128.103 194.024C129.24 194.23 136.302 191.024 136.226 190.98C136.311 190.446 136.431 189.918 136.584 189.399Z" fill="#FEC4AD"/>
<path d="M53.7263 68.7299C40.9131 77.1024 46.5019 118.434 48.6357 128.593C51.1701 140.648 54.3978 151.804 61.633 160.783C78.0095 181.113 103.647 189.106 103.647 189.106L110.752 177.409C110.752 177.409 85.7321 159.354 83.1868 140.226C81.6813 128.951 77.2297 96.9882 75.7458 88.4533C73.493 75.5102 60.2899 64.4408 53.7263 68.7299Z" fill="#E75755"/>
<path d="M185.345 144.406C187.994 156.672 191.616 168.707 196.176 180.398C200.021 188.933 207.917 190.222 210.484 178.232C213.918 162.169 209.834 142.803 209.834 142.803" stroke="#6D89CF" stroke-linecap="round" stroke-linejoin="round"/>
<path d="M211.925 188.749H195.483V213.346H211.925V188.749Z" fill="#6D89CF"/>
<path d="M197.465 190.948V201.898H209.932V190.948H197.465Z" fill="white"/>
<path d="M203.661 189.864C203.442 189.864 203.233 189.778 203.078 189.623C202.924 189.469 202.837 189.26 202.837 189.041V186.745C202.837 186.527 202.924 186.317 203.078 186.163C203.233 186.009 203.442 185.922 203.661 185.922C203.879 185.922 204.088 186.009 204.243 186.163C204.397 186.317 204.484 186.527 204.484 186.745V189.041C204.484 189.26 204.397 189.469 204.243 189.623C204.088 189.778 203.879 189.864 203.661 189.864Z" fill="#6D89CF"/>
</g>
</svg>
