<svg width="32" height="24" viewBox="0 0 32 24" fill="none" xmlns="http://www.w3.org/2000/svg">
<path d="M29.1875 0H2.8125C1.26363 0 0 1.24283 0 2.76923V21.2308C0 22.752 1.258 24 2.8125 24H29.1875C30.7325 24 32 22.7614 32 21.2308V2.76923C32 1.248 30.742 0 29.1875 0ZM28.7991 1.84615L16.0596 14.3897L3.20994 1.84615H28.7991ZM1.875 20.8485V3.14271L10.9049 11.9575L1.875 20.8485ZM3.20081 22.1538L12.2364 13.2572L15.4025 16.3478C15.769 16.7056 16.3604 16.7044 16.7254 16.345L19.8125 13.3054L28.7992 22.1538H3.20081ZM30.125 20.8484L21.1383 12L30.125 3.15151V20.8484Z" fill="black"/>
</svg>
