<svg width="144" height="124" viewBox="0 0 144 124" fill="none" xmlns="http://www.w3.org/2000/svg">
<path d="M143.618 47.9234V111.534C143.618 118.207 138.571 123.616 132.341 123.616H11.6589C5.43178 123.616 0.382324 118.207 0.382324 111.534V12.4628C0.382324 5.78994 5.43178 0.380859 11.6589 0.380859H132.341C138.571 0.380859 143.618 5.78994 143.618 12.4628V47.9234Z" fill="white"/>
<path fill-rule="evenodd" clip-rule="evenodd" d="M11.6589 124H132.341C138.77 124 144 118.411 144 111.544V12.4633C144 5.58855 138.77 0 132.341 0H11.6589C5.23043 0 0 5.59603 0 12.4633V111.537C0 118.411 5.23043 124 11.6589 124ZM0.764648 12.4707C0.764648 6.00722 5.65097 0.755184 11.6588 0.755184L132.341 0.747706C138.349 0.747706 143.235 6.00722 143.235 12.4632V111.552C143.235 118.015 138.349 123.267 132.341 123.267H11.6588C5.65097 123.267 0.764648 118.008 0.764648 111.552V12.4707Z" fill="#372168"/>
<path d="M143.618 10.8259H0.382341C0.17118 10.8259 0 10.6585 0 10.452C0 10.2455 0.17118 10.0781 0.382341 10.0781H143.618C143.829 10.0781 144 10.2455 144 10.452C144 10.6585 143.829 10.8259 143.618 10.8259Z" fill="#372168"/>
<path d="M135.257 7.63862C135.164 7.64014 135.073 7.60822 135.002 7.54889L131.615 4.71473C131.454 4.5805 131.435 4.34447 131.573 4.18753C131.71 4.03059 131.951 4.01218 132.112 4.1464L135.499 6.98056C135.622 7.08304 135.665 7.24973 135.608 7.39722C135.551 7.54472 135.406 7.64129 135.244 7.63862H135.257Z" fill="#372168"/>
<path d="M131.872 7.63684C131.76 7.63757 131.653 7.58909 131.582 7.50473C131.515 7.42987 131.482 7.33221 131.49 7.23345C131.498 7.13468 131.545 7.043 131.622 6.97878L135.01 4.14462C135.17 4.00695 135.415 4.02258 135.555 4.17952C135.696 4.33646 135.68 4.57528 135.52 4.71295L132.132 7.54711C132.06 7.6076 131.967 7.63959 131.872 7.63684Z" fill="#372168"/>
<path d="M11.5923 6.77965C12.8234 6.77965 12.8234 4.91016 11.5923 4.91016C10.3612 4.91016 10.3612 6.77965 11.5923 6.77965Z" fill="#372168"/>
<path d="M19.0762 6.77965C20.3048 6.77965 20.3073 4.91016 19.0762 4.91016C17.845 4.91016 17.8425 6.77965 19.0762 6.77965Z" fill="#372168"/>
<path d="M26.5576 6.77965C27.7888 6.77965 27.7888 4.91016 26.5576 4.91016C25.3265 4.91016 25.3265 6.77965 26.5576 6.77965Z" fill="#372168"/>
<path d="M9.90764 117.94C8.03597 117.579 6.54611 116.193 6.08423 114.383L9.90764 117.94Z" fill="white"/>
<path d="M9.91442 118.193C9.91004 118.188 9.90415 118.186 9.89801 118.186H9.86837C9.86224 118.186 9.85609 118.185 9.85007 118.184C7.888 117.801 6.32718 116.346 5.84201 114.447C5.80823 114.309 5.89496 114.171 6.03573 114.138C6.17651 114.105 6.31802 114.19 6.3518 114.327C6.78781 116.043 8.1983 117.357 9.9713 117.7C10.1121 117.714 10.2148 117.837 10.2007 117.974C10.1869 118.109 10.066 118.208 9.92857 118.199C9.92324 118.199 9.91824 118.197 9.91442 118.193Z" fill="#372168"/>
<path d="M-nan -nanL134.153 107.768C134.078 107.767 134.008 107.734 133.96 107.678L129.244 102.254C129.153 102.149 129.167 101.991 129.275 101.902C129.382 101.814 129.543 101.827 129.634 101.932L134.35 107.356C134.415 107.431 134.429 107.535 134.387 107.624C134.345 107.712 134.253 107.769 134.153 107.768L-nan -nanZ" fill="#372168"/>
<path d="M133.847 103.87C133.773 103.87 133.702 103.838 133.654 103.783L132.491 102.445C132.4 102.34 132.412 102.183 132.519 102.093C132.626 102.004 132.787 102.016 132.879 102.12L134.041 103.459C134.106 103.533 134.121 103.637 134.079 103.725C134.037 103.814 133.947 103.87 133.847 103.87Z" fill="#372168"/>
<path d="M-nan -nanL130.995 107.691C130.92 107.691 130.849 107.658 130.802 107.602L128.281 104.705C128.189 104.6 128.202 104.442 128.31 104.353C128.418 104.263 128.579 104.276 128.671 104.381L131.189 107.28C131.233 107.331 131.254 107.396 131.248 107.462C131.242 107.528 131.21 107.589 131.158 107.632C131.113 107.67 131.055 107.691 130.995 107.691L-nan -nanZ" fill="#372168"/>
<path d="M113.813 60.7871V102.265C113.813 104.894 111.633 107.026 108.944 107.026H35.025C32.3362 107.026 30.1565 104.894 30.1565 102.265V29.9778C30.1565 27.3484 32.3362 25.2168 35.025 25.2168H108.944C111.633 25.2168 113.813 27.3484 113.813 29.9778V56.051" fill="white"/>
<path d="M108.944 107.392H35.025C32.1268 107.388 29.7784 105.091 29.7742 102.257V29.9747C29.7784 27.1405 32.1268 24.844 35.025 24.8398H108.944C111.843 24.8426 114.192 27.1399 114.195 29.9747V56.048C114.195 56.2545 114.024 56.4219 113.813 56.4219C113.602 56.4219 113.43 56.2545 113.43 56.048V29.9747C113.428 27.5529 111.421 25.5904 108.944 25.5876H35.025C32.5485 25.5904 30.5417 27.5529 30.5389 29.9747V102.262C30.5431 104.683 32.5491 106.645 35.025 106.649H108.944C111.42 106.645 113.426 104.683 113.43 102.262V60.784C113.43 60.5775 113.602 60.4101 113.813 60.4101C114.024 60.4101 114.195 60.5775 114.195 60.784V102.262C114.19 105.095 111.841 107.389 108.944 107.392Z" fill="#372168"/>
<path d="M78.046 72.2969H84.7777C85.8068 72.2969 86.641 73.1127 86.641 74.119V75.1734C86.641 76.1797 85.8068 76.9955 84.7777 76.9955H59.1965C58.1675 76.9955 57.3333 76.1797 57.3333 75.1734V74.119C57.3333 73.1127 58.1675 72.2969 59.1965 72.2969H75.5251" fill="white"/>
<path d="M84.7777 77.4946H59.1966C57.8871 77.4918 56.8263 76.4544 56.8235 75.1739V74.1195C56.8263 72.839 57.8871 71.8016 59.1966 71.7988H75.5251C75.8066 71.7988 76.0349 72.022 76.0349 72.2974C76.0349 72.5727 75.8066 72.7959 75.5251 72.7959H59.1966C58.449 72.7959 57.8431 73.3885 57.8431 74.1195V75.1739C57.8431 75.9049 58.449 76.4975 59.1966 76.4975H84.7777C85.5253 76.4975 86.1312 75.9049 86.1312 75.1739V74.1195C86.1312 73.3885 85.5253 72.7959 84.7777 72.7959H78.046C77.7644 72.7959 77.5362 72.5727 77.5362 72.2974C77.5362 72.022 77.7644 71.7988 78.046 71.7988H84.7777C86.0878 71.8002 87.1494 72.8384 87.1508 74.1195V75.1739C87.1494 76.455 86.0878 77.4932 84.7777 77.4946Z" fill="#372168"/>
<rect x="57.3333" y="81.5156" width="29.3078" height="4.69867" rx="2.34933" fill="white"/>
<path fill-rule="evenodd" clip-rule="evenodd" d="M58.9213 86.7139H85.053C86.212 86.7125 87.1508 85.7933 87.1508 84.6599V83.0696C87.1494 81.9368 86.2114 81.0184 85.053 81.0156H58.9213C57.7629 81.0184 56.8249 81.9368 56.8235 83.0696V84.6624C56.8249 85.7948 57.7633 86.7125 58.9213 86.7139ZM57.8433 83.0725C57.8433 82.4898 58.3256 82.017 58.9215 82.0156L85.0532 82.0131C85.6491 82.0145 86.1314 82.4873 86.1314 83.07V84.6628C86.13 85.2446 85.6481 85.7159 85.0532 85.7172H58.9215C58.3266 85.7159 57.8447 85.2446 57.8433 84.6628V83.0725Z" fill="#372168"/>
<path fill-rule="evenodd" clip-rule="evenodd" d="M-nan -nanL81.3648 62.6839H62.6097C62.4258 62.6843 62.2515 62.6031 62.1361 62.463C62.0206 62.323 61.9764 62.1393 62.0158 61.9635C63.8332 53.835 67.6235 49.418 71.9873 49.418C76.3511 49.418 80.1439 53.835 81.9587 61.9635C81.9982 62.1393 81.9539 62.323 81.8385 62.463C81.723 62.6031 81.5488 62.6843 81.3648 62.6839L-nan -nanZ" fill="#A6B4F3"/>
<path fill-rule="evenodd" clip-rule="evenodd" d="M61.7389 62.7717C61.9513 63.0292 62.2715 63.179 62.6099 63.179H81.365C81.7034 63.179 82.0236 63.0292 82.236 62.7717C82.4484 62.5141 82.5302 62.1763 82.4585 61.8529C80.6538 53.7518 76.7336 48.916 71.9874 48.916C67.2413 48.916 63.3287 53.7518 61.5164 61.8529C61.4447 62.1763 61.5265 62.5141 61.7389 62.7717ZM62.513 62.0698C64.2129 54.4605 67.7554 49.9165 71.9861 49.9156C71.9868 49.9156 71.9874 49.9162 71.9874 49.9169C71.9874 49.9175 71.9879 49.9181 71.9886 49.9181C76.2193 49.919 79.7618 54.4605 81.4618 62.0698C81.4761 62.1236 81.4257 62.1834 81.37 62.1845C81.3683 62.1846 81.3666 62.1846 81.3649 62.1845H62.6098C62.6081 62.1846 62.6064 62.1846 62.6047 62.1845C62.5491 62.1834 62.4987 62.1236 62.513 62.0698Z" fill="#372168"/>
<path fill-rule="evenodd" clip-rule="evenodd" d="M71.9871 47.1495C74.4295 47.1495 76.4095 45.2133 76.4095 42.8248C76.4095 40.4363 74.4295 38.5 71.9871 38.5C69.5447 38.5 67.5647 40.4363 67.5647 42.8248C67.5647 45.2133 69.5447 47.1495 71.9871 47.1495Z" fill="#A6B4F3"/>
<path fill-rule="evenodd" clip-rule="evenodd" d="M67.4305 44.6692C68.1939 46.4716 69.9924 47.6467 71.9873 47.6467C74.7101 47.644 76.9167 45.4861 76.9195 42.8234C76.9195 40.8726 75.7178 39.1138 73.8748 38.3673C72.0317 37.6207 69.9103 38.0334 68.4997 39.4129C67.0891 40.7923 66.6671 42.8669 67.4305 44.6692ZM68.0745 42.8242C68.0745 40.711 69.8262 38.998 71.9871 38.998C74.1468 39.0007 75.8969 40.7122 75.8997 42.8242C75.8997 44.9374 74.148 46.6504 71.9871 46.6504C69.8262 46.6504 68.0745 44.9374 68.0745 42.8242Z" fill="#372168"/>
<path d="M75.7115 53.2325C75.6166 53.2331 75.5292 53.1822 75.4846 53.1004C75.0982 52.3944 74.427 51.8791 73.6341 51.6795C73.5434 51.6589 73.4714 51.5915 73.4464 51.5037C73.4214 51.416 73.4473 51.3219 73.514 51.2583C73.5807 51.1947 73.6776 51.1718 73.7666 51.1985C74.6969 51.4335 75.4838 52.0394 75.9358 52.8685C76.0012 52.9904 75.9533 53.141 75.8287 53.205C75.7924 53.2232 75.7522 53.2326 75.7115 53.2325Z" fill="#372168"/>
<rect x="66.3032" y="90.998" width="11.3683" height="4.32726" rx="2.16363" fill="#FFB3C4"/>
<path fill-rule="evenodd" clip-rule="evenodd" d="M67.6746 95.8243H76.3002C77.3381 95.8243 78.1799 95.0022 78.1813 93.9872V92.3396C78.1799 91.3242 77.3385 90.5014 76.3002 90.5H67.6746C66.6362 90.5014 65.7949 91.3242 65.7935 92.3396V93.9872C65.7949 95.0022 66.6367 95.8243 67.6746 95.8243ZM66.813 92.3394C66.8144 91.8747 67.1993 91.4983 67.6745 91.4969H76.3002C76.776 91.4969 77.1617 91.8741 77.1617 92.3394V93.9871C77.1617 94.2103 77.0708 94.4243 76.9092 94.5819C76.7476 94.7395 76.5284 94.8278 76.3002 94.8271H67.6745C67.1997 94.8271 66.8144 94.4514 66.813 93.9871V92.3394Z" fill="#372168"/>
<path d="M-nan -nanL102.648 43.2986C102.574 43.2986 102.503 43.2667 102.455 43.2113L98.769 38.9738C98.7098 38.9061 98.692 38.8127 98.7223 38.7287C98.7527 38.6448 98.8265 38.583 98.9161 38.5667C99.0056 38.5504 99.0972 38.5821 99.1564 38.6498L102.842 42.8873C102.907 42.9612 102.922 43.0652 102.88 43.1536C102.838 43.242 102.748 43.2986 102.648 43.2986L-nan -nanZ" fill="#372168"/>
<path d="M102.417 40.2481C102.342 40.2481 102.271 40.2162 102.223 40.1608L101.316 39.1164C101.224 39.0118 101.237 38.8544 101.344 38.7649C101.451 38.6754 101.612 38.6877 101.703 38.7923L102.613 39.8393C102.657 39.8898 102.678 39.9553 102.672 40.0212C102.666 40.0871 102.634 40.1481 102.582 40.1907C102.536 40.2284 102.477 40.2488 102.417 40.2481Z" fill="#372168"/>
<path d="M-nan -nanL100.179 43.237C100.104 43.2364 100.033 43.2036 99.9848 43.1473L98.017 40.884C97.9578 40.8163 97.94 40.7229 97.9704 40.6389C98.0007 40.5549 98.0746 40.4932 98.1641 40.4769C98.2536 40.4606 98.3452 40.4922 98.4044 40.5599L100.375 42.8257C100.44 42.9 100.454 43.0046 100.412 43.0932C100.37 43.1818 100.278 43.238 100.179 43.237L-nan -nanZ" fill="#372168"/>
</svg>
