<svg width="24" height="24" viewBox="0 0 24 24" fill="none" xmlns="http://www.w3.org/2000/svg">
<path d="M12.2116 9.19081C11.2073 8.18717 9.57258 8.18647 8.56761 9.19052C8.56751 9.19062 8.56742 9.19072 8.56732 9.19081L3.48528 14.1951L3.48474 14.1957C1.74816 15.9322 1.74836 18.7669 3.49101 20.5101L3.49104 20.5101C5.23323 22.2517 8.06899 22.2517 9.81174 20.5101L9.81177 20.5101L20.5055 9.81576C22.2477 8.07357 22.2477 5.23781 20.5056 3.49505C19.6621 2.65098 18.5393 2.1861 17.3457 2.1861C16.1522 2.1861 15.0294 2.65098 14.1859 3.49505L14.1857 3.49487L14.1811 3.50028L13.6778 4.08157C13.2797 4.49773 12.6223 4.51336 12.2045 4.11637C11.7873 3.71895 11.7711 3.05927 12.1681 2.64147L12.1681 2.64154L12.171 2.63824L12.6936 2.03773C13.9509 0.78111 15.5962 0.1 17.3463 0.1C19.0978 0.1 20.7435 0.782144 21.9809 2.02016L21.981 2.02018C23.219 3.25822 23.9011 4.90392 23.9011 6.65482C23.9011 8.4063 23.219 10.052 21.981 11.29L11.2866 21.9838C11.2866 21.9838 11.2866 21.9838 11.2866 21.9838C10.0088 23.261 8.33089 23.9 6.65197 23.9C4.97361 23.9 3.29455 23.261 2.01676 21.9844C-0.538842 19.4277 -0.538901 15.2688 2.01646 12.7137C2.01656 12.7136 2.01665 12.7135 2.01674 12.7134L7.09877 7.7091L7.09929 7.70858C8.91134 5.89764 11.8691 5.89695 13.687 7.71484C14.5678 8.59567 15.0528 9.76643 15.0528 11.0121C15.0528 12.2582 14.568 13.4283 13.6873 14.3091C13.6872 14.3092 13.6871 14.3093 13.687 14.3094L9.82376 18.0938C9.82374 18.0938 9.82373 18.0938 9.82371 18.0938C9.41198 18.4961 8.75068 18.4905 8.34895 18.0789L8.34881 18.0788C7.94565 17.6673 7.95249 17.0065 8.36389 16.6039L8.36393 16.6039L12.2194 12.8273L12.2202 12.8266C12.6986 12.3481 12.9667 11.7008 12.9667 11.0127C12.9667 10.3249 12.6984 9.67709 12.2116 9.19081ZM12.2116 9.19081L12.1409 9.26155M12.2116 9.19081L12.1409 9.26155M12.1409 9.26155C12.609 9.72905 12.8667 10.3514 12.8667 11.0127C12.8667 11.6745 12.609 12.2963 12.1495 12.7558L8.63801 9.26155C9.60389 8.29624 11.1756 8.29681 12.1409 9.26155Z" fill="black" stroke="#F5F9FF" stroke-width="0.2"/>
</svg>
