<svg width="24" height="20" viewBox="0 0 24 20" fill="none" xmlns="http://www.w3.org/2000/svg">
<path d="M12 4.37595e-05C10.7179 4.37595e-05 9.74553 -0.00208698 8.95311 0.0700298C8.16072 0.142147 7.49486 0.281345 6.95761 0.716183C6.42036 1.15102 6.18546 1.79992 6.09044 2.48209C6.02383 2.96028 6.01134 3.53191 6.00674 4.16666H6.00004C4.71794 4.16666 3.74397 4.16335 2.93809 4.25129C2.13221 4.33923 1.4243 4.53062 0.900676 5.03904C0.377111 5.54747 0.17973 6.23587 0.088736 7.01986C-0.00225773 7.80385 5.07952e-06 8.75185 5.07952e-06 10V14.1666C5.07952e-06 15.4148 -0.00225773 16.3628 0.088736 17.1468C0.17973 17.9307 0.377111 18.6191 0.900676 19.1276C1.42424 19.636 2.13221 19.8274 2.93809 19.9153C3.74396 20.0033 4.71794 20 6.00004 20H18C19.2838 20 20.2589 20.0021 21.0653 19.9137C21.8716 19.8253 22.5796 19.6334 23.1027 19.1243C23.6257 18.6153 23.8225 17.927 23.9129 17.1435C24.0034 16.36 24 15.4131 24 14.1666V9.99999C24 8.7535 24.0034 7.80659 23.9129 7.0231C23.8225 6.23962 23.6256 5.55136 23.1027 5.04228C22.5797 4.53326 21.8717 4.34136 21.0653 4.2529C20.2589 4.16443 19.2838 4.16663 18 4.16663H17.9949C17.9907 3.53324 17.9774 2.96297 17.9112 2.48531C17.8168 1.80347 17.5825 1.15482 17.0457 0.719408C16.5089 0.283987 15.843 0.142479 15.0502 0.0699964C14.2574 -0.00248718 13.2837 1.03811e-05 12 1.03811e-05L12 4.37595e-05ZM12 1.6667C13.2829 1.6667 14.2368 1.6705 14.8895 1.73017C15.5422 1.78985 15.8403 1.91176 15.9475 1.99873C16.0547 2.0857 16.1443 2.2195 16.212 2.70836C16.2589 3.04662 16.2728 3.5651 16.279 4.16668H7.72099C7.72759 3.56458 7.74248 3.04502 7.78963 2.70669C7.85772 2.21784 7.9466 2.08409 8.05413 1.99706C8.16166 1.91003 8.46126 1.78791 9.11381 1.72851C9.76639 1.66911 10.7184 1.66666 12 1.66666L12 1.6667ZM6.00002 5.83333H17.9999C19.2828 5.83333 20.2335 5.83808 20.8727 5.9082C21.5119 5.97833 21.7695 6.10122 21.8906 6.21907C22.0116 6.33692 22.1369 6.5873 22.2086 7.20865C22.2804 7.83 22.2857 8.75397 22.2857 9.99996V14.1666C22.2857 15.4126 22.2803 16.3366 22.2086 16.9579C22.1369 17.5793 22.0116 17.8297 21.8906 17.9475C21.7695 18.0653 21.5119 18.1882 20.8727 18.2584C20.2335 18.3285 19.2829 18.3332 17.9999 18.3332H6.00002C4.71842 18.3332 3.76803 18.3281 3.12895 18.2584C2.48987 18.1886 2.2323 18.0668 2.1111 17.9491C1.98988 17.8314 1.86348 17.581 1.79134 16.9595C1.71921 16.3381 1.71433 15.4139 1.71433 14.1666V9.99993C1.71433 8.75269 1.71921 7.82844 1.79134 7.20695C1.86348 6.58549 1.98987 6.33512 2.1111 6.21737C2.23231 6.09966 2.48985 5.97788 3.12895 5.90813C3.76805 5.83839 4.71842 5.83326 6.00002 5.83326V5.83333Z" fill="black"/>
</svg>
