<svg width="26" height="26" viewBox="0 0 26 26" fill="none" xmlns="http://www.w3.org/2000/svg">
<path d="M24.9706 24.9706L24.9706 24.9706C24.7844 25.1567 24.5399 25.25 24.2962 25.25C24.0525 25.25 23.8079 25.1568 23.6217 24.9705L18.0626 19.4114C16.1688 20.9955 13.8024 21.8586 11.3043 21.8586C8.48563 21.8586 5.8345 20.7604 3.84137 18.7673C1.84828 16.7742 0.750095 14.123 0.750095 11.3043C0.750095 8.48564 1.84823 5.83441 3.84132 3.84132C5.83445 1.84818 8.48568 0.75 11.3043 0.75C14.123 0.75 16.7742 1.84818 18.7673 3.84132C20.7604 5.8344 21.8586 8.48563 21.8586 11.3043C21.8586 13.8023 20.9956 16.1687 19.4115 18.0625L24.9706 23.6216C25.3431 23.9941 25.3431 24.5981 24.9706 24.9706ZM5.19031 17.4183C8.56148 20.7895 14.0472 20.7894 17.4183 17.4183C20.7895 14.0472 20.7895 8.56143 17.4183 5.19031C15.7327 3.50467 13.5194 2.66197 11.3043 2.66197C9.08973 2.66197 6.87553 3.50509 5.19026 5.19031C1.81924 8.56138 1.81924 14.0472 5.19031 17.4183Z" fill="#3662C1" stroke="#3662C1" stroke-width="0.5"/>
</svg>
