<svg width="24" height="22" viewBox="0 0 24 22" fill="none" xmlns="http://www.w3.org/2000/svg">
<path d="M0.800092 10.986L0.800141 10.9831L0.800143 10.9828C0.805111 10.6714 0.93115 10.3741 1.15155 10.154L10.1443 1.16594C10.2546 1.05181 10.3865 0.960697 10.5323 0.897893C10.6787 0.834827 10.8362 0.801567 10.9956 0.800054C11.155 0.798541 11.3131 0.828806 11.4607 0.889082C11.6083 0.949358 11.7424 1.03844 11.8551 1.15112L11.7144 1.29194L11.8551 1.15112C11.9678 1.2638 12.057 1.39781 12.1173 1.54534C12.1776 1.69286 12.2079 1.85093 12.2064 2.0103C12.2049 2.16967 12.1716 2.32713 12.1085 2.47348C12.0456 2.61922 11.9545 2.75102 11.8403 2.86126L4.89498 9.80289L21.9851 9.80289C22.3768 9.79773 22.686 9.94314 22.8953 10.1759C23.1014 10.4052 23.2 10.7069 23.2 11.0017C23.2 11.2965 23.1014 11.5982 22.8953 11.8275C22.686 12.0603 22.3768 12.2057 21.9851 12.2005L4.89498 12.2005L11.8403 19.1422C11.9545 19.2524 12.0456 19.3842 12.1085 19.5299C12.1716 19.6763 12.2049 19.8337 12.2064 19.9931C12.2079 20.1525 12.1776 20.3106 12.1173 20.4581C12.057 20.6056 11.9678 20.7396 11.8551 20.8523C11.7424 20.965 11.6083 21.0541 11.4607 21.1143C11.3131 21.1746 11.155 21.2049 10.9956 21.2034C10.8362 21.2018 10.6787 21.1686 10.5323 21.1055C10.3865 21.0427 10.2547 20.9516 10.1444 20.8375L1.15154 11.8495C1.03791 11.7359 0.948252 11.6008 0.887886 11.4519C0.827887 11.304 0.798045 11.1456 0.800099 10.986H0.800092Z" fill="white" stroke="white" stroke-width="0.4"/>
</svg>
