<svg width="1184" height="1809" viewBox="0 0 1184 1809" fill="none" xmlns="http://www.w3.org/2000/svg">
<path d="M591.997 1173C681.909 1173 768.135 1134.97 831.71 1067.29C895.285 999.602 931 907.8 931 812.074V360.921C931 265.2 895.285 173.398 831.71 105.711C768.135 38.0253 681.909 0 591.997 0C502.091 0 415.865 38.0253 352.29 105.711C288.716 173.398 253 265.2 253 360.921V812.074C253 907.8 288.716 999.602 352.29 1067.29C415.865 1134.97 502.091 1173 591.997 1173Z" fill="#FC4A1A"/>
<path d="M1184 815.329C1184 791.374 1175.09 768.397 1159.23 751.455C1143.37 734.513 1121.86 725 1099.43 725C1077 725 1055.49 734.513 1039.63 751.455C1023.77 768.397 1014.86 791.374 1014.86 815.329C1014.86 935.119 970.308 1050 891.006 1134.71C811.703 1219.41 704.147 1267 591.997 1267C479.848 1267 372.297 1219.41 292.994 1134.71C213.692 1050 169.14 935.119 169.14 815.329C169.14 791.374 160.228 768.397 144.372 751.455C128.511 734.513 106.999 725 84.5673 725C62.1405 725 40.6293 734.513 24.7677 751.455C8.90616 768.397 0 791.374 0 815.329C0.166471 967.258 51.5384 1114.04 144.715 1228.83C237.892 1343.61 366.647 1418.74 507.43 1440.44V1628.33H328.983C309.017 1628.33 289.873 1636.8 275.759 1651.88C261.641 1666.96 253.712 1687.4 253.712 1708.73V1728.6C253.712 1749.92 261.641 1770.37 275.759 1785.45C289.873 1800.53 309.017 1809 328.983 1809H855.017C874.977 1809 894.127 1800.53 908.241 1785.45C922.354 1770.37 930.287 1749.92 930.287 1728.6V1708.73C930.287 1687.4 922.354 1666.96 908.241 1651.88C894.127 1636.8 874.977 1628.33 855.017 1628.33H676.57V1440.44C817.347 1418.74 946.102 1343.61 1039.28 1228.83C1132.46 1114.04 1183.83 967.258 1184 815.329Z" fill="#FC4A1A"/>
</svg>
