<svg width="220" height="141" viewBox="0 0 220 141" fill="none" xmlns="http://www.w3.org/2000/svg">
<path d="M127.573 119.182L211.22 70.8926L88.4292 -7.62939e-06L4.7832 48.288L127.573 119.182Z" fill="#F5F5FD"/>
<path d="M211.214 70.8873V92.0885L127.566 140.386V119.181L211.214 70.8873Z" fill="#CDD1F6"/>
<path d="M4.7832 48.2875V69.4935L127.573 140.386V119.181L4.7832 48.2875Z" fill="#CCCCCC"/>
<path d="M143.267 119.908L127.572 127.52L112.511 119.181L127.572 129.926L143.267 119.908Z" fill="#B3B3B3"/>
<path d="M136.648 132.006L127.566 137.795V136.415L136.648 132.006Z" fill="#B3B3B3"/>
<path d="M211.218 78.952L200.245 85.7673L211.218 80.1549V78.952Z" fill="#B3B3B3"/>
<path d="M120.492 128.257L4.78297 62.394V59.3211L0 61.857L120.492 128.257Z" fill="#F5F5FD"/>
<path d="M120.492 128.257L4.7832 66.529V64.4919L120.492 128.257Z" fill="#B3B3B3"/>
<path d="M147.888 124.028L211.205 87.0391V81.231L219.069 84.8063L147.888 124.028Z" fill="#F5F5FD"/>
<path d="M154.38 120.454L211.218 90.7736V89.1327L154.38 120.454Z" fill="#B3B3B3"/>
<path d="M126.234 68.1923L125.982 68.3605L150.899 82.1116C154.129 80.1628 156.731 77.8048 158.413 75.1054C159.284 73.7068 159.858 72.2903 160.175 70.8725C161.042 66.9619 159.839 63.0739 156.954 59.6526L126.234 68.1923Z" fill="#FF9000"/>
<path d="M123.457 46.1577C108.791 45.7854 94.779 50.8989 89.5438 59.2942C88.4721 61.0103 87.8421 62.7526 87.6094 64.4877L121.965 66.0391L122.114 65.9412L123.955 46.1768L123.457 46.1577Z" fill="#FF6B00"/>
<path d="M148.237 53.164C145.188 51.6723 141.645 50.4706 137.668 49.64C134.465 48.9741 131.207 48.6054 127.972 48.498L126.131 68.2635L126.233 68.1931L156.953 59.6534C154.879 57.1916 151.933 54.9683 148.237 53.164Z" fill="#FF6B00"/>
<path d="M125.981 68.3605L91.6259 66.8079C90.8097 72.7974 94.7729 78.6628 102.18 82.75C105.555 84.6152 109.634 86.1117 114.305 87.0807C127.539 89.8362 141.761 87.6213 150.898 82.1116L125.981 68.3605Z" fill="#FF7A00"/>
<path d="M136.774 54.9584H136.331V45.785L145.864 40.2789L146.181 40.4615L136.774 45.8877V54.9584Z" fill="#55595F"/>
<path d="M110.235 78.3602H91.5472L82.5362 83.5668L82.2188 83.3855L91.3646 78.1084H110.235V78.3602Z" fill="#55595F"/>
<path d="M102.562 62.4822H90.7451L68.9102 75.0865L68.5928 74.9051L90.5625 62.2257H102.562V62.4822Z" fill="#55595F"/>
<path d="M185.146 62.9572L168.635 72.4862H154.17V72.2344H168.453L184.834 62.7758L185.146 62.9572Z" fill="#55595F"/>
<path d="M68.2902 69.2179L63.9082 71.7502L68.2902 74.2813L72.6722 71.7502L68.2902 69.2179Z" fill="#FF6B00"/>
<path d="M50.3761 59.9513L45.9941 62.4824L50.3761 65.0088L54.7582 62.4824L50.3761 59.9513Z" fill="#FF9C55"/>
<path d="M57.6681 55.6118L53.2861 58.1381L57.6681 60.6692L62.0501 58.1381L57.6681 55.6118Z" fill="#FF6B00"/>
<path d="M81.2492 77.7639L76.8672 80.295L81.2492 82.8261L85.6312 80.295L81.2492 77.7639Z" fill="#FF7A00"/>
<path d="M140.834 37.3759L136.453 39.9023L140.834 42.4334L145.216 39.9023L140.834 37.3759Z" fill="#FF6B00"/>
<path d="M179.199 59.9741L174.817 62.5053L179.199 65.0328L183.581 62.5053L179.199 59.9741Z" fill="#FF9000"/>
<path d="M192.386 66.4124L123.133 106.395L121.492 105.448L190.74 65.466L192.386 66.4124Z" fill="#7C93B8"/>
<path d="M195.672 68.3145L126.424 108.297L124.778 107.346L194.031 67.3634L195.672 68.3145Z" fill="#7C93B8"/>
<path d="M29.2168 56.2491L30.6011 57.0463L71.5344 33.413L70.1502 32.6158L29.2168 56.2491Z" fill="#7C93B8"/>
<path d="M35.4922 59.872L36.8716 60.6692L77.8098 37.0359L76.4255 36.2388L35.4922 59.872Z" fill="#7C93B8"/>
<path d="M32.3545 58.0638L33.7388 58.861L65.5489 40.494L64.1646 39.6921L32.3545 58.0638Z" fill="#7C93B8"/>
<path d="M38.6309 61.6809L40.0104 62.4828L71.8253 44.111L70.441 43.3139L38.6309 61.6809Z" fill="#7C93B8"/>
<path d="M88.2478 8.2409L20.1608 47.5465L18.7812 46.7494L86.8635 7.43897L88.2478 8.2409Z" fill="#7C93B8"/>
<path d="M124.09 27.3711L56.0034 66.6815L54.6191 65.8808L122.706 26.5692L124.09 27.3711Z" fill="#7C93B8"/>
<path d="M94.2702 11.7137L26.1832 51.0241L24.7988 50.227L92.8859 10.9166L94.2702 11.7137Z" fill="#7C93B8"/>
<path d="M86.648 12.5811L27.6842 46.6288L26.3047 45.8269L85.2685 11.7839L86.648 12.5811Z" fill="#7C93B8"/>
<path d="M100.894 14.6261L100.809 14.5796L73.4834 30.3546L72.7471 29.9309L72.6719 29.9775L90.9924 40.5542L118.197 24.8496L118.108 24.7983L90.9876 40.4611L86.3394 37.7761L113.466 22.118L113.382 22.0667L86.2559 37.7295L81.8596 35.1936L108.986 19.5308L108.902 19.4795L81.776 35.1423L77.3809 32.6064L104.506 16.9436L104.422 16.8971L77.2961 32.5599L73.5669 30.4059L100.894 14.6261Z" fill="#135788"/>
<path d="M87.3332 33.6737L95.1186 38.1726L91.375 40.3302L83.5908 35.8372L87.3332 33.6737Z" fill="#FF941A"/>
<path d="M89.9594 30.8679L98.8631 36.0089L95.1195 38.1724L86.2158 33.0303L89.9594 30.8679Z" fill="#FF6B00"/>
<path d="M87.8312 24.0154L103.736 33.1935L99.9939 35.3558L84.0889 26.1777L87.8312 24.0154Z" fill="#FF941A"/>
<path d="M95.5746 24.1647L107.475 31.0349L103.736 33.1937L91.8311 26.3223L95.5746 24.1647Z" fill="#FF6B00"/>
<path d="M99.2149 20.6367L112.351 28.2205L108.497 30.4437L95.3604 22.8599L99.2149 20.6367Z" fill="#FF941A"/>
<path d="M107.047 20.7058L116.207 25.9972L112.352 28.2204L103.191 22.929L107.047 20.7058Z" fill="#FF6B00"/>
</svg>
