<svg width="443" height="320" viewBox="0 0 443 320" fill="none" xmlns="http://www.w3.org/2000/svg">
<g filter="url(#filter0_d_190_3678)">
<path d="M417.848 141.609V156.621L221.296 270.251V142.039L417.848 141.609Z" fill="#C7D1E1"/>
<path d="M221.296 142.039V270.251L24.7568 156.621V141.609L221.296 142.039Z" fill="url(#paint0_linear_190_3678)"/>
<path d="M24.7568 141.608L221.296 255.235L417.848 141.608L221.296 27.9819L24.7568 141.608Z" fill="#D4E0F2"/>
<path d="M263.559 166.569L265.274 163.103L264.792 159.441C263.327 159.294 261.272 159.6 259.11 160.125C257.413 160.538 255.662 161.084 254.107 161.635C247.157 164.095 238.884 164.102 238.884 164.102C238.884 164.102 237.758 167.932 237.991 171.049L239.063 174.117C239.742 174.85 242.601 175.074 245.906 174.355C248.086 173.886 250.427 172.571 252.571 172.272C257.627 171.559 261.04 169.252 263.559 166.569Z" fill="#252735"/>
<path d="M224.717 43.4647L165.629 77.8489L165.611 112.351V112.344V132.632L224.699 98.2497L224.717 63.7456V63.7528V43.4647Z" fill="#CACED5"/>
<path d="M165.628 77.8489L159.91 74.523L159.893 109.025V129.306L165.61 132.632L165.628 98.137L165.61 98.1298L165.628 77.8489Z" fill="#66311C"/>
<path d="M264.952 133.688L323.522 99.5551L221.803 38.3277L162.715 72.719L264.952 133.688Z" fill="#768192"/>
<path d="M259.239 130.362L259.221 187.108L264.938 190.436L264.956 133.688L259.239 130.362Z" fill="#C7D1E1"/>
<path d="M323.524 99.5558L264.953 130.586L264.936 135.924L264.953 135.91L264.936 190.436L324.023 156.044L323.524 99.5558Z" fill="#A9B9D5"/>
<path d="M159.913 69.8541L159.895 75.2016L264.938 135.925L264.956 130.586L159.913 69.8541Z" fill="#C7D1E1"/>
<path d="M283.821 108.068L267.919 117.258L252.017 108.068L267.919 98.8702L283.821 108.068Z" fill="#FF9000"/>
<path d="M262.561 111.647L264.133 112.556L267.153 112.121C269.136 111.471 271.12 110.822 272.96 109.858L275.068 108.006L274.836 106.398L273.853 106.217C271.441 106.321 269.119 107.054 266.867 107.893L265.277 108.586L263.133 110.606L262.561 111.647Z" fill="#F7AA45"/>
<path d="M207.886 79.6939L221.072 72.0206H224.253L262.721 94.2588L262.739 96.0962L249.535 103.777H246.373L207.886 81.5331V79.6939Z" fill="#50475C"/>
<path d="M205.346 76.9076L206.007 77.829L207.15 78.4945L207.168 77.0257L209.473 75.6839L211.742 76.9989L210.438 77.7467L209.473 77.1867L208.455 77.7736L209.437 78.3407L211.742 76.9989V77.0758L212.85 76.4317L213.243 75.5032L212.511 75.0756V73.5746L214.816 72.2256L215.351 72.5262V71.9251L217.656 70.5832L218.175 70.8767V70.2827L220.479 68.9337L222.749 70.2398V70.6101L223.07 70.4294L225.339 71.7426V72.1058L225.643 71.9179L227.912 73.2311V73.5943L228.234 73.4136L230.503 74.7268V75.0828L230.807 74.9092L233.094 76.2153V76.5785L233.398 76.4049L235.667 77.7109V78.0741L235.988 77.8934L238.258 79.2066V79.5698L238.561 79.3891L240.83 80.6951V81.0654L241.152 80.883L243.421 82.1908V82.5539L243.725 82.3732L245.994 83.6864V84.0496L246.316 83.8671L248.585 85.1821V85.5453L248.907 85.3628L251.176 86.6706V87.0409L251.48 86.8513L253.749 88.1663V88.5294L254.07 88.347L256.34 89.6619V91.0109L257.501 90.3328L259.77 91.646V93.0236L260.842 92.3938L261.485 91.485V92.9878L260.842 93.9038L247.638 101.577H244.475L205.989 79.3318L205.346 78.4104V76.9076Z" fill="#D4D0C8"/>
<path d="M205.99 76.0462L219.195 68.3657H222.357L260.826 90.611L260.844 92.4484L247.64 100.129H244.477L205.99 77.8853V76.0462Z" fill="white"/>
<path d="M246.069 99.5081L244.979 99.263L206.493 77.0177L206.421 76.9622L206.493 76.9139L219.697 69.2334L220.769 68.9883L221.859 69.2334L260.328 91.4769L260.417 91.5342L260.345 91.5896L247.141 99.263L246.069 99.5081Z" fill="#D4D0C8"/>
<path d="M221.215 69.8491L219.018 71.1194L221.162 72.3574L223.359 71.0854L221.215 69.8491Z" fill="#F2F2F2"/>
<path d="M223.646 71.2606L221.466 72.5255L223.61 73.7617L225.79 72.4968L223.646 71.2606Z" fill="#F2F2F2"/>
<path d="M226.093 72.665L223.895 73.9371L226.039 75.1733L228.237 73.9013L226.093 72.665Z" fill="#F2F2F2"/>
<path d="M220.982 72.8106L218.802 74.0826L220.928 75.3188L223.126 74.0468L220.982 72.8106Z" fill="#F2F2F2"/>
<path d="M215.871 72.9586L213.691 74.2235L215.817 75.4597L217.997 74.1948L215.871 72.9586Z" fill="#F2F2F2"/>
<path d="M228.523 74.0767L226.343 75.3487L228.487 76.585L230.667 75.3129L228.523 74.0767Z" fill="#F2F2F2"/>
<path d="M218.303 74.3695L216.123 75.6343L218.267 76.8706L220.447 75.6057L218.303 74.3695Z" fill="#F2F2F2"/>
<path d="M230.97 75.4866L228.772 76.7515L230.917 77.9949L233.114 76.7228L230.97 75.4866Z" fill="#F2F2F2"/>
<path d="M220.749 75.7734L218.569 77.0455L220.695 78.2817L222.875 77.0097L220.749 75.7734Z" fill="#F2F2F2"/>
<path d="M233.399 76.892L231.219 78.1641L233.363 79.4075L235.543 78.1354L233.399 76.892Z" fill="#F2F2F2"/>
<path d="M226.896 76.2353L224.716 77.5002L230.702 80.9585L232.882 79.6882L226.896 76.2353Z" fill="#F2F2F2"/>
<path d="M238.276 79.7146L236.096 80.9795L238.24 82.2229L240.42 80.9526L238.276 79.7146Z" fill="#F2F2F2"/>
<path d="M233.166 79.8615L230.986 81.1264L233.13 82.3716L235.31 81.0996L233.166 79.8615Z" fill="#F2F2F2"/>
<path d="M224.02 77.8988L221.501 79.373L220.053 80.2103L219.321 80.6379L222.93 82.7275L225.11 81.4627L224.002 80.8115L226.539 79.3444L224.02 77.8988Z" fill="#F2F2F2"/>
<path d="M240.727 81.1264L238.529 82.3985L240.673 83.6365L242.871 82.3644L240.727 81.1264Z" fill="#F2F2F2"/>
<path d="M235.614 81.2668L233.434 82.5388L235.56 83.7769L237.74 82.512L235.614 81.2668Z" fill="#F2F2F2"/>
<path d="M232.149 82.3648L229.969 83.6368L232.095 84.873L234.275 83.601L232.149 82.3648Z" fill="#F2F2F2"/>
<path d="M243.155 82.5383L240.975 83.8032L243.119 85.0483L245.299 83.7763L243.155 82.5383Z" fill="#F2F2F2"/>
<path d="M238.043 82.6779L235.863 83.95L238.007 85.188L240.187 83.916L238.043 82.6779Z" fill="#F2F2F2"/>
<path d="M234.543 83.7561L232.363 85.0281L234.508 86.2644L236.688 84.9995L234.543 83.7561Z" fill="#F2F2F2"/>
<path d="M245.6 83.9438L243.402 85.2158L245.546 86.4539L247.744 85.1818L245.6 83.9438Z" fill="#F2F2F2"/>
<path d="M240.495 84.0898L238.315 85.3618L240.459 86.5999L242.639 85.3278L240.495 84.0898Z" fill="#F2F2F2"/>
<path d="M223.949 83.8388L221.769 85.1108L226.021 87.5708L228.201 86.2988L223.949 83.8388Z" fill="#F2F2F2"/>
<path d="M236.954 85.1526L234.774 86.4174L236.918 87.6626L239.098 86.3906L236.954 85.1526Z" fill="#F2F2F2"/>
<path d="M248.032 85.3542L245.852 86.6262L247.996 87.8643L250.176 86.5922L248.032 85.3542Z" fill="#F2F2F2"/>
<path d="M242.922 85.5032L240.743 86.7681L242.887 88.0115L245.066 86.7394L242.922 85.5032Z" fill="#F2F2F2"/>
<path d="M239.365 86.5447L237.185 87.815L239.329 89.053L241.509 87.781L239.365 86.5447Z" fill="#F2F2F2"/>
<path d="M250.48 86.7604L248.282 88.0379L250.426 89.2759L252.624 88.0039L250.48 86.7604Z" fill="#F2F2F2"/>
<path d="M245.374 86.9067L243.194 88.1788L245.338 89.415L247.518 88.1502L245.374 86.9067Z" fill="#F2F2F2"/>
<path d="M241.78 87.941L239.6 89.2059L241.744 90.4421L243.924 89.1773L241.78 87.941Z" fill="#F2F2F2"/>
<path d="M252.909 88.18L250.73 89.4449L252.874 90.6812L255.054 89.4091L252.909 88.18Z" fill="#F2F2F2"/>
<path d="M247.799 88.3186L245.62 89.5906L247.764 90.8269L249.943 89.5549L247.799 88.3186Z" fill="#F2F2F2"/>
<path d="M244.19 89.3311L242.01 90.6031L244.154 91.8394L246.334 90.5745L244.19 89.3311Z" fill="#F2F2F2"/>
<path d="M256.144 90.0461L253.964 91.3181L256.108 92.5615L258.306 91.2895L256.144 90.0461Z" fill="#F2F2F2"/>
<path d="M246.602 90.7286L244.422 91.9934L246.566 93.2314L248.746 91.9666L246.602 90.7286Z" fill="#F2F2F2"/>
<path d="M228.47 86.4536L226.29 87.7256L236.778 93.7834L238.958 92.5114L228.47 86.4536Z" fill="#F2F2F2"/>
<path d="M250.337 89.7866L248.175 91.0586L253.446 94.1125L255.626 92.8405L250.337 89.7866Z" fill="#F2F2F2"/>
<path d="M249.015 92.1288L246.835 93.3937L250.766 95.6641L252.964 94.3992L249.015 92.1288Z" fill="#F2F2F2"/>
<path d="M239.276 92.707L237.096 93.9719L240.724 96.0615L242.903 94.7966L239.276 92.707Z" fill="#F2F2F2"/>
<path d="M243.334 95.0471L241.154 96.3191L245.425 98.7791L247.604 97.5142L243.334 95.0471Z" fill="#F2F2F2"/>
<path d="M218.535 71.4006L216.355 72.6727L218.499 73.9089L220.679 72.6369L218.535 71.4006Z" fill="#F2F2F2"/>
<path d="M223.413 74.2222L221.234 75.4942L223.378 76.7305L225.558 75.4584L223.413 74.2222Z" fill="#F2F2F2"/>
<path d="M210.815 76.2141L208.635 77.4861L210.779 78.7224L212.959 77.4575L210.815 76.2141Z" fill="#F2F2F2"/>
<path d="M213.245 77.6181L212.941 77.7863L211.065 78.8902L213.209 80.1282L215.389 78.8561L215.156 78.7292L213.245 77.6181Z" fill="#F2F2F2"/>
<path d="M215.604 76.2141L215.3 76.3894L213.424 77.4861L215.568 78.7224L217.748 77.4575L217.516 77.3251L215.604 76.2141Z" fill="#F2F2F2"/>
<path d="M235.848 78.3045L233.65 79.5765L235.795 80.8127L237.992 79.5407L235.848 78.3045Z" fill="#F2F2F2"/>
<path d="M215.604 78.9827L213.424 80.2547L215.568 81.491L217.748 80.2189L215.604 78.9827Z" fill="#F2F2F2"/>
<path d="M227.326 79.5754L225.146 80.8475L227.29 82.0837L229.47 80.8189L227.326 79.5754Z" fill="#F2F2F2"/>
<path d="M229.737 80.9729L227.557 82.2378L229.701 83.4758L231.881 82.211L229.737 80.9729Z" fill="#F2F2F2"/>
<path d="M219.089 81.0301L216.909 82.2949L221.322 84.8516L223.502 83.5867L219.089 81.0301Z" fill="#F2F2F2"/>
<path d="M242.565 91.4914L240.385 92.7563L242.529 94.0015L244.709 92.7294L242.565 91.4914Z" fill="#F2F2F2"/>
<path d="M242.335 91.3518L240.191 90.1155L238.011 91.3804L240.137 92.6238L242.335 91.3518Z" fill="#F2F2F2"/>
<path d="M239.92 89.9619L237.776 88.7168L235.596 89.9888L237.74 91.2268L239.92 89.9619Z" fill="#F2F2F2"/>
<path d="M237.544 88.5773L235.382 87.3411L233.202 88.6131L235.346 89.8494L237.544 88.5773Z" fill="#F2F2F2"/>
<path d="M235.044 87.1393L232.9 85.9013L230.72 87.1734L232.864 88.4114L235.044 87.1393Z" fill="#F2F2F2"/>
<path d="M232.667 85.7597L230.523 84.5234L228.325 85.7955L230.469 87.0317L232.667 85.7597Z" fill="#F2F2F2"/>
<path d="M230.256 84.3699L228.112 83.1247L225.914 84.3968L228.058 85.6348L230.256 84.3699Z" fill="#F2F2F2"/>
<path d="M227.86 82.9853L225.716 81.749L223.537 83.0211L225.681 84.2573L227.86 82.9853Z" fill="#F2F2F2"/>
<path d="M250.284 95.9502L245.013 92.8963L242.815 94.1683L248.104 97.2151L250.284 95.9502Z" fill="#F2F2F2"/>
<path d="M220.371 69.337L220.997 67.6464L219.996 67.4013C211.08 66.4942 211.313 66.6964 204.791 71.4267L204.219 71.5734L177.454 75.0961L185.994 78.6813L182.475 87.0811L205.22 78.4863L208.293 78.8907C212.778 78.8764 218.674 76.6204 218.549 75.6686L216.977 74.418C215.297 74.3071 214.868 75.4449 211.956 74.7472C212.724 72.9653 214.565 71.7845 216.53 71.8471C218.156 71.8954 220.354 72.6075 221.926 72.1602C224.981 71.3014 221.444 70.058 220.371 69.337Z" fill="#FFD6BF"/>
<path d="M183.459 159.776L177.08 206.453L179.761 204.902L185.925 159.776H183.459Z" fill="#211F26"/>
<path d="M215.461 147.583H212.513L218.391 183.754L221.071 182.203L215.461 147.583Z" fill="#211F26"/>
<path d="M180.995 159.776L174.795 205.118L177.082 206.453L183.461 159.776H180.995Z" fill="#2B2730"/>
<path d="M212.513 147.583H210.44L216.105 182.427L218.392 183.754L212.513 147.583Z" fill="#2B2730"/>
<path d="M149.599 145.618L143.9 187.326L146.598 185.766L152.083 145.618H149.599Z" fill="#211F26"/>
<path d="M147.134 145.618L141.613 185.99L143.9 187.326L149.6 145.618H147.134Z" fill="#2B2730"/>
<path d="M190.339 137.315V167.967L188.892 168.814L186.051 170.463L184.496 170.742L183.71 170.463L180.905 168.835L146.546 148.98L145.402 147.232L145.384 147.227V141.153L153.532 140.874L157.677 138.448L159.625 137.315H190.339Z" fill="#C7D1E1"/>
<path d="M173.954 122.932L173.222 123.603L146.545 139.125V143.179L183.71 164.662L186.05 164.655L215.979 147.231L173.954 122.932Z" fill="#768192"/>
<path d="M216.014 147.177V152.907L187.461 169.638V163.872H187.39L216.014 147.177Z" fill="#A9B9D5"/>
<path d="M213.567 112.765C208.493 110.753 200.56 111.563 195.861 114.309L179.637 120.152V141.739L215.997 130.865C220.696 128.112 220.321 115.442 213.567 112.765Z" fill="#005B75"/>
<path d="M208.544 116.839C199.45 112.989 189.515 119.027 179.634 123.324V141.739L215.995 130.865L216.37 130.613C215.709 124.267 213.511 118.914 208.544 116.839Z" fill="#383340"/>
<path d="M213.567 112.765C208.493 110.752 200.56 111.563 195.861 114.309L179.637 120.152V123.324C189.518 119.027 199.452 112.988 208.547 116.838C213.514 118.914 215.711 124.267 216.373 130.613C220.679 127.426 220.125 115.371 213.567 112.765Z" fill="#2B2730"/>
<path d="M232.615 126.693C231.043 124.086 229.667 121.311 226.933 120.032C223.878 118.613 222.127 118.873 222.109 118.873C220.233 118.928 214.104 120.703 212.657 121.256L207.44 123.485L190.609 131.36L170.937 140.572C168.274 146.784 169.9 151.55 173.527 154.382C178.209 158.023 186.231 158.449 192.753 154.611L192.896 154.529C197.023 152.04 204.938 146.743 211.817 142.061C213.479 140.928 215.087 139.839 216.552 138.824L237.904 167.743C240.888 168.729 249.893 165.857 251.197 163.179C251.197 163.179 238.922 137.127 232.615 126.693Z" fill="#383340"/>
<path d="M251.197 163.18C251.197 163.18 238.922 137.127 232.615 126.693C231.043 124.087 229.667 121.312 226.933 120.033C223.878 118.614 222.127 118.873 222.109 118.873C220.233 118.929 214.104 120.703 212.657 121.256L207.44 123.485L190.609 131.361L170.937 140.573C168.953 145.199 169.346 149.016 171.169 151.839C180.353 146.527 189.304 141.802 198.577 135.492C209.405 128.119 223.699 122.913 231.936 135.059C238.458 144.863 241.96 155.576 247.499 165.935C249.303 165.11 250.733 164.131 251.197 163.18Z" fill="#2B2730"/>
<path d="M192.748 154.611C185.726 159.175 172.486 158.211 164.285 153.661L163.124 152.969L162.695 152.69C159.425 150.509 157.567 147.673 156.888 141.215C156.602 138.286 156.959 134.904 157.549 131.36H191.587L192.587 151.362L192.748 154.611Z" fill="#383340"/>
<path d="M178.136 75.5991C177.975 75.3898 173.687 69.3034 171.346 66.5285C169.631 64.4943 167.29 62.9021 164.646 62.0773C159.196 60.3652 153.907 65.7324 154.05 70.5325C154.14 73.132 155.444 75.5096 157.213 77.3756C159.643 79.8982 163.091 85.1116 168.219 88.8848C172.293 85.5857 176.438 80.5119 178.136 75.5991Z" fill="#FF9000"/>
<path d="M184.247 57.7305L184.229 58.5195L184.104 65.4593L182.46 67.3611L182.425 67.3468L181.888 67.2913C176.85 66.7528 170.793 67.5078 170.775 67.4792L170.739 56.5569L171.364 56.6052L180.441 57.4013L184.247 57.7305Z" fill="#FFD6BF"/>
<path d="M198.557 111.807C198.467 118.516 199.486 137.112 199.807 142.982L198.342 145.834C195.591 147.539 193.107 148.419 190.159 148.93L185.924 149.44C180.1 149.902 173.846 149.719 168.093 148.7C163.804 147.937 159.838 146.428 156.568 143.814L155.353 141.32V141.305C155.192 134.952 158.551 117.411 158.569 110.576C158.587 98.8704 152.012 86.6618 152.298 80.1281C152.548 74.641 151.708 63.8225 167.95 62.0137C170.255 61.7543 176.883 63.0746 183.709 65.5078C191.017 68.1073 198.092 72.9503 198.86 81.1049C198.86 81.1049 202.202 80.722 201.594 84.9013C200.683 91.113 199.45 100.142 198.878 106.614C198.682 108.655 198.575 110.451 198.557 111.807Z" fill="#F7AA45"/>
<path d="M199.807 142.983C199.486 137.113 198.467 118.517 198.557 111.808C198.575 110.452 198.682 108.656 198.878 106.614C199.45 100.143 200.683 91.1139 201.594 84.9023C202.202 80.723 198.86 81.1059 198.86 81.1059C198.36 75.7745 195.162 71.8617 190.963 69.0583C189.016 68.772 187.3 69.7291 185.567 70.4215C180.814 72.5881 179.081 79.9609 182.119 83.4335C199.879 101.22 195.108 125.512 194.679 147.205L194.662 147.693L198.342 145.835L199.807 142.983Z" fill="#FF9000"/>
<path d="M142.901 112.345L143.241 88.8433L141.472 87.5712L144.027 85.2025L144.134 85.0969L144.17 85.0683V85.0755L146.761 84.8948L174.527 100.263L175.527 101.485L143.759 117.252L142.901 112.345Z" fill="#D4E0F2"/>
<path d="M175.527 101.485L175.616 101.68L175.634 101.745L175.652 101.856L182.656 137.315L188.892 168.814L186.051 170.463L184.496 170.742L183.46 164.586L157.677 138.448L145.277 125.869L143.758 117.253L175.527 101.485Z" fill="#A9B9D5"/>
<path d="M183.674 165.34C183.674 165.34 175.794 121.857 173.007 105.712L171.578 102.946L143.794 87.5783C142.364 86.7464 140.542 87.6338 140.327 89.2761L145.384 142.871L183.674 165.34Z" fill="#C7D1E1"/>
<path d="M190.963 38.0021C192.553 46.1013 193.16 54.7317 189.194 58.7303C187.925 60.0149 185.96 60.4067 183.905 60.3226L182.672 60.226C180.332 59.9379 178.045 59.1561 176.597 58.4852C174.489 57.4851 171.273 50.4272 170.38 47.9816C167.557 40.2313 173.453 38.8054 178.009 34.3256C182.583 29.8458 189.355 29.9155 190.963 38.0021Z" fill="#FFD6BF"/>
<path d="M185.606 24.7718C183.319 23.4156 180.335 22.7447 177.726 22.3189C174.707 21.8162 171.58 21.9146 168.775 23.2206C163.95 25.457 160.752 30.1604 159.198 35.109C158.394 37.6584 158.036 40.3152 158.233 42.9845C158.358 44.8845 159.18 46.5143 159.733 48.2265C161.967 51.6293 167.72 57.9608 167.738 57.9966L171.937 59.5746C174.045 59.9664 175.403 58.3669 176.35 56.6119C177.244 55.0124 177.476 53.2019 177.69 51.42L178.798 47.7506L183.676 47.1638C186.052 45.7933 185.445 42.5999 185.498 40.3421L186.803 36.737C188.321 35.2271 190.126 35.3326 191.234 33.0605C192.27 30.9011 190.555 27.7345 185.606 24.7718Z" fill="#372F52"/>
<path d="M158.287 43.5785C158.538 45.228 159.234 46.6879 159.735 48.2265C161.968 51.6293 167.722 57.9608 167.739 57.9966L171.938 59.5746C174.047 59.9664 175.404 58.3669 176.351 56.6119C177.245 55.0124 177.477 53.2019 177.692 51.42L178.799 47.7506L183.677 47.1638C186.053 45.7933 185.446 42.5999 185.5 40.3421L185.821 38.392C176.566 37.4348 165.149 37.925 158.287 43.5785Z" fill="#221C36"/>
<path d="M181.709 48.1767C182.781 49.9587 182.567 52.0483 181.244 52.8319C179.922 53.6137 177.993 52.7961 176.938 51.0071C175.884 49.2251 176.099 47.1355 177.403 46.3537C178.725 45.57 180.655 46.3877 181.709 48.1767Z" fill="#FFD6BF"/>
<path d="M180.53 48.8751L180.298 51.2295L178.118 50.3081L178.35 47.9519L180.53 48.8751Z" fill="#F5C2A6"/>
<path d="M253.34 90.5268L249.713 89.8147L245.103 90.5053C246.943 90.1851 248.712 89.7235 250.481 89.1564L251.571 88.2421L245.961 88.2135L243.656 88.6125C245.175 88.0257 247.033 87.2277 246.479 85.3349L246.247 84.9646L243.602 86.1668C241.869 87.0739 239.886 87.4103 238.188 88.3388L236.223 89.8219C235.758 90.0867 233.918 91.1065 232.203 91.407C226.217 92.4411 215.139 92.5878 211.208 90.7361C208.064 89.2548 205.741 86.2223 203.901 84.0414C201.56 81.2666 199.898 78.1643 197.558 75.3895C195.86 73.3553 194.127 70.813 191.483 69.9811C186.033 68.2689 181.852 74.3142 181.995 79.1072C182.067 81.7138 182.942 84.0897 184.729 85.9503C188.785 90.1851 197.486 100.415 208.028 102.394C218.302 104.322 230.059 99.6332 235.598 97.9425L238.028 97.8727L241.244 97.6276L244.621 97.1947C246.818 96.6347 248.141 96.3001 250.374 95.7616L251.374 95.2589L251.214 94.7759H251.16L246.104 94.3429C248.087 94.2302 249.856 93.994 251.785 93.5664L252.84 92.4286L251.339 91.8901L248.48 92.0153L252.84 91.2049L253.34 90.5268Z" fill="#FFD6BF"/>
<path d="M205.618 84.1807C205.457 83.9643 199.883 78.1641 197.542 75.3821C195.845 73.3551 194.111 70.8056 191.467 69.9809C186.017 68.2687 181.837 74.314 181.98 79.1069C182.051 81.7136 182.927 84.0895 184.713 85.9501C187.125 88.4799 190.574 93.6932 195.72 97.4592C199.775 94.1602 203.921 89.0935 205.618 84.1807Z" fill="#F7AA45"/>
<path d="M267.151 106.349L265.954 107.047V112.344L273.369 108.09L273.28 106.349H267.151Z" fill="#D4D0C8"/>
<path d="M272.798 108.3C269.904 109.11 268.439 109.781 267.027 111.457L263.311 112.186L261.703 109.962L262.006 108.865C263.132 106.405 265.544 104.441 268.331 103.764C270.207 103.233 272.691 103.498 273.745 105.217L273.888 105.455L273.977 105.657C274.424 106.6 274.621 107.79 272.798 108.3Z" fill="#F2F2F2"/>
<path d="M264.133 107.167L263.168 109.074L264.49 110.906L266.831 109.815L269.815 107.405L271.065 105.28C270.101 102.617 265.08 106.049 264.133 107.167Z" fill="white"/>
<path d="M273.979 105.657C272.103 105.035 270.299 105.378 268.566 106.237L268.548 106.203C269.995 104.987 271.96 104.741 273.747 105.217L273.89 105.455L273.979 105.657Z" fill="#D4D0C8"/>
<path d="M272.735 80.9224L275.165 78.9025C276.523 77.7486 277.327 76.065 277.327 74.2688V58.1242H276.559V74.2688L274.665 78.3139L271.967 80.586L272.735 80.9224Z" fill="#CCBABA"/>
<path d="M268.843 83.4649H268.861V84.0034L272.738 80.9226L272.773 80.9012V80.3555L272.505 80.5576L272.363 80.6704L272.291 80.7401L268.843 83.4649Z" fill="#CCBABA"/>
<path d="M249.455 72.3527L268.841 83.4646L272.289 80.7399L272.361 80.6701L272.504 80.5574H272.54L272.772 80.3624L274.934 78.5375L275.005 78.4749L276.899 74.4924V58.8452L276.56 58.6556L264.499 51.9823L260.211 48.0678H259.443V64.2124L259.425 64.4986L257.549 68.2503L257.281 68.44C256.191 69.1592 252.921 70.7389 249.455 72.3527Z" fill="#F2F2F2"/>
<path d="M259.425 64.4982L276.899 74.4919V60.0112L274.648 58.1166C274.362 58.4601 263.213 55.356 259.443 54.839V64.2119L259.425 64.4982Z" fill="#D4D0C8"/>
<path d="M268.842 83.4649L249.456 72.353V72.9058L268.86 84.0034L268.842 83.4649Z" fill="#F2EAE6"/>
<path d="M257.281 68.4401L274.934 78.5376L275.005 78.475L276.899 74.4925L259.425 64.4987L257.549 68.2504L257.281 68.4401Z" fill="#E9E5E5"/>
<path d="M238.002 1.08421L238.431 1.15933L239.306 1.33468L239.253 1.62093L239.217 2.41885L239.288 11.6218L239.503 43.0147C239.521 45.4675 241.039 48.305 242.88 49.3534L299.252 81.8286L299.341 81.8859L296.897 83.0864C296.897 83.0864 299.689 83.4005 300.824 82.3259C301.551 81.6382 301.968 80.0324 301.968 80.0324L301.985 79.6066L301.682 39.0805V39.0179C301.664 37.3254 300.949 35.4523 299.895 34.1105L298.305 32.672L241.951 0.195023L239.842 2.28882e-05L238.252 0.942848L238.216 1.12177" fill="#A1B0D4"/>
<path d="M237.66 1.68108L238.252 1.62235H239.252L297.965 35.0208L299.895 34.1119L298.304 32.6735L241.95 0.196442L239.842 0.00144196L238.252 0.944271" fill="#A1B0D4"/>
<path d="M236.839 3.80215L236.875 7.85617L236.911 13.0069L237.125 44.398C237.143 46.8454 238.662 49.6883 240.52 50.7438L261.157 62.464L283.331 75.0502L283.849 75.3579L296.897 83.0865C296.897 83.0865 299.643 83.1641 300.054 81.879C300.148 81.5876 300.162 81.1026 300.162 81.1026L300.18 80.6768L300.144 76.0574L300.054 64.1547L299.876 40.0792C299.858 37.6263 298.339 34.7817 296.499 33.7351L273.235 20.5407L273.2 20.5121L265.249 15.7871L255.171 9.79195H255.154L243.522 3.17239L240.145 1.25809L237.661 1.68107L236.839 3.80215Z" fill="#E6EAF4"/>
<path d="M298 38.9609V80.3135L278.882 69.1175L260.353 58.2846L260.264 58.222L252.116 53.4631V53.4559L239.073 45.8309V4.48723L254.957 13.7743L259.442 16.3953L270.323 22.7698L280.597 28.7793L298 38.9609Z" fill="#FF9000"/>
<path d="M239.913 4.97566V45.3765L298 79.3617V80.3135L239.073 45.8309V4.48723L239.913 4.97566Z" fill="#CCBABA"/>
<path d="M298 80.3135L239.073 45.8309L239.913 45.3765L298 79.3617V80.3135Z" fill="#9AAACF"/>
<path d="M290.154 46.5956C290.634 46.5998 290.86 46.033 290.871 45.2302C290.884 44.1605 290.503 43.0791 289.674 42.5914C289.478 42.4747 289.309 42.4218 289.164 42.4206C288.676 42.4163 288.468 43.0038 288.459 43.7841C288.447 44.9298 288.837 45.9476 289.653 46.429C289.843 46.5416 290.01 46.5944 290.154 46.5956ZM289.535 43.2041C289.577 43.2045 289.624 43.2193 289.675 43.2505C289.951 43.4131 290.136 43.9301 290.117 44.7842C290.116 45.4865 289.992 45.8139 289.787 45.8121C289.742 45.8117 289.694 45.7949 289.642 45.7636C289.35 45.5906 289.199 45.0821 289.208 44.2341C289.216 43.5566 289.326 43.2023 289.535 43.2041Z" fill="#768192"/>
<path d="M287.419 44.9826C287.9 44.9868 288.126 44.42 288.137 43.6172C288.149 42.5474 287.769 41.4661 286.939 40.9783C286.744 40.8637 286.574 40.8088 286.43 40.8075C285.942 40.8033 285.735 41.3908 285.725 42.1731C285.711 43.3167 286.101 44.3345 286.918 44.816C287.109 44.9285 287.276 44.9813 287.419 44.9826ZM286.801 41.5911C286.843 41.5915 286.89 41.6062 286.94 41.6354C287.217 41.8001 287.401 42.3191 287.383 43.1711C287.382 43.8755 287.259 44.2009 287.054 44.1991C287.009 44.1987 286.96 44.1819 286.908 44.1527C286.616 43.9797 286.465 43.4691 286.474 42.6211C286.483 41.9436 286.592 41.5893 286.801 41.5911Z" fill="#768192"/>
<path d="M284.378 43.2573L284.412 40.3253L284.423 40.3315L285.027 41.0247L285.162 40.4489L284.317 39.4949L283.696 39.128L283.655 42.828L284.378 43.2573Z" fill="#768192"/>
<path d="M281.643 41.644L281.676 38.712L281.687 38.7182L282.295 39.4114L282.427 38.8356L281.581 37.8816L280.961 37.5168L280.918 41.2167L281.643 41.644Z" fill="#768192"/>
<path d="M279.217 40.1428C279.698 40.147 279.922 39.5801 279.934 38.7794C279.945 37.7076 279.564 36.6282 278.737 36.1405C278.541 36.0238 278.371 35.971 278.226 35.9697C277.738 35.9655 277.53 36.553 277.521 37.3332C277.507 38.4789 277.898 39.4967 278.714 39.9761C278.906 40.0887 279.073 40.1415 279.217 40.1428ZM278.598 36.7512C278.639 36.7516 278.686 36.7664 278.736 36.7976C279.013 36.9602 279.197 37.4772 279.181 38.3334C279.179 39.0356 279.055 39.361 278.849 39.3592C278.804 39.3588 278.756 39.342 278.704 39.3128C278.412 39.1419 278.261 38.6292 278.272 37.7833C278.279 37.1057 278.388 36.7494 278.598 36.7512Z" fill="#768192"/>
<path d="M276.481 38.5314C276.962 38.5356 277.189 37.9688 277.2 37.1639C277.212 36.0983 276.832 35.0149 276.002 34.5251C275.807 34.4104 275.637 34.3576 275.493 34.3564C275.004 34.3521 274.796 34.9396 274.787 35.7198C274.774 36.8635 275.165 37.8833 275.981 38.3648C276.171 38.4774 276.338 38.5302 276.481 38.5314ZM275.864 35.1399C275.905 35.1402 275.952 35.155 276.002 35.1863C276.279 35.3489 276.464 35.8638 276.445 36.72C276.444 37.4222 276.32 37.7476 276.115 37.7458C276.072 37.7455 276.023 37.7307 275.97 37.6994C275.677 37.5264 275.527 37.0179 275.538 36.1699C275.545 35.4923 275.654 35.138 275.864 35.1399Z" fill="#768192"/>
<path d="M273.746 36.9181C274.227 36.9223 274.452 36.3555 274.465 35.5527C274.476 34.483 274.094 33.4016 273.267 32.9139C273.071 32.7992 272.902 32.7444 272.757 32.7431C272.269 32.7388 272.06 33.3263 272.051 34.1065C272.037 35.2522 272.429 36.268 273.245 36.7516C273.436 36.8641 273.602 36.9169 273.746 36.9181ZM273.128 33.5266C273.17 33.527 273.217 33.5418 273.267 33.571C273.543 33.7356 273.728 34.2526 273.71 35.1067C273.708 35.809 273.585 36.1364 273.379 36.1346C273.335 36.1343 273.286 36.1174 273.235 36.0882C272.942 35.9132 272.791 35.4026 272.802 34.5587C272.81 33.8791 272.919 33.5248 273.128 33.5266Z" fill="#768192"/>
<path d="M270.703 35.1936L270.737 32.2615L270.749 32.2678L271.356 32.959L271.487 32.3851L270.642 31.4311L270.026 31.0684L269.983 34.7663L270.703 35.1936Z" fill="#768192"/>
<path d="M268.279 33.6916C268.759 33.6958 268.985 33.129 268.996 32.3241C269.009 31.2585 268.627 30.1771 267.8 29.6873C267.605 29.5727 267.436 29.5178 267.291 29.5165C266.801 29.5123 266.593 30.0998 266.582 30.882C266.569 32.0277 266.96 33.0456 267.777 33.525C267.967 33.6375 268.135 33.6903 268.279 33.6916ZM267.66 30.3021C267.703 30.3025 267.749 30.3173 267.799 30.3465C268.076 30.5111 268.26 31.0261 268.242 31.8801C268.241 32.5845 268.117 32.9099 267.912 32.9081C267.867 32.9077 267.819 32.8908 267.767 32.8616C267.474 32.6886 267.324 32.1781 267.333 31.3322C267.342 30.6546 267.451 30.3003 267.66 30.3021Z" fill="#768192"/>
<path d="M265.544 32.0805C266.024 32.0847 266.25 31.5158 266.261 30.713C266.274 29.6433 265.893 28.5619 265.064 28.0742C264.868 27.9595 264.699 27.9067 264.554 27.9054C264.066 27.9012 263.857 28.4887 263.849 29.2669C263.835 30.4126 264.226 31.4324 265.043 31.9139C265.234 32.0265 265.4 32.0792 265.544 32.0805ZM264.925 28.689C264.967 28.6894 265.014 28.7041 265.064 28.7333C265.342 28.898 265.524 29.4129 265.507 30.2691C265.506 30.9713 265.382 31.2967 265.176 31.2949C265.132 31.2946 265.084 31.2798 265.032 31.2485C264.739 31.0755 264.589 30.567 264.599 29.719C264.607 29.0394 264.716 28.6872 264.925 28.689Z" fill="#768192"/>
<path d="M262.5 30.3552L262.535 27.4211L262.545 27.4294L263.151 28.1206L263.284 27.5447L262.44 26.5928L261.821 26.228L261.78 29.9279L262.5 30.3552Z" fill="#768192"/>
<path d="M260.075 28.8539C260.556 28.8581 260.781 28.2913 260.793 27.4885C260.805 26.4188 260.424 25.3374 259.595 24.8517C259.398 24.735 259.229 24.6801 259.084 24.6788C258.597 24.6746 258.388 25.2621 258.38 26.0423C258.367 27.188 258.759 28.2059 259.574 28.6873C259.764 28.7999 259.931 28.8527 260.075 28.8539ZM259.456 25.4624C259.499 25.4628 259.545 25.4776 259.596 25.5088C259.873 25.6714 260.056 26.1905 260.039 27.0425C260.036 27.7447 259.914 28.0722 259.709 28.0704C259.664 28.07 259.615 28.0532 259.564 28.024C259.273 27.8531 259.119 27.3404 259.131 26.4945C259.138 25.8149 259.247 25.4606 259.456 25.4624Z" fill="#768192"/>
<path d="M257.339 27.2404C257.82 27.2446 258.045 26.6778 258.057 25.8729C258.07 24.8053 257.686 23.7239 256.858 23.2382C256.662 23.1215 256.493 23.0686 256.348 23.0674C255.861 23.0631 255.652 23.6506 255.644 24.4288C255.631 25.5745 256.018 26.5923 256.838 27.0738C257.029 27.1864 257.196 27.2392 257.339 27.2404ZM256.72 23.8489C256.762 23.8493 256.809 23.8661 256.86 23.8953C257.136 24.0579 257.319 24.5749 257.302 25.4289C257.299 26.1312 257.176 26.4566 256.972 26.4548C256.927 26.4544 256.878 26.4396 256.826 26.4084C256.534 26.2375 256.384 25.7289 256.394 24.881C256.401 24.2034 256.511 23.8471 256.72 23.8489Z" fill="#768192"/>
<path d="M254.608 25.6271C255.088 25.6313 255.313 25.0645 255.324 24.2596C255.336 23.194 254.954 22.1106 254.127 21.6249C253.931 21.5082 253.761 21.4554 253.616 21.4541C253.128 21.4498 252.92 22.0353 252.911 22.8176C252.898 23.9612 253.288 24.979 254.105 25.4605C254.296 25.5731 254.464 25.6259 254.608 25.6271ZM253.988 22.2356C254.03 22.236 254.076 22.2528 254.127 22.282C254.404 22.4446 254.586 22.9616 254.57 23.8157C254.568 24.5179 254.446 24.8454 254.24 24.8436C254.195 24.8432 254.147 24.8264 254.094 24.7951C253.802 24.6242 253.652 24.1136 253.662 23.2677C253.67 22.5881 253.778 22.2338 253.988 22.2356Z" fill="#768192"/>
<path d="M251.562 23.9006L251.598 20.9706L251.608 20.9769L252.213 21.6701L252.346 21.0963L251.503 20.1423L250.885 19.7775L250.842 23.4774L251.562 23.9006Z" fill="#768192"/>
<path d="M248.829 22.2873L248.863 19.3594L248.872 19.3636L249.479 20.0568L249.612 19.481L248.768 18.5269L248.15 18.1663L248.108 21.8642L248.829 22.2873Z" fill="#768192"/>
<path d="M246.402 20.7895C246.883 20.7937 247.107 20.2268 247.121 19.4241C247.133 18.3543 246.75 17.2729 245.924 16.7831C245.727 16.6685 245.558 16.6157 245.413 16.6144C244.924 16.6102 244.717 17.1977 244.708 17.9779C244.695 19.1236 245.083 20.1393 245.901 20.6229C246.092 20.7354 246.258 20.7882 246.402 20.7895ZM245.784 17.398C245.826 17.3983 245.873 17.4131 245.923 17.4444C246.198 17.6069 246.383 18.124 246.367 18.978C246.365 19.6803 246.241 20.0078 246.036 20.006C245.992 20.0056 245.943 19.9887 245.891 19.9575C245.602 19.7886 245.448 19.2739 245.457 18.428C245.466 17.7504 245.575 17.3961 245.784 17.398Z" fill="#768192"/>
<path d="M290.074 53.4325C290.556 53.4367 290.781 52.8699 290.794 52.0671C290.806 50.9974 290.424 49.916 289.596 49.4282C289.399 49.3136 289.229 49.2587 289.084 49.2575C288.597 49.2532 288.39 49.8387 288.381 50.621C288.367 51.7667 288.757 52.7845 289.573 53.268C289.764 53.3785 289.93 53.4313 290.074 53.4325ZM289.457 50.041C289.5 50.0414 289.546 50.0562 289.596 50.0854C289.873 50.25 290.056 50.767 290.04 51.6211C290.038 52.3233 289.914 52.6488 289.708 52.647C289.663 52.6466 289.614 52.6318 289.562 52.6005C289.271 52.4275 289.121 51.919 289.129 51.071C289.138 50.3935 289.248 50.0392 289.457 50.041Z" fill="#768192"/>
<path d="M287.341 51.8193C287.822 51.8235 288.048 51.2566 288.06 50.4518C288.071 49.3841 287.689 48.3027 286.862 47.815C286.666 47.6983 286.497 47.6455 286.352 47.6442C285.864 47.6399 285.656 48.2274 285.647 49.0097C285.634 50.1534 286.023 51.1712 286.84 51.6527C287.03 51.7652 287.197 51.818 287.341 51.8193ZM286.724 48.4277C286.765 48.4281 286.812 48.4429 286.862 48.4721C287.139 48.6367 287.322 49.1537 287.307 50.0078C287.305 50.7101 287.181 51.0355 286.975 51.0337C286.93 51.0333 286.881 51.0185 286.829 50.9873C286.538 50.8163 286.388 50.3057 286.397 49.4598C286.405 48.7802 286.515 48.4259 286.724 48.4277Z" fill="#768192"/>
<path d="M284.606 50.2062C285.088 50.2104 285.312 49.6436 285.324 48.8408C285.336 47.7711 284.953 46.6897 284.127 46.202C283.931 46.0873 283.762 46.0324 283.617 46.0312C283.128 46.0269 282.921 46.6144 282.912 47.3946C282.899 48.5424 283.288 49.5582 284.104 50.0396C284.296 50.1522 284.463 50.205 284.606 50.2062ZM283.988 46.8147C284.03 46.8151 284.077 46.8319 284.127 46.8611C284.404 47.0237 284.588 47.5407 284.571 48.3948C284.569 49.0991 284.445 49.4245 284.239 49.4227C284.194 49.4223 284.145 49.4055 284.093 49.3742C283.803 49.2013 283.651 48.6927 283.661 47.8468C283.67 47.1672 283.778 46.8129 283.988 46.8147Z" fill="#768192"/>
<path d="M281.564 48.4817L281.598 45.5496L281.609 45.5559L282.214 46.2491L282.347 45.6732L281.503 44.7192L280.883 44.3544L280.838 48.0544L281.564 48.4817Z" fill="#768192"/>
<path d="M279.136 46.9801C279.618 46.9844 279.843 46.4196 279.856 45.6148C279.868 44.5471 279.485 43.4657 278.658 42.9779C278.462 42.8612 278.292 42.8084 278.147 42.8072C277.66 42.8029 277.452 43.3883 277.443 44.1706C277.43 45.3143 277.819 46.3321 278.635 46.8156C278.826 46.9282 278.992 46.9789 279.136 46.9801ZM278.519 43.5907C278.562 43.5911 278.608 43.6058 278.658 43.635C278.934 43.7997 279.119 44.3146 279.102 45.1728C279.1 45.873 278.976 46.1985 278.771 46.1967C278.726 46.1963 278.677 46.1794 278.625 46.1502C278.334 45.9772 278.182 45.4687 278.192 44.6207C278.2 43.9432 278.31 43.5889 278.519 43.5907Z" fill="#768192"/>
<path d="M276.402 45.3664C276.882 45.3706 277.107 44.8058 277.119 44.003C277.131 42.9354 276.75 41.8498 275.923 41.3642C275.726 41.2475 275.556 41.1946 275.411 41.1934C274.923 41.1891 274.716 41.7766 274.708 42.5569C274.694 43.7026 275.082 44.7204 275.901 45.1998C276.091 45.3144 276.258 45.3651 276.402 45.3664ZM275.782 41.9769C275.825 41.9773 275.871 41.9921 275.921 42.0233C276.2 42.1859 276.383 42.7009 276.365 43.5591C276.363 44.2593 276.24 44.5847 276.035 44.5829C275.99 44.5825 275.941 44.5677 275.889 44.5364C275.597 44.3634 275.448 43.855 275.456 43.009C275.465 42.3294 275.575 41.9751 275.782 41.9769Z" fill="#768192"/>
<path d="M273.668 43.7553C274.149 43.7595 274.373 43.1927 274.386 42.3899C274.399 41.3201 274.016 40.2388 273.19 39.751C272.993 39.6364 272.824 39.5815 272.679 39.5802C272.191 39.576 271.983 40.1635 271.974 40.9437C271.96 42.0894 272.349 43.1072 273.167 43.5887C273.357 43.7012 273.524 43.754 273.668 43.7553ZM273.051 40.3638C273.092 40.3642 273.139 40.3789 273.188 40.4081C273.465 40.5707 273.649 41.0898 273.633 41.9439C273.632 42.6461 273.507 42.9716 273.3 42.9697C273.255 42.9694 273.207 42.9545 273.154 42.9233C272.864 42.7524 272.714 42.2418 272.723 41.3938C272.732 40.7163 272.842 40.362 273.051 40.3638Z" fill="#768192"/>
<path d="M270.626 42.0305L270.659 39.0984L270.671 39.1027L271.278 39.7959L271.41 39.22L270.565 38.266L269.948 37.9033L269.905 41.6053L270.626 42.0305Z" fill="#768192"/>
<path d="M267.89 40.4172L267.925 37.4831L267.935 37.4914L268.54 38.1846L268.675 37.6088L267.83 36.6548L267.208 36.2879L267.166 39.9879L267.89 40.4172Z" fill="#768192"/>
<path d="M265.155 38.8022L265.188 35.8722L265.2 35.8785L265.807 36.5717L265.94 35.9979L265.093 35.0439L264.474 34.675L264.43 38.3769L265.155 38.8022Z" fill="#768192"/>
<path d="M262.729 37.3024C263.21 37.3066 263.436 36.7418 263.448 35.937C263.461 34.8693 263.078 33.7859 262.251 33.3002C262.055 33.1855 261.885 33.1307 261.74 33.1294C261.252 33.1251 261.044 33.7127 261.035 34.4929C261.021 35.6386 261.412 36.6543 262.228 37.1358C262.419 37.2484 262.586 37.3012 262.729 37.3024ZM262.111 33.913C262.154 33.9133 262.2 33.9281 262.25 33.9573C262.526 34.1219 262.711 34.6369 262.694 35.4951C262.693 36.1953 262.569 36.5207 262.363 36.5189C262.319 36.5185 262.27 36.5037 262.217 36.4725C261.925 36.2995 261.775 35.7889 261.784 34.943C261.793 34.2654 261.902 33.9111 262.111 33.913Z" fill="#768192"/>
<path d="M259.996 35.6914C260.476 35.6955 260.702 35.1287 260.712 34.3239C260.725 33.2562 260.344 32.1748 259.516 31.687C259.32 31.5703 259.15 31.5175 259.006 31.5163C258.518 31.512 258.31 32.0995 258.302 32.8818C258.289 34.0255 258.678 35.0433 259.495 35.5248C259.686 35.6373 259.853 35.6901 259.996 35.6914ZM259.378 32.2998C259.419 32.3002 259.466 32.315 259.516 32.3462C259.793 32.5088 259.978 33.0258 259.959 33.8799C259.958 34.5822 259.835 34.9076 259.628 34.9058C259.583 34.9054 259.535 34.8906 259.483 34.8614C259.196 34.6905 259.042 34.1799 259.051 33.3319C259.06 32.6523 259.169 32.298 259.378 32.2998Z" fill="#768192"/>
<path d="M257.261 34.0776C257.742 34.0818 257.967 33.515 257.979 32.7122C257.992 31.6424 257.61 30.561 256.783 30.0733C256.587 29.9587 256.418 29.9059 256.273 29.9046C255.785 29.9003 255.576 30.4858 255.567 31.266C255.552 32.4117 255.944 33.4295 256.76 33.911C256.951 34.0235 257.118 34.0763 257.261 34.0776ZM256.643 30.6861C256.686 30.6864 256.731 30.7012 256.782 30.7304C257.059 30.8951 257.243 31.4121 257.226 32.2662C257.225 32.9684 257.101 33.2938 256.895 33.292C256.85 33.2916 256.801 33.2768 256.749 33.2456C256.458 33.0747 256.306 32.5641 256.317 31.7161C256.326 31.0385 256.434 30.6842 256.643 30.6861Z" fill="#768192"/>
<path d="M254.217 32.3508L254.25 29.4208L254.261 29.4271L254.869 30.1203L255.001 29.5424L254.156 28.5904L253.538 28.2256L253.496 31.9256L254.217 32.3508Z" fill="#768192"/>
<path d="M251.791 30.8515C252.272 30.8557 252.497 30.2909 252.509 29.4881C252.522 28.4184 252.141 27.337 251.312 26.8472C251.116 26.7326 250.946 26.6798 250.801 26.6785C250.314 26.6742 250.106 27.2597 250.098 28.0399C250.083 29.1856 250.474 30.2034 251.29 30.687C251.481 30.7975 251.647 30.8502 251.791 30.8515ZM251.174 27.462C251.216 27.4624 251.262 27.4772 251.313 27.5064C251.588 27.671 251.774 28.186 251.757 29.0421C251.755 29.7444 251.631 30.0698 251.425 30.068C251.38 30.0676 251.332 30.0507 251.28 30.0215C250.991 29.8506 250.837 29.338 250.846 28.4921C250.855 27.8125 250.964 27.4602 251.174 27.462Z" fill="#768192"/>
<path d="M249.056 29.238C249.537 29.2422 249.763 28.6774 249.774 27.8726C249.785 26.8049 249.405 25.7235 248.576 25.2357C248.38 25.1211 248.21 25.0662 248.065 25.0649C247.578 25.0607 247.372 25.6462 247.362 26.4284C247.348 27.5741 247.739 28.5899 248.556 29.0734C248.746 29.186 248.912 29.2367 249.056 29.238ZM248.439 25.8506C248.482 25.851 248.53 25.8657 248.581 25.8949C248.853 26.0554 249.038 26.5725 249.02 27.4286C249.018 28.1309 248.896 28.4563 248.69 28.4545C248.646 28.4541 248.597 28.4393 248.545 28.408C248.256 28.2371 248.102 27.7265 248.111 26.8785C248.119 26.201 248.228 25.8487 248.439 25.8506Z" fill="#768192"/>
<path d="M246.322 27.6247C246.803 27.6289 247.029 27.0641 247.04 26.2593C247.053 25.1916 246.67 24.1102 245.842 23.6245C245.646 23.5078 245.477 23.4529 245.333 23.4517C244.845 23.4474 244.636 24.0349 244.626 24.8151C244.614 25.9609 245.003 26.9786 245.821 27.4601C246.011 27.5706 246.178 27.6234 246.322 27.6247ZM245.704 24.2352C245.746 24.2356 245.793 24.2504 245.844 24.2796C246.119 24.4442 246.304 24.9612 246.286 25.8153C246.285 26.5176 246.161 26.843 245.956 26.8412C245.911 26.8408 245.863 26.826 245.811 26.7947C245.522 26.6238 245.368 26.1132 245.377 25.2653C245.384 24.5877 245.495 24.2334 245.704 24.2352Z" fill="#768192"/>
<path d="M289.997 60.2678C290.478 60.272 290.703 59.7072 290.713 58.9023C290.726 57.8347 290.346 56.7533 289.517 56.2655C289.32 56.1488 289.15 56.096 289.005 56.0948C288.518 56.0905 288.31 56.6739 288.301 57.4562C288.288 58.6039 288.679 59.6218 289.495 60.1012C289.686 60.2158 289.854 60.2665 289.997 60.2678ZM289.378 56.8783C289.419 56.8787 289.466 56.8934 289.517 56.9247C289.794 57.0852 289.978 57.6043 289.96 58.4584C289.959 59.1606 289.835 59.4861 289.629 59.4843C289.584 59.4839 289.536 59.467 289.484 59.4378C289.192 59.2648 289.042 58.7563 289.052 57.9083C289.06 57.2308 289.168 56.8765 289.378 56.8783Z" fill="#768192"/>
<path d="M287.262 58.6567C287.742 58.6609 287.968 58.094 287.981 57.2892C287.991 56.2215 287.611 55.1401 286.782 54.6524C286.585 54.5357 286.416 54.4828 286.27 54.4816C285.783 54.4773 285.575 55.0628 285.566 55.8471C285.554 56.9908 285.944 58.0086 286.76 58.4901C286.951 58.6026 287.119 58.6554 287.262 58.6567ZM286.643 55.2651C286.685 55.2655 286.732 55.2803 286.782 55.3095C287.059 55.4741 287.243 55.9912 287.225 56.8452C287.223 57.5475 287.1 57.8729 286.895 57.8711C286.85 57.8707 286.801 57.8559 286.749 57.8246C286.457 57.6517 286.307 57.1432 286.318 56.2972C286.326 55.6176 286.434 55.2633 286.643 55.2651Z" fill="#768192"/>
<path d="M284.526 57.0434C285.007 57.0476 285.233 56.4807 285.245 55.678C285.258 54.6082 284.875 53.5268 284.048 53.0391C283.851 52.9244 283.68 52.8696 283.535 52.8683C283.048 52.864 282.841 53.4495 282.832 54.2318C282.818 55.3775 283.21 56.3953 284.025 56.8788C284.216 56.9893 284.382 57.0421 284.526 57.0434ZM283.908 53.6519C283.951 53.6522 283.997 53.667 284.047 53.6983C284.323 53.8629 284.508 54.3779 284.49 55.2319C284.489 55.9363 284.366 56.2617 284.16 56.2599C284.115 56.2595 284.067 56.2426 284.015 56.2114C283.722 56.0404 283.572 55.5299 283.583 54.684C283.591 54.0043 283.7 53.65 283.908 53.6519Z" fill="#768192"/>
<path d="M281.485 55.3166L281.519 52.3846L281.529 52.3929L282.136 53.0861L282.268 52.5103L281.423 51.5562L280.802 51.1894L280.761 54.8914L281.485 55.3166Z" fill="#768192"/>
<path d="M279.059 53.8168C279.539 53.821 279.765 53.2542 279.777 52.4514C279.789 51.3837 279.407 50.3023 278.58 49.8126C278.383 49.6979 278.213 49.643 278.068 49.6417C277.58 49.6375 277.373 50.223 277.364 51.0073C277.349 52.1509 277.74 53.1687 278.557 53.6523C278.748 53.7628 278.915 53.8156 279.059 53.8168ZM278.441 50.4274C278.484 50.4277 278.53 50.4425 278.58 50.4717C278.857 50.6343 279.039 51.1533 279.023 52.0074C279.021 52.7097 278.897 53.0351 278.692 53.0333C278.648 53.0329 278.599 53.0181 278.546 52.9869C278.255 52.8139 278.104 52.3013 278.114 51.4594C278.122 50.7798 278.232 50.4255 278.441 50.4274Z" fill="#768192"/>
<path d="M276.323 52.2038C276.804 52.208 277.029 51.6432 277.041 50.8404C277.054 49.7707 276.673 48.6893 275.843 48.2016C275.647 48.0849 275.477 48.032 275.332 48.0308C274.845 48.0265 274.636 48.612 274.627 49.3942C274.615 50.54 275.006 51.5578 275.822 52.0372C276.013 52.1518 276.18 52.2025 276.323 52.2038ZM275.706 48.8143C275.748 48.8147 275.795 48.8295 275.846 48.8587C276.122 49.0233 276.305 49.5403 276.286 50.3944C276.284 51.0966 276.161 51.4221 275.956 51.4203C275.911 51.4199 275.863 51.403 275.812 51.3718C275.518 51.2008 275.369 50.6903 275.38 49.8464C275.387 49.1668 275.496 48.8125 275.706 48.8143Z" fill="#768192"/>
<path d="M273.589 50.5925C274.07 50.5967 274.296 50.0298 274.308 49.225C274.32 48.1573 273.938 47.0759 273.109 46.5881C272.913 46.4714 272.743 46.4186 272.598 46.4174C272.11 46.4131 271.902 46.9986 271.894 47.7829C271.881 48.9266 272.272 49.9444 273.087 50.4258C273.278 50.5384 273.444 50.5912 273.589 50.5925ZM272.971 47.2009C273.013 47.2013 273.06 47.2161 273.11 47.2453C273.387 47.4079 273.57 47.9269 273.552 48.781C273.551 49.4833 273.428 49.8087 273.223 49.8069C273.179 49.8065 273.13 49.7917 273.078 49.7605C272.785 49.5875 272.633 49.0789 272.645 48.2309C272.653 47.5534 272.762 47.1991 272.971 47.2009Z" fill="#768192"/>
<path d="M270.856 48.9792C271.335 48.9834 271.56 48.4165 271.572 47.6117C271.585 46.5461 271.202 45.4647 270.374 44.9749C270.178 44.8582 270.007 44.8054 269.862 44.8041C269.376 44.7998 269.169 45.3833 269.158 46.1676C269.146 47.3133 269.536 48.3311 270.353 48.8126C270.544 48.9251 270.711 48.9779 270.856 48.9792ZM270.236 45.5876C270.278 45.588 270.325 45.6028 270.375 45.6341C270.653 45.7966 270.835 46.3136 270.818 47.1677C270.815 47.87 270.693 48.1954 270.487 48.1936C270.443 48.1932 270.395 48.1784 270.342 48.1472C270.05 47.9762 269.899 47.4657 269.911 46.6197C269.917 45.9401 270.027 45.5858 270.236 45.5876Z" fill="#768192"/>
<path d="M268.12 47.3656C268.601 47.3699 268.825 46.8051 268.839 46.0002C268.852 44.9326 268.468 43.8491 267.641 43.3614C267.445 43.2467 267.275 43.1919 267.13 43.1906C266.643 43.1863 266.434 43.7718 266.424 44.5541C266.411 45.7018 266.802 46.7176 267.618 47.2011C267.809 47.3137 267.976 47.3644 268.12 47.3656ZM267.503 43.9741C267.545 43.9745 267.591 43.9893 267.641 44.0185C267.917 44.1831 268.101 44.6981 268.083 45.5542C268.082 46.2565 267.959 46.584 267.753 46.5822C267.708 46.5818 267.66 46.5649 267.608 46.5337C267.316 46.3627 267.166 45.8501 267.176 45.0083C267.184 44.3287 267.294 43.9723 267.503 43.9741Z" fill="#768192"/>
<path d="M265.386 45.7524C265.867 45.7566 266.092 45.1918 266.103 44.387C266.116 43.3193 265.733 42.2379 264.906 41.7502C264.709 41.6334 264.54 41.5786 264.395 41.5773C263.908 41.5731 263.699 42.1585 263.69 42.9428C263.677 44.0865 264.067 45.1043 264.884 45.5858C265.075 45.6983 265.243 45.7511 265.386 45.7524ZM264.767 42.3629C264.809 42.3633 264.855 42.3781 264.906 42.4073C265.184 42.5719 265.366 43.0869 265.35 43.943C265.347 44.6432 265.225 44.9707 265.019 44.9689C264.974 44.9685 264.925 44.9516 264.873 44.9224C264.58 44.7494 264.431 44.2389 264.442 43.393C264.449 42.7154 264.558 42.3611 264.767 42.3629Z" fill="#768192"/>
<path d="M262.342 44.028L262.376 41.0981L262.386 41.1023L262.992 41.7955L263.125 41.2217L262.281 40.2656L261.663 39.9029L261.622 43.6028L262.342 44.028Z" fill="#768192"/>
<path d="M259.609 42.4145L259.643 39.4825L259.653 39.4908L260.259 40.182L260.392 39.6061L259.548 38.6521L258.93 38.2873L258.887 41.9893L259.609 42.4145Z" fill="#768192"/>
<path d="M256.873 40.8015L256.909 37.8695L256.919 37.8757L257.525 38.5689L257.657 37.9931L256.813 37.0391L256.197 36.6764L256.153 40.3763L256.873 40.8015Z" fill="#768192"/>
<path d="M254.448 39.3022C254.927 39.3064 255.154 38.7395 255.166 37.9367C255.179 36.8691 254.796 35.7877 253.968 35.2979C253.772 35.1812 253.603 35.1284 253.458 35.1271C252.97 35.1228 252.762 35.7083 252.752 36.4906C252.74 37.6363 253.128 38.6541 253.948 39.1356C254.138 39.2481 254.304 39.3009 254.448 39.3022ZM253.83 35.9127C253.872 35.9131 253.919 35.9279 253.969 35.957C254.246 36.1196 254.428 36.6366 254.412 37.4928C254.409 38.195 254.286 38.5204 254.08 38.5186C254.036 38.5183 253.987 38.5014 253.935 38.4722C253.643 38.2992 253.494 37.7887 253.502 36.9427C253.51 36.2652 253.621 35.9109 253.83 35.9127Z" fill="#768192"/>
<path d="M251.714 37.6904C252.196 37.6946 252.42 37.1277 252.433 36.3229C252.446 35.2552 252.061 34.1717 251.236 33.682C251.039 33.5673 250.869 33.5145 250.724 33.5132C250.237 33.509 250.029 34.0944 250.02 34.8788C250.006 36.0245 250.396 37.0423 251.212 37.5237C251.403 37.6363 251.57 37.6891 251.714 37.6904ZM251.096 34.2988C251.137 34.2992 251.184 34.314 251.234 34.3432C251.511 34.5058 251.694 35.0248 251.679 35.8768C251.677 36.5791 251.553 36.9066 251.347 36.9048C251.302 36.9044 251.253 36.8875 251.201 36.8563C250.913 36.6874 250.76 36.1748 250.769 35.3309C250.777 34.6492 250.887 34.297 251.096 34.2988Z" fill="#768192"/>
<path d="M248.978 36.0754C249.458 36.0796 249.683 35.5127 249.695 34.7099C249.708 33.6423 249.327 32.5588 248.498 32.0732C248.301 31.9564 248.131 31.9036 247.986 31.9023C247.5 31.8981 247.291 32.4836 247.282 33.2658C247.272 34.4095 247.659 35.4293 248.476 35.9088C248.667 36.0213 248.834 36.0741 248.978 36.0754ZM248.361 32.6859C248.403 32.6863 248.45 32.7011 248.502 32.7323C248.776 32.8949 248.959 33.4119 248.941 34.2639C248.939 34.9682 248.816 35.2937 248.611 35.2919C248.566 35.2915 248.517 35.2767 248.464 35.2454C248.177 35.0745 248.023 34.5639 248.032 33.718C248.041 33.0384 248.15 32.6841 248.361 32.6859Z" fill="#768192"/>
<path d="M246.245 34.4643C246.725 34.4685 246.95 33.9016 246.962 33.0989C246.976 32.0291 246.592 30.9477 245.766 30.46C245.569 30.3433 245.399 30.2905 245.254 30.2892C244.767 30.285 244.56 30.8684 244.551 31.6548C244.536 32.7984 244.926 33.8162 245.743 34.2977C245.933 34.4102 246.1 34.463 246.245 34.4643ZM245.626 31.0728C245.668 31.0731 245.714 31.0879 245.764 31.1171C246.042 31.2797 246.225 31.7988 246.209 32.6528C246.207 33.3551 246.083 33.6805 245.877 33.6787C245.832 33.6783 245.784 33.6635 245.732 33.6323C245.443 33.4634 245.288 32.9508 245.3 32.1028C245.308 31.4232 245.418 31.071 245.626 31.0728Z" fill="#768192"/>
<path d="M289.916 67.1093C290.398 67.1135 290.624 66.5466 290.637 65.7398C290.65 64.6721 290.266 63.5887 289.439 63.105C289.242 62.9883 289.072 62.9334 288.927 62.9322C288.44 62.9279 288.232 63.5154 288.224 64.2977C288.209 65.4414 288.598 66.4612 289.417 66.9447C289.607 67.0573 289.773 67.108 289.916 67.1093ZM289.3 63.7157C289.343 63.7161 289.389 63.7309 289.439 63.7601C289.716 63.9247 289.899 64.4417 289.882 65.2958C289.88 65.998 289.758 66.3235 289.551 66.3217C289.506 66.3213 289.458 66.3044 289.405 66.2732C289.113 66.1022 288.963 65.5917 288.973 64.7478C288.981 64.0682 289.092 63.7139 289.3 63.7157Z" fill="#768192"/>
<path d="M287.182 65.496C287.664 65.5002 287.891 64.9313 287.902 64.1265C287.913 63.0588 287.533 61.9774 286.705 61.4897C286.509 61.373 286.339 61.3202 286.194 61.3189C285.706 61.3146 285.499 61.9022 285.489 62.6824C285.477 63.8281 285.865 64.8479 286.683 65.3315C286.872 65.444 287.038 65.4948 287.182 65.496ZM286.566 62.1025C286.608 62.1028 286.653 62.1176 286.704 62.1468C286.982 62.3094 287.166 62.8284 287.149 63.6825C287.147 64.3848 287.023 64.7102 286.817 64.7084C286.772 64.708 286.723 64.6932 286.671 64.662C286.38 64.489 286.229 63.9804 286.239 63.1325C286.247 62.4528 286.356 62.1006 286.566 62.1025Z" fill="#768192"/>
<path d="M284.141 63.7675L284.174 60.8376L284.186 60.8438L284.792 61.535L284.924 60.9612L284.079 60.0071L283.458 59.6403L283.416 63.3402L284.141 63.7675Z" fill="#768192"/>
<path d="M281.713 62.2717C282.194 62.2759 282.419 61.707 282.432 60.9021C282.443 59.8324 282.063 58.7531 281.235 58.2633C281.039 58.1466 280.869 58.0938 280.725 58.0925C280.236 58.0882 280.028 58.6758 280.019 59.456C280.007 60.6017 280.396 61.6257 281.212 62.1051C281.403 62.2176 281.569 62.2704 281.713 62.2717ZM281.096 58.8781C281.138 58.8785 281.185 58.8933 281.235 58.9224C281.512 59.085 281.696 59.6041 281.677 60.4582C281.677 61.1604 281.553 61.4859 281.345 61.484C281.3 61.4836 281.252 61.4668 281.2 61.4376C280.909 61.2646 280.759 60.752 280.769 59.9061C280.777 59.2285 280.887 58.8763 281.096 58.8781Z" fill="#768192"/>
<path d="M278.977 60.6586C279.459 60.6628 279.685 60.0939 279.698 59.2891C279.709 58.2194 279.328 57.14 278.499 56.6523C278.303 56.5356 278.133 56.4828 277.988 56.4815C277.501 56.4773 277.294 57.0627 277.284 57.845C277.271 58.9907 277.661 60.0106 278.477 60.4941C278.667 60.6046 278.833 60.6573 278.977 60.6586ZM278.361 57.265C278.402 57.2654 278.448 57.2802 278.499 57.3094C278.775 57.474 278.961 57.989 278.944 58.8451C278.941 59.5474 278.818 59.8728 278.612 59.871C278.567 59.8706 278.518 59.8538 278.467 59.8246C278.175 59.6516 278.025 59.1431 278.033 58.2951C278.043 57.6175 278.151 57.2632 278.361 57.265Z" fill="#768192"/>
<path d="M276.245 59.0451C276.725 59.0493 276.951 58.4825 276.962 57.6756C276.976 56.6079 276.594 55.5265 275.767 55.0367C275.571 54.9221 275.401 54.8693 275.256 54.868C274.768 54.8637 274.56 55.4492 274.551 56.2315C274.539 57.3772 274.928 58.3991 275.745 58.8806C275.936 58.9931 276.101 59.0439 276.245 59.0451ZM275.626 55.6515C275.669 55.6519 275.715 55.6667 275.766 55.6979C276.044 55.8605 276.228 56.3776 276.21 57.2316C276.208 57.9339 276.084 58.2593 275.877 58.2575C275.833 58.2571 275.784 58.2423 275.733 58.2111C275.442 58.0381 275.292 57.5275 275.301 56.6836C275.308 56.004 275.419 55.6497 275.626 55.6515Z" fill="#768192"/>
<path d="M273.202 57.3161L273.236 54.3841L273.249 54.3904L273.852 55.0856L273.986 54.5077L273.141 53.5537L272.521 53.1889L272.478 56.8888L273.202 57.3161Z" fill="#768192"/>
<path d="M270.774 55.8188C271.256 55.823 271.482 55.2541 271.492 54.4513C271.505 53.3816 271.124 52.3023 270.295 51.8125C270.099 51.6978 269.929 51.645 269.784 51.6437C269.297 51.6394 269.09 52.2249 269.08 53.0051C269.069 54.1509 269.46 55.1728 270.275 55.6542C270.464 55.7647 270.631 55.8175 270.774 55.8188ZM270.158 52.4252C270.2 52.4256 270.246 52.4404 270.295 52.4695C270.574 52.6342 270.758 53.1512 270.74 54.0053C270.738 54.7096 270.614 55.035 270.408 55.0332C270.364 55.0329 270.316 55.016 270.264 54.9847C269.97 54.8117 269.82 54.3012 269.832 53.4573C269.839 52.7777 269.949 52.4234 270.158 52.4252Z" fill="#768192"/>
<path d="M268.04 54.2077C268.521 54.2119 268.746 53.641 268.758 52.8361C268.771 51.7705 268.389 50.6891 267.563 50.1993C267.366 50.0826 267.196 50.0298 267.051 50.0285C266.564 50.0243 266.356 50.6118 266.347 51.3941C266.333 52.5377 266.723 53.5596 267.539 54.0411C267.729 54.1536 267.896 54.2064 268.04 54.2077ZM267.423 50.8121C267.464 50.8124 267.511 50.8272 267.561 50.8564C267.839 51.0211 268.023 51.5401 268.005 52.3942C268.003 53.0944 267.879 53.4198 267.674 53.418C267.629 53.4177 267.58 53.4028 267.528 53.3716C267.236 53.2006 267.086 52.6901 267.095 51.8442C267.104 51.1645 267.214 50.8103 267.423 50.8121Z" fill="#768192"/>
<path d="M265.305 52.5942C265.787 52.5984 266.012 52.0295 266.024 51.2246C266.035 50.1549 265.655 49.0735 264.826 48.5878C264.631 48.4711 264.46 48.4162 264.316 48.415C263.828 48.4107 263.62 48.9982 263.611 49.7805C263.598 50.9242 263.988 51.9461 264.805 52.4276C264.995 52.5401 265.162 52.5929 265.305 52.5942ZM264.687 49.2006C264.73 49.201 264.776 49.2157 264.827 49.2449C265.103 49.4075 265.288 49.9246 265.27 50.7786C265.268 51.4829 265.145 51.8083 264.939 51.8065C264.894 51.8061 264.846 51.7893 264.793 51.7601C264.502 51.5871 264.351 51.0786 264.361 50.2306C264.369 49.5531 264.478 49.1988 264.687 49.2006Z" fill="#768192"/>
<path d="M262.264 50.8652L262.297 47.9332L262.309 47.9394L262.914 48.6326L263.049 48.0588L262.203 47.1048L261.587 46.738L261.542 50.44L262.264 50.8652Z" fill="#768192"/>
<path d="M259.835 49.3676C260.317 49.3718 260.543 48.805 260.553 47.9981C260.566 46.9304 260.184 45.849 259.357 45.3613C259.161 45.2446 258.991 45.1918 258.846 45.1905C258.359 45.1862 258.15 45.7737 258.141 46.554C258.128 47.6997 258.519 48.7216 259.336 49.2031C259.526 49.3136 259.692 49.3664 259.835 49.3676ZM259.218 45.974C259.26 45.9744 259.306 45.9892 259.357 46.0184C259.634 46.183 259.818 46.7 259.801 47.5541C259.798 48.2564 259.675 48.5818 259.47 48.58C259.425 48.5796 259.377 48.5628 259.325 48.5336C259.035 48.3647 258.882 47.852 258.892 47.0041C258.899 46.3265 259.009 45.9722 259.218 45.974Z" fill="#768192"/>
<path d="M257.103 47.7546C257.584 47.7588 257.81 47.1899 257.822 46.3871C257.833 45.3173 257.452 44.236 256.624 43.7482C256.428 43.6336 256.257 43.5787 256.113 43.5774C255.625 43.5732 255.418 44.1607 255.408 44.9409C255.394 46.0866 255.785 47.1065 256.602 47.59C256.793 47.7005 256.959 47.7533 257.103 47.7546ZM256.484 44.361C256.526 44.3614 256.573 44.3761 256.622 44.4053C256.9 44.5679 257.085 45.0849 257.067 45.941C257.066 46.6433 256.943 46.9687 256.737 46.9669C256.692 46.9665 256.643 46.9518 256.591 46.9205C256.299 46.7475 256.149 46.2369 256.159 45.3931C256.166 44.7114 256.276 44.3592 256.484 44.361Z" fill="#768192"/>
<path d="M254.368 46.1432C254.849 46.1475 255.075 45.5786 255.085 44.7737C255.099 43.7061 254.717 42.6226 253.889 42.1349C253.693 42.0202 253.524 41.9654 253.379 41.9641C252.891 41.9598 252.681 42.5453 252.672 43.3276C252.661 44.4753 253.052 45.4932 253.868 45.9767C254.058 46.0892 254.224 46.142 254.368 46.1432ZM253.751 42.7477C253.793 42.748 253.839 42.7628 253.89 42.792C254.166 42.9546 254.352 43.4736 254.332 44.3277C254.33 45.03 254.207 45.3554 254.002 45.3536C253.957 45.3532 253.908 45.3384 253.857 45.3072C253.563 45.1362 253.414 44.6236 253.425 43.7797C253.431 43.1021 253.541 42.7458 253.751 42.7477Z" fill="#768192"/>
<path d="M251.326 44.4123L251.359 41.4803L251.37 41.4886L251.977 42.1797L252.111 41.6059L251.265 40.6499L250.647 40.2892L250.605 43.9891L251.326 44.4123Z" fill="#768192"/>
<path d="M248.898 42.9167C249.379 42.9209 249.605 42.352 249.616 41.5472C249.629 40.4795 249.247 39.396 248.419 38.9083C248.223 38.7936 248.054 38.7408 247.909 38.7396C247.421 38.7353 247.213 39.3208 247.204 40.103C247.191 41.2487 247.581 42.2707 248.399 42.7501C248.588 42.8627 248.754 42.9154 248.898 42.9167ZM248.282 39.5231C248.325 39.5235 248.371 39.5383 248.422 39.5675C248.697 39.7301 248.881 40.2471 248.862 41.1011C248.86 41.8054 248.737 42.1309 248.531 42.1291C248.487 42.1287 248.439 42.1118 248.386 42.0806C248.098 41.9138 247.944 41.3991 247.954 40.5552C247.961 39.8756 248.071 39.5213 248.282 39.5231Z" fill="#768192"/>
<path d="M246.164 41.3036C246.645 41.3078 246.871 40.739 246.883 39.9341C246.896 38.8665 246.513 37.785 245.687 37.2973C245.49 37.1806 245.321 37.1278 245.176 37.1265C244.687 37.1223 244.48 37.7077 244.47 38.4921C244.457 39.6357 244.847 40.6576 245.662 41.137C245.853 41.2496 246.02 41.3024 246.164 41.3036ZM245.546 37.9101C245.588 37.9104 245.634 37.9252 245.684 37.9544C245.963 38.117 246.146 38.6361 246.129 39.4902C246.126 40.1924 246.002 40.5199 245.797 40.5181C245.753 40.5177 245.705 40.5008 245.653 40.4716C245.365 40.3007 245.211 39.786 245.22 38.9401C245.227 38.2605 245.338 37.9082 245.546 37.9101Z" fill="#768192"/>
</g>
<defs>
<filter id="filter0_d_190_3678" x="0.156641" y="0" width="442.292" height="319.452" filterUnits="userSpaceOnUse" color-interpolation-filters="sRGB">
<feFlood flood-opacity="0" result="BackgroundImageFix"/>
<feColorMatrix in="SourceAlpha" type="matrix" values="0 0 0 0 0 0 0 0 0 0 0 0 0 0 0 0 0 0 127 0" result="hardAlpha"/>
<feOffset dy="24.6002"/>
<feGaussianBlur stdDeviation="12.3001"/>
<feColorMatrix type="matrix" values="0 0 0 0 0 0 0 0 0 0 0 0 0 0 0 0 0 0 0.2 0"/>
<feBlend mode="normal" in2="BackgroundImageFix" result="effect1_dropShadow_190_3678"/>
<feBlend mode="normal" in="SourceGraphic" in2="effect1_dropShadow_190_3678" result="shape"/>
</filter>
<linearGradient id="paint0_linear_190_3678" x1="221.296" y1="205.929" x2="24.7508" y2="205.929" gradientUnits="userSpaceOnUse">
<stop stop-color="#AABAD6"/>
<stop offset="1" stop-color="#96AAC9"/>
</linearGradient>
</defs>
</svg>
