<svg width="443" height="325" viewBox="0 0 443 325" fill="none" xmlns="http://www.w3.org/2000/svg">
<g filter="url(#filter0_d_109_1874)">
<path d="M421.448 152.12V167.393L221.217 283V152.558L421.448 152.12Z" fill="#C7D1E1"/>
<path d="M221.218 152.558V283L21 167.393V152.12L221.218 152.558Z" fill="url(#paint0_linear_109_1874)"/>
<path d="M21 152.12L221.217 267.723L421.448 152.12L221.217 36.5174L21 152.12Z" fill="#D4E0F2"/>
</g>
<path d="M342.012 152.577C342.904 153.092 342.913 153.931 342.022 154.449C341.131 154.967 339.682 154.964 338.79 154.449C337.893 153.931 337.885 153.092 338.776 152.574C339.666 152.057 341.115 152.059 342.012 152.577Z" fill="#FFA600"/>
<path d="M324.796 162.582C333.455 167.581 347.5 167.579 356.104 162.579C364.707 157.579 364.665 149.444 356.006 144.445C347.341 139.442 333.297 139.445 324.693 144.445C316.09 149.444 316.131 157.579 324.796 162.582ZM358.004 143.284C367.773 148.924 367.825 158.103 358.119 163.743C348.413 169.383 332.567 169.383 322.798 163.743C313.024 158.1 312.972 148.921 322.678 143.281C332.384 137.64 348.23 137.64 358.004 143.284Z" fill="#FFA600"/>
<path d="M181.127 162.373L181.109 168.566L172.955 173.304L172.973 167.112L181.127 162.373Z" fill="#FF7300"/>
<path d="M162.937 167.111L162.92 173.304L154.702 168.56L154.72 162.368L162.937 167.111Z" fill="#FF8C00"/>
<path d="M176.179 174.757L176.161 180.95L167.954 176.212L167.972 170.018L176.179 174.757Z" fill="#FF8C00"/>
<path d="M181.18 171.85L181.163 178.042L176.16 180.95L176.178 174.757L181.18 171.85Z" fill="#FF7300"/>
<path d="M159.816 174.757L159.798 180.95L154.763 178.044L154.78 171.85L159.816 174.757Z" fill="#FF8C00"/>
<path d="M167.972 170.018L167.954 176.211L159.8 180.95L159.818 174.757L167.972 170.018Z" fill="#FF7300"/>
<path d="M181.127 162.372L172.973 167.112L181.18 171.85L176.178 174.757L167.971 170.018L159.816 174.757L154.782 171.85L162.936 167.112L154.719 162.367L159.721 159.46L167.938 164.204L176.092 159.465L181.127 162.372Z" fill="#FFA600"/>
<path d="M299.761 87.967L299.641 130.368L283.858 139.539L283.979 97.1387L299.761 87.967Z" fill="#F7AA45"/>
<path d="M283.978 97.1382L283.857 139.539L267.983 130.374L268.103 87.9737L283.978 97.1382Z" fill="#FF9000"/>
<path d="M299.761 87.967L283.979 97.1387L268.104 87.9734L283.887 78.8018L299.761 87.967Z" fill="#F5A104"/>
<path d="M245.782 10.0309C245.782 15.5811 241.292 20.0708 235.751 20.0708C230.957 20.0708 226.937 16.7055 225.941 12.1973C225.794 11.4965 225.711 10.7779 225.711 10.0309C225.711 4.48988 230.21 0.000188828 235.751 0.000188828C237.844 0.000188828 239.789 0.645729 241.403 1.74244C244.049 3.54924 245.782 6.59179 245.782 10.0309Z" fill="#FF7300"/>
<path d="M241.632 3.90876C241.632 9.44976 237.143 13.9395 231.602 13.9395C229.509 13.9395 227.555 13.2939 225.941 12.1972C225.794 11.4963 225.711 10.7777 225.711 10.0307C225.711 4.48974 230.21 5.05447e-05 235.751 5.05447e-05C237.844 5.05447e-05 239.789 0.644881 241.403 1.7423C241.549 2.44317 241.632 3.16249 241.632 3.90876Z" fill="#FF8C00"/>
<path d="M229.308 6.84762C229.308 5.27492 230.582 3.99945 232.156 3.99945C233.728 3.99945 235.004 5.27492 235.004 6.84762C235.004 8.42033 233.728 9.6958 232.156 9.6958C230.582 9.6958 229.308 8.42033 229.308 6.84762Z" fill="#FFB01C"/>
<path d="M206.706 207.861C216.42 213.469 217.148 219.484 207.836 224.896C198.524 230.307 188.139 229.905 178.425 224.296L173.387 221.387L182.352 216.177L187.998 219.436C192.333 221.94 195.885 221.79 198.902 220.036C201.92 218.281 202.338 216.331 196.952 213.221L192.18 210.467C186.541 207.211 182.567 207.108 178.254 209.616L175.066 211.468L166.39 206.458L170.093 204.306C173.633 202.249 174.22 200.098 169.359 197.291L165.974 195.336C160.506 192.18 157.139 192.427 154.121 194.181C151.103 195.935 150.857 197.993 155.19 200.495L159.095 202.749L150.129 207.96L146.832 206.056C137.111 200.444 136.391 194.433 145.702 189.022C155.014 183.61 165.393 184.009 175.113 189.621L176.677 190.524C183.19 194.284 185.196 197.838 182.537 201.599C189.359 200.045 195.77 201.548 201.928 205.102L206.706 207.861Z" fill="#FFA600"/>
<path d="M291.319 24.9744C294.585 26.86 296.272 30.06 296.261 33.9581C296.24 41.6031 289.605 40.6298 289.594 44.6265C289.593 44.7982 289.593 44.9748 289.624 45.1649L295.915 48.7977L295.906 52.2737L286.285 46.7199L286.294 43.7327C286.314 36.5715 292.912 39.1969 292.931 32.1719C292.938 29.9855 292.274 29.008 291.218 28.3986C290.159 27.7864 289.492 28.0631 289.487 29.8018L289.479 32.4088L286.331 30.5914L286.338 28.2284C286.349 24.3303 288.049 23.0861 291.319 24.9744Z" fill="#383340"/>
<path d="M282.475 28.4332L282.448 37.6502L267.121 28.8014L266.358 43.7857C267.971 41.6717 270.543 41.4944 274.076 43.5339C280.575 47.2865 283.849 54.4414 283.821 63.9393L283.781 78.3242C283.752 88.655 279.241 91.9621 270.573 86.9574C261.908 81.9548 257.432 73.4592 257.461 63.1285L257.477 57.7783L265.819 62.595L265.802 68.5907C265.789 73.2017 267.551 75.8818 270.359 77.5027C273.168 79.1244 274.938 78.4838 274.952 73.8728L274.991 59.6702C275.005 55.0592 273.243 52.2905 270.435 50.6696C267.627 49.0479 265.855 49.7764 265.843 54.3874L265.837 56.3241L257.494 51.5073L259.203 14.9982L282.475 28.4332Z" fill="#383340"/>
<path d="M250.587 206.923L250.555 218.327L240.694 224.059L240.726 212.654L250.587 206.923Z" fill="#FF7300"/>
<path d="M240.725 212.653L240.693 224.058L230.769 218.328L230.8 206.924L240.725 212.653Z" fill="#FF8C00"/>
<path d="M250.586 206.922L240.725 212.654L230.801 206.924L240.663 201.193L250.586 206.922Z" fill="#FFA600"/>
<path d="M229.063 194.426L229.031 205.831L219.169 211.562L219.202 200.157L229.063 194.426Z" fill="#F7AA45"/>
<path d="M219.203 200.157L219.17 211.562L209.246 205.832L209.279 194.428L219.203 200.157Z" fill="#FF9000"/>
<path d="M229.064 194.426L219.203 200.157L209.278 194.427L219.14 188.696L229.064 194.426Z" fill="#F5A104"/>
<path d="M207.219 182.3L207.187 193.705L197.325 199.435L197.358 188.031L207.219 182.3Z" fill="#241F3B"/>
<path d="M197.358 188.03L197.326 199.435L187.401 193.705L187.434 182.301L197.358 188.03Z" fill="#120F1D"/>
<path d="M207.22 182.3L197.359 188.03L187.434 182.301L197.295 176.57L207.22 182.3Z" fill="#372F52"/>
<path d="M130.421 164.798L130.181 80.2106L121.182 74.981L121.421 159.568C121.426 161.36 122.058 162.62 123.078 163.213L132.077 168.443C131.058 167.851 130.426 166.589 130.421 164.798Z" fill="#FF9000"/>
<path d="M130.181 80.2107L121.181 74.9811L202.339 28.1242L211.338 33.3537L130.181 80.2107Z" fill="#FFA600"/>
<path d="M211.338 33.3539L211.577 117.941C211.588 121.547 209.055 125.934 205.921 127.743L136.113 168.048C132.979 169.856 130.429 168.404 130.419 164.797L130.18 80.2109L211.338 33.3539Z" fill="#F7AA45"/>
<path d="M200.615 0.878365C199.583 0.278938 198.155 0.362648 196.579 1.27278L126.771 41.5765C123.637 43.3854 121.104 47.7779 121.114 51.3787L121.181 74.9806L130.181 80.2109L130.114 56.609C130.104 53.0075 132.636 48.6157 135.77 46.806L205.579 6.50237C207.155 5.59293 208.583 5.50852 209.615 6.10866L200.615 0.878365Z" fill="#372F52"/>
<path d="M205.578 6.50235C208.712 4.69271 211.262 6.1505 211.272 9.75204L211.339 33.354L130.181 80.2102L130.113 56.609C130.103 53.0075 132.636 48.6157 135.77 46.806L205.578 6.50235Z" fill="#221C36"/>
<path d="M194.474 30.8063L193.11 31.593L194.463 27.1005L194.474 30.8063Z" fill="#383340"/>
<path d="M194.474 30.8064L194.463 27.1006L193.11 31.5931L194.474 30.8064ZM195.796 30.0431L196.435 29.6742L196.439 31.0845L195.8 31.4534L195.805 33.2382L194.483 34.0015L194.477 32.2167L191.878 33.7177L191.874 32.3075L194.306 24.2311L195.777 23.3813L195.796 30.0431Z" fill="#221C36"/>
<path d="M185.51 29.3093L185.538 39.1662L184.188 39.9458L184.166 32.4256L183.125 33.0265L183.122 31.9283C184.163 31.3268 184.398 30.6131 184.604 29.8321L185.51 29.3093Z" fill="#221C36"/>
<path d="M187.635 36.626L187.639 37.849L187.108 39.5891L186.601 39.8813L186.924 38.408L186.452 38.6797L186.448 37.3112L187.635 36.626Z" fill="#221C36"/>
<path d="M190.685 26.3205L190.713 36.1774L189.363 36.957L189.342 29.4368L188.3 30.0377L188.297 28.9396C189.339 28.3387 189.568 27.6272 189.775 26.8462L190.685 26.3205Z" fill="#221C36"/>
<path d="M187.636 37.849L187.633 36.626L186.447 37.3113L186.45 38.6797L186.921 38.408L186.599 39.8814L187.106 39.5891L187.636 37.849ZM185.535 39.1663L185.508 29.3094L184.602 29.8322C184.395 30.6133 184.161 31.3269 183.12 31.9284L183.123 33.0266L184.164 32.425L184.186 39.9459L185.535 39.1663ZM190.712 36.1777L190.684 26.3208L189.774 26.8457C189.567 27.6275 189.338 28.3383 188.296 28.9398L188.3 30.0379L189.341 29.4364L189.362 36.9566L190.712 36.1777ZM196.436 31.0843L196.433 29.674L195.794 30.0429L195.775 23.3811L194.303 24.2309L191.872 32.3073L191.876 33.7175L194.476 32.2172L194.481 34.002L195.803 33.238L195.798 31.4532L196.436 31.0843ZM200.557 18.426C201.562 17.8458 202.375 18.3097 202.378 19.4646L202.407 29.535C202.41 30.6849 201.602 32.0852 200.597 32.6655L141.242 66.9337C140.24 67.5119 139.427 67.0486 139.425 65.898L139.396 55.8276C139.393 54.672 140.201 53.2724 141.202 52.695L200.557 18.426Z" fill="#768192"/>
<path d="M143.026 156.844L141.026 155.682L140.986 141.604L142.986 142.766L143.026 156.844Z" fill="#CC5600"/>
<path d="M142.986 142.767L140.986 141.604L153.237 134.531L155.238 135.693L142.986 142.767Z" fill="#EA6404"/>
<path d="M155.237 135.693L155.277 149.771L143.026 156.844L142.985 142.766L155.237 135.693Z" fill="#FF6B00"/>
<path d="M142.97 136.755L140.97 135.592L140.931 121.515L142.93 122.677L142.97 136.755Z" fill="#120F1D"/>
<path d="M142.93 122.677L140.931 121.515L153.182 114.442L155.182 115.604L142.93 122.677Z" fill="#372F52"/>
<path d="M155.181 115.604L155.221 129.683L142.97 136.755L142.93 122.678L155.181 115.604Z" fill="#241F3B"/>
<path d="M142.912 116.671L140.912 115.509L140.872 101.432L142.872 102.594L142.912 116.671Z" fill="#120F1D"/>
<path d="M142.872 102.594L140.872 101.432L153.124 94.3583L155.124 95.521L142.872 102.594Z" fill="#372F52"/>
<path d="M155.125 95.5206L155.165 109.598L142.913 116.672L142.873 102.594L155.125 95.5206Z" fill="#241F3B"/>
<path d="M142.857 96.5879L140.857 95.4252L140.817 81.3475L142.817 82.5102L142.857 96.5879Z" fill="#120F1D"/>
<path d="M142.817 82.5103L140.817 81.3476L153.068 74.275L155.069 75.437L142.817 82.5103Z" fill="#372F52"/>
<path d="M155.068 75.4366L155.108 89.5144L142.857 96.5876L142.816 82.5099L155.068 75.4366Z" fill="#241F3B"/>
<path d="M159.898 147.104L157.898 145.941L157.858 131.864L159.857 133.026L159.898 147.104Z" fill="#120F1D"/>
<path d="M159.858 133.025L157.858 131.863L170.11 124.79L172.11 125.952L159.858 133.025Z" fill="#372F52"/>
<path d="M172.109 125.953L172.15 140.03L159.898 147.104L159.857 133.026L172.109 125.953Z" fill="#241F3B"/>
<path d="M159.84 127.014L157.841 125.852L157.801 111.775L159.801 112.937L159.84 127.014Z" fill="#120F1D"/>
<path d="M159.801 112.937L157.801 111.774L170.052 104.702L172.052 105.863L159.801 112.937Z" fill="#372F52"/>
<path d="M172.053 105.863L172.092 119.941L159.841 127.014L159.801 112.937L172.053 105.863Z" fill="#241F3B"/>
<path d="M159.785 106.931L157.785 105.769L157.745 91.6912L159.745 92.8532L159.785 106.931Z" fill="#120F1D"/>
<path d="M159.745 92.8533L157.745 91.6913L169.996 84.618L171.997 85.78L159.745 92.8533Z" fill="#372F52"/>
<path d="M171.995 85.7799L172.035 99.8576L159.784 106.931L159.743 92.8532L171.995 85.7799Z" fill="#241F3B"/>
<path d="M159.727 86.8472L157.727 85.6852L157.688 71.6075L159.687 72.7694L159.727 86.8472Z" fill="#120F1D"/>
<path d="M159.687 72.7698L157.688 71.6071L169.939 64.5338L171.939 65.6965L159.687 72.7698Z" fill="#372F52"/>
<path d="M171.938 65.6962L171.978 79.7739L159.727 86.8472L159.687 72.7694L171.938 65.6962Z" fill="#241F3B"/>
<path d="M176.769 137.363L174.769 136.201L174.729 122.123L176.729 123.285L176.769 137.363Z" fill="#120F1D"/>
<path d="M176.729 123.285L174.729 122.122L186.981 115.05L188.981 116.211L176.729 123.285Z" fill="#372F52"/>
<path d="M188.98 116.212L189.02 130.29L176.769 137.363L176.729 123.286L188.98 116.212Z" fill="#241F3B"/>
<path d="M176.71 117.274L174.711 116.111L174.671 102.034L176.671 103.196L176.71 117.274Z" fill="#120F1D"/>
<path d="M176.671 103.196L174.671 102.034L186.922 94.961L188.922 96.123L176.671 103.196Z" fill="#372F52"/>
<path d="M188.924 96.1229L188.963 110.201L176.712 117.274L176.672 103.196L188.924 96.1229Z" fill="#241F3B"/>
<path d="M176.655 97.1907L174.655 96.0287L174.615 81.951L176.615 83.1129L176.655 97.1907Z" fill="#120F1D"/>
<path d="M176.615 83.1125L174.615 81.9506L186.866 74.8773L188.867 76.0393L176.615 83.1125Z" fill="#372F52"/>
<path d="M188.865 76.0392L188.905 90.1169L176.654 97.1902L176.613 83.1125L188.865 76.0392Z" fill="#241F3B"/>
<path d="M176.598 77.1064L174.598 75.9445L174.559 61.8667L176.558 63.0287L176.598 77.1064Z" fill="#120F1D"/>
<path d="M176.558 63.0288L174.559 61.8668L186.81 54.7936L188.81 55.9555L176.558 63.0288Z" fill="#372F52"/>
<path d="M188.809 55.9554L188.85 70.0332L176.598 77.1064L176.558 63.0287L188.809 55.9554Z" fill="#241F3B"/>
<path d="M193.64 127.623L191.64 126.46L191.543 92.2931L193.543 93.4558L193.64 127.623Z" fill="#120F1D"/>
<path d="M193.543 93.4558L191.543 92.2931L203.795 85.2206L205.795 86.3825L193.543 93.4558Z" fill="#372F52"/>
<path d="M205.794 86.3825L205.891 120.549L193.639 127.623L193.542 93.4558L205.794 86.3825Z" fill="#241F3B"/>
<path d="M193.527 87.45L191.527 86.288L191.487 72.2102L193.487 73.3722L193.527 87.45Z" fill="#120F1D"/>
<path d="M193.487 73.3721L191.487 72.2101L203.738 65.1368L205.739 66.2988L193.487 73.3721Z" fill="#372F52"/>
<path d="M205.738 66.2987L205.778 80.3764L193.527 87.4497L193.486 73.372L205.738 66.2987Z" fill="#241F3B"/>
<path d="M193.469 67.3662L191.469 66.2042L191.43 52.1265L193.429 53.2885L193.469 67.3662Z" fill="#120F1D"/>
<path d="M193.429 53.2881L191.43 52.1261L203.681 45.0528L205.681 46.2148L193.429 53.2881Z" fill="#372F52"/>
<path d="M205.681 46.215L205.721 60.2927L193.47 67.366L193.43 53.2882L205.681 46.215Z" fill="#241F3B"/>
<path d="M150.142 120.565L150.169 130.422L148.82 131.201L148.798 123.681L147.757 124.282L147.754 123.184C148.795 122.583 149.024 121.872 149.231 121.091L150.142 120.565Z" fill="#FFA600"/>
<path d="M150.852 79.9163L150.855 81.2698L148.896 90.9189L147.546 91.6978L149.497 82.1111L146.811 83.6618L146.807 82.2516L150.852 79.9163Z" fill="#FFA600"/>
<path d="M166.593 138.788L166.578 133.464C166.576 132.762 166.307 132.645 165.877 132.893C165.447 133.142 165.18 133.567 165.182 134.269L165.198 139.594C165.2 140.296 165.467 140.407 165.898 140.159C166.328 139.91 166.595 139.49 166.593 138.788ZM165.873 131.488C167.196 130.725 167.923 131.206 167.928 132.784L167.942 137.911C167.947 139.487 167.225 140.806 165.902 141.57C164.579 142.333 163.852 141.85 163.847 140.274L163.833 135.147C163.829 133.571 164.551 132.252 165.873 131.488Z" fill="#FFA600"/>
<path d="M165.816 111.457C167.139 110.694 167.829 111.197 167.834 112.773C167.842 115.876 165.16 118.581 165.165 120.199C165.165 120.268 165.165 120.34 165.179 120.399L167.729 118.928L167.733 120.338L163.833 122.589L163.829 121.377C163.821 118.478 166.492 116.457 166.484 113.61C166.482 112.725 166.209 112.642 165.784 112.889C165.353 113.137 165.087 113.557 165.089 114.259L165.091 115.315L163.814 116.053L163.812 115.095C163.807 113.518 164.493 112.22 165.816 111.457Z" fill="#FFA600"/>
<path d="M183.35 88.8757L183.345 87.1008C183.343 86.3985 183.075 86.2822 182.645 86.5305C182.215 86.7787 181.948 87.2037 181.95 87.906L181.955 89.6808C181.957 90.3831 182.225 90.4846 182.656 90.2356C183.086 89.9873 183.352 89.578 183.35 88.8757ZM183.194 84.8059C184.185 84.2335 184.69 84.7449 184.695 86.197L184.7 87.9975C184.704 89.5744 183.982 90.8932 182.659 91.6565C181.337 92.4205 180.61 91.9381 180.605 90.3611L180.591 85.3181C180.587 83.6582 181.245 82.3756 182.645 81.5683C183.967 80.8043 184.653 81.3094 184.658 82.8871L184.658 83.1417L183.386 83.8767L183.385 83.5227C183.383 82.8204 183.115 82.709 182.685 82.9573C182.205 83.2347 181.938 83.6546 181.941 84.596L181.946 86.4021C182.176 85.7012 182.591 85.1535 183.194 84.8059Z" fill="#FFA600"/>
<path d="M180.756 126.253L184.75 123.947L184.753 125.045L180.759 127.351L180.756 126.253Z" fill="#FFA600"/>
<path d="M180.765 129.631L180.762 128.532L184.756 126.226L184.759 127.324L180.765 129.631Z" fill="#FFA600"/>
<path d="M182.688 101.659C184.01 100.895 184.701 101.398 184.706 102.975L184.707 103.231C184.709 104.287 184.417 105.118 183.766 105.807C184.441 105.755 184.715 106.332 184.718 107.332L184.72 108.102C184.725 109.684 184.039 110.982 182.717 111.745C181.394 112.509 180.703 112.006 180.699 110.424L180.696 109.607L181.973 108.87L181.976 109.785C181.978 110.493 182.246 110.604 182.676 110.356C183.106 110.107 183.373 109.714 183.37 108.84L183.368 108.064C183.366 107.154 183.098 106.969 182.481 107.325L182.029 107.586L182.024 106.176L182.555 105.87C183.057 105.579 183.36 105.15 183.358 104.364L183.356 103.812C183.354 102.928 183.086 102.842 182.656 103.091C182.225 103.339 181.959 103.758 181.961 104.466L181.963 105.096L180.685 105.833L180.684 105.298C180.679 103.721 181.365 102.423 182.688 101.659Z" fill="#FFA600"/>
<path d="M200.076 104.262L200.081 106.162L201.721 105.216L201.724 106.319L200.084 107.265L200.09 109.191L199.134 109.743L199.129 107.817L197.484 108.766L197.481 107.663L199.125 106.714L199.12 104.814L200.076 104.262Z" fill="#FFA600"/>
<path d="M200.74 75.3786L200.745 76.7889L198.294 78.2034L198.29 76.7931L200.74 75.3786Z" fill="#FFA600"/>
<path d="M167.549 90.3407L167.553 91.7452L165.211 93.0973L165.109 95.5128C165.352 94.9084 165.741 94.4288 166.284 94.1146C167.276 93.5421 167.781 94.0529 167.785 95.505L167.792 97.7012C167.796 99.2782 167.11 100.576 165.788 101.34C164.466 102.104 163.775 101.601 163.77 100.024L163.767 99.2065L165.044 98.4688L165.047 99.3853C165.049 100.093 165.317 100.188 165.747 99.94C166.174 99.6939 166.444 99.2874 166.442 98.5794L166.436 96.4094C166.434 95.7064 166.162 95.5986 165.736 95.8441C165.305 96.0923 165.039 96.5123 165.041 97.2146L165.042 97.5111L163.765 98.2489L163.993 92.3936L167.549 90.3407Z" fill="#FFA600"/>
<path d="M166.471 73.8743L166.47 73.3274C166.467 72.4378 166.136 72.3896 165.706 72.6379C165.275 72.8861 164.945 73.3167 164.948 74.2063L164.95 74.7532C164.952 75.5442 165.275 75.608 165.714 75.3541C166.144 75.1058 166.473 74.6653 166.471 73.8743ZM166.484 78.3555L166.481 77.439C166.479 76.6636 166.193 76.4905 165.717 76.7651C165.237 77.0417 164.957 77.5425 164.96 78.3179L164.962 79.2337C164.965 80.1027 165.296 80.1517 165.726 79.9034C166.156 79.6544 166.473 79.2323 166.484 78.3555ZM167.816 72.801C167.818 73.7743 167.54 74.5972 166.988 75.2704C167.578 75.3101 167.825 75.9024 167.827 76.8445L167.83 77.6206C167.834 79.1968 167.089 80.529 165.731 81.3136C164.372 82.0982 163.622 81.6293 163.617 80.0523L163.615 79.277C163.612 78.3349 163.855 77.4595 164.438 76.7424C163.876 76.7126 163.606 76.2061 163.604 75.2328L163.603 74.9256C163.598 73.3487 164.343 72.0171 165.702 71.2326C167.061 70.448 167.811 70.9169 167.815 72.4939L167.816 72.801Z" fill="#FFA600"/>
<path d="M183.284 65.2425L183.279 63.4676C183.277 62.7653 183.009 62.6646 182.579 62.9129C182.148 63.1612 181.881 63.5705 181.883 64.2728L181.889 66.0477C181.891 66.7499 182.159 66.867 182.589 66.618C183.019 66.3697 183.286 65.9448 183.284 65.2425ZM182.574 61.492C183.897 60.7287 184.625 61.2104 184.629 62.7873L184.643 67.8303C184.648 69.4903 183.989 70.7729 182.589 71.5809C181.267 72.3441 180.58 71.8391 180.576 70.2621L180.575 70.0067L181.848 69.2718L181.849 69.6258C181.851 70.3281 182.123 70.4373 182.55 70.1912C183.03 69.9138 183.296 69.4946 183.293 68.5525L183.288 66.7464C183.059 67.4473 182.643 67.9949 182.041 68.3425C181.049 68.915 180.543 68.4042 180.539 66.9521L180.534 65.1517C180.53 63.574 181.252 62.256 182.574 61.492Z" fill="#FFA600"/>
<path d="M149.147 107.98L149.136 104.274L147.788 108.764L149.147 107.98ZM150.474 107.213L151.108 106.847L151.112 108.253L150.477 108.619L150.483 110.409L149.156 111.175L149.151 109.385L146.555 110.884L146.552 109.478L148.983 101.402L150.455 100.552L150.474 107.213Z" fill="#FFA600"/>
<path d="M279.11 206.918L274.616 209.53L190.722 161.094L195.217 158.482L279.11 206.918Z" fill="#0290A7"/>
<path d="M279.11 206.918L279.109 207.639L274.613 210.251L274.615 209.53L279.11 206.918Z" fill="#768192"/>
<path d="M274.612 209.53V210.25L267.721 206.273L265.35 204.899L221.038 179.319L218.666 177.956L215.498 176.118L204.464 169.748L202.415 168.574L198.282 166.18L190.716 161.816L190.727 161.096L198.282 165.46L202.415 167.842L204.464 169.027L215.498 175.397L218.666 177.226L221.038 178.599L265.35 204.179L267.721 205.553L274.612 209.53Z" fill="#768192"/>
<path d="M336.06 173.109L274.617 208.816L190.723 160.38L252.166 124.673L336.06 173.109Z" fill="#A9B9D5"/>
<path d="M336.058 173.109L336.056 173.831L274.612 209.538L274.614 208.817L336.058 173.109Z" fill="#768192"/>
<path d="M274.617 208.817L274.615 209.538L190.721 161.102L190.723 160.381L274.617 208.817Z" fill="#768192"/>
<path d="M336.06 158.356L274.617 194.063L190.723 145.627L252.166 109.92L336.06 158.356Z" fill="#F7AA45"/>
<path d="M336.058 158.355L336.056 159.078L274.612 194.784L274.614 194.063L336.058 158.355Z" fill="#768192"/>
<path d="M274.617 194.063L274.615 194.784L190.721 146.348L190.723 145.627L274.617 194.063Z" fill="#768192"/>
<path d="M279.11 190.728L274.616 193.341L190.722 144.904L195.217 142.292L279.11 190.728Z" fill="#A8B9D5"/>
<path d="M279.11 190.728L279.109 191.451L274.613 194.062L274.615 193.341L279.11 190.728Z" fill="#768192"/>
<path d="M274.612 193.344V194.064L267.721 190.087L265.35 188.714L221.038 163.134L218.666 161.771L215.498 159.932L204.464 153.562L202.415 152.388L198.282 149.995L190.716 145.63L190.727 144.911L198.282 149.275L202.415 151.656L204.464 152.841L215.498 159.212L218.666 161.04L221.038 162.413L265.35 187.994L267.721 189.368L274.612 193.344Z" fill="#768192"/>
<path d="M274.613 194.523L274.616 208.816L190.722 160.581L190.722 146.112L274.613 194.523Z" fill="#768192"/>
<path d="M275.811 206.958L333.816 173.366V160.386L275.855 194.088L275.811 206.958Z" fill="white"/>
<path d="M274.613 194.523L274.615 209.018L275.811 208.301V193.831L274.613 194.523Z" fill="#768192"/>
<path d="M267.655 147.648C269.313 148.605 270.671 148.55 271.828 147.878C272.98 147.208 273.07 146.422 271.412 145.465L267.232 143.051C265.574 142.094 264.252 142.17 263.1 142.839C261.944 143.511 261.817 144.277 263.474 145.235L267.655 147.648ZM282.97 147.936C286.883 150.195 287.225 152.456 283.468 154.64C279.909 156.708 275.94 156.555 272.225 154.41L271.628 154.065L275.057 152.072L275.886 152.551C277.543 153.508 278.901 153.453 280.054 152.783C281.34 152.036 281.431 151.248 279.211 149.968L274.964 147.515C275.665 148.644 275.274 149.716 273.658 150.655C270.99 152.206 267.747 151.902 264.328 149.928L260.084 147.478C256.365 145.331 256.185 142.975 259.748 140.904C263.308 138.836 267.375 138.933 271.095 141.079L282.97 147.936Z" fill="#221C36"/>
<path d="M264.828 132.217C265.802 132.779 265.807 133.689 264.84 134.251L248.614 143.681L271.006 162.244C271.695 162.815 271.578 163.591 270.731 164.082C269.864 164.582 268.514 164.642 267.532 164.232L247.315 155.821L244.925 157.21C243.957 157.772 242.386 157.772 241.412 157.21C240.439 156.648 240.434 155.738 241.401 155.176L245.276 152.924C246.134 152.425 247.493 152.36 248.479 152.773L258.62 156.991L243.354 144.334C242.664 143.764 242.782 142.988 243.627 142.496L261.316 132.217C262.283 131.655 263.855 131.655 264.828 132.217Z" fill="#221C36"/>
<path d="M242.527 115.517L230.324 122.839L229.511 43.1155H241.713L242.527 115.517Z" fill="#FF9000"/>
<path d="M239.926 40.9155C242.251 42.0448 242.263 43.8757 239.954 45.0058C237.647 46.1337 233.893 46.1337 231.568 45.0044C229.244 43.8743 229.231 42.0434 231.537 40.9155C233.847 39.7861 237.602 39.7861 239.926 40.9155Z" fill="#EDEDED"/>
<path d="M229.784 42.8052L235.747 28.3117L241.71 42.8052H229.784Z" fill="#EDEDED"/>
<path d="M237.328 33.0785C238.207 33.5062 238.212 34.1986 237.339 34.6256C236.466 35.052 235.046 35.052 234.167 34.6249C233.288 34.1979 233.283 33.5055 234.156 33.0785C235.029 32.6514 236.449 32.6514 237.328 33.0785Z" fill="#221C36"/>
<path d="M233.493 33.7937L235.748 28.3123L238.004 33.7937H233.493Z" fill="#221C36"/>
<path d="M308.692 130.047C307.739 129.393 307.872 128.643 308.989 128.372C310.104 128.101 311.782 128.41 312.736 129.064C313.69 129.717 313.556 130.468 312.441 130.739C311.324 131.01 309.646 130.701 308.692 130.047Z" fill="#221C36"/>
<path d="M313.367 130.11L309.608 135.546L308.037 129.126L313.367 130.11Z" fill="#221C36"/>
<path d="M339.577 148.013C338.623 147.359 338.757 146.609 339.874 146.338C340.989 146.067 342.667 146.376 343.621 147.03C344.574 147.684 344.441 148.433 343.326 148.705C342.208 148.976 340.531 148.667 339.577 148.013Z" fill="#221C36"/>
<path d="M344.251 148.076L340.492 153.512L338.921 147.093L344.251 148.076Z" fill="#221C36"/>
<path d="M310.688 95.191L314.188 93.1572C314.915 93.9319 315.652 94.6703 316.39 95.3932L312.89 97.427C312.152 96.7041 311.415 95.9657 310.688 95.191Z" fill="#FF9000"/>
<path d="M316.942 103.452L320.442 101.419L313.972 130.467L310.473 132.501L316.942 103.452Z" fill="#FF9000"/>
<path d="M327.942 104.294C325.551 102.913 323.192 101.28 320.889 99.4136L317.389 101.447C319.692 103.314 322.051 104.947 324.442 106.328C326.948 107.774 329.407 108.892 331.814 109.698L335.314 107.664C332.907 106.858 330.447 105.74 327.942 104.294Z" fill="#FF9000"/>
<path d="M336.658 113.339L340.158 111.305L345.091 147.739L341.591 149.773L336.658 113.339Z" fill="#F7AA45"/>
<path d="M338.217 111.085L341.717 109.05L342.494 111.631L338.994 113.665L338.217 111.085Z" fill="#FF9000"/>
<path d="M336.316 110.831L339.817 108.798C340.456 108.906 341.091 108.996 341.716 109.05L338.217 111.084C337.591 111.03 336.956 110.94 336.316 110.831Z" fill="#FF9000"/>
<path d="M323.457 74.1797L326.957 72.1459L320.887 99.4132L317.387 101.447L323.457 74.1797Z" fill="#FF9000"/>
<path d="M331.254 73.468L334.754 71.4342L339.815 108.797L336.315 110.831L331.254 73.468Z" fill="#F7AA45"/>
<path d="M319.466 57.8772L322.966 55.8434C323.869 55.3184 325.013 55.2071 326.294 55.571L322.794 57.6048C321.514 57.2416 320.369 57.3523 319.466 57.8772Z" fill="#FF9000"/>
<path d="M326.362 59.6651L329.862 57.6313C332.967 60.3354 335.259 64.9067 335.247 68.758C335.245 69.8036 335.066 70.696 334.754 71.4337L331.254 73.4683C331.566 72.7298 331.745 71.8374 331.748 70.7918C331.759 66.9405 329.467 62.3699 326.362 59.6651Z" fill="#F7AA45"/>
<path d="M322.805 52.8789L326.305 50.8451L329.874 52.9059L326.374 54.9397L322.805 52.8789Z" fill="#FF9000"/>
<path d="M324.442 106.328C326.947 107.774 329.407 108.892 331.814 109.697L325.923 75.5506C325.474 75.3909 325.007 75.1788 324.532 74.9043C324.169 74.695 323.812 74.4468 323.458 74.18L317.389 101.447C319.692 103.314 322.051 104.947 324.442 106.328ZM336.658 113.339L341.59 149.773L338.545 148.708L332.247 112.205C329.695 111.357 327.09 110.176 324.436 108.644C321.895 107.177 319.392 105.44 316.943 103.452L310.473 132.501L307.436 130.054L312.54 99.5341C311.653 98.6779 310.767 97.7961 309.898 96.8676L310.687 95.1913C311.416 95.9659 312.153 96.7044 312.891 97.4273L318.073 66.4782C317.623 65.134 317.363 63.7755 317.367 62.4894C317.378 58.6381 319.684 56.7221 322.794 57.6046L322.806 52.8793L326.376 54.9401L326.362 59.6653C329.467 62.3702 331.758 66.9408 331.748 70.792C331.745 71.8376 331.565 72.73 331.255 73.4685L336.315 110.832C336.955 110.94 337.59 111.03 338.216 111.085L338.993 113.665C338.222 113.596 337.442 113.479 336.658 113.339Z" fill="#FF9000"/>
<path d="M326.376 54.9396L329.877 52.9058L329.862 57.631L326.362 59.6655L326.376 54.9396Z" fill="#F7AA45"/>
<path d="M331.331 38.9369L331.29 53.3935C331.288 54.1327 330.802 54.8704 329.833 55.4344C327.88 56.5694 324.701 56.5694 322.736 55.4344C321.746 54.8633 321.253 54.1135 321.255 53.3644L321.296 38.9079C321.294 39.657 321.788 40.4068 322.777 40.9778C324.742 42.1129 327.92 42.1129 329.873 40.9778C330.844 40.4139 331.329 39.6761 331.331 38.9369Z" fill="#221C36"/>
<path d="M329.851 36.867C331.817 38.002 331.827 39.8428 329.874 40.9778C327.921 42.1129 324.743 42.1129 322.777 40.9778C320.811 39.8428 320.801 38.002 322.754 36.867C324.707 35.7319 327.885 35.7319 329.851 36.867Z" fill="#372F52"/>
<path d="M324.014 62.0862C325.98 63.2212 327.569 65.9729 327.562 68.2323C327.556 70.4909 325.956 71.4018 323.991 70.2675C322.025 69.1325 320.436 66.3801 320.442 64.1214C320.449 61.8627 322.048 60.9511 324.014 62.0862Z" fill="#383340"/>
<path d="M324.007 64.5814C324.773 65.0241 325.393 66.0974 325.39 66.9784C325.388 67.8595 324.763 68.2149 323.997 67.7722C323.23 67.3296 322.61 66.2563 322.613 65.3752C322.615 64.4942 323.24 64.1388 324.007 64.5814Z" fill="#221C36"/>
<defs>
<filter id="filter0_d_109_1874" x="0.143314" y="36.5173" width="442.162" height="288.196" filterUnits="userSpaceOnUse" color-interpolation-filters="sRGB">
<feFlood flood-opacity="0" result="BackgroundImageFix"/>
<feColorMatrix in="SourceAlpha" type="matrix" values="0 0 0 0 0 0 0 0 0 0 0 0 0 0 0 0 0 0 127 0" result="hardAlpha"/>
<feOffset dy="20.8567"/>
<feGaussianBlur stdDeviation="10.4283"/>
<feColorMatrix type="matrix" values="0 0 0 0 0 0 0 0 0 0 0 0 0 0 0 0 0 0 0.2 0"/>
<feBlend mode="normal" in2="BackgroundImageFix" result="effect1_dropShadow_109_1874"/>
<feBlend mode="normal" in="SourceGraphic" in2="effect1_dropShadow_109_1874" result="shape"/>
</filter>
<linearGradient id="paint0_linear_109_1874" x1="221.218" y1="217.559" x2="20.9939" y2="217.559" gradientUnits="userSpaceOnUse">
<stop stop-color="#AABAD6"/>
<stop offset="1" stop-color="#96AAC9"/>
</linearGradient>
</defs>
</svg>
