<svg width="22" height="22" viewBox="0 0 22 22" fill="none" xmlns="http://www.w3.org/2000/svg">
<path d="M10.9998 2.75746e-05C9.94501 2.75746e-05 9.14214 -0.00352608 8.46588 0.0700507C7.78962 0.143628 7.17059 0.306191 6.70774 0.752772C6.24495 1.19935 6.07713 1.79597 6.00119 2.44766C5.94805 2.90372 5.93733 3.45729 5.93351 4.0741H3.52328C3.47583 4.06645 3.42778 4.06273 3.37967 4.06296C3.33872 4.06382 3.29789 4.06754 3.25751 4.0741H0.857256C0.745254 4.07257 0.634055 4.09252 0.53012 4.13279C0.426185 4.17305 0.331587 4.23282 0.251824 4.30864C0.172062 4.38445 0.108724 4.47479 0.0654932 4.57441C0.0222622 4.67402 0 4.78093 0 4.88891C0 4.99689 0.0222622 5.1038 0.0654932 5.20342C0.108724 5.30303 0.172062 5.39337 0.251824 5.46919C0.331587 5.545 0.426185 5.60478 0.53012 5.64504C0.634055 5.6853 0.745254 5.70525 0.857256 5.70372H2.54769V16.2963C2.54769 17.5167 2.54546 18.4436 2.63519 19.2102C2.72492 19.9767 2.91955 20.6498 3.43584 21.147C3.95212 21.6441 4.65025 21.8312 5.44492 21.9172C6.23959 22.0032 7.20002 22 8.46429 22H13.5356C14.8016 22 15.7631 22.0021 16.5583 21.9156C17.3534 21.8291 18.0516 21.6415 18.5674 21.1438C19.0831 20.6461 19.2771 19.9731 19.3663 19.207C19.454 18.4544 19.4523 17.5408 19.4522 16.3535C19.4534 16.3345 19.454 16.3153 19.4538 16.2962L19.4522 5.7037H21.1426C21.2546 5.70523 21.3658 5.68528 21.4698 5.64502C21.5737 5.60476 21.6683 5.54498 21.7481 5.46917C21.8278 5.39336 21.8912 5.30302 21.9344 5.2034C21.9776 5.10378 21.9999 4.99688 21.9999 4.88889C21.9999 4.78091 21.9776 4.67401 21.9344 4.57439C21.8912 4.47477 21.8278 4.38443 21.7481 4.30862C21.6683 4.2328 21.5737 4.17303 21.4698 4.13277C21.3658 4.0925 21.2546 4.07256 21.1426 4.07408H18.7374C18.6899 4.06644 18.6419 4.06271 18.5938 4.06294C18.5528 4.0638 18.512 4.06752 18.4716 4.07408H16.068C16.067 3.36854 16.0621 2.76729 15.997 2.26463C15.9189 1.66179 15.7326 1.08137 15.2607 0.671599C14.7889 0.261856 14.1941 0.129074 13.5258 0.0636772C12.8574 -0.00171943 12.0548 2.01925e-05 11 2.01925e-05L10.9998 2.75746e-05ZM10.9998 1.62965C12.0539 1.62965 12.8344 1.63292 13.3539 1.68376C13.8734 1.73459 14.0707 1.83277 14.1282 1.88268C14.1857 1.9326 14.2643 2.03933 14.3197 2.46674C14.3655 2.82101 14.3748 3.38495 14.3775 4.07412H7.6256C7.63091 3.48282 7.64191 2.97062 7.68173 2.62913C7.73918 2.13608 7.8364 1.96923 7.90294 1.90503C7.96947 1.84083 8.14421 1.74584 8.65571 1.69019C9.16721 1.63455 9.94585 1.62972 10.9998 1.62972L10.9998 1.62965ZM4.2381 5.7037H6.63176C6.72303 5.71824 6.81617 5.71824 6.90744 5.7037H17.7617L17.7634 16.2408C17.7622 16.2594 17.7616 16.2779 17.7617 16.2965C17.7617 17.5148 17.7565 18.4183 17.6858 19.0258C17.6151 19.6334 17.4915 19.8782 17.3721 19.9934C17.2527 20.1086 16.9988 20.2288 16.3684 20.2974C15.7381 20.3659 14.8007 20.3706 13.5356 20.3706H8.46431C7.20054 20.3706 6.26336 20.3655 5.63316 20.2974C5.00295 20.2292 4.74898 20.1101 4.62947 19.995C4.50994 19.8799 4.38529 19.6351 4.31416 19.0274C4.24303 18.4198 4.23822 17.5161 4.23822 16.2965V5.70396L4.2381 5.7037Z" fill="#FC4A1A"/>
</svg>
