<svg width="1291" height="641" viewBox="0 0 1291 641" fill="none" xmlns="http://www.w3.org/2000/svg">
<path d="M855.807 31.5442C855.807 27.3776 852.432 24.0002 848.266 24.0002C844.099 24.0002 840.722 27.3776 840.722 31.5442C840.722 35.7096 844.099 39.0869 848.266 39.0869C852.432 39.0869 855.807 35.7096 855.807 31.5442Z" fill="#FF9000"/>
<path d="M696.982 183.732C696.982 181.709 695.343 180.071 693.322 180.071C691.301 180.071 689.662 181.709 689.662 183.732C689.662 185.753 691.301 187.392 693.322 187.392C695.343 187.392 696.982 185.753 696.982 183.732Z" fill="#0A3031"/>
<path d="M632.512 83.4328C632.512 80.2528 629.935 77.6768 626.756 77.6768C623.577 77.6768 621 80.2528 621 83.4328C621 86.6114 623.577 89.1874 626.756 89.1874C629.935 89.1874 632.512 86.6114 632.512 83.4328Z" fill="#01A6FF"/>
<path d="M148.548 5.27467C148.548 2.36133 146.187 0 143.275 0C140.361 0 138 2.36133 138 5.27467C138 8.188 140.361 10.5493 143.275 10.5493C146.187 10.5493 148.548 8.188 148.548 5.27467Z" fill="#01A6FF"/>
<path d="M12.612 213.305C12.612 209.823 9.788 207 6.30667 207C2.82267 207 0 209.823 0 213.305C0 216.788 2.82267 219.612 6.30667 219.612C9.788 219.612 12.612 216.788 12.612 213.305Z" fill="#01A6FF"/>
<path d="M976 544.357C976 548.524 979.374 551.901 983.541 551.901C987.708 551.901 991.085 548.524 991.085 544.357C991.085 540.192 987.708 536.814 983.541 536.814C979.374 536.814 976 540.192 976 544.357Z" fill="#FF9000"/>
<path d="M1204.49 353.824C1204.49 357.256 1207.27 360.039 1210.7 360.039C1214.13 360.039 1216.91 357.256 1216.91 353.824C1216.91 350.392 1214.13 347.611 1210.7 347.611C1207.27 347.611 1204.49 350.392 1204.49 353.824Z" fill="#0A3031"/>
<path d="M1145 592.66C1145 594.683 1146.64 596.321 1148.66 596.321C1150.68 596.321 1152.32 594.683 1152.32 592.66C1152.32 590.639 1150.68 589 1148.66 589C1146.64 589 1145 590.639 1145 592.66Z" fill="#0A3031"/>
<path d="M1277.74 633.469C1277.74 636.649 1280.31 639.225 1283.49 639.225C1286.67 639.225 1289.25 636.649 1289.25 633.469C1289.25 630.29 1286.67 627.714 1283.49 627.714C1280.31 627.714 1277.74 630.29 1277.74 633.469Z" fill="#01A6FF"/>
<path d="M1280.26 301.647C1280.26 304.56 1282.62 306.921 1285.53 306.921C1288.45 306.921 1290.81 304.56 1290.81 301.647C1290.81 298.733 1288.45 296.372 1285.53 296.372C1282.62 296.372 1280.26 298.733 1280.26 301.647Z" fill="#01A6FF"/>
<path d="M614 445.307C614 448.789 616.824 451.612 620.306 451.612C623.79 451.612 626.612 448.789 626.612 445.307C626.612 441.824 623.79 439 620.306 439C616.824 439 614 441.824 614 445.307Z" fill="#01A6FF"/>
<path d="M1157 119.599C1157 123.795 1160.4 127.197 1164.6 127.197C1168.79 127.197 1172.2 123.795 1172.2 119.599C1172.2 115.403 1168.79 112 1164.6 112C1160.4 112 1157 115.403 1157 119.599Z" fill="#01A6FF"/>
<path d="M356.543 39.0001C360.71 39.0001 364.087 42.3748 364.087 46.5414C364.087 50.7081 360.71 54.0854 356.543 54.0854C352.378 54.0854 349 50.7081 349 46.5414C349 42.3748 352.378 39.0001 356.543 39.0001Z" fill="#FF9000"/>
<path d="M13.2131 410C16.6451 410 19.4277 412.781 19.4277 416.213C19.4277 419.645 16.6451 422.428 13.2131 422.428C9.78107 422.428 6.99974 419.645 6.99974 416.213C6.99974 412.781 9.78107 410 13.2131 410Z" fill="#0A3031"/>
<path d="M142.66 494C144.683 494 146.321 495.639 146.321 497.66C146.321 499.681 144.683 501.32 142.66 501.32C140.639 501.32 139 499.681 139 497.66C139 495.639 140.639 494 142.66 494Z" fill="#0A3031"/>
<path d="M710.922 627.282C714.102 627.282 716.678 629.859 716.678 633.038C716.678 636.217 714.102 638.794 710.922 638.794C707.743 638.794 705.167 636.217 705.167 633.038C705.167 629.859 707.743 627.282 710.922 627.282Z" fill="#01A6FF"/>
<path d="M379.1 629.806C382.014 629.806 384.375 632.167 384.375 635.079C384.375 637.992 382.014 640.354 379.1 640.354C376.187 640.354 373.826 637.992 373.826 635.079C373.826 632.167 376.187 629.806 379.1 629.806Z" fill="#01A6FF"/>
<path d="M96.307 591C99.7896 591 102.612 593.824 102.612 597.305C102.612 600.789 99.7896 603.612 96.307 603.612C92.8243 603.612 90.0003 600.789 90.0003 597.305C90.0003 593.824 92.8243 591 96.307 591Z" fill="#01A6FF"/>
</svg>
