<svg width="22" height="22" viewBox="0 0 22 22" fill="none" xmlns="http://www.w3.org/2000/svg">
<path d="M9.30757 3.38477C7.19577 3.38477 5.59986 3.38174 4.3282 3.52525C3.05662 3.66875 2.03871 3.97126 1.31052 4.70028C0.582333 5.4293 0.283138 6.44528 0.140478 7.71635C-0.00223183 8.98734 2.05852e-06 10.5831 2.05852e-06 12.6924C2.05852e-06 14.8023 -0.00174949 16.3985 0.143778 17.6701C0.289306 18.9417 0.595533 19.9583 1.32541 20.6862C2.05529 21.414 3.07134 21.716 4.34148 21.8595C5.61163 22.003 7.20406 22 9.30757 22C11.4113 22 13.0033 22.0009 14.2737 21.8562C15.544 21.7115 16.562 21.4081 17.2913 20.6796C18.0207 19.951 18.3241 18.9345 18.4697 17.6635C18.6152 16.3925 18.6151 14.7986 18.6151 12.6924C18.6167 12.5803 18.596 12.469 18.5542 12.3649C18.5124 12.2609 18.4503 12.1662 18.3715 12.0863C18.2928 12.0065 18.199 11.9431 18.0956 11.8998C17.9921 11.8565 17.8811 11.8342 17.769 11.8342C17.6568 11.8342 17.5458 11.8565 17.4424 11.8998C17.3389 11.9431 17.2451 12.0065 17.1664 12.0863C17.0876 12.1662 17.0256 12.2609 16.9838 12.3649C16.9419 12.469 16.9212 12.5803 16.9228 12.6924C16.9228 14.797 16.9155 16.3667 16.789 17.4718C16.6624 18.5769 16.4293 19.1489 16.0949 19.483C15.7604 19.8171 15.1885 20.0496 14.0836 20.1755C12.9787 20.3014 11.41 20.3077 9.30754 20.3077C7.20489 20.3077 5.63656 20.302 4.5315 20.1771C3.42644 20.0523 2.8542 19.821 2.52022 19.488C2.18625 19.155 1.95268 18.5825 1.82613 17.4767C1.69957 16.3709 1.69227 14.8005 1.69227 12.6924C1.69227 10.5836 1.69695 9.01278 1.82117 7.90645C1.94539 6.80012 2.17717 6.22872 2.50866 5.89686C2.84015 5.56501 3.41157 5.3326 4.51824 5.20772C5.62491 5.08284 7.19662 5.07716 9.30757 5.07716C9.41969 5.07875 9.53101 5.05803 9.63506 5.01622C9.73911 4.97441 9.83381 4.91234 9.91366 4.83361C9.99351 4.75488 10.0569 4.66107 10.1002 4.55762C10.1435 4.45417 10.1658 4.34316 10.1658 4.23102C10.1658 4.11889 10.1435 4.00787 10.1002 3.90442C10.0569 3.80098 9.99351 3.70716 9.91366 3.62843C9.83381 3.54971 9.73911 3.48763 9.63506 3.44582C9.53101 3.40401 9.41969 3.3833 9.30757 3.38488V3.38477Z" fill="#35da3d"/>
<path d="M18.6019 0.000133162C18.382 0.00363741 18.1722 0.0925423 18.0168 0.248027L7.86313 10.4017C7.70445 10.5604 7.61528 10.7756 7.61523 11V13.5384C7.61526 13.7628 7.70441 13.978 7.86309 14.1367C8.02177 14.2954 8.23697 14.3845 8.46138 14.3845H10.9998C11.2242 14.3845 11.4394 14.2953 11.598 14.1366L21.7517 3.98294C21.9104 3.82425 21.9995 3.60906 21.9995 3.38468C21.9995 3.1603 21.9104 2.94511 21.7517 2.78642L19.2133 0.247993C19.1332 0.167829 19.0378 0.104578 18.9327 0.061995C18.8277 0.0194116 18.7152 -0.00163671 18.6018 9.92701e-05L18.6019 0.000133162ZM18.6151 2.0428L19.957 3.3847L18.6151 4.72659L17.2732 3.3847L18.6151 2.0428ZM16.0766 4.58122L17.4185 5.92312L10.6494 12.6922H9.30752V11.3504L16.0766 4.58122Z" fill="#35da3d"/>
</svg>
