<svg width="26" height="26" viewBox="0 0 26 26" fill="none" xmlns="http://www.w3.org/2000/svg">
<path d="M12.5046 18.0533L12.5045 18.0533C12.2259 18.0617 11.9615 18.1779 11.7671 18.3776C11.7669 18.3779 11.7666 18.3781 11.7664 18.3784L8.04703 22.0991L7.99385 22.1505L7.99383 22.1505L7.99203 22.1523C6.84134 23.3029 4.99808 23.3029 3.84739 22.1523C2.69671 21.0017 2.69671 19.1586 3.84739 18.0081L3.84741 18.008L9.51032 12.3439C10.6607 11.1936 12.5051 11.1933 13.6559 12.343C13.7546 12.4453 13.8728 12.5269 14.0034 12.5832C14.1344 12.6397 14.2754 12.6695 14.4182 12.6708C14.5609 12.6722 14.7024 12.6451 14.8345 12.5911C14.9667 12.5371 15.0867 12.4573 15.1876 12.3564C15.2885 12.2555 15.3683 12.1355 15.4223 12.0034C15.4763 11.8713 15.5034 11.7297 15.5021 11.587C15.5007 11.4443 15.4709 11.3033 15.4144 11.1722C15.3581 11.0416 15.2764 10.9235 15.1741 10.8247C14.1865 9.83778 12.8844 9.34414 11.5837 9.34414V9.3441L11.5817 9.34414C10.3148 9.3446 9.04962 9.81675 8.07264 10.7526C8.0445 10.7757 8.01756 10.8001 7.99191 10.8259C7.99186 10.826 7.9918 10.826 7.99175 10.8261L2.32997 16.4891C2.32982 16.4892 2.32967 16.4894 2.32952 16.4895C2.29928 16.5193 2.27083 16.5509 2.24433 16.584C0.358978 18.5658 0.383996 21.7255 2.32911 23.6705C4.27401 25.6152 7.43474 25.6414 9.41674 23.7565C9.44998 23.7294 9.48157 23.7003 9.51133 23.6694L13.2846 19.8965C13.2849 19.8962 13.2851 19.896 13.2854 19.8957C13.4401 19.745 13.5458 19.5512 13.5887 19.3395C13.6316 19.1274 13.6094 18.9073 13.5251 18.7081C13.4407 18.5089 13.2982 18.3397 13.1161 18.2229C12.934 18.1061 12.7208 18.047 12.5046 18.0533Z" fill="#3662C1" stroke="#3662C1" stroke-width="0.3"/>
<path d="M20.224 0.852146L20.2239 0.85H20.0802C18.8126 0.85 17.5484 1.32219 16.5711 2.25849C16.543 2.28153 16.516 2.30599 16.4904 2.33177C16.4903 2.33182 16.4903 2.33188 16.4902 2.33193L12.7156 6.10619C12.6133 6.20496 12.5316 6.32308 12.4753 6.45369C12.4188 6.58475 12.389 6.72575 12.3877 6.86846C12.3863 7.01117 12.4134 7.15272 12.4674 7.28482C12.5214 7.41693 12.6012 7.53695 12.7021 7.63786C12.803 7.73878 12.9231 7.81856 13.0552 7.87254C13.1873 7.92653 13.3289 7.95364 13.4716 7.95228C13.6143 7.95093 13.7553 7.92114 13.8864 7.86465C14.017 7.80836 14.1351 7.72668 14.2339 7.62436L17.9517 3.90513C17.9718 3.88705 17.9913 3.86822 18.01 3.84868C19.1607 2.69929 21.0031 2.69969 22.1534 3.84988C23.3041 5.00046 23.3041 6.84352 22.1534 7.9941L22.1534 7.99412L16.4905 13.6583C16.4905 13.6583 16.4905 13.6583 16.4905 13.6583C15.34 14.8086 13.4955 14.8088 12.3447 13.659C12.2448 13.5565 12.1254 13.475 11.9936 13.4193C11.8614 13.3635 11.7194 13.3347 11.5759 13.3347H11.5758C11.3622 13.3348 11.1535 13.3985 10.9764 13.5178C10.7992 13.6371 10.6616 13.8065 10.5813 14.0044C10.5009 14.2023 10.4814 14.4196 10.5252 14.6286C10.5689 14.8373 10.6738 15.0283 10.8265 15.1771C12.7714 17.1211 15.9334 17.1471 17.9151 15.2625C17.9484 15.2353 17.98 15.2063 18.0097 15.1754L23.6707 9.51311C23.6709 9.51297 23.671 9.51283 23.6712 9.51268C23.7014 9.48289 23.7299 9.45133 23.7564 9.41817C25.6417 7.43644 25.6167 4.27667 23.6716 2.33171L23.5655 2.43779L23.6716 2.33171C22.7203 1.38049 21.4769 0.887205 20.224 0.852146Z" fill="#3662C1" stroke="#3662C1" stroke-width="0.3"/>
</svg>
