<svg width="36" height="36" viewBox="0 0 36 36" fill="none" xmlns="http://www.w3.org/2000/svg">
<path d="M18 36C27.9411 36 36 27.9411 36 18C36 8.05888 27.9411 0 18 0C8.05888 0 0 8.05888 0 18C0 27.9411 8.05888 36 18 36Z" fill="#000000"/>
<path d="M28.7549 19.4491V26.8701H24.4524V19.9465C24.4524 18.208 23.8312 17.0208 22.2734 17.0208C21.0846 17.0208 20.3783 17.8201 20.0665 18.594C19.9532 18.8706 19.924 19.2547 19.924 19.6426V26.8698H15.6212C15.6212 26.8698 15.6789 15.1434 15.6212 13.9296H19.9243V15.7633C19.9157 15.7777 19.9035 15.7919 19.8958 15.8057H19.9243V15.7633C20.4961 14.8835 21.5158 13.6257 23.802 13.6257C26.6327 13.6257 28.7549 15.4752 28.7549 19.4491ZM11.12 7.69189C9.64822 7.69189 8.6853 8.65803 8.6853 9.92738C8.6853 11.1698 9.62031 12.1638 11.0636 12.1638H11.0915C12.5922 12.1638 13.5253 11.1698 13.5253 9.92738C13.4967 8.65803 12.5922 7.69189 11.12 7.69189ZM8.94103 26.8701H13.2423V13.9296H8.94103V26.8701Z" fill="white"/>
</svg>
