<svg width="26" height="22" viewBox="0 0 26 22" fill="none" xmlns="http://www.w3.org/2000/svg">
<path d="M2.22513 20.9824L2.14802 20.7979L2.22514 20.9824C2.35074 20.9299 2.46467 20.853 2.56029 20.7562C2.65591 20.6593 2.73132 20.5444 2.78211 20.4181C2.83272 20.2923 2.85789 20.1578 2.85617 20.0222L2.85617 1.83971C2.85789 1.70415 2.83272 1.56959 2.78211 1.44379C2.73132 1.31754 2.65591 1.20264 2.56029 1.10578C2.46467 1.00891 2.35074 0.932002 2.22513 0.879514C2.09952 0.827026 1.96473 0.8 1.82859 0.8C1.69244 0.8 1.55765 0.827026 1.43204 0.879514C1.30643 0.932002 1.1925 1.00891 1.09688 1.10578C1.00126 1.20264 0.925858 1.31754 0.875063 1.44379C0.824455 1.56958 0.799285 1.70414 0.801006 1.8397L0.801006 20.0222C0.799285 20.1578 0.824455 20.2923 0.875064 20.4181C0.925857 20.5444 1.00126 20.6593 1.09688 20.7562C1.1925 20.853 1.30643 20.9299 1.43204 20.9824L1.50915 20.7979L1.43204 20.9824C1.55765 21.0349 1.69244 21.0619 1.82859 21.0619C1.96473 21.0619 2.09952 21.0349 2.22513 20.9824Z" fill="#35da3d" stroke="#35da3d" stroke-width="0.4"/>
<path d="M25.1999 10.9183L25.1999 10.9153L25.1999 10.9151C25.1956 10.6484 25.0876 10.3938 24.8988 10.2053C24.8988 10.2053 24.8988 10.2053 24.8987 10.2052L17.4518 2.76716C17.3574 2.66953 17.2445 2.59159 17.1196 2.53786L17.0406 2.72156L17.1196 2.53786C16.9942 2.48387 16.8593 2.45539 16.7227 2.4541C16.5862 2.4528 16.4507 2.47871 16.3243 2.53032C16.1979 2.58192 16.083 2.65819 15.9864 2.75468C15.8898 2.85116 15.8134 2.96593 15.7617 3.09227C15.71 3.21861 15.6841 3.35399 15.6854 3.49048C15.6867 3.62698 15.7152 3.76184 15.7693 3.88718C15.8231 4.0119 15.9011 4.12471 15.9989 4.21906L21.6912 9.90467H7.62204C7.2884 9.90032 7.02275 10.0244 6.84246 10.2248C6.66536 10.4216 6.5813 10.6798 6.5813 10.9313C6.5813 11.1827 6.66536 11.4409 6.84246 11.6378C7.02274 11.8381 7.28838 11.9622 7.622 11.9579L21.6912 11.9579L15.9989 17.6435C15.9011 17.7378 15.8231 17.8506 15.7693 17.9754C15.7152 18.1007 15.6867 18.2356 15.6854 18.3721C15.6841 18.5085 15.71 18.6439 15.7617 18.7703C15.8134 18.8966 15.8898 19.0114 15.9864 19.1079C16.083 19.2043 16.1979 19.2806 16.3243 19.3322L16.3999 19.1471L16.3243 19.3322C16.4507 19.3838 16.5862 19.4097 16.7227 19.4084C16.8593 19.4071 16.9942 19.3787 17.1196 19.3247C17.2445 19.2709 17.3574 19.193 17.4519 19.0953L24.8988 11.6573C24.8988 11.6573 24.8988 11.6573 24.8988 11.6573C24.9961 11.5601 25.073 11.4443 25.1247 11.3169C25.176 11.1903 25.2016 11.0548 25.1999 10.9183H25.1999Z" fill="#35da3d" stroke="#35da3d" stroke-width="0.4"/>
</svg>
