<svg width="251" height="251" viewBox="0 0 251 251" fill="none" xmlns="http://www.w3.org/2000/svg">
<path d="M1 2.92063e-06C1 138.071 112.929 250 251 250" stroke="#E75755" stroke-miterlimit="3.8637" stroke-dasharray="10 10"/>
<g filter="url(#filter0_d_503_3471)">
<circle cx="69" cy="169" r="23" fill="white"/>
</g>
<path d="M64.6622 175.908C64.4393 175.672 64.2827 175.374 64.2259 175.05C64.1116 174.4 64.3635 173.78 64.8274 173.363L72.5056 166.449C72.9695 166.032 73.6123 165.846 74.2467 166.027C74.8782 166.208 75.368 166.778 75.4539 167.429C75.7533 169.712 76.35 174.266 76.6385 176.465C76.7228 177.092 76.4714 177.68 76.0269 178.081C75.5832 178.48 74.9733 178.668 74.3595 178.52L74.3568 178.52C72.1993 178.003 67.7324 176.934 65.494 176.397C65.1747 176.321 64.8851 176.145 64.6622 175.908ZM66.472 174.573C68.7561 175.121 72.5553 176.033 74.6312 176.53C74.3536 174.414 73.8432 170.54 73.5376 168.211L66.472 174.573Z" fill="#3662C1"/>
<rect width="2" height="11" rx="1" transform="matrix(0.743145 -0.669131 -0.669131 -0.743145 68.3604 171.513)" fill="#3662C1"/>
<defs>
<filter id="filter0_d_503_3471" x="31" y="131" width="96" height="96" filterUnits="userSpaceOnUse" color-interpolation-filters="sRGB">
<feFlood flood-opacity="0" result="BackgroundImageFix"/>
<feColorMatrix in="SourceAlpha" type="matrix" values="0 0 0 0 0 0 0 0 0 0 0 0 0 0 0 0 0 0 127 0" result="hardAlpha"/>
<feOffset dx="10" dy="10"/>
<feGaussianBlur stdDeviation="12.5"/>
<feColorMatrix type="matrix" values="0 0 0 0 0 0 0 0 0 0 0 0 0 0 0 0 0 0 0.1 0"/>
<feBlend mode="normal" in2="BackgroundImageFix" result="effect1_dropShadow_503_3471"/>
<feBlend mode="normal" in="SourceGraphic" in2="effect1_dropShadow_503_3471" result="shape"/>
</filter>
</defs>
</svg>
