<svg width="22" height="22" viewBox="0 0 22 22" fill="none" xmlns="http://www.w3.org/2000/svg">
<path d="M10.9963 0C4.93222 0 0 4.93468 0 11C0 17.066 4.93229 22 10.9963 22C17.0595 22 21.9925 17.0661 21.9925 11C21.9925 10.4995 21.958 10.0062 21.8928 9.52372C21.883 9.41826 21.8519 9.31587 21.8015 9.22271C21.7511 9.12955 21.6824 9.04755 21.5996 8.98162C21.5167 8.9157 21.4213 8.86722 21.3192 8.8391C21.2172 8.81098 21.1104 8.80379 21.0055 8.81797C20.9006 8.83215 20.7996 8.86741 20.7086 8.92163C20.6177 8.97584 20.5386 9.04789 20.4762 9.13346C20.4137 9.21902 20.3693 9.31632 20.3454 9.41951C20.3215 9.52271 20.3187 9.62967 20.3372 9.73396C20.393 10.1472 20.4216 10.5703 20.4216 11C20.4216 16.2167 16.2104 20.4286 10.9962 20.4286C5.78118 20.4286 1.57087 16.2168 1.57087 11C1.57087 5.78402 5.78126 1.57141 10.9962 1.57141C12.6048 1.57141 14.1136 1.97321 15.4374 2.68249C15.5285 2.73498 15.6292 2.76864 15.7336 2.78147C15.8379 2.7943 15.9438 2.78604 16.0449 2.75719C16.146 2.72833 16.2403 2.67947 16.3222 2.61349C16.4041 2.54751 16.4719 2.46576 16.5216 2.37308C16.5713 2.28041 16.6019 2.17869 16.6116 2.07396C16.6213 1.96923 16.6099 1.86362 16.578 1.76339C16.5461 1.66316 16.4945 1.57035 16.4261 1.49046C16.3577 1.41057 16.274 1.34522 16.1799 1.2983C14.6352 0.470706 12.8672 6.29425e-05 10.9962 6.29425e-05L10.9963 0Z" fill="#F78733"/>
<path d="M21.1909 2.34944C20.9869 2.35552 20.7932 2.44083 20.6509 2.5873L10.21 13.0318L6.05259 8.87301C5.98018 8.79777 5.8935 8.73772 5.79761 8.69638C5.70172 8.65504 5.59856 8.63324 5.49416 8.63224C5.38975 8.63125 5.28619 8.65109 5.18954 8.6906C5.09289 8.73012 5.00508 8.78851 4.93125 8.86236C4.85742 8.93622 4.79905 9.02406 4.75955 9.12074C4.72005 9.21743 4.70022 9.32102 4.70121 9.42546C4.7022 9.5299 4.72399 9.6331 4.76532 9.72902C4.80665 9.82494 4.86668 9.91165 4.94189 9.98409L9.65458 14.6984C9.80188 14.8457 10.0016 14.9284 10.2099 14.9284C10.4182 14.9284 10.618 14.8457 10.7653 14.6984L21.7615 3.69838C21.875 3.58801 21.9526 3.44592 21.9839 3.29073C22.0153 3.13554 21.9991 2.97448 21.9374 2.82866C21.8757 2.68284 21.7715 2.55907 21.6382 2.47356C21.505 2.38805 21.3491 2.3448 21.1909 2.34946L21.1909 2.34944Z" fill="#F78733"/>
</svg>
