<svg width="1691" height="1468" viewBox="0 0 1691 1468" fill="none" xmlns="http://www.w3.org/2000/svg">
<path d="M1425.34 100H265.665C221.73 100 179.59 116.681 148.525 146.377C117.454 176.067 100 216.341 100 258.331V891.668C100 933.658 117.454 973.933 148.525 1003.62C179.59 1033.32 221.73 1050 265.665 1050H1425.34C1469.27 1050 1511.41 1033.32 1542.48 1003.62C1573.55 973.933 1591 933.658 1591 891.668V258.331C1591 216.341 1573.55 176.067 1542.48 146.377C1511.41 116.681 1469.27 100 1425.34 100Z" fill="#FC4A1A"/>
<path d="M845.5 1368H514.165ZM845.5 1051H1425.34C1469.27 1051 1511.41 1034.3 1542.48 1004.57C1573.55 974.852 1591 934.535 1591 892.501V258.498C1591 216.464 1573.55 176.147 1542.48 146.426C1511.41 116.698 1469.27 100 1425.34 100H265.665C221.73 100 179.59 116.698 148.525 146.426C117.454 176.147 100 216.464 100 258.498V892.501C100 934.535 117.454 974.852 148.525 1004.57C179.59 1034.3 221.73 1051 265.665 1051H845.5ZM845.5 1051V1368V1051ZM845.5 1368H1176.84H845.5Z" fill="#FC4A1A"/>
<path d="M845.5 1368H514.165M845.5 1051H1425.34C1469.27 1051 1511.41 1034.3 1542.48 1004.57C1573.55 974.852 1591 934.535 1591 892.501V258.498C1591 216.464 1573.55 176.147 1542.48 146.426C1511.41 116.698 1469.27 100 1425.34 100H265.665C221.73 100 179.59 116.698 148.525 146.426C117.454 176.147 100 216.464 100 258.498V892.501C100 934.535 117.454 974.852 148.525 1004.57C179.59 1034.3 221.73 1051 265.665 1051H845.5ZM845.5 1051V1368V1051ZM845.5 1368H1176.84H845.5Z" stroke="#FC4A1A" stroke-width="200" stroke-linecap="round" stroke-linejoin="round"/>
</svg>
