<svg width="1754" height="1090" viewBox="0 0 1754 1090" fill="none" xmlns="http://www.w3.org/2000/svg">
<path fill-rule="evenodd" clip-rule="evenodd" d="M0 217.998C0 160.18 23.1026 104.73 64.2188 63.8484C105.335 22.9665 161.102 3.11859e-06 219.252 3.11859e-06H1041.44C1094.62 -0.00893673 1145.99 19.2028 1185.98 54.0548C1225.97 88.9068 1251.86 137.021 1258.82 189.44L1599.76 38.8035C1616.45 31.4102 1634.73 28.2812 1652.94 29.6982C1671.16 31.1196 1688.72 37.0423 1704.05 46.9297C1719.38 56.8172 1731.97 70.3566 1740.7 86.3187C1749.42 102.281 1754 120.156 1754 138.317V951.678C1753.99 969.83 1749.41 987.688 1740.69 1003.64C1731.98 1019.59 1719.39 1033.12 1704.08 1043C1688.77 1052.89 1671.22 1058.81 1653.02 1060.24C1634.82 1061.67 1616.55 1058.57 1599.87 1051.2L1258.82 900.556C1251.86 952.979 1225.97 1001.09 1185.98 1035.95C1145.99 1070.8 1094.62 1090 1041.44 1090H219.252C161.102 1090 105.335 1067.03 64.2188 1026.15C23.1026 985.265 0 929.816 0 872.002V217.998Z" fill="#8E8E8E"/>
</svg>
